%TF.GenerationSoftware,KiCad,Pcbnew,8.0.2*%
%TF.CreationDate,2024-08-15T23:42:42-04:00*%
%TF.ProjectId,BREAD_Slice,42524541-445f-4536-9c69-63652e6b6963,rev?*%
%TF.SameCoordinates,PX74eba40PY8552dc0*%
%TF.FileFunction,Legend,Top*%
%TF.FilePolarity,Positive*%
%FSLAX46Y46*%
G04 Gerber Fmt 4.6, Leading zero omitted, Abs format (unit mm)*
G04 Created by KiCad (PCBNEW 8.0.2) date 2024-08-15 23:42:42*
%MOMM*%
%LPD*%
G01*
G04 APERTURE LIST*
%ADD10C,0.150000*%
%ADD11C,0.100000*%
%ADD12C,0.120000*%
%ADD13C,0.010000*%
%ADD14C,0.177800*%
%ADD15C,0.200000*%
G04 APERTURE END LIST*
D10*
X53207438Y78330477D02*
X55207438Y78997143D01*
X55207438Y78997143D02*
X53207438Y79663810D01*
X55207438Y82140001D02*
X55112200Y81949525D01*
X55112200Y81949525D02*
X55016961Y81854287D01*
X55016961Y81854287D02*
X54826485Y81759049D01*
X54826485Y81759049D02*
X54255057Y81759049D01*
X54255057Y81759049D02*
X54064580Y81854287D01*
X54064580Y81854287D02*
X53969342Y81949525D01*
X53969342Y81949525D02*
X53874104Y82140001D01*
X53874104Y82140001D02*
X53874104Y82425716D01*
X53874104Y82425716D02*
X53969342Y82616192D01*
X53969342Y82616192D02*
X54064580Y82711430D01*
X54064580Y82711430D02*
X54255057Y82806668D01*
X54255057Y82806668D02*
X54826485Y82806668D01*
X54826485Y82806668D02*
X55016961Y82711430D01*
X55016961Y82711430D02*
X55112200Y82616192D01*
X55112200Y82616192D02*
X55207438Y82425716D01*
X55207438Y82425716D02*
X55207438Y82140001D01*
X53874104Y84520954D02*
X55207438Y84520954D01*
X53874104Y83663811D02*
X54921723Y83663811D01*
X54921723Y83663811D02*
X55112200Y83759049D01*
X55112200Y83759049D02*
X55207438Y83949525D01*
X55207438Y83949525D02*
X55207438Y84235240D01*
X55207438Y84235240D02*
X55112200Y84425716D01*
X55112200Y84425716D02*
X55016961Y84520954D01*
X53874104Y85187621D02*
X53874104Y85949525D01*
X53207438Y85473335D02*
X54921723Y85473335D01*
X54921723Y85473335D02*
X55112200Y85568573D01*
X55112200Y85568573D02*
X55207438Y85759049D01*
X55207438Y85759049D02*
X55207438Y85949525D01*
X56068095Y84524467D02*
X57591905Y84524467D01*
X56830000Y83762562D02*
X56830000Y85286372D01*
X56332438Y78838096D02*
X56284819Y78742858D01*
X56284819Y78742858D02*
X56284819Y78600001D01*
X56284819Y78600001D02*
X56332438Y78457144D01*
X56332438Y78457144D02*
X56427676Y78361906D01*
X56427676Y78361906D02*
X56522914Y78314287D01*
X56522914Y78314287D02*
X56713390Y78266668D01*
X56713390Y78266668D02*
X56856247Y78266668D01*
X56856247Y78266668D02*
X57046723Y78314287D01*
X57046723Y78314287D02*
X57141961Y78361906D01*
X57141961Y78361906D02*
X57237200Y78457144D01*
X57237200Y78457144D02*
X57284819Y78600001D01*
X57284819Y78600001D02*
X57284819Y78695239D01*
X57284819Y78695239D02*
X57237200Y78838096D01*
X57237200Y78838096D02*
X57189580Y78885715D01*
X57189580Y78885715D02*
X56856247Y78885715D01*
X56856247Y78885715D02*
X56856247Y78695239D01*
X57284819Y79314287D02*
X56284819Y79314287D01*
X56284819Y79314287D02*
X57284819Y79885715D01*
X57284819Y79885715D02*
X56284819Y79885715D01*
X57284819Y80361906D02*
X56284819Y80361906D01*
X56284819Y80361906D02*
X56284819Y80600001D01*
X56284819Y80600001D02*
X56332438Y80742858D01*
X56332438Y80742858D02*
X56427676Y80838096D01*
X56427676Y80838096D02*
X56522914Y80885715D01*
X56522914Y80885715D02*
X56713390Y80933334D01*
X56713390Y80933334D02*
X56856247Y80933334D01*
X56856247Y80933334D02*
X57046723Y80885715D01*
X57046723Y80885715D02*
X57141961Y80838096D01*
X57141961Y80838096D02*
X57237200Y80742858D01*
X57237200Y80742858D02*
X57284819Y80600001D01*
X57284819Y80600001D02*
X57284819Y80361906D01*
X56332438Y59788096D02*
X56284819Y59692858D01*
X56284819Y59692858D02*
X56284819Y59550001D01*
X56284819Y59550001D02*
X56332438Y59407144D01*
X56332438Y59407144D02*
X56427676Y59311906D01*
X56427676Y59311906D02*
X56522914Y59264287D01*
X56522914Y59264287D02*
X56713390Y59216668D01*
X56713390Y59216668D02*
X56856247Y59216668D01*
X56856247Y59216668D02*
X57046723Y59264287D01*
X57046723Y59264287D02*
X57141961Y59311906D01*
X57141961Y59311906D02*
X57237200Y59407144D01*
X57237200Y59407144D02*
X57284819Y59550001D01*
X57284819Y59550001D02*
X57284819Y59645239D01*
X57284819Y59645239D02*
X57237200Y59788096D01*
X57237200Y59788096D02*
X57189580Y59835715D01*
X57189580Y59835715D02*
X56856247Y59835715D01*
X56856247Y59835715D02*
X56856247Y59645239D01*
X57284819Y60264287D02*
X56284819Y60264287D01*
X56284819Y60264287D02*
X57284819Y60835715D01*
X57284819Y60835715D02*
X56284819Y60835715D01*
X57284819Y61311906D02*
X56284819Y61311906D01*
X56284819Y61311906D02*
X56284819Y61550001D01*
X56284819Y61550001D02*
X56332438Y61692858D01*
X56332438Y61692858D02*
X56427676Y61788096D01*
X56427676Y61788096D02*
X56522914Y61835715D01*
X56522914Y61835715D02*
X56713390Y61883334D01*
X56713390Y61883334D02*
X56856247Y61883334D01*
X56856247Y61883334D02*
X57046723Y61835715D01*
X57046723Y61835715D02*
X57141961Y61788096D01*
X57141961Y61788096D02*
X57237200Y61692858D01*
X57237200Y61692858D02*
X57284819Y61550001D01*
X57284819Y61550001D02*
X57284819Y61311906D01*
X56068095Y55314467D02*
X57591905Y55314467D01*
X56830000Y54552562D02*
X56830000Y56076372D01*
X53207438Y55200477D02*
X55207438Y55867143D01*
X55207438Y55867143D02*
X53207438Y56533810D01*
X55207438Y58724287D02*
X53874104Y58724287D01*
X53207438Y58724287D02*
X53302676Y58629049D01*
X53302676Y58629049D02*
X53397914Y58724287D01*
X53397914Y58724287D02*
X53302676Y58819525D01*
X53302676Y58819525D02*
X53207438Y58724287D01*
X53207438Y58724287D02*
X53397914Y58724287D01*
X53874104Y59676668D02*
X55207438Y59676668D01*
X54064580Y59676668D02*
X53969342Y59771906D01*
X53969342Y59771906D02*
X53874104Y59962382D01*
X53874104Y59962382D02*
X53874104Y60248097D01*
X53874104Y60248097D02*
X53969342Y60438573D01*
X53969342Y60438573D02*
X54159819Y60533811D01*
X54159819Y60533811D02*
X55207438Y60533811D01*
X6686666Y51677610D02*
X6610476Y51715705D01*
X6610476Y51715705D02*
X6496190Y51715705D01*
X6496190Y51715705D02*
X6381904Y51677610D01*
X6381904Y51677610D02*
X6305714Y51601420D01*
X6305714Y51601420D02*
X6267619Y51525229D01*
X6267619Y51525229D02*
X6229523Y51372848D01*
X6229523Y51372848D02*
X6229523Y51258562D01*
X6229523Y51258562D02*
X6267619Y51106181D01*
X6267619Y51106181D02*
X6305714Y51029991D01*
X6305714Y51029991D02*
X6381904Y50953800D01*
X6381904Y50953800D02*
X6496190Y50915705D01*
X6496190Y50915705D02*
X6572381Y50915705D01*
X6572381Y50915705D02*
X6686666Y50953800D01*
X6686666Y50953800D02*
X6724762Y50991896D01*
X6724762Y50991896D02*
X6724762Y51258562D01*
X6724762Y51258562D02*
X6572381Y51258562D01*
X7067619Y50915705D02*
X7067619Y51715705D01*
X7067619Y51715705D02*
X7524762Y50915705D01*
X7524762Y50915705D02*
X7524762Y51715705D01*
X7905714Y50915705D02*
X7905714Y51715705D01*
X7905714Y51715705D02*
X8096190Y51715705D01*
X8096190Y51715705D02*
X8210476Y51677610D01*
X8210476Y51677610D02*
X8286666Y51601420D01*
X8286666Y51601420D02*
X8324761Y51525229D01*
X8324761Y51525229D02*
X8362857Y51372848D01*
X8362857Y51372848D02*
X8362857Y51258562D01*
X8362857Y51258562D02*
X8324761Y51106181D01*
X8324761Y51106181D02*
X8286666Y51029991D01*
X8286666Y51029991D02*
X8210476Y50953800D01*
X8210476Y50953800D02*
X8096190Y50915705D01*
X8096190Y50915705D02*
X7905714Y50915705D01*
X55157142Y3145181D02*
X54680952Y3145181D01*
X54680952Y3145181D02*
X54680952Y4145181D01*
X55490476Y3668991D02*
X55823809Y3668991D01*
X55966666Y3145181D02*
X55490476Y3145181D01*
X55490476Y3145181D02*
X55490476Y4145181D01*
X55490476Y4145181D02*
X55966666Y4145181D01*
X56395238Y3145181D02*
X56395238Y4145181D01*
X56395238Y4145181D02*
X56633333Y4145181D01*
X56633333Y4145181D02*
X56776190Y4097562D01*
X56776190Y4097562D02*
X56871428Y4002324D01*
X56871428Y4002324D02*
X56919047Y3907086D01*
X56919047Y3907086D02*
X56966666Y3716610D01*
X56966666Y3716610D02*
X56966666Y3573753D01*
X56966666Y3573753D02*
X56919047Y3383277D01*
X56919047Y3383277D02*
X56871428Y3288039D01*
X56871428Y3288039D02*
X56776190Y3192800D01*
X56776190Y3192800D02*
X56633333Y3145181D01*
X56633333Y3145181D02*
X56395238Y3145181D01*
X6686666Y40765705D02*
X6229523Y40765705D01*
X6458095Y40765705D02*
X6458095Y41565705D01*
X6458095Y41565705D02*
X6381904Y41451420D01*
X6381904Y41451420D02*
X6305714Y41375229D01*
X6305714Y41375229D02*
X6229523Y41337134D01*
X6991428Y41489515D02*
X7029524Y41527610D01*
X7029524Y41527610D02*
X7105714Y41565705D01*
X7105714Y41565705D02*
X7296190Y41565705D01*
X7296190Y41565705D02*
X7372381Y41527610D01*
X7372381Y41527610D02*
X7410476Y41489515D01*
X7410476Y41489515D02*
X7448571Y41413324D01*
X7448571Y41413324D02*
X7448571Y41337134D01*
X7448571Y41337134D02*
X7410476Y41222848D01*
X7410476Y41222848D02*
X6953333Y40765705D01*
X6953333Y40765705D02*
X7448571Y40765705D01*
X7677143Y41565705D02*
X7943810Y40765705D01*
X7943810Y40765705D02*
X8210476Y41565705D01*
X6229523Y45903800D02*
X6343809Y45865705D01*
X6343809Y45865705D02*
X6534285Y45865705D01*
X6534285Y45865705D02*
X6610476Y45903800D01*
X6610476Y45903800D02*
X6648571Y45941896D01*
X6648571Y45941896D02*
X6686666Y46018086D01*
X6686666Y46018086D02*
X6686666Y46094277D01*
X6686666Y46094277D02*
X6648571Y46170467D01*
X6648571Y46170467D02*
X6610476Y46208562D01*
X6610476Y46208562D02*
X6534285Y46246658D01*
X6534285Y46246658D02*
X6381904Y46284753D01*
X6381904Y46284753D02*
X6305714Y46322848D01*
X6305714Y46322848D02*
X6267619Y46360943D01*
X6267619Y46360943D02*
X6229523Y46437134D01*
X6229523Y46437134D02*
X6229523Y46513324D01*
X6229523Y46513324D02*
X6267619Y46589515D01*
X6267619Y46589515D02*
X6305714Y46627610D01*
X6305714Y46627610D02*
X6381904Y46665705D01*
X6381904Y46665705D02*
X6572381Y46665705D01*
X6572381Y46665705D02*
X6686666Y46627610D01*
X7181905Y46246658D02*
X7181905Y45865705D01*
X6915238Y46665705D02*
X7181905Y46246658D01*
X7181905Y46246658D02*
X7448571Y46665705D01*
X7715238Y45865705D02*
X7715238Y46665705D01*
X7715238Y46665705D02*
X8172381Y45865705D01*
X8172381Y45865705D02*
X8172381Y46665705D01*
X9010476Y45941896D02*
X8972380Y45903800D01*
X8972380Y45903800D02*
X8858095Y45865705D01*
X8858095Y45865705D02*
X8781904Y45865705D01*
X8781904Y45865705D02*
X8667618Y45903800D01*
X8667618Y45903800D02*
X8591428Y45979991D01*
X8591428Y45979991D02*
X8553333Y46056181D01*
X8553333Y46056181D02*
X8515237Y46208562D01*
X8515237Y46208562D02*
X8515237Y46322848D01*
X8515237Y46322848D02*
X8553333Y46475229D01*
X8553333Y46475229D02*
X8591428Y46551420D01*
X8591428Y46551420D02*
X8667618Y46627610D01*
X8667618Y46627610D02*
X8781904Y46665705D01*
X8781904Y46665705D02*
X8858095Y46665705D01*
X8858095Y46665705D02*
X8972380Y46627610D01*
X8972380Y46627610D02*
X9010476Y46589515D01*
X6686666Y39027610D02*
X6610476Y39065705D01*
X6610476Y39065705D02*
X6496190Y39065705D01*
X6496190Y39065705D02*
X6381904Y39027610D01*
X6381904Y39027610D02*
X6305714Y38951420D01*
X6305714Y38951420D02*
X6267619Y38875229D01*
X6267619Y38875229D02*
X6229523Y38722848D01*
X6229523Y38722848D02*
X6229523Y38608562D01*
X6229523Y38608562D02*
X6267619Y38456181D01*
X6267619Y38456181D02*
X6305714Y38379991D01*
X6305714Y38379991D02*
X6381904Y38303800D01*
X6381904Y38303800D02*
X6496190Y38265705D01*
X6496190Y38265705D02*
X6572381Y38265705D01*
X6572381Y38265705D02*
X6686666Y38303800D01*
X6686666Y38303800D02*
X6724762Y38341896D01*
X6724762Y38341896D02*
X6724762Y38608562D01*
X6724762Y38608562D02*
X6572381Y38608562D01*
X7067619Y38265705D02*
X7067619Y39065705D01*
X7067619Y39065705D02*
X7524762Y38265705D01*
X7524762Y38265705D02*
X7524762Y39065705D01*
X7905714Y38265705D02*
X7905714Y39065705D01*
X7905714Y39065705D02*
X8096190Y39065705D01*
X8096190Y39065705D02*
X8210476Y39027610D01*
X8210476Y39027610D02*
X8286666Y38951420D01*
X8286666Y38951420D02*
X8324761Y38875229D01*
X8324761Y38875229D02*
X8362857Y38722848D01*
X8362857Y38722848D02*
X8362857Y38608562D01*
X8362857Y38608562D02*
X8324761Y38456181D01*
X8324761Y38456181D02*
X8286666Y38379991D01*
X8286666Y38379991D02*
X8210476Y38303800D01*
X8210476Y38303800D02*
X8096190Y38265705D01*
X8096190Y38265705D02*
X7905714Y38265705D01*
X5949906Y35094888D02*
X5902287Y34952031D01*
X5902287Y34952031D02*
X5854668Y34904412D01*
X5854668Y34904412D02*
X5759430Y34856793D01*
X5759430Y34856793D02*
X5616573Y34856793D01*
X5616573Y34856793D02*
X5521335Y34904412D01*
X5521335Y34904412D02*
X5473716Y34952031D01*
X5473716Y34952031D02*
X5426096Y35047269D01*
X5426096Y35047269D02*
X5426096Y35428221D01*
X5426096Y35428221D02*
X6426096Y35428221D01*
X6426096Y35428221D02*
X6426096Y35094888D01*
X6426096Y35094888D02*
X6378477Y34999650D01*
X6378477Y34999650D02*
X6330858Y34952031D01*
X6330858Y34952031D02*
X6235620Y34904412D01*
X6235620Y34904412D02*
X6140382Y34904412D01*
X6140382Y34904412D02*
X6045144Y34952031D01*
X6045144Y34952031D02*
X5997525Y34999650D01*
X5997525Y34999650D02*
X5949906Y35094888D01*
X5949906Y35094888D02*
X5949906Y35428221D01*
X5426096Y33856793D02*
X5902287Y34190126D01*
X5426096Y34428221D02*
X6426096Y34428221D01*
X6426096Y34428221D02*
X6426096Y34047269D01*
X6426096Y34047269D02*
X6378477Y33952031D01*
X6378477Y33952031D02*
X6330858Y33904412D01*
X6330858Y33904412D02*
X6235620Y33856793D01*
X6235620Y33856793D02*
X6092763Y33856793D01*
X6092763Y33856793D02*
X5997525Y33904412D01*
X5997525Y33904412D02*
X5949906Y33952031D01*
X5949906Y33952031D02*
X5902287Y34047269D01*
X5902287Y34047269D02*
X5902287Y34428221D01*
X5949906Y33428221D02*
X5949906Y33094888D01*
X5426096Y32952031D02*
X5426096Y33428221D01*
X5426096Y33428221D02*
X6426096Y33428221D01*
X6426096Y33428221D02*
X6426096Y32952031D01*
X5711811Y32571078D02*
X5711811Y32094888D01*
X5426096Y32666316D02*
X6426096Y32332983D01*
X6426096Y32332983D02*
X5426096Y31999650D01*
X5426096Y31666316D02*
X6426096Y31666316D01*
X6426096Y31666316D02*
X6426096Y31428221D01*
X6426096Y31428221D02*
X6378477Y31285364D01*
X6378477Y31285364D02*
X6283239Y31190126D01*
X6283239Y31190126D02*
X6188001Y31142507D01*
X6188001Y31142507D02*
X5997525Y31094888D01*
X5997525Y31094888D02*
X5854668Y31094888D01*
X5854668Y31094888D02*
X5664192Y31142507D01*
X5664192Y31142507D02*
X5568954Y31190126D01*
X5568954Y31190126D02*
X5473716Y31285364D01*
X5473716Y31285364D02*
X5426096Y31428221D01*
X5426096Y31428221D02*
X5426096Y31666316D01*
X5473716Y29952030D02*
X5426096Y29809173D01*
X5426096Y29809173D02*
X5426096Y29571078D01*
X5426096Y29571078D02*
X5473716Y29475840D01*
X5473716Y29475840D02*
X5521335Y29428221D01*
X5521335Y29428221D02*
X5616573Y29380602D01*
X5616573Y29380602D02*
X5711811Y29380602D01*
X5711811Y29380602D02*
X5807049Y29428221D01*
X5807049Y29428221D02*
X5854668Y29475840D01*
X5854668Y29475840D02*
X5902287Y29571078D01*
X5902287Y29571078D02*
X5949906Y29761554D01*
X5949906Y29761554D02*
X5997525Y29856792D01*
X5997525Y29856792D02*
X6045144Y29904411D01*
X6045144Y29904411D02*
X6140382Y29952030D01*
X6140382Y29952030D02*
X6235620Y29952030D01*
X6235620Y29952030D02*
X6330858Y29904411D01*
X6330858Y29904411D02*
X6378477Y29856792D01*
X6378477Y29856792D02*
X6426096Y29761554D01*
X6426096Y29761554D02*
X6426096Y29523459D01*
X6426096Y29523459D02*
X6378477Y29380602D01*
X5426096Y28809173D02*
X5473716Y28904411D01*
X5473716Y28904411D02*
X5568954Y28952030D01*
X5568954Y28952030D02*
X6426096Y28952030D01*
X5426096Y28428220D02*
X6092763Y28428220D01*
X6426096Y28428220D02*
X6378477Y28475839D01*
X6378477Y28475839D02*
X6330858Y28428220D01*
X6330858Y28428220D02*
X6378477Y28380601D01*
X6378477Y28380601D02*
X6426096Y28428220D01*
X6426096Y28428220D02*
X6330858Y28428220D01*
X5473716Y27523459D02*
X5426096Y27618697D01*
X5426096Y27618697D02*
X5426096Y27809173D01*
X5426096Y27809173D02*
X5473716Y27904411D01*
X5473716Y27904411D02*
X5521335Y27952030D01*
X5521335Y27952030D02*
X5616573Y27999649D01*
X5616573Y27999649D02*
X5902287Y27999649D01*
X5902287Y27999649D02*
X5997525Y27952030D01*
X5997525Y27952030D02*
X6045144Y27904411D01*
X6045144Y27904411D02*
X6092763Y27809173D01*
X6092763Y27809173D02*
X6092763Y27618697D01*
X6092763Y27618697D02*
X6045144Y27523459D01*
X5473716Y26713935D02*
X5426096Y26809173D01*
X5426096Y26809173D02*
X5426096Y26999649D01*
X5426096Y26999649D02*
X5473716Y27094887D01*
X5473716Y27094887D02*
X5568954Y27142506D01*
X5568954Y27142506D02*
X5949906Y27142506D01*
X5949906Y27142506D02*
X6045144Y27094887D01*
X6045144Y27094887D02*
X6092763Y26999649D01*
X6092763Y26999649D02*
X6092763Y26809173D01*
X6092763Y26809173D02*
X6045144Y26713935D01*
X6045144Y26713935D02*
X5949906Y26666316D01*
X5949906Y26666316D02*
X5854668Y26666316D01*
X5854668Y26666316D02*
X5759430Y27142506D01*
X4816152Y35571078D02*
X4816152Y34999650D01*
X3816152Y35285364D02*
X4816152Y35285364D01*
X3863772Y34285364D02*
X3816152Y34380602D01*
X3816152Y34380602D02*
X3816152Y34571078D01*
X3816152Y34571078D02*
X3863772Y34666316D01*
X3863772Y34666316D02*
X3959010Y34713935D01*
X3959010Y34713935D02*
X4339962Y34713935D01*
X4339962Y34713935D02*
X4435200Y34666316D01*
X4435200Y34666316D02*
X4482819Y34571078D01*
X4482819Y34571078D02*
X4482819Y34380602D01*
X4482819Y34380602D02*
X4435200Y34285364D01*
X4435200Y34285364D02*
X4339962Y34237745D01*
X4339962Y34237745D02*
X4244724Y34237745D01*
X4244724Y34237745D02*
X4149486Y34713935D01*
X3816152Y33809173D02*
X4482819Y33809173D01*
X4387581Y33809173D02*
X4435200Y33761554D01*
X4435200Y33761554D02*
X4482819Y33666316D01*
X4482819Y33666316D02*
X4482819Y33523459D01*
X4482819Y33523459D02*
X4435200Y33428221D01*
X4435200Y33428221D02*
X4339962Y33380602D01*
X4339962Y33380602D02*
X3816152Y33380602D01*
X4339962Y33380602D02*
X4435200Y33332983D01*
X4435200Y33332983D02*
X4482819Y33237745D01*
X4482819Y33237745D02*
X4482819Y33094888D01*
X4482819Y33094888D02*
X4435200Y32999649D01*
X4435200Y32999649D02*
X4339962Y32952030D01*
X4339962Y32952030D02*
X3816152Y32952030D01*
X4482819Y32475840D02*
X3482819Y32475840D01*
X4435200Y32475840D02*
X4482819Y32380602D01*
X4482819Y32380602D02*
X4482819Y32190126D01*
X4482819Y32190126D02*
X4435200Y32094888D01*
X4435200Y32094888D02*
X4387581Y32047269D01*
X4387581Y32047269D02*
X4292343Y31999650D01*
X4292343Y31999650D02*
X4006629Y31999650D01*
X4006629Y31999650D02*
X3911391Y32047269D01*
X3911391Y32047269D02*
X3863772Y32094888D01*
X3863772Y32094888D02*
X3816152Y32190126D01*
X3816152Y32190126D02*
X3816152Y32380602D01*
X3816152Y32380602D02*
X3863772Y32475840D01*
X3816152Y31428221D02*
X3863772Y31523459D01*
X3863772Y31523459D02*
X3959010Y31571078D01*
X3959010Y31571078D02*
X4816152Y31571078D01*
X3816152Y30618697D02*
X4339962Y30618697D01*
X4339962Y30618697D02*
X4435200Y30666316D01*
X4435200Y30666316D02*
X4482819Y30761554D01*
X4482819Y30761554D02*
X4482819Y30952030D01*
X4482819Y30952030D02*
X4435200Y31047268D01*
X3863772Y30618697D02*
X3816152Y30713935D01*
X3816152Y30713935D02*
X3816152Y30952030D01*
X3816152Y30952030D02*
X3863772Y31047268D01*
X3863772Y31047268D02*
X3959010Y31094887D01*
X3959010Y31094887D02*
X4054248Y31094887D01*
X4054248Y31094887D02*
X4149486Y31047268D01*
X4149486Y31047268D02*
X4197105Y30952030D01*
X4197105Y30952030D02*
X4197105Y30713935D01*
X4197105Y30713935D02*
X4244724Y30618697D01*
X4482819Y30285363D02*
X4482819Y29904411D01*
X4816152Y30142506D02*
X3959010Y30142506D01*
X3959010Y30142506D02*
X3863772Y30094887D01*
X3863772Y30094887D02*
X3816152Y29999649D01*
X3816152Y29999649D02*
X3816152Y29904411D01*
X3863772Y29190125D02*
X3816152Y29285363D01*
X3816152Y29285363D02*
X3816152Y29475839D01*
X3816152Y29475839D02*
X3863772Y29571077D01*
X3863772Y29571077D02*
X3959010Y29618696D01*
X3959010Y29618696D02*
X4339962Y29618696D01*
X4339962Y29618696D02*
X4435200Y29571077D01*
X4435200Y29571077D02*
X4482819Y29475839D01*
X4482819Y29475839D02*
X4482819Y29285363D01*
X4482819Y29285363D02*
X4435200Y29190125D01*
X4435200Y29190125D02*
X4339962Y29142506D01*
X4339962Y29142506D02*
X4244724Y29142506D01*
X4244724Y29142506D02*
X4149486Y29618696D01*
X2253828Y35475840D02*
X2206208Y35332983D01*
X2206208Y35332983D02*
X2206208Y35094888D01*
X2206208Y35094888D02*
X2253828Y34999650D01*
X2253828Y34999650D02*
X2301447Y34952031D01*
X2301447Y34952031D02*
X2396685Y34904412D01*
X2396685Y34904412D02*
X2491923Y34904412D01*
X2491923Y34904412D02*
X2587161Y34952031D01*
X2587161Y34952031D02*
X2634780Y34999650D01*
X2634780Y34999650D02*
X2682399Y35094888D01*
X2682399Y35094888D02*
X2730018Y35285364D01*
X2730018Y35285364D02*
X2777637Y35380602D01*
X2777637Y35380602D02*
X2825256Y35428221D01*
X2825256Y35428221D02*
X2920494Y35475840D01*
X2920494Y35475840D02*
X3015732Y35475840D01*
X3015732Y35475840D02*
X3110970Y35428221D01*
X3110970Y35428221D02*
X3158589Y35380602D01*
X3158589Y35380602D02*
X3206208Y35285364D01*
X3206208Y35285364D02*
X3206208Y35047269D01*
X3206208Y35047269D02*
X3158589Y34904412D01*
X2206208Y33999650D02*
X2206208Y34475840D01*
X2206208Y34475840D02*
X3206208Y34475840D01*
X2301447Y33094888D02*
X2253828Y33142507D01*
X2253828Y33142507D02*
X2206208Y33285364D01*
X2206208Y33285364D02*
X2206208Y33380602D01*
X2206208Y33380602D02*
X2253828Y33523459D01*
X2253828Y33523459D02*
X2349066Y33618697D01*
X2349066Y33618697D02*
X2444304Y33666316D01*
X2444304Y33666316D02*
X2634780Y33713935D01*
X2634780Y33713935D02*
X2777637Y33713935D01*
X2777637Y33713935D02*
X2968113Y33666316D01*
X2968113Y33666316D02*
X3063351Y33618697D01*
X3063351Y33618697D02*
X3158589Y33523459D01*
X3158589Y33523459D02*
X3206208Y33380602D01*
X3206208Y33380602D02*
X3206208Y33285364D01*
X3206208Y33285364D02*
X3158589Y33142507D01*
X3158589Y33142507D02*
X3110970Y33094888D01*
X2110970Y32904411D02*
X2110970Y32142507D01*
X3206208Y32047268D02*
X3206208Y31475840D01*
X2206208Y31761554D02*
X3206208Y31761554D01*
X2730018Y31142506D02*
X2730018Y30809173D01*
X2206208Y30666316D02*
X2206208Y31142506D01*
X2206208Y31142506D02*
X3206208Y31142506D01*
X3206208Y31142506D02*
X3206208Y30666316D01*
X2206208Y30237744D02*
X3206208Y30237744D01*
X3206208Y30237744D02*
X2491923Y29904411D01*
X2491923Y29904411D02*
X3206208Y29571078D01*
X3206208Y29571078D02*
X2206208Y29571078D01*
X2206208Y29094887D02*
X3206208Y29094887D01*
X3206208Y29094887D02*
X3206208Y28713935D01*
X3206208Y28713935D02*
X3158589Y28618697D01*
X3158589Y28618697D02*
X3110970Y28571078D01*
X3110970Y28571078D02*
X3015732Y28523459D01*
X3015732Y28523459D02*
X2872875Y28523459D01*
X2872875Y28523459D02*
X2777637Y28571078D01*
X2777637Y28571078D02*
X2730018Y28618697D01*
X2730018Y28618697D02*
X2682399Y28713935D01*
X2682399Y28713935D02*
X2682399Y29094887D01*
X1262931Y34666316D02*
X977217Y35428221D01*
X977217Y35428221D02*
X691503Y34666316D01*
X1262931Y34285364D02*
X596264Y34047269D01*
X596264Y34047269D02*
X1262931Y33809174D01*
X643884Y33047269D02*
X596264Y33142507D01*
X596264Y33142507D02*
X596264Y33332983D01*
X596264Y33332983D02*
X643884Y33428221D01*
X643884Y33428221D02*
X739122Y33475840D01*
X739122Y33475840D02*
X1120074Y33475840D01*
X1120074Y33475840D02*
X1215312Y33428221D01*
X1215312Y33428221D02*
X1262931Y33332983D01*
X1262931Y33332983D02*
X1262931Y33142507D01*
X1262931Y33142507D02*
X1215312Y33047269D01*
X1215312Y33047269D02*
X1120074Y32999650D01*
X1120074Y32999650D02*
X1024836Y32999650D01*
X1024836Y32999650D02*
X929598Y33475840D01*
X596264Y32571078D02*
X1262931Y32571078D01*
X1072455Y32571078D02*
X1167693Y32523459D01*
X1167693Y32523459D02*
X1215312Y32475840D01*
X1215312Y32475840D02*
X1262931Y32380602D01*
X1262931Y32380602D02*
X1262931Y32285364D01*
X643884Y31999649D02*
X596264Y31904411D01*
X596264Y31904411D02*
X596264Y31713935D01*
X596264Y31713935D02*
X643884Y31618697D01*
X643884Y31618697D02*
X739122Y31571078D01*
X739122Y31571078D02*
X786741Y31571078D01*
X786741Y31571078D02*
X881979Y31618697D01*
X881979Y31618697D02*
X929598Y31713935D01*
X929598Y31713935D02*
X929598Y31856792D01*
X929598Y31856792D02*
X977217Y31952030D01*
X977217Y31952030D02*
X1072455Y31999649D01*
X1072455Y31999649D02*
X1120074Y31999649D01*
X1120074Y31999649D02*
X1215312Y31952030D01*
X1215312Y31952030D02*
X1262931Y31856792D01*
X1262931Y31856792D02*
X1262931Y31713935D01*
X1262931Y31713935D02*
X1215312Y31618697D01*
X596264Y31142506D02*
X1262931Y31142506D01*
X1596264Y31142506D02*
X1548645Y31190125D01*
X1548645Y31190125D02*
X1501026Y31142506D01*
X1501026Y31142506D02*
X1548645Y31094887D01*
X1548645Y31094887D02*
X1596264Y31142506D01*
X1596264Y31142506D02*
X1501026Y31142506D01*
X596264Y30523459D02*
X643884Y30618697D01*
X643884Y30618697D02*
X691503Y30666316D01*
X691503Y30666316D02*
X786741Y30713935D01*
X786741Y30713935D02*
X1072455Y30713935D01*
X1072455Y30713935D02*
X1167693Y30666316D01*
X1167693Y30666316D02*
X1215312Y30618697D01*
X1215312Y30618697D02*
X1262931Y30523459D01*
X1262931Y30523459D02*
X1262931Y30380602D01*
X1262931Y30380602D02*
X1215312Y30285364D01*
X1215312Y30285364D02*
X1167693Y30237745D01*
X1167693Y30237745D02*
X1072455Y30190126D01*
X1072455Y30190126D02*
X786741Y30190126D01*
X786741Y30190126D02*
X691503Y30237745D01*
X691503Y30237745D02*
X643884Y30285364D01*
X643884Y30285364D02*
X596264Y30380602D01*
X596264Y30380602D02*
X596264Y30523459D01*
X1262931Y29761554D02*
X596264Y29761554D01*
X1167693Y29761554D02*
X1215312Y29713935D01*
X1215312Y29713935D02*
X1262931Y29618697D01*
X1262931Y29618697D02*
X1262931Y29475840D01*
X1262931Y29475840D02*
X1215312Y29380602D01*
X1215312Y29380602D02*
X1120074Y29332983D01*
X1120074Y29332983D02*
X596264Y29332983D01*
X1262931Y28856792D02*
X977217Y28094887D01*
X977217Y28094887D02*
X691503Y28856792D01*
X1262931Y26094887D02*
X977217Y26856792D01*
X977217Y26856792D02*
X691503Y26094887D01*
X1262931Y25713935D02*
X596264Y25475840D01*
X1262931Y25237745D02*
X596264Y25475840D01*
X596264Y25475840D02*
X358169Y25571078D01*
X358169Y25571078D02*
X310550Y25618697D01*
X310550Y25618697D02*
X262931Y25713935D01*
X643884Y24475840D02*
X596264Y24571078D01*
X596264Y24571078D02*
X596264Y24761554D01*
X596264Y24761554D02*
X643884Y24856792D01*
X643884Y24856792D02*
X739122Y24904411D01*
X739122Y24904411D02*
X1120074Y24904411D01*
X1120074Y24904411D02*
X1215312Y24856792D01*
X1215312Y24856792D02*
X1262931Y24761554D01*
X1262931Y24761554D02*
X1262931Y24571078D01*
X1262931Y24571078D02*
X1215312Y24475840D01*
X1215312Y24475840D02*
X1120074Y24428221D01*
X1120074Y24428221D02*
X1024836Y24428221D01*
X1024836Y24428221D02*
X929598Y24904411D01*
X596264Y23571078D02*
X1120074Y23571078D01*
X1120074Y23571078D02*
X1215312Y23618697D01*
X1215312Y23618697D02*
X1262931Y23713935D01*
X1262931Y23713935D02*
X1262931Y23904411D01*
X1262931Y23904411D02*
X1215312Y23999649D01*
X643884Y23571078D02*
X596264Y23666316D01*
X596264Y23666316D02*
X596264Y23904411D01*
X596264Y23904411D02*
X643884Y23999649D01*
X643884Y23999649D02*
X739122Y24047268D01*
X739122Y24047268D02*
X834360Y24047268D01*
X834360Y24047268D02*
X929598Y23999649D01*
X929598Y23999649D02*
X977217Y23904411D01*
X977217Y23904411D02*
X977217Y23666316D01*
X977217Y23666316D02*
X1024836Y23571078D01*
X596264Y23094887D02*
X1262931Y23094887D01*
X1072455Y23094887D02*
X1167693Y23047268D01*
X1167693Y23047268D02*
X1215312Y22999649D01*
X1215312Y22999649D02*
X1262931Y22904411D01*
X1262931Y22904411D02*
X1262931Y22809173D01*
X1262931Y22475839D02*
X977217Y21713934D01*
X977217Y21713934D02*
X691503Y22475839D01*
X6686666Y61877610D02*
X6610476Y61915705D01*
X6610476Y61915705D02*
X6496190Y61915705D01*
X6496190Y61915705D02*
X6381904Y61877610D01*
X6381904Y61877610D02*
X6305714Y61801420D01*
X6305714Y61801420D02*
X6267619Y61725229D01*
X6267619Y61725229D02*
X6229523Y61572848D01*
X6229523Y61572848D02*
X6229523Y61458562D01*
X6229523Y61458562D02*
X6267619Y61306181D01*
X6267619Y61306181D02*
X6305714Y61229991D01*
X6305714Y61229991D02*
X6381904Y61153800D01*
X6381904Y61153800D02*
X6496190Y61115705D01*
X6496190Y61115705D02*
X6572381Y61115705D01*
X6572381Y61115705D02*
X6686666Y61153800D01*
X6686666Y61153800D02*
X6724762Y61191896D01*
X6724762Y61191896D02*
X6724762Y61458562D01*
X6724762Y61458562D02*
X6572381Y61458562D01*
X7067619Y61115705D02*
X7067619Y61915705D01*
X7067619Y61915705D02*
X7524762Y61115705D01*
X7524762Y61115705D02*
X7524762Y61915705D01*
X7905714Y61115705D02*
X7905714Y61915705D01*
X7905714Y61915705D02*
X8096190Y61915705D01*
X8096190Y61915705D02*
X8210476Y61877610D01*
X8210476Y61877610D02*
X8286666Y61801420D01*
X8286666Y61801420D02*
X8324761Y61725229D01*
X8324761Y61725229D02*
X8362857Y61572848D01*
X8362857Y61572848D02*
X8362857Y61458562D01*
X8362857Y61458562D02*
X8324761Y61306181D01*
X8324761Y61306181D02*
X8286666Y61229991D01*
X8286666Y61229991D02*
X8210476Y61153800D01*
X8210476Y61153800D02*
X8096190Y61115705D01*
X8096190Y61115705D02*
X7905714Y61115705D01*
X6267618Y48834753D02*
X6534284Y48834753D01*
X6648570Y48415705D02*
X6267618Y48415705D01*
X6267618Y48415705D02*
X6267618Y49215705D01*
X6267618Y49215705D02*
X6648570Y49215705D01*
X6953332Y48453800D02*
X7067618Y48415705D01*
X7067618Y48415705D02*
X7258094Y48415705D01*
X7258094Y48415705D02*
X7334285Y48453800D01*
X7334285Y48453800D02*
X7372380Y48491896D01*
X7372380Y48491896D02*
X7410475Y48568086D01*
X7410475Y48568086D02*
X7410475Y48644277D01*
X7410475Y48644277D02*
X7372380Y48720467D01*
X7372380Y48720467D02*
X7334285Y48758562D01*
X7334285Y48758562D02*
X7258094Y48796658D01*
X7258094Y48796658D02*
X7105713Y48834753D01*
X7105713Y48834753D02*
X7029523Y48872848D01*
X7029523Y48872848D02*
X6991428Y48910943D01*
X6991428Y48910943D02*
X6953332Y48987134D01*
X6953332Y48987134D02*
X6953332Y49063324D01*
X6953332Y49063324D02*
X6991428Y49139515D01*
X6991428Y49139515D02*
X7029523Y49177610D01*
X7029523Y49177610D02*
X7105713Y49215705D01*
X7105713Y49215705D02*
X7296190Y49215705D01*
X7296190Y49215705D02*
X7410475Y49177610D01*
X7639047Y49215705D02*
X8096190Y49215705D01*
X7867618Y48415705D02*
X7867618Y49215705D01*
X8515238Y49215705D02*
X8667619Y49215705D01*
X8667619Y49215705D02*
X8743809Y49177610D01*
X8743809Y49177610D02*
X8820000Y49101420D01*
X8820000Y49101420D02*
X8858095Y48949039D01*
X8858095Y48949039D02*
X8858095Y48682372D01*
X8858095Y48682372D02*
X8820000Y48529991D01*
X8820000Y48529991D02*
X8743809Y48453800D01*
X8743809Y48453800D02*
X8667619Y48415705D01*
X8667619Y48415705D02*
X8515238Y48415705D01*
X8515238Y48415705D02*
X8439047Y48453800D01*
X8439047Y48453800D02*
X8362857Y48529991D01*
X8362857Y48529991D02*
X8324761Y48682372D01*
X8324761Y48682372D02*
X8324761Y48949039D01*
X8324761Y48949039D02*
X8362857Y49101420D01*
X8362857Y49101420D02*
X8439047Y49177610D01*
X8439047Y49177610D02*
X8515238Y49215705D01*
X9200952Y48415705D02*
X9200952Y49215705D01*
X9200952Y49215705D02*
X9505714Y49215705D01*
X9505714Y49215705D02*
X9581904Y49177610D01*
X9581904Y49177610D02*
X9619999Y49139515D01*
X9619999Y49139515D02*
X9658095Y49063324D01*
X9658095Y49063324D02*
X9658095Y48949039D01*
X9658095Y48949039D02*
X9619999Y48872848D01*
X9619999Y48872848D02*
X9581904Y48834753D01*
X9581904Y48834753D02*
X9505714Y48796658D01*
X9505714Y48796658D02*
X9200952Y48796658D01*
X6267619Y43315705D02*
X6267619Y44115705D01*
X6648571Y43315705D02*
X6648571Y44115705D01*
X6648571Y44115705D02*
X7105714Y43315705D01*
X7105714Y43315705D02*
X7105714Y44115705D01*
X7372380Y44115705D02*
X7829523Y44115705D01*
X7600951Y43315705D02*
X7600951Y44115705D01*
X6229523Y53503800D02*
X6343809Y53465705D01*
X6343809Y53465705D02*
X6534285Y53465705D01*
X6534285Y53465705D02*
X6610476Y53503800D01*
X6610476Y53503800D02*
X6648571Y53541896D01*
X6648571Y53541896D02*
X6686666Y53618086D01*
X6686666Y53618086D02*
X6686666Y53694277D01*
X6686666Y53694277D02*
X6648571Y53770467D01*
X6648571Y53770467D02*
X6610476Y53808562D01*
X6610476Y53808562D02*
X6534285Y53846658D01*
X6534285Y53846658D02*
X6381904Y53884753D01*
X6381904Y53884753D02*
X6305714Y53922848D01*
X6305714Y53922848D02*
X6267619Y53960943D01*
X6267619Y53960943D02*
X6229523Y54037134D01*
X6229523Y54037134D02*
X6229523Y54113324D01*
X6229523Y54113324D02*
X6267619Y54189515D01*
X6267619Y54189515D02*
X6305714Y54227610D01*
X6305714Y54227610D02*
X6381904Y54265705D01*
X6381904Y54265705D02*
X6572381Y54265705D01*
X6572381Y54265705D02*
X6686666Y54227610D01*
X7029524Y53465705D02*
X7029524Y54265705D01*
X7029524Y54265705D02*
X7220000Y54265705D01*
X7220000Y54265705D02*
X7334286Y54227610D01*
X7334286Y54227610D02*
X7410476Y54151420D01*
X7410476Y54151420D02*
X7448571Y54075229D01*
X7448571Y54075229D02*
X7486667Y53922848D01*
X7486667Y53922848D02*
X7486667Y53808562D01*
X7486667Y53808562D02*
X7448571Y53656181D01*
X7448571Y53656181D02*
X7410476Y53579991D01*
X7410476Y53579991D02*
X7334286Y53503800D01*
X7334286Y53503800D02*
X7220000Y53465705D01*
X7220000Y53465705D02*
X7029524Y53465705D01*
X7791428Y53694277D02*
X8172381Y53694277D01*
X7715238Y53465705D02*
X7981905Y54265705D01*
X7981905Y54265705D02*
X8248571Y53465705D01*
X6229523Y56053800D02*
X6343809Y56015705D01*
X6343809Y56015705D02*
X6534285Y56015705D01*
X6534285Y56015705D02*
X6610476Y56053800D01*
X6610476Y56053800D02*
X6648571Y56091896D01*
X6648571Y56091896D02*
X6686666Y56168086D01*
X6686666Y56168086D02*
X6686666Y56244277D01*
X6686666Y56244277D02*
X6648571Y56320467D01*
X6648571Y56320467D02*
X6610476Y56358562D01*
X6610476Y56358562D02*
X6534285Y56396658D01*
X6534285Y56396658D02*
X6381904Y56434753D01*
X6381904Y56434753D02*
X6305714Y56472848D01*
X6305714Y56472848D02*
X6267619Y56510943D01*
X6267619Y56510943D02*
X6229523Y56587134D01*
X6229523Y56587134D02*
X6229523Y56663324D01*
X6229523Y56663324D02*
X6267619Y56739515D01*
X6267619Y56739515D02*
X6305714Y56777610D01*
X6305714Y56777610D02*
X6381904Y56815705D01*
X6381904Y56815705D02*
X6572381Y56815705D01*
X6572381Y56815705D02*
X6686666Y56777610D01*
X7486667Y56091896D02*
X7448571Y56053800D01*
X7448571Y56053800D02*
X7334286Y56015705D01*
X7334286Y56015705D02*
X7258095Y56015705D01*
X7258095Y56015705D02*
X7143809Y56053800D01*
X7143809Y56053800D02*
X7067619Y56129991D01*
X7067619Y56129991D02*
X7029524Y56206181D01*
X7029524Y56206181D02*
X6991428Y56358562D01*
X6991428Y56358562D02*
X6991428Y56472848D01*
X6991428Y56472848D02*
X7029524Y56625229D01*
X7029524Y56625229D02*
X7067619Y56701420D01*
X7067619Y56701420D02*
X7143809Y56777610D01*
X7143809Y56777610D02*
X7258095Y56815705D01*
X7258095Y56815705D02*
X7334286Y56815705D01*
X7334286Y56815705D02*
X7448571Y56777610D01*
X7448571Y56777610D02*
X7486667Y56739515D01*
X8210476Y56015705D02*
X7829524Y56015705D01*
X7829524Y56015705D02*
X7829524Y56815705D01*
X27944009Y9892858D02*
X27944009Y10845239D01*
X28515438Y9702382D02*
X26515438Y10369048D01*
X26515438Y10369048D02*
X28515438Y11035715D01*
X28515438Y12845239D02*
X27563057Y12178572D01*
X28515438Y11702382D02*
X26515438Y11702382D01*
X26515438Y11702382D02*
X26515438Y12464287D01*
X26515438Y12464287D02*
X26610676Y12654763D01*
X26610676Y12654763D02*
X26705914Y12750001D01*
X26705914Y12750001D02*
X26896390Y12845239D01*
X26896390Y12845239D02*
X27182104Y12845239D01*
X27182104Y12845239D02*
X27372580Y12750001D01*
X27372580Y12750001D02*
X27467819Y12654763D01*
X27467819Y12654763D02*
X27563057Y12464287D01*
X27563057Y12464287D02*
X27563057Y11702382D01*
X28515438Y13702382D02*
X26515438Y13702382D01*
X26515438Y13702382D02*
X26515438Y14178572D01*
X26515438Y14178572D02*
X26610676Y14464287D01*
X26610676Y14464287D02*
X26801152Y14654763D01*
X26801152Y14654763D02*
X26991628Y14750001D01*
X26991628Y14750001D02*
X27372580Y14845239D01*
X27372580Y14845239D02*
X27658295Y14845239D01*
X27658295Y14845239D02*
X28039247Y14750001D01*
X28039247Y14750001D02*
X28229723Y14654763D01*
X28229723Y14654763D02*
X28420200Y14464287D01*
X28420200Y14464287D02*
X28515438Y14178572D01*
X28515438Y14178572D02*
X28515438Y13702382D01*
X26515438Y15702382D02*
X28134485Y15702382D01*
X28134485Y15702382D02*
X28324961Y15797620D01*
X28324961Y15797620D02*
X28420200Y15892858D01*
X28420200Y15892858D02*
X28515438Y16083334D01*
X28515438Y16083334D02*
X28515438Y16464287D01*
X28515438Y16464287D02*
X28420200Y16654763D01*
X28420200Y16654763D02*
X28324961Y16750001D01*
X28324961Y16750001D02*
X28134485Y16845239D01*
X28134485Y16845239D02*
X26515438Y16845239D01*
X28515438Y17797620D02*
X26515438Y17797620D01*
X28515438Y18750001D02*
X26515438Y18750001D01*
X26515438Y18750001D02*
X28515438Y19892858D01*
X28515438Y19892858D02*
X26515438Y19892858D01*
X26515438Y21226191D02*
X26515438Y21607144D01*
X26515438Y21607144D02*
X26610676Y21797620D01*
X26610676Y21797620D02*
X26801152Y21988096D01*
X26801152Y21988096D02*
X27182104Y22083334D01*
X27182104Y22083334D02*
X27848771Y22083334D01*
X27848771Y22083334D02*
X28229723Y21988096D01*
X28229723Y21988096D02*
X28420200Y21797620D01*
X28420200Y21797620D02*
X28515438Y21607144D01*
X28515438Y21607144D02*
X28515438Y21226191D01*
X28515438Y21226191D02*
X28420200Y21035715D01*
X28420200Y21035715D02*
X28229723Y20845239D01*
X28229723Y20845239D02*
X27848771Y20750001D01*
X27848771Y20750001D02*
X27182104Y20750001D01*
X27182104Y20750001D02*
X26801152Y20845239D01*
X26801152Y20845239D02*
X26610676Y21035715D01*
X26610676Y21035715D02*
X26515438Y21226191D01*
X28515438Y24464287D02*
X26515438Y24464287D01*
X26515438Y24464287D02*
X28515438Y25607144D01*
X28515438Y25607144D02*
X26515438Y25607144D01*
X27944009Y26464287D02*
X27944009Y27416668D01*
X28515438Y26273811D02*
X26515438Y26940477D01*
X26515438Y26940477D02*
X28515438Y27607144D01*
X28515438Y28273811D02*
X26515438Y28273811D01*
X26515438Y28273811D02*
X28515438Y29416668D01*
X28515438Y29416668D02*
X26515438Y29416668D01*
X26515438Y30750001D02*
X26515438Y31130954D01*
X26515438Y31130954D02*
X26610676Y31321430D01*
X26610676Y31321430D02*
X26801152Y31511906D01*
X26801152Y31511906D02*
X27182104Y31607144D01*
X27182104Y31607144D02*
X27848771Y31607144D01*
X27848771Y31607144D02*
X28229723Y31511906D01*
X28229723Y31511906D02*
X28420200Y31321430D01*
X28420200Y31321430D02*
X28515438Y31130954D01*
X28515438Y31130954D02*
X28515438Y30750001D01*
X28515438Y30750001D02*
X28420200Y30559525D01*
X28420200Y30559525D02*
X28229723Y30369049D01*
X28229723Y30369049D02*
X27848771Y30273811D01*
X27848771Y30273811D02*
X27182104Y30273811D01*
X27182104Y30273811D02*
X26801152Y30369049D01*
X26801152Y30369049D02*
X26610676Y30559525D01*
X26610676Y30559525D02*
X26515438Y30750001D01*
X6686666Y58565705D02*
X6229523Y58565705D01*
X6458095Y58565705D02*
X6458095Y59365705D01*
X6458095Y59365705D02*
X6381904Y59251420D01*
X6381904Y59251420D02*
X6305714Y59175229D01*
X6305714Y59175229D02*
X6229523Y59137134D01*
X6991428Y59289515D02*
X7029524Y59327610D01*
X7029524Y59327610D02*
X7105714Y59365705D01*
X7105714Y59365705D02*
X7296190Y59365705D01*
X7296190Y59365705D02*
X7372381Y59327610D01*
X7372381Y59327610D02*
X7410476Y59289515D01*
X7410476Y59289515D02*
X7448571Y59213324D01*
X7448571Y59213324D02*
X7448571Y59137134D01*
X7448571Y59137134D02*
X7410476Y59022848D01*
X7410476Y59022848D02*
X6953333Y58565705D01*
X6953333Y58565705D02*
X7448571Y58565705D01*
X7677143Y59365705D02*
X7943810Y58565705D01*
X7943810Y58565705D02*
X8210476Y59365705D01*
X68677319Y84549167D02*
X69391604Y84549167D01*
X69391604Y84549167D02*
X69534461Y84501548D01*
X69534461Y84501548D02*
X69629700Y84406310D01*
X69629700Y84406310D02*
X69677319Y84263453D01*
X69677319Y84263453D02*
X69677319Y84168215D01*
X69010652Y85453929D02*
X69677319Y85453929D01*
X68629700Y85215834D02*
X69343985Y84977739D01*
X69343985Y84977739D02*
X69343985Y85596786D01*
X68677319Y60549167D02*
X69391604Y60549167D01*
X69391604Y60549167D02*
X69534461Y60501548D01*
X69534461Y60501548D02*
X69629700Y60406310D01*
X69629700Y60406310D02*
X69677319Y60263453D01*
X69677319Y60263453D02*
X69677319Y60168215D01*
X68677319Y60930120D02*
X68677319Y61549167D01*
X68677319Y61549167D02*
X69058271Y61215834D01*
X69058271Y61215834D02*
X69058271Y61358691D01*
X69058271Y61358691D02*
X69105890Y61453929D01*
X69105890Y61453929D02*
X69153509Y61501548D01*
X69153509Y61501548D02*
X69248747Y61549167D01*
X69248747Y61549167D02*
X69486842Y61549167D01*
X69486842Y61549167D02*
X69582080Y61501548D01*
X69582080Y61501548D02*
X69629700Y61453929D01*
X69629700Y61453929D02*
X69677319Y61358691D01*
X69677319Y61358691D02*
X69677319Y61072977D01*
X69677319Y61072977D02*
X69629700Y60977739D01*
X69629700Y60977739D02*
X69582080Y60930120D01*
X49664761Y49315181D02*
X49331428Y49791372D01*
X49093333Y49315181D02*
X49093333Y50315181D01*
X49093333Y50315181D02*
X49474285Y50315181D01*
X49474285Y50315181D02*
X49569523Y50267562D01*
X49569523Y50267562D02*
X49617142Y50219943D01*
X49617142Y50219943D02*
X49664761Y50124705D01*
X49664761Y50124705D02*
X49664761Y49981848D01*
X49664761Y49981848D02*
X49617142Y49886610D01*
X49617142Y49886610D02*
X49569523Y49838991D01*
X49569523Y49838991D02*
X49474285Y49791372D01*
X49474285Y49791372D02*
X49093333Y49791372D01*
X49950476Y50315181D02*
X50283809Y49315181D01*
X50283809Y49315181D02*
X50617142Y50315181D01*
X51474285Y49315181D02*
X50902857Y49315181D01*
X51188571Y49315181D02*
X51188571Y50315181D01*
X51188571Y50315181D02*
X51093333Y50172324D01*
X51093333Y50172324D02*
X50998095Y50077086D01*
X50998095Y50077086D02*
X50902857Y50029467D01*
X47174819Y73433334D02*
X46698628Y73100001D01*
X47174819Y72861906D02*
X46174819Y72861906D01*
X46174819Y72861906D02*
X46174819Y73242858D01*
X46174819Y73242858D02*
X46222438Y73338096D01*
X46222438Y73338096D02*
X46270057Y73385715D01*
X46270057Y73385715D02*
X46365295Y73433334D01*
X46365295Y73433334D02*
X46508152Y73433334D01*
X46508152Y73433334D02*
X46603390Y73385715D01*
X46603390Y73385715D02*
X46651009Y73338096D01*
X46651009Y73338096D02*
X46698628Y73242858D01*
X46698628Y73242858D02*
X46698628Y72861906D01*
X47174819Y74385715D02*
X47174819Y73814287D01*
X47174819Y74100001D02*
X46174819Y74100001D01*
X46174819Y74100001D02*
X46317676Y74004763D01*
X46317676Y74004763D02*
X46412914Y73909525D01*
X46412914Y73909525D02*
X46460533Y73814287D01*
X44470057Y51304762D02*
X44422438Y51209524D01*
X44422438Y51209524D02*
X44327200Y51114286D01*
X44327200Y51114286D02*
X44184342Y50971429D01*
X44184342Y50971429D02*
X44136723Y50876191D01*
X44136723Y50876191D02*
X44136723Y50780953D01*
X44374819Y50828572D02*
X44327200Y50733334D01*
X44327200Y50733334D02*
X44231961Y50638096D01*
X44231961Y50638096D02*
X44041485Y50590477D01*
X44041485Y50590477D02*
X43708152Y50590477D01*
X43708152Y50590477D02*
X43517676Y50638096D01*
X43517676Y50638096D02*
X43422438Y50733334D01*
X43422438Y50733334D02*
X43374819Y50828572D01*
X43374819Y50828572D02*
X43374819Y51019048D01*
X43374819Y51019048D02*
X43422438Y51114286D01*
X43422438Y51114286D02*
X43517676Y51209524D01*
X43517676Y51209524D02*
X43708152Y51257143D01*
X43708152Y51257143D02*
X44041485Y51257143D01*
X44041485Y51257143D02*
X44231961Y51209524D01*
X44231961Y51209524D02*
X44327200Y51114286D01*
X44327200Y51114286D02*
X44374819Y51019048D01*
X44374819Y51019048D02*
X44374819Y50828572D01*
X44374819Y52209524D02*
X44374819Y51638096D01*
X44374819Y51923810D02*
X43374819Y51923810D01*
X43374819Y51923810D02*
X43517676Y51828572D01*
X43517676Y51828572D02*
X43612914Y51733334D01*
X43612914Y51733334D02*
X43660533Y51638096D01*
X24933333Y96095181D02*
X24457143Y96095181D01*
X24457143Y96095181D02*
X24457143Y97095181D01*
X25219048Y96999943D02*
X25266667Y97047562D01*
X25266667Y97047562D02*
X25361905Y97095181D01*
X25361905Y97095181D02*
X25600000Y97095181D01*
X25600000Y97095181D02*
X25695238Y97047562D01*
X25695238Y97047562D02*
X25742857Y96999943D01*
X25742857Y96999943D02*
X25790476Y96904705D01*
X25790476Y96904705D02*
X25790476Y96809467D01*
X25790476Y96809467D02*
X25742857Y96666610D01*
X25742857Y96666610D02*
X25171429Y96095181D01*
X25171429Y96095181D02*
X25790476Y96095181D01*
X16574819Y54731906D02*
X15574819Y54731906D01*
X15574819Y54731906D02*
X15574819Y54970001D01*
X15574819Y54970001D02*
X15622438Y55112858D01*
X15622438Y55112858D02*
X15717676Y55208096D01*
X15717676Y55208096D02*
X15812914Y55255715D01*
X15812914Y55255715D02*
X16003390Y55303334D01*
X16003390Y55303334D02*
X16146247Y55303334D01*
X16146247Y55303334D02*
X16336723Y55255715D01*
X16336723Y55255715D02*
X16431961Y55208096D01*
X16431961Y55208096D02*
X16527200Y55112858D01*
X16527200Y55112858D02*
X16574819Y54970001D01*
X16574819Y54970001D02*
X16574819Y54731906D01*
X15670057Y55684287D02*
X15622438Y55731906D01*
X15622438Y55731906D02*
X15574819Y55827144D01*
X15574819Y55827144D02*
X15574819Y56065239D01*
X15574819Y56065239D02*
X15622438Y56160477D01*
X15622438Y56160477D02*
X15670057Y56208096D01*
X15670057Y56208096D02*
X15765295Y56255715D01*
X15765295Y56255715D02*
X15860533Y56255715D01*
X15860533Y56255715D02*
X16003390Y56208096D01*
X16003390Y56208096D02*
X16574819Y55636668D01*
X16574819Y55636668D02*
X16574819Y56255715D01*
X16204819Y60288096D02*
X15204819Y60288096D01*
X16204819Y60859524D02*
X15633390Y60430953D01*
X15204819Y60859524D02*
X15776247Y60288096D01*
X49523333Y92110420D02*
X49475714Y92062800D01*
X49475714Y92062800D02*
X49332857Y92015181D01*
X49332857Y92015181D02*
X49237619Y92015181D01*
X49237619Y92015181D02*
X49094762Y92062800D01*
X49094762Y92062800D02*
X48999524Y92158039D01*
X48999524Y92158039D02*
X48951905Y92253277D01*
X48951905Y92253277D02*
X48904286Y92443753D01*
X48904286Y92443753D02*
X48904286Y92586610D01*
X48904286Y92586610D02*
X48951905Y92777086D01*
X48951905Y92777086D02*
X48999524Y92872324D01*
X48999524Y92872324D02*
X49094762Y92967562D01*
X49094762Y92967562D02*
X49237619Y93015181D01*
X49237619Y93015181D02*
X49332857Y93015181D01*
X49332857Y93015181D02*
X49475714Y92967562D01*
X49475714Y92967562D02*
X49523333Y92919943D01*
X50428095Y93015181D02*
X49951905Y93015181D01*
X49951905Y93015181D02*
X49904286Y92538991D01*
X49904286Y92538991D02*
X49951905Y92586610D01*
X49951905Y92586610D02*
X50047143Y92634229D01*
X50047143Y92634229D02*
X50285238Y92634229D01*
X50285238Y92634229D02*
X50380476Y92586610D01*
X50380476Y92586610D02*
X50428095Y92538991D01*
X50428095Y92538991D02*
X50475714Y92443753D01*
X50475714Y92443753D02*
X50475714Y92205658D01*
X50475714Y92205658D02*
X50428095Y92110420D01*
X50428095Y92110420D02*
X50380476Y92062800D01*
X50380476Y92062800D02*
X50285238Y92015181D01*
X50285238Y92015181D02*
X50047143Y92015181D01*
X50047143Y92015181D02*
X49951905Y92062800D01*
X49951905Y92062800D02*
X49904286Y92110420D01*
X16049714Y41994896D02*
X16525904Y41994896D01*
X15954476Y41709181D02*
X16287809Y42709181D01*
X16287809Y42709181D02*
X16621142Y41709181D01*
X17478285Y41709181D02*
X16906857Y41709181D01*
X17192571Y41709181D02*
X17192571Y42709181D01*
X17192571Y42709181D02*
X17097333Y42566324D01*
X17097333Y42566324D02*
X17002095Y42471086D01*
X17002095Y42471086D02*
X16906857Y42423467D01*
X26346095Y4785181D02*
X26346095Y3975658D01*
X26346095Y3975658D02*
X26393714Y3880420D01*
X26393714Y3880420D02*
X26441333Y3832800D01*
X26441333Y3832800D02*
X26536571Y3785181D01*
X26536571Y3785181D02*
X26727047Y3785181D01*
X26727047Y3785181D02*
X26822285Y3832800D01*
X26822285Y3832800D02*
X26869904Y3880420D01*
X26869904Y3880420D02*
X26917523Y3975658D01*
X26917523Y3975658D02*
X26917523Y4785181D01*
X27346095Y3832800D02*
X27488952Y3785181D01*
X27488952Y3785181D02*
X27727047Y3785181D01*
X27727047Y3785181D02*
X27822285Y3832800D01*
X27822285Y3832800D02*
X27869904Y3880420D01*
X27869904Y3880420D02*
X27917523Y3975658D01*
X27917523Y3975658D02*
X27917523Y4070896D01*
X27917523Y4070896D02*
X27869904Y4166134D01*
X27869904Y4166134D02*
X27822285Y4213753D01*
X27822285Y4213753D02*
X27727047Y4261372D01*
X27727047Y4261372D02*
X27536571Y4308991D01*
X27536571Y4308991D02*
X27441333Y4356610D01*
X27441333Y4356610D02*
X27393714Y4404229D01*
X27393714Y4404229D02*
X27346095Y4499467D01*
X27346095Y4499467D02*
X27346095Y4594705D01*
X27346095Y4594705D02*
X27393714Y4689943D01*
X27393714Y4689943D02*
X27441333Y4737562D01*
X27441333Y4737562D02*
X27536571Y4785181D01*
X27536571Y4785181D02*
X27774666Y4785181D01*
X27774666Y4785181D02*
X27917523Y4737562D01*
X28679428Y4308991D02*
X28822285Y4261372D01*
X28822285Y4261372D02*
X28869904Y4213753D01*
X28869904Y4213753D02*
X28917523Y4118515D01*
X28917523Y4118515D02*
X28917523Y3975658D01*
X28917523Y3975658D02*
X28869904Y3880420D01*
X28869904Y3880420D02*
X28822285Y3832800D01*
X28822285Y3832800D02*
X28727047Y3785181D01*
X28727047Y3785181D02*
X28346095Y3785181D01*
X28346095Y3785181D02*
X28346095Y4785181D01*
X28346095Y4785181D02*
X28679428Y4785181D01*
X28679428Y4785181D02*
X28774666Y4737562D01*
X28774666Y4737562D02*
X28822285Y4689943D01*
X28822285Y4689943D02*
X28869904Y4594705D01*
X28869904Y4594705D02*
X28869904Y4499467D01*
X28869904Y4499467D02*
X28822285Y4404229D01*
X28822285Y4404229D02*
X28774666Y4356610D01*
X28774666Y4356610D02*
X28679428Y4308991D01*
X28679428Y4308991D02*
X28346095Y4308991D01*
X666666Y59445181D02*
X666666Y58730896D01*
X666666Y58730896D02*
X619047Y58588039D01*
X619047Y58588039D02*
X523809Y58492800D01*
X523809Y58492800D02*
X380952Y58445181D01*
X380952Y58445181D02*
X285714Y58445181D01*
X1095238Y59349943D02*
X1142857Y59397562D01*
X1142857Y59397562D02*
X1238095Y59445181D01*
X1238095Y59445181D02*
X1476190Y59445181D01*
X1476190Y59445181D02*
X1571428Y59397562D01*
X1571428Y59397562D02*
X1619047Y59349943D01*
X1619047Y59349943D02*
X1666666Y59254705D01*
X1666666Y59254705D02*
X1666666Y59159467D01*
X1666666Y59159467D02*
X1619047Y59016610D01*
X1619047Y59016610D02*
X1047619Y58445181D01*
X1047619Y58445181D02*
X1666666Y58445181D01*
D11*
X5345238Y24687581D02*
X5345238Y25687581D01*
X5345238Y25211391D02*
X5916666Y25211391D01*
X5916666Y24687581D02*
X5916666Y25687581D01*
X6773809Y24735200D02*
X6678571Y24687581D01*
X6678571Y24687581D02*
X6488095Y24687581D01*
X6488095Y24687581D02*
X6392857Y24735200D01*
X6392857Y24735200D02*
X6345238Y24830439D01*
X6345238Y24830439D02*
X6345238Y25211391D01*
X6345238Y25211391D02*
X6392857Y25306629D01*
X6392857Y25306629D02*
X6488095Y25354248D01*
X6488095Y25354248D02*
X6678571Y25354248D01*
X6678571Y25354248D02*
X6773809Y25306629D01*
X6773809Y25306629D02*
X6821428Y25211391D01*
X6821428Y25211391D02*
X6821428Y25116153D01*
X6821428Y25116153D02*
X6345238Y25020915D01*
X7678571Y24687581D02*
X7678571Y25211391D01*
X7678571Y25211391D02*
X7630952Y25306629D01*
X7630952Y25306629D02*
X7535714Y25354248D01*
X7535714Y25354248D02*
X7345238Y25354248D01*
X7345238Y25354248D02*
X7250000Y25306629D01*
X7678571Y24735200D02*
X7583333Y24687581D01*
X7583333Y24687581D02*
X7345238Y24687581D01*
X7345238Y24687581D02*
X7250000Y24735200D01*
X7250000Y24735200D02*
X7202381Y24830439D01*
X7202381Y24830439D02*
X7202381Y24925677D01*
X7202381Y24925677D02*
X7250000Y25020915D01*
X7250000Y25020915D02*
X7345238Y25068534D01*
X7345238Y25068534D02*
X7583333Y25068534D01*
X7583333Y25068534D02*
X7678571Y25116153D01*
X8011905Y25354248D02*
X8392857Y25354248D01*
X8154762Y25687581D02*
X8154762Y24830439D01*
X8154762Y24830439D02*
X8202381Y24735200D01*
X8202381Y24735200D02*
X8297619Y24687581D01*
X8297619Y24687581D02*
X8392857Y24687581D01*
X9440477Y24735200D02*
X9583334Y24687581D01*
X9583334Y24687581D02*
X9821429Y24687581D01*
X9821429Y24687581D02*
X9916667Y24735200D01*
X9916667Y24735200D02*
X9964286Y24782820D01*
X9964286Y24782820D02*
X10011905Y24878058D01*
X10011905Y24878058D02*
X10011905Y24973296D01*
X10011905Y24973296D02*
X9964286Y25068534D01*
X9964286Y25068534D02*
X9916667Y25116153D01*
X9916667Y25116153D02*
X9821429Y25163772D01*
X9821429Y25163772D02*
X9630953Y25211391D01*
X9630953Y25211391D02*
X9535715Y25259010D01*
X9535715Y25259010D02*
X9488096Y25306629D01*
X9488096Y25306629D02*
X9440477Y25401867D01*
X9440477Y25401867D02*
X9440477Y25497105D01*
X9440477Y25497105D02*
X9488096Y25592343D01*
X9488096Y25592343D02*
X9535715Y25639962D01*
X9535715Y25639962D02*
X9630953Y25687581D01*
X9630953Y25687581D02*
X9869048Y25687581D01*
X9869048Y25687581D02*
X10011905Y25639962D01*
X10440477Y24687581D02*
X10440477Y25354248D01*
X10440477Y25687581D02*
X10392858Y25639962D01*
X10392858Y25639962D02*
X10440477Y25592343D01*
X10440477Y25592343D02*
X10488096Y25639962D01*
X10488096Y25639962D02*
X10440477Y25687581D01*
X10440477Y25687581D02*
X10440477Y25592343D01*
X10916667Y25354248D02*
X10916667Y24687581D01*
X10916667Y25259010D02*
X10964286Y25306629D01*
X10964286Y25306629D02*
X11059524Y25354248D01*
X11059524Y25354248D02*
X11202381Y25354248D01*
X11202381Y25354248D02*
X11297619Y25306629D01*
X11297619Y25306629D02*
X11345238Y25211391D01*
X11345238Y25211391D02*
X11345238Y24687581D01*
X11821429Y24687581D02*
X11821429Y25687581D01*
X11916667Y25068534D02*
X12202381Y24687581D01*
X12202381Y25354248D02*
X11821429Y24973296D01*
D10*
X49961905Y3197412D02*
X49961905Y4197412D01*
X49961905Y4197412D02*
X50200000Y4197412D01*
X50200000Y4197412D02*
X50342857Y4149793D01*
X50342857Y4149793D02*
X50438095Y4054555D01*
X50438095Y4054555D02*
X50485714Y3959317D01*
X50485714Y3959317D02*
X50533333Y3768841D01*
X50533333Y3768841D02*
X50533333Y3625984D01*
X50533333Y3625984D02*
X50485714Y3435508D01*
X50485714Y3435508D02*
X50438095Y3340270D01*
X50438095Y3340270D02*
X50342857Y3245031D01*
X50342857Y3245031D02*
X50200000Y3197412D01*
X50200000Y3197412D02*
X49961905Y3197412D01*
X51485714Y3197412D02*
X50914286Y3197412D01*
X51200000Y3197412D02*
X51200000Y4197412D01*
X51200000Y4197412D02*
X51104762Y4054555D01*
X51104762Y4054555D02*
X51009524Y3959317D01*
X51009524Y3959317D02*
X50914286Y3911698D01*
D12*
%TO.C,J4*%
X68482500Y87382500D02*
X68482500Y84382500D01*
X65482500Y87382500D02*
X68482500Y87382500D01*
X68242500Y87142500D02*
X59022500Y87142500D01*
X68242500Y87142500D02*
X68242500Y76922500D01*
X59022500Y87142500D02*
X59022500Y76922500D01*
X68242500Y76922500D02*
X59022500Y76922500D01*
%TO.C,J3*%
X68242500Y52922500D02*
X59022500Y52922500D01*
X59022500Y63142500D02*
X59022500Y52922500D01*
X68242500Y63142500D02*
X68242500Y52922500D01*
X68242500Y63142500D02*
X59022500Y63142500D01*
X65482500Y63382500D02*
X68482500Y63382500D01*
X68482500Y63382500D02*
X68482500Y60382500D01*
%TO.C,RV1*%
X46785000Y48640000D02*
X46785000Y47995000D01*
X46785000Y48640000D02*
X53735000Y48640000D01*
X46785000Y47005000D02*
X46785000Y43900000D01*
X46785000Y43900000D02*
X53735000Y43900000D01*
X53735000Y48640000D02*
X53735000Y47995000D01*
X53735000Y47005000D02*
X53735000Y43900000D01*
%TO.C,R1*%
X44000000Y80180000D02*
X44000000Y78220000D01*
X45720000Y78220000D02*
X42280000Y78220000D01*
X42280000Y78220000D02*
X42280000Y68980000D01*
X45720000Y68980000D02*
X45720000Y78220000D01*
X42280000Y68980000D02*
X45720000Y68980000D01*
X44000000Y67020000D02*
X44000000Y68980000D01*
%TO.C,Q1*%
X27030000Y46280000D02*
X36520000Y46280000D01*
X27030000Y46280000D02*
X27030000Y56520000D01*
X36520000Y46280000D02*
X36520000Y56520000D01*
X36760000Y46280000D02*
X37960000Y46280000D01*
X39160000Y46280000D02*
X40360000Y46280000D01*
X41560000Y46280000D02*
X42760000Y46280000D01*
X42920000Y46280000D02*
X42920000Y47480000D01*
X42920000Y48679000D02*
X42920000Y49880000D01*
X24490000Y48860000D02*
X27030000Y48860000D01*
X42920000Y51080000D02*
X42920000Y52280000D01*
X24490000Y51400000D02*
X27030000Y51400000D01*
X42920000Y53480000D02*
X42920000Y54680000D01*
X24490000Y53940000D02*
X27030000Y53940000D01*
X42920000Y55880000D02*
X42920000Y56520000D01*
X27030000Y56520000D02*
X36520000Y56520000D01*
X36760000Y56520000D02*
X37960000Y56520000D01*
X39160000Y56520000D02*
X40360000Y56520000D01*
X41560000Y56520000D02*
X42760000Y56520000D01*
%TO.C,L2*%
X11090118Y83060000D02*
G75*
G02*
X39109882Y83060000I14009882J-1760000D01*
G01*
X39109882Y79540000D02*
G75*
G02*
X11090118Y79540000I-14009882J1760000D01*
G01*
%TO.C,D2*%
X13650000Y51730000D02*
X13650000Y52750000D01*
X12180000Y52750000D02*
X15120000Y52750000D01*
X15120000Y52750000D02*
X15120000Y58190000D01*
X15120000Y57170000D02*
X12180000Y57170000D01*
X15120000Y57290000D02*
X12180000Y57290000D01*
X15120000Y57410000D02*
X12180000Y57410000D01*
X12180000Y58190000D02*
X12180000Y52750000D01*
X15120000Y58190000D02*
X12180000Y58190000D01*
X13650000Y59210000D02*
X13650000Y58190000D01*
%TO.C,C5*%
X53810000Y87220000D02*
G75*
G02*
X45570000Y87220000I-4120000J0D01*
G01*
X45570000Y87220000D02*
G75*
G02*
X53810000Y87220000I4120000J0D01*
G01*
%TO.C,A1*%
X18588000Y43740000D02*
X18588000Y41070000D01*
X18588000Y38530000D02*
X18588000Y300000D01*
X18588000Y300000D02*
X23668000Y300000D01*
X21258000Y41070000D02*
X18588000Y41070000D01*
X21258000Y38530000D02*
X18588000Y38530000D01*
X21258000Y38530000D02*
X21258000Y41070000D01*
X21258000Y38530000D02*
X21258000Y2970000D01*
X21258000Y2970000D02*
X18588000Y2970000D01*
X23668000Y8180000D02*
X31548000Y8180000D01*
X23668000Y-2240000D02*
X23668000Y8180000D01*
X31548000Y8180000D02*
X31548000Y-2240000D01*
X31548000Y-2240000D02*
X23668000Y-2240000D01*
X33958000Y41070000D02*
X33958000Y2970000D01*
X33958000Y41070000D02*
X36628000Y41070000D01*
X33958000Y2970000D02*
X36628000Y2970000D01*
X36628000Y43740000D02*
X18588000Y43740000D01*
X36628000Y300000D02*
X31548000Y300000D01*
X36628000Y300000D02*
X36628000Y43740000D01*
%TO.C,J2*%
X-6490000Y62780000D02*
X-6490000Y37260000D01*
X-6490000Y62780000D02*
X2140000Y62780000D01*
X-6490000Y62660000D02*
X2140000Y62660000D01*
X-6490000Y62541905D02*
X2140000Y62541905D01*
X-6490000Y62423810D02*
X2140000Y62423810D01*
X-6490000Y62305715D02*
X2140000Y62305715D01*
X-6490000Y62187620D02*
X2140000Y62187620D01*
X-6490000Y62069525D02*
X2140000Y62069525D01*
X-6490000Y61951430D02*
X2140000Y61951430D01*
X-6490000Y61833335D02*
X2140000Y61833335D01*
X-6490000Y61715240D02*
X2140000Y61715240D01*
X-6490000Y61597145D02*
X2140000Y61597145D01*
X-6490000Y61479050D02*
X2140000Y61479050D01*
X-6490000Y61360955D02*
X2140000Y61360955D01*
X-6490000Y61242860D02*
X2140000Y61242860D01*
X-6490000Y61124765D02*
X2140000Y61124765D01*
X-6490000Y61006670D02*
X2140000Y61006670D01*
X-6490000Y60888575D02*
X2140000Y60888575D01*
X-6490000Y60770480D02*
X2140000Y60770480D01*
X-6490000Y60652385D02*
X2140000Y60652385D01*
X-6490000Y60534290D02*
X2140000Y60534290D01*
X-6490000Y60416195D02*
X2140000Y60416195D01*
X-6490000Y60298100D02*
X2140000Y60298100D01*
X-6490000Y60180000D02*
X2140000Y60180000D01*
X-6490000Y57640000D02*
X2140000Y57640000D01*
X-6490000Y55100000D02*
X2140000Y55100000D01*
X-6490000Y52560000D02*
X2140000Y52560000D01*
X-6490000Y50020000D02*
X2140000Y50020000D01*
X-6490000Y47480000D02*
X2140000Y47480000D01*
X-6490000Y44940000D02*
X2140000Y44940000D01*
X-6490000Y42400000D02*
X2140000Y42400000D01*
X-6490000Y39860000D02*
X2140000Y39860000D01*
X-6490000Y37260000D02*
X2140000Y37260000D01*
X2140000Y62780000D02*
X2140000Y37260000D01*
X2140000Y61810000D02*
X2490000Y61810000D01*
X2140000Y61090000D02*
X2490000Y61090000D01*
X2140000Y59270000D02*
X2550000Y59270000D01*
X2140000Y58550000D02*
X2550000Y58550000D01*
X2140000Y56730000D02*
X2550000Y56730000D01*
X2140000Y56010000D02*
X2550000Y56010000D01*
X2140000Y54190000D02*
X2550000Y54190000D01*
X2140000Y53470000D02*
X2550000Y53470000D01*
X2140000Y51650000D02*
X2550000Y51650000D01*
X2140000Y50930000D02*
X2550000Y50930000D01*
X2140000Y49110000D02*
X2550000Y49110000D01*
X2140000Y48390000D02*
X2550000Y48390000D01*
X2140000Y46570000D02*
X2550000Y46570000D01*
X2140000Y45850000D02*
X2550000Y45850000D01*
X2140000Y44030000D02*
X2550000Y44030000D01*
X2140000Y43310000D02*
X2550000Y43310000D01*
X2140000Y41490000D02*
X2550000Y41490000D01*
X2140000Y40770000D02*
X2550000Y40770000D01*
X2140000Y38950000D02*
X2550000Y38950000D01*
X2140000Y38230000D02*
X2550000Y38230000D01*
X3600000Y62780000D02*
X4710000Y62780000D01*
X4710000Y62780000D02*
X4710000Y61450000D01*
D13*
%TO.C,Logo1*%
X3896872Y70864977D02*
X4000471Y70862382D01*
X4089632Y70858246D01*
X4157928Y70852563D01*
X4198934Y70845331D01*
X4207326Y70840971D01*
X4215792Y70816698D01*
X4229565Y70761426D01*
X4247450Y70680662D01*
X4268252Y70579912D01*
X4290777Y70464683D01*
X4302582Y70401902D01*
X4324849Y70282787D01*
X4345021Y70176565D01*
X4362085Y70088427D01*
X4375031Y70023566D01*
X4382845Y69987174D01*
X4384578Y69981184D01*
X4404110Y69971061D01*
X4451157Y69949662D01*
X4518997Y69919839D01*
X4600909Y69884445D01*
X4690172Y69846332D01*
X4780065Y69808353D01*
X4863865Y69773360D01*
X4934853Y69744206D01*
X4986306Y69723743D01*
X5011503Y69714823D01*
X5012604Y69714657D01*
X5032481Y69724769D01*
X5078223Y69753117D01*
X5145283Y69796723D01*
X5229116Y69852606D01*
X5325174Y69917787D01*
X5380350Y69955679D01*
X5481519Y70024725D01*
X5573370Y70086050D01*
X5651256Y70136663D01*
X5710531Y70173571D01*
X5746549Y70193782D01*
X5754623Y70196701D01*
X5773416Y70184153D01*
X5813543Y70149463D01*
X5870507Y70097063D01*
X5939815Y70031384D01*
X6016969Y69956856D01*
X6097475Y69877913D01*
X6176837Y69798983D01*
X6250560Y69724500D01*
X6314148Y69658894D01*
X6363106Y69606596D01*
X6392939Y69572039D01*
X6400058Y69560478D01*
X6390047Y69541654D01*
X6361922Y69496631D01*
X6318546Y69429787D01*
X6262782Y69345499D01*
X6197494Y69248144D01*
X6147754Y69174707D01*
X5895449Y68803667D01*
X6150445Y68185095D01*
X6595069Y68101275D01*
X7039693Y68017454D01*
X7039693Y67092006D01*
X6595069Y67008186D01*
X6150445Y66924365D01*
X6022947Y66615080D01*
X5895449Y66305794D01*
X6147754Y65934754D01*
X6218004Y65830843D01*
X6280728Y65736913D01*
X6333062Y65657348D01*
X6372143Y65596530D01*
X6395107Y65558843D01*
X6400058Y65548579D01*
X6387324Y65530090D01*
X6352118Y65490580D01*
X6298938Y65434478D01*
X6232282Y65366213D01*
X6156646Y65290214D01*
X6076528Y65210908D01*
X5996426Y65132725D01*
X5920836Y65060093D01*
X5854255Y64997441D01*
X5801182Y64949197D01*
X5766113Y64919790D01*
X5754377Y64912759D01*
X5732740Y64922877D01*
X5685338Y64951241D01*
X5616807Y64994871D01*
X5531785Y65050782D01*
X5434907Y65115994D01*
X5379650Y65153781D01*
X5278752Y65222657D01*
X5187701Y65283860D01*
X5111030Y65334422D01*
X5053272Y65371372D01*
X5018957Y65391742D01*
X5011746Y65394803D01*
X4991252Y65387864D01*
X4943487Y65368949D01*
X4875168Y65340913D01*
X4793011Y65306609D01*
X4703730Y65268891D01*
X4614042Y65230613D01*
X4530662Y65194630D01*
X4460306Y65163794D01*
X4409690Y65140961D01*
X4385529Y65128983D01*
X4384578Y65128276D01*
X4379964Y65109469D01*
X4369672Y65059382D01*
X4354713Y64983207D01*
X4336099Y64886135D01*
X4314841Y64773357D01*
X4302582Y64707558D01*
X4279638Y64587050D01*
X4257805Y64478203D01*
X4238278Y64386524D01*
X4222252Y64317519D01*
X4210921Y64276696D01*
X4207326Y64268489D01*
X4182994Y64260452D01*
X4128041Y64253967D01*
X4048892Y64249030D01*
X3951974Y64245636D01*
X3843713Y64243782D01*
X3730535Y64243462D01*
X3618865Y64244673D01*
X3515132Y64247410D01*
X3425759Y64251669D01*
X3357174Y64257445D01*
X3315803Y64264733D01*
X3307190Y64269105D01*
X3296867Y64295236D01*
X3282108Y64350607D01*
X3264648Y64427893D01*
X3246220Y64519770D01*
X3240259Y64551842D01*
X3211934Y64706476D01*
X3189124Y64828625D01*
X3170920Y64922327D01*
X3156417Y64991616D01*
X3144708Y65040529D01*
X3134885Y65073103D01*
X3126044Y65093372D01*
X3117276Y65105374D01*
X3115543Y65107053D01*
X3087629Y65123816D01*
X3033305Y65149386D01*
X2959223Y65181212D01*
X2872035Y65216740D01*
X2778392Y65253417D01*
X2684948Y65288689D01*
X2598353Y65320004D01*
X2525260Y65344807D01*
X2472322Y65360546D01*
X2446189Y65364668D01*
X2445274Y65364324D01*
X2423914Y65350359D01*
X2376916Y65318678D01*
X2309173Y65272609D01*
X2225577Y65215482D01*
X2131018Y65150627D01*
X2104146Y65132157D01*
X2006725Y65066301D01*
X1917837Y65008350D01*
X1842588Y64961462D01*
X1786080Y64928793D01*
X1753419Y64913500D01*
X1749407Y64912759D01*
X1728316Y64925608D01*
X1686536Y64961112D01*
X1628555Y65014707D01*
X1558865Y65081829D01*
X1481955Y65157913D01*
X1402317Y65238396D01*
X1324439Y65318713D01*
X1252814Y65394301D01*
X1191930Y65460595D01*
X1146279Y65513031D01*
X1120350Y65547045D01*
X1116117Y65556455D01*
X1126088Y65578357D01*
X1152980Y65623200D01*
X1192264Y65683679D01*
X1223883Y65730211D01*
X1281902Y65814525D01*
X1350216Y65914374D01*
X1418421Y66014527D01*
X1454925Y66068373D01*
X1578200Y66250629D01*
X1495480Y66403619D01*
X1459241Y66473318D01*
X1431074Y66532586D01*
X1415009Y66572689D01*
X1412774Y66582897D01*
X1429278Y66595171D01*
X1475918Y66619387D01*
X1548391Y66653737D01*
X1642394Y66696412D01*
X1753626Y66745606D01*
X1877785Y66799510D01*
X2010568Y66856316D01*
X2147673Y66914218D01*
X2284798Y66971407D01*
X2417642Y67026076D01*
X2541902Y67076416D01*
X2653275Y67120620D01*
X2747461Y67156881D01*
X2820156Y67183391D01*
X2867059Y67198342D01*
X2883167Y67200746D01*
X2903714Y67181689D01*
X2937067Y67139964D01*
X2976298Y67084294D01*
X2979401Y67079622D01*
X3094577Y66935736D01*
X3228947Y66819717D01*
X3378216Y66732570D01*
X3538087Y66675301D01*
X3704263Y66648914D01*
X3872448Y66654415D01*
X4038345Y66692810D01*
X4197658Y66765105D01*
X4232513Y66786374D01*
X4373263Y66897004D01*
X4486286Y67027698D01*
X4570997Y67173936D01*
X4626806Y67331192D01*
X4653126Y67494943D01*
X4649370Y67660667D01*
X4614950Y67823838D01*
X4549277Y67979935D01*
X4451765Y68124433D01*
X4412187Y68169131D01*
X4288297Y68282888D01*
X4157876Y68365782D01*
X4011685Y68422644D01*
X3866912Y68454313D01*
X3704140Y68462131D01*
X3540560Y68436062D01*
X3381702Y68378755D01*
X3233094Y68292856D01*
X3100265Y68181014D01*
X2988744Y68045877D01*
X2976989Y68028117D01*
X2938492Y67971850D01*
X2905137Y67929077D01*
X2883840Y67908628D01*
X2883167Y67908331D01*
X2860129Y67912721D01*
X2807843Y67930124D01*
X2730610Y67958732D01*
X2632732Y67996735D01*
X2518509Y68042326D01*
X2392242Y68093697D01*
X2258233Y68149038D01*
X2120782Y68206542D01*
X1984192Y68264399D01*
X1852763Y68320802D01*
X1730795Y68373942D01*
X1622591Y68422010D01*
X1532451Y68463199D01*
X1464677Y68495699D01*
X1423570Y68517703D01*
X1412774Y68526564D01*
X1421181Y68553640D01*
X1443728Y68604303D01*
X1476387Y68669817D01*
X1495480Y68705841D01*
X1578200Y68858832D01*
X1454925Y69041088D01*
X1391772Y69134125D01*
X1322273Y69235985D01*
X1256835Y69331438D01*
X1223883Y69379250D01*
X1178727Y69446495D01*
X1142943Y69503436D01*
X1121062Y69542646D01*
X1116437Y69555381D01*
X1128915Y69573917D01*
X1163748Y69614941D01*
X1217322Y69674475D01*
X1286017Y69748542D01*
X1366219Y69833165D01*
X1417714Y69886685D01*
X1509714Y69980319D01*
X1592001Y70061241D01*
X1661055Y70126177D01*
X1713356Y70171858D01*
X1745384Y70195011D01*
X1751884Y70197232D01*
X1776606Y70186924D01*
X1826595Y70158439D01*
X1896788Y70114937D01*
X1982125Y70059577D01*
X2077544Y69995520D01*
X2104146Y69977303D01*
X2200833Y69910927D01*
X2287883Y69851378D01*
X2360405Y69801984D01*
X2413507Y69766075D01*
X2442297Y69746981D01*
X2445274Y69745136D01*
X2468218Y69747895D01*
X2518664Y69762538D01*
X2589959Y69786513D01*
X2675453Y69817266D01*
X2768493Y69852244D01*
X2862426Y69888893D01*
X2950601Y69924661D01*
X3026366Y69956994D01*
X3083069Y69983338D01*
X3114057Y70001142D01*
X3115543Y70002407D01*
X3124399Y70013294D01*
X3133157Y70031682D01*
X3142723Y70061606D01*
X3154004Y70107103D01*
X3167907Y70172209D01*
X3185337Y70260961D01*
X3207202Y70377393D01*
X3234409Y70525542D01*
X3240259Y70557618D01*
X3258626Y70652686D01*
X3276595Y70735565D01*
X3292431Y70798930D01*
X3304400Y70835458D01*
X3307190Y70840356D01*
X3331928Y70848427D01*
X3387210Y70854987D01*
X3466611Y70860033D01*
X3563704Y70863559D01*
X3672062Y70865561D01*
X3785260Y70866036D01*
X3896872Y70864977D01*
G36*
X3896872Y70864977D02*
G01*
X4000471Y70862382D01*
X4089632Y70858246D01*
X4157928Y70852563D01*
X4198934Y70845331D01*
X4207326Y70840971D01*
X4215792Y70816698D01*
X4229565Y70761426D01*
X4247450Y70680662D01*
X4268252Y70579912D01*
X4290777Y70464683D01*
X4302582Y70401902D01*
X4324849Y70282787D01*
X4345021Y70176565D01*
X4362085Y70088427D01*
X4375031Y70023566D01*
X4382845Y69987174D01*
X4384578Y69981184D01*
X4404110Y69971061D01*
X4451157Y69949662D01*
X4518997Y69919839D01*
X4600909Y69884445D01*
X4690172Y69846332D01*
X4780065Y69808353D01*
X4863865Y69773360D01*
X4934853Y69744206D01*
X4986306Y69723743D01*
X5011503Y69714823D01*
X5012604Y69714657D01*
X5032481Y69724769D01*
X5078223Y69753117D01*
X5145283Y69796723D01*
X5229116Y69852606D01*
X5325174Y69917787D01*
X5380350Y69955679D01*
X5481519Y70024725D01*
X5573370Y70086050D01*
X5651256Y70136663D01*
X5710531Y70173571D01*
X5746549Y70193782D01*
X5754623Y70196701D01*
X5773416Y70184153D01*
X5813543Y70149463D01*
X5870507Y70097063D01*
X5939815Y70031384D01*
X6016969Y69956856D01*
X6097475Y69877913D01*
X6176837Y69798983D01*
X6250560Y69724500D01*
X6314148Y69658894D01*
X6363106Y69606596D01*
X6392939Y69572039D01*
X6400058Y69560478D01*
X6390047Y69541654D01*
X6361922Y69496631D01*
X6318546Y69429787D01*
X6262782Y69345499D01*
X6197494Y69248144D01*
X6147754Y69174707D01*
X5895449Y68803667D01*
X6150445Y68185095D01*
X6595069Y68101275D01*
X7039693Y68017454D01*
X7039693Y67092006D01*
X6595069Y67008186D01*
X6150445Y66924365D01*
X6022947Y66615080D01*
X5895449Y66305794D01*
X6147754Y65934754D01*
X6218004Y65830843D01*
X6280728Y65736913D01*
X6333062Y65657348D01*
X6372143Y65596530D01*
X6395107Y65558843D01*
X6400058Y65548579D01*
X6387324Y65530090D01*
X6352118Y65490580D01*
X6298938Y65434478D01*
X6232282Y65366213D01*
X6156646Y65290214D01*
X6076528Y65210908D01*
X5996426Y65132725D01*
X5920836Y65060093D01*
X5854255Y64997441D01*
X5801182Y64949197D01*
X5766113Y64919790D01*
X5754377Y64912759D01*
X5732740Y64922877D01*
X5685338Y64951241D01*
X5616807Y64994871D01*
X5531785Y65050782D01*
X5434907Y65115994D01*
X5379650Y65153781D01*
X5278752Y65222657D01*
X5187701Y65283860D01*
X5111030Y65334422D01*
X5053272Y65371372D01*
X5018957Y65391742D01*
X5011746Y65394803D01*
X4991252Y65387864D01*
X4943487Y65368949D01*
X4875168Y65340913D01*
X4793011Y65306609D01*
X4703730Y65268891D01*
X4614042Y65230613D01*
X4530662Y65194630D01*
X4460306Y65163794D01*
X4409690Y65140961D01*
X4385529Y65128983D01*
X4384578Y65128276D01*
X4379964Y65109469D01*
X4369672Y65059382D01*
X4354713Y64983207D01*
X4336099Y64886135D01*
X4314841Y64773357D01*
X4302582Y64707558D01*
X4279638Y64587050D01*
X4257805Y64478203D01*
X4238278Y64386524D01*
X4222252Y64317519D01*
X4210921Y64276696D01*
X4207326Y64268489D01*
X4182994Y64260452D01*
X4128041Y64253967D01*
X4048892Y64249030D01*
X3951974Y64245636D01*
X3843713Y64243782D01*
X3730535Y64243462D01*
X3618865Y64244673D01*
X3515132Y64247410D01*
X3425759Y64251669D01*
X3357174Y64257445D01*
X3315803Y64264733D01*
X3307190Y64269105D01*
X3296867Y64295236D01*
X3282108Y64350607D01*
X3264648Y64427893D01*
X3246220Y64519770D01*
X3240259Y64551842D01*
X3211934Y64706476D01*
X3189124Y64828625D01*
X3170920Y64922327D01*
X3156417Y64991616D01*
X3144708Y65040529D01*
X3134885Y65073103D01*
X3126044Y65093372D01*
X3117276Y65105374D01*
X3115543Y65107053D01*
X3087629Y65123816D01*
X3033305Y65149386D01*
X2959223Y65181212D01*
X2872035Y65216740D01*
X2778392Y65253417D01*
X2684948Y65288689D01*
X2598353Y65320004D01*
X2525260Y65344807D01*
X2472322Y65360546D01*
X2446189Y65364668D01*
X2445274Y65364324D01*
X2423914Y65350359D01*
X2376916Y65318678D01*
X2309173Y65272609D01*
X2225577Y65215482D01*
X2131018Y65150627D01*
X2104146Y65132157D01*
X2006725Y65066301D01*
X1917837Y65008350D01*
X1842588Y64961462D01*
X1786080Y64928793D01*
X1753419Y64913500D01*
X1749407Y64912759D01*
X1728316Y64925608D01*
X1686536Y64961112D01*
X1628555Y65014707D01*
X1558865Y65081829D01*
X1481955Y65157913D01*
X1402317Y65238396D01*
X1324439Y65318713D01*
X1252814Y65394301D01*
X1191930Y65460595D01*
X1146279Y65513031D01*
X1120350Y65547045D01*
X1116117Y65556455D01*
X1126088Y65578357D01*
X1152980Y65623200D01*
X1192264Y65683679D01*
X1223883Y65730211D01*
X1281902Y65814525D01*
X1350216Y65914374D01*
X1418421Y66014527D01*
X1454925Y66068373D01*
X1578200Y66250629D01*
X1495480Y66403619D01*
X1459241Y66473318D01*
X1431074Y66532586D01*
X1415009Y66572689D01*
X1412774Y66582897D01*
X1429278Y66595171D01*
X1475918Y66619387D01*
X1548391Y66653737D01*
X1642394Y66696412D01*
X1753626Y66745606D01*
X1877785Y66799510D01*
X2010568Y66856316D01*
X2147673Y66914218D01*
X2284798Y66971407D01*
X2417642Y67026076D01*
X2541902Y67076416D01*
X2653275Y67120620D01*
X2747461Y67156881D01*
X2820156Y67183391D01*
X2867059Y67198342D01*
X2883167Y67200746D01*
X2903714Y67181689D01*
X2937067Y67139964D01*
X2976298Y67084294D01*
X2979401Y67079622D01*
X3094577Y66935736D01*
X3228947Y66819717D01*
X3378216Y66732570D01*
X3538087Y66675301D01*
X3704263Y66648914D01*
X3872448Y66654415D01*
X4038345Y66692810D01*
X4197658Y66765105D01*
X4232513Y66786374D01*
X4373263Y66897004D01*
X4486286Y67027698D01*
X4570997Y67173936D01*
X4626806Y67331192D01*
X4653126Y67494943D01*
X4649370Y67660667D01*
X4614950Y67823838D01*
X4549277Y67979935D01*
X4451765Y68124433D01*
X4412187Y68169131D01*
X4288297Y68282888D01*
X4157876Y68365782D01*
X4011685Y68422644D01*
X3866912Y68454313D01*
X3704140Y68462131D01*
X3540560Y68436062D01*
X3381702Y68378755D01*
X3233094Y68292856D01*
X3100265Y68181014D01*
X2988744Y68045877D01*
X2976989Y68028117D01*
X2938492Y67971850D01*
X2905137Y67929077D01*
X2883840Y67908628D01*
X2883167Y67908331D01*
X2860129Y67912721D01*
X2807843Y67930124D01*
X2730610Y67958732D01*
X2632732Y67996735D01*
X2518509Y68042326D01*
X2392242Y68093697D01*
X2258233Y68149038D01*
X2120782Y68206542D01*
X1984192Y68264399D01*
X1852763Y68320802D01*
X1730795Y68373942D01*
X1622591Y68422010D01*
X1532451Y68463199D01*
X1464677Y68495699D01*
X1423570Y68517703D01*
X1412774Y68526564D01*
X1421181Y68553640D01*
X1443728Y68604303D01*
X1476387Y68669817D01*
X1495480Y68705841D01*
X1578200Y68858832D01*
X1454925Y69041088D01*
X1391772Y69134125D01*
X1322273Y69235985D01*
X1256835Y69331438D01*
X1223883Y69379250D01*
X1178727Y69446495D01*
X1142943Y69503436D01*
X1121062Y69542646D01*
X1116437Y69555381D01*
X1128915Y69573917D01*
X1163748Y69614941D01*
X1217322Y69674475D01*
X1286017Y69748542D01*
X1366219Y69833165D01*
X1417714Y69886685D01*
X1509714Y69980319D01*
X1592001Y70061241D01*
X1661055Y70126177D01*
X1713356Y70171858D01*
X1745384Y70195011D01*
X1751884Y70197232D01*
X1776606Y70186924D01*
X1826595Y70158439D01*
X1896788Y70114937D01*
X1982125Y70059577D01*
X2077544Y69995520D01*
X2104146Y69977303D01*
X2200833Y69910927D01*
X2287883Y69851378D01*
X2360405Y69801984D01*
X2413507Y69766075D01*
X2442297Y69746981D01*
X2445274Y69745136D01*
X2468218Y69747895D01*
X2518664Y69762538D01*
X2589959Y69786513D01*
X2675453Y69817266D01*
X2768493Y69852244D01*
X2862426Y69888893D01*
X2950601Y69924661D01*
X3026366Y69956994D01*
X3083069Y69983338D01*
X3114057Y70001142D01*
X3115543Y70002407D01*
X3124399Y70013294D01*
X3133157Y70031682D01*
X3142723Y70061606D01*
X3154004Y70107103D01*
X3167907Y70172209D01*
X3185337Y70260961D01*
X3207202Y70377393D01*
X3234409Y70525542D01*
X3240259Y70557618D01*
X3258626Y70652686D01*
X3276595Y70735565D01*
X3292431Y70798930D01*
X3304400Y70835458D01*
X3307190Y70840356D01*
X3331928Y70848427D01*
X3387210Y70854987D01*
X3466611Y70860033D01*
X3563704Y70863559D01*
X3672062Y70865561D01*
X3785260Y70866036D01*
X3896872Y70864977D01*
G37*
D14*
%TO.C,D1*%
X48200000Y6267231D02*
X53200000Y6267231D01*
X48200000Y6067231D02*
X48200000Y6267231D01*
X48200000Y2767231D02*
X48200000Y4467231D01*
X48200000Y1267231D02*
X48200000Y1067231D01*
X48200000Y1067231D02*
X53200000Y1067231D01*
X53200000Y6267231D02*
X53200000Y6067231D01*
X53200000Y4567231D02*
X53200000Y3567231D01*
X53200000Y3567231D02*
X50600000Y1067231D01*
X53200000Y3567231D02*
X53200000Y2767231D01*
X53200000Y1067231D02*
X53200000Y1267231D01*
D15*
X53608182Y707769D02*
G75*
G02*
X53408182Y707769I-100000J0D01*
G01*
X53408182Y707769D02*
G75*
G02*
X53608182Y707769I100000J0D01*
G01*
%TD*%
M02*
