M48
; DRILL file {KiCad 5.1.10} date Tue Oct 26 18:05:20 2021
; FORMAT={-:-/ absolute / inch / decimal}
; #@! TF.CreationDate,2021-10-26T18:05:20-04:00
; #@! TF.GenerationSoftware,Kicad,Pcbnew,5.1.10
; #@! TF.FileFunction,Plated,1,2,PTH
FMAT,2
INCH
T1C0.0157
T2C0.0315
T3C0.0394
T4C0.0394
T5C0.0500
T6C0.0512
T7C0.0591
T8C0.1260
%
G90
G05
T1
X4.9768Y-4.2039
X5.2268Y-2.9539
X5.2268Y-3.4039
X5.8268Y-3.7039
X6.0268Y-4.5039
X6.0268Y-4.6039
T2
X6.0965Y-3.4299
X6.1965Y-3.5299
X6.2965Y-3.4299
X6.5268Y-2.3539
X6.5268Y-2.9539
X6.6768Y-2.0039
X6.8146Y-2.0039
T3
X5.1024Y-3.1024
X5.1024Y-3.2024
X5.1024Y-3.3024
X5.1024Y-3.4024
X5.1024Y-3.5024
X5.1024Y-3.6024
X5.1024Y-3.7024
X5.1024Y-3.8024
X5.1024Y-3.9024
X5.1024Y-4.0024
X5.315Y-3.937
X5.315Y-4.037
X5.315Y-4.137
X5.315Y-4.237
X5.315Y-4.337
X5.315Y-4.437
X5.315Y-4.537
X5.315Y-4.637
X5.315Y-4.737
X5.315Y-4.837
X5.315Y-4.937
X5.315Y-5.037
X5.315Y-5.137
X5.315Y-5.237
X5.315Y-5.337
X5.915Y-3.937
X5.915Y-4.037
X5.915Y-4.137
X5.915Y-4.237
X5.915Y-4.337
X5.915Y-4.437
X5.915Y-4.537
X5.915Y-4.637
X5.915Y-4.737
X5.915Y-4.837
X5.915Y-4.937
X5.915Y-5.037
X5.915Y-5.137
X5.915Y-5.237
X5.915Y-5.337
T4
X5.3269Y-3.0539
X5.5768Y-3.2539
X5.6768Y-3.2539
X5.7768Y-3.2539
T5
X5.3269Y-3.4539
T6
X7.2768Y-2.1039
X7.2768Y-2.3008
X7.2768Y-3.0539
X7.2768Y-3.2508
T7
X5.1768Y-2.3539
X6.3264Y-2.3539
T8
X5.0236Y-1.7638
X5.0236Y-5.3071
X7.3858Y-1.7638
X7.3858Y-5.3071
T0
M30
