%TF.GenerationSoftware,KiCad,Pcbnew,8.0.2*%
%TF.CreationDate,2024-08-15T23:42:42-04:00*%
%TF.ProjectId,BREAD_Slice,42524541-445f-4536-9c69-63652e6b6963,rev?*%
%TF.SameCoordinates,PX74eba40PY8552dc0*%
%TF.FileFunction,Soldermask,Top*%
%TF.FilePolarity,Negative*%
%FSLAX46Y46*%
G04 Gerber Fmt 4.6, Leading zero omitted, Abs format (unit mm)*
G04 Created by KiCad (PCBNEW 8.0.2) date 2024-08-15 23:42:42*
%MOMM*%
%LPD*%
G01*
G04 APERTURE LIST*
G04 Aperture macros list*
%AMRoundRect*
0 Rectangle with rounded corners*
0 $1 Rounding radius*
0 $2 $3 $4 $5 $6 $7 $8 $9 X,Y pos of 4 corners*
0 Add a 4 corners polygon primitive as box body*
4,1,4,$2,$3,$4,$5,$6,$7,$8,$9,$2,$3,0*
0 Add four circle primitives for the rounded corners*
1,1,$1+$1,$2,$3*
1,1,$1+$1,$4,$5*
1,1,$1+$1,$6,$7*
1,1,$1+$1,$8,$9*
0 Add four rect primitives between the rounded corners*
20,1,$1+$1,$2,$3,$4,$5,0*
20,1,$1+$1,$4,$5,$6,$7,0*
20,1,$1+$1,$6,$7,$8,$9,0*
20,1,$1+$1,$8,$9,$2,$3,0*%
G04 Aperture macros list end*
%ADD10RoundRect,0.050000X-1.500000X1.500000X-1.500000X-1.500000X1.500000X-1.500000X1.500000X1.500000X0*%
%ADD11C,3.100000*%
%ADD12C,1.540000*%
%ADD13C,1.700000*%
%ADD14O,1.700000X1.700000*%
%ADD15O,3.600000X3.600000*%
%ADD16RoundRect,0.050000X1.000000X-0.952500X1.000000X0.952500X-1.000000X0.952500X-1.000000X-0.952500X0*%
%ADD17O,2.100000X2.005000*%
%ADD18O,2.300000X2.300000*%
%ADD19RoundRect,0.050000X-1.100000X1.100000X-1.100000X-1.100000X1.100000X-1.100000X1.100000X1.100000X0*%
%ADD20C,5.100000*%
%ADD21RoundRect,0.050000X-0.800000X-0.800000X0.800000X-0.800000X0.800000X0.800000X-0.800000X0.800000X0*%
%ADD22RoundRect,0.050000X-0.850000X-0.850000X0.850000X-0.850000X0.850000X0.850000X-0.850000X0.850000X0*%
%ADD23O,1.800000X1.800000*%
%ADD24RoundRect,1.008333X-5.041667X-5.041667X5.041667X-5.041667X5.041667X5.041667X-5.041667X5.041667X0*%
%ADD25RoundRect,0.101600X-0.825500X-0.500000X0.825500X-0.500000X0.825500X0.500000X-0.825500X0.500000X0*%
G04 APERTURE END LIST*
D10*
%TO.C,J4*%
X63132500Y84532500D03*
D11*
X63132500Y79532500D03*
%TD*%
%TO.C,J3*%
X63132500Y55532500D03*
D10*
X63132500Y60532500D03*
%TD*%
D12*
%TO.C,RV1*%
X52800000Y47500000D03*
X50260000Y44960000D03*
X47720000Y47500000D03*
%TD*%
D13*
%TO.C,R1*%
X44000000Y81220000D03*
D14*
X44000000Y65980000D03*
%TD*%
D15*
%TO.C,Q1*%
X40000000Y51400000D03*
D16*
X23340000Y48860000D03*
D17*
X23340000Y51400000D03*
X23340000Y53940000D03*
%TD*%
D11*
%TO.C,L2*%
X10500000Y81300000D03*
X39700000Y81300000D03*
%TD*%
D18*
%TO.C,D2*%
X13650000Y50390000D03*
D19*
X13650000Y60550000D03*
%TD*%
D13*
%TO.C,C5*%
X47940000Y87220000D03*
X51440000Y87220000D03*
%TD*%
D20*
%TO.C,H1*%
X5000000Y95000000D03*
%TD*%
%TO.C,H3*%
X65000000Y95000000D03*
%TD*%
%TO.C,H2*%
X5000000Y5000000D03*
%TD*%
%TO.C,H4*%
X65000000Y5000000D03*
%TD*%
D21*
%TO.C,A1*%
X19988000Y39800000D03*
D14*
X19988000Y37260000D03*
X19988000Y34720000D03*
X19988000Y32180000D03*
X19988000Y29640000D03*
X19988000Y27100000D03*
X19988000Y24560000D03*
X19988000Y22020000D03*
X19988000Y19480000D03*
X19988000Y16940000D03*
X19988000Y14400000D03*
X19988000Y11860000D03*
X19988000Y9320000D03*
X19988000Y6780000D03*
X19988000Y4240000D03*
X35228000Y4240000D03*
X35228000Y6780000D03*
X35228000Y9320000D03*
X35228000Y11860000D03*
X35228000Y14400000D03*
X35228000Y16940000D03*
X35228000Y19480000D03*
X35228000Y22020000D03*
X35228000Y24560000D03*
X35228000Y27100000D03*
X35228000Y29640000D03*
X35228000Y32180000D03*
X35228000Y34720000D03*
X35228000Y37260000D03*
X35228000Y39800000D03*
%TD*%
D22*
%TO.C,J2*%
X3600000Y61450000D03*
D23*
X3600000Y58910000D03*
X3600000Y56370000D03*
X3600000Y53830000D03*
X3600000Y51290000D03*
X3600000Y48750000D03*
X3600000Y46210000D03*
X3600000Y43670000D03*
X3600000Y41130000D03*
X3600000Y38590000D03*
%TD*%
D24*
%TO.C,HS1*%
X8750000Y18445000D03*
%TD*%
D25*
%TO.C,D1*%
X48123000Y5267231D03*
X48123000Y2067231D03*
X53277000Y2067231D03*
X53277000Y5267231D03*
%TD*%
M02*
