%TF.GenerationSoftware,KiCad,Pcbnew,8.0.5*%
%TF.CreationDate,2024-09-27T10:18:34-04:00*%
%TF.ProjectId,BREAD_Slice,42524541-445f-4536-9c69-63652e6b6963,rev?*%
%TF.SameCoordinates,PX74eba40PY8552dc0*%
%TF.FileFunction,Soldermask,Bot*%
%TF.FilePolarity,Negative*%
%FSLAX46Y46*%
G04 Gerber Fmt 4.6, Leading zero omitted, Abs format (unit mm)*
G04 Created by KiCad (PCBNEW 8.0.5) date 2024-09-27 10:18:34*
%MOMM*%
%LPD*%
G01*
G04 APERTURE LIST*
G04 Aperture macros list*
%AMRoundRect*
0 Rectangle with rounded corners*
0 $1 Rounding radius*
0 $2 $3 $4 $5 $6 $7 $8 $9 X,Y pos of 4 corners*
0 Add a 4 corners polygon primitive as box body*
4,1,4,$2,$3,$4,$5,$6,$7,$8,$9,$2,$3,0*
0 Add four circle primitives for the rounded corners*
1,1,$1+$1,$2,$3*
1,1,$1+$1,$4,$5*
1,1,$1+$1,$6,$7*
1,1,$1+$1,$8,$9*
0 Add four rect primitives between the rounded corners*
20,1,$1+$1,$2,$3,$4,$5,0*
20,1,$1+$1,$4,$5,$6,$7,0*
20,1,$1+$1,$6,$7,$8,$9,0*
20,1,$1+$1,$8,$9,$2,$3,0*%
G04 Aperture macros list end*
%ADD10C,5.100000*%
%ADD11RoundRect,0.050000X-0.800000X-0.800000X0.800000X-0.800000X0.800000X0.800000X-0.800000X0.800000X0*%
%ADD12O,1.700000X1.700000*%
%ADD13RoundRect,0.050000X-0.850000X-0.850000X0.850000X-0.850000X0.850000X0.850000X-0.850000X0.850000X0*%
%ADD14O,1.800000X1.800000*%
%ADD15C,1.700000*%
%ADD16O,3.600000X3.600000*%
%ADD17RoundRect,0.050000X1.000000X-0.952500X1.000000X0.952500X-1.000000X0.952500X-1.000000X-0.952500X0*%
%ADD18O,2.100000X2.005000*%
%ADD19RoundRect,0.050000X-1.500000X1.500000X-1.500000X-1.500000X1.500000X-1.500000X1.500000X1.500000X0*%
%ADD20C,3.100000*%
%ADD21RoundRect,0.050000X-1.100000X1.100000X-1.100000X-1.100000X1.100000X-1.100000X1.100000X1.100000X0*%
%ADD22O,2.300000X2.300000*%
%ADD23C,1.540000*%
%ADD24RoundRect,0.175000X0.175000X0.650000X-0.175000X0.650000X-0.175000X-0.650000X0.175000X-0.650000X0*%
%ADD25RoundRect,0.270833X0.379167X0.679167X-0.379167X0.679167X-0.379167X-0.679167X0.379167X-0.679167X0*%
%ADD26RoundRect,0.271739X0.353261X0.678261X-0.353261X0.678261X-0.353261X-0.678261X0.353261X-0.678261X0*%
%ADD27RoundRect,0.175000X-0.537500X-0.175000X0.537500X-0.175000X0.537500X0.175000X-0.537500X0.175000X0*%
%ADD28RoundRect,0.271739X-0.353261X-0.678261X0.353261X-0.678261X0.353261X0.678261X-0.353261X0.678261X0*%
%ADD29RoundRect,0.270000X-0.405000X-1.105000X0.405000X-1.105000X0.405000X1.105000X-0.405000X1.105000X0*%
G04 APERTURE END LIST*
D10*
%TO.C,H1*%
X5000000Y95000000D03*
%TD*%
%TO.C,H3*%
X65000000Y95000000D03*
%TD*%
%TO.C,H2*%
X5000000Y5000000D03*
%TD*%
%TO.C,H4*%
X65000000Y5000000D03*
%TD*%
D11*
%TO.C,A1*%
X19988000Y39800000D03*
D12*
X19988000Y37260000D03*
X19988000Y34720000D03*
X19988000Y32180000D03*
X19988000Y29640000D03*
X19988000Y27100000D03*
X19988000Y24560000D03*
X19988000Y22020000D03*
X19988000Y19480000D03*
X19988000Y16940000D03*
X19988000Y14400000D03*
X19988000Y11860000D03*
X19988000Y9320000D03*
X19988000Y6780000D03*
X19988000Y4240000D03*
X35228000Y4240000D03*
X35228000Y6780000D03*
X35228000Y9320000D03*
X35228000Y11860000D03*
X35228000Y14400000D03*
X35228000Y16940000D03*
X35228000Y19480000D03*
X35228000Y22020000D03*
X35228000Y24560000D03*
X35228000Y27100000D03*
X35228000Y29640000D03*
X35228000Y32180000D03*
X35228000Y34720000D03*
X35228000Y37260000D03*
X35228000Y39800000D03*
%TD*%
D13*
%TO.C,J2*%
X3600000Y61450000D03*
D14*
X3600000Y58910000D03*
X3600000Y56370000D03*
X3600000Y53830000D03*
X3600000Y51290000D03*
X3600000Y48750000D03*
X3600000Y46210000D03*
X3600000Y43670000D03*
X3600000Y41130000D03*
X3600000Y38590000D03*
%TD*%
D15*
%TO.C,R1*%
X44000000Y81220000D03*
D12*
X44000000Y65980000D03*
%TD*%
D16*
%TO.C,Q1*%
X40000000Y51400000D03*
D17*
X23340000Y48860000D03*
D18*
X23340000Y51400000D03*
X23340000Y53940000D03*
%TD*%
D19*
%TO.C,J3*%
X63132500Y60532500D03*
D20*
X63132500Y55532500D03*
%TD*%
D21*
%TO.C,D2*%
X13650000Y60550000D03*
D22*
X13650000Y50390000D03*
%TD*%
D20*
%TO.C,L2*%
X10500000Y81300000D03*
X39700000Y81300000D03*
%TD*%
D15*
%TO.C,C5*%
X47244000Y84610000D03*
X47244000Y88110000D03*
%TD*%
D23*
%TO.C,RV1*%
X52800000Y47500000D03*
X50260000Y44960000D03*
X47720000Y47500000D03*
%TD*%
D19*
%TO.C,J4*%
X63132500Y84532500D03*
D20*
X63132500Y79532500D03*
%TD*%
D24*
%TO.C,J1*%
X29098000Y5400000D03*
X28098000Y5400000D03*
X27098000Y5400000D03*
X26098000Y5400000D03*
D25*
X30398000Y1525000D03*
X24798000Y1525000D03*
%TD*%
D26*
%TO.C,C1*%
X7425000Y20345000D03*
X4475000Y20345000D03*
%TD*%
D27*
%TO.C,U1*%
X5012500Y16095000D03*
X5012500Y17045000D03*
X5012500Y17995000D03*
X7287500Y17995000D03*
X7287500Y17045000D03*
X7287500Y16095000D03*
%TD*%
D26*
%TO.C,C2*%
X10025000Y13545000D03*
X7075000Y13545000D03*
%TD*%
D28*
%TO.C,C3*%
X9775000Y20345000D03*
X12725000Y20345000D03*
%TD*%
%TO.C,C4*%
X9775000Y23345000D03*
X12725000Y23345000D03*
%TD*%
D29*
%TO.C,L1*%
X9850000Y17045000D03*
X12650000Y17045000D03*
%TD*%
M02*
