%TF.GenerationSoftware,KiCad,Pcbnew,8.0.5*%
%TF.CreationDate,2024-09-27T10:18:34-04:00*%
%TF.ProjectId,BREAD_Slice,42524541-445f-4536-9c69-63652e6b6963,rev?*%
%TF.SameCoordinates,PX74eba40PY8552dc0*%
%TF.FileFunction,Copper,L2,Bot*%
%TF.FilePolarity,Positive*%
%FSLAX46Y46*%
G04 Gerber Fmt 4.6, Leading zero omitted, Abs format (unit mm)*
G04 Created by KiCad (PCBNEW 8.0.5) date 2024-09-27 10:18:34*
%MOMM*%
%LPD*%
G01*
G04 APERTURE LIST*
G04 Aperture macros list*
%AMRoundRect*
0 Rectangle with rounded corners*
0 $1 Rounding radius*
0 $2 $3 $4 $5 $6 $7 $8 $9 X,Y pos of 4 corners*
0 Add a 4 corners polygon primitive as box body*
4,1,4,$2,$3,$4,$5,$6,$7,$8,$9,$2,$3,0*
0 Add four circle primitives for the rounded corners*
1,1,$1+$1,$2,$3*
1,1,$1+$1,$4,$5*
1,1,$1+$1,$6,$7*
1,1,$1+$1,$8,$9*
0 Add four rect primitives between the rounded corners*
20,1,$1+$1,$2,$3,$4,$5,0*
20,1,$1+$1,$4,$5,$6,$7,0*
20,1,$1+$1,$6,$7,$8,$9,0*
20,1,$1+$1,$8,$9,$2,$3,0*%
G04 Aperture macros list end*
%TA.AperFunction,ComponentPad*%
%ADD10R,1.600000X1.600000*%
%TD*%
%TA.AperFunction,ComponentPad*%
%ADD11O,1.600000X1.600000*%
%TD*%
%TA.AperFunction,ComponentPad*%
%ADD12R,1.700000X1.700000*%
%TD*%
%TA.AperFunction,ComponentPad*%
%ADD13O,1.700000X1.700000*%
%TD*%
%TA.AperFunction,ComponentPad*%
%ADD14C,1.600000*%
%TD*%
%TA.AperFunction,ComponentPad*%
%ADD15R,2.000000X1.905000*%
%TD*%
%TA.AperFunction,ComponentPad*%
%ADD16O,2.000000X1.905000*%
%TD*%
%TA.AperFunction,ComponentPad*%
%ADD17R,3.000000X3.000000*%
%TD*%
%TA.AperFunction,ComponentPad*%
%ADD18C,3.000000*%
%TD*%
%TA.AperFunction,ComponentPad*%
%ADD19R,2.200000X2.200000*%
%TD*%
%TA.AperFunction,ComponentPad*%
%ADD20O,2.200000X2.200000*%
%TD*%
%TA.AperFunction,ComponentPad*%
%ADD21C,1.440000*%
%TD*%
%TA.AperFunction,SMDPad,CuDef*%
%ADD22RoundRect,0.150000X0.150000X0.625000X-0.150000X0.625000X-0.150000X-0.625000X0.150000X-0.625000X0*%
%TD*%
%TA.AperFunction,SMDPad,CuDef*%
%ADD23RoundRect,0.250000X0.350000X0.650000X-0.350000X0.650000X-0.350000X-0.650000X0.350000X-0.650000X0*%
%TD*%
%TA.AperFunction,SMDPad,CuDef*%
%ADD24RoundRect,0.250000X0.325000X0.650000X-0.325000X0.650000X-0.325000X-0.650000X0.325000X-0.650000X0*%
%TD*%
%TA.AperFunction,SMDPad,CuDef*%
%ADD25RoundRect,0.150000X-0.512500X-0.150000X0.512500X-0.150000X0.512500X0.150000X-0.512500X0.150000X0*%
%TD*%
%TA.AperFunction,SMDPad,CuDef*%
%ADD26RoundRect,0.250000X-0.325000X-0.650000X0.325000X-0.650000X0.325000X0.650000X-0.325000X0.650000X0*%
%TD*%
%TA.AperFunction,SMDPad,CuDef*%
%ADD27RoundRect,0.250000X-0.375000X-1.075000X0.375000X-1.075000X0.375000X1.075000X-0.375000X1.075000X0*%
%TD*%
%TA.AperFunction,ViaPad*%
%ADD28C,0.800000*%
%TD*%
%TA.AperFunction,ViaPad*%
%ADD29C,0.500000*%
%TD*%
%TA.AperFunction,Conductor*%
%ADD30C,1.500000*%
%TD*%
%TA.AperFunction,Conductor*%
%ADD31C,0.500000*%
%TD*%
%TA.AperFunction,Conductor*%
%ADD32C,1.000000*%
%TD*%
G04 APERTURE END LIST*
D10*
%TO.P,A1,1,D1/TX*%
%TO.N,unconnected-(A1-D1{slash}TX-Pad1)*%
X19988000Y39800000D03*
D11*
%TO.P,A1,2,D0/RX*%
%TO.N,unconnected-(A1-D0{slash}RX-Pad2)*%
X19988000Y37260000D03*
%TO.P,A1,3,~{RESET}*%
%TO.N,unconnected-(A1-~{RESET}-Pad3)*%
X19988000Y34720000D03*
%TO.P,A1,4,GND*%
%TO.N,GND*%
X19988000Y32180000D03*
%TO.P,A1,5,D2*%
%TO.N,/E_STOP*%
X19988000Y29640000D03*
%TO.P,A1,6,D3*%
%TO.N,/INT*%
X19988000Y27100000D03*
%TO.P,A1,7,D4*%
%TO.N,/SYNC*%
X19988000Y24560000D03*
%TO.P,A1,8,D5*%
%TO.N,/LED*%
X19988000Y22020000D03*
%TO.P,A1,9,D6*%
%TO.N,/switching*%
X19988000Y19480000D03*
%TO.P,A1,10,D7*%
%TO.N,unconnected-(A1-D7-Pad10)*%
X19988000Y16940000D03*
%TO.P,A1,11,D8*%
%TO.N,unconnected-(A1-D8-Pad11)*%
X19988000Y14400000D03*
%TO.P,A1,12,D9*%
%TO.N,unconnected-(A1-D9-Pad12)*%
X19988000Y11860000D03*
%TO.P,A1,13,D10*%
%TO.N,unconnected-(A1-D10-Pad13)*%
X19988000Y9320000D03*
%TO.P,A1,14,D11*%
%TO.N,unconnected-(A1-D11-Pad14)*%
X19988000Y6780000D03*
%TO.P,A1,15,D12*%
%TO.N,unconnected-(A1-D12-Pad15)*%
X19988000Y4240000D03*
%TO.P,A1,16,D13*%
%TO.N,unconnected-(A1-D13-Pad16)*%
X35228000Y4240000D03*
%TO.P,A1,17,3V3*%
%TO.N,unconnected-(A1-3V3-Pad17)*%
X35228000Y6780000D03*
%TO.P,A1,18,AREF*%
%TO.N,unconnected-(A1-AREF-Pad18)*%
X35228000Y9320000D03*
%TO.P,A1,19,A0*%
%TO.N,/feedback*%
X35228000Y11860000D03*
%TO.P,A1,20,A1*%
%TO.N,unconnected-(A1-A1-Pad20)*%
X35228000Y14400000D03*
%TO.P,A1,21,A2*%
%TO.N,unconnected-(A1-A2-Pad21)*%
X35228000Y16940000D03*
%TO.P,A1,22,A3*%
%TO.N,unconnected-(A1-A3-Pad22)*%
X35228000Y19480000D03*
%TO.P,A1,23,A4*%
%TO.N,/I2C_DAT*%
X35228000Y22020000D03*
%TO.P,A1,24,A5*%
%TO.N,/I2C_CLK*%
X35228000Y24560000D03*
%TO.P,A1,25,A6*%
%TO.N,unconnected-(A1-A6-Pad25)*%
X35228000Y27100000D03*
%TO.P,A1,26,A7*%
%TO.N,unconnected-(A1-A7-Pad26)*%
X35228000Y29640000D03*
%TO.P,A1,27,+5V*%
%TO.N,+5V*%
X35228000Y32180000D03*
%TO.P,A1,28,~{RESET}*%
%TO.N,unconnected-(A1-~{RESET}-Pad28)*%
X35228000Y34720000D03*
%TO.P,A1,29,GND*%
%TO.N,GND*%
X35228000Y37260000D03*
%TO.P,A1,30,VIN*%
%TO.N,unconnected-(A1-VIN-Pad30)*%
X35228000Y39800000D03*
%TD*%
D12*
%TO.P,J2,1,Pin_1*%
%TO.N,GND*%
X3600000Y61450000D03*
D13*
%TO.P,J2,2,Pin_2*%
%TO.N,+12V*%
X3600000Y58910000D03*
%TO.P,J2,3,Pin_3*%
%TO.N,/I2C_CLK*%
X3600000Y56370000D03*
%TO.P,J2,4,Pin_4*%
%TO.N,/I2C_DAT*%
X3600000Y53830000D03*
%TO.P,J2,5,Pin_5*%
%TO.N,GND*%
X3600000Y51290000D03*
%TO.P,J2,6,Pin_6*%
%TO.N,/E_STOP*%
X3600000Y48750000D03*
%TO.P,J2,7,Pin_7*%
%TO.N,/INT*%
X3600000Y46210000D03*
%TO.P,J2,8,Pin_8*%
%TO.N,/SYNC*%
X3600000Y43670000D03*
%TO.P,J2,9,Pin_9*%
%TO.N,+12V*%
X3600000Y41130000D03*
%TO.P,J2,10,Pin_10*%
%TO.N,GND*%
X3600000Y38590000D03*
%TD*%
D14*
%TO.P,R1,1*%
%TO.N,Net-(C5-Pad1)*%
X44000000Y81220000D03*
D11*
%TO.P,R1,2*%
%TO.N,/feedback*%
X44000000Y65980000D03*
%TD*%
D15*
%TO.P,Q1,1,B*%
%TO.N,/switching*%
X23340000Y48860000D03*
D16*
%TO.P,Q1,2,C*%
%TO.N,Net-(Q1-C)*%
X23340000Y51400000D03*
%TO.P,Q1,3,E*%
%TO.N,Net-(D2-K)*%
X23340000Y53940000D03*
%TD*%
D17*
%TO.P,J3,1*%
%TO.N,GND*%
X63132500Y60532500D03*
D18*
%TO.P,J3,2*%
%TO.N,Net-(Q1-C)*%
X63132500Y55532500D03*
%TD*%
D19*
%TO.P,D2,1,K*%
%TO.N,Net-(D2-K)*%
X13650000Y60550000D03*
D20*
%TO.P,D2,2,A*%
%TO.N,GND*%
X13650000Y50390000D03*
%TD*%
D18*
%TO.P,L2,1,1*%
%TO.N,Net-(D2-K)*%
X10500000Y81300000D03*
%TO.P,L2,2,2*%
%TO.N,Net-(C5-Pad1)*%
X39700000Y81300000D03*
%TD*%
D14*
%TO.P,C5,1*%
%TO.N,Net-(C5-Pad1)*%
X47244000Y84610000D03*
%TO.P,C5,2*%
%TO.N,GND*%
X47244000Y88110000D03*
%TD*%
D21*
%TO.P,RV1,1,1*%
%TO.N,/feedback*%
X52800000Y47500000D03*
%TO.P,RV1,2,2*%
%TO.N,GND*%
X50260000Y44960000D03*
%TO.P,RV1,3,3*%
X47720000Y47500000D03*
%TD*%
D17*
%TO.P,J4,1*%
%TO.N,Net-(C5-Pad1)*%
X63132500Y84532500D03*
D18*
%TO.P,J4,2*%
%TO.N,GND*%
X63132500Y79532500D03*
%TD*%
D22*
%TO.P,J1,1,Pin_1*%
%TO.N,GND*%
X29098000Y5400000D03*
%TO.P,J1,2,Pin_2*%
%TO.N,+5V*%
X28098000Y5400000D03*
%TO.P,J1,3,Pin_3*%
%TO.N,/I2C_DAT*%
X27098000Y5400000D03*
%TO.P,J1,4,Pin_4*%
%TO.N,/I2C_CLK*%
X26098000Y5400000D03*
D23*
%TO.P,J1,MP*%
%TO.N,N/C*%
X30398000Y1525000D03*
X24798000Y1525000D03*
%TD*%
D24*
%TO.P,C1,1*%
%TO.N,GND*%
X7425000Y20345000D03*
%TO.P,C1,2*%
%TO.N,+12V*%
X4475000Y20345000D03*
%TD*%
D25*
%TO.P,U1,1,FB*%
%TO.N,+5V*%
X5012500Y16095000D03*
%TO.P,U1,2,EN*%
%TO.N,+12V*%
X5012500Y17045000D03*
%TO.P,U1,3,VIN*%
X5012500Y17995000D03*
%TO.P,U1,4,GND*%
%TO.N,GND*%
X7287500Y17995000D03*
%TO.P,U1,5,SW*%
%TO.N,Net-(U1-SW)*%
X7287500Y17045000D03*
%TO.P,U1,6,BST*%
%TO.N,Net-(U1-BST)*%
X7287500Y16095000D03*
%TD*%
D24*
%TO.P,C2,1*%
%TO.N,Net-(U1-SW)*%
X10025000Y13545000D03*
%TO.P,C2,2*%
%TO.N,Net-(U1-BST)*%
X7075000Y13545000D03*
%TD*%
D26*
%TO.P,C3,1*%
%TO.N,GND*%
X9775000Y20345000D03*
%TO.P,C3,2*%
%TO.N,+5V*%
X12725000Y20345000D03*
%TD*%
%TO.P,C4,1*%
%TO.N,GND*%
X9775000Y23345000D03*
%TO.P,C4,2*%
%TO.N,+5V*%
X12725000Y23345000D03*
%TD*%
D27*
%TO.P,L1,1*%
%TO.N,Net-(U1-SW)*%
X9850000Y17045000D03*
%TO.P,L1,2*%
%TO.N,+5V*%
X12650000Y17045000D03*
%TD*%
D28*
%TO.N,GND*%
X14250000Y21895000D03*
X3750000Y13345000D03*
D29*
X7250000Y18845000D03*
D28*
X7350000Y23595000D03*
D29*
X8550000Y19545000D03*
X8550000Y21045000D03*
X7450000Y21845000D03*
D28*
X50200000Y2100000D03*
D29*
X9750000Y21845000D03*
D28*
X3550000Y16595000D03*
X14250000Y13995000D03*
X14250000Y18995000D03*
D29*
X8150000Y18845000D03*
X6150000Y16145000D03*
D28*
%TO.N,+5V*%
X28088000Y3249500D03*
%TO.N,/I2C_CLK*%
X25588000Y7200000D03*
X31388000Y24500000D03*
%TO.N,/I2C_DAT*%
X31388000Y22000000D03*
X26781039Y7195083D03*
%TD*%
D30*
%TO.N,Net-(Q1-C)*%
X31072000Y55372000D02*
X27100000Y51400000D01*
X63002000Y55372000D02*
X31072000Y55372000D01*
X27100000Y51400000D02*
X23340000Y51400000D01*
X63180000Y55550000D02*
X63002000Y55372000D01*
%TO.N,Net-(C5-Pad1)*%
X47460000Y84680000D02*
X44000000Y81220000D01*
X50480000Y84680000D02*
X47460000Y84680000D01*
D31*
%TO.N,GND*%
X7287500Y17995000D02*
X6200000Y17995000D01*
X8950000Y21845000D02*
X10650000Y21845000D01*
X8550000Y20345000D02*
X8550000Y19545000D01*
X6200000Y17995000D02*
X6150000Y17945000D01*
X9750000Y21845000D02*
X8950000Y21845000D01*
X6350000Y18845000D02*
X6150000Y18645000D01*
X8400000Y17995000D02*
X8550000Y18145000D01*
X7250000Y18032500D02*
X7287500Y17995000D01*
X7250000Y18845000D02*
X6350000Y18845000D01*
X8550000Y19245000D02*
X8150000Y18845000D01*
X6150000Y17945000D02*
X6150000Y16145000D01*
X8150000Y18845000D02*
X7250000Y18845000D01*
X6150000Y18645000D02*
X6150000Y17945000D01*
X8550000Y18145000D02*
X8550000Y19545000D01*
X8550000Y20345000D02*
X8550000Y21045000D01*
X8550000Y19545000D02*
X8550000Y19245000D01*
X7287500Y17995000D02*
X8400000Y17995000D01*
X7250000Y18845000D02*
X7250000Y18032500D01*
D30*
X7425000Y20345000D02*
X9775000Y20345000D01*
%TO.N,+5V*%
X16256000Y1524000D02*
X21336000Y1524000D01*
X22860000Y9652000D02*
X22860000Y19812000D01*
X35228000Y32180000D02*
X28098000Y25050000D01*
X21336000Y1524000D02*
X22860000Y3048000D01*
D31*
X12650000Y12145000D02*
X6503122Y12145000D01*
D30*
X12725000Y23345000D02*
X12700000Y23320000D01*
D31*
X26924000Y9652000D02*
X22860000Y9652000D01*
X5012500Y13635622D02*
X5012500Y16095000D01*
D30*
X12700000Y20320000D02*
X12700000Y17095000D01*
X22860000Y3048000D02*
X22860000Y9652000D01*
D31*
X28098000Y5400000D02*
X28098000Y8478000D01*
D30*
X12650000Y12145000D02*
X12650000Y5130000D01*
D31*
X28098000Y3259500D02*
X28098000Y5400000D01*
D30*
X12700000Y23320000D02*
X12700000Y20370000D01*
X12650000Y12145000D02*
X12650000Y17045000D01*
X22860000Y19812000D02*
X28098000Y25050000D01*
D31*
X28088000Y3249500D02*
X28098000Y3259500D01*
X6503122Y12145000D02*
X5012500Y13635622D01*
D32*
X12725000Y17120000D02*
X12650000Y17045000D01*
D31*
X35408000Y32000000D02*
X35228000Y32180000D01*
D30*
X12725000Y20345000D02*
X12700000Y20320000D01*
X12700000Y17095000D02*
X12650000Y17045000D01*
X12700000Y20370000D02*
X12725000Y20345000D01*
D31*
X28098000Y8478000D02*
X26924000Y9652000D01*
D30*
X12650000Y5130000D02*
X16256000Y1524000D01*
D31*
%TO.N,/I2C_CLK*%
X35168000Y24500000D02*
X35228000Y24560000D01*
X25588000Y7200000D02*
X26098000Y6690000D01*
X26098000Y6690000D02*
X26098000Y5400000D01*
X31388000Y24500000D02*
X35168000Y24500000D01*
%TO.N,/I2C_DAT*%
X35208000Y22000000D02*
X35228000Y22020000D01*
X26781039Y7195083D02*
X27098000Y6878122D01*
X31388000Y22000000D02*
X35208000Y22000000D01*
X27098000Y6878122D02*
X27098000Y5400000D01*
D30*
%TO.N,+12V*%
X1524000Y40256081D02*
X1524000Y35052000D01*
X2397919Y41130000D02*
X1524000Y40256081D01*
D32*
X4110000Y58910000D02*
X3600000Y58910000D01*
X5012500Y17995000D02*
X5012500Y17095000D01*
D30*
X3600000Y41130000D02*
X2397919Y41130000D01*
D32*
X4475000Y18532500D02*
X5012500Y17995000D01*
X4475000Y20345000D02*
X4475000Y18532500D01*
D30*
X1524000Y35052000D02*
X4475000Y32101000D01*
X4475000Y32101000D02*
X4475000Y20345000D01*
D31*
%TO.N,/feedback*%
X52800000Y35200000D02*
X52800000Y47500000D01*
X35228000Y11860000D02*
X33978000Y13110000D01*
X33978000Y13110000D02*
X33978000Y17457767D01*
D30*
X66990000Y64360000D02*
X66990000Y52930000D01*
X44020000Y66000000D02*
X65350000Y66000000D01*
X66990000Y52930000D02*
X65060000Y51000000D01*
D31*
X33978000Y17457767D02*
X34710233Y18190000D01*
D30*
X65350000Y66000000D02*
X66990000Y64360000D01*
X44000000Y65980000D02*
X44020000Y66000000D01*
X54400000Y51000000D02*
X52800000Y49400000D01*
D31*
X35790000Y18190000D02*
X52800000Y35200000D01*
D30*
X52800000Y49400000D02*
X52800000Y47500000D01*
D31*
X34710233Y18190000D02*
X35790000Y18190000D01*
D30*
X65060000Y51000000D02*
X54400000Y51000000D01*
D31*
%TO.N,unconnected-(A1-D12-Pad15)*%
X19988000Y4420100D02*
X19988000Y4240000D01*
%TO.N,/switching*%
X26400000Y25892000D02*
X19988000Y19480000D01*
X23340000Y48860000D02*
X26400000Y45800000D01*
X26400000Y45800000D02*
X26400000Y25892000D01*
D32*
%TO.N,Net-(U1-SW)*%
X9850000Y13720000D02*
X10025000Y13545000D01*
X9850000Y17045000D02*
X8206238Y17045000D01*
X9850000Y17045000D02*
X9850000Y13720000D01*
D31*
%TO.N,Net-(U1-BST)*%
X7075000Y15882500D02*
X7287500Y16095000D01*
X7075000Y13545000D02*
X7075000Y15882500D01*
D30*
%TO.N,unconnected-(A1-VIN-Pad30)*%
X35245000Y39783000D02*
X35228000Y39800000D01*
%TO.N,Net-(C5-Pad1)*%
X44000000Y81220000D02*
X39780000Y81220000D01*
X63180000Y84680000D02*
X50480000Y84680000D01*
X39780000Y81220000D02*
X39700000Y81300000D01*
%TO.N,Net-(D2-K)*%
X13652540Y60550000D02*
X16730000Y60550000D01*
X13652540Y78147460D02*
X13652540Y60550000D01*
X16730000Y60550000D02*
X23340000Y53940000D01*
X10500000Y81300000D02*
X13652540Y78147460D01*
%TD*%
%TA.AperFunction,Conductor*%
%TO.N,GND*%
G36*
X2280703Y32526377D02*
G01*
X2287181Y32520345D01*
X3188181Y31619345D01*
X3221666Y31558022D01*
X3224500Y31531664D01*
X3224500Y20246578D01*
X3255290Y20052174D01*
X3316116Y19864975D01*
X3316119Y19864968D01*
X3385985Y19727847D01*
X3399500Y19671557D01*
X3399500Y19645000D01*
X3399501Y19644982D01*
X3410001Y19542203D01*
X3410001Y19542201D01*
X3430613Y19480000D01*
X3465116Y19375876D01*
X3467458Y19368810D01*
X3465631Y19368205D01*
X3474500Y19328202D01*
X3474500Y18433956D01*
X3512947Y18240672D01*
X3512949Y18240664D01*
X3528184Y18203884D01*
X3528184Y18203883D01*
X3588364Y18058593D01*
X3588371Y18058580D01*
X3697860Y17894719D01*
X3697863Y17894715D01*
X3830811Y17761767D01*
X3862206Y17708682D01*
X3898254Y17584606D01*
X3898255Y17584604D01*
X3898256Y17584602D01*
X3899133Y17583119D01*
X3899466Y17581805D01*
X3901353Y17577446D01*
X3900649Y17577142D01*
X3916315Y17515396D01*
X3900861Y17462767D01*
X3901353Y17462554D01*
X3899630Y17458574D01*
X3899133Y17456882D01*
X3898506Y17455823D01*
X3898254Y17455395D01*
X3898254Y17455394D01*
X3852402Y17297574D01*
X3852401Y17297568D01*
X3849500Y17260702D01*
X3849500Y16829299D01*
X3852401Y16792433D01*
X3852402Y16792427D01*
X3898254Y16634607D01*
X3898254Y16634606D01*
X3898255Y16634604D01*
X3898256Y16634602D01*
X3899133Y16633119D01*
X3899466Y16631805D01*
X3901353Y16627446D01*
X3900649Y16627142D01*
X3916315Y16565396D01*
X3900861Y16512767D01*
X3901353Y16512554D01*
X3899630Y16508574D01*
X3899133Y16506882D01*
X3898506Y16505823D01*
X3898254Y16505395D01*
X3898254Y16505394D01*
X3852402Y16347574D01*
X3852401Y16347568D01*
X3849500Y16310702D01*
X3849500Y15879299D01*
X3852401Y15842433D01*
X3852402Y15842427D01*
X3898254Y15684607D01*
X3898255Y15684604D01*
X3898256Y15684602D01*
X3918324Y15650669D01*
X3981732Y15543450D01*
X3981918Y15543136D01*
X3981923Y15543130D01*
X4098129Y15426924D01*
X4098133Y15426921D01*
X4098135Y15426919D01*
X4098138Y15426918D01*
X4098141Y15426915D01*
X4201120Y15366014D01*
X4248804Y15314946D01*
X4262000Y15259282D01*
X4262000Y13561704D01*
X4262000Y13561702D01*
X4261999Y13561702D01*
X4290840Y13416718D01*
X4290842Y13416709D01*
X4347414Y13280130D01*
X4347415Y13280128D01*
X4347416Y13280127D01*
X4372636Y13242382D01*
X4380312Y13230895D01*
X4380313Y13230892D01*
X4429546Y13157208D01*
X4429552Y13157201D01*
X6024706Y11562048D01*
X6024708Y11562046D01*
X6054180Y11542355D01*
X6098392Y11512814D01*
X6147627Y11479916D01*
X6147628Y11479916D01*
X6147629Y11479915D01*
X6147631Y11479914D01*
X6284204Y11423344D01*
X6284209Y11423342D01*
X6284213Y11423342D01*
X6284214Y11423341D01*
X6429201Y11394500D01*
X6429204Y11394500D01*
X6429205Y11394500D01*
X6577040Y11394500D01*
X11275500Y11394500D01*
X11342539Y11374815D01*
X11388294Y11322011D01*
X11399500Y11270500D01*
X11399500Y5031578D01*
X11430290Y4837174D01*
X11491117Y4649970D01*
X11560089Y4514607D01*
X11580476Y4474595D01*
X11696172Y4315354D01*
X15441354Y570172D01*
X15600595Y454476D01*
X15683454Y412258D01*
X15775969Y365118D01*
X15775971Y365118D01*
X15775974Y365116D01*
X15876318Y332513D01*
X15963173Y304291D01*
X16157579Y273500D01*
X16162433Y273118D01*
X16227723Y248238D01*
X16269197Y192009D01*
X16273687Y122284D01*
X16239769Y61199D01*
X16178210Y28150D01*
X16152711Y25500D01*
X10543500Y25500D01*
X10476461Y45185D01*
X10430706Y97989D01*
X10419500Y149500D01*
X10419500Y2047017D01*
X10419500Y2047018D01*
X10408006Y2074767D01*
X10386767Y2096006D01*
X10359018Y2107500D01*
X10359017Y2107500D01*
X9343500Y2107500D01*
X9276461Y2127185D01*
X9230706Y2179989D01*
X9219500Y2231500D01*
X9219500Y5057007D01*
X9219499Y5057021D01*
X9219499Y5234290D01*
X9182170Y5637141D01*
X9182170Y5637142D01*
X9179873Y5649432D01*
X9107827Y6034843D01*
X8997108Y6423981D01*
X8850955Y6801244D01*
X8670617Y7163412D01*
X8457632Y7507395D01*
X8213816Y7830260D01*
X7941250Y8129250D01*
X7642260Y8401816D01*
X7642257Y8401818D01*
X7642254Y8401821D01*
X7347377Y8624501D01*
X7319395Y8645632D01*
X6975412Y8858617D01*
X6613244Y9038955D01*
X6235981Y9185108D01*
X6235967Y9185112D01*
X6235964Y9185113D01*
X5846850Y9295825D01*
X5846850Y9295826D01*
X5449140Y9370171D01*
X5123842Y9400313D01*
X5046292Y9407499D01*
X4844000Y9407499D01*
X4819469Y9407499D01*
X4808022Y9399182D01*
X4742216Y9375702D01*
X4735136Y9375500D01*
X2199500Y9375500D01*
X2132461Y9395185D01*
X2086706Y9447989D01*
X2075500Y9499500D01*
X2075500Y32432664D01*
X2095185Y32499703D01*
X2147989Y32545458D01*
X2217147Y32555402D01*
X2280703Y32526377D01*
G37*
%TD.AperFunction*%
%TA.AperFunction,Conductor*%
G36*
X61527304Y97904815D02*
G01*
X61573059Y97852011D01*
X61583003Y97782853D01*
X61556774Y97722642D01*
X61459397Y97601939D01*
X61459378Y97601913D01*
X61239476Y97272536D01*
X61239467Y97272521D01*
X61050125Y96924693D01*
X61050118Y96924679D01*
X60892857Y96561195D01*
X60892855Y96561191D01*
X60768960Y96185014D01*
X60768959Y96185011D01*
X60679445Y95799225D01*
X60679441Y95799203D01*
X60625030Y95406925D01*
X60625028Y95406904D01*
X60606161Y95011323D01*
X60606161Y95011298D01*
X60622991Y94615620D01*
X60622991Y94615614D01*
X60675291Y94223751D01*
X60675385Y94223048D01*
X60738216Y93945778D01*
X60762915Y93836786D01*
X60884870Y93459979D01*
X60884871Y93459976D01*
X61031177Y93116979D01*
X61040260Y93095685D01*
X61040265Y93095676D01*
X61227822Y92746863D01*
X61446037Y92416339D01*
X61617341Y92201746D01*
X61693119Y92106819D01*
X61733776Y92064372D01*
X61967075Y91820799D01*
X61967082Y91820793D01*
X62265658Y91560621D01*
X62265675Y91560607D01*
X62586470Y91328375D01*
X62586477Y91328371D01*
X62586481Y91328368D01*
X62756671Y91227127D01*
X62777757Y91214590D01*
X62826612Y91219092D01*
X62826612Y91219093D01*
X62846168Y91220894D01*
X62846187Y91220687D01*
X62864720Y91224501D01*
X69800500Y91224501D01*
X69867539Y91204816D01*
X69913294Y91152012D01*
X69924500Y91100501D01*
X69924500Y8899502D01*
X69904815Y8832463D01*
X69852011Y8786708D01*
X69800500Y8775502D01*
X62859941Y8775502D01*
X62847935Y8777969D01*
X62847788Y8776364D01*
X62779375Y8782658D01*
X62758279Y8770110D01*
X62758278Y8770111D01*
X62588203Y8668908D01*
X62588194Y8668902D01*
X62267586Y8436756D01*
X62267580Y8436752D01*
X62267576Y8436748D01*
X61969148Y8176675D01*
X61969145Y8176672D01*
X61695335Y7890796D01*
X61448366Y7581435D01*
X61230242Y7251101D01*
X61230233Y7251085D01*
X61042737Y6902483D01*
X60887363Y6538388D01*
X60765396Y6161805D01*
X60677813Y5775758D01*
X60625335Y5383423D01*
X60625332Y5383390D01*
X60608378Y4987928D01*
X60608379Y4987902D01*
X60627087Y4592510D01*
X60681304Y4200410D01*
X60681306Y4200398D01*
X60681307Y4200393D01*
X60690995Y4158550D01*
X60770594Y3814760D01*
X60770601Y3814737D01*
X60894230Y3438719D01*
X60894236Y3438704D01*
X60894238Y3438698D01*
X61051220Y3075305D01*
X61051222Y3075302D01*
X61051222Y3075301D01*
X61093700Y2997156D01*
X61226275Y2753265D01*
X61240274Y2727513D01*
X61459852Y2398161D01*
X61459856Y2398155D01*
X61459858Y2398153D01*
X61551750Y2284087D01*
X61557224Y2277293D01*
X61583952Y2212738D01*
X61571537Y2143980D01*
X61523919Y2092850D01*
X61460661Y2075501D01*
X54984982Y2075501D01*
X54957231Y2064006D01*
X54935995Y2042770D01*
X54935994Y2042769D01*
X54935994Y2042768D01*
X54932498Y2034328D01*
X54924500Y2015019D01*
X54924500Y199501D01*
X54904815Y132462D01*
X54852011Y86707D01*
X54800500Y75501D01*
X37072982Y75501D01*
X37045231Y64006D01*
X37043045Y61819D01*
X37037103Y58575D01*
X37035079Y57222D01*
X37034957Y57404D01*
X36981722Y28334D01*
X36955364Y25500D01*
X31237574Y25500D01*
X31170535Y45185D01*
X31124780Y97989D01*
X31114836Y167147D01*
X31143861Y230703D01*
X31172478Y255039D01*
X31216656Y282288D01*
X31340712Y406344D01*
X31432814Y555666D01*
X31487999Y722203D01*
X31498500Y824991D01*
X31498499Y2225008D01*
X31487999Y2327797D01*
X31432814Y2494334D01*
X31340712Y2643656D01*
X31216656Y2767712D01*
X31123888Y2824931D01*
X31067336Y2859813D01*
X31067331Y2859815D01*
X31065862Y2860302D01*
X30900797Y2914999D01*
X30900795Y2915000D01*
X30798010Y2925500D01*
X29997998Y2925500D01*
X29997980Y2925499D01*
X29895203Y2915000D01*
X29895200Y2914999D01*
X29728668Y2859815D01*
X29728663Y2859813D01*
X29579342Y2767711D01*
X29455289Y2643658D01*
X29363187Y2494337D01*
X29363185Y2494332D01*
X29340318Y2425322D01*
X29308001Y2327797D01*
X29308001Y2327796D01*
X29308000Y2327796D01*
X29297500Y2225017D01*
X29297500Y824999D01*
X29297501Y824982D01*
X29308000Y722204D01*
X29308001Y722201D01*
X29340940Y622800D01*
X29363186Y555666D01*
X29432910Y442624D01*
X29455289Y406343D01*
X29579344Y282288D01*
X29623522Y255039D01*
X29670247Y203091D01*
X29681470Y134129D01*
X29653627Y70047D01*
X29595558Y31190D01*
X29558426Y25500D01*
X25637574Y25500D01*
X25570535Y45185D01*
X25524780Y97989D01*
X25514836Y167147D01*
X25543861Y230703D01*
X25572478Y255039D01*
X25616656Y282288D01*
X25740712Y406344D01*
X25832814Y555666D01*
X25887999Y722203D01*
X25898500Y824991D01*
X25898499Y2225008D01*
X25887999Y2327797D01*
X25832814Y2494334D01*
X25740712Y2643656D01*
X25616656Y2767712D01*
X25523888Y2824931D01*
X25467336Y2859813D01*
X25467331Y2859815D01*
X25465862Y2860302D01*
X25300797Y2914999D01*
X25300795Y2915000D01*
X25198010Y2925500D01*
X24397998Y2925500D01*
X24397980Y2925499D01*
X24295203Y2915000D01*
X24295200Y2914999D01*
X24273504Y2907809D01*
X24203675Y2905407D01*
X24143634Y2941139D01*
X24112441Y3003660D01*
X24110500Y3025515D01*
X24110500Y8777500D01*
X24130185Y8844539D01*
X24182989Y8890294D01*
X24234500Y8901500D01*
X26561770Y8901500D01*
X26628809Y8881815D01*
X26649451Y8865181D01*
X27304383Y8210249D01*
X27337868Y8148926D01*
X27332884Y8079234D01*
X27291012Y8023301D01*
X27225548Y7998884D01*
X27166266Y8009289D01*
X27060846Y8056226D01*
X27060841Y8056228D01*
X26886609Y8093261D01*
X26875685Y8095583D01*
X26686393Y8095583D01*
X26675469Y8093261D01*
X26501236Y8056228D01*
X26501231Y8056226D01*
X26328309Y7979235D01*
X26328304Y7979232D01*
X26260788Y7930178D01*
X26194982Y7906698D01*
X26126928Y7922524D01*
X26115023Y7930174D01*
X26065130Y7966424D01*
X26040729Y7984152D01*
X25867807Y8061143D01*
X25867802Y8061145D01*
X25716703Y8093261D01*
X25682646Y8100500D01*
X25493354Y8100500D01*
X25470221Y8095583D01*
X25308197Y8061145D01*
X25308192Y8061143D01*
X25135270Y7984152D01*
X25135265Y7984149D01*
X24982129Y7872889D01*
X24855466Y7732215D01*
X24760821Y7568285D01*
X24760818Y7568278D01*
X24702327Y7388260D01*
X24702326Y7388256D01*
X24682540Y7200000D01*
X24702326Y7011744D01*
X24702327Y7011741D01*
X24760818Y6831723D01*
X24760821Y6831716D01*
X24855467Y6667784D01*
X24959148Y6552635D01*
X24982129Y6527112D01*
X25135265Y6415852D01*
X25135266Y6415852D01*
X25135270Y6415849D01*
X25256829Y6361727D01*
X25310066Y6316477D01*
X25330387Y6249628D01*
X25325470Y6213854D01*
X25300401Y6127568D01*
X25297500Y6090702D01*
X25297500Y4709299D01*
X25300401Y4672433D01*
X25300402Y4672427D01*
X25346254Y4514607D01*
X25346255Y4514604D01*
X25429917Y4373138D01*
X25429923Y4373130D01*
X25546129Y4256924D01*
X25546133Y4256921D01*
X25546135Y4256919D01*
X25687602Y4173256D01*
X25729224Y4161164D01*
X25845426Y4127403D01*
X25845429Y4127403D01*
X25845431Y4127402D01*
X25882306Y4124500D01*
X25882314Y4124500D01*
X26313686Y4124500D01*
X26313694Y4124500D01*
X26350569Y4127402D01*
X26350571Y4127403D01*
X26350573Y4127403D01*
X26392191Y4139495D01*
X26508398Y4173256D01*
X26530471Y4186310D01*
X26534878Y4188916D01*
X26602601Y4206100D01*
X26661122Y4188916D01*
X26687598Y4173258D01*
X26687599Y4173258D01*
X26687602Y4173256D01*
X26729224Y4161164D01*
X26845426Y4127403D01*
X26845429Y4127403D01*
X26845431Y4127402D01*
X26882306Y4124500D01*
X26882314Y4124500D01*
X27223500Y4124500D01*
X27290539Y4104815D01*
X27336294Y4052011D01*
X27347500Y4000500D01*
X27347500Y3801143D01*
X27330888Y3739144D01*
X27260820Y3617782D01*
X27260818Y3617778D01*
X27202639Y3438719D01*
X27202326Y3437756D01*
X27182540Y3249500D01*
X27202326Y3061244D01*
X27202327Y3061241D01*
X27260818Y2881223D01*
X27260821Y2881216D01*
X27355467Y2717284D01*
X27427738Y2637019D01*
X27482129Y2576612D01*
X27635265Y2465352D01*
X27635270Y2465349D01*
X27808192Y2388358D01*
X27808197Y2388356D01*
X27993354Y2349000D01*
X27993355Y2349000D01*
X28182644Y2349000D01*
X28182646Y2349000D01*
X28367803Y2388356D01*
X28540730Y2465349D01*
X28693871Y2576612D01*
X28820533Y2717284D01*
X28915179Y2881216D01*
X28973674Y3061244D01*
X28993460Y3249500D01*
X28973674Y3437756D01*
X28915179Y3617784D01*
X28865111Y3704504D01*
X28848500Y3766502D01*
X28848500Y4127705D01*
X29348000Y4127705D01*
X29348001Y4127705D01*
X29350486Y4127900D01*
X29508198Y4173719D01*
X29649552Y4257315D01*
X29649561Y4257322D01*
X29765678Y4373439D01*
X29765685Y4373448D01*
X29849282Y4514804D01*
X29849283Y4514807D01*
X29895099Y4672505D01*
X29895100Y4672511D01*
X29897999Y4709351D01*
X29898000Y4709366D01*
X29898000Y5150000D01*
X29348000Y5150000D01*
X29348000Y4127705D01*
X28848500Y4127705D01*
X28848500Y4492672D01*
X28853424Y4527267D01*
X28895597Y4672427D01*
X28895598Y4672433D01*
X28898499Y4709299D01*
X28898500Y4709306D01*
X28898500Y5650000D01*
X29348000Y5650000D01*
X29898000Y5650000D01*
X29898000Y6090635D01*
X29897999Y6090650D01*
X29895100Y6127490D01*
X29895099Y6127496D01*
X29849283Y6285194D01*
X29849282Y6285197D01*
X29765685Y6426553D01*
X29765678Y6426562D01*
X29649561Y6542679D01*
X29649552Y6542686D01*
X29508196Y6626283D01*
X29508193Y6626284D01*
X29350494Y6672100D01*
X29350497Y6672100D01*
X29348000Y6672297D01*
X29348000Y5650000D01*
X28898500Y5650000D01*
X28898500Y6090694D01*
X28895598Y6127569D01*
X28895597Y6127574D01*
X28853424Y6272735D01*
X28848500Y6307330D01*
X28848500Y8551921D01*
X28831776Y8635993D01*
X28831776Y8635998D01*
X28823661Y8676790D01*
X28819659Y8696912D01*
X28765408Y8827883D01*
X28763765Y8832475D01*
X28763084Y8833495D01*
X28717645Y8901500D01*
X28717645Y8901501D01*
X28680950Y8956419D01*
X27402421Y10234948D01*
X27402414Y10234954D01*
X27328729Y10284188D01*
X27328729Y10284187D01*
X27279491Y10317087D01*
X27142917Y10373657D01*
X27142907Y10373660D01*
X26997920Y10402500D01*
X26997918Y10402500D01*
X24234500Y10402500D01*
X24167461Y10422185D01*
X24121706Y10474989D01*
X24110500Y10526500D01*
X24110500Y19242664D01*
X24130185Y19309703D01*
X24146819Y19330345D01*
X29051829Y24235355D01*
X30216974Y25400500D01*
X33878813Y29062341D01*
X33940134Y29095824D01*
X34009826Y29090840D01*
X34065759Y29048968D01*
X34078873Y29027066D01*
X34097432Y28987266D01*
X34097433Y28987265D01*
X34227954Y28800859D01*
X34388858Y28639955D01*
X34388861Y28639953D01*
X34575266Y28509432D01*
X34633275Y28482382D01*
X34685714Y28436209D01*
X34704866Y28369016D01*
X34684650Y28302135D01*
X34633275Y28257618D01*
X34575267Y28230569D01*
X34575265Y28230568D01*
X34388858Y28100046D01*
X34227954Y27939142D01*
X34097432Y27752735D01*
X34097431Y27752733D01*
X34001261Y27546498D01*
X34001258Y27546489D01*
X33942366Y27326698D01*
X33942364Y27326687D01*
X33922532Y27100002D01*
X33922532Y27099999D01*
X33942364Y26873314D01*
X33942366Y26873303D01*
X34001258Y26653512D01*
X34001261Y26653503D01*
X34097431Y26447268D01*
X34097432Y26447266D01*
X34227954Y26260859D01*
X34388858Y26099955D01*
X34388861Y26099953D01*
X34575266Y25969432D01*
X34633275Y25942382D01*
X34685714Y25896209D01*
X34704866Y25829016D01*
X34684650Y25762135D01*
X34633275Y25717618D01*
X34575267Y25690569D01*
X34575265Y25690568D01*
X34388858Y25560046D01*
X34227954Y25399142D01*
X34160900Y25303377D01*
X34106323Y25259752D01*
X34059325Y25250500D01*
X31927337Y25250500D01*
X31860298Y25270185D01*
X31854452Y25274182D01*
X31840734Y25284149D01*
X31840729Y25284152D01*
X31667807Y25361143D01*
X31667802Y25361145D01*
X31522001Y25392135D01*
X31482646Y25400500D01*
X31293354Y25400500D01*
X31260897Y25393602D01*
X31108197Y25361145D01*
X31108192Y25361143D01*
X30935270Y25284152D01*
X30935265Y25284149D01*
X30782129Y25172889D01*
X30655466Y25032215D01*
X30560821Y24868285D01*
X30560818Y24868278D01*
X30502327Y24688260D01*
X30502326Y24688256D01*
X30482540Y24500000D01*
X30502326Y24311744D01*
X30502327Y24311741D01*
X30560818Y24131723D01*
X30560821Y24131716D01*
X30655467Y23967784D01*
X30709956Y23907268D01*
X30782129Y23827112D01*
X30935265Y23715852D01*
X30935270Y23715849D01*
X31108192Y23638858D01*
X31108197Y23638856D01*
X31293354Y23599500D01*
X31293355Y23599500D01*
X31482644Y23599500D01*
X31482646Y23599500D01*
X31667803Y23638856D01*
X31840730Y23715849D01*
X31847626Y23720859D01*
X31854452Y23725818D01*
X31920258Y23749298D01*
X31927337Y23749500D01*
X34147951Y23749500D01*
X34214990Y23729815D01*
X34235632Y23713181D01*
X34388858Y23559955D01*
X34388861Y23559953D01*
X34575266Y23429432D01*
X34598888Y23418417D01*
X34633275Y23402382D01*
X34685714Y23356209D01*
X34704866Y23289016D01*
X34684650Y23222135D01*
X34633275Y23177618D01*
X34575267Y23150569D01*
X34575265Y23150568D01*
X34388858Y23020046D01*
X34227954Y22859142D01*
X34188908Y22803377D01*
X34134331Y22759752D01*
X34087333Y22750500D01*
X31927337Y22750500D01*
X31860298Y22770185D01*
X31854452Y22774182D01*
X31840734Y22784149D01*
X31840729Y22784152D01*
X31667807Y22861143D01*
X31667802Y22861145D01*
X31522001Y22892135D01*
X31482646Y22900500D01*
X31293354Y22900500D01*
X31260897Y22893602D01*
X31108197Y22861145D01*
X31108192Y22861143D01*
X30935270Y22784152D01*
X30935265Y22784149D01*
X30782129Y22672889D01*
X30655466Y22532215D01*
X30560821Y22368285D01*
X30560818Y22368278D01*
X30502327Y22188260D01*
X30502326Y22188256D01*
X30482540Y22000000D01*
X30502326Y21811744D01*
X30502327Y21811741D01*
X30560818Y21631723D01*
X30560821Y21631716D01*
X30655467Y21467784D01*
X30745974Y21367266D01*
X30782129Y21327112D01*
X30935265Y21215852D01*
X30935270Y21215849D01*
X31108192Y21138858D01*
X31108197Y21138856D01*
X31293354Y21099500D01*
X31293355Y21099500D01*
X31482644Y21099500D01*
X31482646Y21099500D01*
X31667803Y21138856D01*
X31840730Y21215849D01*
X31842776Y21217336D01*
X31854452Y21225818D01*
X31920258Y21249298D01*
X31927337Y21249500D01*
X34115341Y21249500D01*
X34182380Y21229815D01*
X34216916Y21196623D01*
X34227954Y21180859D01*
X34388858Y21019955D01*
X34388861Y21019953D01*
X34575266Y20889432D01*
X34633275Y20862382D01*
X34685714Y20816209D01*
X34704866Y20749016D01*
X34684650Y20682135D01*
X34633275Y20637618D01*
X34575267Y20610569D01*
X34575265Y20610568D01*
X34388858Y20480046D01*
X34227954Y20319142D01*
X34097432Y20132735D01*
X34097431Y20132733D01*
X34001261Y19926498D01*
X34001258Y19926489D01*
X33942366Y19706698D01*
X33942364Y19706687D01*
X33922532Y19480002D01*
X33922532Y19479999D01*
X33942364Y19253314D01*
X33942366Y19253303D01*
X34001258Y19033512D01*
X34001261Y19033503D01*
X34077272Y18870499D01*
X34097432Y18827266D01*
X34113151Y18804816D01*
X34115466Y18801511D01*
X34137793Y18735305D01*
X34120781Y18667538D01*
X34101571Y18642708D01*
X33395047Y17936183D01*
X33395045Y17936181D01*
X33367345Y17894721D01*
X33367343Y17894718D01*
X33312914Y17813260D01*
X33256343Y17676685D01*
X33256340Y17676675D01*
X33227500Y17531688D01*
X33227500Y17531685D01*
X33227500Y13036082D01*
X33227500Y13036080D01*
X33227499Y13036080D01*
X33256340Y12891093D01*
X33256342Y12891087D01*
X33312917Y12754503D01*
X33318178Y12746630D01*
X33318179Y12746627D01*
X33395046Y12631586D01*
X33395052Y12631579D01*
X33901282Y12125350D01*
X33934767Y12064027D01*
X33937129Y12026863D01*
X33922532Y11860004D01*
X33922532Y11859999D01*
X33942364Y11633314D01*
X33942366Y11633303D01*
X34001258Y11413512D01*
X34001261Y11413503D01*
X34097431Y11207268D01*
X34097432Y11207266D01*
X34227954Y11020859D01*
X34388858Y10859955D01*
X34388861Y10859953D01*
X34575266Y10729432D01*
X34633275Y10702382D01*
X34685714Y10656209D01*
X34704866Y10589016D01*
X34684650Y10522135D01*
X34633275Y10477618D01*
X34575267Y10450569D01*
X34575265Y10450568D01*
X34388858Y10320046D01*
X34227954Y10159142D01*
X34097432Y9972735D01*
X34097431Y9972733D01*
X34001261Y9766498D01*
X34001258Y9766489D01*
X33942366Y9546698D01*
X33942364Y9546687D01*
X33922532Y9320002D01*
X33922532Y9319999D01*
X33942364Y9093314D01*
X33942366Y9093303D01*
X34001258Y8873512D01*
X34001261Y8873503D01*
X34097431Y8667268D01*
X34097432Y8667266D01*
X34227954Y8480859D01*
X34388858Y8319955D01*
X34388861Y8319953D01*
X34575266Y8189432D01*
X34633275Y8162382D01*
X34685714Y8116209D01*
X34704866Y8049016D01*
X34684650Y7982135D01*
X34633275Y7937618D01*
X34575267Y7910569D01*
X34575265Y7910568D01*
X34388858Y7780046D01*
X34227954Y7619142D01*
X34097432Y7432735D01*
X34097431Y7432733D01*
X34001261Y7226498D01*
X34001258Y7226489D01*
X33942366Y7006698D01*
X33942364Y7006687D01*
X33922532Y6780002D01*
X33922532Y6779999D01*
X33942364Y6553314D01*
X33942366Y6553303D01*
X34001258Y6333512D01*
X34001261Y6333503D01*
X34097431Y6127268D01*
X34097432Y6127266D01*
X34227954Y5940859D01*
X34388858Y5779955D01*
X34394852Y5775758D01*
X34575266Y5649432D01*
X34633275Y5622382D01*
X34685714Y5576209D01*
X34704866Y5509016D01*
X34684650Y5442135D01*
X34633275Y5397618D01*
X34575267Y5370569D01*
X34575265Y5370568D01*
X34388858Y5240046D01*
X34227954Y5079142D01*
X34097432Y4892735D01*
X34097431Y4892733D01*
X34001261Y4686498D01*
X34001258Y4686489D01*
X33942366Y4466698D01*
X33942364Y4466687D01*
X33922532Y4240002D01*
X33922532Y4239999D01*
X33942364Y4013314D01*
X33942366Y4013303D01*
X34001258Y3793512D01*
X34001261Y3793503D01*
X34097431Y3587268D01*
X34097432Y3587266D01*
X34227954Y3400859D01*
X34388858Y3239955D01*
X34388861Y3239953D01*
X34575266Y3109432D01*
X34781504Y3013261D01*
X34781509Y3013260D01*
X34781511Y3013259D01*
X34824404Y3001766D01*
X35001308Y2954365D01*
X35152482Y2941139D01*
X35227998Y2934532D01*
X35228000Y2934532D01*
X35228002Y2934532D01*
X35303518Y2941139D01*
X35454692Y2954365D01*
X35674496Y3013261D01*
X35880734Y3109432D01*
X36067139Y3239953D01*
X36228047Y3400861D01*
X36358568Y3587266D01*
X36454739Y3793504D01*
X36513635Y4013308D01*
X36533237Y4237364D01*
X36533468Y4239999D01*
X36533468Y4240002D01*
X36526875Y4315354D01*
X36513635Y4466692D01*
X36454739Y4686496D01*
X36358568Y4892734D01*
X36228047Y5079139D01*
X36228045Y5079142D01*
X36067141Y5240046D01*
X35880734Y5370568D01*
X35880728Y5370571D01*
X35822725Y5397618D01*
X35770285Y5443790D01*
X35751133Y5510983D01*
X35771348Y5577865D01*
X35822725Y5622382D01*
X35880734Y5649432D01*
X36067139Y5779953D01*
X36228047Y5940861D01*
X36358568Y6127266D01*
X36454739Y6333504D01*
X36513635Y6553308D01*
X36533468Y6780000D01*
X36531609Y6801244D01*
X36513635Y7006687D01*
X36513635Y7006692D01*
X36454739Y7226496D01*
X36358568Y7432734D01*
X36228047Y7619139D01*
X36228045Y7619142D01*
X36067141Y7780046D01*
X35880734Y7910568D01*
X35880728Y7910571D01*
X35822725Y7937618D01*
X35770285Y7983790D01*
X35751133Y8050983D01*
X35771348Y8117865D01*
X35822725Y8162382D01*
X35880734Y8189432D01*
X36067139Y8319953D01*
X36228047Y8480861D01*
X36358568Y8667266D01*
X36454739Y8873504D01*
X36513635Y9093308D01*
X36533468Y9320000D01*
X36513635Y9546692D01*
X36454739Y9766496D01*
X36358568Y9972734D01*
X36228047Y10159139D01*
X36228045Y10159142D01*
X36067141Y10320046D01*
X35880734Y10450568D01*
X35880728Y10450571D01*
X35822725Y10477618D01*
X35770285Y10523790D01*
X35751133Y10590983D01*
X35771348Y10657865D01*
X35822725Y10702382D01*
X35880734Y10729432D01*
X36067139Y10859953D01*
X36228047Y11020861D01*
X36358568Y11207266D01*
X36454739Y11413504D01*
X36513635Y11633308D01*
X36533468Y11860000D01*
X36513635Y12086692D01*
X36454739Y12306496D01*
X36358568Y12512734D01*
X36228047Y12699139D01*
X36228045Y12699142D01*
X36067141Y12860046D01*
X35880734Y12990568D01*
X35880728Y12990571D01*
X35822725Y13017618D01*
X35770285Y13063790D01*
X35751133Y13130983D01*
X35771348Y13197865D01*
X35822725Y13242382D01*
X35880734Y13269432D01*
X36067139Y13399953D01*
X36228047Y13560861D01*
X36358568Y13747266D01*
X36454739Y13953504D01*
X36513635Y14173308D01*
X36533468Y14400000D01*
X36513635Y14626692D01*
X36454739Y14846496D01*
X36358568Y15052734D01*
X36228047Y15239139D01*
X36228045Y15239142D01*
X36067141Y15400046D01*
X35880734Y15530568D01*
X35880728Y15530571D01*
X35841037Y15549079D01*
X35822724Y15557619D01*
X35770285Y15603790D01*
X35751133Y15670983D01*
X35771348Y15737865D01*
X35822725Y15782382D01*
X35880734Y15809432D01*
X36067139Y15939953D01*
X36228047Y16100861D01*
X36358568Y16287266D01*
X36454739Y16493504D01*
X36513635Y16713308D01*
X36533468Y16940000D01*
X36513635Y17166692D01*
X36454739Y17386496D01*
X36362038Y17585292D01*
X36351547Y17654365D01*
X36380066Y17718149D01*
X36386727Y17725361D01*
X53382952Y34721584D01*
X53447735Y34818541D01*
X53465084Y34844505D01*
X53507411Y34946692D01*
X53521659Y34981088D01*
X53550500Y35126083D01*
X53550500Y35273918D01*
X53550500Y46436387D01*
X53570185Y46503426D01*
X53601613Y46536704D01*
X53614646Y46546172D01*
X53753828Y46685354D01*
X53869524Y46844595D01*
X53958884Y47019975D01*
X54019709Y47207174D01*
X54050500Y47401578D01*
X54050500Y48830664D01*
X54070185Y48897703D01*
X54086819Y48918345D01*
X54881655Y49713181D01*
X54942978Y49746666D01*
X54969336Y49749500D01*
X65158422Y49749500D01*
X65352826Y49780291D01*
X65378075Y49788495D01*
X65540026Y49841116D01*
X65715405Y49930476D01*
X65874646Y50046172D01*
X67943828Y52115354D01*
X68059524Y52274595D01*
X68148884Y52449974D01*
X68209709Y52637174D01*
X68211820Y52650500D01*
X68240500Y52831578D01*
X68240500Y64458423D01*
X68209709Y64652827D01*
X68179670Y64745275D01*
X68148884Y64840025D01*
X68148882Y64840028D01*
X68148882Y64840030D01*
X68101743Y64932545D01*
X68059524Y65015405D01*
X67943828Y65174646D01*
X67804646Y65313828D01*
X66164646Y66953828D01*
X66005405Y67069524D01*
X65924852Y67110568D01*
X65830030Y67158883D01*
X65642826Y67219710D01*
X65448422Y67250500D01*
X65448417Y67250500D01*
X44299502Y67250500D01*
X44267409Y67254725D01*
X44226697Y67265634D01*
X44226693Y67265635D01*
X44226692Y67265635D01*
X44226691Y67265636D01*
X44226686Y67265636D01*
X44000002Y67285468D01*
X43999998Y67285468D01*
X43773313Y67265636D01*
X43773302Y67265634D01*
X43553511Y67206742D01*
X43553502Y67206739D01*
X43347267Y67110569D01*
X43347265Y67110568D01*
X43160858Y66980046D01*
X42999954Y66819142D01*
X42869432Y66632735D01*
X42869431Y66632733D01*
X42773261Y66426498D01*
X42773258Y66426489D01*
X42714366Y66206698D01*
X42714364Y66206687D01*
X42694532Y65980002D01*
X42694532Y65979999D01*
X42714364Y65753314D01*
X42714366Y65753303D01*
X42773258Y65533512D01*
X42773261Y65533503D01*
X42869431Y65327268D01*
X42869432Y65327266D01*
X42999954Y65140859D01*
X43160858Y64979955D01*
X43160861Y64979953D01*
X43347266Y64849432D01*
X43553504Y64753261D01*
X43773308Y64694365D01*
X43935230Y64680199D01*
X43999998Y64674532D01*
X44000000Y64674532D01*
X44000002Y64674532D01*
X44056673Y64679491D01*
X44226692Y64694365D01*
X44416692Y64745275D01*
X44448785Y64749500D01*
X64780664Y64749500D01*
X64847703Y64729815D01*
X64868345Y64713181D01*
X65703181Y63878345D01*
X65736666Y63817022D01*
X65739500Y63790664D01*
X65739500Y53499336D01*
X65719815Y53432297D01*
X65703181Y53411655D01*
X64578345Y52286819D01*
X64517022Y52253334D01*
X64490664Y52250500D01*
X54301578Y52250500D01*
X54107173Y52219710D01*
X53919969Y52158883D01*
X53744594Y52069524D01*
X53653742Y52003516D01*
X53585355Y51953829D01*
X53585353Y51953827D01*
X53585352Y51953827D01*
X51846174Y50214649D01*
X51846174Y50214648D01*
X51846172Y50214646D01*
X51813768Y50170046D01*
X51730476Y50055406D01*
X51641115Y49880027D01*
X51641114Y49880024D01*
X51598706Y49749501D01*
X51580290Y49692824D01*
X51580290Y49692823D01*
X51549500Y49498423D01*
X51549500Y47401578D01*
X51580290Y47207174D01*
X51641117Y47019971D01*
X51708446Y46887831D01*
X51730476Y46844595D01*
X51846172Y46685354D01*
X51985354Y46546172D01*
X51998385Y46536705D01*
X52041050Y46481378D01*
X52049500Y46436387D01*
X52049500Y35562231D01*
X52029815Y35495192D01*
X52013181Y35474550D01*
X36583263Y20044633D01*
X36521940Y20011148D01*
X36452248Y20016132D01*
X36396315Y20058004D01*
X36383200Y20079910D01*
X36376163Y20095000D01*
X36358568Y20132734D01*
X36228047Y20319139D01*
X36228045Y20319142D01*
X36067141Y20480046D01*
X35880734Y20610568D01*
X35880728Y20610571D01*
X35822725Y20637618D01*
X35770285Y20683790D01*
X35751133Y20750983D01*
X35771348Y20817865D01*
X35822725Y20862382D01*
X35880734Y20889432D01*
X36067139Y21019953D01*
X36228047Y21180861D01*
X36358568Y21367266D01*
X36454739Y21573504D01*
X36513635Y21793308D01*
X36532649Y22010642D01*
X36533468Y22019999D01*
X36533468Y22020002D01*
X36513635Y22246687D01*
X36513635Y22246692D01*
X36454739Y22466496D01*
X36358568Y22672734D01*
X36228047Y22859139D01*
X36228045Y22859142D01*
X36067141Y23020046D01*
X35880734Y23150568D01*
X35880728Y23150571D01*
X35822725Y23177618D01*
X35770285Y23223790D01*
X35751133Y23290983D01*
X35771348Y23357865D01*
X35822725Y23402382D01*
X35880734Y23429432D01*
X36067139Y23559953D01*
X36228047Y23720861D01*
X36358568Y23907266D01*
X36454739Y24113504D01*
X36513635Y24333308D01*
X36533468Y24560000D01*
X36513635Y24786692D01*
X36454739Y25006496D01*
X36358568Y25212734D01*
X36228047Y25399139D01*
X36228045Y25399142D01*
X36067141Y25560046D01*
X35880734Y25690568D01*
X35880728Y25690571D01*
X35822725Y25717618D01*
X35770285Y25763790D01*
X35751133Y25830983D01*
X35771348Y25897865D01*
X35822725Y25942382D01*
X35880734Y25969432D01*
X36067139Y26099953D01*
X36228047Y26260861D01*
X36358568Y26447266D01*
X36454739Y26653504D01*
X36513635Y26873308D01*
X36533468Y27100000D01*
X36513635Y27326692D01*
X36454739Y27546496D01*
X36358568Y27752734D01*
X36228047Y27939139D01*
X36228045Y27939142D01*
X36067141Y28100046D01*
X35880734Y28230568D01*
X35880728Y28230571D01*
X35822725Y28257618D01*
X35770285Y28303790D01*
X35751133Y28370983D01*
X35771348Y28437865D01*
X35822725Y28482382D01*
X35880734Y28509432D01*
X36067139Y28639953D01*
X36228047Y28800861D01*
X36358568Y28987266D01*
X36454739Y29193504D01*
X36513635Y29413308D01*
X36533468Y29640000D01*
X36513635Y29866692D01*
X36454739Y30086496D01*
X36358568Y30292734D01*
X36228047Y30479139D01*
X36228045Y30479142D01*
X36067141Y30640046D01*
X35880735Y30770567D01*
X35880736Y30770567D01*
X35880734Y30770568D01*
X35840935Y30789127D01*
X35788497Y30835299D01*
X35769346Y30902493D01*
X35789562Y30969374D01*
X35805656Y30989184D01*
X35837490Y31021018D01*
X35872762Y31045715D01*
X35880734Y31049432D01*
X36067139Y31179953D01*
X36228047Y31340861D01*
X36358568Y31527266D01*
X36454739Y31733504D01*
X36513635Y31953308D01*
X36533468Y32180000D01*
X36513635Y32406692D01*
X36460548Y32604815D01*
X36454741Y32626489D01*
X36454738Y32626498D01*
X36440406Y32657233D01*
X36358568Y32832734D01*
X36228047Y33019139D01*
X36228045Y33019142D01*
X36067141Y33180046D01*
X35880734Y33310568D01*
X35880728Y33310571D01*
X35822725Y33337618D01*
X35770285Y33383790D01*
X35751133Y33450983D01*
X35771348Y33517865D01*
X35822725Y33562382D01*
X35880734Y33589432D01*
X36067139Y33719953D01*
X36228047Y33880861D01*
X36358568Y34067266D01*
X36454739Y34273504D01*
X36513635Y34493308D01*
X36533468Y34720000D01*
X36533329Y34721584D01*
X36513635Y34946691D01*
X36513633Y34946698D01*
X36511788Y34953583D01*
X36454739Y35166496D01*
X36358568Y35372734D01*
X36228047Y35559139D01*
X36228045Y35559142D01*
X36067141Y35720046D01*
X35880734Y35850568D01*
X35880732Y35850569D01*
X35822725Y35877618D01*
X35822132Y35877895D01*
X35769694Y35924066D01*
X35750542Y35991260D01*
X35770758Y36058141D01*
X35822134Y36102659D01*
X35880484Y36129868D01*
X36066820Y36260343D01*
X36227657Y36421180D01*
X36358134Y36607518D01*
X36454265Y36813674D01*
X36454269Y36813683D01*
X36506872Y37010000D01*
X35661012Y37010000D01*
X35693925Y37067007D01*
X35728000Y37194174D01*
X35728000Y37325826D01*
X35693925Y37452993D01*
X35661012Y37510000D01*
X36506872Y37510000D01*
X36506872Y37510001D01*
X36454269Y37706318D01*
X36454265Y37706327D01*
X36358134Y37912483D01*
X36227657Y38098821D01*
X36066820Y38259658D01*
X35880482Y38390135D01*
X35822133Y38417343D01*
X35769694Y38463516D01*
X35750542Y38530709D01*
X35770758Y38597590D01*
X35822129Y38642105D01*
X35880734Y38669432D01*
X36067139Y38799953D01*
X36228047Y38960861D01*
X36358568Y39147266D01*
X36454739Y39353504D01*
X36513635Y39573308D01*
X36533468Y39800000D01*
X36513635Y40026692D01*
X36454739Y40246496D01*
X36358568Y40452734D01*
X36228047Y40639139D01*
X36228045Y40639142D01*
X36067141Y40800046D01*
X35880734Y40930568D01*
X35880732Y40930569D01*
X35674497Y41026739D01*
X35674488Y41026742D01*
X35454697Y41085634D01*
X35454693Y41085635D01*
X35454692Y41085635D01*
X35454691Y41085636D01*
X35454686Y41085636D01*
X35228002Y41105468D01*
X35227998Y41105468D01*
X35001313Y41085636D01*
X35001302Y41085634D01*
X34781511Y41026742D01*
X34781502Y41026739D01*
X34575267Y40930569D01*
X34575265Y40930568D01*
X34388858Y40800046D01*
X34227954Y40639142D01*
X34097432Y40452735D01*
X34097431Y40452733D01*
X34001261Y40246498D01*
X34001258Y40246489D01*
X33942366Y40026698D01*
X33942364Y40026687D01*
X33922532Y39800002D01*
X33922532Y39799999D01*
X33942364Y39573314D01*
X33942366Y39573303D01*
X34001258Y39353512D01*
X34001261Y39353503D01*
X34097431Y39147268D01*
X34097432Y39147266D01*
X34227954Y38960859D01*
X34388858Y38799955D01*
X34388861Y38799953D01*
X34575266Y38669432D01*
X34633865Y38642107D01*
X34686305Y38595935D01*
X34705457Y38528742D01*
X34685242Y38461861D01*
X34633867Y38417343D01*
X34575515Y38390133D01*
X34389179Y38259658D01*
X34228342Y38098821D01*
X34097865Y37912483D01*
X34001734Y37706327D01*
X34001730Y37706318D01*
X33949127Y37510001D01*
X33949128Y37510000D01*
X34794988Y37510000D01*
X34762075Y37452993D01*
X34728000Y37325826D01*
X34728000Y37194174D01*
X34762075Y37067007D01*
X34794988Y37010000D01*
X33949128Y37010000D01*
X34001730Y36813683D01*
X34001734Y36813674D01*
X34097865Y36607518D01*
X34228342Y36421180D01*
X34389179Y36260343D01*
X34575518Y36129866D01*
X34575520Y36129865D01*
X34633865Y36102658D01*
X34686305Y36056486D01*
X34705457Y35989293D01*
X34685242Y35922411D01*
X34633867Y35877895D01*
X34575268Y35850569D01*
X34575264Y35850567D01*
X34388858Y35720046D01*
X34227954Y35559142D01*
X34097432Y35372735D01*
X34097431Y35372733D01*
X34001261Y35166498D01*
X34001258Y35166489D01*
X33942366Y34946698D01*
X33942365Y34946691D01*
X33922532Y34720002D01*
X33922532Y34719999D01*
X33942364Y34493314D01*
X33942366Y34493303D01*
X34001258Y34273512D01*
X34001261Y34273503D01*
X34097431Y34067268D01*
X34097432Y34067266D01*
X34227954Y33880859D01*
X34388858Y33719955D01*
X34388861Y33719953D01*
X34575266Y33589432D01*
X34633275Y33562382D01*
X34685714Y33516209D01*
X34704866Y33449016D01*
X34684650Y33382135D01*
X34633275Y33337618D01*
X34575267Y33310569D01*
X34575265Y33310568D01*
X34388858Y33180046D01*
X34227954Y33019142D01*
X34097432Y32832736D01*
X34093712Y32824758D01*
X34069015Y32789491D01*
X27362181Y26082656D01*
X27300858Y26049171D01*
X27231166Y26054155D01*
X27175233Y26096027D01*
X27150816Y26161491D01*
X27150500Y26170337D01*
X27150500Y44960003D01*
X49035340Y44960003D01*
X49035340Y44959998D01*
X49053944Y44747346D01*
X49053945Y44747338D01*
X49109194Y44541147D01*
X49109197Y44541141D01*
X49199413Y44347671D01*
X49238415Y44291970D01*
X49860000Y44913555D01*
X49860000Y44907339D01*
X49887259Y44805606D01*
X49939920Y44714394D01*
X50014394Y44639920D01*
X50105606Y44587259D01*
X50207339Y44560000D01*
X50213553Y44560000D01*
X49591968Y43938416D01*
X49647663Y43899418D01*
X49647669Y43899414D01*
X49841140Y43809198D01*
X49841146Y43809195D01*
X50047337Y43753946D01*
X50047345Y43753945D01*
X50259998Y43735340D01*
X50260002Y43735340D01*
X50472654Y43753945D01*
X50472662Y43753946D01*
X50678853Y43809195D01*
X50678864Y43809199D01*
X50872325Y43899411D01*
X50928030Y43938417D01*
X50306448Y44560000D01*
X50312661Y44560000D01*
X50414394Y44587259D01*
X50505606Y44639920D01*
X50580080Y44714394D01*
X50632741Y44805606D01*
X50660000Y44907339D01*
X50660000Y44913554D01*
X51281583Y44291971D01*
X51320589Y44347675D01*
X51410801Y44541136D01*
X51410805Y44541147D01*
X51466054Y44747338D01*
X51466055Y44747346D01*
X51484660Y44959998D01*
X51484660Y44960003D01*
X51466055Y45172655D01*
X51466054Y45172663D01*
X51410805Y45378854D01*
X51410802Y45378860D01*
X51320586Y45572331D01*
X51320582Y45572337D01*
X51281584Y45628032D01*
X50660000Y45006448D01*
X50660000Y45012661D01*
X50632741Y45114394D01*
X50580080Y45205606D01*
X50505606Y45280080D01*
X50414394Y45332741D01*
X50312661Y45360000D01*
X50306447Y45360000D01*
X50928030Y45981585D01*
X50872329Y46020587D01*
X50678859Y46110803D01*
X50678853Y46110806D01*
X50472662Y46166055D01*
X50472654Y46166056D01*
X50260002Y46184660D01*
X50259998Y46184660D01*
X50047345Y46166056D01*
X50047337Y46166055D01*
X49841146Y46110806D01*
X49841140Y46110803D01*
X49647671Y46020588D01*
X49647669Y46020587D01*
X49591969Y45981585D01*
X49591968Y45981585D01*
X50213554Y45360000D01*
X50207339Y45360000D01*
X50105606Y45332741D01*
X50014394Y45280080D01*
X49939920Y45205606D01*
X49887259Y45114394D01*
X49860000Y45012661D01*
X49860000Y45006447D01*
X49238415Y45628032D01*
X49238415Y45628031D01*
X49199413Y45572331D01*
X49199412Y45572329D01*
X49109197Y45378860D01*
X49109194Y45378854D01*
X49053945Y45172663D01*
X49053944Y45172655D01*
X49035340Y44960003D01*
X27150500Y44960003D01*
X27150500Y45873919D01*
X27150499Y45873920D01*
X27141699Y45918165D01*
X27121659Y46018912D01*
X27067408Y46149883D01*
X27065764Y46154478D01*
X26982954Y46278412D01*
X26982953Y46278413D01*
X26982951Y46278416D01*
X26878416Y46382951D01*
X25761364Y47500003D01*
X46495340Y47500003D01*
X46495340Y47499998D01*
X46513944Y47287346D01*
X46513945Y47287338D01*
X46569194Y47081147D01*
X46569197Y47081141D01*
X46659413Y46887671D01*
X46698415Y46831970D01*
X47320000Y47453555D01*
X47320000Y47447339D01*
X47347259Y47345606D01*
X47399920Y47254394D01*
X47474394Y47179920D01*
X47565606Y47127259D01*
X47667339Y47100000D01*
X47673553Y47100000D01*
X47051968Y46478416D01*
X47107663Y46439418D01*
X47107669Y46439414D01*
X47301140Y46349198D01*
X47301146Y46349195D01*
X47507337Y46293946D01*
X47507345Y46293945D01*
X47719998Y46275340D01*
X47720002Y46275340D01*
X47932654Y46293945D01*
X47932662Y46293946D01*
X48138853Y46349195D01*
X48138864Y46349199D01*
X48332325Y46439411D01*
X48388030Y46478417D01*
X47766448Y47100000D01*
X47772661Y47100000D01*
X47874394Y47127259D01*
X47965606Y47179920D01*
X48040080Y47254394D01*
X48092741Y47345606D01*
X48120000Y47447339D01*
X48120000Y47453554D01*
X48741583Y46831971D01*
X48780589Y46887675D01*
X48870801Y47081136D01*
X48870805Y47081147D01*
X48926054Y47287338D01*
X48926055Y47287346D01*
X48944660Y47499998D01*
X48944660Y47500003D01*
X48926055Y47712655D01*
X48926054Y47712663D01*
X48870805Y47918854D01*
X48870802Y47918860D01*
X48780586Y48112331D01*
X48780582Y48112337D01*
X48741584Y48168032D01*
X48120000Y47546448D01*
X48120000Y47552661D01*
X48092741Y47654394D01*
X48040080Y47745606D01*
X47965606Y47820080D01*
X47874394Y47872741D01*
X47772661Y47900000D01*
X47766447Y47900000D01*
X48388030Y48521585D01*
X48332329Y48560587D01*
X48138859Y48650803D01*
X48138853Y48650806D01*
X47932662Y48706055D01*
X47932654Y48706056D01*
X47720002Y48724660D01*
X47719998Y48724660D01*
X47507345Y48706056D01*
X47507337Y48706055D01*
X47301146Y48650806D01*
X47301140Y48650803D01*
X47107671Y48560588D01*
X47107669Y48560587D01*
X47051969Y48521585D01*
X47051968Y48521585D01*
X47673554Y47900000D01*
X47667339Y47900000D01*
X47565606Y47872741D01*
X47474394Y47820080D01*
X47399920Y47745606D01*
X47347259Y47654394D01*
X47320000Y47552661D01*
X47320000Y47546447D01*
X46698415Y48168032D01*
X46698415Y48168031D01*
X46659413Y48112331D01*
X46659412Y48112329D01*
X46569197Y47918860D01*
X46569194Y47918854D01*
X46513945Y47712663D01*
X46513944Y47712655D01*
X46495340Y47500003D01*
X25761364Y47500003D01*
X24876818Y48384549D01*
X24843333Y48445872D01*
X24840499Y48472230D01*
X24840499Y49860371D01*
X24840498Y49860377D01*
X24840497Y49860384D01*
X24834091Y49919983D01*
X24830177Y49930476D01*
X24810898Y49982167D01*
X24805914Y50051858D01*
X24839399Y50113182D01*
X24900722Y50146666D01*
X24927080Y50149500D01*
X27198422Y50149500D01*
X27392826Y50180291D01*
X27580026Y50241116D01*
X27755405Y50330476D01*
X27914646Y50446172D01*
X28868482Y51400008D01*
X37744671Y51400008D01*
X37744671Y51399993D01*
X37763964Y51105637D01*
X37763965Y51105627D01*
X37763966Y51105620D01*
X37796909Y50940000D01*
X37821518Y50816284D01*
X37821521Y50816270D01*
X37916349Y50536920D01*
X38046825Y50272340D01*
X38046829Y50272333D01*
X38210725Y50027045D01*
X38405241Y49805242D01*
X38627043Y49610727D01*
X38872335Y49446828D01*
X39136923Y49316348D01*
X39416278Y49221519D01*
X39705620Y49163966D01*
X39733888Y49162114D01*
X39999993Y49144671D01*
X40000000Y49144671D01*
X40000007Y49144671D01*
X40235675Y49160119D01*
X40294380Y49163966D01*
X40583722Y49221519D01*
X40863077Y49316348D01*
X41127665Y49446828D01*
X41372957Y49610727D01*
X41594758Y49805242D01*
X41789273Y50027043D01*
X41953172Y50272335D01*
X42083652Y50536923D01*
X42178481Y50816278D01*
X42236034Y51105620D01*
X42247834Y51285647D01*
X42255329Y51399993D01*
X42255329Y51400008D01*
X42236035Y51694364D01*
X42236034Y51694380D01*
X42178481Y51983722D01*
X42083652Y52263077D01*
X41953172Y52527664D01*
X41789273Y52772957D01*
X41737743Y52831716D01*
X41594758Y52994759D01*
X41372955Y53189275D01*
X41127667Y53353171D01*
X41127660Y53353175D01*
X40863080Y53483651D01*
X40583730Y53578479D01*
X40583724Y53578481D01*
X40583722Y53578481D01*
X40294380Y53636034D01*
X40294373Y53636035D01*
X40294363Y53636036D01*
X40000007Y53655329D01*
X39999993Y53655329D01*
X39705636Y53636036D01*
X39705624Y53636035D01*
X39705620Y53636034D01*
X39705612Y53636033D01*
X39705609Y53636032D01*
X39416283Y53578482D01*
X39416269Y53578479D01*
X39136919Y53483651D01*
X38872334Y53353172D01*
X38627041Y53189272D01*
X38405241Y52994759D01*
X38210728Y52772959D01*
X38046828Y52527666D01*
X37916349Y52263081D01*
X37821521Y51983731D01*
X37821518Y51983717D01*
X37763968Y51694391D01*
X37763964Y51694364D01*
X37744671Y51400008D01*
X28868482Y51400008D01*
X31553655Y54085181D01*
X31614978Y54118666D01*
X31641336Y54121500D01*
X61663004Y54121500D01*
X61730043Y54101815D01*
X61750680Y54085186D01*
X61819095Y54016771D01*
X61819102Y54016764D01*
X61819112Y54016755D01*
X62048182Y53845276D01*
X62048190Y53845271D01*
X62299333Y53708136D01*
X62299332Y53708136D01*
X62299336Y53708135D01*
X62299339Y53708133D01*
X62567454Y53608131D01*
X62567460Y53608130D01*
X62567462Y53608129D01*
X62847066Y53547305D01*
X62847068Y53547305D01*
X62847072Y53547304D01*
X63100720Y53529163D01*
X63132499Y53526890D01*
X63132500Y53526890D01*
X63132501Y53526890D01*
X63161095Y53528936D01*
X63417928Y53547304D01*
X63561252Y53578482D01*
X63697537Y53608129D01*
X63697537Y53608130D01*
X63697546Y53608131D01*
X63965661Y53708133D01*
X64216815Y53845274D01*
X64445895Y54016761D01*
X64648239Y54219105D01*
X64819726Y54448185D01*
X64956867Y54699339D01*
X65056869Y54967454D01*
X65095926Y55146998D01*
X65117695Y55247067D01*
X65117695Y55247068D01*
X65117696Y55247072D01*
X65138110Y55532500D01*
X65117696Y55817928D01*
X65056869Y56097546D01*
X64956867Y56365661D01*
X64844226Y56571946D01*
X64819729Y56616810D01*
X64819724Y56616818D01*
X64648245Y56845888D01*
X64648229Y56845906D01*
X64445905Y57048230D01*
X64445887Y57048246D01*
X64216817Y57219725D01*
X64216809Y57219730D01*
X63965666Y57356865D01*
X63965667Y57356865D01*
X63827241Y57408495D01*
X63697546Y57456869D01*
X63697543Y57456870D01*
X63697537Y57456872D01*
X63417933Y57517696D01*
X63132501Y57538110D01*
X63132499Y57538110D01*
X62847066Y57517696D01*
X62567462Y57456872D01*
X62299333Y57356865D01*
X62048190Y57219730D01*
X62048182Y57219725D01*
X61819112Y57048246D01*
X61819094Y57048230D01*
X61616770Y56845906D01*
X61616754Y56845888D01*
X61486727Y56672190D01*
X61430794Y56630318D01*
X61387460Y56622500D01*
X30973578Y56622500D01*
X30779172Y56591709D01*
X30718348Y56571947D01*
X30718348Y56571946D01*
X30675103Y56557895D01*
X30591970Y56530883D01*
X30469619Y56468541D01*
X30416594Y56441524D01*
X30325741Y56375515D01*
X30257354Y56325828D01*
X30257352Y56325826D01*
X30257351Y56325826D01*
X26618345Y52686819D01*
X26557022Y52653334D01*
X26530664Y52650500D01*
X24452214Y52650500D01*
X24385175Y52670185D01*
X24339420Y52722989D01*
X24329476Y52792147D01*
X24358501Y52855703D01*
X24364533Y52862181D01*
X24495786Y52993434D01*
X24630217Y53178462D01*
X24734048Y53382242D01*
X24803043Y53594587D01*
X24804721Y53599751D01*
X24804721Y53599752D01*
X24804722Y53599755D01*
X24840500Y53825646D01*
X24840500Y54054354D01*
X24804722Y54280245D01*
X24804721Y54280249D01*
X24804721Y54280250D01*
X24734049Y54497756D01*
X24631337Y54699339D01*
X24630217Y54701538D01*
X24495786Y54886566D01*
X24334066Y55048286D01*
X24149038Y55182717D01*
X24022744Y55247067D01*
X23945255Y55286550D01*
X23727742Y55357223D01*
X23727743Y55357223D01*
X23724167Y55357789D01*
X23661034Y55387724D01*
X23655894Y55392580D01*
X17544648Y61503826D01*
X17544646Y61503828D01*
X17385405Y61619524D01*
X17210030Y61708883D01*
X17022826Y61769710D01*
X16828422Y61800500D01*
X16828417Y61800500D01*
X15314141Y61800500D01*
X15247102Y61820185D01*
X15201347Y61872989D01*
X15197969Y61881141D01*
X15193796Y61892331D01*
X15193793Y61892335D01*
X15193793Y61892336D01*
X15107547Y62007545D01*
X15107544Y62007548D01*
X15010301Y62080345D01*
X61132500Y62080345D01*
X61132500Y60782500D01*
X62532499Y60782500D01*
X62507479Y60722098D01*
X62482500Y60596519D01*
X62482500Y60468481D01*
X62507479Y60342902D01*
X62532499Y60282500D01*
X61132500Y60282500D01*
X61132500Y58984656D01*
X61138901Y58925128D01*
X61138903Y58925121D01*
X61189145Y58790414D01*
X61189149Y58790407D01*
X61275309Y58675313D01*
X61275312Y58675310D01*
X61390406Y58589150D01*
X61390413Y58589146D01*
X61525120Y58538904D01*
X61525127Y58538902D01*
X61584655Y58532501D01*
X61584672Y58532500D01*
X62882500Y58532500D01*
X62882500Y59932499D01*
X62942902Y59907479D01*
X63068481Y59882500D01*
X63196519Y59882500D01*
X63322098Y59907479D01*
X63382500Y59932499D01*
X63382500Y58532500D01*
X64680328Y58532500D01*
X64680344Y58532501D01*
X64739872Y58538902D01*
X64739879Y58538904D01*
X64874586Y58589146D01*
X64874593Y58589150D01*
X64989687Y58675310D01*
X64989690Y58675313D01*
X65075850Y58790407D01*
X65075854Y58790414D01*
X65126096Y58925121D01*
X65126098Y58925128D01*
X65132499Y58984656D01*
X65132500Y58984673D01*
X65132500Y60282500D01*
X63732501Y60282500D01*
X63757521Y60342902D01*
X63782500Y60468481D01*
X63782500Y60596519D01*
X63757521Y60722098D01*
X63732501Y60782500D01*
X65132500Y60782500D01*
X65132500Y62080328D01*
X65132499Y62080345D01*
X65126098Y62139873D01*
X65126096Y62139880D01*
X65075854Y62274587D01*
X65075850Y62274594D01*
X64989690Y62389688D01*
X64989687Y62389691D01*
X64874593Y62475851D01*
X64874586Y62475855D01*
X64739879Y62526097D01*
X64739872Y62526099D01*
X64680344Y62532500D01*
X63382500Y62532500D01*
X63382500Y61132502D01*
X63322098Y61157521D01*
X63196519Y61182500D01*
X63068481Y61182500D01*
X62942902Y61157521D01*
X62882500Y61132502D01*
X62882500Y62532500D01*
X61584655Y62532500D01*
X61525127Y62526099D01*
X61525120Y62526097D01*
X61390413Y62475855D01*
X61390406Y62475851D01*
X61275312Y62389691D01*
X61275309Y62389688D01*
X61189149Y62274594D01*
X61189145Y62274587D01*
X61138903Y62139880D01*
X61138901Y62139873D01*
X61132500Y62080345D01*
X15010301Y62080345D01*
X14992334Y62093795D01*
X14983701Y62097015D01*
X14927769Y62138889D01*
X14903356Y62204355D01*
X14903040Y62213195D01*
X14903040Y78245883D01*
X14885126Y78358977D01*
X14872249Y78440286D01*
X14872248Y78440290D01*
X14872248Y78440291D01*
X14812931Y78622848D01*
X14811869Y78626613D01*
X14722063Y78802866D01*
X14664205Y78882500D01*
X14606368Y78962106D01*
X12529824Y81038650D01*
X12496339Y81099973D01*
X12493821Y81135178D01*
X12499839Y81219309D01*
X12505610Y81300000D01*
X12505610Y81300002D01*
X37694390Y81300002D01*
X37694390Y81299999D01*
X37714804Y81014567D01*
X37775628Y80734963D01*
X37775630Y80734957D01*
X37775631Y80734954D01*
X37838176Y80567266D01*
X37875635Y80466834D01*
X38012770Y80215691D01*
X38012775Y80215683D01*
X38184254Y79986613D01*
X38184270Y79986595D01*
X38386594Y79784271D01*
X38386612Y79784255D01*
X38615682Y79612776D01*
X38615690Y79612771D01*
X38866833Y79475636D01*
X38866832Y79475636D01*
X38866836Y79475635D01*
X38866839Y79475633D01*
X39134954Y79375631D01*
X39134960Y79375630D01*
X39134962Y79375629D01*
X39414566Y79314805D01*
X39414568Y79314805D01*
X39414572Y79314804D01*
X39668220Y79296663D01*
X39699999Y79294390D01*
X39700000Y79294390D01*
X39700001Y79294390D01*
X39728595Y79296436D01*
X39985428Y79314804D01*
X40265046Y79375631D01*
X40533161Y79475633D01*
X40637308Y79532502D01*
X61127391Y79532502D01*
X61127391Y79532499D01*
X61147800Y79247138D01*
X61208609Y78967605D01*
X61308591Y78699542D01*
X61445691Y78448462D01*
X61445696Y78448454D01*
X61552382Y78305939D01*
X61552383Y78305938D01*
X62531458Y79285013D01*
X62556478Y79224610D01*
X62627612Y79118149D01*
X62718149Y79027612D01*
X62824610Y78956478D01*
X62885011Y78931459D01*
X61905936Y77952385D01*
X62048460Y77845693D01*
X62048461Y77845692D01*
X62299542Y77708592D01*
X62299541Y77708592D01*
X62567604Y77608610D01*
X62847137Y77547801D01*
X63132499Y77527391D01*
X63132501Y77527391D01*
X63417862Y77547801D01*
X63697395Y77608610D01*
X63965458Y77708592D01*
X64216547Y77845697D01*
X64359061Y77952384D01*
X64359062Y77952385D01*
X63379989Y78931459D01*
X63440390Y78956478D01*
X63546851Y79027612D01*
X63637388Y79118149D01*
X63708522Y79224610D01*
X63733541Y79285012D01*
X64712615Y78305938D01*
X64712616Y78305939D01*
X64819303Y78448453D01*
X64956408Y78699542D01*
X65056390Y78967605D01*
X65117199Y79247138D01*
X65137609Y79532499D01*
X65137609Y79532502D01*
X65117199Y79817863D01*
X65056390Y80097396D01*
X64956408Y80365459D01*
X64819308Y80616539D01*
X64819307Y80616540D01*
X64712615Y80759064D01*
X63733541Y79779990D01*
X63708522Y79840390D01*
X63637388Y79946851D01*
X63546851Y80037388D01*
X63440390Y80108522D01*
X63379988Y80133542D01*
X64359062Y81112617D01*
X64359061Y81112618D01*
X64216546Y81219304D01*
X64216538Y81219309D01*
X63965457Y81356409D01*
X63965458Y81356409D01*
X63697395Y81456391D01*
X63417862Y81517200D01*
X63132501Y81537609D01*
X63132499Y81537609D01*
X62847137Y81517200D01*
X62567604Y81456391D01*
X62299541Y81356409D01*
X62048461Y81219309D01*
X62048453Y81219304D01*
X61905937Y81112618D01*
X61905936Y81112617D01*
X62885012Y80133542D01*
X62824610Y80108522D01*
X62718149Y80037388D01*
X62627612Y79946851D01*
X62556478Y79840390D01*
X62531458Y79779989D01*
X61552383Y80759064D01*
X61552382Y80759063D01*
X61445696Y80616547D01*
X61445691Y80616539D01*
X61308591Y80365459D01*
X61208609Y80097396D01*
X61147800Y79817863D01*
X61127391Y79532502D01*
X40637308Y79532502D01*
X40784315Y79612774D01*
X41013395Y79784261D01*
X41162316Y79933183D01*
X41223638Y79966666D01*
X41249996Y79969500D01*
X43625857Y79969500D01*
X43657949Y79965276D01*
X43773308Y79934365D01*
X43935230Y79920199D01*
X43999998Y79914532D01*
X44000000Y79914532D01*
X44000002Y79914532D01*
X44056673Y79919491D01*
X44226692Y79934365D01*
X44446496Y79993261D01*
X44652734Y80089432D01*
X44839139Y80219953D01*
X45000047Y80380861D01*
X45130568Y80567266D01*
X45134285Y80575238D01*
X45158982Y80610510D01*
X47941655Y83393181D01*
X48002978Y83426666D01*
X48029336Y83429500D01*
X50381583Y83429500D01*
X61008001Y83429500D01*
X61075040Y83409815D01*
X61120795Y83357011D01*
X61132001Y83305500D01*
X61132001Y82984624D01*
X61138408Y82925017D01*
X61188702Y82790172D01*
X61188706Y82790165D01*
X61274952Y82674956D01*
X61274955Y82674953D01*
X61390164Y82588707D01*
X61390171Y82588703D01*
X61525017Y82538409D01*
X61525016Y82538409D01*
X61531944Y82537665D01*
X61584627Y82532000D01*
X64680372Y82532001D01*
X64739983Y82538409D01*
X64874831Y82588704D01*
X64990046Y82674954D01*
X65076296Y82790169D01*
X65126591Y82925017D01*
X65133000Y82984627D01*
X65132999Y86080372D01*
X65126591Y86139983D01*
X65076296Y86274831D01*
X65076295Y86274832D01*
X65076293Y86274836D01*
X64990047Y86390045D01*
X64990044Y86390048D01*
X64874835Y86476294D01*
X64874828Y86476298D01*
X64739982Y86526592D01*
X64739983Y86526592D01*
X64680383Y86532999D01*
X64680381Y86533000D01*
X64680373Y86533000D01*
X64680364Y86533000D01*
X61584629Y86533000D01*
X61584623Y86532999D01*
X61525016Y86526592D01*
X61390171Y86476298D01*
X61390164Y86476294D01*
X61274955Y86390048D01*
X61274952Y86390045D01*
X61188706Y86274836D01*
X61188702Y86274829D01*
X61138408Y86139983D01*
X61132001Y86080384D01*
X61132001Y86080377D01*
X61132000Y86080365D01*
X61132000Y86054500D01*
X61112315Y85987461D01*
X61059511Y85941706D01*
X61008000Y85930500D01*
X47361577Y85930500D01*
X47273643Y85916573D01*
X47249409Y85915724D01*
X47249409Y85915468D01*
X47243997Y85915468D01*
X47017312Y85895636D01*
X47017302Y85895634D01*
X46797511Y85836742D01*
X46797502Y85836739D01*
X46591267Y85740569D01*
X46591265Y85740568D01*
X46404858Y85610046D01*
X46243954Y85449142D01*
X46113432Y85262735D01*
X46113431Y85262733D01*
X46017261Y85056497D01*
X46007279Y85019246D01*
X45975186Y84963662D01*
X43518345Y82506819D01*
X43457022Y82473334D01*
X43430664Y82470500D01*
X41384779Y82470500D01*
X41317740Y82490185D01*
X41285512Y82520189D01*
X41215739Y82613395D01*
X41215734Y82613400D01*
X41215729Y82613406D01*
X41013405Y82815730D01*
X41013387Y82815746D01*
X40784317Y82987225D01*
X40784309Y82987230D01*
X40533166Y83124365D01*
X40533167Y83124365D01*
X40425915Y83164368D01*
X40265046Y83224369D01*
X40265043Y83224370D01*
X40265037Y83224372D01*
X39985433Y83285196D01*
X39700001Y83305610D01*
X39699999Y83305610D01*
X39414566Y83285196D01*
X39134962Y83224372D01*
X38866833Y83124365D01*
X38615690Y82987230D01*
X38615682Y82987225D01*
X38386612Y82815746D01*
X38386594Y82815730D01*
X38184270Y82613406D01*
X38184254Y82613388D01*
X38012775Y82384318D01*
X38012770Y82384310D01*
X37875635Y82133167D01*
X37775628Y81865038D01*
X37714804Y81585434D01*
X37694390Y81300002D01*
X12505610Y81300002D01*
X12485196Y81585428D01*
X12424369Y81865046D01*
X12324367Y82133161D01*
X12187226Y82384315D01*
X12122709Y82470500D01*
X12015745Y82613388D01*
X12015729Y82613406D01*
X11813405Y82815730D01*
X11813387Y82815746D01*
X11584317Y82987225D01*
X11584309Y82987230D01*
X11333166Y83124365D01*
X11333167Y83124365D01*
X11225915Y83164368D01*
X11065046Y83224369D01*
X11065043Y83224370D01*
X11065037Y83224372D01*
X10785433Y83285196D01*
X10500001Y83305610D01*
X10499999Y83305610D01*
X10214566Y83285196D01*
X9934962Y83224372D01*
X9666833Y83124365D01*
X9415690Y82987230D01*
X9415682Y82987225D01*
X9186612Y82815746D01*
X9186594Y82815730D01*
X8984270Y82613406D01*
X8984254Y82613388D01*
X8812775Y82384318D01*
X8812770Y82384310D01*
X8675635Y82133167D01*
X8575628Y81865038D01*
X8514804Y81585434D01*
X8494390Y81300002D01*
X8494390Y81299999D01*
X8514804Y81014567D01*
X8575628Y80734963D01*
X8575630Y80734957D01*
X8575631Y80734954D01*
X8638176Y80567266D01*
X8675635Y80466834D01*
X8812770Y80215691D01*
X8812775Y80215683D01*
X8984254Y79986613D01*
X8984270Y79986595D01*
X9186594Y79784271D01*
X9186612Y79784255D01*
X9415682Y79612776D01*
X9415690Y79612771D01*
X9666833Y79475636D01*
X9666832Y79475636D01*
X9666836Y79475635D01*
X9666839Y79475633D01*
X9934954Y79375631D01*
X9934960Y79375630D01*
X9934962Y79375629D01*
X10214566Y79314805D01*
X10214568Y79314805D01*
X10214572Y79314804D01*
X10468220Y79296663D01*
X10499999Y79294390D01*
X10499999Y79294391D01*
X10500000Y79294390D01*
X10664822Y79306179D01*
X10733095Y79291327D01*
X10761350Y79270176D01*
X12365721Y77665805D01*
X12399206Y77604482D01*
X12402040Y77578124D01*
X12402040Y62215090D01*
X12382355Y62148051D01*
X12329551Y62102296D01*
X12321377Y62098910D01*
X12307673Y62093799D01*
X12307663Y62093793D01*
X12192455Y62007548D01*
X12192452Y62007545D01*
X12106206Y61892336D01*
X12106202Y61892329D01*
X12055908Y61757483D01*
X12049501Y61697884D01*
X12049500Y61697865D01*
X12049500Y59402130D01*
X12049501Y59402124D01*
X12055908Y59342517D01*
X12106202Y59207672D01*
X12106206Y59207665D01*
X12192452Y59092456D01*
X12192455Y59092453D01*
X12307664Y59006207D01*
X12307671Y59006203D01*
X12442517Y58955909D01*
X12442516Y58955909D01*
X12449444Y58955165D01*
X12502127Y58949500D01*
X14797872Y58949501D01*
X14857483Y58955909D01*
X14992331Y59006204D01*
X15107546Y59092454D01*
X15193796Y59207669D01*
X15197960Y59218835D01*
X15239829Y59274766D01*
X15305293Y59299184D01*
X15314141Y59299500D01*
X16160664Y59299500D01*
X16227703Y59279815D01*
X16248345Y59263181D01*
X21839920Y53671606D01*
X21873405Y53610283D01*
X21874711Y53603333D01*
X21875277Y53599757D01*
X21945950Y53382245D01*
X22044275Y53189273D01*
X22049783Y53178462D01*
X22184214Y52993434D01*
X22345934Y52831714D01*
X22400393Y52792147D01*
X22430438Y52770318D01*
X22473103Y52714987D01*
X22479082Y52645374D01*
X22446476Y52583579D01*
X22430438Y52569682D01*
X22345932Y52508285D01*
X22184216Y52346569D01*
X22184216Y52346568D01*
X22184214Y52346566D01*
X22140805Y52286819D01*
X22049783Y52161539D01*
X21945950Y51957756D01*
X21875278Y51740250D01*
X21875278Y51740247D01*
X21839500Y51514354D01*
X21839500Y51285647D01*
X21875278Y51059754D01*
X21875278Y51059751D01*
X21945950Y50842245D01*
X22004310Y50727708D01*
X22049783Y50638462D01*
X22182525Y50455758D01*
X22206005Y50389954D01*
X22190180Y50321900D01*
X22140074Y50273205D01*
X22125541Y50266692D01*
X22097670Y50256297D01*
X22097664Y50256294D01*
X21982455Y50170048D01*
X21982452Y50170045D01*
X21896206Y50054836D01*
X21896202Y50054829D01*
X21845908Y49919983D01*
X21841339Y49877482D01*
X21839501Y49860377D01*
X21839500Y49860365D01*
X21839500Y47859630D01*
X21839501Y47859624D01*
X21845908Y47800017D01*
X21896202Y47665172D01*
X21896206Y47665165D01*
X21982452Y47549956D01*
X21982455Y47549953D01*
X22097664Y47463707D01*
X22097671Y47463703D01*
X22232517Y47413409D01*
X22232516Y47413409D01*
X22239444Y47412665D01*
X22292127Y47407000D01*
X23680269Y47407001D01*
X23747308Y47387316D01*
X23767950Y47370682D01*
X25613181Y45525452D01*
X25646666Y45464129D01*
X25649500Y45437771D01*
X25649500Y26254231D01*
X25629815Y26187192D01*
X25613181Y26166550D01*
X21495431Y22048801D01*
X21434108Y22015316D01*
X21364416Y22020300D01*
X21308483Y22062172D01*
X21284222Y22125673D01*
X21273635Y22246692D01*
X21214739Y22466496D01*
X21118568Y22672734D01*
X20988047Y22859139D01*
X20988045Y22859142D01*
X20827141Y23020046D01*
X20640734Y23150568D01*
X20640728Y23150571D01*
X20582725Y23177618D01*
X20530285Y23223790D01*
X20511133Y23290983D01*
X20531348Y23357865D01*
X20582725Y23402382D01*
X20640734Y23429432D01*
X20827139Y23559953D01*
X20988047Y23720861D01*
X21118568Y23907266D01*
X21214739Y24113504D01*
X21273635Y24333308D01*
X21293468Y24560000D01*
X21273635Y24786692D01*
X21214739Y25006496D01*
X21118568Y25212734D01*
X20988047Y25399139D01*
X20988045Y25399142D01*
X20827141Y25560046D01*
X20640734Y25690568D01*
X20640728Y25690571D01*
X20582725Y25717618D01*
X20530285Y25763790D01*
X20511133Y25830983D01*
X20531348Y25897865D01*
X20582725Y25942382D01*
X20640734Y25969432D01*
X20827139Y26099953D01*
X20988047Y26260861D01*
X21118568Y26447266D01*
X21214739Y26653504D01*
X21273635Y26873308D01*
X21293468Y27100000D01*
X21273635Y27326692D01*
X21214739Y27546496D01*
X21118568Y27752734D01*
X20988047Y27939139D01*
X20988045Y27939142D01*
X20827141Y28100046D01*
X20640734Y28230568D01*
X20640728Y28230571D01*
X20582725Y28257618D01*
X20530285Y28303790D01*
X20511133Y28370983D01*
X20531348Y28437865D01*
X20582725Y28482382D01*
X20640734Y28509432D01*
X20827139Y28639953D01*
X20988047Y28800861D01*
X21118568Y28987266D01*
X21214739Y29193504D01*
X21273635Y29413308D01*
X21293468Y29640000D01*
X21273635Y29866692D01*
X21214739Y30086496D01*
X21118568Y30292734D01*
X20988047Y30479139D01*
X20988045Y30479142D01*
X20827141Y30640046D01*
X20640734Y30770568D01*
X20640732Y30770569D01*
X20629275Y30775912D01*
X20582132Y30797895D01*
X20529694Y30844066D01*
X20510542Y30911260D01*
X20530758Y30978141D01*
X20582134Y31022659D01*
X20640484Y31049868D01*
X20826820Y31180343D01*
X20987657Y31341180D01*
X21118134Y31527518D01*
X21214265Y31733674D01*
X21214269Y31733683D01*
X21266872Y31930000D01*
X20421012Y31930000D01*
X20453925Y31987007D01*
X20488000Y32114174D01*
X20488000Y32245826D01*
X20453925Y32372993D01*
X20421012Y32430000D01*
X21266872Y32430000D01*
X21266872Y32430001D01*
X21214269Y32626318D01*
X21214265Y32626327D01*
X21118134Y32832483D01*
X20987657Y33018821D01*
X20826820Y33179658D01*
X20640482Y33310135D01*
X20582133Y33337343D01*
X20529694Y33383516D01*
X20510542Y33450709D01*
X20530758Y33517590D01*
X20582129Y33562105D01*
X20640734Y33589432D01*
X20827139Y33719953D01*
X20988047Y33880861D01*
X21118568Y34067266D01*
X21214739Y34273504D01*
X21273635Y34493308D01*
X21293468Y34720000D01*
X21293329Y34721584D01*
X21273635Y34946691D01*
X21273633Y34946698D01*
X21271788Y34953583D01*
X21214739Y35166496D01*
X21118568Y35372734D01*
X20988047Y35559139D01*
X20988045Y35559142D01*
X20827141Y35720046D01*
X20640734Y35850568D01*
X20640728Y35850571D01*
X20582725Y35877618D01*
X20530285Y35923790D01*
X20511133Y35990983D01*
X20531348Y36057865D01*
X20582725Y36102382D01*
X20583319Y36102659D01*
X20640734Y36129432D01*
X20827139Y36259953D01*
X20988047Y36420861D01*
X21118568Y36607266D01*
X21214739Y36813504D01*
X21273635Y37033308D01*
X21293468Y37260000D01*
X21273635Y37486692D01*
X21214739Y37706496D01*
X21118568Y37912734D01*
X20988047Y38099139D01*
X20988045Y38099142D01*
X20827143Y38260044D01*
X20802536Y38277274D01*
X20758912Y38331851D01*
X20751719Y38401350D01*
X20783241Y38463704D01*
X20843471Y38499118D01*
X20860404Y38502139D01*
X20895483Y38505909D01*
X21030331Y38556204D01*
X21145546Y38642454D01*
X21231796Y38757669D01*
X21282091Y38892517D01*
X21288500Y38952127D01*
X21288499Y40647872D01*
X21282091Y40707483D01*
X21247567Y40800046D01*
X21231797Y40842329D01*
X21231793Y40842336D01*
X21145547Y40957545D01*
X21145544Y40957548D01*
X21030335Y41043794D01*
X21030328Y41043798D01*
X20895482Y41094092D01*
X20895483Y41094092D01*
X20835883Y41100499D01*
X20835881Y41100500D01*
X20835873Y41100500D01*
X20835864Y41100500D01*
X19140129Y41100500D01*
X19140123Y41100499D01*
X19080516Y41094092D01*
X18945671Y41043798D01*
X18945664Y41043794D01*
X18830455Y40957548D01*
X18830452Y40957545D01*
X18744206Y40842336D01*
X18744202Y40842329D01*
X18693908Y40707483D01*
X18689486Y40666345D01*
X18687501Y40647877D01*
X18687500Y40647865D01*
X18687500Y38952130D01*
X18687501Y38952124D01*
X18693908Y38892517D01*
X18744202Y38757672D01*
X18744206Y38757665D01*
X18830452Y38642456D01*
X18830455Y38642453D01*
X18945664Y38556207D01*
X18945671Y38556203D01*
X18990618Y38539439D01*
X19080517Y38505909D01*
X19115596Y38502138D01*
X19180144Y38475401D01*
X19219993Y38418009D01*
X19222488Y38348184D01*
X19186836Y38288095D01*
X19173464Y38277275D01*
X19148858Y38260046D01*
X18987954Y38099142D01*
X18857432Y37912735D01*
X18857431Y37912733D01*
X18761261Y37706498D01*
X18761258Y37706489D01*
X18702366Y37486698D01*
X18702364Y37486687D01*
X18682532Y37260002D01*
X18682532Y37259999D01*
X18702364Y37033314D01*
X18702366Y37033303D01*
X18761258Y36813512D01*
X18761261Y36813503D01*
X18857431Y36607268D01*
X18857432Y36607266D01*
X18987954Y36420859D01*
X19148858Y36259955D01*
X19148861Y36259953D01*
X19335266Y36129432D01*
X19392681Y36102659D01*
X19393275Y36102382D01*
X19445714Y36056209D01*
X19464866Y35989016D01*
X19444650Y35922135D01*
X19393275Y35877618D01*
X19335267Y35850569D01*
X19335265Y35850568D01*
X19148858Y35720046D01*
X18987954Y35559142D01*
X18857432Y35372735D01*
X18857431Y35372733D01*
X18761261Y35166498D01*
X18761258Y35166489D01*
X18702366Y34946698D01*
X18702365Y34946691D01*
X18682532Y34720002D01*
X18682532Y34719999D01*
X18702364Y34493314D01*
X18702366Y34493303D01*
X18761258Y34273512D01*
X18761261Y34273503D01*
X18857431Y34067268D01*
X18857432Y34067266D01*
X18987954Y33880859D01*
X19148858Y33719955D01*
X19148861Y33719953D01*
X19335266Y33589432D01*
X19393865Y33562107D01*
X19446305Y33515935D01*
X19465457Y33448742D01*
X19445242Y33381861D01*
X19393867Y33337343D01*
X19335515Y33310133D01*
X19149179Y33179658D01*
X18988342Y33018821D01*
X18857865Y32832483D01*
X18761734Y32626327D01*
X18761730Y32626318D01*
X18709127Y32430001D01*
X18709128Y32430000D01*
X19554988Y32430000D01*
X19522075Y32372993D01*
X19488000Y32245826D01*
X19488000Y32114174D01*
X19522075Y31987007D01*
X19554988Y31930000D01*
X18709128Y31930000D01*
X18761730Y31733683D01*
X18761734Y31733674D01*
X18857865Y31527518D01*
X18988342Y31341180D01*
X19149179Y31180343D01*
X19335518Y31049866D01*
X19335520Y31049865D01*
X19393865Y31022658D01*
X19446305Y30976486D01*
X19465457Y30909293D01*
X19445242Y30842411D01*
X19393867Y30797895D01*
X19335268Y30770569D01*
X19335264Y30770567D01*
X19148858Y30640046D01*
X18987954Y30479142D01*
X18857432Y30292735D01*
X18857431Y30292733D01*
X18761261Y30086498D01*
X18761258Y30086489D01*
X18702366Y29866698D01*
X18702364Y29866687D01*
X18682532Y29640002D01*
X18682532Y29639999D01*
X18702364Y29413314D01*
X18702366Y29413303D01*
X18761258Y29193512D01*
X18761261Y29193503D01*
X18857431Y28987268D01*
X18857432Y28987266D01*
X18987954Y28800859D01*
X19148858Y28639955D01*
X19148861Y28639953D01*
X19335266Y28509432D01*
X19393275Y28482382D01*
X19445714Y28436209D01*
X19464866Y28369016D01*
X19444650Y28302135D01*
X19393275Y28257618D01*
X19335267Y28230569D01*
X19335265Y28230568D01*
X19148858Y28100046D01*
X18987954Y27939142D01*
X18857432Y27752735D01*
X18857431Y27752733D01*
X18761261Y27546498D01*
X18761258Y27546489D01*
X18702366Y27326698D01*
X18702364Y27326687D01*
X18682532Y27100002D01*
X18682532Y27099999D01*
X18702364Y26873314D01*
X18702366Y26873303D01*
X18761258Y26653512D01*
X18761261Y26653503D01*
X18857431Y26447268D01*
X18857432Y26447266D01*
X18987954Y26260859D01*
X19148858Y26099955D01*
X19148861Y26099953D01*
X19335266Y25969432D01*
X19393275Y25942382D01*
X19445714Y25896209D01*
X19464866Y25829016D01*
X19444650Y25762135D01*
X19393275Y25717618D01*
X19335267Y25690569D01*
X19335265Y25690568D01*
X19148858Y25560046D01*
X18987954Y25399142D01*
X18857432Y25212735D01*
X18857431Y25212733D01*
X18761261Y25006498D01*
X18761258Y25006489D01*
X18702366Y24786698D01*
X18702364Y24786687D01*
X18682532Y24560002D01*
X18682532Y24559999D01*
X18702364Y24333314D01*
X18702366Y24333303D01*
X18761258Y24113512D01*
X18761261Y24113503D01*
X18857431Y23907268D01*
X18857432Y23907266D01*
X18987954Y23720859D01*
X19148858Y23559955D01*
X19148861Y23559953D01*
X19335266Y23429432D01*
X19358888Y23418417D01*
X19393275Y23402382D01*
X19445714Y23356209D01*
X19464866Y23289016D01*
X19444650Y23222135D01*
X19393275Y23177618D01*
X19335267Y23150569D01*
X19335265Y23150568D01*
X19148858Y23020046D01*
X18987954Y22859142D01*
X18857432Y22672735D01*
X18857431Y22672733D01*
X18761261Y22466498D01*
X18761258Y22466489D01*
X18702366Y22246698D01*
X18702364Y22246687D01*
X18682532Y22020002D01*
X18682532Y22019999D01*
X18702364Y21793314D01*
X18702366Y21793303D01*
X18761258Y21573512D01*
X18761261Y21573503D01*
X18857431Y21367268D01*
X18857432Y21367266D01*
X18987954Y21180859D01*
X19148858Y21019955D01*
X19148861Y21019953D01*
X19335266Y20889432D01*
X19393275Y20862382D01*
X19445714Y20816209D01*
X19464866Y20749016D01*
X19444650Y20682135D01*
X19393275Y20637618D01*
X19335267Y20610569D01*
X19335265Y20610568D01*
X19148858Y20480046D01*
X18987954Y20319142D01*
X18857432Y20132735D01*
X18857431Y20132733D01*
X18761261Y19926498D01*
X18761258Y19926489D01*
X18702366Y19706698D01*
X18702364Y19706687D01*
X18682532Y19480002D01*
X18682532Y19479999D01*
X18702364Y19253314D01*
X18702366Y19253303D01*
X18761258Y19033512D01*
X18761261Y19033503D01*
X18857431Y18827268D01*
X18857432Y18827266D01*
X18987954Y18640859D01*
X19148858Y18479955D01*
X19148861Y18479953D01*
X19335266Y18349432D01*
X19393275Y18322382D01*
X19445714Y18276209D01*
X19464866Y18209016D01*
X19444650Y18142135D01*
X19393275Y18097618D01*
X19335267Y18070569D01*
X19335265Y18070568D01*
X19148858Y17940046D01*
X18987954Y17779142D01*
X18857432Y17592735D01*
X18857431Y17592733D01*
X18761261Y17386498D01*
X18761258Y17386489D01*
X18702366Y17166698D01*
X18702364Y17166687D01*
X18682532Y16940002D01*
X18682532Y16939999D01*
X18702364Y16713314D01*
X18702366Y16713303D01*
X18761258Y16493512D01*
X18761261Y16493503D01*
X18857431Y16287268D01*
X18857432Y16287266D01*
X18987954Y16100859D01*
X19148858Y15939955D01*
X19177370Y15919991D01*
X19335266Y15809432D01*
X19393275Y15782382D01*
X19445714Y15736209D01*
X19464866Y15669016D01*
X19444650Y15602135D01*
X19393275Y15557619D01*
X19376272Y15549690D01*
X19335267Y15530569D01*
X19335265Y15530568D01*
X19148858Y15400046D01*
X18987954Y15239142D01*
X18857432Y15052735D01*
X18857431Y15052733D01*
X18761261Y14846498D01*
X18761258Y14846489D01*
X18702366Y14626698D01*
X18702364Y14626687D01*
X18682532Y14400002D01*
X18682532Y14399999D01*
X18702364Y14173314D01*
X18702366Y14173303D01*
X18761258Y13953512D01*
X18761261Y13953503D01*
X18857431Y13747268D01*
X18857432Y13747266D01*
X18987954Y13560859D01*
X19148858Y13399955D01*
X19148861Y13399953D01*
X19335266Y13269432D01*
X19393275Y13242382D01*
X19445714Y13196209D01*
X19464866Y13129016D01*
X19444650Y13062135D01*
X19393275Y13017618D01*
X19335267Y12990569D01*
X19335265Y12990568D01*
X19148858Y12860046D01*
X18987954Y12699142D01*
X18857432Y12512735D01*
X18857431Y12512733D01*
X18761261Y12306498D01*
X18761258Y12306489D01*
X18702366Y12086698D01*
X18702364Y12086687D01*
X18682532Y11860002D01*
X18682532Y11859999D01*
X18702364Y11633314D01*
X18702366Y11633303D01*
X18761258Y11413512D01*
X18761261Y11413503D01*
X18857431Y11207268D01*
X18857432Y11207266D01*
X18987954Y11020859D01*
X19148858Y10859955D01*
X19148861Y10859953D01*
X19335266Y10729432D01*
X19393275Y10702382D01*
X19445714Y10656209D01*
X19464866Y10589016D01*
X19444650Y10522135D01*
X19393275Y10477618D01*
X19335267Y10450569D01*
X19335265Y10450568D01*
X19148858Y10320046D01*
X18987954Y10159142D01*
X18857432Y9972735D01*
X18857431Y9972733D01*
X18761261Y9766498D01*
X18761258Y9766489D01*
X18702366Y9546698D01*
X18702364Y9546687D01*
X18682532Y9320002D01*
X18682532Y9319999D01*
X18702364Y9093314D01*
X18702366Y9093303D01*
X18761258Y8873512D01*
X18761261Y8873503D01*
X18857431Y8667268D01*
X18857432Y8667266D01*
X18987954Y8480859D01*
X19148858Y8319955D01*
X19148861Y8319953D01*
X19335266Y8189432D01*
X19393275Y8162382D01*
X19445714Y8116209D01*
X19464866Y8049016D01*
X19444650Y7982135D01*
X19393275Y7937618D01*
X19335267Y7910569D01*
X19335265Y7910568D01*
X19148858Y7780046D01*
X18987954Y7619142D01*
X18857432Y7432735D01*
X18857431Y7432733D01*
X18761261Y7226498D01*
X18761258Y7226489D01*
X18702366Y7006698D01*
X18702364Y7006687D01*
X18682532Y6780002D01*
X18682532Y6779999D01*
X18702364Y6553314D01*
X18702366Y6553303D01*
X18761258Y6333512D01*
X18761261Y6333503D01*
X18857431Y6127268D01*
X18857432Y6127266D01*
X18987954Y5940859D01*
X19148858Y5779955D01*
X19154852Y5775758D01*
X19335266Y5649432D01*
X19393275Y5622382D01*
X19445714Y5576209D01*
X19464866Y5509016D01*
X19444650Y5442135D01*
X19393275Y5397618D01*
X19335267Y5370569D01*
X19335265Y5370568D01*
X19148858Y5240046D01*
X18987954Y5079142D01*
X18857432Y4892735D01*
X18857431Y4892733D01*
X18761261Y4686498D01*
X18761258Y4686489D01*
X18702366Y4466698D01*
X18702364Y4466687D01*
X18682532Y4240002D01*
X18682532Y4239999D01*
X18702364Y4013314D01*
X18702366Y4013303D01*
X18761258Y3793512D01*
X18761261Y3793503D01*
X18857431Y3587268D01*
X18857432Y3587266D01*
X18987954Y3400859D01*
X19148858Y3239955D01*
X19148861Y3239953D01*
X19335266Y3109432D01*
X19541502Y3013262D01*
X19546411Y3010973D01*
X19545326Y3008647D01*
X19592932Y2973593D01*
X19617866Y2908324D01*
X19603555Y2839936D01*
X19554542Y2790141D01*
X19494256Y2774500D01*
X16825336Y2774500D01*
X16758297Y2794185D01*
X16737655Y2810819D01*
X13936819Y5611655D01*
X13903334Y5672978D01*
X13900500Y5699336D01*
X13900500Y16723415D01*
X13906569Y16761734D01*
X13919709Y16802174D01*
X13950500Y16996579D01*
X13950500Y20078980D01*
X13952027Y20098378D01*
X13975500Y20246578D01*
X13975500Y20443422D01*
X13952027Y20591622D01*
X13950500Y20611020D01*
X13950500Y23078980D01*
X13952027Y23098378D01*
X13975500Y23246578D01*
X13975500Y23443422D01*
X13957042Y23559955D01*
X13944709Y23637826D01*
X13883883Y23825026D01*
X13814014Y23962154D01*
X13800499Y24018448D01*
X13800499Y24045002D01*
X13800498Y24045019D01*
X13789999Y24147797D01*
X13789998Y24147800D01*
X13735672Y24311744D01*
X13734814Y24314334D01*
X13642712Y24463656D01*
X13518656Y24587712D01*
X13369334Y24679814D01*
X13202797Y24734999D01*
X13202795Y24735000D01*
X13100010Y24745500D01*
X12349998Y24745500D01*
X12349980Y24745499D01*
X12247203Y24735000D01*
X12247200Y24734999D01*
X12080668Y24679815D01*
X12080663Y24679813D01*
X11931342Y24587711D01*
X11807289Y24463658D01*
X11715187Y24314337D01*
X11715185Y24314332D01*
X11689015Y24235355D01*
X11660001Y24147797D01*
X11660001Y24147796D01*
X11660000Y24147796D01*
X11649500Y24045017D01*
X11649500Y24041421D01*
X11632180Y23980004D01*
X11632688Y23979745D01*
X11631389Y23977197D01*
X11631232Y23976638D01*
X11630477Y23975407D01*
X11541117Y23800031D01*
X11530317Y23766791D01*
X11524699Y23749500D01*
X11518303Y23729815D01*
X11480290Y23612827D01*
X11449500Y23418423D01*
X11449500Y17416586D01*
X11443431Y17378267D01*
X11430290Y17337827D01*
X11399500Y17143423D01*
X11399500Y13019500D01*
X11379815Y12952461D01*
X11327011Y12906706D01*
X11275500Y12895500D01*
X11224500Y12895500D01*
X11157461Y12915185D01*
X11111706Y12967989D01*
X11100500Y13019500D01*
X11100499Y14245002D01*
X11100498Y14245019D01*
X11089999Y14347797D01*
X11089998Y14347800D01*
X11072701Y14399999D01*
X11034814Y14514334D01*
X10942712Y14663656D01*
X10886819Y14719549D01*
X10853334Y14780872D01*
X10850500Y14807230D01*
X10850500Y15519337D01*
X10868962Y15584434D01*
X10909809Y15650658D01*
X10909808Y15650658D01*
X10909814Y15650666D01*
X10964999Y15817203D01*
X10975500Y15919991D01*
X10975499Y18170008D01*
X10964999Y18272797D01*
X10909814Y18439334D01*
X10817712Y18588656D01*
X10693656Y18712712D01*
X10564945Y18792101D01*
X10544336Y18804813D01*
X10544335Y18804814D01*
X10544334Y18804814D01*
X10544328Y18804816D01*
X10498221Y18820095D01*
X10440777Y18859868D01*
X10413955Y18924384D01*
X10426271Y18993160D01*
X10472131Y19043339D01*
X10568343Y19102683D01*
X10692315Y19226655D01*
X10784356Y19375876D01*
X10784358Y19375881D01*
X10839505Y19542303D01*
X10839506Y19542310D01*
X10849999Y19645014D01*
X10850000Y19645027D01*
X10850000Y20095000D01*
X9649000Y20095000D01*
X9581961Y20114685D01*
X9536206Y20167489D01*
X9525000Y20219000D01*
X9525000Y20471000D01*
X9544685Y20538039D01*
X9597489Y20583794D01*
X9649000Y20595000D01*
X10849999Y20595000D01*
X10849999Y21044972D01*
X10849998Y21044987D01*
X10839505Y21147698D01*
X10784358Y21314120D01*
X10784356Y21314125D01*
X10692315Y21463346D01*
X10568345Y21587316D01*
X10419124Y21679357D01*
X10419119Y21679359D01*
X10274460Y21727294D01*
X10217015Y21767067D01*
X10190192Y21831583D01*
X10202507Y21900358D01*
X10250050Y21951558D01*
X10274460Y21962706D01*
X10419119Y22010642D01*
X10419124Y22010644D01*
X10568345Y22102685D01*
X10692315Y22226655D01*
X10784356Y22375876D01*
X10784358Y22375881D01*
X10839505Y22542303D01*
X10839506Y22542310D01*
X10849999Y22645014D01*
X10850000Y22645027D01*
X10850000Y23095000D01*
X8700001Y23095000D01*
X8700001Y22645014D01*
X8710494Y22542303D01*
X8765641Y22375881D01*
X8765643Y22375876D01*
X8857684Y22226655D01*
X8981654Y22102685D01*
X9130875Y22010644D01*
X9130880Y22010642D01*
X9275539Y21962707D01*
X9332984Y21922935D01*
X9359807Y21858419D01*
X9347492Y21789643D01*
X9299949Y21738443D01*
X9275540Y21727295D01*
X9130878Y21679358D01*
X9130875Y21679357D01*
X8981654Y21587316D01*
X8857684Y21463346D01*
X8765643Y21314125D01*
X8765641Y21314120D01*
X8717706Y21169461D01*
X8677933Y21112016D01*
X8613417Y21085193D01*
X8544641Y21097508D01*
X8493442Y21145051D01*
X8482294Y21169461D01*
X8434358Y21314120D01*
X8434356Y21314125D01*
X8342315Y21463346D01*
X8218345Y21587316D01*
X8069124Y21679357D01*
X8069119Y21679359D01*
X7902697Y21734506D01*
X7902690Y21734507D01*
X7799986Y21745000D01*
X7675000Y21745000D01*
X7675000Y20219000D01*
X7655315Y20151961D01*
X7602511Y20106206D01*
X7551000Y20095000D01*
X6350001Y20095000D01*
X6350001Y19645014D01*
X6360494Y19542303D01*
X6415641Y19375881D01*
X6415643Y19375876D01*
X6507684Y19226655D01*
X6631656Y19102683D01*
X6759618Y19023756D01*
X6806343Y18971808D01*
X6817566Y18902846D01*
X6789723Y18838763D01*
X6731654Y18799907D01*
X6704253Y18794599D01*
X6672509Y18792101D01*
X6672504Y18792100D01*
X6514806Y18746284D01*
X6514803Y18746283D01*
X6373447Y18662686D01*
X6373438Y18662679D01*
X6257321Y18546562D01*
X6257312Y18546551D01*
X6257017Y18546050D01*
X6256683Y18545739D01*
X6252537Y18540393D01*
X6251674Y18541063D01*
X6205943Y18498371D01*
X6137200Y18485873D01*
X6072614Y18512524D01*
X6048063Y18540860D01*
X6047861Y18540702D01*
X6044967Y18544432D01*
X6043559Y18546058D01*
X6043085Y18546860D01*
X6043076Y18546871D01*
X5926870Y18663077D01*
X5926862Y18663083D01*
X5786179Y18746282D01*
X5785398Y18746744D01*
X5785397Y18746745D01*
X5785396Y18746745D01*
X5785393Y18746747D01*
X5661317Y18782794D01*
X5608231Y18814189D01*
X5511819Y18910601D01*
X5478334Y18971924D01*
X5475500Y18998282D01*
X5475500Y19328202D01*
X5484368Y19368205D01*
X5482542Y19368810D01*
X5484814Y19375666D01*
X5539999Y19542203D01*
X5550500Y19644991D01*
X5550500Y19671557D01*
X5564013Y19727848D01*
X5633884Y19864975D01*
X5694709Y20052174D01*
X5707468Y20132733D01*
X5725500Y20246578D01*
X5725500Y21044987D01*
X6350000Y21044987D01*
X6350000Y20595000D01*
X7175000Y20595000D01*
X7175000Y21745000D01*
X7050027Y21745000D01*
X7050012Y21744999D01*
X6947302Y21734506D01*
X6780880Y21679359D01*
X6780875Y21679357D01*
X6631654Y21587316D01*
X6507684Y21463346D01*
X6415643Y21314125D01*
X6415641Y21314120D01*
X6360494Y21147698D01*
X6360493Y21147691D01*
X6350000Y21044987D01*
X5725500Y21044987D01*
X5725500Y24044987D01*
X8700000Y24044987D01*
X8700000Y23595000D01*
X9525000Y23595000D01*
X10025000Y23595000D01*
X10849999Y23595000D01*
X10849999Y24044972D01*
X10849998Y24044987D01*
X10839505Y24147698D01*
X10784358Y24314120D01*
X10784356Y24314125D01*
X10692315Y24463346D01*
X10568345Y24587316D01*
X10419124Y24679357D01*
X10419119Y24679359D01*
X10252697Y24734506D01*
X10252690Y24734507D01*
X10149986Y24745000D01*
X10025000Y24745000D01*
X10025000Y23595000D01*
X9525000Y23595000D01*
X9525000Y24745000D01*
X9400027Y24745000D01*
X9400012Y24744999D01*
X9297302Y24734506D01*
X9130880Y24679359D01*
X9130875Y24679357D01*
X8981654Y24587316D01*
X8857684Y24463346D01*
X8765643Y24314125D01*
X8765641Y24314120D01*
X8710494Y24147698D01*
X8710493Y24147691D01*
X8700000Y24044987D01*
X5725500Y24044987D01*
X5725500Y32199423D01*
X5694711Y32393817D01*
X5694707Y32393834D01*
X5693059Y32398907D01*
X5693059Y32398906D01*
X5660049Y32500500D01*
X5633884Y32581026D01*
X5633882Y32581029D01*
X5633882Y32581031D01*
X5580916Y32684982D01*
X5544524Y32756405D01*
X5428828Y32915646D01*
X2810819Y35533655D01*
X2777334Y35594978D01*
X2774500Y35621336D01*
X2774500Y37290736D01*
X2794185Y37357775D01*
X2846989Y37403530D01*
X2916147Y37413474D01*
X2950905Y37403118D01*
X3136507Y37316571D01*
X3136516Y37316567D01*
X3350000Y37259366D01*
X3350000Y38156988D01*
X3407007Y38124075D01*
X3534174Y38090000D01*
X3665826Y38090000D01*
X3792993Y38124075D01*
X3850000Y38156988D01*
X3850000Y37259367D01*
X4063483Y37316567D01*
X4063492Y37316571D01*
X4277578Y37416400D01*
X4471082Y37551895D01*
X4638105Y37718918D01*
X4773600Y37912422D01*
X4873429Y38126508D01*
X4873432Y38126514D01*
X4930636Y38340000D01*
X4033012Y38340000D01*
X4065925Y38397007D01*
X4100000Y38524174D01*
X4100000Y38655826D01*
X4065925Y38782993D01*
X4033012Y38840000D01*
X4930636Y38840000D01*
X4930635Y38840001D01*
X4873432Y39053487D01*
X4873429Y39053493D01*
X4773600Y39267578D01*
X4773599Y39267580D01*
X4638113Y39461074D01*
X4638108Y39461080D01*
X4471078Y39628110D01*
X4285405Y39758121D01*
X4241780Y39812698D01*
X4234588Y39882196D01*
X4266110Y39944551D01*
X4285406Y39961270D01*
X4378831Y40026687D01*
X4471401Y40091505D01*
X4638495Y40258599D01*
X4774035Y40452170D01*
X4873903Y40666337D01*
X4935063Y40894592D01*
X4955659Y41130000D01*
X4935063Y41365408D01*
X4873903Y41593663D01*
X4774035Y41807829D01*
X4638495Y42001401D01*
X4638494Y42001403D01*
X4471402Y42168494D01*
X4471396Y42168499D01*
X4285842Y42298425D01*
X4242217Y42353002D01*
X4235023Y42422500D01*
X4266546Y42484855D01*
X4285842Y42501575D01*
X4435083Y42606075D01*
X4471401Y42631505D01*
X4638495Y42798599D01*
X4774035Y42992170D01*
X4873903Y43206337D01*
X4935063Y43434592D01*
X4955659Y43670000D01*
X4935063Y43905408D01*
X4873903Y44133663D01*
X4774035Y44347829D01*
X4638495Y44541401D01*
X4638494Y44541403D01*
X4471402Y44708494D01*
X4471396Y44708499D01*
X4285842Y44838425D01*
X4242217Y44893002D01*
X4235023Y44962500D01*
X4266546Y45024855D01*
X4285842Y45041575D01*
X4389838Y45114394D01*
X4471401Y45171505D01*
X4638495Y45338599D01*
X4774035Y45532170D01*
X4873903Y45746337D01*
X4935063Y45974592D01*
X4955659Y46210000D01*
X4935063Y46445408D01*
X4873903Y46673663D01*
X4774035Y46887829D01*
X4638495Y47081401D01*
X4638494Y47081403D01*
X4471402Y47248494D01*
X4471396Y47248499D01*
X4285842Y47378425D01*
X4242217Y47433002D01*
X4235023Y47502500D01*
X4266546Y47564855D01*
X4285842Y47581575D01*
X4389838Y47654394D01*
X4471401Y47711505D01*
X4638495Y47878599D01*
X4774035Y48072170D01*
X4873903Y48286337D01*
X4935063Y48514592D01*
X4955659Y48750000D01*
X4935063Y48985408D01*
X4873903Y49213663D01*
X4774035Y49427829D01*
X4760869Y49446633D01*
X4638494Y49621403D01*
X4471402Y49788494D01*
X4471401Y49788495D01*
X4285405Y49918731D01*
X4241781Y49973308D01*
X4234588Y50042807D01*
X4266110Y50105161D01*
X4285405Y50121881D01*
X4471082Y50251895D01*
X4638105Y50418918D01*
X4773600Y50612422D01*
X4786460Y50640001D01*
X12064728Y50640001D01*
X12064729Y50640000D01*
X13159252Y50640000D01*
X13137482Y50602292D01*
X13100000Y50462409D01*
X13100000Y50317591D01*
X13137482Y50177708D01*
X13159252Y50140000D01*
X12064728Y50140000D01*
X12064811Y50138933D01*
X12123603Y49894044D01*
X12219980Y49661369D01*
X12351568Y49446638D01*
X12351571Y49446633D01*
X12515130Y49255131D01*
X12706632Y49091572D01*
X12706637Y49091569D01*
X12921368Y48959981D01*
X13154043Y48863604D01*
X13398932Y48804812D01*
X13400000Y48804729D01*
X13400000Y49899253D01*
X13437708Y49877482D01*
X13577591Y49840000D01*
X13722409Y49840000D01*
X13862292Y49877482D01*
X13900000Y49899253D01*
X13900000Y48804729D01*
X13901067Y48804812D01*
X14145956Y48863604D01*
X14378631Y48959981D01*
X14593362Y49091569D01*
X14593367Y49091572D01*
X14784869Y49255131D01*
X14948428Y49446633D01*
X14948431Y49446638D01*
X15080019Y49661369D01*
X15176396Y49894044D01*
X15235188Y50138933D01*
X15235272Y50140000D01*
X14140748Y50140000D01*
X14162518Y50177708D01*
X14200000Y50317591D01*
X14200000Y50462409D01*
X14162518Y50602292D01*
X14140748Y50640000D01*
X15235271Y50640000D01*
X15235271Y50640001D01*
X15235188Y50641068D01*
X15176396Y50885957D01*
X15080019Y51118632D01*
X14948431Y51333363D01*
X14948428Y51333368D01*
X14784869Y51524870D01*
X14593367Y51688429D01*
X14593362Y51688432D01*
X14378631Y51820020D01*
X14145956Y51916397D01*
X13901064Y51975189D01*
X13900000Y51975274D01*
X13900000Y50880748D01*
X13862292Y50902518D01*
X13722409Y50940000D01*
X13577591Y50940000D01*
X13437708Y50902518D01*
X13400000Y50880748D01*
X13400000Y51975274D01*
X13398935Y51975189D01*
X13154043Y51916397D01*
X12921368Y51820020D01*
X12706637Y51688432D01*
X12706632Y51688429D01*
X12515130Y51524870D01*
X12351571Y51333368D01*
X12351568Y51333363D01*
X12219980Y51118632D01*
X12123603Y50885957D01*
X12064811Y50641068D01*
X12064728Y50640001D01*
X4786460Y50640001D01*
X4873429Y50826508D01*
X4873432Y50826514D01*
X4930636Y51040000D01*
X4033012Y51040000D01*
X4065925Y51097007D01*
X4100000Y51224174D01*
X4100000Y51355826D01*
X4065925Y51482993D01*
X4033012Y51540000D01*
X4930636Y51540000D01*
X4930635Y51540001D01*
X4873432Y51753487D01*
X4873429Y51753493D01*
X4773600Y51967578D01*
X4773599Y51967580D01*
X4638113Y52161074D01*
X4638108Y52161080D01*
X4471078Y52328110D01*
X4285405Y52458121D01*
X4241780Y52512698D01*
X4234588Y52582196D01*
X4266110Y52644551D01*
X4285406Y52661270D01*
X4373550Y52722989D01*
X4471401Y52791505D01*
X4638495Y52958599D01*
X4774035Y53152170D01*
X4873903Y53366337D01*
X4935063Y53594592D01*
X4955659Y53830000D01*
X4954322Y53845276D01*
X4951539Y53877082D01*
X4935063Y54065408D01*
X4873903Y54293663D01*
X4774035Y54507829D01*
X4639943Y54699334D01*
X4638494Y54701403D01*
X4471402Y54868494D01*
X4471396Y54868499D01*
X4285842Y54998425D01*
X4242217Y55053002D01*
X4235023Y55122500D01*
X4266546Y55184855D01*
X4285842Y55201575D01*
X4350818Y55247072D01*
X4471401Y55331505D01*
X4638495Y55498599D01*
X4774035Y55692170D01*
X4873903Y55906337D01*
X4935063Y56134592D01*
X4955659Y56370000D01*
X4935063Y56605408D01*
X4873903Y56833663D01*
X4774035Y57047829D01*
X4773755Y57048230D01*
X4638494Y57241403D01*
X4471402Y57408494D01*
X4471396Y57408499D01*
X4285842Y57538425D01*
X4242217Y57593002D01*
X4235023Y57662500D01*
X4266546Y57724855D01*
X4285842Y57741575D01*
X4308026Y57757109D01*
X4471401Y57871505D01*
X4638495Y58038599D01*
X4653097Y58059455D01*
X4685781Y58091435D01*
X4747782Y58132861D01*
X4887139Y58272218D01*
X4996632Y58436086D01*
X5072051Y58618165D01*
X5084632Y58681418D01*
X5110500Y58811457D01*
X5110500Y59008544D01*
X5072052Y59201830D01*
X5072051Y59201831D01*
X5072051Y59201835D01*
X5069636Y59207665D01*
X4996635Y59383908D01*
X4996628Y59383921D01*
X4887139Y59547782D01*
X4887136Y59547786D01*
X4747784Y59687138D01*
X4722741Y59703871D01*
X4685782Y59728566D01*
X4653100Y59760542D01*
X4638495Y59781401D01*
X4516179Y59903717D01*
X4482696Y59965037D01*
X4487680Y60034729D01*
X4529551Y60090663D01*
X4560529Y60107578D01*
X4692086Y60156646D01*
X4692093Y60156650D01*
X4807187Y60242810D01*
X4807190Y60242813D01*
X4893350Y60357907D01*
X4893354Y60357914D01*
X4943596Y60492621D01*
X4943598Y60492628D01*
X4949999Y60552156D01*
X4950000Y60552173D01*
X4950000Y61200000D01*
X4033012Y61200000D01*
X4065925Y61257007D01*
X4100000Y61384174D01*
X4100000Y61515826D01*
X4065925Y61642993D01*
X4033012Y61700000D01*
X4950000Y61700000D01*
X4950000Y62347828D01*
X4949999Y62347845D01*
X4943598Y62407373D01*
X4943596Y62407380D01*
X4893354Y62542087D01*
X4893350Y62542094D01*
X4807190Y62657188D01*
X4807187Y62657191D01*
X4692093Y62743351D01*
X4692086Y62743355D01*
X4557379Y62793597D01*
X4557372Y62793599D01*
X4497844Y62800000D01*
X3850000Y62800000D01*
X3850000Y61883012D01*
X3792993Y61915925D01*
X3665826Y61950000D01*
X3534174Y61950000D01*
X3407007Y61915925D01*
X3350000Y61883012D01*
X3350000Y62800000D01*
X2702155Y62800000D01*
X2642627Y62793599D01*
X2642620Y62793597D01*
X2507913Y62743355D01*
X2507906Y62743351D01*
X2392812Y62657191D01*
X2392809Y62657188D01*
X2306649Y62542094D01*
X2306645Y62542087D01*
X2256403Y62407380D01*
X2256401Y62407373D01*
X2250000Y62347845D01*
X2250000Y61700000D01*
X3166988Y61700000D01*
X3134075Y61642993D01*
X3100000Y61515826D01*
X3100000Y61384174D01*
X3134075Y61257007D01*
X3166988Y61200000D01*
X2250000Y61200000D01*
X2250000Y60552156D01*
X2256401Y60492628D01*
X2256403Y60492621D01*
X2306645Y60357914D01*
X2306649Y60357907D01*
X2392809Y60242813D01*
X2392812Y60242810D01*
X2507906Y60156650D01*
X2507913Y60156646D01*
X2639470Y60107579D01*
X2695403Y60065708D01*
X2719821Y60000244D01*
X2704970Y59931971D01*
X2683819Y59903716D01*
X2561503Y59781400D01*
X2425965Y59587831D01*
X2425964Y59587829D01*
X2326098Y59373665D01*
X2326094Y59373656D01*
X2264938Y59145414D01*
X2264936Y59145404D01*
X2244341Y58910001D01*
X2244341Y58910000D01*
X2264936Y58674597D01*
X2264938Y58674587D01*
X2326094Y58446345D01*
X2326096Y58446341D01*
X2326097Y58446337D01*
X2330880Y58436080D01*
X2425965Y58232170D01*
X2425967Y58232166D01*
X2561501Y58038605D01*
X2561506Y58038598D01*
X2728597Y57871507D01*
X2728603Y57871502D01*
X2914158Y57741575D01*
X2957783Y57686998D01*
X2964977Y57617500D01*
X2933454Y57555145D01*
X2914158Y57538425D01*
X2728597Y57408495D01*
X2561505Y57241403D01*
X2425965Y57047831D01*
X2425964Y57047829D01*
X2326098Y56833665D01*
X2326094Y56833656D01*
X2264938Y56605414D01*
X2264936Y56605404D01*
X2244341Y56370001D01*
X2244341Y56370000D01*
X2264936Y56134597D01*
X2264938Y56134587D01*
X2326094Y55906345D01*
X2326096Y55906341D01*
X2326097Y55906337D01*
X2367320Y55817934D01*
X2425965Y55692170D01*
X2425967Y55692166D01*
X2561501Y55498605D01*
X2561506Y55498598D01*
X2728597Y55331507D01*
X2728603Y55331502D01*
X2914158Y55201575D01*
X2957783Y55146998D01*
X2964977Y55077500D01*
X2933454Y55015145D01*
X2914158Y54998425D01*
X2728597Y54868495D01*
X2561505Y54701403D01*
X2425965Y54507831D01*
X2425964Y54507829D01*
X2326098Y54293665D01*
X2326094Y54293656D01*
X2264938Y54065414D01*
X2264936Y54065404D01*
X2244341Y53830001D01*
X2244341Y53830000D01*
X2264936Y53594597D01*
X2264938Y53594587D01*
X2326094Y53366345D01*
X2326096Y53366341D01*
X2326097Y53366337D01*
X2408663Y53189275D01*
X2425965Y53152170D01*
X2425967Y53152166D01*
X2561501Y52958605D01*
X2561506Y52958598D01*
X2728597Y52791507D01*
X2728603Y52791502D01*
X2914594Y52661270D01*
X2958219Y52606693D01*
X2965413Y52537195D01*
X2933890Y52474840D01*
X2914595Y52458120D01*
X2728922Y52328110D01*
X2728920Y52328109D01*
X2561891Y52161080D01*
X2561886Y52161074D01*
X2426400Y51967580D01*
X2426399Y51967578D01*
X2326570Y51753493D01*
X2326567Y51753487D01*
X2269364Y51540001D01*
X2269364Y51540000D01*
X3166988Y51540000D01*
X3134075Y51482993D01*
X3100000Y51355826D01*
X3100000Y51224174D01*
X3134075Y51097007D01*
X3166988Y51040000D01*
X2269364Y51040000D01*
X2326567Y50826514D01*
X2326570Y50826508D01*
X2426399Y50612422D01*
X2561894Y50418918D01*
X2728917Y50251895D01*
X2914595Y50121881D01*
X2958219Y50067304D01*
X2965412Y49997805D01*
X2933890Y49935451D01*
X2914595Y49918731D01*
X2728594Y49788492D01*
X2561505Y49621403D01*
X2425965Y49427831D01*
X2425964Y49427829D01*
X2326098Y49213665D01*
X2326094Y49213656D01*
X2264938Y48985414D01*
X2264936Y48985404D01*
X2244341Y48750001D01*
X2244341Y48750000D01*
X2264936Y48514597D01*
X2264938Y48514587D01*
X2326094Y48286345D01*
X2326096Y48286341D01*
X2326097Y48286337D01*
X2425965Y48072170D01*
X2425967Y48072166D01*
X2561501Y47878605D01*
X2561506Y47878598D01*
X2728597Y47711507D01*
X2728603Y47711502D01*
X2914158Y47581575D01*
X2957783Y47526998D01*
X2964977Y47457500D01*
X2933454Y47395145D01*
X2914158Y47378425D01*
X2728597Y47248495D01*
X2561505Y47081403D01*
X2425965Y46887831D01*
X2425964Y46887829D01*
X2326098Y46673665D01*
X2326094Y46673656D01*
X2264938Y46445414D01*
X2264936Y46445404D01*
X2244341Y46210001D01*
X2244341Y46210000D01*
X2264936Y45974597D01*
X2264938Y45974587D01*
X2326094Y45746345D01*
X2326096Y45746341D01*
X2326097Y45746337D01*
X2425965Y45532170D01*
X2425967Y45532166D01*
X2561501Y45338605D01*
X2561506Y45338598D01*
X2728597Y45171507D01*
X2728603Y45171502D01*
X2914158Y45041575D01*
X2957783Y44986998D01*
X2964977Y44917500D01*
X2933454Y44855145D01*
X2914158Y44838425D01*
X2728597Y44708495D01*
X2561505Y44541403D01*
X2425965Y44347831D01*
X2425964Y44347829D01*
X2326098Y44133665D01*
X2326094Y44133656D01*
X2264938Y43905414D01*
X2264936Y43905404D01*
X2244341Y43670001D01*
X2244341Y43670000D01*
X2264936Y43434597D01*
X2264938Y43434587D01*
X2326094Y43206345D01*
X2326096Y43206341D01*
X2326097Y43206337D01*
X2425965Y42992170D01*
X2425967Y42992166D01*
X2534281Y42837479D01*
X2561505Y42798599D01*
X2728599Y42631505D01*
X2764917Y42606075D01*
X2808541Y42551498D01*
X2815734Y42481999D01*
X2784212Y42419645D01*
X2723982Y42384231D01*
X2693793Y42380500D01*
X2299497Y42380500D01*
X2105092Y42349710D01*
X1917888Y42288883D01*
X1742513Y42199524D01*
X1699806Y42168495D01*
X1583273Y42083828D01*
X1583271Y42083826D01*
X1583270Y42083826D01*
X570174Y41070730D01*
X570174Y41070729D01*
X570172Y41070727D01*
X550604Y41043794D01*
X454476Y40911487D01*
X365115Y40736108D01*
X365114Y40736105D01*
X339116Y40656087D01*
X304290Y40548905D01*
X304290Y40548904D01*
X273499Y40354502D01*
X273118Y40349648D01*
X248238Y40284358D01*
X192009Y40242884D01*
X122284Y40238394D01*
X61199Y40272312D01*
X28150Y40333871D01*
X25500Y40359370D01*
X25500Y67400500D01*
X45185Y67467539D01*
X97989Y67513294D01*
X149500Y67524500D01*
X2015017Y67524500D01*
X2015019Y67524500D01*
X2042768Y67535994D01*
X2064007Y67557233D01*
X2075501Y67584982D01*
X2075500Y88110003D01*
X45939034Y88110003D01*
X45939034Y88109998D01*
X45958858Y87883401D01*
X45958860Y87883390D01*
X46017730Y87663683D01*
X46017735Y87663669D01*
X46113863Y87457522D01*
X46164974Y87384528D01*
X46844000Y88063554D01*
X46844000Y88057339D01*
X46871259Y87955606D01*
X46923920Y87864394D01*
X46998394Y87789920D01*
X47089606Y87737259D01*
X47191339Y87710000D01*
X47197553Y87710000D01*
X46518526Y87030975D01*
X46591513Y86979868D01*
X46591521Y86979864D01*
X46797668Y86883736D01*
X46797682Y86883731D01*
X47017389Y86824861D01*
X47017400Y86824859D01*
X47243998Y86805034D01*
X47244002Y86805034D01*
X47470599Y86824859D01*
X47470610Y86824861D01*
X47690317Y86883731D01*
X47690331Y86883736D01*
X47896478Y86979864D01*
X47969471Y87030976D01*
X47290447Y87710000D01*
X47296661Y87710000D01*
X47398394Y87737259D01*
X47489606Y87789920D01*
X47564080Y87864394D01*
X47616741Y87955606D01*
X47644000Y88057339D01*
X47644000Y88063553D01*
X48323024Y87384529D01*
X48374136Y87457522D01*
X48470264Y87663669D01*
X48470269Y87663683D01*
X48529139Y87883390D01*
X48529141Y87883401D01*
X48548966Y88109998D01*
X48548966Y88110003D01*
X48529141Y88336600D01*
X48529139Y88336611D01*
X48470269Y88556318D01*
X48470264Y88556332D01*
X48374136Y88762479D01*
X48374132Y88762487D01*
X48323025Y88835474D01*
X47644000Y88156449D01*
X47644000Y88162661D01*
X47616741Y88264394D01*
X47564080Y88355606D01*
X47489606Y88430080D01*
X47398394Y88482741D01*
X47296661Y88510000D01*
X47290448Y88510000D01*
X47969472Y89189026D01*
X47896478Y89240137D01*
X47690331Y89336265D01*
X47690317Y89336270D01*
X47470610Y89395140D01*
X47470599Y89395142D01*
X47244002Y89414966D01*
X47243998Y89414966D01*
X47017400Y89395142D01*
X47017389Y89395140D01*
X46797682Y89336270D01*
X46797673Y89336266D01*
X46591516Y89240134D01*
X46591512Y89240132D01*
X46518526Y89189027D01*
X46518526Y89189026D01*
X47197553Y88510000D01*
X47191339Y88510000D01*
X47089606Y88482741D01*
X46998394Y88430080D01*
X46923920Y88355606D01*
X46871259Y88264394D01*
X46844000Y88162661D01*
X46844000Y88156448D01*
X46164974Y88835474D01*
X46164973Y88835474D01*
X46113868Y88762488D01*
X46113866Y88762484D01*
X46017734Y88556327D01*
X46017730Y88556318D01*
X45958860Y88336611D01*
X45958858Y88336600D01*
X45939034Y88110003D01*
X2075500Y88110003D01*
X2075500Y90500501D01*
X2095185Y90567539D01*
X2147989Y90613294D01*
X2199500Y90624500D01*
X5202289Y90624500D01*
X5202292Y90624500D01*
X5454502Y90647871D01*
X5605140Y90661829D01*
X5605141Y90661829D01*
X5605143Y90661830D01*
X5605149Y90661830D01*
X6002843Y90736172D01*
X6391982Y90846891D01*
X6769245Y90993044D01*
X7131413Y91173382D01*
X7475396Y91386368D01*
X7798261Y91630184D01*
X8097251Y91902750D01*
X8369817Y92201740D01*
X8613633Y92524605D01*
X8826618Y92868588D01*
X9006957Y93230756D01*
X9153109Y93608019D01*
X9263828Y93997158D01*
X9338170Y94394852D01*
X9341779Y94433793D01*
X9358126Y94610213D01*
X9375500Y94797709D01*
X9375500Y95000001D01*
X9375500Y95024532D01*
X9375500Y97800500D01*
X9395185Y97867539D01*
X9447989Y97913294D01*
X9499500Y97924500D01*
X61460265Y97924500D01*
X61527304Y97904815D01*
G37*
%TD.AperFunction*%
%TA.AperFunction,Conductor*%
G36*
X8655357Y19592493D02*
G01*
X8706557Y19544951D01*
X8717705Y19520541D01*
X8765642Y19375879D01*
X8765643Y19375876D01*
X8857684Y19226655D01*
X8981654Y19102685D01*
X9137025Y19006851D01*
X9135666Y19004649D01*
X9179026Y18966487D01*
X9198192Y18899298D01*
X9177991Y18832412D01*
X9139293Y18794717D01*
X9006347Y18712715D01*
X9006343Y18712712D01*
X8882289Y18588658D01*
X8790187Y18439337D01*
X8790186Y18439334D01*
X8735001Y18272797D01*
X8735001Y18272796D01*
X8735000Y18272796D01*
X8724500Y18170017D01*
X8724500Y18169500D01*
X8724468Y18169395D01*
X8724340Y18166861D01*
X8724179Y18166870D01*
X8724179Y18166868D01*
X8724155Y18166871D01*
X8723734Y18166892D01*
X8704815Y18102461D01*
X8652011Y18056706D01*
X8600500Y18045500D01*
X8574000Y18045500D01*
X8506961Y18065185D01*
X8461206Y18117989D01*
X8450000Y18169500D01*
X8450000Y18210635D01*
X8449999Y18210650D01*
X8447100Y18247490D01*
X8447099Y18247496D01*
X8401283Y18405194D01*
X8401282Y18405197D01*
X8317685Y18546553D01*
X8317678Y18546562D01*
X8201561Y18662679D01*
X8201552Y18662686D01*
X8060198Y18746282D01*
X8022957Y18757101D01*
X7964072Y18794708D01*
X7934865Y18858180D01*
X7944611Y18927367D01*
X7990215Y18980301D01*
X8018548Y18993884D01*
X8069119Y19010642D01*
X8069124Y19010644D01*
X8218345Y19102685D01*
X8342315Y19226655D01*
X8434356Y19375876D01*
X8434359Y19375883D01*
X8482293Y19520539D01*
X8522065Y19577984D01*
X8586581Y19604808D01*
X8655357Y19592493D01*
G37*
%TD.AperFunction*%
%TD*%
M02*
