%TF.GenerationSoftware,KiCad,Pcbnew,8.0.5*%
%TF.CreationDate,2024-09-29T16:21:39-04:00*%
%TF.ProjectId,BREAD_Slice,42524541-445f-4536-9c69-63652e6b6963,rev?*%
%TF.SameCoordinates,PX74eba40PY8552dc0*%
%TF.FileFunction,Legend,Top*%
%TF.FilePolarity,Positive*%
%FSLAX46Y46*%
G04 Gerber Fmt 4.6, Leading zero omitted, Abs format (unit mm)*
G04 Created by KiCad (PCBNEW 8.0.5) date 2024-09-29 16:21:39*
%MOMM*%
%LPD*%
G01*
G04 APERTURE LIST*
%ADD10C,0.150000*%
%ADD11C,0.400000*%
%ADD12C,0.100000*%
%ADD13C,0.300000*%
%ADD14C,0.254000*%
%ADD15C,0.120000*%
%ADD16C,0.010000*%
%ADD17C,0.000000*%
%ADD18C,0.177800*%
%ADD19C,0.200000*%
G04 APERTURE END LIST*
D10*
X6686666Y51677610D02*
X6610476Y51715705D01*
X6610476Y51715705D02*
X6496190Y51715705D01*
X6496190Y51715705D02*
X6381904Y51677610D01*
X6381904Y51677610D02*
X6305714Y51601420D01*
X6305714Y51601420D02*
X6267619Y51525229D01*
X6267619Y51525229D02*
X6229523Y51372848D01*
X6229523Y51372848D02*
X6229523Y51258562D01*
X6229523Y51258562D02*
X6267619Y51106181D01*
X6267619Y51106181D02*
X6305714Y51029991D01*
X6305714Y51029991D02*
X6381904Y50953800D01*
X6381904Y50953800D02*
X6496190Y50915705D01*
X6496190Y50915705D02*
X6572381Y50915705D01*
X6572381Y50915705D02*
X6686666Y50953800D01*
X6686666Y50953800D02*
X6724762Y50991896D01*
X6724762Y50991896D02*
X6724762Y51258562D01*
X6724762Y51258562D02*
X6572381Y51258562D01*
X7067619Y50915705D02*
X7067619Y51715705D01*
X7067619Y51715705D02*
X7524762Y50915705D01*
X7524762Y50915705D02*
X7524762Y51715705D01*
X7905714Y50915705D02*
X7905714Y51715705D01*
X7905714Y51715705D02*
X8096190Y51715705D01*
X8096190Y51715705D02*
X8210476Y51677610D01*
X8210476Y51677610D02*
X8286666Y51601420D01*
X8286666Y51601420D02*
X8324761Y51525229D01*
X8324761Y51525229D02*
X8362857Y51372848D01*
X8362857Y51372848D02*
X8362857Y51258562D01*
X8362857Y51258562D02*
X8324761Y51106181D01*
X8324761Y51106181D02*
X8286666Y51029991D01*
X8286666Y51029991D02*
X8210476Y50953800D01*
X8210476Y50953800D02*
X8096190Y50915705D01*
X8096190Y50915705D02*
X7905714Y50915705D01*
D11*
X49404438Y70702382D02*
X51404438Y71369048D01*
X51404438Y71369048D02*
X49404438Y72035715D01*
X51404438Y72702382D02*
X50071104Y72702382D01*
X49404438Y72702382D02*
X49499676Y72607144D01*
X49499676Y72607144D02*
X49594914Y72702382D01*
X49594914Y72702382D02*
X49499676Y72797620D01*
X49499676Y72797620D02*
X49404438Y72702382D01*
X49404438Y72702382D02*
X49594914Y72702382D01*
X50071104Y73654763D02*
X51404438Y73654763D01*
X50261580Y73654763D02*
X50166342Y73750001D01*
X50166342Y73750001D02*
X50071104Y73940477D01*
X50071104Y73940477D02*
X50071104Y74226192D01*
X50071104Y74226192D02*
X50166342Y74416668D01*
X50166342Y74416668D02*
X50356819Y74511906D01*
X50356819Y74511906D02*
X51404438Y74511906D01*
D10*
X55157142Y3145181D02*
X54680952Y3145181D01*
X54680952Y3145181D02*
X54680952Y4145181D01*
X55490476Y3668991D02*
X55823809Y3668991D01*
X55966666Y3145181D02*
X55490476Y3145181D01*
X55490476Y3145181D02*
X55490476Y4145181D01*
X55490476Y4145181D02*
X55966666Y4145181D01*
X56395238Y3145181D02*
X56395238Y4145181D01*
X56395238Y4145181D02*
X56633333Y4145181D01*
X56633333Y4145181D02*
X56776190Y4097562D01*
X56776190Y4097562D02*
X56871428Y4002324D01*
X56871428Y4002324D02*
X56919047Y3907086D01*
X56919047Y3907086D02*
X56966666Y3716610D01*
X56966666Y3716610D02*
X56966666Y3573753D01*
X56966666Y3573753D02*
X56919047Y3383277D01*
X56919047Y3383277D02*
X56871428Y3288039D01*
X56871428Y3288039D02*
X56776190Y3192800D01*
X56776190Y3192800D02*
X56633333Y3145181D01*
X56633333Y3145181D02*
X56395238Y3145181D01*
D11*
X49354438Y78102382D02*
X51354438Y78769048D01*
X51354438Y78769048D02*
X49354438Y79435715D01*
X51354438Y80388096D02*
X51259200Y80197620D01*
X51259200Y80197620D02*
X51163961Y80102382D01*
X51163961Y80102382D02*
X50973485Y80007144D01*
X50973485Y80007144D02*
X50402057Y80007144D01*
X50402057Y80007144D02*
X50211580Y80102382D01*
X50211580Y80102382D02*
X50116342Y80197620D01*
X50116342Y80197620D02*
X50021104Y80388096D01*
X50021104Y80388096D02*
X50021104Y80673811D01*
X50021104Y80673811D02*
X50116342Y80864287D01*
X50116342Y80864287D02*
X50211580Y80959525D01*
X50211580Y80959525D02*
X50402057Y81054763D01*
X50402057Y81054763D02*
X50973485Y81054763D01*
X50973485Y81054763D02*
X51163961Y80959525D01*
X51163961Y80959525D02*
X51259200Y80864287D01*
X51259200Y80864287D02*
X51354438Y80673811D01*
X51354438Y80673811D02*
X51354438Y80388096D01*
X50021104Y82769049D02*
X51354438Y82769049D01*
X50021104Y81911906D02*
X51068723Y81911906D01*
X51068723Y81911906D02*
X51259200Y82007144D01*
X51259200Y82007144D02*
X51354438Y82197620D01*
X51354438Y82197620D02*
X51354438Y82483335D01*
X51354438Y82483335D02*
X51259200Y82673811D01*
X51259200Y82673811D02*
X51163961Y82769049D01*
X50021104Y83435716D02*
X50021104Y84197620D01*
X49354438Y83721430D02*
X51068723Y83721430D01*
X51068723Y83721430D02*
X51259200Y83816668D01*
X51259200Y83816668D02*
X51354438Y84007144D01*
X51354438Y84007144D02*
X51354438Y84197620D01*
D10*
X6686666Y40765705D02*
X6229523Y40765705D01*
X6458095Y40765705D02*
X6458095Y41565705D01*
X6458095Y41565705D02*
X6381904Y41451420D01*
X6381904Y41451420D02*
X6305714Y41375229D01*
X6305714Y41375229D02*
X6229523Y41337134D01*
X6991428Y41489515D02*
X7029524Y41527610D01*
X7029524Y41527610D02*
X7105714Y41565705D01*
X7105714Y41565705D02*
X7296190Y41565705D01*
X7296190Y41565705D02*
X7372381Y41527610D01*
X7372381Y41527610D02*
X7410476Y41489515D01*
X7410476Y41489515D02*
X7448571Y41413324D01*
X7448571Y41413324D02*
X7448571Y41337134D01*
X7448571Y41337134D02*
X7410476Y41222848D01*
X7410476Y41222848D02*
X6953333Y40765705D01*
X6953333Y40765705D02*
X7448571Y40765705D01*
X7677143Y41565705D02*
X7943810Y40765705D01*
X7943810Y40765705D02*
X8210476Y41565705D01*
X52388095Y78944467D02*
X53911905Y78944467D01*
X53150000Y78182562D02*
X53150000Y79706372D01*
X6229523Y45903800D02*
X6343809Y45865705D01*
X6343809Y45865705D02*
X6534285Y45865705D01*
X6534285Y45865705D02*
X6610476Y45903800D01*
X6610476Y45903800D02*
X6648571Y45941896D01*
X6648571Y45941896D02*
X6686666Y46018086D01*
X6686666Y46018086D02*
X6686666Y46094277D01*
X6686666Y46094277D02*
X6648571Y46170467D01*
X6648571Y46170467D02*
X6610476Y46208562D01*
X6610476Y46208562D02*
X6534285Y46246658D01*
X6534285Y46246658D02*
X6381904Y46284753D01*
X6381904Y46284753D02*
X6305714Y46322848D01*
X6305714Y46322848D02*
X6267619Y46360943D01*
X6267619Y46360943D02*
X6229523Y46437134D01*
X6229523Y46437134D02*
X6229523Y46513324D01*
X6229523Y46513324D02*
X6267619Y46589515D01*
X6267619Y46589515D02*
X6305714Y46627610D01*
X6305714Y46627610D02*
X6381904Y46665705D01*
X6381904Y46665705D02*
X6572381Y46665705D01*
X6572381Y46665705D02*
X6686666Y46627610D01*
X7181905Y46246658D02*
X7181905Y45865705D01*
X6915238Y46665705D02*
X7181905Y46246658D01*
X7181905Y46246658D02*
X7448571Y46665705D01*
X7715238Y45865705D02*
X7715238Y46665705D01*
X7715238Y46665705D02*
X8172381Y45865705D01*
X8172381Y45865705D02*
X8172381Y46665705D01*
X9010476Y45941896D02*
X8972380Y45903800D01*
X8972380Y45903800D02*
X8858095Y45865705D01*
X8858095Y45865705D02*
X8781904Y45865705D01*
X8781904Y45865705D02*
X8667618Y45903800D01*
X8667618Y45903800D02*
X8591428Y45979991D01*
X8591428Y45979991D02*
X8553333Y46056181D01*
X8553333Y46056181D02*
X8515237Y46208562D01*
X8515237Y46208562D02*
X8515237Y46322848D01*
X8515237Y46322848D02*
X8553333Y46475229D01*
X8553333Y46475229D02*
X8591428Y46551420D01*
X8591428Y46551420D02*
X8667618Y46627610D01*
X8667618Y46627610D02*
X8781904Y46665705D01*
X8781904Y46665705D02*
X8858095Y46665705D01*
X8858095Y46665705D02*
X8972380Y46627610D01*
X8972380Y46627610D02*
X9010476Y46589515D01*
X6686666Y39027610D02*
X6610476Y39065705D01*
X6610476Y39065705D02*
X6496190Y39065705D01*
X6496190Y39065705D02*
X6381904Y39027610D01*
X6381904Y39027610D02*
X6305714Y38951420D01*
X6305714Y38951420D02*
X6267619Y38875229D01*
X6267619Y38875229D02*
X6229523Y38722848D01*
X6229523Y38722848D02*
X6229523Y38608562D01*
X6229523Y38608562D02*
X6267619Y38456181D01*
X6267619Y38456181D02*
X6305714Y38379991D01*
X6305714Y38379991D02*
X6381904Y38303800D01*
X6381904Y38303800D02*
X6496190Y38265705D01*
X6496190Y38265705D02*
X6572381Y38265705D01*
X6572381Y38265705D02*
X6686666Y38303800D01*
X6686666Y38303800D02*
X6724762Y38341896D01*
X6724762Y38341896D02*
X6724762Y38608562D01*
X6724762Y38608562D02*
X6572381Y38608562D01*
X7067619Y38265705D02*
X7067619Y39065705D01*
X7067619Y39065705D02*
X7524762Y38265705D01*
X7524762Y38265705D02*
X7524762Y39065705D01*
X7905714Y38265705D02*
X7905714Y39065705D01*
X7905714Y39065705D02*
X8096190Y39065705D01*
X8096190Y39065705D02*
X8210476Y39027610D01*
X8210476Y39027610D02*
X8286666Y38951420D01*
X8286666Y38951420D02*
X8324761Y38875229D01*
X8324761Y38875229D02*
X8362857Y38722848D01*
X8362857Y38722848D02*
X8362857Y38608562D01*
X8362857Y38608562D02*
X8324761Y38456181D01*
X8324761Y38456181D02*
X8286666Y38379991D01*
X8286666Y38379991D02*
X8210476Y38303800D01*
X8210476Y38303800D02*
X8096190Y38265705D01*
X8096190Y38265705D02*
X7905714Y38265705D01*
X7588878Y35879888D02*
X7541259Y35737031D01*
X7541259Y35737031D02*
X7493640Y35689412D01*
X7493640Y35689412D02*
X7398402Y35641793D01*
X7398402Y35641793D02*
X7255545Y35641793D01*
X7255545Y35641793D02*
X7160307Y35689412D01*
X7160307Y35689412D02*
X7112688Y35737031D01*
X7112688Y35737031D02*
X7065068Y35832269D01*
X7065068Y35832269D02*
X7065068Y36213221D01*
X7065068Y36213221D02*
X8065068Y36213221D01*
X8065068Y36213221D02*
X8065068Y35879888D01*
X8065068Y35879888D02*
X8017449Y35784650D01*
X8017449Y35784650D02*
X7969830Y35737031D01*
X7969830Y35737031D02*
X7874592Y35689412D01*
X7874592Y35689412D02*
X7779354Y35689412D01*
X7779354Y35689412D02*
X7684116Y35737031D01*
X7684116Y35737031D02*
X7636497Y35784650D01*
X7636497Y35784650D02*
X7588878Y35879888D01*
X7588878Y35879888D02*
X7588878Y36213221D01*
X7065068Y34641793D02*
X7541259Y34975126D01*
X7065068Y35213221D02*
X8065068Y35213221D01*
X8065068Y35213221D02*
X8065068Y34832269D01*
X8065068Y34832269D02*
X8017449Y34737031D01*
X8017449Y34737031D02*
X7969830Y34689412D01*
X7969830Y34689412D02*
X7874592Y34641793D01*
X7874592Y34641793D02*
X7731735Y34641793D01*
X7731735Y34641793D02*
X7636497Y34689412D01*
X7636497Y34689412D02*
X7588878Y34737031D01*
X7588878Y34737031D02*
X7541259Y34832269D01*
X7541259Y34832269D02*
X7541259Y35213221D01*
X7588878Y34213221D02*
X7588878Y33879888D01*
X7065068Y33737031D02*
X7065068Y34213221D01*
X7065068Y34213221D02*
X8065068Y34213221D01*
X8065068Y34213221D02*
X8065068Y33737031D01*
X7350783Y33356078D02*
X7350783Y32879888D01*
X7065068Y33451316D02*
X8065068Y33117983D01*
X8065068Y33117983D02*
X7065068Y32784650D01*
X7065068Y32451316D02*
X8065068Y32451316D01*
X8065068Y32451316D02*
X8065068Y32213221D01*
X8065068Y32213221D02*
X8017449Y32070364D01*
X8017449Y32070364D02*
X7922211Y31975126D01*
X7922211Y31975126D02*
X7826973Y31927507D01*
X7826973Y31927507D02*
X7636497Y31879888D01*
X7636497Y31879888D02*
X7493640Y31879888D01*
X7493640Y31879888D02*
X7303164Y31927507D01*
X7303164Y31927507D02*
X7207926Y31975126D01*
X7207926Y31975126D02*
X7112688Y32070364D01*
X7112688Y32070364D02*
X7065068Y32213221D01*
X7065068Y32213221D02*
X7065068Y32451316D01*
X7112688Y30737030D02*
X7065068Y30594173D01*
X7065068Y30594173D02*
X7065068Y30356078D01*
X7065068Y30356078D02*
X7112688Y30260840D01*
X7112688Y30260840D02*
X7160307Y30213221D01*
X7160307Y30213221D02*
X7255545Y30165602D01*
X7255545Y30165602D02*
X7350783Y30165602D01*
X7350783Y30165602D02*
X7446021Y30213221D01*
X7446021Y30213221D02*
X7493640Y30260840D01*
X7493640Y30260840D02*
X7541259Y30356078D01*
X7541259Y30356078D02*
X7588878Y30546554D01*
X7588878Y30546554D02*
X7636497Y30641792D01*
X7636497Y30641792D02*
X7684116Y30689411D01*
X7684116Y30689411D02*
X7779354Y30737030D01*
X7779354Y30737030D02*
X7874592Y30737030D01*
X7874592Y30737030D02*
X7969830Y30689411D01*
X7969830Y30689411D02*
X8017449Y30641792D01*
X8017449Y30641792D02*
X8065068Y30546554D01*
X8065068Y30546554D02*
X8065068Y30308459D01*
X8065068Y30308459D02*
X8017449Y30165602D01*
X7065068Y29594173D02*
X7112688Y29689411D01*
X7112688Y29689411D02*
X7207926Y29737030D01*
X7207926Y29737030D02*
X8065068Y29737030D01*
X7065068Y29213220D02*
X7731735Y29213220D01*
X8065068Y29213220D02*
X8017449Y29260839D01*
X8017449Y29260839D02*
X7969830Y29213220D01*
X7969830Y29213220D02*
X8017449Y29165601D01*
X8017449Y29165601D02*
X8065068Y29213220D01*
X8065068Y29213220D02*
X7969830Y29213220D01*
X7112688Y28308459D02*
X7065068Y28403697D01*
X7065068Y28403697D02*
X7065068Y28594173D01*
X7065068Y28594173D02*
X7112688Y28689411D01*
X7112688Y28689411D02*
X7160307Y28737030D01*
X7160307Y28737030D02*
X7255545Y28784649D01*
X7255545Y28784649D02*
X7541259Y28784649D01*
X7541259Y28784649D02*
X7636497Y28737030D01*
X7636497Y28737030D02*
X7684116Y28689411D01*
X7684116Y28689411D02*
X7731735Y28594173D01*
X7731735Y28594173D02*
X7731735Y28403697D01*
X7731735Y28403697D02*
X7684116Y28308459D01*
X7112688Y27498935D02*
X7065068Y27594173D01*
X7065068Y27594173D02*
X7065068Y27784649D01*
X7065068Y27784649D02*
X7112688Y27879887D01*
X7112688Y27879887D02*
X7207926Y27927506D01*
X7207926Y27927506D02*
X7588878Y27927506D01*
X7588878Y27927506D02*
X7684116Y27879887D01*
X7684116Y27879887D02*
X7731735Y27784649D01*
X7731735Y27784649D02*
X7731735Y27594173D01*
X7731735Y27594173D02*
X7684116Y27498935D01*
X7684116Y27498935D02*
X7588878Y27451316D01*
X7588878Y27451316D02*
X7493640Y27451316D01*
X7493640Y27451316D02*
X7398402Y27927506D01*
X5978934Y35879888D02*
X5931315Y35737031D01*
X5931315Y35737031D02*
X5883696Y35689412D01*
X5883696Y35689412D02*
X5788458Y35641793D01*
X5788458Y35641793D02*
X5645601Y35641793D01*
X5645601Y35641793D02*
X5550363Y35689412D01*
X5550363Y35689412D02*
X5502744Y35737031D01*
X5502744Y35737031D02*
X5455124Y35832269D01*
X5455124Y35832269D02*
X5455124Y36213221D01*
X5455124Y36213221D02*
X6455124Y36213221D01*
X6455124Y36213221D02*
X6455124Y35879888D01*
X6455124Y35879888D02*
X6407505Y35784650D01*
X6407505Y35784650D02*
X6359886Y35737031D01*
X6359886Y35737031D02*
X6264648Y35689412D01*
X6264648Y35689412D02*
X6169410Y35689412D01*
X6169410Y35689412D02*
X6074172Y35737031D01*
X6074172Y35737031D02*
X6026553Y35784650D01*
X6026553Y35784650D02*
X5978934Y35879888D01*
X5978934Y35879888D02*
X5978934Y36213221D01*
X6121791Y34784650D02*
X5455124Y34784650D01*
X6121791Y35213221D02*
X5597982Y35213221D01*
X5597982Y35213221D02*
X5502744Y35165602D01*
X5502744Y35165602D02*
X5455124Y35070364D01*
X5455124Y35070364D02*
X5455124Y34927507D01*
X5455124Y34927507D02*
X5502744Y34832269D01*
X5502744Y34832269D02*
X5550363Y34784650D01*
X5502744Y33879888D02*
X5455124Y33975126D01*
X5455124Y33975126D02*
X5455124Y34165602D01*
X5455124Y34165602D02*
X5502744Y34260840D01*
X5502744Y34260840D02*
X5550363Y34308459D01*
X5550363Y34308459D02*
X5645601Y34356078D01*
X5645601Y34356078D02*
X5931315Y34356078D01*
X5931315Y34356078D02*
X6026553Y34308459D01*
X6026553Y34308459D02*
X6074172Y34260840D01*
X6074172Y34260840D02*
X6121791Y34165602D01*
X6121791Y34165602D02*
X6121791Y33975126D01*
X6121791Y33975126D02*
X6074172Y33879888D01*
X5455124Y33451316D02*
X6455124Y33451316D01*
X5836077Y33356078D02*
X5455124Y33070364D01*
X6121791Y33070364D02*
X5740839Y33451316D01*
X5550363Y31308459D02*
X5502744Y31356078D01*
X5502744Y31356078D02*
X5455124Y31498935D01*
X5455124Y31498935D02*
X5455124Y31594173D01*
X5455124Y31594173D02*
X5502744Y31737030D01*
X5502744Y31737030D02*
X5597982Y31832268D01*
X5597982Y31832268D02*
X5693220Y31879887D01*
X5693220Y31879887D02*
X5883696Y31927506D01*
X5883696Y31927506D02*
X6026553Y31927506D01*
X6026553Y31927506D02*
X6217029Y31879887D01*
X6217029Y31879887D02*
X6312267Y31832268D01*
X6312267Y31832268D02*
X6407505Y31737030D01*
X6407505Y31737030D02*
X6455124Y31594173D01*
X6455124Y31594173D02*
X6455124Y31498935D01*
X6455124Y31498935D02*
X6407505Y31356078D01*
X6407505Y31356078D02*
X6359886Y31308459D01*
X5455124Y30737030D02*
X5502744Y30832268D01*
X5502744Y30832268D02*
X5550363Y30879887D01*
X5550363Y30879887D02*
X5645601Y30927506D01*
X5645601Y30927506D02*
X5931315Y30927506D01*
X5931315Y30927506D02*
X6026553Y30879887D01*
X6026553Y30879887D02*
X6074172Y30832268D01*
X6074172Y30832268D02*
X6121791Y30737030D01*
X6121791Y30737030D02*
X6121791Y30594173D01*
X6121791Y30594173D02*
X6074172Y30498935D01*
X6074172Y30498935D02*
X6026553Y30451316D01*
X6026553Y30451316D02*
X5931315Y30403697D01*
X5931315Y30403697D02*
X5645601Y30403697D01*
X5645601Y30403697D02*
X5550363Y30451316D01*
X5550363Y30451316D02*
X5502744Y30498935D01*
X5502744Y30498935D02*
X5455124Y30594173D01*
X5455124Y30594173D02*
X5455124Y30737030D01*
X6121791Y29975125D02*
X5455124Y29975125D01*
X6026553Y29975125D02*
X6074172Y29927506D01*
X6074172Y29927506D02*
X6121791Y29832268D01*
X6121791Y29832268D02*
X6121791Y29689411D01*
X6121791Y29689411D02*
X6074172Y29594173D01*
X6074172Y29594173D02*
X5978934Y29546554D01*
X5978934Y29546554D02*
X5455124Y29546554D01*
X6121791Y29165601D02*
X5455124Y28927506D01*
X5455124Y28927506D02*
X6121791Y28689411D01*
X5502744Y27927506D02*
X5455124Y28022744D01*
X5455124Y28022744D02*
X5455124Y28213220D01*
X5455124Y28213220D02*
X5502744Y28308458D01*
X5502744Y28308458D02*
X5597982Y28356077D01*
X5597982Y28356077D02*
X5978934Y28356077D01*
X5978934Y28356077D02*
X6074172Y28308458D01*
X6074172Y28308458D02*
X6121791Y28213220D01*
X6121791Y28213220D02*
X6121791Y28022744D01*
X6121791Y28022744D02*
X6074172Y27927506D01*
X6074172Y27927506D02*
X5978934Y27879887D01*
X5978934Y27879887D02*
X5883696Y27879887D01*
X5883696Y27879887D02*
X5788458Y28356077D01*
X5455124Y27451315D02*
X6121791Y27451315D01*
X5931315Y27451315D02*
X6026553Y27403696D01*
X6026553Y27403696D02*
X6074172Y27356077D01*
X6074172Y27356077D02*
X6121791Y27260839D01*
X6121791Y27260839D02*
X6121791Y27165601D01*
X6121791Y26975124D02*
X6121791Y26594172D01*
X6455124Y26832267D02*
X5597982Y26832267D01*
X5597982Y26832267D02*
X5502744Y26784648D01*
X5502744Y26784648D02*
X5455124Y26689410D01*
X5455124Y26689410D02*
X5455124Y26594172D01*
X5502744Y25879886D02*
X5455124Y25975124D01*
X5455124Y25975124D02*
X5455124Y26165600D01*
X5455124Y26165600D02*
X5502744Y26260838D01*
X5502744Y26260838D02*
X5597982Y26308457D01*
X5597982Y26308457D02*
X5978934Y26308457D01*
X5978934Y26308457D02*
X6074172Y26260838D01*
X6074172Y26260838D02*
X6121791Y26165600D01*
X6121791Y26165600D02*
X6121791Y25975124D01*
X6121791Y25975124D02*
X6074172Y25879886D01*
X6074172Y25879886D02*
X5978934Y25832267D01*
X5978934Y25832267D02*
X5883696Y25832267D01*
X5883696Y25832267D02*
X5788458Y26308457D01*
X5455124Y25403695D02*
X6121791Y25403695D01*
X5931315Y25403695D02*
X6026553Y25356076D01*
X6026553Y25356076D02*
X6074172Y25308457D01*
X6074172Y25308457D02*
X6121791Y25213219D01*
X6121791Y25213219D02*
X6121791Y25117981D01*
X3464228Y35927507D02*
X3511847Y35975126D01*
X3511847Y35975126D02*
X3654704Y36070364D01*
X3654704Y36070364D02*
X3749942Y36117983D01*
X3749942Y36117983D02*
X3892800Y36165602D01*
X3892800Y36165602D02*
X4130895Y36213221D01*
X4130895Y36213221D02*
X4321371Y36213221D01*
X4321371Y36213221D02*
X4559466Y36165602D01*
X4559466Y36165602D02*
X4702323Y36117983D01*
X4702323Y36117983D02*
X4797561Y36070364D01*
X4797561Y36070364D02*
X4940419Y35975126D01*
X4940419Y35975126D02*
X4988038Y35927507D01*
X3892800Y35594173D02*
X3845180Y35451316D01*
X3845180Y35451316D02*
X3845180Y35213221D01*
X3845180Y35213221D02*
X3892800Y35117983D01*
X3892800Y35117983D02*
X3940419Y35070364D01*
X3940419Y35070364D02*
X4035657Y35022745D01*
X4035657Y35022745D02*
X4130895Y35022745D01*
X4130895Y35022745D02*
X4226133Y35070364D01*
X4226133Y35070364D02*
X4273752Y35117983D01*
X4273752Y35117983D02*
X4321371Y35213221D01*
X4321371Y35213221D02*
X4368990Y35403697D01*
X4368990Y35403697D02*
X4416609Y35498935D01*
X4416609Y35498935D02*
X4464228Y35546554D01*
X4464228Y35546554D02*
X4559466Y35594173D01*
X4559466Y35594173D02*
X4654704Y35594173D01*
X4654704Y35594173D02*
X4749942Y35546554D01*
X4749942Y35546554D02*
X4797561Y35498935D01*
X4797561Y35498935D02*
X4845180Y35403697D01*
X4845180Y35403697D02*
X4845180Y35165602D01*
X4845180Y35165602D02*
X4797561Y35022745D01*
X3845180Y34117983D02*
X3845180Y34594173D01*
X3845180Y34594173D02*
X4845180Y34594173D01*
X3940419Y33213221D02*
X3892800Y33260840D01*
X3892800Y33260840D02*
X3845180Y33403697D01*
X3845180Y33403697D02*
X3845180Y33498935D01*
X3845180Y33498935D02*
X3892800Y33641792D01*
X3892800Y33641792D02*
X3988038Y33737030D01*
X3988038Y33737030D02*
X4083276Y33784649D01*
X4083276Y33784649D02*
X4273752Y33832268D01*
X4273752Y33832268D02*
X4416609Y33832268D01*
X4416609Y33832268D02*
X4607085Y33784649D01*
X4607085Y33784649D02*
X4702323Y33737030D01*
X4702323Y33737030D02*
X4797561Y33641792D01*
X4797561Y33641792D02*
X4845180Y33498935D01*
X4845180Y33498935D02*
X4845180Y33403697D01*
X4845180Y33403697D02*
X4797561Y33260840D01*
X4797561Y33260840D02*
X4749942Y33213221D01*
X3749942Y33022744D02*
X3749942Y32260840D01*
X4368990Y31689411D02*
X4321371Y31546554D01*
X4321371Y31546554D02*
X4273752Y31498935D01*
X4273752Y31498935D02*
X4178514Y31451316D01*
X4178514Y31451316D02*
X4035657Y31451316D01*
X4035657Y31451316D02*
X3940419Y31498935D01*
X3940419Y31498935D02*
X3892800Y31546554D01*
X3892800Y31546554D02*
X3845180Y31641792D01*
X3845180Y31641792D02*
X3845180Y32022744D01*
X3845180Y32022744D02*
X4845180Y32022744D01*
X4845180Y32022744D02*
X4845180Y31689411D01*
X4845180Y31689411D02*
X4797561Y31594173D01*
X4797561Y31594173D02*
X4749942Y31546554D01*
X4749942Y31546554D02*
X4654704Y31498935D01*
X4654704Y31498935D02*
X4559466Y31498935D01*
X4559466Y31498935D02*
X4464228Y31546554D01*
X4464228Y31546554D02*
X4416609Y31594173D01*
X4416609Y31594173D02*
X4368990Y31689411D01*
X4368990Y31689411D02*
X4368990Y32022744D01*
X4845180Y31022744D02*
X4035657Y31022744D01*
X4035657Y31022744D02*
X3940419Y30975125D01*
X3940419Y30975125D02*
X3892800Y30927506D01*
X3892800Y30927506D02*
X3845180Y30832268D01*
X3845180Y30832268D02*
X3845180Y30641792D01*
X3845180Y30641792D02*
X3892800Y30546554D01*
X3892800Y30546554D02*
X3940419Y30498935D01*
X3940419Y30498935D02*
X4035657Y30451316D01*
X4035657Y30451316D02*
X4845180Y30451316D01*
X3940419Y29403697D02*
X3892800Y29451316D01*
X3892800Y29451316D02*
X3845180Y29594173D01*
X3845180Y29594173D02*
X3845180Y29689411D01*
X3845180Y29689411D02*
X3892800Y29832268D01*
X3892800Y29832268D02*
X3988038Y29927506D01*
X3988038Y29927506D02*
X4083276Y29975125D01*
X4083276Y29975125D02*
X4273752Y30022744D01*
X4273752Y30022744D02*
X4416609Y30022744D01*
X4416609Y30022744D02*
X4607085Y29975125D01*
X4607085Y29975125D02*
X4702323Y29927506D01*
X4702323Y29927506D02*
X4797561Y29832268D01*
X4797561Y29832268D02*
X4845180Y29689411D01*
X4845180Y29689411D02*
X4845180Y29594173D01*
X4845180Y29594173D02*
X4797561Y29451316D01*
X4797561Y29451316D02*
X4749942Y29403697D01*
X3845180Y28975125D02*
X4845180Y28975125D01*
X3845180Y28403697D02*
X4416609Y28832268D01*
X4845180Y28403697D02*
X4273752Y28975125D01*
X3464228Y28070363D02*
X3511847Y28022744D01*
X3511847Y28022744D02*
X3654704Y27927506D01*
X3654704Y27927506D02*
X3749942Y27879887D01*
X3749942Y27879887D02*
X3892800Y27832268D01*
X3892800Y27832268D02*
X4130895Y27784649D01*
X4130895Y27784649D02*
X4321371Y27784649D01*
X4321371Y27784649D02*
X4559466Y27832268D01*
X4559466Y27832268D02*
X4702323Y27879887D01*
X4702323Y27879887D02*
X4797561Y27927506D01*
X4797561Y27927506D02*
X4940419Y28022744D01*
X4940419Y28022744D02*
X4988038Y28070363D01*
X2330475Y35641793D02*
X2282856Y35689412D01*
X2282856Y35689412D02*
X2235236Y35832269D01*
X2235236Y35832269D02*
X2235236Y35927507D01*
X2235236Y35927507D02*
X2282856Y36070364D01*
X2282856Y36070364D02*
X2378094Y36165602D01*
X2378094Y36165602D02*
X2473332Y36213221D01*
X2473332Y36213221D02*
X2663808Y36260840D01*
X2663808Y36260840D02*
X2806665Y36260840D01*
X2806665Y36260840D02*
X2997141Y36213221D01*
X2997141Y36213221D02*
X3092379Y36165602D01*
X3092379Y36165602D02*
X3187617Y36070364D01*
X3187617Y36070364D02*
X3235236Y35927507D01*
X3235236Y35927507D02*
X3235236Y35832269D01*
X3235236Y35832269D02*
X3187617Y35689412D01*
X3187617Y35689412D02*
X3139998Y35641793D01*
X2235236Y34784650D02*
X2759046Y34784650D01*
X2759046Y34784650D02*
X2854284Y34832269D01*
X2854284Y34832269D02*
X2901903Y34927507D01*
X2901903Y34927507D02*
X2901903Y35117983D01*
X2901903Y35117983D02*
X2854284Y35213221D01*
X2282856Y34784650D02*
X2235236Y34879888D01*
X2235236Y34879888D02*
X2235236Y35117983D01*
X2235236Y35117983D02*
X2282856Y35213221D01*
X2282856Y35213221D02*
X2378094Y35260840D01*
X2378094Y35260840D02*
X2473332Y35260840D01*
X2473332Y35260840D02*
X2568570Y35213221D01*
X2568570Y35213221D02*
X2616189Y35117983D01*
X2616189Y35117983D02*
X2616189Y34879888D01*
X2616189Y34879888D02*
X2663808Y34784650D01*
X2235236Y34308459D02*
X2901903Y34308459D01*
X2806665Y34308459D02*
X2854284Y34260840D01*
X2854284Y34260840D02*
X2901903Y34165602D01*
X2901903Y34165602D02*
X2901903Y34022745D01*
X2901903Y34022745D02*
X2854284Y33927507D01*
X2854284Y33927507D02*
X2759046Y33879888D01*
X2759046Y33879888D02*
X2235236Y33879888D01*
X2759046Y33879888D02*
X2854284Y33832269D01*
X2854284Y33832269D02*
X2901903Y33737031D01*
X2901903Y33737031D02*
X2901903Y33594174D01*
X2901903Y33594174D02*
X2854284Y33498935D01*
X2854284Y33498935D02*
X2759046Y33451316D01*
X2759046Y33451316D02*
X2235236Y33451316D01*
X2235236Y32213221D02*
X3235236Y32213221D01*
X2235236Y31641793D02*
X2806665Y32070364D01*
X3235236Y31641793D02*
X2663808Y32213221D01*
X2759046Y30117983D02*
X2711427Y29975126D01*
X2711427Y29975126D02*
X2663808Y29927507D01*
X2663808Y29927507D02*
X2568570Y29879888D01*
X2568570Y29879888D02*
X2425713Y29879888D01*
X2425713Y29879888D02*
X2330475Y29927507D01*
X2330475Y29927507D02*
X2282856Y29975126D01*
X2282856Y29975126D02*
X2235236Y30070364D01*
X2235236Y30070364D02*
X2235236Y30451316D01*
X2235236Y30451316D02*
X3235236Y30451316D01*
X3235236Y30451316D02*
X3235236Y30117983D01*
X3235236Y30117983D02*
X3187617Y30022745D01*
X3187617Y30022745D02*
X3139998Y29975126D01*
X3139998Y29975126D02*
X3044760Y29927507D01*
X3044760Y29927507D02*
X2949522Y29927507D01*
X2949522Y29927507D02*
X2854284Y29975126D01*
X2854284Y29975126D02*
X2806665Y30022745D01*
X2806665Y30022745D02*
X2759046Y30117983D01*
X2759046Y30117983D02*
X2759046Y30451316D01*
X2235236Y29451316D02*
X2901903Y29451316D01*
X2711427Y29451316D02*
X2806665Y29403697D01*
X2806665Y29403697D02*
X2854284Y29356078D01*
X2854284Y29356078D02*
X2901903Y29260840D01*
X2901903Y29260840D02*
X2901903Y29165602D01*
X2235236Y28689411D02*
X2282856Y28784649D01*
X2282856Y28784649D02*
X2330475Y28832268D01*
X2330475Y28832268D02*
X2425713Y28879887D01*
X2425713Y28879887D02*
X2711427Y28879887D01*
X2711427Y28879887D02*
X2806665Y28832268D01*
X2806665Y28832268D02*
X2854284Y28784649D01*
X2854284Y28784649D02*
X2901903Y28689411D01*
X2901903Y28689411D02*
X2901903Y28546554D01*
X2901903Y28546554D02*
X2854284Y28451316D01*
X2854284Y28451316D02*
X2806665Y28403697D01*
X2806665Y28403697D02*
X2711427Y28356078D01*
X2711427Y28356078D02*
X2425713Y28356078D01*
X2425713Y28356078D02*
X2330475Y28403697D01*
X2330475Y28403697D02*
X2282856Y28451316D01*
X2282856Y28451316D02*
X2235236Y28546554D01*
X2235236Y28546554D02*
X2235236Y28689411D01*
X2235236Y27784649D02*
X2282856Y27879887D01*
X2282856Y27879887D02*
X2330475Y27927506D01*
X2330475Y27927506D02*
X2425713Y27975125D01*
X2425713Y27975125D02*
X2711427Y27975125D01*
X2711427Y27975125D02*
X2806665Y27927506D01*
X2806665Y27927506D02*
X2854284Y27879887D01*
X2854284Y27879887D02*
X2901903Y27784649D01*
X2901903Y27784649D02*
X2901903Y27641792D01*
X2901903Y27641792D02*
X2854284Y27546554D01*
X2854284Y27546554D02*
X2806665Y27498935D01*
X2806665Y27498935D02*
X2711427Y27451316D01*
X2711427Y27451316D02*
X2425713Y27451316D01*
X2425713Y27451316D02*
X2330475Y27498935D01*
X2330475Y27498935D02*
X2282856Y27546554D01*
X2282856Y27546554D02*
X2235236Y27641792D01*
X2235236Y27641792D02*
X2235236Y27784649D01*
X2235236Y27022744D02*
X3235236Y27022744D01*
X2616189Y26927506D02*
X2235236Y26641792D01*
X2901903Y26641792D02*
X2520951Y27022744D01*
X2282856Y26260839D02*
X2235236Y26165601D01*
X2235236Y26165601D02*
X2235236Y25975125D01*
X2235236Y25975125D02*
X2282856Y25879887D01*
X2282856Y25879887D02*
X2378094Y25832268D01*
X2378094Y25832268D02*
X2425713Y25832268D01*
X2425713Y25832268D02*
X2520951Y25879887D01*
X2520951Y25879887D02*
X2568570Y25975125D01*
X2568570Y25975125D02*
X2568570Y26117982D01*
X2568570Y26117982D02*
X2616189Y26213220D01*
X2616189Y26213220D02*
X2711427Y26260839D01*
X2711427Y26260839D02*
X2759046Y26260839D01*
X2759046Y26260839D02*
X2854284Y26213220D01*
X2854284Y26213220D02*
X2901903Y26117982D01*
X2901903Y26117982D02*
X2901903Y25975125D01*
X2901903Y25975125D02*
X2854284Y25879887D01*
X625292Y36213221D02*
X1291959Y36213221D01*
X1101483Y36213221D02*
X1196721Y36165602D01*
X1196721Y36165602D02*
X1244340Y36117983D01*
X1244340Y36117983D02*
X1291959Y36022745D01*
X1291959Y36022745D02*
X1291959Y35927507D01*
X672912Y35213221D02*
X625292Y35308459D01*
X625292Y35308459D02*
X625292Y35498935D01*
X625292Y35498935D02*
X672912Y35594173D01*
X672912Y35594173D02*
X768150Y35641792D01*
X768150Y35641792D02*
X1149102Y35641792D01*
X1149102Y35641792D02*
X1244340Y35594173D01*
X1244340Y35594173D02*
X1291959Y35498935D01*
X1291959Y35498935D02*
X1291959Y35308459D01*
X1291959Y35308459D02*
X1244340Y35213221D01*
X1244340Y35213221D02*
X1149102Y35165602D01*
X1149102Y35165602D02*
X1053864Y35165602D01*
X1053864Y35165602D02*
X958626Y35641792D01*
X1291959Y34832268D02*
X625292Y34594173D01*
X625292Y34594173D02*
X1291959Y34356078D01*
X720531Y33975125D02*
X672912Y33927506D01*
X672912Y33927506D02*
X625292Y33975125D01*
X625292Y33975125D02*
X672912Y34022744D01*
X672912Y34022744D02*
X720531Y33975125D01*
X720531Y33975125D02*
X625292Y33975125D01*
X911007Y33546554D02*
X911007Y33070364D01*
X625292Y33641792D02*
X1625292Y33308459D01*
X1625292Y33308459D02*
X625292Y32975126D01*
X291959Y31594173D02*
X291959Y31832268D01*
X291959Y31832268D02*
X1720531Y31832268D01*
X1720531Y31832268D02*
X1720531Y31594173D01*
X1625292Y31022744D02*
X1625292Y30927506D01*
X1625292Y30927506D02*
X1577673Y30832268D01*
X1577673Y30832268D02*
X1530054Y30784649D01*
X1530054Y30784649D02*
X1434816Y30737030D01*
X1434816Y30737030D02*
X1244340Y30689411D01*
X1244340Y30689411D02*
X1006245Y30689411D01*
X1006245Y30689411D02*
X815769Y30737030D01*
X815769Y30737030D02*
X720531Y30784649D01*
X720531Y30784649D02*
X672912Y30832268D01*
X672912Y30832268D02*
X625292Y30927506D01*
X625292Y30927506D02*
X625292Y31022744D01*
X625292Y31022744D02*
X672912Y31117982D01*
X672912Y31117982D02*
X720531Y31165601D01*
X720531Y31165601D02*
X815769Y31213220D01*
X815769Y31213220D02*
X1006245Y31260839D01*
X1006245Y31260839D02*
X1244340Y31260839D01*
X1244340Y31260839D02*
X1434816Y31213220D01*
X1434816Y31213220D02*
X1530054Y31165601D01*
X1530054Y31165601D02*
X1577673Y31117982D01*
X1577673Y31117982D02*
X1625292Y31022744D01*
X625292Y30213220D02*
X625292Y30022744D01*
X625292Y30022744D02*
X672912Y29927506D01*
X672912Y29927506D02*
X720531Y29879887D01*
X720531Y29879887D02*
X863388Y29784649D01*
X863388Y29784649D02*
X1053864Y29737030D01*
X1053864Y29737030D02*
X1434816Y29737030D01*
X1434816Y29737030D02*
X1530054Y29784649D01*
X1530054Y29784649D02*
X1577673Y29832268D01*
X1577673Y29832268D02*
X1625292Y29927506D01*
X1625292Y29927506D02*
X1625292Y30117982D01*
X1625292Y30117982D02*
X1577673Y30213220D01*
X1577673Y30213220D02*
X1530054Y30260839D01*
X1530054Y30260839D02*
X1434816Y30308458D01*
X1434816Y30308458D02*
X1196721Y30308458D01*
X1196721Y30308458D02*
X1101483Y30260839D01*
X1101483Y30260839D02*
X1053864Y30213220D01*
X1053864Y30213220D02*
X1006245Y30117982D01*
X1006245Y30117982D02*
X1006245Y29927506D01*
X1006245Y29927506D02*
X1053864Y29832268D01*
X1053864Y29832268D02*
X1101483Y29784649D01*
X1101483Y29784649D02*
X1196721Y29737030D01*
X1006245Y29308458D02*
X1006245Y28546553D01*
X1530054Y28117982D02*
X1577673Y28070363D01*
X1577673Y28070363D02*
X1625292Y27975125D01*
X1625292Y27975125D02*
X1625292Y27737030D01*
X1625292Y27737030D02*
X1577673Y27641792D01*
X1577673Y27641792D02*
X1530054Y27594173D01*
X1530054Y27594173D02*
X1434816Y27546554D01*
X1434816Y27546554D02*
X1339578Y27546554D01*
X1339578Y27546554D02*
X1196721Y27594173D01*
X1196721Y27594173D02*
X625292Y28165601D01*
X625292Y28165601D02*
X625292Y27546554D01*
X1625292Y26927506D02*
X1625292Y26832268D01*
X1625292Y26832268D02*
X1577673Y26737030D01*
X1577673Y26737030D02*
X1530054Y26689411D01*
X1530054Y26689411D02*
X1434816Y26641792D01*
X1434816Y26641792D02*
X1244340Y26594173D01*
X1244340Y26594173D02*
X1006245Y26594173D01*
X1006245Y26594173D02*
X815769Y26641792D01*
X815769Y26641792D02*
X720531Y26689411D01*
X720531Y26689411D02*
X672912Y26737030D01*
X672912Y26737030D02*
X625292Y26832268D01*
X625292Y26832268D02*
X625292Y26927506D01*
X625292Y26927506D02*
X672912Y27022744D01*
X672912Y27022744D02*
X720531Y27070363D01*
X720531Y27070363D02*
X815769Y27117982D01*
X815769Y27117982D02*
X1006245Y27165601D01*
X1006245Y27165601D02*
X1244340Y27165601D01*
X1244340Y27165601D02*
X1434816Y27117982D01*
X1434816Y27117982D02*
X1530054Y27070363D01*
X1530054Y27070363D02*
X1577673Y27022744D01*
X1577673Y27022744D02*
X1625292Y26927506D01*
X1530054Y26213220D02*
X1577673Y26165601D01*
X1577673Y26165601D02*
X1625292Y26070363D01*
X1625292Y26070363D02*
X1625292Y25832268D01*
X1625292Y25832268D02*
X1577673Y25737030D01*
X1577673Y25737030D02*
X1530054Y25689411D01*
X1530054Y25689411D02*
X1434816Y25641792D01*
X1434816Y25641792D02*
X1339578Y25641792D01*
X1339578Y25641792D02*
X1196721Y25689411D01*
X1196721Y25689411D02*
X625292Y26260839D01*
X625292Y26260839D02*
X625292Y25641792D01*
X1291959Y24784649D02*
X625292Y24784649D01*
X1672912Y25022744D02*
X958626Y25260839D01*
X958626Y25260839D02*
X958626Y24641792D01*
X291959Y24356077D02*
X291959Y24117982D01*
X291959Y24117982D02*
X1720531Y24117982D01*
X1720531Y24117982D02*
X1720531Y24356077D01*
X6686666Y61877610D02*
X6610476Y61915705D01*
X6610476Y61915705D02*
X6496190Y61915705D01*
X6496190Y61915705D02*
X6381904Y61877610D01*
X6381904Y61877610D02*
X6305714Y61801420D01*
X6305714Y61801420D02*
X6267619Y61725229D01*
X6267619Y61725229D02*
X6229523Y61572848D01*
X6229523Y61572848D02*
X6229523Y61458562D01*
X6229523Y61458562D02*
X6267619Y61306181D01*
X6267619Y61306181D02*
X6305714Y61229991D01*
X6305714Y61229991D02*
X6381904Y61153800D01*
X6381904Y61153800D02*
X6496190Y61115705D01*
X6496190Y61115705D02*
X6572381Y61115705D01*
X6572381Y61115705D02*
X6686666Y61153800D01*
X6686666Y61153800D02*
X6724762Y61191896D01*
X6724762Y61191896D02*
X6724762Y61458562D01*
X6724762Y61458562D02*
X6572381Y61458562D01*
X7067619Y61115705D02*
X7067619Y61915705D01*
X7067619Y61915705D02*
X7524762Y61115705D01*
X7524762Y61115705D02*
X7524762Y61915705D01*
X7905714Y61115705D02*
X7905714Y61915705D01*
X7905714Y61915705D02*
X8096190Y61915705D01*
X8096190Y61915705D02*
X8210476Y61877610D01*
X8210476Y61877610D02*
X8286666Y61801420D01*
X8286666Y61801420D02*
X8324761Y61725229D01*
X8324761Y61725229D02*
X8362857Y61572848D01*
X8362857Y61572848D02*
X8362857Y61458562D01*
X8362857Y61458562D02*
X8324761Y61306181D01*
X8324761Y61306181D02*
X8286666Y61229991D01*
X8286666Y61229991D02*
X8210476Y61153800D01*
X8210476Y61153800D02*
X8096190Y61115705D01*
X8096190Y61115705D02*
X7905714Y61115705D01*
X52702438Y82388096D02*
X52654819Y82292858D01*
X52654819Y82292858D02*
X52654819Y82150001D01*
X52654819Y82150001D02*
X52702438Y82007144D01*
X52702438Y82007144D02*
X52797676Y81911906D01*
X52797676Y81911906D02*
X52892914Y81864287D01*
X52892914Y81864287D02*
X53083390Y81816668D01*
X53083390Y81816668D02*
X53226247Y81816668D01*
X53226247Y81816668D02*
X53416723Y81864287D01*
X53416723Y81864287D02*
X53511961Y81911906D01*
X53511961Y81911906D02*
X53607200Y82007144D01*
X53607200Y82007144D02*
X53654819Y82150001D01*
X53654819Y82150001D02*
X53654819Y82245239D01*
X53654819Y82245239D02*
X53607200Y82388096D01*
X53607200Y82388096D02*
X53559580Y82435715D01*
X53559580Y82435715D02*
X53226247Y82435715D01*
X53226247Y82435715D02*
X53226247Y82245239D01*
X53654819Y82864287D02*
X52654819Y82864287D01*
X52654819Y82864287D02*
X53654819Y83435715D01*
X53654819Y83435715D02*
X52654819Y83435715D01*
X53654819Y83911906D02*
X52654819Y83911906D01*
X52654819Y83911906D02*
X52654819Y84150001D01*
X52654819Y84150001D02*
X52702438Y84292858D01*
X52702438Y84292858D02*
X52797676Y84388096D01*
X52797676Y84388096D02*
X52892914Y84435715D01*
X52892914Y84435715D02*
X53083390Y84483334D01*
X53083390Y84483334D02*
X53226247Y84483334D01*
X53226247Y84483334D02*
X53416723Y84435715D01*
X53416723Y84435715D02*
X53511961Y84388096D01*
X53511961Y84388096D02*
X53607200Y84292858D01*
X53607200Y84292858D02*
X53654819Y84150001D01*
X53654819Y84150001D02*
X53654819Y83911906D01*
X52652438Y73638096D02*
X52604819Y73542858D01*
X52604819Y73542858D02*
X52604819Y73400001D01*
X52604819Y73400001D02*
X52652438Y73257144D01*
X52652438Y73257144D02*
X52747676Y73161906D01*
X52747676Y73161906D02*
X52842914Y73114287D01*
X52842914Y73114287D02*
X53033390Y73066668D01*
X53033390Y73066668D02*
X53176247Y73066668D01*
X53176247Y73066668D02*
X53366723Y73114287D01*
X53366723Y73114287D02*
X53461961Y73161906D01*
X53461961Y73161906D02*
X53557200Y73257144D01*
X53557200Y73257144D02*
X53604819Y73400001D01*
X53604819Y73400001D02*
X53604819Y73495239D01*
X53604819Y73495239D02*
X53557200Y73638096D01*
X53557200Y73638096D02*
X53509580Y73685715D01*
X53509580Y73685715D02*
X53176247Y73685715D01*
X53176247Y73685715D02*
X53176247Y73495239D01*
X53604819Y74114287D02*
X52604819Y74114287D01*
X52604819Y74114287D02*
X53604819Y74685715D01*
X53604819Y74685715D02*
X52604819Y74685715D01*
X53604819Y75161906D02*
X52604819Y75161906D01*
X52604819Y75161906D02*
X52604819Y75400001D01*
X52604819Y75400001D02*
X52652438Y75542858D01*
X52652438Y75542858D02*
X52747676Y75638096D01*
X52747676Y75638096D02*
X52842914Y75685715D01*
X52842914Y75685715D02*
X53033390Y75733334D01*
X53033390Y75733334D02*
X53176247Y75733334D01*
X53176247Y75733334D02*
X53366723Y75685715D01*
X53366723Y75685715D02*
X53461961Y75638096D01*
X53461961Y75638096D02*
X53557200Y75542858D01*
X53557200Y75542858D02*
X53604819Y75400001D01*
X53604819Y75400001D02*
X53604819Y75161906D01*
X6267618Y48834753D02*
X6534284Y48834753D01*
X6648570Y48415705D02*
X6267618Y48415705D01*
X6267618Y48415705D02*
X6267618Y49215705D01*
X6267618Y49215705D02*
X6648570Y49215705D01*
X6953332Y48453800D02*
X7067618Y48415705D01*
X7067618Y48415705D02*
X7258094Y48415705D01*
X7258094Y48415705D02*
X7334285Y48453800D01*
X7334285Y48453800D02*
X7372380Y48491896D01*
X7372380Y48491896D02*
X7410475Y48568086D01*
X7410475Y48568086D02*
X7410475Y48644277D01*
X7410475Y48644277D02*
X7372380Y48720467D01*
X7372380Y48720467D02*
X7334285Y48758562D01*
X7334285Y48758562D02*
X7258094Y48796658D01*
X7258094Y48796658D02*
X7105713Y48834753D01*
X7105713Y48834753D02*
X7029523Y48872848D01*
X7029523Y48872848D02*
X6991428Y48910943D01*
X6991428Y48910943D02*
X6953332Y48987134D01*
X6953332Y48987134D02*
X6953332Y49063324D01*
X6953332Y49063324D02*
X6991428Y49139515D01*
X6991428Y49139515D02*
X7029523Y49177610D01*
X7029523Y49177610D02*
X7105713Y49215705D01*
X7105713Y49215705D02*
X7296190Y49215705D01*
X7296190Y49215705D02*
X7410475Y49177610D01*
X7639047Y49215705D02*
X8096190Y49215705D01*
X7867618Y48415705D02*
X7867618Y49215705D01*
X8515238Y49215705D02*
X8667619Y49215705D01*
X8667619Y49215705D02*
X8743809Y49177610D01*
X8743809Y49177610D02*
X8820000Y49101420D01*
X8820000Y49101420D02*
X8858095Y48949039D01*
X8858095Y48949039D02*
X8858095Y48682372D01*
X8858095Y48682372D02*
X8820000Y48529991D01*
X8820000Y48529991D02*
X8743809Y48453800D01*
X8743809Y48453800D02*
X8667619Y48415705D01*
X8667619Y48415705D02*
X8515238Y48415705D01*
X8515238Y48415705D02*
X8439047Y48453800D01*
X8439047Y48453800D02*
X8362857Y48529991D01*
X8362857Y48529991D02*
X8324761Y48682372D01*
X8324761Y48682372D02*
X8324761Y48949039D01*
X8324761Y48949039D02*
X8362857Y49101420D01*
X8362857Y49101420D02*
X8439047Y49177610D01*
X8439047Y49177610D02*
X8515238Y49215705D01*
X9200952Y48415705D02*
X9200952Y49215705D01*
X9200952Y49215705D02*
X9505714Y49215705D01*
X9505714Y49215705D02*
X9581904Y49177610D01*
X9581904Y49177610D02*
X9619999Y49139515D01*
X9619999Y49139515D02*
X9658095Y49063324D01*
X9658095Y49063324D02*
X9658095Y48949039D01*
X9658095Y48949039D02*
X9619999Y48872848D01*
X9619999Y48872848D02*
X9581904Y48834753D01*
X9581904Y48834753D02*
X9505714Y48796658D01*
X9505714Y48796658D02*
X9200952Y48796658D01*
X6267619Y43315705D02*
X6267619Y44115705D01*
X6648571Y43315705D02*
X6648571Y44115705D01*
X6648571Y44115705D02*
X7105714Y43315705D01*
X7105714Y43315705D02*
X7105714Y44115705D01*
X7372380Y44115705D02*
X7829523Y44115705D01*
X7600951Y43315705D02*
X7600951Y44115705D01*
X52588095Y69894467D02*
X54111905Y69894467D01*
X53350000Y69132562D02*
X53350000Y70656372D01*
X6229523Y53503800D02*
X6343809Y53465705D01*
X6343809Y53465705D02*
X6534285Y53465705D01*
X6534285Y53465705D02*
X6610476Y53503800D01*
X6610476Y53503800D02*
X6648571Y53541896D01*
X6648571Y53541896D02*
X6686666Y53618086D01*
X6686666Y53618086D02*
X6686666Y53694277D01*
X6686666Y53694277D02*
X6648571Y53770467D01*
X6648571Y53770467D02*
X6610476Y53808562D01*
X6610476Y53808562D02*
X6534285Y53846658D01*
X6534285Y53846658D02*
X6381904Y53884753D01*
X6381904Y53884753D02*
X6305714Y53922848D01*
X6305714Y53922848D02*
X6267619Y53960943D01*
X6267619Y53960943D02*
X6229523Y54037134D01*
X6229523Y54037134D02*
X6229523Y54113324D01*
X6229523Y54113324D02*
X6267619Y54189515D01*
X6267619Y54189515D02*
X6305714Y54227610D01*
X6305714Y54227610D02*
X6381904Y54265705D01*
X6381904Y54265705D02*
X6572381Y54265705D01*
X6572381Y54265705D02*
X6686666Y54227610D01*
X7029524Y53465705D02*
X7029524Y54265705D01*
X7029524Y54265705D02*
X7220000Y54265705D01*
X7220000Y54265705D02*
X7334286Y54227610D01*
X7334286Y54227610D02*
X7410476Y54151420D01*
X7410476Y54151420D02*
X7448571Y54075229D01*
X7448571Y54075229D02*
X7486667Y53922848D01*
X7486667Y53922848D02*
X7486667Y53808562D01*
X7486667Y53808562D02*
X7448571Y53656181D01*
X7448571Y53656181D02*
X7410476Y53579991D01*
X7410476Y53579991D02*
X7334286Y53503800D01*
X7334286Y53503800D02*
X7220000Y53465705D01*
X7220000Y53465705D02*
X7029524Y53465705D01*
X7791428Y53694277D02*
X8172381Y53694277D01*
X7715238Y53465705D02*
X7981905Y54265705D01*
X7981905Y54265705D02*
X8248571Y53465705D01*
X6229523Y56053800D02*
X6343809Y56015705D01*
X6343809Y56015705D02*
X6534285Y56015705D01*
X6534285Y56015705D02*
X6610476Y56053800D01*
X6610476Y56053800D02*
X6648571Y56091896D01*
X6648571Y56091896D02*
X6686666Y56168086D01*
X6686666Y56168086D02*
X6686666Y56244277D01*
X6686666Y56244277D02*
X6648571Y56320467D01*
X6648571Y56320467D02*
X6610476Y56358562D01*
X6610476Y56358562D02*
X6534285Y56396658D01*
X6534285Y56396658D02*
X6381904Y56434753D01*
X6381904Y56434753D02*
X6305714Y56472848D01*
X6305714Y56472848D02*
X6267619Y56510943D01*
X6267619Y56510943D02*
X6229523Y56587134D01*
X6229523Y56587134D02*
X6229523Y56663324D01*
X6229523Y56663324D02*
X6267619Y56739515D01*
X6267619Y56739515D02*
X6305714Y56777610D01*
X6305714Y56777610D02*
X6381904Y56815705D01*
X6381904Y56815705D02*
X6572381Y56815705D01*
X6572381Y56815705D02*
X6686666Y56777610D01*
X7486667Y56091896D02*
X7448571Y56053800D01*
X7448571Y56053800D02*
X7334286Y56015705D01*
X7334286Y56015705D02*
X7258095Y56015705D01*
X7258095Y56015705D02*
X7143809Y56053800D01*
X7143809Y56053800D02*
X7067619Y56129991D01*
X7067619Y56129991D02*
X7029524Y56206181D01*
X7029524Y56206181D02*
X6991428Y56358562D01*
X6991428Y56358562D02*
X6991428Y56472848D01*
X6991428Y56472848D02*
X7029524Y56625229D01*
X7029524Y56625229D02*
X7067619Y56701420D01*
X7067619Y56701420D02*
X7143809Y56777610D01*
X7143809Y56777610D02*
X7258095Y56815705D01*
X7258095Y56815705D02*
X7334286Y56815705D01*
X7334286Y56815705D02*
X7448571Y56777610D01*
X7448571Y56777610D02*
X7486667Y56739515D01*
X8210476Y56015705D02*
X7829524Y56015705D01*
X7829524Y56015705D02*
X7829524Y56815705D01*
X27944009Y9892858D02*
X27944009Y10845239D01*
X28515438Y9702382D02*
X26515438Y10369048D01*
X26515438Y10369048D02*
X28515438Y11035715D01*
X28515438Y12845239D02*
X27563057Y12178572D01*
X28515438Y11702382D02*
X26515438Y11702382D01*
X26515438Y11702382D02*
X26515438Y12464287D01*
X26515438Y12464287D02*
X26610676Y12654763D01*
X26610676Y12654763D02*
X26705914Y12750001D01*
X26705914Y12750001D02*
X26896390Y12845239D01*
X26896390Y12845239D02*
X27182104Y12845239D01*
X27182104Y12845239D02*
X27372580Y12750001D01*
X27372580Y12750001D02*
X27467819Y12654763D01*
X27467819Y12654763D02*
X27563057Y12464287D01*
X27563057Y12464287D02*
X27563057Y11702382D01*
X28515438Y13702382D02*
X26515438Y13702382D01*
X26515438Y13702382D02*
X26515438Y14178572D01*
X26515438Y14178572D02*
X26610676Y14464287D01*
X26610676Y14464287D02*
X26801152Y14654763D01*
X26801152Y14654763D02*
X26991628Y14750001D01*
X26991628Y14750001D02*
X27372580Y14845239D01*
X27372580Y14845239D02*
X27658295Y14845239D01*
X27658295Y14845239D02*
X28039247Y14750001D01*
X28039247Y14750001D02*
X28229723Y14654763D01*
X28229723Y14654763D02*
X28420200Y14464287D01*
X28420200Y14464287D02*
X28515438Y14178572D01*
X28515438Y14178572D02*
X28515438Y13702382D01*
X26515438Y15702382D02*
X28134485Y15702382D01*
X28134485Y15702382D02*
X28324961Y15797620D01*
X28324961Y15797620D02*
X28420200Y15892858D01*
X28420200Y15892858D02*
X28515438Y16083334D01*
X28515438Y16083334D02*
X28515438Y16464287D01*
X28515438Y16464287D02*
X28420200Y16654763D01*
X28420200Y16654763D02*
X28324961Y16750001D01*
X28324961Y16750001D02*
X28134485Y16845239D01*
X28134485Y16845239D02*
X26515438Y16845239D01*
X28515438Y17797620D02*
X26515438Y17797620D01*
X28515438Y18750001D02*
X26515438Y18750001D01*
X26515438Y18750001D02*
X28515438Y19892858D01*
X28515438Y19892858D02*
X26515438Y19892858D01*
X26515438Y21226191D02*
X26515438Y21607144D01*
X26515438Y21607144D02*
X26610676Y21797620D01*
X26610676Y21797620D02*
X26801152Y21988096D01*
X26801152Y21988096D02*
X27182104Y22083334D01*
X27182104Y22083334D02*
X27848771Y22083334D01*
X27848771Y22083334D02*
X28229723Y21988096D01*
X28229723Y21988096D02*
X28420200Y21797620D01*
X28420200Y21797620D02*
X28515438Y21607144D01*
X28515438Y21607144D02*
X28515438Y21226191D01*
X28515438Y21226191D02*
X28420200Y21035715D01*
X28420200Y21035715D02*
X28229723Y20845239D01*
X28229723Y20845239D02*
X27848771Y20750001D01*
X27848771Y20750001D02*
X27182104Y20750001D01*
X27182104Y20750001D02*
X26801152Y20845239D01*
X26801152Y20845239D02*
X26610676Y21035715D01*
X26610676Y21035715D02*
X26515438Y21226191D01*
X28515438Y24464287D02*
X26515438Y24464287D01*
X26515438Y24464287D02*
X28515438Y25607144D01*
X28515438Y25607144D02*
X26515438Y25607144D01*
X27944009Y26464287D02*
X27944009Y27416668D01*
X28515438Y26273811D02*
X26515438Y26940477D01*
X26515438Y26940477D02*
X28515438Y27607144D01*
X28515438Y28273811D02*
X26515438Y28273811D01*
X26515438Y28273811D02*
X28515438Y29416668D01*
X28515438Y29416668D02*
X26515438Y29416668D01*
X26515438Y30750001D02*
X26515438Y31130954D01*
X26515438Y31130954D02*
X26610676Y31321430D01*
X26610676Y31321430D02*
X26801152Y31511906D01*
X26801152Y31511906D02*
X27182104Y31607144D01*
X27182104Y31607144D02*
X27848771Y31607144D01*
X27848771Y31607144D02*
X28229723Y31511906D01*
X28229723Y31511906D02*
X28420200Y31321430D01*
X28420200Y31321430D02*
X28515438Y31130954D01*
X28515438Y31130954D02*
X28515438Y30750001D01*
X28515438Y30750001D02*
X28420200Y30559525D01*
X28420200Y30559525D02*
X28229723Y30369049D01*
X28229723Y30369049D02*
X27848771Y30273811D01*
X27848771Y30273811D02*
X27182104Y30273811D01*
X27182104Y30273811D02*
X26801152Y30369049D01*
X26801152Y30369049D02*
X26610676Y30559525D01*
X26610676Y30559525D02*
X26515438Y30750001D01*
X6686666Y58565705D02*
X6229523Y58565705D01*
X6458095Y58565705D02*
X6458095Y59365705D01*
X6458095Y59365705D02*
X6381904Y59251420D01*
X6381904Y59251420D02*
X6305714Y59175229D01*
X6305714Y59175229D02*
X6229523Y59137134D01*
X6991428Y59289515D02*
X7029524Y59327610D01*
X7029524Y59327610D02*
X7105714Y59365705D01*
X7105714Y59365705D02*
X7296190Y59365705D01*
X7296190Y59365705D02*
X7372381Y59327610D01*
X7372381Y59327610D02*
X7410476Y59289515D01*
X7410476Y59289515D02*
X7448571Y59213324D01*
X7448571Y59213324D02*
X7448571Y59137134D01*
X7448571Y59137134D02*
X7410476Y59022848D01*
X7410476Y59022848D02*
X6953333Y58565705D01*
X6953333Y58565705D02*
X7448571Y58565705D01*
X7677143Y59365705D02*
X7943810Y58565705D01*
X7943810Y58565705D02*
X8210476Y59365705D01*
X16049714Y41994896D02*
X16525904Y41994896D01*
X15954476Y41709181D02*
X16287809Y42709181D01*
X16287809Y42709181D02*
X16621142Y41709181D01*
X17478285Y41709181D02*
X16906857Y41709181D01*
X17192571Y41709181D02*
X17192571Y42709181D01*
X17192571Y42709181D02*
X17097333Y42566324D01*
X17097333Y42566324D02*
X17002095Y42471086D01*
X17002095Y42471086D02*
X16906857Y42423467D01*
X26346095Y4785181D02*
X26346095Y3975658D01*
X26346095Y3975658D02*
X26393714Y3880420D01*
X26393714Y3880420D02*
X26441333Y3832800D01*
X26441333Y3832800D02*
X26536571Y3785181D01*
X26536571Y3785181D02*
X26727047Y3785181D01*
X26727047Y3785181D02*
X26822285Y3832800D01*
X26822285Y3832800D02*
X26869904Y3880420D01*
X26869904Y3880420D02*
X26917523Y3975658D01*
X26917523Y3975658D02*
X26917523Y4785181D01*
X27346095Y3832800D02*
X27488952Y3785181D01*
X27488952Y3785181D02*
X27727047Y3785181D01*
X27727047Y3785181D02*
X27822285Y3832800D01*
X27822285Y3832800D02*
X27869904Y3880420D01*
X27869904Y3880420D02*
X27917523Y3975658D01*
X27917523Y3975658D02*
X27917523Y4070896D01*
X27917523Y4070896D02*
X27869904Y4166134D01*
X27869904Y4166134D02*
X27822285Y4213753D01*
X27822285Y4213753D02*
X27727047Y4261372D01*
X27727047Y4261372D02*
X27536571Y4308991D01*
X27536571Y4308991D02*
X27441333Y4356610D01*
X27441333Y4356610D02*
X27393714Y4404229D01*
X27393714Y4404229D02*
X27346095Y4499467D01*
X27346095Y4499467D02*
X27346095Y4594705D01*
X27346095Y4594705D02*
X27393714Y4689943D01*
X27393714Y4689943D02*
X27441333Y4737562D01*
X27441333Y4737562D02*
X27536571Y4785181D01*
X27536571Y4785181D02*
X27774666Y4785181D01*
X27774666Y4785181D02*
X27917523Y4737562D01*
X28679428Y4308991D02*
X28822285Y4261372D01*
X28822285Y4261372D02*
X28869904Y4213753D01*
X28869904Y4213753D02*
X28917523Y4118515D01*
X28917523Y4118515D02*
X28917523Y3975658D01*
X28917523Y3975658D02*
X28869904Y3880420D01*
X28869904Y3880420D02*
X28822285Y3832800D01*
X28822285Y3832800D02*
X28727047Y3785181D01*
X28727047Y3785181D02*
X28346095Y3785181D01*
X28346095Y3785181D02*
X28346095Y4785181D01*
X28346095Y4785181D02*
X28679428Y4785181D01*
X28679428Y4785181D02*
X28774666Y4737562D01*
X28774666Y4737562D02*
X28822285Y4689943D01*
X28822285Y4689943D02*
X28869904Y4594705D01*
X28869904Y4594705D02*
X28869904Y4499467D01*
X28869904Y4499467D02*
X28822285Y4404229D01*
X28822285Y4404229D02*
X28774666Y4356610D01*
X28774666Y4356610D02*
X28679428Y4308991D01*
X28679428Y4308991D02*
X28346095Y4308991D01*
X666666Y59445181D02*
X666666Y58730896D01*
X666666Y58730896D02*
X619047Y58588039D01*
X619047Y58588039D02*
X523809Y58492800D01*
X523809Y58492800D02*
X380952Y58445181D01*
X380952Y58445181D02*
X285714Y58445181D01*
X1095238Y59349943D02*
X1142857Y59397562D01*
X1142857Y59397562D02*
X1238095Y59445181D01*
X1238095Y59445181D02*
X1476190Y59445181D01*
X1476190Y59445181D02*
X1571428Y59397562D01*
X1571428Y59397562D02*
X1619047Y59349943D01*
X1619047Y59349943D02*
X1666666Y59254705D01*
X1666666Y59254705D02*
X1666666Y59159467D01*
X1666666Y59159467D02*
X1619047Y59016610D01*
X1619047Y59016610D02*
X1047619Y58445181D01*
X1047619Y58445181D02*
X1666666Y58445181D01*
D12*
X4895238Y11142581D02*
X4895238Y12142581D01*
X4895238Y11666391D02*
X5466666Y11666391D01*
X5466666Y11142581D02*
X5466666Y12142581D01*
X6323809Y11190200D02*
X6228571Y11142581D01*
X6228571Y11142581D02*
X6038095Y11142581D01*
X6038095Y11142581D02*
X5942857Y11190200D01*
X5942857Y11190200D02*
X5895238Y11285439D01*
X5895238Y11285439D02*
X5895238Y11666391D01*
X5895238Y11666391D02*
X5942857Y11761629D01*
X5942857Y11761629D02*
X6038095Y11809248D01*
X6038095Y11809248D02*
X6228571Y11809248D01*
X6228571Y11809248D02*
X6323809Y11761629D01*
X6323809Y11761629D02*
X6371428Y11666391D01*
X6371428Y11666391D02*
X6371428Y11571153D01*
X6371428Y11571153D02*
X5895238Y11475915D01*
X7228571Y11142581D02*
X7228571Y11666391D01*
X7228571Y11666391D02*
X7180952Y11761629D01*
X7180952Y11761629D02*
X7085714Y11809248D01*
X7085714Y11809248D02*
X6895238Y11809248D01*
X6895238Y11809248D02*
X6800000Y11761629D01*
X7228571Y11190200D02*
X7133333Y11142581D01*
X7133333Y11142581D02*
X6895238Y11142581D01*
X6895238Y11142581D02*
X6800000Y11190200D01*
X6800000Y11190200D02*
X6752381Y11285439D01*
X6752381Y11285439D02*
X6752381Y11380677D01*
X6752381Y11380677D02*
X6800000Y11475915D01*
X6800000Y11475915D02*
X6895238Y11523534D01*
X6895238Y11523534D02*
X7133333Y11523534D01*
X7133333Y11523534D02*
X7228571Y11571153D01*
X7561905Y11809248D02*
X7942857Y11809248D01*
X7704762Y12142581D02*
X7704762Y11285439D01*
X7704762Y11285439D02*
X7752381Y11190200D01*
X7752381Y11190200D02*
X7847619Y11142581D01*
X7847619Y11142581D02*
X7942857Y11142581D01*
X8990477Y11190200D02*
X9133334Y11142581D01*
X9133334Y11142581D02*
X9371429Y11142581D01*
X9371429Y11142581D02*
X9466667Y11190200D01*
X9466667Y11190200D02*
X9514286Y11237820D01*
X9514286Y11237820D02*
X9561905Y11333058D01*
X9561905Y11333058D02*
X9561905Y11428296D01*
X9561905Y11428296D02*
X9514286Y11523534D01*
X9514286Y11523534D02*
X9466667Y11571153D01*
X9466667Y11571153D02*
X9371429Y11618772D01*
X9371429Y11618772D02*
X9180953Y11666391D01*
X9180953Y11666391D02*
X9085715Y11714010D01*
X9085715Y11714010D02*
X9038096Y11761629D01*
X9038096Y11761629D02*
X8990477Y11856867D01*
X8990477Y11856867D02*
X8990477Y11952105D01*
X8990477Y11952105D02*
X9038096Y12047343D01*
X9038096Y12047343D02*
X9085715Y12094962D01*
X9085715Y12094962D02*
X9180953Y12142581D01*
X9180953Y12142581D02*
X9419048Y12142581D01*
X9419048Y12142581D02*
X9561905Y12094962D01*
X9990477Y11142581D02*
X9990477Y11809248D01*
X9990477Y12142581D02*
X9942858Y12094962D01*
X9942858Y12094962D02*
X9990477Y12047343D01*
X9990477Y12047343D02*
X10038096Y12094962D01*
X10038096Y12094962D02*
X9990477Y12142581D01*
X9990477Y12142581D02*
X9990477Y12047343D01*
X10466667Y11809248D02*
X10466667Y11142581D01*
X10466667Y11714010D02*
X10514286Y11761629D01*
X10514286Y11761629D02*
X10609524Y11809248D01*
X10609524Y11809248D02*
X10752381Y11809248D01*
X10752381Y11809248D02*
X10847619Y11761629D01*
X10847619Y11761629D02*
X10895238Y11666391D01*
X10895238Y11666391D02*
X10895238Y11142581D01*
X11371429Y11142581D02*
X11371429Y12142581D01*
X11466667Y11523534D02*
X11752381Y11142581D01*
X11752381Y11809248D02*
X11371429Y11428296D01*
D10*
X43883333Y76940420D02*
X43835714Y76892800D01*
X43835714Y76892800D02*
X43692857Y76845181D01*
X43692857Y76845181D02*
X43597619Y76845181D01*
X43597619Y76845181D02*
X43454762Y76892800D01*
X43454762Y76892800D02*
X43359524Y76988039D01*
X43359524Y76988039D02*
X43311905Y77083277D01*
X43311905Y77083277D02*
X43264286Y77273753D01*
X43264286Y77273753D02*
X43264286Y77416610D01*
X43264286Y77416610D02*
X43311905Y77607086D01*
X43311905Y77607086D02*
X43359524Y77702324D01*
X43359524Y77702324D02*
X43454762Y77797562D01*
X43454762Y77797562D02*
X43597619Y77845181D01*
X43597619Y77845181D02*
X43692857Y77845181D01*
X43692857Y77845181D02*
X43835714Y77797562D01*
X43835714Y77797562D02*
X43883333Y77749943D01*
X44788095Y77845181D02*
X44311905Y77845181D01*
X44311905Y77845181D02*
X44264286Y77368991D01*
X44264286Y77368991D02*
X44311905Y77416610D01*
X44311905Y77416610D02*
X44407143Y77464229D01*
X44407143Y77464229D02*
X44645238Y77464229D01*
X44645238Y77464229D02*
X44740476Y77416610D01*
X44740476Y77416610D02*
X44788095Y77368991D01*
X44788095Y77368991D02*
X44835714Y77273753D01*
X44835714Y77273753D02*
X44835714Y77035658D01*
X44835714Y77035658D02*
X44788095Y76940420D01*
X44788095Y76940420D02*
X44740476Y76892800D01*
X44740476Y76892800D02*
X44645238Y76845181D01*
X44645238Y76845181D02*
X44407143Y76845181D01*
X44407143Y76845181D02*
X44311905Y76892800D01*
X44311905Y76892800D02*
X44264286Y76940420D01*
D13*
X51352203Y26406204D02*
X51209346Y26477633D01*
X51209346Y26477633D02*
X50995060Y26477633D01*
X50995060Y26477633D02*
X50780774Y26406204D01*
X50780774Y26406204D02*
X50637917Y26263347D01*
X50637917Y26263347D02*
X50566488Y26120490D01*
X50566488Y26120490D02*
X50495060Y25834776D01*
X50495060Y25834776D02*
X50495060Y25620490D01*
X50495060Y25620490D02*
X50566488Y25334776D01*
X50566488Y25334776D02*
X50637917Y25191919D01*
X50637917Y25191919D02*
X50780774Y25049061D01*
X50780774Y25049061D02*
X50995060Y24977633D01*
X50995060Y24977633D02*
X51137917Y24977633D01*
X51137917Y24977633D02*
X51352203Y25049061D01*
X51352203Y25049061D02*
X51423631Y25120490D01*
X51423631Y25120490D02*
X51423631Y25620490D01*
X51423631Y25620490D02*
X51137917Y25620490D01*
X52280774Y26477633D02*
X52280774Y26120490D01*
X51923631Y26263347D02*
X52280774Y26120490D01*
X52280774Y26120490D02*
X52637917Y26263347D01*
X52066488Y25834776D02*
X52280774Y26120490D01*
X52280774Y26120490D02*
X52495060Y25834776D01*
X53423631Y26477633D02*
X53423631Y26120490D01*
X53066488Y26263347D02*
X53423631Y26120490D01*
X53423631Y26120490D02*
X53780774Y26263347D01*
X53209345Y25834776D02*
X53423631Y26120490D01*
X53423631Y26120490D02*
X53637917Y25834776D01*
X54566488Y26477633D02*
X54566488Y26120490D01*
X54209345Y26263347D02*
X54566488Y26120490D01*
X54566488Y26120490D02*
X54923631Y26263347D01*
X54352202Y25834776D02*
X54566488Y26120490D01*
X54566488Y26120490D02*
X54780774Y25834776D01*
D10*
X43933333Y87290420D02*
X43885714Y87242800D01*
X43885714Y87242800D02*
X43742857Y87195181D01*
X43742857Y87195181D02*
X43647619Y87195181D01*
X43647619Y87195181D02*
X43504762Y87242800D01*
X43504762Y87242800D02*
X43409524Y87338039D01*
X43409524Y87338039D02*
X43361905Y87433277D01*
X43361905Y87433277D02*
X43314286Y87623753D01*
X43314286Y87623753D02*
X43314286Y87766610D01*
X43314286Y87766610D02*
X43361905Y87957086D01*
X43361905Y87957086D02*
X43409524Y88052324D01*
X43409524Y88052324D02*
X43504762Y88147562D01*
X43504762Y88147562D02*
X43647619Y88195181D01*
X43647619Y88195181D02*
X43742857Y88195181D01*
X43742857Y88195181D02*
X43885714Y88147562D01*
X43885714Y88147562D02*
X43933333Y88099943D01*
X44266667Y88195181D02*
X44933333Y88195181D01*
X44933333Y88195181D02*
X44504762Y87195181D01*
X29124819Y57311906D02*
X28124819Y57311906D01*
X28124819Y57311906D02*
X28124819Y57550001D01*
X28124819Y57550001D02*
X28172438Y57692858D01*
X28172438Y57692858D02*
X28267676Y57788096D01*
X28267676Y57788096D02*
X28362914Y57835715D01*
X28362914Y57835715D02*
X28553390Y57883334D01*
X28553390Y57883334D02*
X28696247Y57883334D01*
X28696247Y57883334D02*
X28886723Y57835715D01*
X28886723Y57835715D02*
X28981961Y57788096D01*
X28981961Y57788096D02*
X29077200Y57692858D01*
X29077200Y57692858D02*
X29124819Y57550001D01*
X29124819Y57550001D02*
X29124819Y57311906D01*
X28220057Y58264287D02*
X28172438Y58311906D01*
X28172438Y58311906D02*
X28124819Y58407144D01*
X28124819Y58407144D02*
X28124819Y58645239D01*
X28124819Y58645239D02*
X28172438Y58740477D01*
X28172438Y58740477D02*
X28220057Y58788096D01*
X28220057Y58788096D02*
X28315295Y58835715D01*
X28315295Y58835715D02*
X28410533Y58835715D01*
X28410533Y58835715D02*
X28553390Y58788096D01*
X28553390Y58788096D02*
X29124819Y58216668D01*
X29124819Y58216668D02*
X29124819Y58835715D01*
X28004819Y65408096D02*
X27004819Y65408096D01*
X28004819Y65979524D02*
X27433390Y65550953D01*
X27004819Y65979524D02*
X27576247Y65408096D01*
X49961905Y3197412D02*
X49961905Y4197412D01*
X49961905Y4197412D02*
X50200000Y4197412D01*
X50200000Y4197412D02*
X50342857Y4149793D01*
X50342857Y4149793D02*
X50438095Y4054555D01*
X50438095Y4054555D02*
X50485714Y3959317D01*
X50485714Y3959317D02*
X50533333Y3768841D01*
X50533333Y3768841D02*
X50533333Y3625984D01*
X50533333Y3625984D02*
X50485714Y3435508D01*
X50485714Y3435508D02*
X50438095Y3340270D01*
X50438095Y3340270D02*
X50342857Y3245031D01*
X50342857Y3245031D02*
X50200000Y3197412D01*
X50200000Y3197412D02*
X49961905Y3197412D01*
X51485714Y3197412D02*
X50914286Y3197412D01*
X51200000Y3197412D02*
X51200000Y4197412D01*
X51200000Y4197412D02*
X51104762Y4054555D01*
X51104762Y4054555D02*
X51009524Y3959317D01*
X51009524Y3959317D02*
X50914286Y3911698D01*
X48474819Y54933334D02*
X47998628Y54600001D01*
X48474819Y54361906D02*
X47474819Y54361906D01*
X47474819Y54361906D02*
X47474819Y54742858D01*
X47474819Y54742858D02*
X47522438Y54838096D01*
X47522438Y54838096D02*
X47570057Y54885715D01*
X47570057Y54885715D02*
X47665295Y54933334D01*
X47665295Y54933334D02*
X47808152Y54933334D01*
X47808152Y54933334D02*
X47903390Y54885715D01*
X47903390Y54885715D02*
X47951009Y54838096D01*
X47951009Y54838096D02*
X47998628Y54742858D01*
X47998628Y54742858D02*
X47998628Y54361906D01*
X48474819Y55885715D02*
X48474819Y55314287D01*
X48474819Y55600001D02*
X47474819Y55600001D01*
X47474819Y55600001D02*
X47617676Y55504763D01*
X47617676Y55504763D02*
X47712914Y55409525D01*
X47712914Y55409525D02*
X47760533Y55314287D01*
X35214761Y45119943D02*
X35119523Y45167562D01*
X35119523Y45167562D02*
X35024285Y45262800D01*
X35024285Y45262800D02*
X34881428Y45405658D01*
X34881428Y45405658D02*
X34786190Y45453277D01*
X34786190Y45453277D02*
X34690952Y45453277D01*
X34738571Y45215181D02*
X34643333Y45262800D01*
X34643333Y45262800D02*
X34548095Y45358039D01*
X34548095Y45358039D02*
X34500476Y45548515D01*
X34500476Y45548515D02*
X34500476Y45881848D01*
X34500476Y45881848D02*
X34548095Y46072324D01*
X34548095Y46072324D02*
X34643333Y46167562D01*
X34643333Y46167562D02*
X34738571Y46215181D01*
X34738571Y46215181D02*
X34929047Y46215181D01*
X34929047Y46215181D02*
X35024285Y46167562D01*
X35024285Y46167562D02*
X35119523Y46072324D01*
X35119523Y46072324D02*
X35167142Y45881848D01*
X35167142Y45881848D02*
X35167142Y45548515D01*
X35167142Y45548515D02*
X35119523Y45358039D01*
X35119523Y45358039D02*
X35024285Y45262800D01*
X35024285Y45262800D02*
X34929047Y45215181D01*
X34929047Y45215181D02*
X34738571Y45215181D01*
X36119523Y45215181D02*
X35548095Y45215181D01*
X35833809Y45215181D02*
X35833809Y46215181D01*
X35833809Y46215181D02*
X35738571Y46072324D01*
X35738571Y46072324D02*
X35643333Y45977086D01*
X35643333Y45977086D02*
X35548095Y45929467D01*
D14*
X66754318Y74576668D02*
X67661461Y74576668D01*
X67661461Y74576668D02*
X67842889Y74516191D01*
X67842889Y74516191D02*
X67963842Y74395239D01*
X67963842Y74395239D02*
X68024318Y74213810D01*
X68024318Y74213810D02*
X68024318Y74092858D01*
X67177651Y75725715D02*
X68024318Y75725715D01*
X66693842Y75423334D02*
X67600984Y75120953D01*
X67600984Y75120953D02*
X67600984Y75907144D01*
X66754318Y70276668D02*
X67661461Y70276668D01*
X67661461Y70276668D02*
X67842889Y70216191D01*
X67842889Y70216191D02*
X67963842Y70095239D01*
X67963842Y70095239D02*
X68024318Y69913810D01*
X68024318Y69913810D02*
X68024318Y69792858D01*
X66754318Y70760477D02*
X66754318Y71546668D01*
X66754318Y71546668D02*
X67238127Y71123334D01*
X67238127Y71123334D02*
X67238127Y71304763D01*
X67238127Y71304763D02*
X67298603Y71425715D01*
X67298603Y71425715D02*
X67359080Y71486191D01*
X67359080Y71486191D02*
X67480032Y71546668D01*
X67480032Y71546668D02*
X67782413Y71546668D01*
X67782413Y71546668D02*
X67903365Y71486191D01*
X67903365Y71486191D02*
X67963842Y71425715D01*
X67963842Y71425715D02*
X68024318Y71304763D01*
X68024318Y71304763D02*
X68024318Y70941906D01*
X68024318Y70941906D02*
X67963842Y70820953D01*
X67963842Y70820953D02*
X67903365Y70760477D01*
D12*
X42757419Y54195239D02*
X41757419Y54195239D01*
X42233609Y54195239D02*
X42233609Y54766667D01*
X42757419Y54766667D02*
X41757419Y54766667D01*
X42709800Y55623810D02*
X42757419Y55528572D01*
X42757419Y55528572D02*
X42757419Y55338096D01*
X42757419Y55338096D02*
X42709800Y55242858D01*
X42709800Y55242858D02*
X42614561Y55195239D01*
X42614561Y55195239D02*
X42233609Y55195239D01*
X42233609Y55195239D02*
X42138371Y55242858D01*
X42138371Y55242858D02*
X42090752Y55338096D01*
X42090752Y55338096D02*
X42090752Y55528572D01*
X42090752Y55528572D02*
X42138371Y55623810D01*
X42138371Y55623810D02*
X42233609Y55671429D01*
X42233609Y55671429D02*
X42328847Y55671429D01*
X42328847Y55671429D02*
X42424085Y55195239D01*
X42757419Y56528572D02*
X42233609Y56528572D01*
X42233609Y56528572D02*
X42138371Y56480953D01*
X42138371Y56480953D02*
X42090752Y56385715D01*
X42090752Y56385715D02*
X42090752Y56195239D01*
X42090752Y56195239D02*
X42138371Y56100001D01*
X42709800Y56528572D02*
X42757419Y56433334D01*
X42757419Y56433334D02*
X42757419Y56195239D01*
X42757419Y56195239D02*
X42709800Y56100001D01*
X42709800Y56100001D02*
X42614561Y56052382D01*
X42614561Y56052382D02*
X42519323Y56052382D01*
X42519323Y56052382D02*
X42424085Y56100001D01*
X42424085Y56100001D02*
X42376466Y56195239D01*
X42376466Y56195239D02*
X42376466Y56433334D01*
X42376466Y56433334D02*
X42328847Y56528572D01*
X42090752Y56861906D02*
X42090752Y57242858D01*
X41757419Y57004763D02*
X42614561Y57004763D01*
X42614561Y57004763D02*
X42709800Y57052382D01*
X42709800Y57052382D02*
X42757419Y57147620D01*
X42757419Y57147620D02*
X42757419Y57242858D01*
X42709800Y58290478D02*
X42757419Y58433335D01*
X42757419Y58433335D02*
X42757419Y58671430D01*
X42757419Y58671430D02*
X42709800Y58766668D01*
X42709800Y58766668D02*
X42662180Y58814287D01*
X42662180Y58814287D02*
X42566942Y58861906D01*
X42566942Y58861906D02*
X42471704Y58861906D01*
X42471704Y58861906D02*
X42376466Y58814287D01*
X42376466Y58814287D02*
X42328847Y58766668D01*
X42328847Y58766668D02*
X42281228Y58671430D01*
X42281228Y58671430D02*
X42233609Y58480954D01*
X42233609Y58480954D02*
X42185990Y58385716D01*
X42185990Y58385716D02*
X42138371Y58338097D01*
X42138371Y58338097D02*
X42043133Y58290478D01*
X42043133Y58290478D02*
X41947895Y58290478D01*
X41947895Y58290478D02*
X41852657Y58338097D01*
X41852657Y58338097D02*
X41805038Y58385716D01*
X41805038Y58385716D02*
X41757419Y58480954D01*
X41757419Y58480954D02*
X41757419Y58719049D01*
X41757419Y58719049D02*
X41805038Y58861906D01*
X42757419Y59290478D02*
X42090752Y59290478D01*
X41757419Y59290478D02*
X41805038Y59242859D01*
X41805038Y59242859D02*
X41852657Y59290478D01*
X41852657Y59290478D02*
X41805038Y59338097D01*
X41805038Y59338097D02*
X41757419Y59290478D01*
X41757419Y59290478D02*
X41852657Y59290478D01*
X42090752Y59766668D02*
X42757419Y59766668D01*
X42185990Y59766668D02*
X42138371Y59814287D01*
X42138371Y59814287D02*
X42090752Y59909525D01*
X42090752Y59909525D02*
X42090752Y60052382D01*
X42090752Y60052382D02*
X42138371Y60147620D01*
X42138371Y60147620D02*
X42233609Y60195239D01*
X42233609Y60195239D02*
X42757419Y60195239D01*
X42757419Y60671430D02*
X41757419Y60671430D01*
X42376466Y60766668D02*
X42757419Y61052382D01*
X42090752Y61052382D02*
X42471704Y60671430D01*
D14*
X66704318Y83276668D02*
X67611461Y83276668D01*
X67611461Y83276668D02*
X67792889Y83216191D01*
X67792889Y83216191D02*
X67913842Y83095239D01*
X67913842Y83095239D02*
X67974318Y82913810D01*
X67974318Y82913810D02*
X67974318Y82792858D01*
X66704318Y84425715D02*
X66704318Y84183810D01*
X66704318Y84183810D02*
X66764794Y84062858D01*
X66764794Y84062858D02*
X66825270Y84002382D01*
X66825270Y84002382D02*
X67006699Y83881429D01*
X67006699Y83881429D02*
X67248603Y83820953D01*
X67248603Y83820953D02*
X67732413Y83820953D01*
X67732413Y83820953D02*
X67853365Y83881429D01*
X67853365Y83881429D02*
X67913842Y83941906D01*
X67913842Y83941906D02*
X67974318Y84062858D01*
X67974318Y84062858D02*
X67974318Y84304763D01*
X67974318Y84304763D02*
X67913842Y84425715D01*
X67913842Y84425715D02*
X67853365Y84486191D01*
X67853365Y84486191D02*
X67732413Y84546668D01*
X67732413Y84546668D02*
X67430032Y84546668D01*
X67430032Y84546668D02*
X67309080Y84486191D01*
X67309080Y84486191D02*
X67248603Y84425715D01*
X67248603Y84425715D02*
X67188127Y84304763D01*
X67188127Y84304763D02*
X67188127Y84062858D01*
X67188127Y84062858D02*
X67248603Y83941906D01*
X67248603Y83941906D02*
X67309080Y83881429D01*
X67309080Y83881429D02*
X67430032Y83820953D01*
D10*
X13483333Y94595181D02*
X13007143Y94595181D01*
X13007143Y94595181D02*
X13007143Y95595181D01*
X13769048Y95499943D02*
X13816667Y95547562D01*
X13816667Y95547562D02*
X13911905Y95595181D01*
X13911905Y95595181D02*
X14150000Y95595181D01*
X14150000Y95595181D02*
X14245238Y95547562D01*
X14245238Y95547562D02*
X14292857Y95499943D01*
X14292857Y95499943D02*
X14340476Y95404705D01*
X14340476Y95404705D02*
X14340476Y95309467D01*
X14340476Y95309467D02*
X14292857Y95166610D01*
X14292857Y95166610D02*
X13721429Y94595181D01*
X13721429Y94595181D02*
X14340476Y94595181D01*
X42019761Y38850181D02*
X41686428Y39326372D01*
X41448333Y38850181D02*
X41448333Y39850181D01*
X41448333Y39850181D02*
X41829285Y39850181D01*
X41829285Y39850181D02*
X41924523Y39802562D01*
X41924523Y39802562D02*
X41972142Y39754943D01*
X41972142Y39754943D02*
X42019761Y39659705D01*
X42019761Y39659705D02*
X42019761Y39516848D01*
X42019761Y39516848D02*
X41972142Y39421610D01*
X41972142Y39421610D02*
X41924523Y39373991D01*
X41924523Y39373991D02*
X41829285Y39326372D01*
X41829285Y39326372D02*
X41448333Y39326372D01*
X42305476Y39850181D02*
X42638809Y38850181D01*
X42638809Y38850181D02*
X42972142Y39850181D01*
X43829285Y38850181D02*
X43257857Y38850181D01*
X43543571Y38850181D02*
X43543571Y39850181D01*
X43543571Y39850181D02*
X43448333Y39707324D01*
X43448333Y39707324D02*
X43353095Y39612086D01*
X43353095Y39612086D02*
X43257857Y39564467D01*
D14*
X66704318Y78976668D02*
X67611461Y78976668D01*
X67611461Y78976668D02*
X67792889Y78916191D01*
X67792889Y78916191D02*
X67913842Y78795239D01*
X67913842Y78795239D02*
X67974318Y78613810D01*
X67974318Y78613810D02*
X67974318Y78492858D01*
X66704318Y80186191D02*
X66704318Y79581429D01*
X66704318Y79581429D02*
X67309080Y79520953D01*
X67309080Y79520953D02*
X67248603Y79581429D01*
X67248603Y79581429D02*
X67188127Y79702382D01*
X67188127Y79702382D02*
X67188127Y80004763D01*
X67188127Y80004763D02*
X67248603Y80125715D01*
X67248603Y80125715D02*
X67309080Y80186191D01*
X67309080Y80186191D02*
X67430032Y80246668D01*
X67430032Y80246668D02*
X67732413Y80246668D01*
X67732413Y80246668D02*
X67853365Y80186191D01*
X67853365Y80186191D02*
X67913842Y80125715D01*
X67913842Y80125715D02*
X67974318Y80004763D01*
X67974318Y80004763D02*
X67974318Y79702382D01*
X67974318Y79702382D02*
X67913842Y79581429D01*
X67913842Y79581429D02*
X67853365Y79520953D01*
D15*
%TO.C,A1*%
X18588000Y43740000D02*
X18588000Y41070000D01*
X18588000Y38530000D02*
X18588000Y300000D01*
X18588000Y300000D02*
X23668000Y300000D01*
X21258000Y41070000D02*
X18588000Y41070000D01*
X21258000Y38530000D02*
X18588000Y38530000D01*
X21258000Y38530000D02*
X21258000Y41070000D01*
X21258000Y38530000D02*
X21258000Y2970000D01*
X21258000Y2970000D02*
X18588000Y2970000D01*
X23668000Y8180000D02*
X31548000Y8180000D01*
X23668000Y-2240000D02*
X23668000Y8180000D01*
X31548000Y8180000D02*
X31548000Y-2240000D01*
X31548000Y-2240000D02*
X23668000Y-2240000D01*
X33958000Y41070000D02*
X33958000Y2970000D01*
X33958000Y41070000D02*
X36628000Y41070000D01*
X33958000Y2970000D02*
X36628000Y2970000D01*
X36628000Y43740000D02*
X18588000Y43740000D01*
X36628000Y300000D02*
X31548000Y300000D01*
X36628000Y300000D02*
X36628000Y43740000D01*
%TO.C,J2*%
X-6490000Y62780000D02*
X-6490000Y37260000D01*
X-6490000Y62780000D02*
X2140000Y62780000D01*
X-6490000Y62660000D02*
X2140000Y62660000D01*
X-6490000Y62541905D02*
X2140000Y62541905D01*
X-6490000Y62423810D02*
X2140000Y62423810D01*
X-6490000Y62305715D02*
X2140000Y62305715D01*
X-6490000Y62187620D02*
X2140000Y62187620D01*
X-6490000Y62069525D02*
X2140000Y62069525D01*
X-6490000Y61951430D02*
X2140000Y61951430D01*
X-6490000Y61833335D02*
X2140000Y61833335D01*
X-6490000Y61715240D02*
X2140000Y61715240D01*
X-6490000Y61597145D02*
X2140000Y61597145D01*
X-6490000Y61479050D02*
X2140000Y61479050D01*
X-6490000Y61360955D02*
X2140000Y61360955D01*
X-6490000Y61242860D02*
X2140000Y61242860D01*
X-6490000Y61124765D02*
X2140000Y61124765D01*
X-6490000Y61006670D02*
X2140000Y61006670D01*
X-6490000Y60888575D02*
X2140000Y60888575D01*
X-6490000Y60770480D02*
X2140000Y60770480D01*
X-6490000Y60652385D02*
X2140000Y60652385D01*
X-6490000Y60534290D02*
X2140000Y60534290D01*
X-6490000Y60416195D02*
X2140000Y60416195D01*
X-6490000Y60298100D02*
X2140000Y60298100D01*
X-6490000Y60180000D02*
X2140000Y60180000D01*
X-6490000Y57640000D02*
X2140000Y57640000D01*
X-6490000Y55100000D02*
X2140000Y55100000D01*
X-6490000Y52560000D02*
X2140000Y52560000D01*
X-6490000Y50020000D02*
X2140000Y50020000D01*
X-6490000Y47480000D02*
X2140000Y47480000D01*
X-6490000Y44940000D02*
X2140000Y44940000D01*
X-6490000Y42400000D02*
X2140000Y42400000D01*
X-6490000Y39860000D02*
X2140000Y39860000D01*
X-6490000Y37260000D02*
X2140000Y37260000D01*
X2140000Y62780000D02*
X2140000Y37260000D01*
X2140000Y61810000D02*
X2490000Y61810000D01*
X2140000Y61090000D02*
X2490000Y61090000D01*
X2140000Y59270000D02*
X2550000Y59270000D01*
X2140000Y58550000D02*
X2550000Y58550000D01*
X2140000Y56730000D02*
X2550000Y56730000D01*
X2140000Y56010000D02*
X2550000Y56010000D01*
X2140000Y54190000D02*
X2550000Y54190000D01*
X2140000Y53470000D02*
X2550000Y53470000D01*
X2140000Y51650000D02*
X2550000Y51650000D01*
X2140000Y50930000D02*
X2550000Y50930000D01*
X2140000Y49110000D02*
X2550000Y49110000D01*
X2140000Y48390000D02*
X2550000Y48390000D01*
X2140000Y46570000D02*
X2550000Y46570000D01*
X2140000Y45850000D02*
X2550000Y45850000D01*
X2140000Y44030000D02*
X2550000Y44030000D01*
X2140000Y43310000D02*
X2550000Y43310000D01*
X2140000Y41490000D02*
X2550000Y41490000D01*
X2140000Y40770000D02*
X2550000Y40770000D01*
X2140000Y38950000D02*
X2550000Y38950000D01*
X2140000Y38230000D02*
X2550000Y38230000D01*
X3600000Y62780000D02*
X4710000Y62780000D01*
X4710000Y62780000D02*
X4710000Y61450000D01*
D16*
%TO.C,Logo1*%
X3896872Y70864977D02*
X4000471Y70862382D01*
X4089632Y70858246D01*
X4157928Y70852563D01*
X4198934Y70845331D01*
X4207326Y70840971D01*
X4215792Y70816698D01*
X4229565Y70761426D01*
X4247450Y70680662D01*
X4268252Y70579912D01*
X4290777Y70464683D01*
X4302582Y70401902D01*
X4324849Y70282787D01*
X4345021Y70176565D01*
X4362085Y70088427D01*
X4375031Y70023566D01*
X4382845Y69987174D01*
X4384578Y69981184D01*
X4404110Y69971061D01*
X4451157Y69949662D01*
X4518997Y69919839D01*
X4600909Y69884445D01*
X4690172Y69846332D01*
X4780065Y69808353D01*
X4863865Y69773360D01*
X4934853Y69744206D01*
X4986306Y69723743D01*
X5011503Y69714823D01*
X5012604Y69714657D01*
X5032481Y69724769D01*
X5078223Y69753117D01*
X5145283Y69796723D01*
X5229116Y69852606D01*
X5325174Y69917787D01*
X5380350Y69955679D01*
X5481519Y70024725D01*
X5573370Y70086050D01*
X5651256Y70136663D01*
X5710531Y70173571D01*
X5746549Y70193782D01*
X5754623Y70196701D01*
X5773416Y70184153D01*
X5813543Y70149463D01*
X5870507Y70097063D01*
X5939815Y70031384D01*
X6016969Y69956856D01*
X6097475Y69877913D01*
X6176837Y69798983D01*
X6250560Y69724500D01*
X6314148Y69658894D01*
X6363106Y69606596D01*
X6392939Y69572039D01*
X6400058Y69560478D01*
X6390047Y69541654D01*
X6361922Y69496631D01*
X6318546Y69429787D01*
X6262782Y69345499D01*
X6197494Y69248144D01*
X6147754Y69174707D01*
X5895449Y68803667D01*
X6150445Y68185095D01*
X6595069Y68101275D01*
X7039693Y68017454D01*
X7039693Y67092006D01*
X6595069Y67008186D01*
X6150445Y66924365D01*
X6022947Y66615080D01*
X5895449Y66305794D01*
X6147754Y65934754D01*
X6218004Y65830843D01*
X6280728Y65736913D01*
X6333062Y65657348D01*
X6372143Y65596530D01*
X6395107Y65558843D01*
X6400058Y65548579D01*
X6387324Y65530090D01*
X6352118Y65490580D01*
X6298938Y65434478D01*
X6232282Y65366213D01*
X6156646Y65290214D01*
X6076528Y65210908D01*
X5996426Y65132725D01*
X5920836Y65060093D01*
X5854255Y64997441D01*
X5801182Y64949197D01*
X5766113Y64919790D01*
X5754377Y64912759D01*
X5732740Y64922877D01*
X5685338Y64951241D01*
X5616807Y64994871D01*
X5531785Y65050782D01*
X5434907Y65115994D01*
X5379650Y65153781D01*
X5278752Y65222657D01*
X5187701Y65283860D01*
X5111030Y65334422D01*
X5053272Y65371372D01*
X5018957Y65391742D01*
X5011746Y65394803D01*
X4991252Y65387864D01*
X4943487Y65368949D01*
X4875168Y65340913D01*
X4793011Y65306609D01*
X4703730Y65268891D01*
X4614042Y65230613D01*
X4530662Y65194630D01*
X4460306Y65163794D01*
X4409690Y65140961D01*
X4385529Y65128983D01*
X4384578Y65128276D01*
X4379964Y65109469D01*
X4369672Y65059382D01*
X4354713Y64983207D01*
X4336099Y64886135D01*
X4314841Y64773357D01*
X4302582Y64707558D01*
X4279638Y64587050D01*
X4257805Y64478203D01*
X4238278Y64386524D01*
X4222252Y64317519D01*
X4210921Y64276696D01*
X4207326Y64268489D01*
X4182994Y64260452D01*
X4128041Y64253967D01*
X4048892Y64249030D01*
X3951974Y64245636D01*
X3843713Y64243782D01*
X3730535Y64243462D01*
X3618865Y64244673D01*
X3515132Y64247410D01*
X3425759Y64251669D01*
X3357174Y64257445D01*
X3315803Y64264733D01*
X3307190Y64269105D01*
X3296867Y64295236D01*
X3282108Y64350607D01*
X3264648Y64427893D01*
X3246220Y64519770D01*
X3240259Y64551842D01*
X3211934Y64706476D01*
X3189124Y64828625D01*
X3170920Y64922327D01*
X3156417Y64991616D01*
X3144708Y65040529D01*
X3134885Y65073103D01*
X3126044Y65093372D01*
X3117276Y65105374D01*
X3115543Y65107053D01*
X3087629Y65123816D01*
X3033305Y65149386D01*
X2959223Y65181212D01*
X2872035Y65216740D01*
X2778392Y65253417D01*
X2684948Y65288689D01*
X2598353Y65320004D01*
X2525260Y65344807D01*
X2472322Y65360546D01*
X2446189Y65364668D01*
X2445274Y65364324D01*
X2423914Y65350359D01*
X2376916Y65318678D01*
X2309173Y65272609D01*
X2225577Y65215482D01*
X2131018Y65150627D01*
X2104146Y65132157D01*
X2006725Y65066301D01*
X1917837Y65008350D01*
X1842588Y64961462D01*
X1786080Y64928793D01*
X1753419Y64913500D01*
X1749407Y64912759D01*
X1728316Y64925608D01*
X1686536Y64961112D01*
X1628555Y65014707D01*
X1558865Y65081829D01*
X1481955Y65157913D01*
X1402317Y65238396D01*
X1324439Y65318713D01*
X1252814Y65394301D01*
X1191930Y65460595D01*
X1146279Y65513031D01*
X1120350Y65547045D01*
X1116117Y65556455D01*
X1126088Y65578357D01*
X1152980Y65623200D01*
X1192264Y65683679D01*
X1223883Y65730211D01*
X1281902Y65814525D01*
X1350216Y65914374D01*
X1418421Y66014527D01*
X1454925Y66068373D01*
X1578200Y66250629D01*
X1495480Y66403619D01*
X1459241Y66473318D01*
X1431074Y66532586D01*
X1415009Y66572689D01*
X1412774Y66582897D01*
X1429278Y66595171D01*
X1475918Y66619387D01*
X1548391Y66653737D01*
X1642394Y66696412D01*
X1753626Y66745606D01*
X1877785Y66799510D01*
X2010568Y66856316D01*
X2147673Y66914218D01*
X2284798Y66971407D01*
X2417642Y67026076D01*
X2541902Y67076416D01*
X2653275Y67120620D01*
X2747461Y67156881D01*
X2820156Y67183391D01*
X2867059Y67198342D01*
X2883167Y67200746D01*
X2903714Y67181689D01*
X2937067Y67139964D01*
X2976298Y67084294D01*
X2979401Y67079622D01*
X3094577Y66935736D01*
X3228947Y66819717D01*
X3378216Y66732570D01*
X3538087Y66675301D01*
X3704263Y66648914D01*
X3872448Y66654415D01*
X4038345Y66692810D01*
X4197658Y66765105D01*
X4232513Y66786374D01*
X4373263Y66897004D01*
X4486286Y67027698D01*
X4570997Y67173936D01*
X4626806Y67331192D01*
X4653126Y67494943D01*
X4649370Y67660667D01*
X4614950Y67823838D01*
X4549277Y67979935D01*
X4451765Y68124433D01*
X4412187Y68169131D01*
X4288297Y68282888D01*
X4157876Y68365782D01*
X4011685Y68422644D01*
X3866912Y68454313D01*
X3704140Y68462131D01*
X3540560Y68436062D01*
X3381702Y68378755D01*
X3233094Y68292856D01*
X3100265Y68181014D01*
X2988744Y68045877D01*
X2976989Y68028117D01*
X2938492Y67971850D01*
X2905137Y67929077D01*
X2883840Y67908628D01*
X2883167Y67908331D01*
X2860129Y67912721D01*
X2807843Y67930124D01*
X2730610Y67958732D01*
X2632732Y67996735D01*
X2518509Y68042326D01*
X2392242Y68093697D01*
X2258233Y68149038D01*
X2120782Y68206542D01*
X1984192Y68264399D01*
X1852763Y68320802D01*
X1730795Y68373942D01*
X1622591Y68422010D01*
X1532451Y68463199D01*
X1464677Y68495699D01*
X1423570Y68517703D01*
X1412774Y68526564D01*
X1421181Y68553640D01*
X1443728Y68604303D01*
X1476387Y68669817D01*
X1495480Y68705841D01*
X1578200Y68858832D01*
X1454925Y69041088D01*
X1391772Y69134125D01*
X1322273Y69235985D01*
X1256835Y69331438D01*
X1223883Y69379250D01*
X1178727Y69446495D01*
X1142943Y69503436D01*
X1121062Y69542646D01*
X1116437Y69555381D01*
X1128915Y69573917D01*
X1163748Y69614941D01*
X1217322Y69674475D01*
X1286017Y69748542D01*
X1366219Y69833165D01*
X1417714Y69886685D01*
X1509714Y69980319D01*
X1592001Y70061241D01*
X1661055Y70126177D01*
X1713356Y70171858D01*
X1745384Y70195011D01*
X1751884Y70197232D01*
X1776606Y70186924D01*
X1826595Y70158439D01*
X1896788Y70114937D01*
X1982125Y70059577D01*
X2077544Y69995520D01*
X2104146Y69977303D01*
X2200833Y69910927D01*
X2287883Y69851378D01*
X2360405Y69801984D01*
X2413507Y69766075D01*
X2442297Y69746981D01*
X2445274Y69745136D01*
X2468218Y69747895D01*
X2518664Y69762538D01*
X2589959Y69786513D01*
X2675453Y69817266D01*
X2768493Y69852244D01*
X2862426Y69888893D01*
X2950601Y69924661D01*
X3026366Y69956994D01*
X3083069Y69983338D01*
X3114057Y70001142D01*
X3115543Y70002407D01*
X3124399Y70013294D01*
X3133157Y70031682D01*
X3142723Y70061606D01*
X3154004Y70107103D01*
X3167907Y70172209D01*
X3185337Y70260961D01*
X3207202Y70377393D01*
X3234409Y70525542D01*
X3240259Y70557618D01*
X3258626Y70652686D01*
X3276595Y70735565D01*
X3292431Y70798930D01*
X3304400Y70835458D01*
X3307190Y70840356D01*
X3331928Y70848427D01*
X3387210Y70854987D01*
X3466611Y70860033D01*
X3563704Y70863559D01*
X3672062Y70865561D01*
X3785260Y70866036D01*
X3896872Y70864977D01*
G36*
X3896872Y70864977D02*
G01*
X4000471Y70862382D01*
X4089632Y70858246D01*
X4157928Y70852563D01*
X4198934Y70845331D01*
X4207326Y70840971D01*
X4215792Y70816698D01*
X4229565Y70761426D01*
X4247450Y70680662D01*
X4268252Y70579912D01*
X4290777Y70464683D01*
X4302582Y70401902D01*
X4324849Y70282787D01*
X4345021Y70176565D01*
X4362085Y70088427D01*
X4375031Y70023566D01*
X4382845Y69987174D01*
X4384578Y69981184D01*
X4404110Y69971061D01*
X4451157Y69949662D01*
X4518997Y69919839D01*
X4600909Y69884445D01*
X4690172Y69846332D01*
X4780065Y69808353D01*
X4863865Y69773360D01*
X4934853Y69744206D01*
X4986306Y69723743D01*
X5011503Y69714823D01*
X5012604Y69714657D01*
X5032481Y69724769D01*
X5078223Y69753117D01*
X5145283Y69796723D01*
X5229116Y69852606D01*
X5325174Y69917787D01*
X5380350Y69955679D01*
X5481519Y70024725D01*
X5573370Y70086050D01*
X5651256Y70136663D01*
X5710531Y70173571D01*
X5746549Y70193782D01*
X5754623Y70196701D01*
X5773416Y70184153D01*
X5813543Y70149463D01*
X5870507Y70097063D01*
X5939815Y70031384D01*
X6016969Y69956856D01*
X6097475Y69877913D01*
X6176837Y69798983D01*
X6250560Y69724500D01*
X6314148Y69658894D01*
X6363106Y69606596D01*
X6392939Y69572039D01*
X6400058Y69560478D01*
X6390047Y69541654D01*
X6361922Y69496631D01*
X6318546Y69429787D01*
X6262782Y69345499D01*
X6197494Y69248144D01*
X6147754Y69174707D01*
X5895449Y68803667D01*
X6150445Y68185095D01*
X6595069Y68101275D01*
X7039693Y68017454D01*
X7039693Y67092006D01*
X6595069Y67008186D01*
X6150445Y66924365D01*
X6022947Y66615080D01*
X5895449Y66305794D01*
X6147754Y65934754D01*
X6218004Y65830843D01*
X6280728Y65736913D01*
X6333062Y65657348D01*
X6372143Y65596530D01*
X6395107Y65558843D01*
X6400058Y65548579D01*
X6387324Y65530090D01*
X6352118Y65490580D01*
X6298938Y65434478D01*
X6232282Y65366213D01*
X6156646Y65290214D01*
X6076528Y65210908D01*
X5996426Y65132725D01*
X5920836Y65060093D01*
X5854255Y64997441D01*
X5801182Y64949197D01*
X5766113Y64919790D01*
X5754377Y64912759D01*
X5732740Y64922877D01*
X5685338Y64951241D01*
X5616807Y64994871D01*
X5531785Y65050782D01*
X5434907Y65115994D01*
X5379650Y65153781D01*
X5278752Y65222657D01*
X5187701Y65283860D01*
X5111030Y65334422D01*
X5053272Y65371372D01*
X5018957Y65391742D01*
X5011746Y65394803D01*
X4991252Y65387864D01*
X4943487Y65368949D01*
X4875168Y65340913D01*
X4793011Y65306609D01*
X4703730Y65268891D01*
X4614042Y65230613D01*
X4530662Y65194630D01*
X4460306Y65163794D01*
X4409690Y65140961D01*
X4385529Y65128983D01*
X4384578Y65128276D01*
X4379964Y65109469D01*
X4369672Y65059382D01*
X4354713Y64983207D01*
X4336099Y64886135D01*
X4314841Y64773357D01*
X4302582Y64707558D01*
X4279638Y64587050D01*
X4257805Y64478203D01*
X4238278Y64386524D01*
X4222252Y64317519D01*
X4210921Y64276696D01*
X4207326Y64268489D01*
X4182994Y64260452D01*
X4128041Y64253967D01*
X4048892Y64249030D01*
X3951974Y64245636D01*
X3843713Y64243782D01*
X3730535Y64243462D01*
X3618865Y64244673D01*
X3515132Y64247410D01*
X3425759Y64251669D01*
X3357174Y64257445D01*
X3315803Y64264733D01*
X3307190Y64269105D01*
X3296867Y64295236D01*
X3282108Y64350607D01*
X3264648Y64427893D01*
X3246220Y64519770D01*
X3240259Y64551842D01*
X3211934Y64706476D01*
X3189124Y64828625D01*
X3170920Y64922327D01*
X3156417Y64991616D01*
X3144708Y65040529D01*
X3134885Y65073103D01*
X3126044Y65093372D01*
X3117276Y65105374D01*
X3115543Y65107053D01*
X3087629Y65123816D01*
X3033305Y65149386D01*
X2959223Y65181212D01*
X2872035Y65216740D01*
X2778392Y65253417D01*
X2684948Y65288689D01*
X2598353Y65320004D01*
X2525260Y65344807D01*
X2472322Y65360546D01*
X2446189Y65364668D01*
X2445274Y65364324D01*
X2423914Y65350359D01*
X2376916Y65318678D01*
X2309173Y65272609D01*
X2225577Y65215482D01*
X2131018Y65150627D01*
X2104146Y65132157D01*
X2006725Y65066301D01*
X1917837Y65008350D01*
X1842588Y64961462D01*
X1786080Y64928793D01*
X1753419Y64913500D01*
X1749407Y64912759D01*
X1728316Y64925608D01*
X1686536Y64961112D01*
X1628555Y65014707D01*
X1558865Y65081829D01*
X1481955Y65157913D01*
X1402317Y65238396D01*
X1324439Y65318713D01*
X1252814Y65394301D01*
X1191930Y65460595D01*
X1146279Y65513031D01*
X1120350Y65547045D01*
X1116117Y65556455D01*
X1126088Y65578357D01*
X1152980Y65623200D01*
X1192264Y65683679D01*
X1223883Y65730211D01*
X1281902Y65814525D01*
X1350216Y65914374D01*
X1418421Y66014527D01*
X1454925Y66068373D01*
X1578200Y66250629D01*
X1495480Y66403619D01*
X1459241Y66473318D01*
X1431074Y66532586D01*
X1415009Y66572689D01*
X1412774Y66582897D01*
X1429278Y66595171D01*
X1475918Y66619387D01*
X1548391Y66653737D01*
X1642394Y66696412D01*
X1753626Y66745606D01*
X1877785Y66799510D01*
X2010568Y66856316D01*
X2147673Y66914218D01*
X2284798Y66971407D01*
X2417642Y67026076D01*
X2541902Y67076416D01*
X2653275Y67120620D01*
X2747461Y67156881D01*
X2820156Y67183391D01*
X2867059Y67198342D01*
X2883167Y67200746D01*
X2903714Y67181689D01*
X2937067Y67139964D01*
X2976298Y67084294D01*
X2979401Y67079622D01*
X3094577Y66935736D01*
X3228947Y66819717D01*
X3378216Y66732570D01*
X3538087Y66675301D01*
X3704263Y66648914D01*
X3872448Y66654415D01*
X4038345Y66692810D01*
X4197658Y66765105D01*
X4232513Y66786374D01*
X4373263Y66897004D01*
X4486286Y67027698D01*
X4570997Y67173936D01*
X4626806Y67331192D01*
X4653126Y67494943D01*
X4649370Y67660667D01*
X4614950Y67823838D01*
X4549277Y67979935D01*
X4451765Y68124433D01*
X4412187Y68169131D01*
X4288297Y68282888D01*
X4157876Y68365782D01*
X4011685Y68422644D01*
X3866912Y68454313D01*
X3704140Y68462131D01*
X3540560Y68436062D01*
X3381702Y68378755D01*
X3233094Y68292856D01*
X3100265Y68181014D01*
X2988744Y68045877D01*
X2976989Y68028117D01*
X2938492Y67971850D01*
X2905137Y67929077D01*
X2883840Y67908628D01*
X2883167Y67908331D01*
X2860129Y67912721D01*
X2807843Y67930124D01*
X2730610Y67958732D01*
X2632732Y67996735D01*
X2518509Y68042326D01*
X2392242Y68093697D01*
X2258233Y68149038D01*
X2120782Y68206542D01*
X1984192Y68264399D01*
X1852763Y68320802D01*
X1730795Y68373942D01*
X1622591Y68422010D01*
X1532451Y68463199D01*
X1464677Y68495699D01*
X1423570Y68517703D01*
X1412774Y68526564D01*
X1421181Y68553640D01*
X1443728Y68604303D01*
X1476387Y68669817D01*
X1495480Y68705841D01*
X1578200Y68858832D01*
X1454925Y69041088D01*
X1391772Y69134125D01*
X1322273Y69235985D01*
X1256835Y69331438D01*
X1223883Y69379250D01*
X1178727Y69446495D01*
X1142943Y69503436D01*
X1121062Y69542646D01*
X1116437Y69555381D01*
X1128915Y69573917D01*
X1163748Y69614941D01*
X1217322Y69674475D01*
X1286017Y69748542D01*
X1366219Y69833165D01*
X1417714Y69886685D01*
X1509714Y69980319D01*
X1592001Y70061241D01*
X1661055Y70126177D01*
X1713356Y70171858D01*
X1745384Y70195011D01*
X1751884Y70197232D01*
X1776606Y70186924D01*
X1826595Y70158439D01*
X1896788Y70114937D01*
X1982125Y70059577D01*
X2077544Y69995520D01*
X2104146Y69977303D01*
X2200833Y69910927D01*
X2287883Y69851378D01*
X2360405Y69801984D01*
X2413507Y69766075D01*
X2442297Y69746981D01*
X2445274Y69745136D01*
X2468218Y69747895D01*
X2518664Y69762538D01*
X2589959Y69786513D01*
X2675453Y69817266D01*
X2768493Y69852244D01*
X2862426Y69888893D01*
X2950601Y69924661D01*
X3026366Y69956994D01*
X3083069Y69983338D01*
X3114057Y70001142D01*
X3115543Y70002407D01*
X3124399Y70013294D01*
X3133157Y70031682D01*
X3142723Y70061606D01*
X3154004Y70107103D01*
X3167907Y70172209D01*
X3185337Y70260961D01*
X3207202Y70377393D01*
X3234409Y70525542D01*
X3240259Y70557618D01*
X3258626Y70652686D01*
X3276595Y70735565D01*
X3292431Y70798930D01*
X3304400Y70835458D01*
X3307190Y70840356D01*
X3331928Y70848427D01*
X3387210Y70854987D01*
X3466611Y70860033D01*
X3563704Y70863559D01*
X3672062Y70865561D01*
X3785260Y70866036D01*
X3896872Y70864977D01*
G37*
D15*
%TO.C,C5*%
X48170000Y72150000D02*
G75*
G02*
X39930000Y72150000I-4120000J0D01*
G01*
X39930000Y72150000D02*
G75*
G02*
X48170000Y72150000I4120000J0D01*
G01*
D17*
%TO.C,G\u002A\u002A\u002A*%
G36*
X63975317Y32425197D02*
G01*
X63992648Y32342987D01*
X63969424Y32247161D01*
X63919786Y32163564D01*
X63867271Y32147606D01*
X63824652Y32201433D01*
X63814725Y32290601D01*
X63837155Y32382321D01*
X63881250Y32444869D01*
X63910217Y32455345D01*
X63975317Y32425197D01*
G37*
G36*
X63121719Y17520671D02*
G01*
X63161673Y17421334D01*
X63165785Y17367394D01*
X63156755Y17274946D01*
X63117785Y17234261D01*
X63064748Y17223139D01*
X62970159Y17235042D01*
X62915210Y17269834D01*
X62879264Y17366645D01*
X62899553Y17472241D01*
X62960631Y17543309D01*
X63050193Y17565198D01*
X63121719Y17520671D01*
G37*
G36*
X47526929Y23259659D02*
G01*
X47586385Y23182962D01*
X47618469Y23051592D01*
X47592224Y22943629D01*
X47523096Y22870657D01*
X47426532Y22844263D01*
X47317978Y22876031D01*
X47250478Y22931025D01*
X47177963Y23034116D01*
X47174809Y23130311D01*
X47226154Y23226693D01*
X47315660Y23296944D01*
X47424624Y23306876D01*
X47526929Y23259659D01*
G37*
G36*
X53469890Y37246969D02*
G01*
X53564662Y37193736D01*
X53593327Y37099637D01*
X53572271Y37007468D01*
X53519162Y36931885D01*
X53424199Y36910121D01*
X53421845Y36910115D01*
X53323022Y36928564D01*
X53261341Y36966855D01*
X53229352Y37055479D01*
X53255725Y37146822D01*
X53324494Y37219444D01*
X53419697Y37251901D01*
X53469890Y37246969D01*
G37*
G36*
X42830509Y23282173D02*
G01*
X42893415Y23196404D01*
X42904400Y23115961D01*
X42887341Y23020665D01*
X42857508Y22967469D01*
X42767660Y22925809D01*
X42654212Y22930012D01*
X42554646Y22977184D01*
X42539226Y22992038D01*
X42488488Y23070720D01*
X42474554Y23122751D01*
X42508717Y23206314D01*
X42592486Y23276314D01*
X42697782Y23310640D01*
X42714047Y23311345D01*
X42830509Y23282173D01*
G37*
G36*
X47466045Y27812905D02*
G01*
X47525430Y27729002D01*
X47530605Y27607841D01*
X47512065Y27542218D01*
X47445427Y27423283D01*
X47361585Y27379883D01*
X47255400Y27410651D01*
X47188593Y27456336D01*
X47117190Y27533681D01*
X47085706Y27609705D01*
X47085631Y27612643D01*
X47120536Y27713944D01*
X47208677Y27797279D01*
X47325196Y27841673D01*
X47360137Y27844269D01*
X47466045Y27812905D01*
G37*
G36*
X64512500Y19800552D02*
G01*
X64608850Y19714611D01*
X64660570Y19595029D01*
X64660126Y19461160D01*
X64599985Y19332357D01*
X64582323Y19311298D01*
X64458331Y19212360D01*
X64333515Y19190125D01*
X64244167Y19218893D01*
X64152616Y19285702D01*
X64072319Y19371857D01*
X64021752Y19455455D01*
X64020232Y19529384D01*
X64044630Y19598105D01*
X64139041Y19741508D01*
X64274243Y19819439D01*
X64379053Y19833499D01*
X64512500Y19800552D01*
G37*
G36*
X53503320Y21529433D02*
G01*
X53568635Y21514710D01*
X53806438Y21426959D01*
X53987009Y21294371D01*
X54105371Y21122402D01*
X54156549Y20916507D01*
X54158297Y20868340D01*
X54125150Y20671576D01*
X54034399Y20500132D01*
X53899892Y20362622D01*
X53735476Y20267656D01*
X53554998Y20223847D01*
X53372307Y20239808D01*
X53240247Y20297370D01*
X53039394Y20464278D01*
X52901301Y20677252D01*
X52890419Y20702239D01*
X52835920Y20916594D01*
X52856261Y21112306D01*
X52949207Y21283679D01*
X53112524Y21425016D01*
X53191113Y21468941D01*
X53309720Y21522257D01*
X53400573Y21540819D01*
X53503320Y21529433D01*
G37*
G36*
X56004040Y27965425D02*
G01*
X56169711Y27869231D01*
X56297480Y27725883D01*
X56379501Y27549267D01*
X56407929Y27353274D01*
X56374917Y27151790D01*
X56337934Y27063046D01*
X56208603Y26877960D01*
X56043654Y26761133D01*
X55846083Y26714522D01*
X55803775Y26713784D01*
X55681467Y26721019D01*
X55586271Y26735972D01*
X55564009Y26743092D01*
X55414740Y26839006D01*
X55282664Y26976697D01*
X55184603Y27133531D01*
X55137379Y27286877D01*
X55135477Y27319639D01*
X55171417Y27533953D01*
X55270731Y27722102D01*
X55420662Y27871174D01*
X55608451Y27968257D01*
X55808312Y28000576D01*
X56004040Y27965425D01*
G37*
G36*
X45190759Y26088672D02*
G01*
X45391244Y26001210D01*
X45562921Y25853893D01*
X45601525Y25804940D01*
X45720342Y25587793D01*
X45775397Y25364536D01*
X45773131Y25144461D01*
X45719982Y24936857D01*
X45622391Y24751016D01*
X45486796Y24596227D01*
X45319637Y24481783D01*
X45127354Y24416973D01*
X44916387Y24411089D01*
X44693174Y24473420D01*
X44682065Y24478377D01*
X44486936Y24607537D01*
X44336426Y24788678D01*
X44235942Y25006177D01*
X44190886Y25244412D01*
X44206662Y25487761D01*
X44267390Y25677116D01*
X44392841Y25867944D01*
X44562508Y26005913D01*
X44761787Y26089624D01*
X44976072Y26117676D01*
X45190759Y26088672D01*
G37*
G36*
X61166916Y25726761D02*
G01*
X61377173Y25677193D01*
X61551975Y25584476D01*
X61578555Y25562625D01*
X61685178Y25430133D01*
X61769027Y25256812D01*
X61813544Y25079736D01*
X61816773Y25029241D01*
X61786120Y24857621D01*
X61701994Y24675043D01*
X61579067Y24508814D01*
X61494647Y24429753D01*
X61332451Y24341100D01*
X61139872Y24295751D01*
X60946171Y24297079D01*
X60782180Y24347605D01*
X60581033Y24496716D01*
X60438565Y24696102D01*
X60354629Y24939537D01*
X60350878Y25127332D01*
X60408417Y25320163D01*
X60515335Y25495682D01*
X60659721Y25631542D01*
X60749705Y25680813D01*
X60948621Y25729271D01*
X61166916Y25726761D01*
G37*
G36*
X61714619Y34888217D02*
G01*
X61732729Y34883495D01*
X61910783Y34812443D01*
X62075551Y34704877D01*
X62200774Y34579582D01*
X62237132Y34522608D01*
X62280257Y34368074D01*
X62278699Y34183757D01*
X62234604Y34002445D01*
X62197988Y33924404D01*
X62071772Y33753771D01*
X61919118Y33649690D01*
X61722898Y33601113D01*
X61692252Y33598214D01*
X61549290Y33595212D01*
X61443968Y33619753D01*
X61348708Y33673019D01*
X61232640Y33782968D01*
X61122380Y33946258D01*
X61097520Y33993403D01*
X61036286Y34122325D01*
X61007584Y34212040D01*
X61006558Y34291972D01*
X61028353Y34391545D01*
X61030495Y34399589D01*
X61109526Y34607012D01*
X61224849Y34755106D01*
X61387999Y34858673D01*
X61388500Y34858899D01*
X61501331Y34902152D01*
X61595660Y34910898D01*
X61714619Y34888217D01*
G37*
G36*
X67631277Y33227764D02*
G01*
X67688517Y33202740D01*
X67918078Y33050950D01*
X68091552Y32850666D01*
X68203164Y32613195D01*
X68247142Y32349847D01*
X68231678Y32138776D01*
X68148038Y31854151D01*
X68005447Y31575048D01*
X67819587Y31330177D01*
X67753824Y31264007D01*
X67650305Y31170489D01*
X67571637Y31117869D01*
X67487750Y31094569D01*
X67368574Y31089008D01*
X67299844Y31089183D01*
X67141720Y31098203D01*
X66996418Y31120139D01*
X66908023Y31145650D01*
X66753822Y31239441D01*
X66590849Y31381648D01*
X66441671Y31549089D01*
X66328853Y31718585D01*
X66306902Y31763146D01*
X66250661Y31939742D01*
X66218680Y32147792D01*
X66211689Y32361579D01*
X66230420Y32555392D01*
X66275607Y32703514D01*
X66279895Y32711721D01*
X66434898Y32922975D01*
X66638556Y33091299D01*
X66875445Y33211315D01*
X67130144Y33277649D01*
X67387229Y33284924D01*
X67631277Y33227764D01*
G37*
G36*
X56187256Y15730098D02*
G01*
X56464537Y15728865D01*
X56679230Y15726336D01*
X56839120Y15722122D01*
X56951988Y15715835D01*
X57025618Y15707086D01*
X57067791Y15695487D01*
X57086291Y15680649D01*
X57089323Y15668052D01*
X57077350Y15579923D01*
X57046905Y15456206D01*
X57006202Y15323119D01*
X56963454Y15206880D01*
X56926876Y15133707D01*
X56919116Y15124730D01*
X56864993Y15112970D01*
X56735543Y15104891D01*
X56533513Y15100532D01*
X56261646Y15099934D01*
X55922685Y15103139D01*
X55702093Y15106654D01*
X55407974Y15112184D01*
X55140354Y15117718D01*
X54908868Y15123016D01*
X54723152Y15127840D01*
X54592842Y15131949D01*
X54527574Y15135105D01*
X54521857Y15135961D01*
X54520644Y15176681D01*
X54527050Y15269956D01*
X54538600Y15390846D01*
X54552819Y15514406D01*
X54567233Y15615695D01*
X54572113Y15642499D01*
X54589889Y15730422D01*
X55839606Y15730422D01*
X56187256Y15730098D01*
G37*
G36*
X54164617Y9589961D02*
G01*
X54410560Y9588360D01*
X54636328Y9586247D01*
X55622102Y9575807D01*
X55761905Y9341345D01*
X55885379Y9115427D01*
X55996027Y8877490D01*
X56088695Y8642399D01*
X56158230Y8425023D01*
X56199479Y8240226D01*
X56207289Y8102877D01*
X56201979Y8071735D01*
X56194514Y8051289D01*
X56178852Y8034739D01*
X56147418Y8021672D01*
X56092636Y8011678D01*
X56006930Y8004345D01*
X55882726Y7999261D01*
X55712448Y7996016D01*
X55488519Y7994197D01*
X55203366Y7993394D01*
X54849411Y7993195D01*
X54755584Y7993192D01*
X53329730Y7993192D01*
X53351962Y8139730D01*
X53367534Y8227157D01*
X53396263Y8374470D01*
X53434826Y8565156D01*
X53479901Y8782705D01*
X53511191Y8931038D01*
X53556455Y9144346D01*
X53595554Y9329119D01*
X53625801Y9472628D01*
X53644514Y9562144D01*
X53649371Y9586247D01*
X53687041Y9588693D01*
X53792426Y9590128D01*
X53955095Y9590550D01*
X54164617Y9589961D01*
G37*
G36*
X40030485Y11371042D02*
G01*
X40128232Y11303396D01*
X40266595Y11185887D01*
X40450341Y11014674D01*
X40515668Y10951640D01*
X40683261Y10790435D01*
X40844216Y10638355D01*
X40984555Y10508417D01*
X41090295Y10413636D01*
X41126400Y10383026D01*
X41282708Y10255656D01*
X40984888Y9968649D01*
X40812668Y9808176D01*
X40630997Y9648304D01*
X40450982Y9497821D01*
X40283729Y9365512D01*
X40140343Y9260165D01*
X40031932Y9190565D01*
X39969689Y9165499D01*
X39889831Y9192805D01*
X39865902Y9214345D01*
X39828812Y9278158D01*
X39770716Y9398255D01*
X39698896Y9558069D01*
X39620634Y9741031D01*
X39543212Y9930570D01*
X39483656Y10084067D01*
X39435264Y10220207D01*
X39414248Y10314716D01*
X39418102Y10398180D01*
X39444318Y10501184D01*
X39448367Y10514713D01*
X39479246Y10659111D01*
X39499963Y10835815D01*
X39505306Y10959479D01*
X39509742Y11098511D01*
X39520734Y11208191D01*
X39534614Y11261534D01*
X39592043Y11301164D01*
X39698610Y11341834D01*
X39825894Y11374957D01*
X39945474Y11391945D01*
X39968591Y11392666D01*
X40030485Y11371042D01*
G37*
G36*
X60251004Y15568309D02*
G01*
X60321931Y15476743D01*
X60409448Y15345179D01*
X60490811Y15209801D01*
X60610386Y15016098D01*
X60749448Y14812916D01*
X60886220Y14631295D01*
X60951709Y14552827D01*
X61056963Y14428461D01*
X61138722Y14322803D01*
X61185333Y14251369D01*
X61191817Y14233095D01*
X61161808Y14194780D01*
X61079475Y14119718D01*
X60955718Y14017104D01*
X60801439Y13896134D01*
X60713124Y13829294D01*
X60467689Y13646713D01*
X60276196Y13506903D01*
X60130853Y13404712D01*
X60023865Y13334987D01*
X59947439Y13292575D01*
X59893781Y13272326D01*
X59864938Y13268576D01*
X59815466Y13303517D01*
X59736068Y13408695D01*
X59626377Y13584648D01*
X59511220Y13786345D01*
X59407652Y13972450D01*
X59315096Y14138142D01*
X59241326Y14269554D01*
X59194116Y14352814D01*
X59183505Y14371047D01*
X59175010Y14408867D01*
X59195176Y14461003D01*
X59251286Y14537624D01*
X59350628Y14648898D01*
X59477448Y14781355D01*
X59628560Y14943367D01*
X59777580Y15114611D01*
X59905113Y15272204D01*
X59977410Y15371247D01*
X60084131Y15515130D01*
X60165298Y15592665D01*
X60206973Y15605509D01*
X60251004Y15568309D01*
G37*
G36*
X49170715Y12114360D02*
G01*
X49259900Y12106686D01*
X49411982Y12096218D01*
X49611794Y12083890D01*
X49844169Y12070633D01*
X50093938Y12057382D01*
X50111417Y12056492D01*
X50349865Y12043561D01*
X50560639Y12030555D01*
X50731671Y12018350D01*
X50850896Y12007820D01*
X50906246Y11999838D01*
X50908474Y11998759D01*
X50907223Y11949739D01*
X50876574Y11834161D01*
X50818284Y11657139D01*
X50734111Y11423791D01*
X50625813Y11139232D01*
X50525939Y10885556D01*
X50415667Y10611440D01*
X50329079Y10402737D01*
X50262472Y10251664D01*
X50212142Y10150435D01*
X50174386Y10091267D01*
X50145500Y10066375D01*
X50135216Y10064269D01*
X50090003Y10087172D01*
X50001447Y10147997D01*
X49886477Y10234917D01*
X49852912Y10261478D01*
X49709456Y10379511D01*
X49547703Y10518146D01*
X49378059Y10667803D01*
X49210932Y10818901D01*
X49056731Y10961860D01*
X48925863Y11087098D01*
X48828735Y11185036D01*
X48775757Y11246093D01*
X48769079Y11259147D01*
X48781284Y11315180D01*
X48816208Y11419260D01*
X48859868Y11532685D01*
X48916505Y11691836D01*
X48962549Y11855735D01*
X48981336Y11948402D01*
X49008876Y12132689D01*
X49170715Y12114360D01*
G37*
G36*
X58010579Y30452105D02*
G01*
X58204997Y30392532D01*
X58214342Y30387847D01*
X58420699Y30239111D01*
X58586915Y30031010D01*
X58704924Y29775449D01*
X58750735Y29596256D01*
X58752177Y29397464D01*
X58695255Y29187947D01*
X58591406Y28986540D01*
X58452069Y28812076D01*
X58288681Y28683389D01*
X58163939Y28630025D01*
X57935005Y28592606D01*
X57701876Y28597932D01*
X57496801Y28644625D01*
X57459042Y28660135D01*
X57271574Y28782047D01*
X57105656Y28957211D01*
X56981506Y29160739D01*
X56928904Y29312761D01*
X56908718Y29554491D01*
X57323785Y29554491D01*
X57360450Y29386133D01*
X57461674Y29228060D01*
X57614303Y29098830D01*
X57668457Y29068304D01*
X57825051Y29014186D01*
X57965259Y29026089D01*
X58105009Y29107385D01*
X58181598Y29177017D01*
X58289492Y29324341D01*
X58322788Y29482276D01*
X58283780Y29662639D01*
X58278526Y29676095D01*
X58184676Y29845451D01*
X58059696Y29947480D01*
X57891345Y29990693D01*
X57821918Y29993499D01*
X57699459Y29986934D01*
X57611705Y29957172D01*
X57524176Y29889113D01*
X57475495Y29841789D01*
X57378312Y29730687D01*
X57332703Y29634854D01*
X57323785Y29554491D01*
X56908718Y29554491D01*
X56906748Y29578076D01*
X56954707Y29834548D01*
X57066593Y30067602D01*
X57236218Y30262660D01*
X57374417Y30362117D01*
X57563914Y30435936D01*
X57786426Y30466253D01*
X58010579Y30452105D01*
G37*
G36*
X55228824Y36605406D02*
G01*
X55535009Y36568523D01*
X55782234Y36481709D01*
X55972975Y36343339D01*
X56109713Y36151782D01*
X56174915Y35984178D01*
X56210827Y35727938D01*
X56179576Y35463553D01*
X56086446Y35212188D01*
X55936723Y34995011D01*
X55924690Y34982088D01*
X55786318Y34858903D01*
X55648454Y34794426D01*
X55482707Y34778461D01*
X55377915Y34785755D01*
X55218121Y34793968D01*
X55131855Y34777579D01*
X55119031Y34765887D01*
X55087654Y34731853D01*
X55042834Y34729982D01*
X54968541Y34765007D01*
X54848745Y34841657D01*
X54838087Y34848807D01*
X54645421Y35008354D01*
X54516404Y35193105D01*
X54436622Y35424478D01*
X54429891Y35455338D01*
X54405575Y35715501D01*
X54944838Y35715501D01*
X54968642Y35537403D01*
X55018640Y35433610D01*
X55135940Y35299629D01*
X55274052Y35239003D01*
X55423554Y35253194D01*
X55575023Y35343665D01*
X55578559Y35346746D01*
X55697776Y35493216D01*
X55741167Y35654815D01*
X55707770Y35827871D01*
X55705730Y35832822D01*
X55607115Y35982682D01*
X55466744Y36069373D01*
X55339137Y36089499D01*
X55175705Y36064923D01*
X55059343Y35985070D01*
X54999113Y35894897D01*
X54944838Y35715501D01*
X54405575Y35715501D01*
X54402544Y35747932D01*
X54442890Y36019453D01*
X54547753Y36260122D01*
X54713955Y36460158D01*
X54771966Y36508252D01*
X54849863Y36562795D01*
X54921678Y36594203D01*
X55011582Y36607617D01*
X55143746Y36608176D01*
X55228824Y36605406D01*
G37*
G36*
X58412657Y35102679D02*
G01*
X58722838Y35058105D01*
X58973735Y34968448D01*
X59172725Y34829419D01*
X59327183Y34636731D01*
X59379617Y34540683D01*
X59464980Y34284156D01*
X59482765Y34017460D01*
X59437450Y33755164D01*
X59333512Y33511837D01*
X59175430Y33302049D01*
X58967680Y33140369D01*
X58945477Y33128016D01*
X58805760Y33078331D01*
X58617772Y33045689D01*
X58410188Y33033439D01*
X58222554Y33043544D01*
X58032083Y33086042D01*
X57866015Y33170566D01*
X57701433Y33310102D01*
X57641163Y33373013D01*
X57492298Y33559222D01*
X57404162Y33737857D01*
X57366294Y33933594D01*
X57362862Y34029613D01*
X57380174Y34187330D01*
X57875416Y34187330D01*
X57888779Y34000801D01*
X57960576Y33826673D01*
X58082764Y33682927D01*
X58247300Y33587540D01*
X58282798Y33576336D01*
X58402821Y33565595D01*
X58550629Y33580366D01*
X58684293Y33614898D01*
X58733336Y33638157D01*
X58806115Y33712673D01*
X58879662Y33832065D01*
X58937881Y33964898D01*
X58964676Y34079734D01*
X58965016Y34090630D01*
X58932429Y34251009D01*
X58845412Y34413966D01*
X58732869Y34538016D01*
X58578239Y34621023D01*
X58400938Y34643565D01*
X58221871Y34610053D01*
X58061943Y34524899D01*
X57942062Y34392514D01*
X57928530Y34368283D01*
X57875416Y34187330D01*
X57380174Y34187330D01*
X57395539Y34327304D01*
X57489983Y34592265D01*
X57640809Y34814995D01*
X57842634Y34985997D01*
X57933378Y35036311D01*
X58041808Y35082152D01*
X58144851Y35105302D01*
X58271954Y35109840D01*
X58412657Y35102679D01*
G37*
G36*
X53195509Y26140976D02*
G01*
X53347721Y26124087D01*
X53504011Y26120698D01*
X53519185Y26121380D01*
X53720994Y26114688D01*
X53897359Y26064448D01*
X54068466Y25961819D01*
X54251879Y25800546D01*
X54461454Y25556634D01*
X54595138Y25307758D01*
X54654597Y25046186D01*
X54641498Y24764183D01*
X54557505Y24454015D01*
X54547619Y24427348D01*
X54429458Y24203489D01*
X54258169Y23994313D01*
X54055430Y23822998D01*
X53900354Y23735308D01*
X53769671Y23687988D01*
X53644291Y23672590D01*
X53490886Y23682966D01*
X53357370Y23694793D01*
X53281615Y23689330D01*
X53244610Y23663914D01*
X53236301Y23647309D01*
X53187173Y23594062D01*
X53098820Y23597741D01*
X52966020Y23659113D01*
X52905974Y23695701D01*
X52626391Y23917524D01*
X52407531Y24188221D01*
X52308625Y24366422D01*
X52206945Y24665384D01*
X52194279Y24804846D01*
X52718570Y24804846D01*
X52739989Y24710097D01*
X52797010Y24604202D01*
X52835863Y24545557D01*
X52995941Y24363955D01*
X53177289Y24250979D01*
X53371195Y24208964D01*
X53568948Y24240245D01*
X53711117Y24310958D01*
X53874358Y24438980D01*
X53974137Y24577193D01*
X54024202Y24747919D01*
X54033720Y24834827D01*
X54024329Y25068190D01*
X53955313Y25257233D01*
X53821687Y25413510D01*
X53764928Y25458153D01*
X53578030Y25550803D01*
X53382320Y25574951D01*
X53190630Y25537196D01*
X53015792Y25444133D01*
X52870638Y25302359D01*
X52768001Y25118471D01*
X52722573Y24922308D01*
X52718570Y24804846D01*
X52194279Y24804846D01*
X52179008Y24972991D01*
X52223125Y25277451D01*
X52337607Y25566966D01*
X52517757Y25826331D01*
X52687299Y25981211D01*
X52875707Y26089650D01*
X53064060Y26142866D01*
X53195509Y26140976D01*
G37*
G36*
X43578477Y19162219D02*
G01*
X44107853Y19157202D01*
X44566563Y19151221D01*
X44953433Y19144308D01*
X45267290Y19136495D01*
X45506961Y19127812D01*
X45671273Y19118291D01*
X45759052Y19107962D01*
X45772072Y19103847D01*
X45805229Y19077451D01*
X45800712Y19045030D01*
X45749857Y18994006D01*
X45644000Y18911801D01*
X45635302Y18905298D01*
X45510262Y18818181D01*
X45342404Y18709720D01*
X45157403Y18596213D01*
X45039744Y18527230D01*
X44857510Y18426066D01*
X44635174Y18308001D01*
X44382878Y18177930D01*
X44110764Y18040746D01*
X43828974Y17901344D01*
X43547648Y17764616D01*
X43276930Y17635457D01*
X43026960Y17518761D01*
X42807880Y17419421D01*
X42629832Y17342331D01*
X42502958Y17292385D01*
X42445247Y17275281D01*
X42279170Y17247553D01*
X42276345Y16049372D01*
X42275179Y15394317D01*
X42274824Y14772921D01*
X42275253Y14189572D01*
X42276439Y13648659D01*
X42278357Y13154571D01*
X42280978Y12711696D01*
X42284277Y12324423D01*
X42288227Y11997141D01*
X42292801Y11734239D01*
X42297972Y11540104D01*
X42303714Y11419126D01*
X42304551Y11408404D01*
X42327984Y11130848D01*
X41968862Y10890635D01*
X41819174Y10793379D01*
X41690410Y10715021D01*
X41597947Y10664594D01*
X41559951Y10650422D01*
X41543546Y10668141D01*
X41529644Y10725947D01*
X41517718Y10830818D01*
X41507242Y10989731D01*
X41497691Y11209664D01*
X41488539Y11497594D01*
X41484358Y11653223D01*
X41480285Y11852401D01*
X41476409Y12121408D01*
X41472782Y12451917D01*
X41469454Y12835604D01*
X41466474Y13264142D01*
X41463894Y13729205D01*
X41461763Y14222470D01*
X41460133Y14735609D01*
X41459053Y15260298D01*
X41458574Y15788210D01*
X41458554Y15917622D01*
X41458554Y17872725D01*
X41927477Y17872725D01*
X41955738Y17718048D01*
X42042360Y17610614D01*
X42190104Y17548344D01*
X42383633Y17529149D01*
X42528984Y17538685D01*
X42633680Y17576515D01*
X42700949Y17624862D01*
X42829972Y17768819D01*
X42886374Y17919244D01*
X42867643Y18069208D01*
X42864775Y18076362D01*
X42764586Y18230369D01*
X42618388Y18321335D01*
X42444604Y18348576D01*
X42337735Y18341751D01*
X42254983Y18311966D01*
X42168011Y18245256D01*
X42098182Y18177872D01*
X41995706Y18064847D01*
X41943268Y17973769D01*
X41927548Y17880825D01*
X41927477Y17872725D01*
X41458554Y17872725D01*
X41458554Y19179220D01*
X43578477Y19162219D01*
G37*
G36*
X67290903Y38700167D02*
G01*
X67315914Y38665565D01*
X67325896Y38585633D01*
X67327477Y38477075D01*
X67306512Y38140122D01*
X67247634Y37760578D01*
X67156875Y37360479D01*
X67040264Y36961865D01*
X66903830Y36586776D01*
X66753603Y36257248D01*
X66687117Y36136496D01*
X66567335Y35955211D01*
X66415684Y35759966D01*
X66242088Y35560279D01*
X66056470Y35365672D01*
X65868753Y35185663D01*
X65688860Y35029771D01*
X65526715Y34907517D01*
X65392240Y34828420D01*
X65295999Y34801974D01*
X65239697Y34819613D01*
X65129736Y34866196D01*
X64981844Y34934697D01*
X64811745Y35018087D01*
X64807016Y35020467D01*
X64647844Y35101533D01*
X64435672Y35210924D01*
X64186519Y35340305D01*
X63916409Y35481343D01*
X63641363Y35625704D01*
X63488481Y35706302D01*
X62599792Y36175657D01*
X62754828Y36396675D01*
X64201384Y36396675D01*
X64224704Y36224499D01*
X64301467Y36100892D01*
X64441680Y36012008D01*
X64494400Y35991195D01*
X64668604Y35953521D01*
X64815464Y35982841D01*
X64953641Y36082966D01*
X64956298Y36085574D01*
X65052704Y36219411D01*
X65106959Y36376378D01*
X65118942Y36536874D01*
X65088531Y36681296D01*
X65015602Y36790042D01*
X64960922Y36825945D01*
X64790799Y36878501D01*
X64606109Y36897362D01*
X64455323Y36880199D01*
X64340757Y36809863D01*
X64255828Y36679604D01*
X64208501Y36504589D01*
X64201384Y36396675D01*
X62754828Y36396675D01*
X62757064Y36399863D01*
X62869964Y36544239D01*
X63024186Y36719333D01*
X63200991Y36905861D01*
X63379320Y37082248D01*
X65373849Y37082248D01*
X65389952Y36953448D01*
X65448025Y36857910D01*
X65562100Y36777968D01*
X65648332Y36736644D01*
X65803421Y36696343D01*
X65944992Y36724734D01*
X66088304Y36825263D01*
X66103268Y36839368D01*
X66213490Y36974065D01*
X66256192Y37113291D01*
X66238115Y37281752D01*
X66231266Y37308523D01*
X66151031Y37493149D01*
X66031844Y37619157D01*
X65884546Y37681432D01*
X65719974Y37674858D01*
X65581183Y37615386D01*
X65466262Y37499761D01*
X65397053Y37321286D01*
X65373849Y37082248D01*
X63379320Y37082248D01*
X63381636Y37084539D01*
X63547379Y37236082D01*
X63654247Y37323034D01*
X64061236Y37596567D01*
X64506496Y37843954D01*
X64954318Y38045629D01*
X65017356Y38069920D01*
X65133887Y38110389D01*
X65303021Y38164586D01*
X65512766Y38229075D01*
X65751128Y38300424D01*
X66006114Y38375196D01*
X66265731Y38449958D01*
X66517987Y38521275D01*
X66750888Y38585713D01*
X66952442Y38639838D01*
X67110656Y38680214D01*
X67213537Y38703408D01*
X67244292Y38707653D01*
X67290903Y38700167D01*
G37*
G36*
X55069761Y14767608D02*
G01*
X55341983Y14759705D01*
X55647976Y14749854D01*
X55950784Y14739292D01*
X56213449Y14729263D01*
X56219862Y14729002D01*
X56776708Y14706298D01*
X56776583Y14602898D01*
X56767424Y14536166D01*
X56741818Y14405904D01*
X56702464Y14224358D01*
X56652059Y14003772D01*
X56593300Y13756390D01*
X56560104Y13620269D01*
X56483137Y13304021D01*
X56399005Y12952483D01*
X56314240Y12593335D01*
X56235376Y12254256D01*
X56168943Y11962926D01*
X56168173Y11959499D01*
X56096211Y11645383D01*
X56021873Y11332042D01*
X55947892Y11030055D01*
X55877000Y10750000D01*
X55811932Y10502457D01*
X55755421Y10298004D01*
X55710198Y10147220D01*
X55678998Y10060684D01*
X55676008Y10054499D01*
X55610146Y10001084D01*
X55511094Y9987941D01*
X55421779Y10016477D01*
X55393752Y10068108D01*
X55366429Y10173547D01*
X55348018Y10292324D01*
X55320109Y10539006D01*
X55467109Y10660176D01*
X55615821Y10820596D01*
X55687271Y10991298D01*
X55681264Y11169553D01*
X55597601Y11352634D01*
X55524115Y11447957D01*
X55409016Y11579048D01*
X55409016Y12617822D01*
X55409143Y12929243D01*
X55410020Y13171653D01*
X55412387Y13354194D01*
X55416984Y13486009D01*
X55424553Y13576240D01*
X55435834Y13634029D01*
X55451568Y13668519D01*
X55472496Y13688853D01*
X55496939Y13702898D01*
X55593408Y13771002D01*
X55635408Y13859666D01*
X55642281Y13952422D01*
X55616867Y14089885D01*
X55536969Y14181926D01*
X55397098Y14232400D01*
X55224895Y14245499D01*
X55037699Y14221485D01*
X54911427Y14149113D01*
X54845287Y14028165D01*
X54836285Y13888901D01*
X54892801Y13789679D01*
X54980469Y13736961D01*
X55096400Y13688941D01*
X55096400Y12637637D01*
X55096400Y11586334D01*
X55005012Y11551589D01*
X54920507Y11499161D01*
X54827635Y11413680D01*
X54809628Y11393250D01*
X54722985Y11235858D01*
X54708701Y11063985D01*
X54765106Y10888196D01*
X54890527Y10719056D01*
X54920987Y10689499D01*
X55021784Y10573045D01*
X55071965Y10445240D01*
X55079150Y10281229D01*
X55071514Y10198409D01*
X55046563Y9986115D01*
X54573251Y9992942D01*
X54370493Y9996916D01*
X54179765Y10002516D01*
X54024003Y10008960D01*
X53933862Y10014727D01*
X53832445Y10028859D01*
X53773679Y10046720D01*
X53767785Y10053540D01*
X53774880Y10097731D01*
X53794603Y10206121D01*
X53824609Y10366203D01*
X53862556Y10565470D01*
X53904661Y10783986D01*
X53942016Y10990613D01*
X53986677Y11260359D01*
X54036473Y11578767D01*
X54089235Y11931377D01*
X54142791Y12303733D01*
X54194972Y12681376D01*
X54236535Y12995038D01*
X54280698Y13334970D01*
X54322521Y13655373D01*
X54360762Y13946838D01*
X54394178Y14199957D01*
X54421525Y14405322D01*
X54441562Y14553525D01*
X54453045Y14635156D01*
X54454020Y14641504D01*
X54476507Y14783509D01*
X55069761Y14767608D01*
G37*
G36*
X40194878Y32018724D02*
G01*
X40252431Y31968392D01*
X40293649Y31844893D01*
X40317682Y31651664D01*
X40323585Y31497961D01*
X40363436Y31103704D01*
X40467315Y30690683D01*
X40627863Y30271953D01*
X40837725Y29860568D01*
X41089542Y29469580D01*
X41375959Y29112045D01*
X41689618Y28801017D01*
X41962906Y28589208D01*
X42114839Y28494011D01*
X42304717Y28386317D01*
X42498883Y28284954D01*
X42559808Y28255320D01*
X42910312Y28088758D01*
X42775286Y28005307D01*
X42608368Y27878445D01*
X42419894Y27695753D01*
X42221859Y27471990D01*
X42026259Y27221913D01*
X41845088Y26960278D01*
X41690341Y26701843D01*
X41643870Y26613345D01*
X41588611Y26492827D01*
X41521233Y26329795D01*
X41447505Y26140211D01*
X41373199Y25940039D01*
X41304084Y25745241D01*
X41245931Y25571780D01*
X41204510Y25435620D01*
X41185591Y25352722D01*
X41185016Y25343972D01*
X41156312Y25283870D01*
X41069201Y25269764D01*
X40922180Y25301770D01*
X40713745Y25380006D01*
X40711689Y25380877D01*
X40462504Y25498841D01*
X40245212Y25625639D01*
X40066030Y25755078D01*
X39931177Y25880964D01*
X39846871Y25997103D01*
X39819327Y26097303D01*
X39854766Y26175369D01*
X39889522Y26199850D01*
X39965443Y26226401D01*
X40089339Y26256148D01*
X40207359Y26278049D01*
X40349125Y26309262D01*
X40467451Y26350075D01*
X40526247Y26383896D01*
X40575274Y26439482D01*
X40564753Y26486184D01*
X40539202Y26516808D01*
X40475436Y26556390D01*
X40356797Y26605032D01*
X40204614Y26654436D01*
X40138347Y26672756D01*
X39830208Y26764568D01*
X39588948Y26862575D01*
X39403295Y26972362D01*
X39261976Y27099517D01*
X39250299Y27112876D01*
X39137809Y27264606D01*
X39084972Y27394749D01*
X39084854Y27522635D01*
X39091793Y27554716D01*
X39117197Y27655933D01*
X39491186Y27627894D01*
X39673972Y27616589D01*
X39793202Y27616124D01*
X39862839Y27627373D01*
X39896844Y27651210D01*
X39898234Y27653345D01*
X39892902Y27694407D01*
X39843163Y27770404D01*
X39745109Y27886120D01*
X39594827Y28046336D01*
X39485079Y28158614D01*
X39243778Y28414742D01*
X39065050Y28633356D01*
X38946426Y28820264D01*
X38885434Y28981277D01*
X38879601Y29122204D01*
X38926457Y29248854D01*
X38986939Y29329550D01*
X39094400Y29448372D01*
X39324512Y29261782D01*
X39469429Y29144599D01*
X39565633Y29069367D01*
X39625238Y29028961D01*
X39660358Y29016258D01*
X39683106Y29024135D01*
X39700655Y29040585D01*
X39711482Y29088895D01*
X39693064Y29188929D01*
X39643695Y29347988D01*
X39600432Y29469553D01*
X39489430Y29775513D01*
X39405905Y30021941D01*
X39349682Y30222402D01*
X39320582Y30390462D01*
X39318429Y30539685D01*
X39343046Y30683636D01*
X39394256Y30835882D01*
X39471881Y31009987D01*
X39575745Y31219516D01*
X39577543Y31223080D01*
X39722305Y31492109D01*
X39859296Y31712077D01*
X39984036Y31877209D01*
X40092042Y31981729D01*
X40178835Y32019863D01*
X40194878Y32018724D01*
G37*
G36*
X49179672Y28530457D02*
G01*
X49593543Y28493723D01*
X49565566Y24622765D01*
X49561473Y24079543D01*
X49557221Y23558617D01*
X49552872Y23065279D01*
X49548487Y22604818D01*
X49544127Y22182525D01*
X49539854Y21803690D01*
X49535729Y21473602D01*
X49531814Y21197554D01*
X49528169Y20980835D01*
X49524856Y20828734D01*
X49521936Y20746544D01*
X49520500Y20733030D01*
X49479157Y20729546D01*
X49365776Y20726316D01*
X49186470Y20723343D01*
X48947354Y20720631D01*
X48654544Y20718185D01*
X48314154Y20716007D01*
X47932299Y20714102D01*
X47515093Y20712474D01*
X47068650Y20711125D01*
X46599087Y20710061D01*
X46112517Y20709284D01*
X45615054Y20708799D01*
X45112815Y20708610D01*
X44611912Y20708719D01*
X44118462Y20709132D01*
X43638578Y20709851D01*
X43178376Y20710880D01*
X42743970Y20712224D01*
X42341474Y20713886D01*
X41977004Y20715870D01*
X41656674Y20718179D01*
X41386598Y20720818D01*
X41172892Y20723790D01*
X41021670Y20727099D01*
X41000701Y20727759D01*
X40710171Y20738935D01*
X40490747Y20751637D01*
X40335384Y20767899D01*
X40237034Y20789750D01*
X40188653Y20819223D01*
X40183193Y20858350D01*
X40213608Y20909162D01*
X40245569Y20945488D01*
X40319984Y21011121D01*
X40439209Y21101846D01*
X40581667Y21201514D01*
X40633867Y21236072D01*
X40931016Y21429633D01*
X41480303Y21471720D01*
X41738547Y21488411D01*
X42025267Y21501970D01*
X42303935Y21510918D01*
X42519616Y21513807D01*
X43009642Y21513807D01*
X43150469Y21377038D01*
X43290432Y21269940D01*
X43420272Y21237115D01*
X43550036Y21278967D01*
X43689772Y21395901D01*
X43692623Y21398888D01*
X43843513Y21557506D01*
X44213075Y21530379D01*
X44388998Y21515556D01*
X44503983Y21499067D01*
X44575184Y21476170D01*
X44619758Y21442123D01*
X44642655Y21411650D01*
X44737298Y21312765D01*
X44859186Y21243321D01*
X44979281Y21217501D01*
X45026276Y21224289D01*
X45105942Y21265213D01*
X45211351Y21338593D01*
X45265819Y21382610D01*
X45349133Y21449383D01*
X45421702Y21488565D01*
X45508958Y21507469D01*
X45636332Y21513411D01*
X45721974Y21513807D01*
X45884695Y21510467D01*
X45992815Y21496976D01*
X46069730Y21468130D01*
X46135018Y21421920D01*
X46290542Y21308565D01*
X46418509Y21259112D01*
X46535642Y21273061D01*
X46658662Y21349914D01*
X46719948Y21404461D01*
X46842727Y21520955D01*
X47778760Y21542704D01*
X48714794Y21564452D01*
X48740366Y22385584D01*
X48748587Y22680140D01*
X48755710Y22993810D01*
X48761279Y23301649D01*
X48764836Y23578707D01*
X48765939Y23780513D01*
X48766684Y24005151D01*
X48770050Y24165025D01*
X48777733Y24273521D01*
X48791431Y24344025D01*
X48812840Y24389920D01*
X48843656Y24424592D01*
X48848093Y24428658D01*
X48946425Y24546069D01*
X49016129Y24682401D01*
X49039477Y24793024D01*
X49014604Y24861303D01*
X48949568Y24962930D01*
X48863631Y25069807D01*
X48768105Y25183013D01*
X48715215Y25269198D01*
X48692571Y25356843D01*
X48687785Y25474070D01*
X48692910Y25600878D01*
X48716412Y25679598D01*
X48770480Y25740051D01*
X48808608Y25769669D01*
X48923043Y25888889D01*
X49000037Y26037125D01*
X49026757Y26186093D01*
X49020922Y26237640D01*
X48985893Y26331097D01*
X48922398Y26452064D01*
X48882104Y26516899D01*
X48766273Y26691499D01*
X48766037Y27629345D01*
X48765801Y28567192D01*
X49179672Y28530457D01*
G37*
G36*
X52712979Y44194337D02*
G01*
X52868537Y44111864D01*
X52887194Y44096221D01*
X53025323Y43974942D01*
X53025323Y42518939D01*
X53026332Y42180064D01*
X53029202Y41858262D01*
X53033701Y41563742D01*
X53039595Y41306711D01*
X53046650Y41097378D01*
X53054633Y40945949D01*
X53063165Y40863398D01*
X53130225Y40631809D01*
X53239998Y40452527D01*
X53404967Y40309968D01*
X53585128Y40211866D01*
X53714799Y40155684D01*
X53880288Y40089106D01*
X54065333Y40018064D01*
X54253668Y39948490D01*
X54429030Y39886316D01*
X54575155Y39837473D01*
X54675780Y39807895D01*
X54709413Y39801807D01*
X54718641Y39839526D01*
X54726842Y39947259D01*
X54733777Y40116869D01*
X54739210Y40340221D01*
X54742902Y40609178D01*
X54744615Y40915605D01*
X54744708Y41009144D01*
X54744708Y42216480D01*
X54882837Y42337759D01*
X55039532Y42435943D01*
X55195636Y42457892D01*
X55345560Y42403312D01*
X55397067Y42364766D01*
X55506708Y42270493D01*
X55518256Y40870073D01*
X55529805Y39469653D01*
X55909026Y39317746D01*
X56080128Y39246367D01*
X56298443Y39151097D01*
X56540899Y39042225D01*
X56784425Y38930040D01*
X56893939Y38878502D01*
X57499631Y38591166D01*
X57519170Y39538410D01*
X57526419Y39856784D01*
X57534742Y40106542D01*
X57546026Y40297215D01*
X57562156Y40438336D01*
X57585017Y40539437D01*
X57616496Y40610052D01*
X57658478Y40659712D01*
X57712848Y40697949D01*
X57752849Y40719710D01*
X57901942Y40771781D01*
X58041101Y40759183D01*
X58193703Y40679793D01*
X58193945Y40679629D01*
X58234121Y40653212D01*
X58267082Y40628753D01*
X58293265Y40598892D01*
X58313102Y40556270D01*
X58327030Y40493526D01*
X58335483Y40403301D01*
X58338897Y40278234D01*
X58337706Y40110965D01*
X58332345Y39894135D01*
X58323250Y39620383D01*
X58310854Y39282348D01*
X58297571Y38926114D01*
X58255357Y37787173D01*
X58473417Y37342862D01*
X58556864Y37166278D01*
X58625562Y37008423D01*
X58672684Y36885887D01*
X58691406Y36815256D01*
X58691477Y36812913D01*
X58654415Y36725756D01*
X58584016Y36677350D01*
X58458146Y36624296D01*
X58310932Y36570016D01*
X58166712Y36522593D01*
X58049825Y36490105D01*
X57990362Y36480269D01*
X57937053Y36515869D01*
X57865623Y36616736D01*
X57797054Y36744038D01*
X57545690Y37173715D01*
X57233286Y37560326D01*
X57047343Y37744893D01*
X56923174Y37852138D01*
X56783232Y37956873D01*
X56622450Y38061272D01*
X56435760Y38167509D01*
X56218093Y38277758D01*
X55964381Y38394194D01*
X55669556Y38518991D01*
X55328549Y38654323D01*
X54936292Y38802364D01*
X54487717Y38965289D01*
X53977756Y39145271D01*
X53401340Y39344486D01*
X52996557Y39482625D01*
X52635843Y39606195D01*
X52290002Y39726503D01*
X51967738Y39840391D01*
X51677752Y39944705D01*
X51428748Y40036286D01*
X51229428Y40111979D01*
X51088496Y40168627D01*
X51023173Y40198355D01*
X50878839Y40290699D01*
X50702733Y40429026D01*
X50508278Y40600029D01*
X50308899Y40790401D01*
X50118018Y40986834D01*
X49949059Y41176022D01*
X49815446Y41344656D01*
X49730603Y41479429D01*
X49730313Y41480018D01*
X49651934Y41666186D01*
X49626868Y41811054D01*
X49656589Y41931807D01*
X49742571Y42045633D01*
X49782051Y42083260D01*
X49919306Y42185213D01*
X50045548Y42226523D01*
X50168618Y42204378D01*
X50296356Y42115965D01*
X50436604Y41958471D01*
X50543350Y41810138D01*
X50803107Y41470920D01*
X51076455Y41201717D01*
X51372562Y40994517D01*
X51611337Y40876555D01*
X51773558Y40810979D01*
X51920168Y40756056D01*
X52028277Y40720188D01*
X52058170Y40712523D01*
X52165631Y40690807D01*
X52165849Y42209922D01*
X52166961Y42605272D01*
X52170072Y42959373D01*
X52175025Y43265680D01*
X52181661Y43517649D01*
X52189821Y43708738D01*
X52199348Y43832400D01*
X52206069Y43873065D01*
X52285674Y44041286D01*
X52406635Y44154163D01*
X52554041Y44206808D01*
X52712979Y44194337D01*
G37*
G36*
X47997428Y19134846D02*
G01*
X48327229Y19131610D01*
X48632467Y19127083D01*
X48904309Y19121512D01*
X49133919Y19115145D01*
X49312463Y19108228D01*
X49431107Y19101011D01*
X49481016Y19093740D01*
X49481679Y19093263D01*
X49468754Y19058974D01*
X49402255Y19002315D01*
X49325371Y18952848D01*
X49190624Y18869779D01*
X49017385Y18755916D01*
X48814174Y18617501D01*
X48589508Y18460774D01*
X48351906Y18291974D01*
X48109886Y18117345D01*
X47871967Y17943124D01*
X47646667Y17775554D01*
X47442505Y17620876D01*
X47267999Y17485329D01*
X47131668Y17375154D01*
X47042029Y17296592D01*
X47007601Y17255884D01*
X47007477Y17254743D01*
X47034732Y17223203D01*
X47113551Y17141511D01*
X47239515Y17014054D01*
X47408208Y16845213D01*
X47615209Y16639375D01*
X47856103Y16400922D01*
X48126469Y16134238D01*
X48421891Y15843709D01*
X48737950Y15533717D01*
X49021276Y15256485D01*
X51035076Y13288115D01*
X51009650Y12877807D01*
X50996876Y12704268D01*
X50982424Y12559082D01*
X50968330Y12460474D01*
X50959466Y12428422D01*
X50910633Y12411329D01*
X50799632Y12400241D01*
X50642306Y12396401D01*
X50563477Y12397308D01*
X50391125Y12403756D01*
X50184876Y12415690D01*
X49962171Y12431617D01*
X49740448Y12450045D01*
X49537146Y12469482D01*
X49369704Y12488437D01*
X49255562Y12505416D01*
X49227758Y12511587D01*
X49170866Y12554080D01*
X49099421Y12642064D01*
X49061788Y12700755D01*
X49002113Y12780744D01*
X48895457Y12901924D01*
X48752639Y13052884D01*
X48584478Y13222211D01*
X48401795Y13398494D01*
X48387338Y13412122D01*
X48199872Y13589711D01*
X47980135Y13799903D01*
X47733199Y14037700D01*
X47464137Y14298102D01*
X47178024Y14576114D01*
X46879933Y14866736D01*
X46574937Y15164972D01*
X46268111Y15465823D01*
X45964528Y15764292D01*
X45669261Y16055382D01*
X45387385Y16334093D01*
X45123972Y16595429D01*
X44884097Y16834392D01*
X44672833Y17045983D01*
X44495253Y17225206D01*
X44356431Y17367063D01*
X44261442Y17466555D01*
X44215357Y17518686D01*
X44211790Y17525230D01*
X44253197Y17550729D01*
X44351184Y17597297D01*
X44489552Y17657517D01*
X44600975Y17703501D01*
X44972873Y17853800D01*
X45391736Y17407573D01*
X45527704Y17265158D01*
X45708404Y17079540D01*
X45922602Y16862062D01*
X46159058Y16624067D01*
X46406537Y16376897D01*
X46653801Y16131896D01*
X46724162Y16062576D01*
X47637726Y15163807D01*
X47611921Y15005467D01*
X47613494Y14822607D01*
X47670687Y14652846D01*
X47773758Y14521658D01*
X47806186Y14497457D01*
X47881065Y14461494D01*
X47978517Y14444969D01*
X48121169Y14445103D01*
X48198006Y14449330D01*
X48487973Y14467939D01*
X48705110Y14216722D01*
X48812703Y14088295D01*
X48877503Y13995351D01*
X48910172Y13916357D01*
X48921368Y13829781D01*
X48922247Y13778133D01*
X48936112Y13630850D01*
X48986749Y13544142D01*
X49087718Y13503958D01*
X49194501Y13496000D01*
X49354518Y13520119D01*
X49461857Y13600770D01*
X49522284Y13742598D01*
X49526576Y13763515D01*
X49526262Y13898991D01*
X49463518Y13993618D01*
X49334252Y14052041D01*
X49259400Y14066861D01*
X49165201Y14089615D01*
X49076863Y14135184D01*
X48975607Y14216038D01*
X48845738Y14341531D01*
X48598199Y14591290D01*
X48623316Y14774533D01*
X48620801Y14978119D01*
X48562405Y15157182D01*
X48459269Y15301990D01*
X48322533Y15402811D01*
X48163339Y15449914D01*
X47992829Y15433567D01*
X47908124Y15399239D01*
X47855605Y15374735D01*
X47811658Y15370352D01*
X47762343Y15394455D01*
X47693722Y15455407D01*
X47591857Y15561574D01*
X47533690Y15623932D01*
X47444348Y15716883D01*
X47307078Y15855811D01*
X47130219Y16032452D01*
X46922113Y16238544D01*
X46691101Y16465826D01*
X46445524Y16706034D01*
X46211026Y16934127D01*
X45972667Y17165832D01*
X45752466Y17380863D01*
X45556636Y17573080D01*
X45391391Y17736342D01*
X45262942Y17864507D01*
X45177501Y17951435D01*
X45141282Y17990985D01*
X45140522Y17992299D01*
X45167080Y18024048D01*
X45247317Y18085383D01*
X45367502Y18166342D01*
X45463290Y18226452D01*
X45639514Y18345833D01*
X45842667Y18501883D01*
X46046627Y18673875D01*
X46170965Y18787938D01*
X46545071Y19145586D01*
X47997428Y19134846D01*
G37*
G36*
X66407218Y44176814D02*
G01*
X66530358Y44116424D01*
X66594147Y44050045D01*
X66607344Y44006559D01*
X66618599Y43922246D01*
X66628108Y43791650D01*
X66636066Y43609312D01*
X66642669Y43369776D01*
X66648111Y43067584D01*
X66652590Y42697279D01*
X66655747Y42329911D01*
X66659386Y41908974D01*
X66663631Y41560584D01*
X66668689Y41279136D01*
X66674767Y41059024D01*
X66682071Y40894643D01*
X66690809Y40780389D01*
X66701186Y40710654D01*
X66713411Y40679833D01*
X66716699Y40677582D01*
X66772478Y40683892D01*
X66882191Y40716079D01*
X67028741Y40767420D01*
X67195031Y40831195D01*
X67363965Y40900680D01*
X67518445Y40969155D01*
X67641375Y41029896D01*
X67698708Y41063680D01*
X67945007Y41265784D01*
X68195840Y41542453D01*
X68314196Y41697038D01*
X68419116Y41837737D01*
X68519508Y41967032D01*
X68597274Y42061742D01*
X68611289Y42077551D01*
X68747073Y42178175D01*
X68896355Y42212881D01*
X69043601Y42188317D01*
X69173280Y42111128D01*
X69269859Y41987959D01*
X69317805Y41825456D01*
X69320400Y41774147D01*
X69307653Y41662188D01*
X69265315Y41545653D01*
X69187242Y41415990D01*
X69067291Y41264646D01*
X68899315Y41083069D01*
X68677172Y40862705D01*
X68639721Y40826662D01*
X68452897Y40650172D01*
X68303964Y40517864D01*
X68176651Y40417579D01*
X68054687Y40337155D01*
X67921803Y40264431D01*
X67822418Y40215793D01*
X67646179Y40133852D01*
X67464054Y40053424D01*
X67266079Y39970614D01*
X67042290Y39881525D01*
X66782721Y39782263D01*
X66477408Y39668931D01*
X66116388Y39537633D01*
X65764400Y39411186D01*
X65266048Y39230858D01*
X64831163Y39068709D01*
X64448502Y38919982D01*
X64106820Y38779921D01*
X63794872Y38643766D01*
X63501414Y38506763D01*
X63215202Y38364152D01*
X62924990Y38211176D01*
X62914097Y38205292D01*
X62627346Y38036399D01*
X62384063Y37858707D01*
X62167147Y37656158D01*
X61959502Y37412694D01*
X61744031Y37112256D01*
X61733312Y37096296D01*
X61603257Y36906014D01*
X61505937Y36773975D01*
X61433798Y36691452D01*
X61379286Y36649721D01*
X61338167Y36639855D01*
X61263667Y36649871D01*
X61134516Y36674123D01*
X60972017Y36708439D01*
X60869397Y36731654D01*
X60706321Y36771012D01*
X60573481Y36805953D01*
X60488242Y36831745D01*
X60466566Y36841385D01*
X60475544Y36882077D01*
X60516466Y36975377D01*
X60582265Y37106170D01*
X60643031Y37218602D01*
X60840708Y37574608D01*
X60840708Y39081983D01*
X60840708Y40589357D01*
X60954933Y40703582D01*
X61096282Y40796570D01*
X61255453Y40814853D01*
X61425612Y40757891D01*
X61451454Y40742949D01*
X61573738Y40668384D01*
X61602661Y39608164D01*
X61611120Y39330299D01*
X61620412Y39080561D01*
X61630033Y38868830D01*
X61639476Y38704989D01*
X61648238Y38598919D01*
X61655811Y38560501D01*
X61656223Y38560566D01*
X61794286Y38630216D01*
X61969963Y38717246D01*
X62170643Y38815581D01*
X62383716Y38919148D01*
X62596575Y39021875D01*
X62796608Y39117687D01*
X62971207Y39200510D01*
X63107763Y39264273D01*
X63193665Y39302900D01*
X63214631Y39311194D01*
X63258221Y39330636D01*
X63284800Y39367492D01*
X63298915Y39438866D01*
X63305110Y39561860D01*
X63306793Y39657902D01*
X63308747Y39780514D01*
X63312158Y39967853D01*
X63316763Y40206511D01*
X63322296Y40483080D01*
X63328493Y40784152D01*
X63335089Y41096318D01*
X63336100Y41143439D01*
X63361170Y42309224D01*
X63493534Y42427450D01*
X63590645Y42502581D01*
X63674083Y42529484D01*
X63764972Y42523108D01*
X63891762Y42478252D01*
X64002889Y42401745D01*
X64003838Y42400801D01*
X64103631Y42301063D01*
X64115851Y41031897D01*
X64119679Y40678167D01*
X64123895Y40395128D01*
X64128907Y40175317D01*
X64135125Y40011271D01*
X64142955Y39895527D01*
X64152807Y39820622D01*
X64165089Y39779094D01*
X64180209Y39763478D01*
X64185303Y39762730D01*
X64249120Y39777069D01*
X64369390Y39816090D01*
X64530686Y39873798D01*
X64717580Y39944198D01*
X64914643Y40021294D01*
X65106448Y40099093D01*
X65277566Y40171598D01*
X65412570Y40232816D01*
X65471323Y40262448D01*
X65551240Y40306348D01*
X65617893Y40348482D01*
X65672583Y40396035D01*
X65716608Y40456193D01*
X65751268Y40536140D01*
X65777860Y40643062D01*
X65797686Y40784142D01*
X65812042Y40966566D01*
X65822230Y41197520D01*
X65829547Y41484187D01*
X65835293Y41833753D01*
X65840766Y42253404D01*
X65841478Y42309713D01*
X65846676Y42709762D01*
X65851477Y43039125D01*
X65856314Y43305265D01*
X65861623Y43515645D01*
X65867837Y43677728D01*
X65875393Y43798978D01*
X65884724Y43886859D01*
X65896265Y43948832D01*
X65910452Y43992363D01*
X65927718Y44024912D01*
X65942624Y44046173D01*
X66032357Y44133514D01*
X66132867Y44190527D01*
X66264265Y44204700D01*
X66407218Y44176814D01*
G37*
G36*
X62089162Y22617381D02*
G01*
X62144557Y22551841D01*
X62209051Y22481364D01*
X62329666Y22375994D01*
X62496648Y22242890D01*
X62700241Y22089210D01*
X62930692Y21922115D01*
X63178245Y21748763D01*
X63433146Y21576314D01*
X63685641Y21411928D01*
X63771836Y21357499D01*
X64174895Y21104011D01*
X64515991Y20885679D01*
X64800253Y20697576D01*
X65032809Y20534771D01*
X65218786Y20392336D01*
X65363312Y20265341D01*
X65471515Y20148858D01*
X65548524Y20037956D01*
X65599466Y19927706D01*
X65629468Y19813181D01*
X65643660Y19689449D01*
X65647170Y19554818D01*
X65644130Y19458169D01*
X65631094Y19371000D01*
X65602184Y19283273D01*
X65551523Y19184945D01*
X65473232Y19065976D01*
X65361436Y18916326D01*
X65210256Y18725953D01*
X65038462Y18514920D01*
X64848541Y18281016D01*
X64636876Y18017305D01*
X64423824Y17749335D01*
X64229745Y17502653D01*
X64143016Y17391192D01*
X63945668Y17140399D01*
X63725933Y16868308D01*
X63491169Y16583434D01*
X63248731Y16294292D01*
X63005975Y16009400D01*
X62770257Y15737271D01*
X62548933Y15486423D01*
X62349359Y15265370D01*
X62178890Y15082629D01*
X62044882Y14946714D01*
X61978926Y14885890D01*
X61813593Y14753002D01*
X61662400Y14648027D01*
X61539664Y14580082D01*
X61464107Y14558115D01*
X61404387Y14585680D01*
X61314619Y14657893D01*
X61215750Y14757514D01*
X61132914Y14863703D01*
X61036517Y15008695D01*
X60936082Y15175314D01*
X60869811Y15294713D01*
X61426862Y15294713D01*
X61438836Y15213650D01*
X61481783Y15188624D01*
X61566237Y15218036D01*
X61642558Y15261977D01*
X61739919Y15341151D01*
X61853804Y15460900D01*
X61965488Y15598190D01*
X62056246Y15729987D01*
X62107352Y15833258D01*
X62107579Y15833999D01*
X62162960Y15908982D01*
X62224985Y15941112D01*
X62318086Y15990923D01*
X62418156Y16082553D01*
X62503938Y16191438D01*
X62554174Y16293016D01*
X62559559Y16327705D01*
X62540534Y16482094D01*
X62484864Y16568555D01*
X62391172Y16587586D01*
X62258078Y16539680D01*
X62151758Y16474242D01*
X62030774Y16381104D01*
X61964759Y16295585D01*
X61938245Y16191434D01*
X61934862Y16106123D01*
X61914400Y16000343D01*
X61843763Y15896885D01*
X61793241Y15845550D01*
X61630857Y15673967D01*
X61510535Y15511207D01*
X61440888Y15370218D01*
X61426862Y15294713D01*
X60869811Y15294713D01*
X60841132Y15346384D01*
X60761189Y15504730D01*
X60705776Y15633174D01*
X60684416Y15714543D01*
X60684400Y15715903D01*
X60708237Y15766666D01*
X60772963Y15862394D01*
X60868398Y15988887D01*
X60972391Y16117611D01*
X61098301Y16273474D01*
X61253225Y16472238D01*
X61421124Y16692944D01*
X61585958Y16914632D01*
X61659351Y17015333D01*
X61790498Y17194677D01*
X61906556Y17349592D01*
X61999642Y17469859D01*
X62061871Y17545258D01*
X62084514Y17566445D01*
X62134648Y17555756D01*
X62231626Y17529363D01*
X62286554Y17513292D01*
X62397047Y17473500D01*
X62453966Y17426335D01*
X62480558Y17350062D01*
X62484473Y17328269D01*
X62549884Y17129374D01*
X62664364Y16974875D01*
X62814647Y16871713D01*
X62987470Y16826830D01*
X63169566Y16847165D01*
X63295443Y16903918D01*
X63421526Y17020625D01*
X63514276Y17182451D01*
X63560399Y17359944D01*
X63556872Y17483116D01*
X63489303Y17694269D01*
X63375468Y17842712D01*
X63213538Y17930025D01*
X63007751Y17957807D01*
X62885428Y17947061D01*
X62786932Y17904514D01*
X62682469Y17821038D01*
X62564771Y17726636D01*
X62474610Y17690578D01*
X62391969Y17709182D01*
X62324758Y17755271D01*
X62287156Y17788962D01*
X62267210Y17823863D01*
X62269568Y17869746D01*
X62298877Y17936383D01*
X62359785Y18033547D01*
X62456937Y18171010D01*
X62594983Y18358543D01*
X62599236Y18364274D01*
X63341631Y18364274D01*
X63373614Y18302642D01*
X63447900Y18241365D01*
X63531994Y18203459D01*
X63571951Y18201149D01*
X63631618Y18237892D01*
X63701267Y18312193D01*
X63704303Y18316217D01*
X63758860Y18423792D01*
X63744050Y18500544D01*
X63662547Y18540035D01*
X63609704Y18543961D01*
X63491834Y18520620D01*
X63394853Y18461930D01*
X63344118Y18384888D01*
X63341631Y18364274D01*
X62599236Y18364274D01*
X62641361Y18421040D01*
X62770301Y18598243D01*
X62854880Y18724276D01*
X62900308Y18808390D01*
X62911794Y18859837D01*
X62901240Y18882577D01*
X62841662Y18918446D01*
X62710427Y18980478D01*
X62509268Y19067960D01*
X62239915Y19180178D01*
X61904100Y19316420D01*
X61503555Y19475973D01*
X61040011Y19658123D01*
X60634358Y19815998D01*
X60357678Y19923969D01*
X60102897Y20024701D01*
X59879656Y20114280D01*
X59697596Y20188792D01*
X59566356Y20244321D01*
X59495579Y20276952D01*
X59487611Y20281666D01*
X59467872Y20308908D01*
X59482619Y20346973D01*
X59540286Y20405330D01*
X59649306Y20493449D01*
X59732675Y20556877D01*
X59903220Y20692040D01*
X60116849Y20872015D01*
X60361694Y21086046D01*
X60539232Y21245533D01*
X60762554Y21245533D01*
X60795810Y21191072D01*
X60886746Y21112635D01*
X61022115Y21019067D01*
X61188670Y20919215D01*
X61373164Y20821926D01*
X61455810Y20782578D01*
X61613596Y20706748D01*
X61711308Y20649538D01*
X61761803Y20601486D01*
X61777942Y20553134D01*
X61778194Y20545398D01*
X61808951Y20374872D01*
X61889996Y20234242D01*
X62006700Y20132688D01*
X62144434Y20079390D01*
X62288569Y20083530D01*
X62414448Y20146115D01*
X62507205Y20201660D01*
X62588050Y20224269D01*
X62648650Y20205664D01*
X62761323Y20154803D01*
X62910811Y20079113D01*
X63081857Y19986020D01*
X63109424Y19970450D01*
X63277621Y19876085D01*
X63421260Y19797593D01*
X63526815Y19742212D01*
X63580763Y19717179D01*
X63584091Y19716450D01*
X63607338Y19681984D01*
X63630585Y19596696D01*
X63635436Y19569730D01*
X63704173Y19301506D01*
X63812184Y19087977D01*
X63955179Y18935617D01*
X64107708Y18856920D01*
X64244950Y18838135D01*
X64417936Y18845622D01*
X64590275Y18875575D01*
X64719259Y18920863D01*
X64832595Y19011126D01*
X64938726Y19149348D01*
X65018066Y19306318D01*
X65046802Y19409356D01*
X65043992Y19616528D01*
X64978435Y19823596D01*
X64861602Y20007642D01*
X64704965Y20145749D01*
X64667532Y20167057D01*
X64501766Y20213907D01*
X64303483Y20211124D01*
X64096339Y20163411D01*
X63903990Y20075476D01*
X63791016Y19992690D01*
X63757770Y19966604D01*
X63720782Y19954644D01*
X63667670Y19960291D01*
X63586053Y19987024D01*
X63463549Y20038324D01*
X63287776Y20117671D01*
X63195093Y20160196D01*
X62989882Y20255998D01*
X62846172Y20327752D01*
X62753563Y20382047D01*
X62701660Y20425472D01*
X62680062Y20464617D01*
X62677323Y20488297D01*
X62650076Y20632837D01*
X62580952Y20784927D01*
X62488875Y20903013D01*
X62488136Y20903674D01*
X62367704Y20963717D01*
X62215809Y20974981D01*
X62061596Y20938028D01*
X61981422Y20893905D01*
X61891746Y20838491D01*
X61824112Y20811060D01*
X61817448Y20810422D01*
X61766233Y20828637D01*
X61663061Y20878030D01*
X61523670Y20950727D01*
X61387251Y21025645D01*
X61160081Y21146606D01*
X60979633Y21228920D01*
X60850603Y21270932D01*
X60777690Y21270989D01*
X60762554Y21245533D01*
X60539232Y21245533D01*
X60625885Y21323375D01*
X60897552Y21573245D01*
X61164827Y21824898D01*
X61415839Y22067577D01*
X61582471Y22233372D01*
X61729171Y22378613D01*
X61858844Y22501555D01*
X61960710Y22592390D01*
X62023989Y22641310D01*
X62037131Y22647038D01*
X62089162Y22617381D01*
G37*
G36*
X47363060Y28544997D02*
G01*
X47651401Y28541801D01*
X47898979Y28535766D01*
X48090560Y28526816D01*
X48154509Y28521810D01*
X48422310Y28496522D01*
X48408509Y27590745D01*
X48394708Y26684968D01*
X48268273Y26540978D01*
X48187198Y26434557D01*
X48129647Y26333452D01*
X48117433Y26299757D01*
X48110301Y26121370D01*
X48168706Y25943421D01*
X48266299Y25809920D01*
X48346410Y25712939D01*
X48388566Y25606134D01*
X48406188Y25479074D01*
X48411733Y25349625D01*
X48395919Y25266545D01*
X48350584Y25199173D01*
X48324402Y25171795D01*
X48176501Y24991703D01*
X48105546Y24823011D01*
X48111456Y24663891D01*
X48194149Y24512517D01*
X48290928Y24415815D01*
X48394708Y24328438D01*
X48394708Y23087200D01*
X48394708Y21845961D01*
X47631378Y21835394D01*
X46868048Y21824827D01*
X46734712Y21962394D01*
X46585800Y22072918D01*
X46430657Y22105742D01*
X46272441Y22060755D01*
X46161353Y21982730D01*
X46081737Y21921434D01*
X45998699Y21883136D01*
X45892685Y21863843D01*
X45744140Y21859564D01*
X45581170Y21864282D01*
X45451591Y21887145D01*
X45364437Y21951765D01*
X45352421Y21966854D01*
X45230603Y22080823D01*
X45078947Y22156935D01*
X44959379Y22178115D01*
X44860147Y22144934D01*
X44730279Y22048696D01*
X44680314Y22002269D01*
X44499382Y21826422D01*
X44189479Y21826422D01*
X44033327Y21827952D01*
X43930361Y21837967D01*
X43855616Y21864606D01*
X43784127Y21916007D01*
X43710003Y21982730D01*
X43593114Y22079083D01*
X43496019Y22126658D01*
X43395192Y22139038D01*
X43292809Y22126460D01*
X43200594Y22079172D01*
X43090616Y21982846D01*
X43090498Y21982730D01*
X43004119Y21899830D01*
X42944777Y21846247D01*
X42927489Y21834139D01*
X42889290Y21837660D01*
X42785145Y21842825D01*
X42627235Y21849147D01*
X42427741Y21856140D01*
X42198841Y21863315D01*
X42194397Y21863447D01*
X41963124Y21871608D01*
X41759200Y21881305D01*
X41595319Y21891730D01*
X41484176Y21902076D01*
X41438464Y21911534D01*
X41438458Y21911540D01*
X41446325Y21953900D01*
X41489884Y22044422D01*
X41560811Y22166688D01*
X41596296Y22222840D01*
X41780529Y22507636D01*
X41717981Y23054425D01*
X42244395Y23054425D01*
X42264272Y22946185D01*
X42296357Y22861561D01*
X42393604Y22714995D01*
X42530841Y22618528D01*
X42689214Y22577471D01*
X42849867Y22597131D01*
X42978818Y22669429D01*
X43098973Y22816683D01*
X43154866Y22989713D01*
X43146542Y23169882D01*
X43074045Y23338552D01*
X42976934Y23446847D01*
X42811291Y23547716D01*
X42651400Y23572151D01*
X42504919Y23521850D01*
X42379509Y23398509D01*
X42323177Y23301991D01*
X42263361Y23162028D01*
X42244395Y23054425D01*
X41717981Y23054425D01*
X41711747Y23108919D01*
X41678639Y23490021D01*
X41661956Y23895511D01*
X41661266Y24306093D01*
X41676135Y24702467D01*
X41706132Y25065336D01*
X41746202Y25343345D01*
X43746810Y25343345D01*
X43775222Y25013175D01*
X43858931Y24733495D01*
X44000472Y24497141D01*
X44077066Y24409798D01*
X44246729Y24267063D01*
X44455047Y24138436D01*
X44668775Y24042808D01*
X44780093Y24010345D01*
X44973872Y23992441D01*
X45194778Y24008762D01*
X45403491Y24054759D01*
X45505589Y24094265D01*
X45672965Y24201645D01*
X45846367Y24356285D01*
X46001429Y24533439D01*
X46113788Y24708365D01*
X46117330Y24715541D01*
X46161385Y24822124D01*
X46188157Y24935982D01*
X46201506Y25081245D01*
X46205256Y25265192D01*
X46203146Y25450713D01*
X46192283Y25584275D01*
X46167906Y25691970D01*
X46125252Y25799890D01*
X46096745Y25859725D01*
X45940117Y26098358D01*
X45724194Y26310439D01*
X45467276Y26478709D01*
X45411103Y26506274D01*
X45292148Y26556094D01*
X45186262Y26583064D01*
X45063773Y26591653D01*
X44895010Y26586327D01*
X44883565Y26585706D01*
X44631814Y26556967D01*
X44430801Y26494800D01*
X44256428Y26388310D01*
X44084599Y26226604D01*
X44081239Y26222965D01*
X43919069Y26021848D01*
X43815708Y25824228D01*
X43761513Y25604740D01*
X43746810Y25343345D01*
X41746202Y25343345D01*
X41750822Y25375402D01*
X41764055Y25441545D01*
X41799240Y25567932D01*
X42668519Y25567932D01*
X42683426Y25500739D01*
X42738763Y25470697D01*
X42841601Y25464940D01*
X42949625Y25468634D01*
X43229311Y25480115D01*
X43313339Y25792730D01*
X43374168Y25978711D01*
X43460062Y26191355D01*
X43554705Y26391026D01*
X43576470Y26431815D01*
X43666245Y26589878D01*
X43739501Y26697746D01*
X43814449Y26775238D01*
X43909299Y26842173D01*
X44004063Y26897151D01*
X44357631Y27063521D01*
X44693680Y27156083D01*
X45017924Y27175651D01*
X45336074Y27123040D01*
X45416325Y27098370D01*
X45791792Y26931700D01*
X46129171Y26696941D01*
X46311015Y26525544D01*
X46484250Y26325574D01*
X46608538Y26131537D01*
X46702357Y25911048D01*
X46751407Y25753653D01*
X46801845Y25612813D01*
X46861062Y25501061D01*
X46900974Y25454492D01*
X46956034Y25398543D01*
X46949202Y25349678D01*
X46934788Y25330391D01*
X46898339Y25256460D01*
X46896438Y25219245D01*
X46884095Y25152043D01*
X46840738Y25067717D01*
X46790179Y24973800D01*
X46732880Y24841318D01*
X46700563Y24754223D01*
X46547617Y24387411D01*
X46362257Y24087088D01*
X46139475Y23846552D01*
X45888396Y23667192D01*
X45752032Y23586557D01*
X45627648Y23510151D01*
X45553444Y23462038D01*
X45435334Y23409191D01*
X45318983Y23389730D01*
X45147897Y23399940D01*
X44937588Y23426960D01*
X44712400Y23466145D01*
X44496675Y23512847D01*
X44314756Y23562422D01*
X44208520Y23601665D01*
X43926766Y23773240D01*
X43686040Y24010627D01*
X43487361Y24312502D01*
X43331746Y24677542D01*
X43297323Y24786499D01*
X43213706Y25069807D01*
X43061597Y25069807D01*
X42930950Y25059268D01*
X42814697Y25033549D01*
X42805023Y25030090D01*
X42737062Y24995346D01*
X42715505Y24943931D01*
X42727062Y24849097D01*
X42828717Y24500068D01*
X42995668Y24158355D01*
X43217163Y23835819D01*
X43482448Y23544322D01*
X43780770Y23295724D01*
X44101375Y23101889D01*
X44423982Y22977272D01*
X44582289Y22945777D01*
X44763917Y22928126D01*
X44946950Y22924302D01*
X45109471Y22934287D01*
X45229564Y22958063D01*
X45270855Y22977949D01*
X45363997Y23014821D01*
X45512328Y23034551D01*
X45581170Y23036710D01*
X45729750Y23046281D01*
X45753895Y23052374D01*
X46930966Y23052374D01*
X46945451Y22894910D01*
X46988516Y22775566D01*
X46992500Y22769615D01*
X47132031Y22631821D01*
X47305755Y22552724D01*
X47493986Y22537454D01*
X47677041Y22591140D01*
X47677150Y22591197D01*
X47783187Y22681461D01*
X47868859Y22816925D01*
X47919842Y22967483D01*
X47921814Y23103033D01*
X47921438Y23104628D01*
X47839326Y23319963D01*
X47711215Y23472474D01*
X47660119Y23508312D01*
X47490629Y23572855D01*
X47314975Y23574937D01*
X47153412Y23519284D01*
X47026198Y23410619D01*
X46988600Y23351702D01*
X46945276Y23215468D01*
X46930966Y23052374D01*
X45753895Y23052374D01*
X45859744Y23079085D01*
X45991319Y23144186D01*
X46144641Y23250645D01*
X46259858Y23341714D01*
X46429740Y23499065D01*
X46596640Y23688516D01*
X46754827Y23899372D01*
X46898575Y24120936D01*
X47022155Y24342510D01*
X47119838Y24553397D01*
X47185895Y24742902D01*
X47214600Y24900326D01*
X47200222Y25014974D01*
X47175842Y25052168D01*
X47113061Y25099035D01*
X47082840Y25108884D01*
X47059957Y25143519D01*
X47047386Y25229874D01*
X47046554Y25262558D01*
X47056047Y25370164D01*
X47091868Y25425158D01*
X47129006Y25442402D01*
X47173801Y25464286D01*
X47196438Y25506618D01*
X47201780Y25589158D01*
X47195830Y25713987D01*
X47141430Y25996858D01*
X47015817Y26292705D01*
X46823084Y26593591D01*
X46614096Y26842512D01*
X46325364Y27123154D01*
X46042164Y27334751D01*
X45749946Y27483790D01*
X45434161Y27576754D01*
X45174421Y27608589D01*
X46839173Y27608589D01*
X46865974Y27409978D01*
X46956871Y27252984D01*
X47097524Y27139164D01*
X47271256Y27071716D01*
X47444469Y27082351D01*
X47575307Y27141634D01*
X47687694Y27246923D01*
X47770259Y27391218D01*
X47809377Y27544768D01*
X47803870Y27640744D01*
X47728990Y27835029D01*
X47616432Y27977631D01*
X47478890Y28068971D01*
X47329054Y28109474D01*
X47179618Y28099562D01*
X47043273Y28039658D01*
X46932712Y27930185D01*
X46860626Y27771567D01*
X46839173Y27608589D01*
X45174421Y27608589D01*
X45080258Y27620130D01*
X44858247Y27625167D01*
X44638181Y27620744D01*
X44473881Y27608690D01*
X44343101Y27586066D01*
X44223595Y27549933D01*
X44188280Y27536667D01*
X43958284Y27429845D01*
X43778891Y27310306D01*
X43660037Y27185719D01*
X43617242Y27096108D01*
X43576877Y27004664D01*
X43498716Y26946488D01*
X43430329Y26919841D01*
X43265317Y26826811D01*
X43106482Y26665984D01*
X42960683Y26447714D01*
X42834779Y26182354D01*
X42735629Y25880258D01*
X42731721Y25865243D01*
X42686974Y25685145D01*
X42668519Y25567932D01*
X41799240Y25567932D01*
X41908452Y25960227D01*
X42110837Y26430018D01*
X42375367Y26858683D01*
X42706199Y27253988D01*
X42767631Y27316730D01*
X43172474Y27666540D01*
X43628231Y27957890D01*
X44133122Y28190039D01*
X44685370Y28362246D01*
X45283195Y28473771D01*
X45630123Y28508927D01*
X45843118Y28521127D01*
X46106756Y28530956D01*
X46405804Y28538334D01*
X46725027Y28543186D01*
X47049190Y28545433D01*
X47363060Y28544997D01*
G37*
G36*
X51995700Y38656552D02*
G01*
X52159209Y38625789D01*
X52375885Y38578450D01*
X52634843Y38517342D01*
X52925197Y38445272D01*
X53236061Y38365046D01*
X53556551Y38279471D01*
X53875780Y38191354D01*
X54182864Y38103502D01*
X54466917Y38018722D01*
X54705631Y37943546D01*
X55261080Y37730290D01*
X55758699Y37471689D01*
X56196027Y37169528D01*
X56570606Y36825592D01*
X56879975Y36441665D01*
X56971366Y36299868D01*
X57037083Y36175630D01*
X57095478Y36037987D01*
X57139509Y35907746D01*
X57162135Y35805714D01*
X57156487Y35752868D01*
X57114012Y35754069D01*
X57030526Y35775972D01*
X57028131Y35776754D01*
X56916008Y35805220D01*
X56775598Y35830546D01*
X56732477Y35836392D01*
X56631442Y35851796D01*
X56569575Y35879625D01*
X56526530Y35938860D01*
X56481964Y36048486D01*
X56469869Y36081432D01*
X56403418Y36232013D01*
X56321721Y36375833D01*
X56272799Y36443955D01*
X56174984Y36537111D01*
X56039125Y36635605D01*
X55887969Y36726146D01*
X55744261Y36795447D01*
X55630746Y36830216D01*
X55608700Y36831961D01*
X55552624Y36845455D01*
X55529560Y36900259D01*
X55526247Y36971299D01*
X55511902Y37123391D01*
X55461601Y37213913D01*
X55364443Y37255324D01*
X55272054Y37261807D01*
X55168047Y37258499D01*
X55110300Y37235568D01*
X55074870Y37173506D01*
X55044769Y37076626D01*
X55003848Y36960303D01*
X54951475Y36892770D01*
X54861963Y36845974D01*
X54818894Y36829942D01*
X54687749Y36776088D01*
X54569865Y36716614D01*
X54542586Y36699999D01*
X54427465Y36595283D01*
X54309015Y36439490D01*
X54202901Y36257351D01*
X54124789Y36073599D01*
X54106420Y36011345D01*
X54052118Y35796422D01*
X53675490Y35785238D01*
X53298862Y35774054D01*
X53298862Y35646515D01*
X53306878Y35551218D01*
X53339437Y35487666D01*
X53409305Y35449639D01*
X53529248Y35430921D01*
X53712032Y35425294D01*
X53753289Y35425192D01*
X54113932Y35425192D01*
X54174770Y35215913D01*
X54277308Y34985455D01*
X54444397Y34784863D01*
X54680694Y34609216D01*
X54822862Y34530911D01*
X54968294Y34454911D01*
X55057207Y34397995D01*
X55104313Y34347087D01*
X55124322Y34289110D01*
X55128184Y34259517D01*
X55146796Y34172659D01*
X55194622Y34139656D01*
X55251988Y34135653D01*
X55392642Y34150465D01*
X55468403Y34197876D01*
X55487768Y34266834D01*
X55499328Y34350766D01*
X55543484Y34411300D01*
X55636612Y34464313D01*
X55730302Y34501934D01*
X55962031Y34626584D01*
X56171920Y34811065D01*
X56341242Y35037115D01*
X56404585Y35159450D01*
X56461142Y35284783D01*
X56505363Y35378852D01*
X56527872Y35421730D01*
X56528070Y35421967D01*
X56571471Y35435694D01*
X56668676Y35454108D01*
X56761483Y35468024D01*
X56909192Y35500075D01*
X57027179Y35547536D01*
X57064297Y35573003D01*
X57130431Y35612252D01*
X57259141Y35671384D01*
X57438723Y35745981D01*
X57657474Y35831627D01*
X57903691Y35923902D01*
X58165668Y36018391D01*
X58431702Y36110674D01*
X58690091Y36196335D01*
X58847785Y36246181D01*
X59003184Y36293488D01*
X59126219Y36326813D01*
X59235624Y36348054D01*
X59350130Y36359110D01*
X59488467Y36361880D01*
X59669370Y36358263D01*
X59883323Y36351140D01*
X60118905Y36342029D01*
X60331412Y36330481D01*
X60527361Y36314110D01*
X60713264Y36290533D01*
X60895635Y36257364D01*
X61080990Y36212219D01*
X61275841Y36152713D01*
X61486702Y36076462D01*
X61720088Y35981081D01*
X61982513Y35864186D01*
X62280490Y35723392D01*
X62620534Y35556314D01*
X63009159Y35360568D01*
X63452878Y35133770D01*
X63958206Y34873534D01*
X64052150Y34825052D01*
X64354371Y34671754D01*
X64690414Y34505832D01*
X65036239Y34338858D01*
X65367806Y34182404D01*
X65661076Y34048043D01*
X65731602Y34016599D01*
X65964974Y33912146D01*
X66175608Y33815625D01*
X66352455Y33732280D01*
X66484465Y33667359D01*
X66560588Y33626107D01*
X66573366Y33616974D01*
X66587481Y33581213D01*
X66558421Y33531932D01*
X66477412Y33457798D01*
X66406704Y33401681D01*
X66216229Y33221231D01*
X66036080Y32990754D01*
X65886108Y32737795D01*
X65818269Y32585123D01*
X65750417Y32407456D01*
X65144127Y32435871D01*
X64537837Y32464285D01*
X64338824Y32674738D01*
X64230505Y32784719D01*
X64150932Y32848006D01*
X64077992Y32877245D01*
X63989569Y32885079D01*
X63970734Y32885192D01*
X63761715Y32848150D01*
X63573324Y32745131D01*
X63429195Y32590300D01*
X63340913Y32455345D01*
X61659589Y32455345D01*
X61239921Y32455504D01*
X60891093Y32455223D01*
X60605795Y32453364D01*
X60376717Y32448790D01*
X60196549Y32440365D01*
X60057980Y32426950D01*
X59953699Y32407410D01*
X59876397Y32380606D01*
X59818763Y32345402D01*
X59773488Y32300661D01*
X59733259Y32245244D01*
X59690768Y32178016D01*
X59670453Y32145929D01*
X59551170Y31960042D01*
X59546602Y29990078D01*
X59545210Y29595501D01*
X59542963Y29217119D01*
X59539976Y28863621D01*
X59536364Y28543696D01*
X59532240Y28266033D01*
X59527721Y28039322D01*
X59522919Y27872251D01*
X59517950Y27773511D01*
X59517294Y27766115D01*
X59492554Y27512115D01*
X58711016Y27522695D01*
X58423944Y27527505D01*
X58119063Y27534191D01*
X57821752Y27542094D01*
X57557388Y27550550D01*
X57390151Y27557115D01*
X56850825Y27580956D01*
X56738272Y27803921D01*
X56571604Y28059074D01*
X56363535Y28249372D01*
X56117603Y28372553D01*
X55837343Y28426358D01*
X55760708Y28428706D01*
X55477763Y28393008D01*
X55227940Y28287175D01*
X55014022Y28113095D01*
X54838792Y27872656D01*
X54783451Y27765403D01*
X54687674Y27560914D01*
X54341101Y27580674D01*
X53994527Y27600435D01*
X53819510Y27800506D01*
X53720020Y27908730D01*
X53645335Y27969012D01*
X53572223Y27995058D01*
X53480373Y28000576D01*
X53311125Y27975656D01*
X53180881Y27894177D01*
X53074415Y27746068D01*
X53063083Y27724456D01*
X52997506Y27620446D01*
X52928260Y27574186D01*
X52877991Y27566589D01*
X52700550Y27566430D01*
X52582861Y27585166D01*
X52507949Y27626813D01*
X52478742Y27661073D01*
X52335213Y27832850D01*
X52189802Y27931193D01*
X52046004Y27954790D01*
X51907314Y27902330D01*
X51883113Y27884670D01*
X51761049Y27745169D01*
X51711429Y27579727D01*
X51731146Y27414495D01*
X51814222Y27249557D01*
X51940797Y27145463D01*
X52101505Y27105497D01*
X52286977Y27132942D01*
X52400093Y27179961D01*
X52590222Y27245456D01*
X52788650Y27260985D01*
X52971153Y27227393D01*
X53102299Y27155417D01*
X53263112Y27064485D01*
X53444539Y27031785D01*
X53624533Y27056082D01*
X53781050Y27136143D01*
X53843800Y27196923D01*
X53901118Y27234880D01*
X54001134Y27254012D01*
X54154457Y27255003D01*
X54371694Y27238541D01*
X54416591Y27233967D01*
X54647016Y27209819D01*
X54775143Y26940908D01*
X54932092Y26690313D01*
X55134267Y26490139D01*
X55370132Y26346189D01*
X55628152Y26264266D01*
X55896791Y26250173D01*
X56082746Y26283151D01*
X56218817Y26347626D01*
X56374843Y26462693D01*
X56532532Y26610788D01*
X56673589Y26774347D01*
X56779723Y26935808D01*
X56795885Y26967852D01*
X56896228Y27179961D01*
X58825882Y27179961D01*
X60755536Y27179961D01*
X60954430Y27337177D01*
X61057497Y27425235D01*
X61130433Y27500082D01*
X61156261Y27542331D01*
X61157678Y27590883D01*
X61160462Y27708844D01*
X61164426Y27887484D01*
X61169383Y28118074D01*
X61175147Y28391883D01*
X61181529Y28700182D01*
X61184915Y28866168D01*
X61914468Y28866168D01*
X61927670Y28695452D01*
X62018099Y28513755D01*
X62096184Y28414462D01*
X62255629Y28233323D01*
X62241784Y27606196D01*
X62235605Y27367871D01*
X62228270Y27196034D01*
X62218336Y27079018D01*
X62204363Y27005157D01*
X62184908Y26962786D01*
X62159553Y26940804D01*
X62072124Y26854275D01*
X62006189Y26718894D01*
X61974887Y26563512D01*
X61973939Y26533225D01*
X61990933Y26418894D01*
X62052452Y26316587D01*
X62106800Y26257745D01*
X62242274Y26155473D01*
X62379216Y26127355D01*
X62534015Y26170828D01*
X62565112Y26186095D01*
X62677362Y26282422D01*
X62752975Y26420692D01*
X62777404Y26569882D01*
X62770133Y26623444D01*
X62735449Y26726881D01*
X62680798Y26852473D01*
X62663657Y26886884D01*
X62631085Y26960439D01*
X62607450Y27045197D01*
X62590812Y27156206D01*
X62579232Y27308516D01*
X62570771Y27517175D01*
X62567472Y27633156D01*
X62552016Y28223120D01*
X62671899Y28359659D01*
X62807010Y28545904D01*
X62867877Y28717365D01*
X62854979Y28882161D01*
X62768796Y29048411D01*
X62716400Y29114269D01*
X62627691Y29223880D01*
X62580888Y29311762D01*
X62562908Y29411723D01*
X62560472Y29517184D01*
X62567249Y29657636D01*
X62596095Y29760186D01*
X62660662Y29863596D01*
X62700711Y29915345D01*
X62782777Y30028362D01*
X62819841Y30114004D01*
X62822468Y30199856D01*
X62819030Y30224292D01*
X62776485Y30343286D01*
X62701105Y30457507D01*
X62691018Y30468522D01*
X62598564Y30544680D01*
X62493681Y30575870D01*
X62412105Y30579653D01*
X62289364Y30568883D01*
X62195658Y30525278D01*
X62106800Y30446792D01*
X62010070Y30323816D01*
X61973978Y30214273D01*
X61973939Y30211075D01*
X61994137Y30079159D01*
X62045451Y29945151D01*
X62113959Y29840129D01*
X62155893Y29804854D01*
X62196614Y29766877D01*
X62218834Y29697704D01*
X62227321Y29577908D01*
X62227939Y29511326D01*
X62224695Y29369859D01*
X62209716Y29281849D01*
X62175131Y29222694D01*
X62119697Y29172973D01*
X61978481Y29025481D01*
X61914468Y28866168D01*
X61184915Y28866168D01*
X61188343Y29034242D01*
X61189961Y29114269D01*
X61199185Y29518728D01*
X61209468Y29875213D01*
X61220569Y30178316D01*
X61232243Y30422628D01*
X61244248Y30602744D01*
X61256339Y30713255D01*
X61263307Y30743354D01*
X61323626Y30837461D01*
X61388776Y30892799D01*
X61446855Y30905071D01*
X61574608Y30916553D01*
X61773416Y30927292D01*
X62044660Y30937341D01*
X62389720Y30946747D01*
X62809976Y30955562D01*
X63306810Y30963836D01*
X63383017Y30964961D01*
X63872495Y30972768D01*
X64286542Y30980895D01*
X64627877Y30989441D01*
X64899222Y30998507D01*
X65103298Y31008192D01*
X65242826Y31018598D01*
X65320527Y31029825D01*
X65338706Y31037097D01*
X65358547Y31088861D01*
X65335218Y31175683D01*
X65309951Y31231081D01*
X65257288Y31325497D01*
X65203124Y31366433D01*
X65116452Y31372777D01*
X65080554Y31370828D01*
X65009562Y31368257D01*
X64869156Y31364872D01*
X64668072Y31360828D01*
X64415044Y31356274D01*
X64118808Y31351365D01*
X63788097Y31346251D01*
X63431647Y31341086D01*
X63161058Y31337381D01*
X62721076Y31331560D01*
X62352090Y31325990D01*
X62046961Y31319372D01*
X61798546Y31310402D01*
X61599704Y31297780D01*
X61443294Y31280205D01*
X61322175Y31256375D01*
X61229206Y31224989D01*
X61157244Y31184745D01*
X61099150Y31134342D01*
X61047781Y31072479D01*
X60995997Y30997854D01*
X60954271Y30935231D01*
X60813833Y30725955D01*
X60786529Y29242596D01*
X60779803Y28905286D01*
X60772510Y28589077D01*
X60764939Y28303319D01*
X60757381Y28057364D01*
X60750124Y27860566D01*
X60743459Y27722277D01*
X60737676Y27651848D01*
X60737159Y27648906D01*
X60718320Y27587654D01*
X60681427Y27544765D01*
X60612626Y27515101D01*
X60498062Y27493525D01*
X60323880Y27474897D01*
X60250729Y27468502D01*
X59953827Y27443254D01*
X59928775Y27594915D01*
X59922698Y27672177D01*
X59917592Y27818075D01*
X59913435Y28023096D01*
X59910205Y28277729D01*
X59907881Y28572461D01*
X59906439Y28897781D01*
X59905858Y29244177D01*
X59906116Y29602137D01*
X59907190Y29962149D01*
X59909059Y30314701D01*
X59911700Y30650281D01*
X59915091Y30959376D01*
X59919210Y31232476D01*
X59924036Y31460068D01*
X59929545Y31632640D01*
X59935717Y31740681D01*
X59938463Y31764298D01*
X59950019Y31840346D01*
X59962005Y31903292D01*
X59981350Y31954418D01*
X60014985Y31995010D01*
X60069841Y32026349D01*
X60152848Y32049721D01*
X60270937Y32066408D01*
X60431038Y32077695D01*
X60640081Y32084865D01*
X60904998Y32089202D01*
X61232718Y32091989D01*
X61630172Y32094510D01*
X61724658Y32095136D01*
X63348346Y32106157D01*
X63496310Y31953692D01*
X63656650Y31824947D01*
X63836799Y31755039D01*
X63983230Y31730572D01*
X64101750Y31742870D01*
X64212888Y31800132D01*
X64337171Y31910556D01*
X64404791Y31981877D01*
X64588719Y32181807D01*
X65152237Y32181807D01*
X65399588Y32179438D01*
X65576193Y32171938D01*
X65689325Y32158714D01*
X65746258Y32139176D01*
X65752774Y32132961D01*
X65785468Y32067376D01*
X65824611Y31959132D01*
X65840066Y31908269D01*
X65976876Y31569897D01*
X66182664Y31264719D01*
X66453376Y30998101D01*
X66621009Y30874780D01*
X66746750Y30787330D01*
X66842607Y30713320D01*
X66893344Y30664809D01*
X66897631Y30655810D01*
X66866349Y30616425D01*
X66789231Y30564294D01*
X66770631Y30554167D01*
X66730743Y30537266D01*
X66676197Y30523039D01*
X66599514Y30511079D01*
X66493214Y30500980D01*
X66349817Y30492336D01*
X66161845Y30484739D01*
X65921816Y30477782D01*
X65622253Y30471060D01*
X65255674Y30464165D01*
X65049872Y30460609D01*
X64704613Y30454302D01*
X64384122Y30447558D01*
X64096726Y30440620D01*
X63850752Y30433728D01*
X63654526Y30427123D01*
X63516376Y30421048D01*
X63444627Y30415743D01*
X63436336Y30413845D01*
X63431716Y30371828D01*
X63426572Y30259775D01*
X63421092Y30085803D01*
X63415464Y29858027D01*
X63409879Y29584562D01*
X63404524Y29273524D01*
X63399589Y28933028D01*
X63396915Y28718630D01*
X63391707Y28340555D01*
X63385114Y27966957D01*
X63377444Y27609448D01*
X63369002Y27279642D01*
X63360094Y26989155D01*
X63351028Y26749599D01*
X63342109Y26572589D01*
X63339133Y26528287D01*
X63254939Y25912739D01*
X63096188Y25308137D01*
X62866476Y24725842D01*
X62622652Y24264515D01*
X62494062Y24063598D01*
X62337963Y23842752D01*
X62165851Y23616155D01*
X61989223Y23397984D01*
X61819576Y23202415D01*
X61668406Y23043626D01*
X61547210Y22935794D01*
X61541970Y22931865D01*
X61463429Y22866573D01*
X61338803Y22754147D01*
X61176976Y22603007D01*
X60986836Y22421572D01*
X60777265Y22218264D01*
X60557151Y22001502D01*
X60495484Y21940186D01*
X60200567Y21649081D01*
X59950700Y21409494D01*
X59738118Y21215335D01*
X59555058Y21060513D01*
X59393755Y20938936D01*
X59246447Y20844513D01*
X59105369Y20771155D01*
X58962757Y20712769D01*
X58905731Y20692969D01*
X58700378Y20613821D01*
X58554869Y20524709D01*
X58451344Y20407304D01*
X58371942Y20243276D01*
X58322088Y20094017D01*
X58255283Y19865208D01*
X58180436Y19593977D01*
X58096055Y19274491D01*
X58000645Y18900918D01*
X57892713Y18467425D01*
X57770764Y17968177D01*
X57659927Y17508422D01*
X57587194Y17207299D01*
X57518442Y16926511D01*
X57456225Y16676203D01*
X57403102Y16466520D01*
X57361628Y16307609D01*
X57334359Y16209614D01*
X57326942Y16186867D01*
X57266787Y16102407D01*
X57191665Y16084458D01*
X57122731Y16130228D01*
X57084429Y16218884D01*
X57078810Y16283086D01*
X57073401Y16416280D01*
X57068364Y16609301D01*
X57063861Y16852988D01*
X57060054Y17138177D01*
X57057107Y17455706D01*
X57055181Y17796411D01*
X57054870Y17886762D01*
X57050247Y19437408D01*
X57164434Y19518717D01*
X57271890Y19634983D01*
X57351603Y19795411D01*
X57390657Y19967430D01*
X57386579Y20078969D01*
X57323744Y20232059D01*
X57210586Y20350781D01*
X57065886Y20426656D01*
X56908426Y20451206D01*
X56756987Y20415950D01*
X56706308Y20386097D01*
X56578563Y20256019D01*
X56498288Y20093382D01*
X56477202Y19924344D01*
X56482203Y19885984D01*
X56524475Y19774067D01*
X56601161Y19650984D01*
X56637612Y19606476D01*
X56767639Y19462269D01*
X56742866Y17762422D01*
X56718093Y16062576D01*
X56329012Y16073345D01*
X56118616Y16084151D01*
X55978510Y16102708D01*
X55912274Y16128517D01*
X55909533Y16131961D01*
X55903122Y16180000D01*
X55897120Y16297959D01*
X55891676Y16477608D01*
X55886936Y16710712D01*
X55883051Y16989039D01*
X55880169Y17304357D01*
X55878438Y17648433D01*
X55878004Y17879653D01*
X55877266Y18239390D01*
X55875617Y18576966D01*
X55873168Y18883924D01*
X55870029Y19151809D01*
X55866311Y19372164D01*
X55862126Y19536533D01*
X55857584Y19636462D01*
X55854629Y19662375D01*
X55863036Y19750442D01*
X55934837Y19861448D01*
X55951469Y19880879D01*
X56083861Y20075250D01*
X56138304Y20267471D01*
X56114782Y20456714D01*
X56013280Y20642148D01*
X55966883Y20697730D01*
X55834947Y20808270D01*
X55692649Y20850817D01*
X55527028Y20827006D01*
X55388286Y20770769D01*
X55251874Y20680593D01*
X55171643Y20560909D01*
X55138022Y20394448D01*
X55135477Y20314540D01*
X55140343Y20215744D01*
X55163311Y20139463D01*
X55216935Y20062493D01*
X55313773Y19961629D01*
X55340631Y19935378D01*
X55545785Y19735807D01*
X55556692Y17921822D01*
X55558273Y17552516D01*
X55558515Y17207271D01*
X55557503Y16893923D01*
X55555320Y16620308D01*
X55552048Y16394260D01*
X55547771Y16223615D01*
X55542572Y16116210D01*
X55537154Y16080072D01*
X55487833Y16070529D01*
X55377902Y16066207D01*
X55224752Y16067393D01*
X55082805Y16072503D01*
X54658902Y16092700D01*
X54683645Y16214407D01*
X54694557Y16282457D01*
X54713751Y16417592D01*
X54739829Y16609342D01*
X54771395Y16847240D01*
X54807053Y17120818D01*
X54845404Y17419607D01*
X54864123Y17567038D01*
X54904993Y17886871D01*
X54945474Y18197793D01*
X54983841Y18486966D01*
X55018364Y18741550D01*
X55047317Y18948706D01*
X55068972Y19095595D01*
X55074461Y19130115D01*
X55096130Y19283575D01*
X55106910Y19406903D01*
X55105352Y19480505D01*
X55101180Y19491405D01*
X55059325Y19496413D01*
X54947554Y19502616D01*
X54774094Y19509808D01*
X54547169Y19517783D01*
X54275008Y19526336D01*
X53965834Y19535260D01*
X53627874Y19544351D01*
X53269355Y19553402D01*
X52898501Y19562208D01*
X52523539Y19570564D01*
X52152694Y19578263D01*
X51794193Y19585100D01*
X51456261Y19590869D01*
X51147125Y19595364D01*
X50875010Y19598381D01*
X50797939Y19598995D01*
X50654431Y19605742D01*
X50574921Y19629825D01*
X50556958Y19680737D01*
X50598090Y19767970D01*
X50695867Y19901019D01*
X50714027Y19923956D01*
X50825703Y20068239D01*
X50907701Y20190260D01*
X50964570Y20306465D01*
X51000855Y20433302D01*
X51021104Y20587219D01*
X51029862Y20784661D01*
X51031677Y21042077D01*
X51031650Y21072937D01*
X51029235Y21332634D01*
X51023004Y21611757D01*
X51013588Y21898648D01*
X51001614Y22181651D01*
X50987710Y22449109D01*
X50972505Y22689366D01*
X50956627Y22890763D01*
X50940704Y23041644D01*
X50925365Y23130353D01*
X50919966Y23145079D01*
X50894873Y23157095D01*
X50862073Y23108027D01*
X50817594Y22991151D01*
X50803094Y22947182D01*
X50778123Y22864679D01*
X50758680Y22782997D01*
X50744080Y22691219D01*
X50733640Y22578426D01*
X50726676Y22433699D01*
X50722504Y22246121D01*
X50720441Y22004773D01*
X50719802Y21698736D01*
X50719785Y21616935D01*
X50719785Y20544559D01*
X50440524Y20179260D01*
X50319549Y20022924D01*
X50205777Y19879278D01*
X50113215Y19765815D01*
X50061982Y19706499D01*
X49962702Y19599038D01*
X45554320Y19599038D01*
X41145939Y19599038D01*
X41142074Y15408038D01*
X41141315Y14837813D01*
X41140129Y14286582D01*
X41138551Y13759740D01*
X41136617Y13262683D01*
X41134363Y12800804D01*
X41131825Y12379500D01*
X41129039Y12004165D01*
X41126041Y11680194D01*
X41122867Y11412983D01*
X41119552Y11207927D01*
X41116133Y11070420D01*
X41112767Y11006811D01*
X41087323Y10796584D01*
X40909855Y10987273D01*
X40790867Y11123229D01*
X40672074Y11271745D01*
X40606075Y11362205D01*
X40479764Y11546448D01*
X40441293Y15152666D01*
X40432813Y15910089D01*
X40424287Y16592723D01*
X40415612Y17203938D01*
X40406686Y17747097D01*
X40397405Y18225569D01*
X40387667Y18642719D01*
X40377369Y19001914D01*
X40366408Y19306520D01*
X40354681Y19559904D01*
X40342086Y19765432D01*
X40328520Y19926471D01*
X40313880Y20046388D01*
X40298063Y20128548D01*
X40288411Y20159960D01*
X40259077Y20240549D01*
X40247170Y20279927D01*
X40285460Y20281527D01*
X40397187Y20283365D01*
X40577634Y20285410D01*
X40822083Y20287632D01*
X41125817Y20290003D01*
X41484120Y20292491D01*
X41892275Y20295067D01*
X42345565Y20297700D01*
X42839272Y20300362D01*
X43368680Y20303021D01*
X43929072Y20305649D01*
X44515731Y20308215D01*
X45054099Y20310415D01*
X45660732Y20313041D01*
X46245688Y20316021D01*
X46804214Y20319307D01*
X47331555Y20322852D01*
X47822955Y20326610D01*
X48273661Y20330534D01*
X48678916Y20334576D01*
X49033967Y20338689D01*
X49334059Y20342826D01*
X49574436Y20346941D01*
X49750345Y20350987D01*
X49857030Y20354916D01*
X49889868Y20358232D01*
X49893936Y20400463D01*
X49898063Y20515668D01*
X49902198Y20698668D01*
X49906290Y20944281D01*
X49910285Y21247329D01*
X49914133Y21602631D01*
X49917780Y22005008D01*
X49921176Y22449280D01*
X49924268Y22930267D01*
X49927004Y23442790D01*
X49927283Y23507334D01*
X50485323Y23507334D01*
X50501710Y23409304D01*
X50559866Y23347809D01*
X50673288Y23313396D01*
X50779393Y23301350D01*
X50901231Y23291260D01*
X50992440Y23282465D01*
X51017747Y23279312D01*
X51085221Y23281471D01*
X51180362Y23295999D01*
X51284918Y23347082D01*
X51326729Y23441883D01*
X51304344Y23569539D01*
X51282015Y23615136D01*
X51246095Y23642861D01*
X51179309Y23657134D01*
X51064382Y23662375D01*
X50938871Y23663038D01*
X50743548Y23660425D01*
X50613423Y23649643D01*
X50535635Y23626274D01*
X50497317Y23585904D01*
X50485607Y23524115D01*
X50485323Y23507334D01*
X49927283Y23507334D01*
X49929332Y23981667D01*
X49930929Y24449249D01*
X49934173Y25527650D01*
X50530733Y25527650D01*
X50532114Y25465528D01*
X50557363Y25354936D01*
X50621981Y25288723D01*
X50651162Y25273220D01*
X50746362Y25192086D01*
X50778785Y25116635D01*
X50800766Y25010750D01*
X50830343Y24877122D01*
X50838894Y24839858D01*
X50860431Y24736165D01*
X50869057Y24671714D01*
X50867579Y24662155D01*
X50827764Y24643895D01*
X50749093Y24609634D01*
X50677389Y24566134D01*
X50646999Y24499566D01*
X50641631Y24409055D01*
X50649095Y24305602D01*
X50679635Y24255856D01*
X50729554Y24238691D01*
X50862840Y24235190D01*
X50993460Y24263208D01*
X51061708Y24298442D01*
X51103714Y24375168D01*
X51104613Y24482865D01*
X51067294Y24587909D01*
X51033163Y24630863D01*
X50991931Y24679739D01*
X50972278Y24742256D01*
X50970633Y24840973D01*
X50980255Y24965142D01*
X50994564Y25088336D01*
X51745059Y25088336D01*
X51750093Y24739791D01*
X51826912Y24400019D01*
X51974092Y24077945D01*
X52190210Y23782493D01*
X52290452Y23678734D01*
X52478846Y23511240D01*
X52651505Y23392671D01*
X52835839Y23306788D01*
X53015554Y23249191D01*
X53259785Y23181301D01*
X53260019Y22923939D01*
X53263512Y22751229D01*
X53272448Y22545126D01*
X53284897Y22350044D01*
X53284995Y22348783D01*
X53309738Y22030990D01*
X53052559Y21908250D01*
X52800131Y21748781D01*
X52597830Y21540619D01*
X52453383Y21295514D01*
X52374515Y21025213D01*
X52361874Y20857803D01*
X52398714Y20623539D01*
X52498871Y20388592D01*
X52649983Y20171791D01*
X52839686Y19991965D01*
X52993500Y19895819D01*
X53215634Y19820287D01*
X53465735Y19791603D01*
X53713402Y19810606D01*
X53911991Y19870480D01*
X54086297Y19974561D01*
X54264482Y20121957D01*
X54420278Y20288235D01*
X54521544Y20437435D01*
X54593003Y20651895D01*
X54604596Y20891377D01*
X54556888Y21131350D01*
X54502534Y21260581D01*
X54365973Y21463425D01*
X54174567Y21664475D01*
X53949373Y21843309D01*
X53816230Y21926210D01*
X53610675Y22041345D01*
X53632634Y22510269D01*
X53644896Y22761481D01*
X53656566Y22945635D01*
X53657754Y22956562D01*
X55532589Y22956562D01*
X55589089Y22572730D01*
X55657489Y22335169D01*
X55808887Y21994760D01*
X56013880Y21675828D01*
X56259168Y21395191D01*
X56531451Y21169672D01*
X56627002Y21109015D01*
X56829350Y21005078D01*
X57050245Y20916144D01*
X57276174Y20845005D01*
X57493620Y20794452D01*
X57689068Y20767276D01*
X57849002Y20766269D01*
X57959905Y20794223D01*
X57997264Y20826015D01*
X58011721Y20887446D01*
X58020450Y21005667D01*
X58023511Y21159529D01*
X58020963Y21327881D01*
X58012865Y21489576D01*
X57999277Y21623462D01*
X57994947Y21650576D01*
X57967228Y21806884D01*
X57772507Y21806884D01*
X57577785Y21806884D01*
X57568203Y21611499D01*
X57552546Y21380183D01*
X57530974Y21220000D01*
X57501984Y21124057D01*
X57464073Y21085459D01*
X57453186Y21083961D01*
X57372450Y21103747D01*
X57249825Y21155083D01*
X57108293Y21225939D01*
X56970840Y21304284D01*
X56860450Y21378086D01*
X56813020Y21419058D01*
X56725507Y21512212D01*
X56870655Y21730821D01*
X56967579Y21905759D01*
X57005940Y22039159D01*
X58439246Y22039159D01*
X58450070Y21978097D01*
X58494957Y21882009D01*
X58569532Y21751645D01*
X58701737Y21541124D01*
X58817148Y21381363D01*
X58910497Y21278933D01*
X58976515Y21240405D01*
X58979594Y21240269D01*
X59028042Y21266573D01*
X59112252Y21335907D01*
X59214944Y21433897D01*
X59226251Y21445422D01*
X59396068Y21641883D01*
X59552430Y21863931D01*
X59686245Y22094659D01*
X59788421Y22317157D01*
X59849867Y22514518D01*
X59863785Y22631106D01*
X59857918Y22690221D01*
X59826636Y22717096D01*
X59749417Y22721370D01*
X59679694Y22717563D01*
X59567073Y22706420D01*
X59506061Y22678307D01*
X59470197Y22612620D01*
X59446724Y22536160D01*
X59406039Y22415152D01*
X59349370Y22271735D01*
X59284940Y22123746D01*
X59220974Y21989021D01*
X59165695Y21885395D01*
X59127328Y21830703D01*
X59119462Y21826422D01*
X59075438Y21848282D01*
X58988725Y21905491D01*
X58882068Y21982730D01*
X58718455Y22089725D01*
X58592911Y22133989D01*
X58498968Y22117010D01*
X58457209Y22080655D01*
X58439246Y22039159D01*
X57005940Y22039159D01*
X57006596Y22041441D01*
X56993474Y22131605D01*
X56933983Y22169990D01*
X56833890Y22150336D01*
X56698963Y22066380D01*
X56622365Y22000325D01*
X56495012Y21893329D01*
X56402987Y21842211D01*
X56366252Y21840611D01*
X56317836Y21890788D01*
X56255948Y21999726D01*
X56186921Y22150583D01*
X56117092Y22326518D01*
X56052796Y22510688D01*
X56000367Y22686253D01*
X55966141Y22836371D01*
X55956093Y22930984D01*
X55956093Y23048647D01*
X56304822Y23028764D01*
X56653552Y23008880D01*
X56679042Y23110440D01*
X56672776Y23217473D01*
X56599212Y23296526D01*
X56465925Y23342023D01*
X56352302Y23350956D01*
X56179654Y23357581D01*
X56071391Y23380199D01*
X56014390Y23424773D01*
X55995528Y23497267D01*
X55995170Y23513228D01*
X56023478Y23667004D01*
X56112729Y23824398D01*
X56259866Y23987864D01*
X56413773Y24136843D01*
X56588360Y23934201D01*
X56705147Y23812951D01*
X56797544Y23758704D01*
X56879523Y23770372D01*
X56965056Y23846867D01*
X57007956Y23901510D01*
X57097013Y24021966D01*
X57075481Y24044619D01*
X58378862Y24044619D01*
X58411077Y24008325D01*
X58490187Y23963009D01*
X58505862Y23955965D01*
X58594330Y23923242D01*
X58641994Y23928495D01*
X58671939Y23964526D01*
X58720076Y24030493D01*
X58798153Y24126176D01*
X58842563Y24177712D01*
X58962826Y24288431D01*
X59063299Y24325155D01*
X59142726Y24287474D01*
X59150338Y24278499D01*
X59194614Y24199471D01*
X59250989Y24067625D01*
X59311522Y23905683D01*
X59368274Y23736369D01*
X59413306Y23582407D01*
X59438677Y23466519D01*
X59440975Y23446692D01*
X59453477Y23291807D01*
X59170170Y23280326D01*
X59010595Y23269045D01*
X58919716Y23247111D01*
X58888205Y23208433D01*
X58906736Y23146919D01*
X58923215Y23119029D01*
X58988956Y23076945D01*
X59114198Y23046236D01*
X59280965Y23028034D01*
X59471278Y23023469D01*
X59667159Y23033673D01*
X59850631Y23059776D01*
X59854016Y23060461D01*
X59912867Y23091591D01*
X59939118Y23160808D01*
X59933063Y23277844D01*
X59894994Y23452427D01*
X59868714Y23548109D01*
X59815142Y23721122D01*
X59758283Y23863234D01*
X59686922Y23993029D01*
X59589842Y24129091D01*
X59455829Y24290003D01*
X59346321Y24413693D01*
X59096852Y24669091D01*
X58854338Y24873205D01*
X58628693Y25018198D01*
X58516531Y25069465D01*
X58447577Y25088550D01*
X58421652Y25060506D01*
X58417939Y24989368D01*
X58434685Y24898317D01*
X58497673Y24828242D01*
X58554708Y24791091D01*
X58641218Y24727137D01*
X58688489Y24667082D01*
X58691477Y24653499D01*
X58672260Y24594389D01*
X58621443Y24490001D01*
X58549276Y24361061D01*
X58535170Y24337441D01*
X58460807Y24210067D01*
X58405632Y24107784D01*
X58379667Y24049371D01*
X58378862Y24044619D01*
X57075481Y24044619D01*
X56992461Y24131961D01*
X57558247Y24131961D01*
X57751325Y24131961D01*
X57867491Y24138786D01*
X57947917Y24156172D01*
X57967021Y24168557D01*
X57981180Y24227396D01*
X57994571Y24344690D01*
X58006290Y24500738D01*
X58015435Y24675842D01*
X58021104Y24850301D01*
X58022393Y25004418D01*
X58019419Y25089369D01*
X59944520Y25089369D01*
X59964871Y24794912D01*
X60056250Y24524563D01*
X60215379Y24285662D01*
X60438981Y24085550D01*
X60637194Y23970024D01*
X60800867Y23890081D01*
X60904340Y23834154D01*
X60958246Y23793237D01*
X60973220Y23758321D01*
X60959897Y23720400D01*
X60950472Y23704680D01*
X60926908Y23615844D01*
X60933428Y23532166D01*
X60969746Y23455641D01*
X61043338Y23429656D01*
X61075914Y23428576D01*
X61144717Y23432860D01*
X61179127Y23459107D01*
X61191051Y23527414D01*
X61192400Y23625187D01*
X61199162Y23751426D01*
X61223385Y23819348D01*
X61260785Y23844963D01*
X61586968Y23983524D01*
X61845260Y24156269D01*
X62039347Y24366004D01*
X62120857Y24499674D01*
X62200833Y24728737D01*
X62229467Y24989072D01*
X62206324Y25252647D01*
X62136159Y25480115D01*
X61979700Y25741202D01*
X61774863Y25943446D01*
X61528212Y26082540D01*
X61246307Y26154181D01*
X61094708Y26163361D01*
X60862100Y26154874D01*
X60683090Y26123117D01*
X60534443Y26059123D01*
X60392924Y25953930D01*
X60286015Y25851342D01*
X60154160Y25705529D01*
X60068256Y25577781D01*
X60010760Y25440595D01*
X59998475Y25400590D01*
X59944520Y25089369D01*
X58019419Y25089369D01*
X58018400Y25118491D01*
X58012535Y25161872D01*
X57991102Y25221421D01*
X57950999Y25252253D01*
X57870531Y25263705D01*
X57772425Y25265192D01*
X57558247Y25265192D01*
X57558247Y24698576D01*
X57558247Y24131961D01*
X56992461Y24131961D01*
X56985707Y24139067D01*
X56884866Y24230792D01*
X56781545Y24304189D01*
X56766939Y24312299D01*
X56691524Y24362248D01*
X56659487Y24404424D01*
X56659477Y24404921D01*
X56691877Y24465827D01*
X56782787Y24557142D01*
X56922776Y24670650D01*
X56962126Y24698576D01*
X57102414Y24798136D01*
X57138170Y24821893D01*
X57287653Y24931962D01*
X57379073Y25024893D01*
X57409618Y25095280D01*
X57376480Y25137721D01*
X57307728Y25147961D01*
X57174797Y25129663D01*
X57001368Y25081103D01*
X56814227Y25011782D01*
X56640158Y24931199D01*
X56549345Y24878977D01*
X56410762Y24775662D01*
X56250734Y24634173D01*
X56085957Y24471766D01*
X55933129Y24305697D01*
X55808947Y24153223D01*
X55730864Y24033093D01*
X55604181Y23703028D01*
X55537855Y23338756D01*
X55532589Y22956562D01*
X53657754Y22956562D01*
X53670490Y23073748D01*
X53689512Y23156839D01*
X53716477Y23205927D01*
X53754232Y23232030D01*
X53805620Y23246169D01*
X53823543Y23249616D01*
X53937589Y23283327D01*
X54075564Y23340415D01*
X54137897Y23371361D01*
X54422849Y23553856D01*
X54651991Y23773075D01*
X54834925Y24040766D01*
X54981253Y24368677D01*
X55002509Y24429282D01*
X55054461Y24590482D01*
X55082193Y24711698D01*
X55089224Y24826010D01*
X55079072Y24966502D01*
X55068964Y25054307D01*
X55039142Y25232324D01*
X54996232Y25405709D01*
X54949027Y25539497D01*
X54944525Y25549112D01*
X54808150Y25769906D01*
X54620737Y25988964D01*
X54444270Y26150295D01*
X57085360Y26150295D01*
X57118717Y25995523D01*
X57156506Y25928425D01*
X57290715Y25776001D01*
X57426702Y25701200D01*
X57563331Y25704164D01*
X57699465Y25785039D01*
X57764104Y25851345D01*
X57897897Y26007653D01*
X58333764Y26007653D01*
X58526373Y26006180D01*
X58653554Y26000564D01*
X58727999Y25989010D01*
X58762398Y25969726D01*
X58769631Y25946032D01*
X58796136Y25882270D01*
X58860435Y25797472D01*
X58939704Y25716402D01*
X59011118Y25663825D01*
X59036968Y25655961D01*
X59105241Y25668968D01*
X59139330Y25680319D01*
X59194545Y25728186D01*
X59259425Y25820334D01*
X59284545Y25865934D01*
X59342193Y25968522D01*
X59392410Y26039473D01*
X59407384Y26053531D01*
X59417488Y26102037D01*
X59393437Y26195192D01*
X59343633Y26312094D01*
X59276476Y26431839D01*
X59227379Y26501446D01*
X59128953Y26580852D01*
X59024988Y26588430D01*
X58926787Y26528670D01*
X58845658Y26406061D01*
X58820320Y26339807D01*
X58786917Y26259951D01*
X58757476Y26226734D01*
X58756255Y26226806D01*
X58708749Y26230843D01*
X58600216Y26238543D01*
X58447633Y26248737D01*
X58297142Y26258416D01*
X58108118Y26271092D01*
X57979856Y26284002D01*
X57895116Y26302213D01*
X57836656Y26330792D01*
X57787235Y26374805D01*
X57746367Y26420264D01*
X57654293Y26509114D01*
X57564343Y26547829D01*
X57473039Y26554730D01*
X57315595Y26520726D01*
X57192620Y26430350D01*
X57112935Y26301055D01*
X57085360Y26150295D01*
X54444270Y26150295D01*
X54400812Y26190026D01*
X54166899Y26356832D01*
X53937525Y26473122D01*
X53862755Y26498587D01*
X53710891Y26557222D01*
X53635745Y26622325D01*
X53630314Y26635095D01*
X53592057Y26688042D01*
X53508522Y26709305D01*
X53454842Y26711038D01*
X53352677Y26703123D01*
X53288956Y26683497D01*
X53282690Y26677408D01*
X53236525Y26649673D01*
X53137865Y26611909D01*
X53034085Y26579855D01*
X52736140Y26466035D01*
X52455773Y26302167D01*
X52210596Y26101381D01*
X52018219Y25876808D01*
X51956037Y25776052D01*
X51813233Y25436731D01*
X51745059Y25088336D01*
X50994564Y25088336D01*
X50996932Y25108725D01*
X51019155Y25195073D01*
X51055398Y25245050D01*
X51106492Y25275930D01*
X51195169Y25354411D01*
X51220381Y25459938D01*
X51177306Y25567895D01*
X51166253Y25581030D01*
X51092152Y25631581D01*
X50976028Y25653340D01*
X50899344Y25655427D01*
X50722841Y25650368D01*
X50611222Y25631859D01*
X50551512Y25593190D01*
X50530733Y25527650D01*
X49934173Y25527650D01*
X49935296Y25900808D01*
X50799038Y25900808D01*
X50804949Y25795410D01*
X50838090Y25738908D01*
X50856554Y25734115D01*
X50895419Y25757416D01*
X50912948Y25836444D01*
X50915170Y25907655D01*
X50906235Y26025690D01*
X50883798Y26093865D01*
X50854405Y26103079D01*
X50824603Y26044231D01*
X50822454Y26036521D01*
X50799038Y25900808D01*
X49935296Y25900808D01*
X49943150Y28511444D01*
X50302160Y28500241D01*
X50661170Y28489038D01*
X50690891Y27941961D01*
X50701603Y27700941D01*
X50708861Y27447906D01*
X50712031Y27212743D01*
X50710475Y27025335D01*
X50710429Y27023653D01*
X50700247Y26652422D01*
X50592880Y26640067D01*
X50499222Y26596003D01*
X50452915Y26501461D01*
X50461620Y26373286D01*
X50465561Y26360051D01*
X50481951Y26322051D01*
X50512025Y26299251D01*
X50571272Y26289414D01*
X50675176Y26290301D01*
X50839226Y26299672D01*
X50869628Y26301649D01*
X51037506Y26313813D01*
X51178118Y26326205D01*
X51271661Y26336969D01*
X51296170Y26341614D01*
X51328763Y26386995D01*
X51344692Y26478446D01*
X51345016Y26494427D01*
X51339002Y26583417D01*
X51306124Y26627913D01*
X51224130Y26651051D01*
X51188708Y26656955D01*
X51032400Y26681950D01*
X51032400Y27595263D01*
X51032400Y28508576D01*
X51940939Y28511268D01*
X52252983Y28513565D01*
X52588014Y28518382D01*
X52921527Y28525207D01*
X53229016Y28533531D01*
X53485975Y28542841D01*
X53513785Y28544069D01*
X53763817Y28556353D01*
X53951121Y28568779D01*
X54091094Y28583663D01*
X54199133Y28603323D01*
X54290634Y28630077D01*
X54380992Y28666243D01*
X54409296Y28678875D01*
X54716636Y28840291D01*
X55028612Y29044060D01*
X55326960Y29275575D01*
X55593412Y29520226D01*
X55711954Y29653501D01*
X56556841Y29653501D01*
X56564070Y29359050D01*
X56642724Y29069941D01*
X56786513Y28799764D01*
X56989147Y28562110D01*
X57108862Y28461008D01*
X57373328Y28299439D01*
X57638807Y28215286D01*
X57910505Y28208065D01*
X58193629Y28277292D01*
X58351310Y28345408D01*
X58615035Y28507759D01*
X58814350Y28706221D01*
X58952653Y28946636D01*
X59033340Y29234845D01*
X59059760Y29563653D01*
X59057796Y29736969D01*
X59045414Y29860287D01*
X59016751Y29961631D01*
X58965941Y30069026D01*
X58946501Y30104804D01*
X58779076Y30340491D01*
X58560470Y30548189D01*
X58314933Y30706051D01*
X58241961Y30739470D01*
X58118588Y30795885D01*
X58053118Y30844068D01*
X58028759Y30898786D01*
X58026740Y30928767D01*
X58019907Y31036323D01*
X58003816Y31164815D01*
X58001763Y31177581D01*
X57977943Y31275187D01*
X57940826Y31313429D01*
X57894731Y31314351D01*
X57845888Y31296442D01*
X57818395Y31247449D01*
X57804061Y31147811D01*
X57800126Y31088506D01*
X57782821Y30941433D01*
X57745023Y30856921D01*
X57676775Y30820088D01*
X57616862Y30814682D01*
X57521154Y30793673D01*
X57384143Y30739346D01*
X57228607Y30663122D01*
X57077324Y30576422D01*
X56953074Y30490665D01*
X56926329Y30468465D01*
X56799487Y30318859D01*
X56688015Y30116380D01*
X56603328Y29886207D01*
X56556843Y29653520D01*
X56556841Y29653501D01*
X55711954Y29653501D01*
X55809705Y29763402D01*
X55873062Y29849642D01*
X55990524Y30039302D01*
X56119388Y30278313D01*
X56247577Y30541486D01*
X56363015Y30803628D01*
X56453623Y31039549D01*
X56475966Y31107192D01*
X56544333Y31357803D01*
X56608827Y31652573D01*
X56617822Y31702544D01*
X57294798Y31702544D01*
X57306827Y31669632D01*
X57354699Y31630073D01*
X57450086Y31573405D01*
X57533727Y31530723D01*
X57658579Y31477803D01*
X57770765Y31451994D01*
X57904833Y31447660D01*
X58010127Y31453022D01*
X58173379Y31470998D01*
X58326298Y31499821D01*
X58426438Y31529907D01*
X58549038Y31611250D01*
X58604775Y31719756D01*
X58596626Y31821165D01*
X58545529Y31883086D01*
X58440427Y31955210D01*
X58302745Y32027299D01*
X58153911Y32089116D01*
X58015352Y32130423D01*
X57925519Y32141817D01*
X57782737Y32119781D01*
X57635825Y32062625D01*
X57499179Y31981336D01*
X57387195Y31886901D01*
X57314270Y31790309D01*
X57294798Y31702544D01*
X56617822Y31702544D01*
X56665469Y31967256D01*
X56710279Y32277606D01*
X56739278Y32559377D01*
X56748567Y32767961D01*
X56743704Y32956313D01*
X56723785Y33112078D01*
X56682115Y33271303D01*
X56624268Y33437164D01*
X56499306Y33774212D01*
X55827161Y33792225D01*
X55578964Y33799539D01*
X55445466Y33805578D01*
X57017761Y33805578D01*
X57045256Y33609275D01*
X57108847Y33440351D01*
X57216636Y33274705D01*
X57322609Y33147927D01*
X57552519Y32920055D01*
X57781405Y32761528D01*
X58024571Y32665262D01*
X58297318Y32624174D01*
X58458001Y32622318D01*
X58641306Y32631503D01*
X58779830Y32652632D01*
X58906829Y32693387D01*
X59051377Y32759386D01*
X59321642Y32931762D01*
X59546831Y33155349D01*
X59713591Y33415975D01*
X59751519Y33502543D01*
X59814253Y33730955D01*
X59841926Y33988113D01*
X59834422Y34246010D01*
X59812642Y34363386D01*
X60587267Y34363386D01*
X60595796Y34100667D01*
X60655214Y33844734D01*
X60765848Y33609079D01*
X60928023Y33407195D01*
X61010196Y33336776D01*
X61237522Y33200684D01*
X61483241Y33117911D01*
X61729418Y33091266D01*
X61958118Y33123555D01*
X62075064Y33170068D01*
X62217339Y33269064D01*
X62369651Y33415472D01*
X62510006Y33585416D01*
X62519799Y33601026D01*
X63503038Y33601026D01*
X63539174Y33530975D01*
X63548349Y33521419D01*
X63582413Y33494299D01*
X63628558Y33478411D01*
X63701382Y33473299D01*
X63815482Y33478510D01*
X63985453Y33493587D01*
X64093416Y33504424D01*
X64572554Y33553359D01*
X64670247Y33434316D01*
X64781105Y33339854D01*
X64892900Y33321609D01*
X65000366Y33380154D01*
X65016702Y33396573D01*
X65076945Y33492505D01*
X65117726Y33611842D01*
X65118526Y33615969D01*
X65125573Y33727859D01*
X65086632Y33812498D01*
X65056814Y33847049D01*
X64968197Y33919005D01*
X64880098Y33931964D01*
X64774323Y33884736D01*
X64689785Y33823038D01*
X64595567Y33754061D01*
X64523704Y33711924D01*
X64503754Y33705807D01*
X64451988Y33723491D01*
X64353946Y33769765D01*
X64235635Y33832032D01*
X64006032Y33958257D01*
X63781877Y33880878D01*
X63644472Y33825776D01*
X63564386Y33770367D01*
X63521978Y33700736D01*
X63520071Y33695424D01*
X63503038Y33601026D01*
X62519799Y33601026D01*
X62616409Y33755018D01*
X62619408Y33760975D01*
X62690701Y33974823D01*
X62718220Y34224956D01*
X62700254Y34481791D01*
X62669082Y34619581D01*
X62592066Y34778017D01*
X62461457Y34944081D01*
X62297087Y35098618D01*
X62118785Y35222473D01*
X61978095Y35287042D01*
X61722088Y35339191D01*
X61455672Y35336308D01*
X61205264Y35280534D01*
X61055523Y35212271D01*
X60863756Y35057333D01*
X60721573Y34855211D01*
X60629302Y34619398D01*
X60587267Y34363386D01*
X59812642Y34363386D01*
X59791627Y34476642D01*
X59755927Y34575298D01*
X59596959Y34836518D01*
X59365705Y35074593D01*
X59065384Y35286555D01*
X58870788Y35391490D01*
X58704448Y35469213D01*
X58555938Y35531567D01*
X58443814Y35571164D01*
X58393561Y35581499D01*
X58273801Y35561883D01*
X58111446Y35509274D01*
X57929582Y35433028D01*
X57751299Y35342503D01*
X57644327Y35277850D01*
X57400324Y35076468D01*
X57217683Y34832226D01*
X57094459Y34541317D01*
X57028705Y34199937D01*
X57018263Y34053360D01*
X57017761Y33805578D01*
X55445466Y33805578D01*
X55390466Y33808066D01*
X55243228Y33820534D01*
X55118809Y33839670D01*
X54998770Y33868203D01*
X54864670Y33908858D01*
X54725170Y33955215D01*
X54257575Y34142871D01*
X53848009Y34373681D01*
X53484567Y34655906D01*
X53155346Y34997809D01*
X53067342Y35105783D01*
X52847769Y35398368D01*
X52667759Y35673220D01*
X52515138Y35953068D01*
X52377732Y36260643D01*
X52243368Y36618674D01*
X52218269Y36691099D01*
X52147558Y36916113D01*
X52120024Y37018111D01*
X52837734Y37018111D01*
X52883397Y36866287D01*
X52917862Y36794286D01*
X53035274Y36636626D01*
X53189559Y36530870D01*
X53363395Y36482584D01*
X53539458Y36497331D01*
X53664571Y36554432D01*
X53811726Y36693656D01*
X53898490Y36867162D01*
X53924591Y37059290D01*
X53889757Y37254386D01*
X53793716Y37436793D01*
X53681965Y37555338D01*
X53529687Y37637388D01*
X53361388Y37653155D01*
X53193406Y37607495D01*
X53042083Y37505264D01*
X52923755Y37351319D01*
X52910865Y37326150D01*
X52847032Y37160594D01*
X52837734Y37018111D01*
X52120024Y37018111D01*
X52080632Y37164037D01*
X52019260Y37424001D01*
X51965213Y37685136D01*
X51920262Y37936572D01*
X51886178Y38167438D01*
X51864731Y38366866D01*
X51857692Y38523984D01*
X51866831Y38627924D01*
X51893921Y38667814D01*
X51896244Y38667933D01*
X51995700Y38656552D01*
G37*
D15*
%TO.C,C7*%
X48170000Y82450000D02*
G75*
G02*
X39930000Y82450000I-4120000J0D01*
G01*
X39930000Y82450000D02*
G75*
G02*
X48170000Y82450000I4120000J0D01*
G01*
%TO.C,D2*%
X22230000Y62920000D02*
X22230000Y53180000D01*
X22230000Y53180000D02*
X27670000Y53180000D01*
X24950000Y63830000D02*
X24950000Y62920000D01*
X24950000Y52270000D02*
X24950000Y53180000D01*
X27670000Y62920000D02*
X22230000Y62920000D01*
X27670000Y61495000D02*
X22230000Y61495000D01*
X27670000Y61375000D02*
X22230000Y61375000D01*
X27670000Y61255000D02*
X22230000Y61255000D01*
X27670000Y53180000D02*
X27670000Y62920000D01*
D18*
%TO.C,D1*%
X48200000Y6267231D02*
X53200000Y6267231D01*
X48200000Y6067231D02*
X48200000Y6267231D01*
X48200000Y2767231D02*
X48200000Y4467231D01*
X48200000Y1267231D02*
X48200000Y1067231D01*
X48200000Y1067231D02*
X53200000Y1067231D01*
X53200000Y6267231D02*
X53200000Y6067231D01*
X53200000Y4567231D02*
X53200000Y3567231D01*
X53200000Y3567231D02*
X50600000Y1067231D01*
X53200000Y3567231D02*
X53200000Y2767231D01*
X53200000Y1067231D02*
X53200000Y1267231D01*
D19*
X53608182Y707769D02*
G75*
G02*
X53408182Y707769I-100000J0D01*
G01*
X53408182Y707769D02*
G75*
G02*
X53608182Y707769I100000J0D01*
G01*
D15*
%TO.C,R1*%
X43580000Y59720000D02*
X43580000Y50480000D01*
X43580000Y50480000D02*
X47020000Y50480000D01*
X45300000Y61680000D02*
X45300000Y59720000D01*
X45300000Y48520000D02*
X45300000Y50480000D01*
X47020000Y59720000D02*
X43580000Y59720000D01*
X47020000Y50480000D02*
X47020000Y59720000D01*
%TO.C,Q1*%
X30190000Y46670000D02*
X30190000Y62560000D01*
X32770000Y62560000D02*
X32770000Y65100000D01*
X35310000Y62560000D02*
X35310000Y65100000D01*
X37850000Y62560000D02*
X37850000Y65100000D01*
X40430000Y62560000D02*
X30190000Y62560000D01*
X40430000Y46670000D02*
X30190000Y46670000D01*
X40430000Y46670000D02*
X40430000Y62560000D01*
D12*
%TO.C,J4*%
X54645000Y76590000D02*
X69045000Y76590000D01*
X54645000Y72490000D02*
X54645000Y76590000D01*
X69045000Y76590000D02*
X69045000Y72490000D01*
%TO.C,J3*%
X54645000Y72255000D02*
X69045000Y72255000D01*
X54645000Y68155000D02*
X54645000Y72255000D01*
X69045000Y72255000D02*
X69045000Y68155000D01*
%TO.C,J6*%
X54645000Y85290000D02*
X69045000Y85290000D01*
X54645000Y81190000D02*
X54645000Y85290000D01*
X69045000Y85290000D02*
X69045000Y81190000D01*
D15*
%TO.C,L2*%
X26415000Y83400000D02*
G75*
G02*
X23735000Y83400000I-1340000J0D01*
G01*
X23735000Y83400000D02*
G75*
G02*
X26415000Y83400000I1340000J0D01*
G01*
X39145000Y83400000D02*
G75*
G02*
X11005000Y83400000I-14070000J0D01*
G01*
X11005000Y83400000D02*
G75*
G02*
X39145000Y83400000I14070000J0D01*
G01*
%TO.C,RV1*%
X39140000Y42070000D02*
X39140000Y45175000D01*
X39140000Y40435000D02*
X39140000Y41080000D01*
X46090000Y45175000D02*
X39140000Y45175000D01*
X46090000Y42070000D02*
X46090000Y45175000D01*
X46090000Y40435000D02*
X39140000Y40435000D01*
X46090000Y40435000D02*
X46090000Y41080000D01*
D12*
%TO.C,J5*%
X54645000Y80940000D02*
X69045000Y80940000D01*
X54645000Y76840000D02*
X54645000Y80940000D01*
X69045000Y80940000D02*
X69045000Y76840000D01*
%TD*%
M02*
