%TF.GenerationSoftware,KiCad,Pcbnew,8.0.5*%
%TF.CreationDate,2024-09-29T16:21:39-04:00*%
%TF.ProjectId,BREAD_Slice,42524541-445f-4536-9c69-63652e6b6963,rev?*%
%TF.SameCoordinates,PX74eba40PY8552dc0*%
%TF.FileFunction,Copper,L2,Bot*%
%TF.FilePolarity,Positive*%
%FSLAX46Y46*%
G04 Gerber Fmt 4.6, Leading zero omitted, Abs format (unit mm)*
G04 Created by KiCad (PCBNEW 8.0.5) date 2024-09-29 16:21:39*
%MOMM*%
%LPD*%
G01*
G04 APERTURE LIST*
G04 Aperture macros list*
%AMRoundRect*
0 Rectangle with rounded corners*
0 $1 Rounding radius*
0 $2 $3 $4 $5 $6 $7 $8 $9 X,Y pos of 4 corners*
0 Add a 4 corners polygon primitive as box body*
4,1,4,$2,$3,$4,$5,$6,$7,$8,$9,$2,$3,0*
0 Add four circle primitives for the rounded corners*
1,1,$1+$1,$2,$3*
1,1,$1+$1,$4,$5*
1,1,$1+$1,$6,$7*
1,1,$1+$1,$8,$9*
0 Add four rect primitives between the rounded corners*
20,1,$1+$1,$2,$3,$4,$5,0*
20,1,$1+$1,$4,$5,$6,$7,0*
20,1,$1+$1,$6,$7,$8,$9,0*
20,1,$1+$1,$8,$9,$2,$3,0*%
G04 Aperture macros list end*
%TA.AperFunction,ComponentPad*%
%ADD10R,1.600000X1.600000*%
%TD*%
%TA.AperFunction,ComponentPad*%
%ADD11O,1.600000X1.600000*%
%TD*%
%TA.AperFunction,ComponentPad*%
%ADD12R,1.700000X1.700000*%
%TD*%
%TA.AperFunction,ComponentPad*%
%ADD13O,1.700000X1.700000*%
%TD*%
%TA.AperFunction,ComponentPad*%
%ADD14C,1.600000*%
%TD*%
%TA.AperFunction,ComponentPad*%
%ADD15R,3.200000X3.200000*%
%TD*%
%TA.AperFunction,ComponentPad*%
%ADD16O,3.200000X3.200000*%
%TD*%
%TA.AperFunction,ComponentPad*%
%ADD17R,1.905000X2.000000*%
%TD*%
%TA.AperFunction,ComponentPad*%
%ADD18O,1.905000X2.000000*%
%TD*%
%TA.AperFunction,ComponentPad*%
%ADD19R,1.800000X1.800000*%
%TD*%
%TA.AperFunction,ComponentPad*%
%ADD20C,1.800000*%
%TD*%
%TA.AperFunction,ComponentPad*%
%ADD21C,3.600000*%
%TD*%
%TA.AperFunction,ComponentPad*%
%ADD22C,1.440000*%
%TD*%
%TA.AperFunction,SMDPad,CuDef*%
%ADD23RoundRect,0.150000X0.150000X0.625000X-0.150000X0.625000X-0.150000X-0.625000X0.150000X-0.625000X0*%
%TD*%
%TA.AperFunction,SMDPad,CuDef*%
%ADD24RoundRect,0.250000X0.350000X0.650000X-0.350000X0.650000X-0.350000X-0.650000X0.350000X-0.650000X0*%
%TD*%
%TA.AperFunction,SMDPad,CuDef*%
%ADD25RoundRect,0.250000X0.325000X0.650000X-0.325000X0.650000X-0.325000X-0.650000X0.325000X-0.650000X0*%
%TD*%
%TA.AperFunction,SMDPad,CuDef*%
%ADD26RoundRect,0.150000X-0.512500X-0.150000X0.512500X-0.150000X0.512500X0.150000X-0.512500X0.150000X0*%
%TD*%
%TA.AperFunction,SMDPad,CuDef*%
%ADD27RoundRect,0.250000X-0.325000X-0.650000X0.325000X-0.650000X0.325000X0.650000X-0.325000X0.650000X0*%
%TD*%
%TA.AperFunction,SMDPad,CuDef*%
%ADD28RoundRect,0.250000X-0.375000X-1.075000X0.375000X-1.075000X0.375000X1.075000X-0.375000X1.075000X0*%
%TD*%
%TA.AperFunction,ViaPad*%
%ADD29C,0.800000*%
%TD*%
%TA.AperFunction,ViaPad*%
%ADD30C,0.500000*%
%TD*%
%TA.AperFunction,Conductor*%
%ADD31C,0.500000*%
%TD*%
%TA.AperFunction,Conductor*%
%ADD32C,1.500000*%
%TD*%
%TA.AperFunction,Conductor*%
%ADD33C,1.000000*%
%TD*%
G04 APERTURE END LIST*
D10*
%TO.P,A1,1,D1/TX*%
%TO.N,unconnected-(A1-D1{slash}TX-Pad1)*%
X19988000Y39800000D03*
D11*
%TO.P,A1,2,D0/RX*%
%TO.N,unconnected-(A1-D0{slash}RX-Pad2)*%
X19988000Y37260000D03*
%TO.P,A1,3,~{RESET}*%
%TO.N,unconnected-(A1-~{RESET}-Pad3)*%
X19988000Y34720000D03*
%TO.P,A1,4,GND*%
%TO.N,GND*%
X19988000Y32180000D03*
%TO.P,A1,5,D2*%
%TO.N,/E_STOP*%
X19988000Y29640000D03*
%TO.P,A1,6,D3*%
%TO.N,/INT*%
X19988000Y27100000D03*
%TO.P,A1,7,D4*%
%TO.N,/SYNC*%
X19988000Y24560000D03*
%TO.P,A1,8,D5*%
%TO.N,/LED*%
X19988000Y22020000D03*
%TO.P,A1,9,D6*%
%TO.N,/switching*%
X19988000Y19480000D03*
%TO.P,A1,10,D7*%
%TO.N,unconnected-(A1-D7-Pad10)*%
X19988000Y16940000D03*
%TO.P,A1,11,D8*%
%TO.N,unconnected-(A1-D8-Pad11)*%
X19988000Y14400000D03*
%TO.P,A1,12,D9*%
%TO.N,unconnected-(A1-D9-Pad12)*%
X19988000Y11860000D03*
%TO.P,A1,13,D10*%
%TO.N,unconnected-(A1-D10-Pad13)*%
X19988000Y9320000D03*
%TO.P,A1,14,D11*%
%TO.N,unconnected-(A1-D11-Pad14)*%
X19988000Y6780000D03*
%TO.P,A1,15,D12*%
%TO.N,unconnected-(A1-D12-Pad15)*%
X19988000Y4240000D03*
%TO.P,A1,16,D13*%
%TO.N,unconnected-(A1-D13-Pad16)*%
X35228000Y4240000D03*
%TO.P,A1,17,3V3*%
%TO.N,unconnected-(A1-3V3-Pad17)*%
X35228000Y6780000D03*
%TO.P,A1,18,AREF*%
%TO.N,unconnected-(A1-AREF-Pad18)*%
X35228000Y9320000D03*
%TO.P,A1,19,A0*%
%TO.N,/feedback*%
X35228000Y11860000D03*
%TO.P,A1,20,A1*%
%TO.N,unconnected-(A1-A1-Pad20)*%
X35228000Y14400000D03*
%TO.P,A1,21,A2*%
%TO.N,unconnected-(A1-A2-Pad21)*%
X35228000Y16940000D03*
%TO.P,A1,22,A3*%
%TO.N,unconnected-(A1-A3-Pad22)*%
X35228000Y19480000D03*
%TO.P,A1,23,A4*%
%TO.N,/I2C_DAT*%
X35228000Y22020000D03*
%TO.P,A1,24,A5*%
%TO.N,/I2C_CLK*%
X35228000Y24560000D03*
%TO.P,A1,25,A6*%
%TO.N,unconnected-(A1-A6-Pad25)*%
X35228000Y27100000D03*
%TO.P,A1,26,A7*%
%TO.N,unconnected-(A1-A7-Pad26)*%
X35228000Y29640000D03*
%TO.P,A1,27,+5V*%
%TO.N,+5V*%
X35228000Y32180000D03*
%TO.P,A1,28,~{RESET}*%
%TO.N,unconnected-(A1-~{RESET}-Pad28)*%
X35228000Y34720000D03*
%TO.P,A1,29,GND*%
%TO.N,GND*%
X35228000Y37260000D03*
%TO.P,A1,30,VIN*%
%TO.N,unconnected-(A1-VIN-Pad30)*%
X35228000Y39800000D03*
%TD*%
D12*
%TO.P,J2,1,Pin_1*%
%TO.N,GND*%
X3600000Y61450000D03*
D13*
%TO.P,J2,2,Pin_2*%
%TO.N,+12V*%
X3600000Y58910000D03*
%TO.P,J2,3,Pin_3*%
%TO.N,/I2C_CLK*%
X3600000Y56370000D03*
%TO.P,J2,4,Pin_4*%
%TO.N,/I2C_DAT*%
X3600000Y53830000D03*
%TO.P,J2,5,Pin_5*%
%TO.N,GND*%
X3600000Y51290000D03*
%TO.P,J2,6,Pin_6*%
%TO.N,/E_STOP*%
X3600000Y48750000D03*
%TO.P,J2,7,Pin_7*%
%TO.N,/INT*%
X3600000Y46210000D03*
%TO.P,J2,8,Pin_8*%
%TO.N,/SYNC*%
X3600000Y43670000D03*
%TO.P,J2,9,Pin_9*%
%TO.N,+12V*%
X3600000Y41130000D03*
%TO.P,J2,10,Pin_10*%
%TO.N,GND*%
X3600000Y38590000D03*
%TD*%
D14*
%TO.P,C5,1*%
%TO.N,/Buck Converter/in*%
X44050000Y70400000D03*
%TO.P,C5,2*%
%TO.N,GND*%
X44050000Y73900000D03*
%TD*%
%TO.P,C7,1*%
%TO.N,/Buck Converter/out*%
X44050000Y80700000D03*
%TO.P,C7,2*%
%TO.N,GND*%
X44050000Y84200000D03*
%TD*%
D15*
%TO.P,D2,1,K*%
%TO.N,Net-(D2-K)*%
X24950000Y65670000D03*
D16*
%TO.P,D2,2,A*%
%TO.N,GND*%
X24950000Y50430000D03*
%TD*%
D14*
%TO.P,R1,1*%
%TO.N,/Buck Converter/out*%
X45300000Y62720000D03*
D11*
%TO.P,R1,2*%
%TO.N,/feedback*%
X45300000Y47480000D03*
%TD*%
D17*
%TO.P,Q1,1,G*%
%TO.N,/switching*%
X37850000Y66250000D03*
D18*
%TO.P,Q1,2,D*%
%TO.N,/Buck Converter/in*%
X35310000Y66250000D03*
%TO.P,Q1,3,S*%
%TO.N,Net-(D2-K)*%
X32770000Y66250000D03*
%TD*%
D19*
%TO.P,J4,1,1*%
%TO.N,GND*%
X64680000Y73390000D03*
D20*
%TO.P,J4,2,2*%
X56480000Y73390000D03*
%TD*%
D19*
%TO.P,J3,1,1*%
%TO.N,/Buck Converter/in*%
X64680000Y69055000D03*
D20*
%TO.P,J3,2,2*%
X56480000Y69055000D03*
%TD*%
D19*
%TO.P,J6,1,1*%
%TO.N,GND*%
X64680000Y82090000D03*
D20*
%TO.P,J6,2,2*%
X56480000Y82090000D03*
%TD*%
D21*
%TO.P,L2,1,1*%
%TO.N,Net-(D2-K)*%
X15550000Y83400000D03*
%TO.P,L2,2,2*%
%TO.N,/Buck Converter/out*%
X34600000Y83400000D03*
%TD*%
D22*
%TO.P,RV1,1,1*%
%TO.N,/feedback*%
X40075000Y41575000D03*
%TO.P,RV1,2,2*%
%TO.N,GND*%
X42615000Y44115000D03*
%TO.P,RV1,3,3*%
X45155000Y41575000D03*
%TD*%
D19*
%TO.P,J5,1,1*%
%TO.N,/Buck Converter/out*%
X64680000Y77740000D03*
D20*
%TO.P,J5,2,2*%
X56480000Y77740000D03*
%TD*%
D23*
%TO.P,J1,1,Pin_1*%
%TO.N,GND*%
X29098000Y5400000D03*
%TO.P,J1,2,Pin_2*%
%TO.N,+5V*%
X28098000Y5400000D03*
%TO.P,J1,3,Pin_3*%
%TO.N,/I2C_DAT*%
X27098000Y5400000D03*
%TO.P,J1,4,Pin_4*%
%TO.N,/I2C_CLK*%
X26098000Y5400000D03*
D24*
%TO.P,J1,MP*%
%TO.N,N/C*%
X30398000Y1525000D03*
X24798000Y1525000D03*
%TD*%
D25*
%TO.P,C1,1*%
%TO.N,GND*%
X7425000Y20345000D03*
%TO.P,C1,2*%
%TO.N,+12V*%
X4475000Y20345000D03*
%TD*%
D26*
%TO.P,U1,1,FB*%
%TO.N,+5V*%
X5012500Y16095000D03*
%TO.P,U1,2,EN*%
%TO.N,+12V*%
X5012500Y17045000D03*
%TO.P,U1,3,VIN*%
X5012500Y17995000D03*
%TO.P,U1,4,GND*%
%TO.N,GND*%
X7287500Y17995000D03*
%TO.P,U1,5,SW*%
%TO.N,Net-(U1-SW)*%
X7287500Y17045000D03*
%TO.P,U1,6,BST*%
%TO.N,Net-(U1-BST)*%
X7287500Y16095000D03*
%TD*%
D25*
%TO.P,C6,1*%
%TO.N,/Buck Converter/in*%
X37125000Y70500000D03*
%TO.P,C6,2*%
%TO.N,GND*%
X34175000Y70500000D03*
%TD*%
%TO.P,C2,1*%
%TO.N,Net-(U1-SW)*%
X10025000Y13545000D03*
%TO.P,C2,2*%
%TO.N,Net-(U1-BST)*%
X7075000Y13545000D03*
%TD*%
D27*
%TO.P,C3,1*%
%TO.N,GND*%
X9775000Y20345000D03*
%TO.P,C3,2*%
%TO.N,+5V*%
X12725000Y20345000D03*
%TD*%
%TO.P,C4,1*%
%TO.N,GND*%
X9775000Y23345000D03*
%TO.P,C4,2*%
%TO.N,+5V*%
X12725000Y23345000D03*
%TD*%
D28*
%TO.P,L1,1*%
%TO.N,Net-(U1-SW)*%
X9850000Y17045000D03*
%TO.P,L1,2*%
%TO.N,+5V*%
X12650000Y17045000D03*
%TD*%
D29*
%TO.N,GND*%
X14250000Y21895000D03*
X3750000Y13345000D03*
D30*
X7250000Y18845000D03*
D29*
X7350000Y23595000D03*
D30*
X8550000Y19545000D03*
X8550000Y21045000D03*
X7450000Y21845000D03*
D29*
X50200000Y2100000D03*
D30*
X9750000Y21845000D03*
D29*
X3550000Y16595000D03*
X14250000Y13995000D03*
X14250000Y18995000D03*
D30*
X8150000Y18845000D03*
X6150000Y16145000D03*
D29*
%TO.N,+5V*%
X28088000Y3249500D03*
%TO.N,/I2C_CLK*%
X25588000Y7200000D03*
X31388000Y24500000D03*
%TO.N,/I2C_DAT*%
X31388000Y22000000D03*
X26781039Y7195083D03*
%TD*%
D31*
%TO.N,GND*%
X7287500Y17995000D02*
X6200000Y17995000D01*
X8950000Y21845000D02*
X10650000Y21845000D01*
X8550000Y20345000D02*
X8550000Y19545000D01*
X6200000Y17995000D02*
X6150000Y17945000D01*
X9750000Y21845000D02*
X8950000Y21845000D01*
X6350000Y18845000D02*
X6150000Y18645000D01*
X8400000Y17995000D02*
X8550000Y18145000D01*
X7250000Y18032500D02*
X7287500Y17995000D01*
X7250000Y18845000D02*
X6350000Y18845000D01*
X8550000Y19245000D02*
X8150000Y18845000D01*
X6150000Y17945000D02*
X6150000Y16145000D01*
D32*
X64680000Y82090000D02*
X56480000Y82090000D01*
D31*
X8150000Y18845000D02*
X7250000Y18845000D01*
X6150000Y18645000D02*
X6150000Y17945000D01*
X8550000Y18145000D02*
X8550000Y19545000D01*
X8550000Y20345000D02*
X8550000Y21045000D01*
X8550000Y19545000D02*
X8550000Y19245000D01*
D32*
X64680000Y73390000D02*
X56480000Y73390000D01*
D31*
X7287500Y17995000D02*
X8400000Y17995000D01*
X7250000Y18845000D02*
X7250000Y18032500D01*
D32*
X7425000Y20345000D02*
X9775000Y20345000D01*
%TO.N,+5V*%
X16256000Y1524000D02*
X21336000Y1524000D01*
X22860000Y9652000D02*
X22860000Y19812000D01*
X35228000Y32180000D02*
X28098000Y25050000D01*
X21336000Y1524000D02*
X22860000Y3048000D01*
D31*
X12650000Y12145000D02*
X6503122Y12145000D01*
D32*
X12725000Y23345000D02*
X12700000Y23320000D01*
D31*
X26924000Y9652000D02*
X22860000Y9652000D01*
X5012500Y13635622D02*
X5012500Y16095000D01*
D32*
X12700000Y20320000D02*
X12700000Y17095000D01*
X22860000Y3048000D02*
X22860000Y9652000D01*
D31*
X28098000Y5400000D02*
X28098000Y8478000D01*
D32*
X12650000Y12145000D02*
X12650000Y5130000D01*
D31*
X28098000Y3259500D02*
X28098000Y5400000D01*
D32*
X12700000Y23320000D02*
X12700000Y20370000D01*
X12650000Y12145000D02*
X12650000Y17045000D01*
X22860000Y19812000D02*
X28098000Y25050000D01*
D31*
X28088000Y3249500D02*
X28098000Y3259500D01*
X6503122Y12145000D02*
X5012500Y13635622D01*
D33*
X12725000Y17120000D02*
X12650000Y17045000D01*
D31*
X35408000Y32000000D02*
X35228000Y32180000D01*
D32*
X12725000Y20345000D02*
X12700000Y20320000D01*
X12700000Y17095000D02*
X12650000Y17045000D01*
X12700000Y20370000D02*
X12725000Y20345000D01*
D31*
X28098000Y8478000D02*
X26924000Y9652000D01*
D32*
X12650000Y5130000D02*
X16256000Y1524000D01*
D31*
%TO.N,/I2C_CLK*%
X35168000Y24500000D02*
X35228000Y24560000D01*
X25588000Y7200000D02*
X26098000Y6690000D01*
X26098000Y6690000D02*
X26098000Y5400000D01*
X31388000Y24500000D02*
X35168000Y24500000D01*
%TO.N,/I2C_DAT*%
X35208000Y22000000D02*
X35228000Y22020000D01*
X26781039Y7195083D02*
X27098000Y6878122D01*
X31388000Y22000000D02*
X35208000Y22000000D01*
X27098000Y6878122D02*
X27098000Y5400000D01*
D32*
%TO.N,+12V*%
X1524000Y40256081D02*
X1524000Y35052000D01*
X2397919Y41130000D02*
X1524000Y40256081D01*
D33*
X4110000Y58910000D02*
X3600000Y58910000D01*
X5012500Y17995000D02*
X5012500Y17095000D01*
D32*
X3600000Y41130000D02*
X2397919Y41130000D01*
D33*
X4475000Y18532500D02*
X5012500Y17995000D01*
X4475000Y20345000D02*
X4475000Y18532500D01*
D32*
X1524000Y35052000D02*
X4475000Y32101000D01*
X4475000Y32101000D02*
X4475000Y20345000D01*
D31*
%TO.N,/feedback*%
X40075000Y44336370D02*
X40075000Y41575000D01*
X40075000Y41575000D02*
X40075000Y16707000D01*
X43218630Y47480000D02*
X40075000Y44336370D01*
X40075000Y16707000D02*
X35228000Y11860000D01*
X45300000Y47480000D02*
X43218630Y47480000D01*
%TO.N,unconnected-(A1-D12-Pad15)*%
X19988000Y4420100D02*
X19988000Y4240000D01*
%TO.N,/switching*%
X28500000Y27992000D02*
X19988000Y19480000D01*
X37850000Y66250000D02*
X28500000Y56900000D01*
X28500000Y56900000D02*
X28500000Y27992000D01*
D33*
%TO.N,Net-(U1-SW)*%
X9850000Y13720000D02*
X10025000Y13545000D01*
X9850000Y17045000D02*
X8206238Y17045000D01*
X9850000Y17045000D02*
X9850000Y13720000D01*
D31*
%TO.N,Net-(U1-BST)*%
X7075000Y15882500D02*
X7287500Y16095000D01*
X7075000Y13545000D02*
X7075000Y15882500D01*
D32*
%TO.N,unconnected-(A1-VIN-Pad30)*%
X35245000Y39783000D02*
X35228000Y39800000D01*
%TO.N,Net-(D2-K)*%
X24950000Y65670000D02*
X24980000Y65700000D01*
X15550000Y83400000D02*
X24950000Y74000000D01*
X24950000Y74000000D02*
X24950000Y65670000D01*
X24980000Y65700000D02*
X32220000Y65700000D01*
X32220000Y65700000D02*
X32770000Y66250000D01*
%TO.N,/Buck Converter/in*%
X37750000Y70400000D02*
X44050000Y70400000D01*
X35310000Y66250000D02*
X35310000Y67960000D01*
X64680000Y69055000D02*
X56480000Y69055000D01*
X45395000Y69055000D02*
X44050000Y70400000D01*
X56480000Y69055000D02*
X45395000Y69055000D01*
X35310000Y67960000D02*
X37750000Y70400000D01*
D31*
%TO.N,/Buck Converter/out*%
X67500000Y65100000D02*
X67500000Y74920000D01*
D32*
X47060000Y77740000D02*
X56480000Y77740000D01*
X34600000Y83400000D02*
X41350000Y83400000D01*
X41350000Y83400000D02*
X44050000Y80700000D01*
D31*
X67500000Y74920000D02*
X64680000Y77740000D01*
X65120000Y62720000D02*
X67500000Y65100000D01*
X45300000Y62720000D02*
X65120000Y62720000D01*
D32*
X44100000Y80700000D02*
X47060000Y77740000D01*
X44050000Y80700000D02*
X44100000Y80700000D01*
X64680000Y77740000D02*
X56480000Y77740000D01*
%TD*%
%TA.AperFunction,Conductor*%
%TO.N,GND*%
G36*
X2280703Y32526377D02*
G01*
X2287181Y32520345D01*
X3188181Y31619345D01*
X3221666Y31558022D01*
X3224500Y31531664D01*
X3224500Y20246578D01*
X3255290Y20052174D01*
X3316116Y19864975D01*
X3316119Y19864968D01*
X3385985Y19727847D01*
X3399500Y19671557D01*
X3399500Y19645000D01*
X3399501Y19644982D01*
X3410001Y19542203D01*
X3410001Y19542201D01*
X3430613Y19480000D01*
X3465116Y19375876D01*
X3467458Y19368810D01*
X3465631Y19368205D01*
X3474500Y19328202D01*
X3474500Y18433956D01*
X3512947Y18240672D01*
X3512950Y18240660D01*
X3525363Y18210694D01*
X3588366Y18058589D01*
X3588371Y18058580D01*
X3697860Y17894719D01*
X3697863Y17894715D01*
X3830811Y17761767D01*
X3862206Y17708682D01*
X3898254Y17584606D01*
X3898255Y17584604D01*
X3898256Y17584602D01*
X3899133Y17583119D01*
X3899466Y17581805D01*
X3901353Y17577446D01*
X3900649Y17577142D01*
X3916315Y17515396D01*
X3900861Y17462767D01*
X3901353Y17462554D01*
X3899630Y17458574D01*
X3899133Y17456882D01*
X3898506Y17455823D01*
X3898254Y17455395D01*
X3898254Y17455394D01*
X3852402Y17297574D01*
X3852401Y17297568D01*
X3849500Y17260702D01*
X3849500Y16829299D01*
X3852401Y16792433D01*
X3852402Y16792427D01*
X3898254Y16634607D01*
X3898254Y16634606D01*
X3898255Y16634604D01*
X3898256Y16634602D01*
X3899133Y16633119D01*
X3899466Y16631805D01*
X3901353Y16627446D01*
X3900649Y16627142D01*
X3916315Y16565396D01*
X3900861Y16512767D01*
X3901353Y16512554D01*
X3899630Y16508574D01*
X3899133Y16506882D01*
X3898506Y16505823D01*
X3898254Y16505395D01*
X3898254Y16505394D01*
X3852402Y16347574D01*
X3852401Y16347568D01*
X3849500Y16310702D01*
X3849500Y15879299D01*
X3852401Y15842433D01*
X3852402Y15842427D01*
X3898254Y15684607D01*
X3898255Y15684604D01*
X3898256Y15684602D01*
X3918324Y15650669D01*
X3981732Y15543450D01*
X3981918Y15543136D01*
X3981923Y15543130D01*
X4098129Y15426924D01*
X4098133Y15426921D01*
X4098135Y15426919D01*
X4098138Y15426918D01*
X4098141Y15426915D01*
X4201120Y15366014D01*
X4248804Y15314946D01*
X4262000Y15259282D01*
X4262000Y13561704D01*
X4262000Y13561702D01*
X4261999Y13561702D01*
X4290840Y13416718D01*
X4290842Y13416709D01*
X4347414Y13280130D01*
X4347415Y13280128D01*
X4347416Y13280127D01*
X4372636Y13242382D01*
X4380312Y13230895D01*
X4380313Y13230892D01*
X4429546Y13157208D01*
X4429552Y13157201D01*
X6024706Y11562048D01*
X6024708Y11562046D01*
X6054180Y11542355D01*
X6098392Y11512814D01*
X6147627Y11479916D01*
X6147628Y11479916D01*
X6147629Y11479915D01*
X6147631Y11479914D01*
X6284204Y11423344D01*
X6284209Y11423342D01*
X6284213Y11423342D01*
X6284214Y11423341D01*
X6429201Y11394500D01*
X6429204Y11394500D01*
X6429205Y11394500D01*
X6577040Y11394500D01*
X11275500Y11394500D01*
X11342539Y11374815D01*
X11388294Y11322011D01*
X11399500Y11270500D01*
X11399500Y5031578D01*
X11430290Y4837174D01*
X11491117Y4649970D01*
X11560089Y4514607D01*
X11580476Y4474595D01*
X11696172Y4315354D01*
X15441354Y570172D01*
X15600595Y454476D01*
X15683454Y412258D01*
X15775969Y365118D01*
X15775971Y365118D01*
X15775974Y365116D01*
X15876318Y332513D01*
X15963173Y304291D01*
X16157579Y273500D01*
X16162433Y273118D01*
X16227723Y248238D01*
X16269197Y192009D01*
X16273687Y122284D01*
X16239769Y61199D01*
X16178210Y28150D01*
X16152711Y25500D01*
X10543500Y25500D01*
X10476461Y45185D01*
X10430706Y97989D01*
X10419500Y149500D01*
X10419500Y2047017D01*
X10419500Y2047018D01*
X10408006Y2074767D01*
X10386767Y2096006D01*
X10359018Y2107500D01*
X10359017Y2107500D01*
X9343500Y2107500D01*
X9276461Y2127185D01*
X9230706Y2179989D01*
X9219500Y2231500D01*
X9219500Y5057007D01*
X9219499Y5057021D01*
X9219499Y5234290D01*
X9182170Y5637141D01*
X9182170Y5637142D01*
X9179873Y5649432D01*
X9107827Y6034843D01*
X8997108Y6423981D01*
X8850955Y6801244D01*
X8670617Y7163412D01*
X8457632Y7507395D01*
X8213816Y7830260D01*
X7941250Y8129250D01*
X7642260Y8401816D01*
X7642257Y8401818D01*
X7642254Y8401821D01*
X7347377Y8624501D01*
X7319395Y8645632D01*
X6975412Y8858617D01*
X6613244Y9038955D01*
X6235981Y9185108D01*
X6235967Y9185112D01*
X6235964Y9185113D01*
X5846850Y9295825D01*
X5846850Y9295826D01*
X5449140Y9370171D01*
X5123842Y9400313D01*
X5046292Y9407499D01*
X4844000Y9407499D01*
X4819469Y9407499D01*
X4808022Y9399182D01*
X4742216Y9375702D01*
X4735136Y9375500D01*
X2199500Y9375500D01*
X2132461Y9395185D01*
X2086706Y9447989D01*
X2075500Y9499500D01*
X2075500Y32432664D01*
X2095185Y32499703D01*
X2147989Y32545458D01*
X2217147Y32555402D01*
X2280703Y32526377D01*
G37*
%TD.AperFunction*%
%TA.AperFunction,Conductor*%
G36*
X61527304Y97904815D02*
G01*
X61573059Y97852011D01*
X61583003Y97782853D01*
X61556774Y97722642D01*
X61459397Y97601939D01*
X61459378Y97601913D01*
X61239476Y97272536D01*
X61239467Y97272521D01*
X61050125Y96924693D01*
X61050118Y96924679D01*
X60892857Y96561195D01*
X60892855Y96561191D01*
X60768960Y96185014D01*
X60768959Y96185011D01*
X60679445Y95799225D01*
X60679441Y95799203D01*
X60625030Y95406925D01*
X60625028Y95406904D01*
X60606161Y95011323D01*
X60606161Y95011298D01*
X60622991Y94615620D01*
X60622991Y94615614D01*
X60675291Y94223751D01*
X60675385Y94223048D01*
X60738216Y93945778D01*
X60762915Y93836786D01*
X60884870Y93459979D01*
X60884871Y93459976D01*
X61031177Y93116979D01*
X61040260Y93095685D01*
X61040265Y93095676D01*
X61227822Y92746863D01*
X61446037Y92416339D01*
X61617341Y92201746D01*
X61693119Y92106819D01*
X61733776Y92064372D01*
X61967075Y91820799D01*
X61967082Y91820793D01*
X62265658Y91560621D01*
X62265675Y91560607D01*
X62586470Y91328375D01*
X62586477Y91328371D01*
X62586481Y91328368D01*
X62756671Y91227127D01*
X62777757Y91214590D01*
X62826612Y91219092D01*
X62826612Y91219093D01*
X62846168Y91220894D01*
X62846187Y91220687D01*
X62864720Y91224501D01*
X69800500Y91224501D01*
X69867539Y91204816D01*
X69913294Y91152012D01*
X69924500Y91100501D01*
X69924500Y8899502D01*
X69904815Y8832463D01*
X69852011Y8786708D01*
X69800500Y8775502D01*
X62859941Y8775502D01*
X62847935Y8777969D01*
X62847788Y8776364D01*
X62779375Y8782658D01*
X62758279Y8770110D01*
X62758278Y8770111D01*
X62588203Y8668908D01*
X62588194Y8668902D01*
X62267586Y8436756D01*
X62267580Y8436752D01*
X62267576Y8436748D01*
X61969148Y8176675D01*
X61969145Y8176672D01*
X61695335Y7890796D01*
X61448366Y7581435D01*
X61230242Y7251101D01*
X61230233Y7251085D01*
X61042737Y6902483D01*
X60887363Y6538388D01*
X60765396Y6161805D01*
X60677813Y5775758D01*
X60625335Y5383423D01*
X60625332Y5383390D01*
X60608378Y4987928D01*
X60608379Y4987902D01*
X60627087Y4592510D01*
X60681304Y4200410D01*
X60681306Y4200398D01*
X60681307Y4200393D01*
X60690995Y4158550D01*
X60770594Y3814760D01*
X60770601Y3814737D01*
X60894230Y3438719D01*
X60894236Y3438704D01*
X60894238Y3438698D01*
X61051220Y3075305D01*
X61051222Y3075302D01*
X61051222Y3075301D01*
X61093700Y2997156D01*
X61226275Y2753265D01*
X61240274Y2727513D01*
X61459852Y2398161D01*
X61459856Y2398155D01*
X61459858Y2398153D01*
X61551750Y2284087D01*
X61557224Y2277293D01*
X61583952Y2212738D01*
X61571537Y2143980D01*
X61523919Y2092850D01*
X61460661Y2075501D01*
X54984982Y2075501D01*
X54957231Y2064006D01*
X54935995Y2042770D01*
X54935994Y2042769D01*
X54935994Y2042768D01*
X54932498Y2034328D01*
X54924500Y2015019D01*
X54924500Y199501D01*
X54904815Y132462D01*
X54852011Y86707D01*
X54800500Y75501D01*
X37072982Y75501D01*
X37045231Y64006D01*
X37043045Y61819D01*
X37037103Y58575D01*
X37035079Y57222D01*
X37034957Y57404D01*
X36981722Y28334D01*
X36955364Y25500D01*
X31237574Y25500D01*
X31170535Y45185D01*
X31124780Y97989D01*
X31114836Y167147D01*
X31143861Y230703D01*
X31172478Y255039D01*
X31216656Y282288D01*
X31340712Y406344D01*
X31432814Y555666D01*
X31487999Y722203D01*
X31498500Y824991D01*
X31498499Y2225008D01*
X31487999Y2327797D01*
X31432814Y2494334D01*
X31340712Y2643656D01*
X31216656Y2767712D01*
X31123888Y2824931D01*
X31067336Y2859813D01*
X31067331Y2859815D01*
X31065862Y2860302D01*
X30900797Y2914999D01*
X30900795Y2915000D01*
X30798010Y2925500D01*
X29997998Y2925500D01*
X29997980Y2925499D01*
X29895203Y2915000D01*
X29895200Y2914999D01*
X29728668Y2859815D01*
X29728663Y2859813D01*
X29579342Y2767711D01*
X29455289Y2643658D01*
X29363187Y2494337D01*
X29363185Y2494332D01*
X29340318Y2425322D01*
X29308001Y2327797D01*
X29308001Y2327796D01*
X29308000Y2327796D01*
X29297500Y2225017D01*
X29297500Y824999D01*
X29297501Y824982D01*
X29308000Y722204D01*
X29308001Y722201D01*
X29340940Y622800D01*
X29363186Y555666D01*
X29432910Y442624D01*
X29455289Y406343D01*
X29579344Y282288D01*
X29623522Y255039D01*
X29670247Y203091D01*
X29681470Y134129D01*
X29653627Y70047D01*
X29595558Y31190D01*
X29558426Y25500D01*
X25637574Y25500D01*
X25570535Y45185D01*
X25524780Y97989D01*
X25514836Y167147D01*
X25543861Y230703D01*
X25572478Y255039D01*
X25616656Y282288D01*
X25740712Y406344D01*
X25832814Y555666D01*
X25887999Y722203D01*
X25898500Y824991D01*
X25898499Y2225008D01*
X25887999Y2327797D01*
X25832814Y2494334D01*
X25740712Y2643656D01*
X25616656Y2767712D01*
X25523888Y2824931D01*
X25467336Y2859813D01*
X25467331Y2859815D01*
X25465862Y2860302D01*
X25300797Y2914999D01*
X25300795Y2915000D01*
X25198010Y2925500D01*
X24397998Y2925500D01*
X24397980Y2925499D01*
X24295203Y2915000D01*
X24295200Y2914999D01*
X24273504Y2907809D01*
X24203675Y2905407D01*
X24143634Y2941139D01*
X24112441Y3003660D01*
X24110500Y3025515D01*
X24110500Y8777500D01*
X24130185Y8844539D01*
X24182989Y8890294D01*
X24234500Y8901500D01*
X26561770Y8901500D01*
X26628809Y8881815D01*
X26649451Y8865181D01*
X27304383Y8210249D01*
X27337868Y8148926D01*
X27332884Y8079234D01*
X27291012Y8023301D01*
X27225548Y7998884D01*
X27166266Y8009289D01*
X27060846Y8056226D01*
X27060841Y8056228D01*
X26886609Y8093261D01*
X26875685Y8095583D01*
X26686393Y8095583D01*
X26675469Y8093261D01*
X26501236Y8056228D01*
X26501231Y8056226D01*
X26328309Y7979235D01*
X26328304Y7979232D01*
X26260788Y7930178D01*
X26194982Y7906698D01*
X26126928Y7922524D01*
X26115023Y7930174D01*
X26065130Y7966424D01*
X26040729Y7984152D01*
X25867807Y8061143D01*
X25867802Y8061145D01*
X25716703Y8093261D01*
X25682646Y8100500D01*
X25493354Y8100500D01*
X25470221Y8095583D01*
X25308197Y8061145D01*
X25308192Y8061143D01*
X25135270Y7984152D01*
X25135265Y7984149D01*
X24982129Y7872889D01*
X24855466Y7732215D01*
X24760821Y7568285D01*
X24760818Y7568278D01*
X24702327Y7388260D01*
X24702326Y7388256D01*
X24682540Y7200000D01*
X24702326Y7011744D01*
X24702327Y7011741D01*
X24760818Y6831723D01*
X24760821Y6831716D01*
X24855467Y6667784D01*
X24959148Y6552635D01*
X24982129Y6527112D01*
X25135265Y6415852D01*
X25135266Y6415852D01*
X25135270Y6415849D01*
X25256829Y6361727D01*
X25310066Y6316477D01*
X25330387Y6249628D01*
X25325470Y6213854D01*
X25300401Y6127568D01*
X25297500Y6090702D01*
X25297500Y4709299D01*
X25300401Y4672433D01*
X25300402Y4672427D01*
X25346254Y4514607D01*
X25346255Y4514604D01*
X25429917Y4373138D01*
X25429923Y4373130D01*
X25546129Y4256924D01*
X25546133Y4256921D01*
X25546135Y4256919D01*
X25687602Y4173256D01*
X25729224Y4161164D01*
X25845426Y4127403D01*
X25845429Y4127403D01*
X25845431Y4127402D01*
X25882306Y4124500D01*
X25882314Y4124500D01*
X26313686Y4124500D01*
X26313694Y4124500D01*
X26350569Y4127402D01*
X26350571Y4127403D01*
X26350573Y4127403D01*
X26392191Y4139495D01*
X26508398Y4173256D01*
X26530471Y4186310D01*
X26534878Y4188916D01*
X26602601Y4206100D01*
X26661122Y4188916D01*
X26687598Y4173258D01*
X26687599Y4173258D01*
X26687602Y4173256D01*
X26729224Y4161164D01*
X26845426Y4127403D01*
X26845429Y4127403D01*
X26845431Y4127402D01*
X26882306Y4124500D01*
X26882314Y4124500D01*
X27223500Y4124500D01*
X27290539Y4104815D01*
X27336294Y4052011D01*
X27347500Y4000500D01*
X27347500Y3801143D01*
X27330888Y3739144D01*
X27260820Y3617782D01*
X27260818Y3617778D01*
X27202639Y3438719D01*
X27202326Y3437756D01*
X27182540Y3249500D01*
X27202326Y3061244D01*
X27202327Y3061241D01*
X27260818Y2881223D01*
X27260821Y2881216D01*
X27355467Y2717284D01*
X27427738Y2637019D01*
X27482129Y2576612D01*
X27635265Y2465352D01*
X27635270Y2465349D01*
X27808192Y2388358D01*
X27808197Y2388356D01*
X27993354Y2349000D01*
X27993355Y2349000D01*
X28182644Y2349000D01*
X28182646Y2349000D01*
X28367803Y2388356D01*
X28540730Y2465349D01*
X28693871Y2576612D01*
X28820533Y2717284D01*
X28915179Y2881216D01*
X28973674Y3061244D01*
X28993460Y3249500D01*
X28973674Y3437756D01*
X28915179Y3617784D01*
X28865111Y3704504D01*
X28848500Y3766502D01*
X28848500Y4127705D01*
X29348000Y4127705D01*
X29348001Y4127705D01*
X29350486Y4127900D01*
X29508198Y4173719D01*
X29649552Y4257315D01*
X29649561Y4257322D01*
X29765678Y4373439D01*
X29765685Y4373448D01*
X29849282Y4514804D01*
X29849283Y4514807D01*
X29895099Y4672505D01*
X29895100Y4672511D01*
X29897999Y4709351D01*
X29898000Y4709366D01*
X29898000Y5150000D01*
X29348000Y5150000D01*
X29348000Y4127705D01*
X28848500Y4127705D01*
X28848500Y4492672D01*
X28853424Y4527267D01*
X28895597Y4672427D01*
X28895598Y4672433D01*
X28898499Y4709299D01*
X28898500Y4709306D01*
X28898500Y5650000D01*
X29348000Y5650000D01*
X29898000Y5650000D01*
X29898000Y6090635D01*
X29897999Y6090650D01*
X29895100Y6127490D01*
X29895099Y6127496D01*
X29849283Y6285194D01*
X29849282Y6285197D01*
X29765685Y6426553D01*
X29765678Y6426562D01*
X29649561Y6542679D01*
X29649552Y6542686D01*
X29508196Y6626283D01*
X29508193Y6626284D01*
X29350494Y6672100D01*
X29350497Y6672100D01*
X29348000Y6672297D01*
X29348000Y5650000D01*
X28898500Y5650000D01*
X28898500Y6090694D01*
X28895598Y6127569D01*
X28895597Y6127574D01*
X28853424Y6272735D01*
X28848500Y6307330D01*
X28848500Y8551921D01*
X28831776Y8635993D01*
X28831776Y8635998D01*
X28823661Y8676790D01*
X28819659Y8696912D01*
X28765408Y8827883D01*
X28763765Y8832475D01*
X28763084Y8833495D01*
X28717645Y8901500D01*
X28717645Y8901501D01*
X28680950Y8956419D01*
X27402421Y10234948D01*
X27402414Y10234954D01*
X27328729Y10284188D01*
X27328729Y10284187D01*
X27279491Y10317087D01*
X27142917Y10373657D01*
X27142907Y10373660D01*
X26997920Y10402500D01*
X26997918Y10402500D01*
X24234500Y10402500D01*
X24167461Y10422185D01*
X24121706Y10474989D01*
X24110500Y10526500D01*
X24110500Y19242664D01*
X24130185Y19309703D01*
X24146819Y19330345D01*
X29051829Y24235355D01*
X30216974Y25400500D01*
X33878813Y29062341D01*
X33940134Y29095824D01*
X34009826Y29090840D01*
X34065759Y29048968D01*
X34078873Y29027066D01*
X34097432Y28987266D01*
X34097433Y28987265D01*
X34227954Y28800859D01*
X34388858Y28639955D01*
X34388861Y28639953D01*
X34575266Y28509432D01*
X34633275Y28482382D01*
X34685714Y28436209D01*
X34704866Y28369016D01*
X34684650Y28302135D01*
X34633275Y28257618D01*
X34575267Y28230569D01*
X34575265Y28230568D01*
X34388858Y28100046D01*
X34227954Y27939142D01*
X34097432Y27752735D01*
X34097431Y27752733D01*
X34001261Y27546498D01*
X34001258Y27546489D01*
X33942366Y27326698D01*
X33942364Y27326687D01*
X33922532Y27100002D01*
X33922532Y27099999D01*
X33942364Y26873314D01*
X33942366Y26873303D01*
X34001258Y26653512D01*
X34001261Y26653503D01*
X34097431Y26447268D01*
X34097432Y26447266D01*
X34227954Y26260859D01*
X34388858Y26099955D01*
X34388861Y26099953D01*
X34575266Y25969432D01*
X34633275Y25942382D01*
X34685714Y25896209D01*
X34704866Y25829016D01*
X34684650Y25762135D01*
X34633275Y25717618D01*
X34575267Y25690569D01*
X34575265Y25690568D01*
X34388858Y25560046D01*
X34227954Y25399142D01*
X34160900Y25303377D01*
X34106323Y25259752D01*
X34059325Y25250500D01*
X31927337Y25250500D01*
X31860298Y25270185D01*
X31854452Y25274182D01*
X31840734Y25284149D01*
X31840729Y25284152D01*
X31667807Y25361143D01*
X31667802Y25361145D01*
X31522001Y25392135D01*
X31482646Y25400500D01*
X31293354Y25400500D01*
X31260897Y25393602D01*
X31108197Y25361145D01*
X31108192Y25361143D01*
X30935270Y25284152D01*
X30935265Y25284149D01*
X30782129Y25172889D01*
X30655466Y25032215D01*
X30560821Y24868285D01*
X30560818Y24868278D01*
X30502327Y24688260D01*
X30502326Y24688256D01*
X30482540Y24500000D01*
X30502326Y24311744D01*
X30502327Y24311741D01*
X30560818Y24131723D01*
X30560821Y24131716D01*
X30655467Y23967784D01*
X30709956Y23907268D01*
X30782129Y23827112D01*
X30935265Y23715852D01*
X30935270Y23715849D01*
X31108192Y23638858D01*
X31108197Y23638856D01*
X31293354Y23599500D01*
X31293355Y23599500D01*
X31482644Y23599500D01*
X31482646Y23599500D01*
X31667803Y23638856D01*
X31840730Y23715849D01*
X31847626Y23720859D01*
X31854452Y23725818D01*
X31920258Y23749298D01*
X31927337Y23749500D01*
X34147951Y23749500D01*
X34214990Y23729815D01*
X34235632Y23713181D01*
X34388858Y23559955D01*
X34388861Y23559953D01*
X34575266Y23429432D01*
X34598888Y23418417D01*
X34633275Y23402382D01*
X34685714Y23356209D01*
X34704866Y23289016D01*
X34684650Y23222135D01*
X34633275Y23177618D01*
X34575267Y23150569D01*
X34575265Y23150568D01*
X34388858Y23020046D01*
X34227954Y22859142D01*
X34188908Y22803377D01*
X34134331Y22759752D01*
X34087333Y22750500D01*
X31927337Y22750500D01*
X31860298Y22770185D01*
X31854452Y22774182D01*
X31840734Y22784149D01*
X31840729Y22784152D01*
X31667807Y22861143D01*
X31667802Y22861145D01*
X31522001Y22892135D01*
X31482646Y22900500D01*
X31293354Y22900500D01*
X31260897Y22893602D01*
X31108197Y22861145D01*
X31108192Y22861143D01*
X30935270Y22784152D01*
X30935265Y22784149D01*
X30782129Y22672889D01*
X30655466Y22532215D01*
X30560821Y22368285D01*
X30560818Y22368278D01*
X30502327Y22188260D01*
X30502326Y22188256D01*
X30482540Y22000000D01*
X30502326Y21811744D01*
X30502327Y21811741D01*
X30560818Y21631723D01*
X30560821Y21631716D01*
X30655467Y21467784D01*
X30745974Y21367266D01*
X30782129Y21327112D01*
X30935265Y21215852D01*
X30935270Y21215849D01*
X31108192Y21138858D01*
X31108197Y21138856D01*
X31293354Y21099500D01*
X31293355Y21099500D01*
X31482644Y21099500D01*
X31482646Y21099500D01*
X31667803Y21138856D01*
X31840730Y21215849D01*
X31842776Y21217336D01*
X31854452Y21225818D01*
X31920258Y21249298D01*
X31927337Y21249500D01*
X34115341Y21249500D01*
X34182380Y21229815D01*
X34216916Y21196623D01*
X34227954Y21180859D01*
X34388858Y21019955D01*
X34388861Y21019953D01*
X34575266Y20889432D01*
X34633275Y20862382D01*
X34685714Y20816209D01*
X34704866Y20749016D01*
X34684650Y20682135D01*
X34633275Y20637618D01*
X34575267Y20610569D01*
X34575265Y20610568D01*
X34388858Y20480046D01*
X34227954Y20319142D01*
X34097432Y20132735D01*
X34097431Y20132733D01*
X34001261Y19926498D01*
X34001258Y19926489D01*
X33942366Y19706698D01*
X33942364Y19706687D01*
X33922532Y19480002D01*
X33922532Y19479999D01*
X33942364Y19253314D01*
X33942366Y19253303D01*
X34001258Y19033512D01*
X34001261Y19033503D01*
X34097431Y18827268D01*
X34097432Y18827266D01*
X34227954Y18640859D01*
X34388858Y18479955D01*
X34388861Y18479953D01*
X34575266Y18349432D01*
X34633275Y18322382D01*
X34685714Y18276209D01*
X34704866Y18209016D01*
X34684650Y18142135D01*
X34633275Y18097618D01*
X34575267Y18070569D01*
X34575265Y18070568D01*
X34388858Y17940046D01*
X34227954Y17779142D01*
X34097432Y17592735D01*
X34097431Y17592733D01*
X34001261Y17386498D01*
X34001258Y17386489D01*
X33942366Y17166698D01*
X33942364Y17166687D01*
X33922532Y16940002D01*
X33922532Y16939999D01*
X33942364Y16713314D01*
X33942366Y16713303D01*
X34001258Y16493512D01*
X34001261Y16493503D01*
X34097431Y16287268D01*
X34097432Y16287266D01*
X34227954Y16100859D01*
X34388858Y15939955D01*
X34417370Y15919991D01*
X34575266Y15809432D01*
X34633275Y15782382D01*
X34685714Y15736209D01*
X34704866Y15669016D01*
X34684650Y15602135D01*
X34633275Y15557619D01*
X34616272Y15549690D01*
X34575267Y15530569D01*
X34575265Y15530568D01*
X34388858Y15400046D01*
X34227954Y15239142D01*
X34097432Y15052735D01*
X34097431Y15052733D01*
X34001261Y14846498D01*
X34001258Y14846489D01*
X33942366Y14626698D01*
X33942364Y14626687D01*
X33922532Y14400002D01*
X33922532Y14399999D01*
X33942364Y14173314D01*
X33942366Y14173303D01*
X34001258Y13953512D01*
X34001261Y13953503D01*
X34097431Y13747268D01*
X34097432Y13747266D01*
X34227954Y13560859D01*
X34388858Y13399955D01*
X34388861Y13399953D01*
X34575266Y13269432D01*
X34633275Y13242382D01*
X34685714Y13196209D01*
X34704866Y13129016D01*
X34684650Y13062135D01*
X34633275Y13017618D01*
X34575267Y12990569D01*
X34575265Y12990568D01*
X34388858Y12860046D01*
X34227954Y12699142D01*
X34097432Y12512735D01*
X34097431Y12512733D01*
X34001261Y12306498D01*
X34001258Y12306489D01*
X33942366Y12086698D01*
X33942364Y12086687D01*
X33922532Y11860002D01*
X33922532Y11859999D01*
X33942364Y11633314D01*
X33942366Y11633303D01*
X34001258Y11413512D01*
X34001261Y11413503D01*
X34097431Y11207268D01*
X34097432Y11207266D01*
X34227954Y11020859D01*
X34388858Y10859955D01*
X34388861Y10859953D01*
X34575266Y10729432D01*
X34633275Y10702382D01*
X34685714Y10656209D01*
X34704866Y10589016D01*
X34684650Y10522135D01*
X34633275Y10477618D01*
X34575267Y10450569D01*
X34575265Y10450568D01*
X34388858Y10320046D01*
X34227954Y10159142D01*
X34097432Y9972735D01*
X34097431Y9972733D01*
X34001261Y9766498D01*
X34001258Y9766489D01*
X33942366Y9546698D01*
X33942364Y9546687D01*
X33922532Y9320002D01*
X33922532Y9319999D01*
X33942364Y9093314D01*
X33942366Y9093303D01*
X34001258Y8873512D01*
X34001261Y8873503D01*
X34097431Y8667268D01*
X34097432Y8667266D01*
X34227954Y8480859D01*
X34388858Y8319955D01*
X34388861Y8319953D01*
X34575266Y8189432D01*
X34633275Y8162382D01*
X34685714Y8116209D01*
X34704866Y8049016D01*
X34684650Y7982135D01*
X34633275Y7937618D01*
X34575267Y7910569D01*
X34575265Y7910568D01*
X34388858Y7780046D01*
X34227954Y7619142D01*
X34097432Y7432735D01*
X34097431Y7432733D01*
X34001261Y7226498D01*
X34001258Y7226489D01*
X33942366Y7006698D01*
X33942364Y7006687D01*
X33922532Y6780002D01*
X33922532Y6779999D01*
X33942364Y6553314D01*
X33942366Y6553303D01*
X34001258Y6333512D01*
X34001261Y6333503D01*
X34097431Y6127268D01*
X34097432Y6127266D01*
X34227954Y5940859D01*
X34388858Y5779955D01*
X34394852Y5775758D01*
X34575266Y5649432D01*
X34633275Y5622382D01*
X34685714Y5576209D01*
X34704866Y5509016D01*
X34684650Y5442135D01*
X34633275Y5397618D01*
X34575267Y5370569D01*
X34575265Y5370568D01*
X34388858Y5240046D01*
X34227954Y5079142D01*
X34097432Y4892735D01*
X34097431Y4892733D01*
X34001261Y4686498D01*
X34001258Y4686489D01*
X33942366Y4466698D01*
X33942364Y4466687D01*
X33922532Y4240002D01*
X33922532Y4239999D01*
X33942364Y4013314D01*
X33942366Y4013303D01*
X34001258Y3793512D01*
X34001261Y3793503D01*
X34097431Y3587268D01*
X34097432Y3587266D01*
X34227954Y3400859D01*
X34388858Y3239955D01*
X34388861Y3239953D01*
X34575266Y3109432D01*
X34781504Y3013261D01*
X34781509Y3013260D01*
X34781511Y3013259D01*
X34824404Y3001766D01*
X35001308Y2954365D01*
X35152482Y2941139D01*
X35227998Y2934532D01*
X35228000Y2934532D01*
X35228002Y2934532D01*
X35303518Y2941139D01*
X35454692Y2954365D01*
X35674496Y3013261D01*
X35880734Y3109432D01*
X36067139Y3239953D01*
X36228047Y3400861D01*
X36358568Y3587266D01*
X36454739Y3793504D01*
X36513635Y4013308D01*
X36533237Y4237364D01*
X36533468Y4239999D01*
X36533468Y4240002D01*
X36526875Y4315354D01*
X36513635Y4466692D01*
X36454739Y4686496D01*
X36358568Y4892734D01*
X36228047Y5079139D01*
X36228045Y5079142D01*
X36067141Y5240046D01*
X35880734Y5370568D01*
X35880728Y5370571D01*
X35822725Y5397618D01*
X35770285Y5443790D01*
X35751133Y5510983D01*
X35771348Y5577865D01*
X35822725Y5622382D01*
X35880734Y5649432D01*
X36067139Y5779953D01*
X36228047Y5940861D01*
X36358568Y6127266D01*
X36454739Y6333504D01*
X36513635Y6553308D01*
X36533468Y6780000D01*
X36531609Y6801244D01*
X36513635Y7006687D01*
X36513635Y7006692D01*
X36454739Y7226496D01*
X36358568Y7432734D01*
X36228047Y7619139D01*
X36228045Y7619142D01*
X36067141Y7780046D01*
X35880734Y7910568D01*
X35880728Y7910571D01*
X35822725Y7937618D01*
X35770285Y7983790D01*
X35751133Y8050983D01*
X35771348Y8117865D01*
X35822725Y8162382D01*
X35880734Y8189432D01*
X36067139Y8319953D01*
X36228047Y8480861D01*
X36358568Y8667266D01*
X36454739Y8873504D01*
X36513635Y9093308D01*
X36533468Y9320000D01*
X36513635Y9546692D01*
X36454739Y9766496D01*
X36358568Y9972734D01*
X36228047Y10159139D01*
X36228045Y10159142D01*
X36067141Y10320046D01*
X35880734Y10450568D01*
X35880728Y10450571D01*
X35822725Y10477618D01*
X35770285Y10523790D01*
X35751133Y10590983D01*
X35771348Y10657865D01*
X35822725Y10702382D01*
X35880734Y10729432D01*
X36067139Y10859953D01*
X36228047Y11020861D01*
X36358568Y11207266D01*
X36454739Y11413504D01*
X36513635Y11633308D01*
X36533468Y11860000D01*
X36518869Y12026863D01*
X36532635Y12095361D01*
X36554713Y12125347D01*
X40657951Y16228584D01*
X40659134Y16230354D01*
X40740084Y16351505D01*
X40796658Y16488087D01*
X40812952Y16570000D01*
X40825500Y16633080D01*
X40825500Y40548089D01*
X40845185Y40615128D01*
X40861819Y40635770D01*
X41013527Y40787479D01*
X41013529Y40787481D01*
X41136021Y40962419D01*
X41226276Y41155970D01*
X41281549Y41362253D01*
X41300162Y41575000D01*
X41300162Y41575003D01*
X43930340Y41575003D01*
X43930340Y41574998D01*
X43948944Y41362346D01*
X43948945Y41362338D01*
X44004194Y41156147D01*
X44004197Y41156141D01*
X44094413Y40962671D01*
X44133415Y40906970D01*
X44755000Y41528555D01*
X44755000Y41522339D01*
X44782259Y41420606D01*
X44834920Y41329394D01*
X44909394Y41254920D01*
X45000606Y41202259D01*
X45102339Y41175000D01*
X45108553Y41175000D01*
X44486968Y40553416D01*
X44542663Y40514418D01*
X44542669Y40514414D01*
X44736140Y40424198D01*
X44736146Y40424195D01*
X44942337Y40368946D01*
X44942345Y40368945D01*
X45154998Y40350340D01*
X45155002Y40350340D01*
X45367654Y40368945D01*
X45367662Y40368946D01*
X45573853Y40424195D01*
X45573864Y40424199D01*
X45767325Y40514411D01*
X45823030Y40553417D01*
X45201448Y41175000D01*
X45207661Y41175000D01*
X45309394Y41202259D01*
X45400606Y41254920D01*
X45475080Y41329394D01*
X45527741Y41420606D01*
X45555000Y41522339D01*
X45555000Y41528554D01*
X46176583Y40906971D01*
X46215589Y40962675D01*
X46305801Y41156136D01*
X46305805Y41156147D01*
X46361054Y41362338D01*
X46361055Y41362346D01*
X46379660Y41574998D01*
X46379660Y41575003D01*
X46361055Y41787655D01*
X46361054Y41787663D01*
X46305805Y41993854D01*
X46305802Y41993860D01*
X46215586Y42187331D01*
X46215582Y42187337D01*
X46176584Y42243032D01*
X45555000Y41621448D01*
X45555000Y41627661D01*
X45527741Y41729394D01*
X45475080Y41820606D01*
X45400606Y41895080D01*
X45309394Y41947741D01*
X45207661Y41975000D01*
X45201447Y41975000D01*
X45823030Y42596585D01*
X45767329Y42635587D01*
X45573859Y42725803D01*
X45573853Y42725806D01*
X45367662Y42781055D01*
X45367654Y42781056D01*
X45155002Y42799660D01*
X45154998Y42799660D01*
X44942345Y42781056D01*
X44942337Y42781055D01*
X44736146Y42725806D01*
X44736140Y42725803D01*
X44542671Y42635588D01*
X44542669Y42635587D01*
X44486969Y42596585D01*
X44486968Y42596585D01*
X45108554Y41975000D01*
X45102339Y41975000D01*
X45000606Y41947741D01*
X44909394Y41895080D01*
X44834920Y41820606D01*
X44782259Y41729394D01*
X44755000Y41627661D01*
X44755000Y41621447D01*
X44133415Y42243032D01*
X44133415Y42243031D01*
X44094413Y42187331D01*
X44094412Y42187329D01*
X44004197Y41993860D01*
X44004194Y41993854D01*
X43948945Y41787663D01*
X43948944Y41787655D01*
X43930340Y41575003D01*
X41300162Y41575003D01*
X41281549Y41787747D01*
X41226276Y41994030D01*
X41136021Y42187581D01*
X41013529Y42362519D01*
X41013527Y42362522D01*
X40861819Y42514230D01*
X40828334Y42575553D01*
X40825500Y42601911D01*
X40825500Y43974142D01*
X40845185Y44041181D01*
X40861814Y44061818D01*
X41195014Y44395018D01*
X41256335Y44428501D01*
X41326027Y44423517D01*
X41381960Y44381645D01*
X41406377Y44316181D01*
X41406221Y44296528D01*
X41390340Y44115003D01*
X41390340Y44114998D01*
X41408944Y43902346D01*
X41408945Y43902338D01*
X41464194Y43696147D01*
X41464197Y43696141D01*
X41554413Y43502671D01*
X41593415Y43446970D01*
X42215000Y44068554D01*
X42215000Y44062339D01*
X42242259Y43960606D01*
X42294920Y43869394D01*
X42369394Y43794920D01*
X42460606Y43742259D01*
X42562339Y43715000D01*
X42568553Y43715000D01*
X41946968Y43093416D01*
X42002663Y43054418D01*
X42002669Y43054414D01*
X42196140Y42964198D01*
X42196146Y42964195D01*
X42402337Y42908946D01*
X42402345Y42908945D01*
X42614998Y42890340D01*
X42615002Y42890340D01*
X42827654Y42908945D01*
X42827662Y42908946D01*
X43033853Y42964195D01*
X43033864Y42964199D01*
X43227325Y43054411D01*
X43283030Y43093417D01*
X42661448Y43715000D01*
X42667661Y43715000D01*
X42769394Y43742259D01*
X42860606Y43794920D01*
X42935080Y43869394D01*
X42987741Y43960606D01*
X43015000Y44062339D01*
X43015000Y44068554D01*
X43636583Y43446971D01*
X43675589Y43502675D01*
X43765801Y43696136D01*
X43765805Y43696147D01*
X43821054Y43902338D01*
X43821055Y43902346D01*
X43839660Y44114998D01*
X43839660Y44115003D01*
X43821055Y44327655D01*
X43821054Y44327663D01*
X43765805Y44533854D01*
X43765802Y44533860D01*
X43675586Y44727331D01*
X43675582Y44727337D01*
X43636584Y44783032D01*
X43015000Y44161448D01*
X43015000Y44167661D01*
X42987741Y44269394D01*
X42935080Y44360606D01*
X42860606Y44435080D01*
X42769394Y44487741D01*
X42667661Y44515000D01*
X42661447Y44515000D01*
X43283030Y45136585D01*
X43227329Y45175587D01*
X43033859Y45265803D01*
X43033853Y45265806D01*
X42827662Y45321055D01*
X42827654Y45321056D01*
X42615002Y45339660D01*
X42614998Y45339660D01*
X42433471Y45323779D01*
X42364971Y45337546D01*
X42314788Y45386161D01*
X42298855Y45454190D01*
X42322231Y45520033D01*
X42334971Y45534975D01*
X43493178Y46693181D01*
X43554501Y46726666D01*
X43580859Y46729500D01*
X44173337Y46729500D01*
X44240376Y46709815D01*
X44274912Y46676623D01*
X44299954Y46640859D01*
X44460858Y46479955D01*
X44460861Y46479953D01*
X44647266Y46349432D01*
X44853504Y46253261D01*
X45073308Y46194365D01*
X45235230Y46180199D01*
X45299998Y46174532D01*
X45300000Y46174532D01*
X45300002Y46174532D01*
X45356673Y46179491D01*
X45526692Y46194365D01*
X45746496Y46253261D01*
X45952734Y46349432D01*
X46139139Y46479953D01*
X46300047Y46640861D01*
X46430568Y46827266D01*
X46526739Y47033504D01*
X46585635Y47253308D01*
X46605468Y47480000D01*
X46585635Y47706692D01*
X46526739Y47926496D01*
X46430568Y48132734D01*
X46300047Y48319139D01*
X46300045Y48319142D01*
X46139141Y48480046D01*
X45952734Y48610568D01*
X45952732Y48610569D01*
X45746497Y48706739D01*
X45746488Y48706742D01*
X45526697Y48765634D01*
X45526693Y48765635D01*
X45526692Y48765635D01*
X45526691Y48765636D01*
X45526686Y48765636D01*
X45300002Y48785468D01*
X45299998Y48785468D01*
X45073313Y48765636D01*
X45073302Y48765634D01*
X44853511Y48706742D01*
X44853502Y48706739D01*
X44647267Y48610569D01*
X44647265Y48610568D01*
X44460858Y48480046D01*
X44299954Y48319142D01*
X44274912Y48283377D01*
X44220335Y48239752D01*
X44173337Y48230500D01*
X43144710Y48230500D01*
X42999722Y48201660D01*
X42999712Y48201657D01*
X42863141Y48145088D01*
X42863128Y48145081D01*
X42740214Y48062952D01*
X42740210Y48062949D01*
X39492050Y44814790D01*
X39492044Y44814782D01*
X39442812Y44741102D01*
X39442813Y44741101D01*
X39409921Y44691874D01*
X39409914Y44691862D01*
X39353342Y44555284D01*
X39353340Y44555278D01*
X39324500Y44410291D01*
X39324500Y42601911D01*
X39304815Y42534872D01*
X39288181Y42514230D01*
X39136472Y42362522D01*
X39013977Y42187579D01*
X38923725Y41994032D01*
X38923721Y41994023D01*
X38868452Y41787753D01*
X38868450Y41787742D01*
X38849838Y41575002D01*
X38849838Y41574999D01*
X38868450Y41362259D01*
X38868452Y41362248D01*
X38923721Y41155978D01*
X38923723Y41155974D01*
X38923724Y41155970D01*
X38963472Y41070730D01*
X39013977Y40962422D01*
X39136472Y40787479D01*
X39288181Y40635770D01*
X39321666Y40574447D01*
X39324500Y40548089D01*
X39324500Y17069231D01*
X39304815Y17002192D01*
X39288181Y16981550D01*
X36735431Y14428801D01*
X36674108Y14395316D01*
X36604416Y14400300D01*
X36548483Y14442172D01*
X36524222Y14505673D01*
X36513635Y14626692D01*
X36454739Y14846496D01*
X36358568Y15052734D01*
X36228047Y15239139D01*
X36228045Y15239142D01*
X36067141Y15400046D01*
X35880734Y15530568D01*
X35880728Y15530571D01*
X35841037Y15549079D01*
X35822724Y15557619D01*
X35770285Y15603790D01*
X35751133Y15670983D01*
X35771348Y15737865D01*
X35822725Y15782382D01*
X35880734Y15809432D01*
X36067139Y15939953D01*
X36228047Y16100861D01*
X36358568Y16287266D01*
X36454739Y16493504D01*
X36513635Y16713308D01*
X36533468Y16940000D01*
X36513635Y17166692D01*
X36454739Y17386496D01*
X36358568Y17592734D01*
X36228047Y17779139D01*
X36228045Y17779142D01*
X36067141Y17940046D01*
X35880734Y18070568D01*
X35880728Y18070571D01*
X35822725Y18097618D01*
X35770285Y18143790D01*
X35751133Y18210983D01*
X35771348Y18277865D01*
X35822725Y18322382D01*
X35880734Y18349432D01*
X36067139Y18479953D01*
X36228047Y18640861D01*
X36358568Y18827266D01*
X36454739Y19033504D01*
X36513635Y19253308D01*
X36533468Y19480000D01*
X36513635Y19706692D01*
X36454739Y19926496D01*
X36358568Y20132734D01*
X36228047Y20319139D01*
X36228045Y20319142D01*
X36067141Y20480046D01*
X35880734Y20610568D01*
X35880728Y20610571D01*
X35822725Y20637618D01*
X35770285Y20683790D01*
X35751133Y20750983D01*
X35771348Y20817865D01*
X35822725Y20862382D01*
X35880734Y20889432D01*
X36067139Y21019953D01*
X36228047Y21180861D01*
X36358568Y21367266D01*
X36454739Y21573504D01*
X36513635Y21793308D01*
X36532649Y22010642D01*
X36533468Y22019999D01*
X36533468Y22020002D01*
X36513635Y22246687D01*
X36513635Y22246692D01*
X36454739Y22466496D01*
X36358568Y22672734D01*
X36228047Y22859139D01*
X36228045Y22859142D01*
X36067141Y23020046D01*
X35880734Y23150568D01*
X35880728Y23150571D01*
X35822725Y23177618D01*
X35770285Y23223790D01*
X35751133Y23290983D01*
X35771348Y23357865D01*
X35822725Y23402382D01*
X35880734Y23429432D01*
X36067139Y23559953D01*
X36228047Y23720861D01*
X36358568Y23907266D01*
X36454739Y24113504D01*
X36513635Y24333308D01*
X36533468Y24560000D01*
X36513635Y24786692D01*
X36454739Y25006496D01*
X36358568Y25212734D01*
X36228047Y25399139D01*
X36228045Y25399142D01*
X36067141Y25560046D01*
X35880734Y25690568D01*
X35880728Y25690571D01*
X35822725Y25717618D01*
X35770285Y25763790D01*
X35751133Y25830983D01*
X35771348Y25897865D01*
X35822725Y25942382D01*
X35880734Y25969432D01*
X36067139Y26099953D01*
X36228047Y26260861D01*
X36358568Y26447266D01*
X36454739Y26653504D01*
X36513635Y26873308D01*
X36533468Y27100000D01*
X36513635Y27326692D01*
X36454739Y27546496D01*
X36358568Y27752734D01*
X36228047Y27939139D01*
X36228045Y27939142D01*
X36067141Y28100046D01*
X35880734Y28230568D01*
X35880728Y28230571D01*
X35822725Y28257618D01*
X35770285Y28303790D01*
X35751133Y28370983D01*
X35771348Y28437865D01*
X35822725Y28482382D01*
X35880734Y28509432D01*
X36067139Y28639953D01*
X36228047Y28800861D01*
X36358568Y28987266D01*
X36454739Y29193504D01*
X36513635Y29413308D01*
X36533468Y29640000D01*
X36513635Y29866692D01*
X36454739Y30086496D01*
X36358568Y30292734D01*
X36228047Y30479139D01*
X36228045Y30479142D01*
X36067141Y30640046D01*
X35880735Y30770567D01*
X35880736Y30770567D01*
X35880734Y30770568D01*
X35840935Y30789127D01*
X35788497Y30835299D01*
X35769346Y30902493D01*
X35789562Y30969374D01*
X35805656Y30989184D01*
X35837490Y31021018D01*
X35872762Y31045715D01*
X35880734Y31049432D01*
X36067139Y31179953D01*
X36228047Y31340861D01*
X36358568Y31527266D01*
X36454739Y31733504D01*
X36513635Y31953308D01*
X36533468Y32180000D01*
X36513635Y32406692D01*
X36460548Y32604815D01*
X36454741Y32626489D01*
X36454738Y32626498D01*
X36440406Y32657233D01*
X36358568Y32832734D01*
X36228047Y33019139D01*
X36228045Y33019142D01*
X36067141Y33180046D01*
X35880734Y33310568D01*
X35880728Y33310571D01*
X35822725Y33337618D01*
X35770285Y33383790D01*
X35751133Y33450983D01*
X35771348Y33517865D01*
X35822725Y33562382D01*
X35880734Y33589432D01*
X36067139Y33719953D01*
X36228047Y33880861D01*
X36358568Y34067266D01*
X36454739Y34273504D01*
X36513635Y34493308D01*
X36533468Y34720000D01*
X36513635Y34946692D01*
X36454739Y35166496D01*
X36358568Y35372734D01*
X36228047Y35559139D01*
X36228045Y35559142D01*
X36067141Y35720046D01*
X35880734Y35850568D01*
X35880732Y35850569D01*
X35822725Y35877618D01*
X35822132Y35877895D01*
X35769694Y35924066D01*
X35750542Y35991260D01*
X35770758Y36058141D01*
X35822134Y36102659D01*
X35880484Y36129868D01*
X36066820Y36260343D01*
X36227657Y36421180D01*
X36358134Y36607518D01*
X36454265Y36813674D01*
X36454269Y36813683D01*
X36506872Y37010000D01*
X35661012Y37010000D01*
X35693925Y37067007D01*
X35728000Y37194174D01*
X35728000Y37325826D01*
X35693925Y37452993D01*
X35661012Y37510000D01*
X36506872Y37510000D01*
X36506872Y37510001D01*
X36454269Y37706318D01*
X36454265Y37706327D01*
X36358134Y37912483D01*
X36227657Y38098821D01*
X36066820Y38259658D01*
X35880482Y38390135D01*
X35822133Y38417343D01*
X35769694Y38463516D01*
X35750542Y38530709D01*
X35770758Y38597590D01*
X35822129Y38642105D01*
X35880734Y38669432D01*
X36067139Y38799953D01*
X36228047Y38960861D01*
X36358568Y39147266D01*
X36454739Y39353504D01*
X36513635Y39573308D01*
X36533468Y39800000D01*
X36513635Y40026692D01*
X36454739Y40246496D01*
X36358568Y40452734D01*
X36228047Y40639139D01*
X36228045Y40639142D01*
X36067141Y40800046D01*
X35880734Y40930568D01*
X35880732Y40930569D01*
X35674497Y41026739D01*
X35674488Y41026742D01*
X35454697Y41085634D01*
X35454693Y41085635D01*
X35454692Y41085635D01*
X35454691Y41085636D01*
X35454686Y41085636D01*
X35228002Y41105468D01*
X35227998Y41105468D01*
X35001313Y41085636D01*
X35001302Y41085634D01*
X34781511Y41026742D01*
X34781502Y41026739D01*
X34575267Y40930569D01*
X34575265Y40930568D01*
X34388858Y40800046D01*
X34227954Y40639142D01*
X34097432Y40452735D01*
X34097431Y40452733D01*
X34001261Y40246498D01*
X34001258Y40246489D01*
X33942366Y40026698D01*
X33942364Y40026687D01*
X33922532Y39800002D01*
X33922532Y39799999D01*
X33942364Y39573314D01*
X33942366Y39573303D01*
X34001258Y39353512D01*
X34001261Y39353503D01*
X34097431Y39147268D01*
X34097432Y39147266D01*
X34227954Y38960859D01*
X34388858Y38799955D01*
X34388861Y38799953D01*
X34575266Y38669432D01*
X34633865Y38642107D01*
X34686305Y38595935D01*
X34705457Y38528742D01*
X34685242Y38461861D01*
X34633867Y38417343D01*
X34575515Y38390133D01*
X34389179Y38259658D01*
X34228342Y38098821D01*
X34097865Y37912483D01*
X34001734Y37706327D01*
X34001730Y37706318D01*
X33949127Y37510001D01*
X33949128Y37510000D01*
X34794988Y37510000D01*
X34762075Y37452993D01*
X34728000Y37325826D01*
X34728000Y37194174D01*
X34762075Y37067007D01*
X34794988Y37010000D01*
X33949128Y37010000D01*
X34001730Y36813683D01*
X34001734Y36813674D01*
X34097865Y36607518D01*
X34228342Y36421180D01*
X34389179Y36260343D01*
X34575518Y36129866D01*
X34575520Y36129865D01*
X34633865Y36102658D01*
X34686305Y36056486D01*
X34705457Y35989293D01*
X34685242Y35922411D01*
X34633867Y35877895D01*
X34575268Y35850569D01*
X34575264Y35850567D01*
X34388858Y35720046D01*
X34227954Y35559142D01*
X34097432Y35372735D01*
X34097431Y35372733D01*
X34001261Y35166498D01*
X34001258Y35166489D01*
X33942366Y34946698D01*
X33942364Y34946687D01*
X33922532Y34720002D01*
X33922532Y34719999D01*
X33942364Y34493314D01*
X33942366Y34493303D01*
X34001258Y34273512D01*
X34001261Y34273503D01*
X34097431Y34067268D01*
X34097432Y34067266D01*
X34227954Y33880859D01*
X34388858Y33719955D01*
X34388861Y33719953D01*
X34575266Y33589432D01*
X34633275Y33562382D01*
X34685714Y33516209D01*
X34704866Y33449016D01*
X34684650Y33382135D01*
X34633275Y33337618D01*
X34575267Y33310569D01*
X34575265Y33310568D01*
X34388858Y33180046D01*
X34227954Y33019142D01*
X34097432Y32832736D01*
X34093712Y32824758D01*
X34069015Y32789491D01*
X29462181Y28182656D01*
X29400858Y28149171D01*
X29331166Y28154155D01*
X29275233Y28196027D01*
X29250816Y28261491D01*
X29250500Y28270337D01*
X29250500Y49590008D01*
X33054671Y49590008D01*
X33054671Y49589993D01*
X33073964Y49295637D01*
X33073965Y49295627D01*
X33073966Y49295620D01*
X33090269Y49213656D01*
X33131518Y49006284D01*
X33131521Y49006270D01*
X33226349Y48726920D01*
X33356825Y48462340D01*
X33356829Y48462333D01*
X33520725Y48217045D01*
X33715241Y47995242D01*
X33937044Y47800726D01*
X34182332Y47636830D01*
X34182335Y47636828D01*
X34446923Y47506348D01*
X34726278Y47411519D01*
X35015620Y47353966D01*
X35043888Y47352114D01*
X35309993Y47334671D01*
X35310000Y47334671D01*
X35310007Y47334671D01*
X35545675Y47350119D01*
X35604380Y47353966D01*
X35893722Y47411519D01*
X36173077Y47506348D01*
X36437665Y47636828D01*
X36682957Y47800727D01*
X36904758Y47995242D01*
X37099273Y48217043D01*
X37263172Y48462335D01*
X37393652Y48726923D01*
X37488481Y49006278D01*
X37546034Y49295620D01*
X37565329Y49590000D01*
X37565329Y49590008D01*
X37546035Y49884364D01*
X37546034Y49884380D01*
X37488481Y50173722D01*
X37393652Y50453077D01*
X37263172Y50717664D01*
X37099273Y50962957D01*
X37031708Y51040000D01*
X36904758Y51184759D01*
X36682955Y51379275D01*
X36437667Y51543171D01*
X36437660Y51543175D01*
X36173080Y51673651D01*
X35893730Y51768479D01*
X35893724Y51768481D01*
X35893722Y51768481D01*
X35604380Y51826034D01*
X35604373Y51826035D01*
X35604363Y51826036D01*
X35310007Y51845329D01*
X35309993Y51845329D01*
X35015636Y51826036D01*
X35015624Y51826035D01*
X35015620Y51826034D01*
X35015612Y51826033D01*
X35015609Y51826032D01*
X34726283Y51768482D01*
X34726269Y51768479D01*
X34446919Y51673651D01*
X34182334Y51543172D01*
X33937041Y51379272D01*
X33715241Y51184759D01*
X33520728Y50962959D01*
X33356828Y50717666D01*
X33226349Y50453081D01*
X33131521Y50173731D01*
X33131518Y50173717D01*
X33073968Y49884391D01*
X33073964Y49884364D01*
X33054671Y49590008D01*
X29250500Y49590008D01*
X29250500Y56537771D01*
X29270185Y56604810D01*
X29286814Y56625447D01*
X37374549Y64713183D01*
X37435872Y64746667D01*
X37462230Y64749501D01*
X38850371Y64749501D01*
X38850372Y64749501D01*
X38909983Y64755909D01*
X39044831Y64806204D01*
X39160046Y64892454D01*
X39246296Y65007669D01*
X39296591Y65142517D01*
X39303000Y65202127D01*
X39302999Y67297872D01*
X39296591Y67357483D01*
X39294826Y67362214D01*
X39246297Y67492329D01*
X39246293Y67492336D01*
X39160047Y67607545D01*
X39160044Y67607548D01*
X39044835Y67693794D01*
X39044828Y67693798D01*
X38909982Y67744092D01*
X38909983Y67744092D01*
X38850383Y67750499D01*
X38850381Y67750500D01*
X38850373Y67750500D01*
X38850365Y67750500D01*
X37168335Y67750500D01*
X37101296Y67770185D01*
X37055541Y67822989D01*
X37045597Y67892147D01*
X37074622Y67955703D01*
X37080654Y67962181D01*
X38231655Y69113181D01*
X38292978Y69146666D01*
X38319336Y69149500D01*
X43480664Y69149500D01*
X43547703Y69129815D01*
X43568345Y69113181D01*
X44441172Y68240354D01*
X44580354Y68101172D01*
X44739595Y67985476D01*
X44914975Y67896116D01*
X45021256Y67861583D01*
X45102173Y67835291D01*
X45151611Y67827461D01*
X45296578Y67804500D01*
X45296583Y67804500D01*
X55816768Y67804500D01*
X55875786Y67789554D01*
X55911578Y67770185D01*
X55915497Y67768064D01*
X55985325Y67744092D01*
X56135015Y67692703D01*
X56135017Y67692703D01*
X56135019Y67692702D01*
X56363951Y67654500D01*
X56363952Y67654500D01*
X56596048Y67654500D01*
X56596049Y67654500D01*
X56824981Y67692702D01*
X57044503Y67768064D01*
X57069711Y67781706D01*
X57084214Y67789554D01*
X57143232Y67804500D01*
X63371769Y67804500D01*
X63438808Y67784815D01*
X63446080Y67779767D01*
X63509273Y67732461D01*
X63534209Y67713794D01*
X63537668Y67711205D01*
X63537671Y67711203D01*
X63672517Y67660909D01*
X63672516Y67660909D01*
X63679444Y67660165D01*
X63732127Y67654500D01*
X65627872Y67654501D01*
X65687483Y67660909D01*
X65822331Y67711204D01*
X65937546Y67797454D01*
X66023796Y67912669D01*
X66074091Y68047517D01*
X66080500Y68107127D01*
X66080499Y70002872D01*
X66074091Y70062483D01*
X66023796Y70197331D01*
X66023795Y70197332D01*
X66023793Y70197336D01*
X65937547Y70312545D01*
X65937544Y70312548D01*
X65822335Y70398794D01*
X65822328Y70398798D01*
X65687482Y70449092D01*
X65687483Y70449092D01*
X65627883Y70455499D01*
X65627881Y70455500D01*
X65627873Y70455500D01*
X65627864Y70455500D01*
X63732129Y70455500D01*
X63732123Y70455499D01*
X63672516Y70449092D01*
X63537671Y70398798D01*
X63537668Y70398796D01*
X63446080Y70330233D01*
X63380615Y70305816D01*
X63371769Y70305500D01*
X57143232Y70305500D01*
X57084214Y70320446D01*
X57044513Y70341931D01*
X57044507Y70341934D01*
X57044503Y70341936D01*
X57044500Y70341937D01*
X57044498Y70341938D01*
X56824984Y70417298D01*
X56634450Y70449092D01*
X56596049Y70455500D01*
X56363951Y70455500D01*
X56325550Y70449092D01*
X56135015Y70417298D01*
X55915501Y70341938D01*
X55915486Y70341931D01*
X55875786Y70320446D01*
X55816768Y70305500D01*
X45964336Y70305500D01*
X45897297Y70325185D01*
X45876655Y70341819D01*
X45208985Y71009489D01*
X45184283Y71044767D01*
X45183970Y71045437D01*
X45180568Y71052734D01*
X45180566Y71052736D01*
X45180566Y71052738D01*
X45050045Y71239142D01*
X44889141Y71400046D01*
X44702734Y71530568D01*
X44702732Y71530569D01*
X44496497Y71626739D01*
X44496488Y71626742D01*
X44276697Y71685634D01*
X44276693Y71685635D01*
X44276692Y71685635D01*
X44276691Y71685636D01*
X44276686Y71685636D01*
X44050002Y71705468D01*
X44049998Y71705468D01*
X43823313Y71685636D01*
X43823302Y71685634D01*
X43707950Y71654725D01*
X43675857Y71650500D01*
X38062230Y71650500D01*
X37995191Y71670185D01*
X37974549Y71686819D01*
X37918657Y71742711D01*
X37918656Y71742712D01*
X37769334Y71834814D01*
X37602797Y71889999D01*
X37602795Y71890000D01*
X37500010Y71900500D01*
X36749998Y71900500D01*
X36749980Y71900499D01*
X36647203Y71890000D01*
X36647200Y71889999D01*
X36480668Y71834815D01*
X36480663Y71834813D01*
X36331342Y71742711D01*
X36207289Y71618658D01*
X36115187Y71469337D01*
X36115185Y71469332D01*
X36092226Y71400046D01*
X36060001Y71302797D01*
X36060001Y71302796D01*
X36060000Y71302796D01*
X36049500Y71200017D01*
X36049500Y70519338D01*
X36029815Y70452299D01*
X36013181Y70431657D01*
X35461681Y69880157D01*
X35400358Y69846672D01*
X35330666Y69851656D01*
X35274733Y69893528D01*
X35250316Y69958992D01*
X35250000Y69967838D01*
X35250000Y70250000D01*
X34425000Y70250000D01*
X34425000Y69100001D01*
X34442806Y69082195D01*
X34449204Y69080316D01*
X34494959Y69027512D01*
X34504903Y68958354D01*
X34475878Y68894798D01*
X34469846Y68888320D01*
X34356174Y68774649D01*
X34356172Y68774646D01*
X34306485Y68706259D01*
X34240476Y68615406D01*
X34150669Y68439149D01*
X34149608Y68435388D01*
X34090291Y68252831D01*
X34090291Y68252828D01*
X34059500Y68058423D01*
X34059500Y67362214D01*
X34039815Y67295175D01*
X33987011Y67249420D01*
X33917853Y67239476D01*
X33854297Y67268501D01*
X33847819Y67274533D01*
X33716568Y67405784D01*
X33716566Y67405786D01*
X33531538Y67540217D01*
X33443680Y67584983D01*
X33327755Y67644050D01*
X33110248Y67714722D01*
X32924812Y67744092D01*
X32884354Y67750500D01*
X32655646Y67750500D01*
X32615188Y67744092D01*
X32429753Y67714722D01*
X32429750Y67714722D01*
X32212244Y67644050D01*
X32008461Y67540217D01*
X31902896Y67463520D01*
X31823434Y67405786D01*
X31823432Y67405784D01*
X31823431Y67405784D01*
X31661716Y67244069D01*
X31661716Y67244068D01*
X31661714Y67244066D01*
X31621326Y67188478D01*
X31527281Y67059037D01*
X31506478Y67018206D01*
X31458504Y66967410D01*
X31395993Y66950500D01*
X27174499Y66950500D01*
X27107460Y66970185D01*
X27061705Y67022989D01*
X27050499Y67074500D01*
X27050499Y67317871D01*
X27050498Y67317877D01*
X27050497Y67317884D01*
X27044091Y67377483D01*
X27035506Y67400500D01*
X26993797Y67512329D01*
X26993793Y67512336D01*
X26907547Y67627545D01*
X26907544Y67627548D01*
X26792335Y67713794D01*
X26792328Y67713798D01*
X26657482Y67764092D01*
X26657483Y67764092D01*
X26597883Y67770499D01*
X26597881Y67770500D01*
X26597873Y67770500D01*
X26597865Y67770500D01*
X26324500Y67770500D01*
X26257461Y67790185D01*
X26211706Y67842989D01*
X26200500Y67894500D01*
X26200500Y69800014D01*
X33100001Y69800014D01*
X33110494Y69697303D01*
X33165641Y69530881D01*
X33165643Y69530876D01*
X33257684Y69381655D01*
X33381654Y69257685D01*
X33530875Y69165644D01*
X33530880Y69165642D01*
X33697302Y69110495D01*
X33697309Y69110494D01*
X33800019Y69100001D01*
X33924999Y69100001D01*
X33925000Y69100002D01*
X33925000Y70250000D01*
X33100001Y70250000D01*
X33100001Y69800014D01*
X26200500Y69800014D01*
X26200500Y71199987D01*
X33100000Y71199987D01*
X33100000Y70750000D01*
X33925000Y70750000D01*
X34425000Y70750000D01*
X35249999Y70750000D01*
X35249999Y71199972D01*
X35249998Y71199987D01*
X35239505Y71302698D01*
X35184358Y71469120D01*
X35184356Y71469125D01*
X35092315Y71618346D01*
X34968345Y71742316D01*
X34819124Y71834357D01*
X34819119Y71834359D01*
X34652697Y71889506D01*
X34652690Y71889507D01*
X34549986Y71900000D01*
X34425000Y71900000D01*
X34425000Y70750000D01*
X33925000Y70750000D01*
X33925000Y71900000D01*
X33800027Y71900000D01*
X33800012Y71899999D01*
X33697302Y71889506D01*
X33530880Y71834359D01*
X33530875Y71834357D01*
X33381654Y71742316D01*
X33257684Y71618346D01*
X33165643Y71469125D01*
X33165641Y71469120D01*
X33110494Y71302698D01*
X33110493Y71302691D01*
X33100000Y71199987D01*
X26200500Y71199987D01*
X26200500Y73900003D01*
X42745034Y73900003D01*
X42745034Y73899998D01*
X42764858Y73673401D01*
X42764860Y73673390D01*
X42823730Y73453683D01*
X42823735Y73453669D01*
X42919863Y73247522D01*
X42970974Y73174528D01*
X43650000Y73853554D01*
X43650000Y73847339D01*
X43677259Y73745606D01*
X43729920Y73654394D01*
X43804394Y73579920D01*
X43895606Y73527259D01*
X43997339Y73500000D01*
X44003553Y73500000D01*
X43324526Y72820975D01*
X43397513Y72769868D01*
X43397521Y72769864D01*
X43603668Y72673736D01*
X43603682Y72673731D01*
X43823389Y72614861D01*
X43823400Y72614859D01*
X44049998Y72595034D01*
X44050002Y72595034D01*
X44276599Y72614859D01*
X44276610Y72614861D01*
X44496317Y72673731D01*
X44496331Y72673736D01*
X44702478Y72769864D01*
X44775471Y72820976D01*
X44096447Y73500000D01*
X44102661Y73500000D01*
X44204394Y73527259D01*
X44295606Y73579920D01*
X44370080Y73654394D01*
X44422741Y73745606D01*
X44450000Y73847339D01*
X44450000Y73853553D01*
X45129024Y73174529D01*
X45180136Y73247522D01*
X45246577Y73390006D01*
X55075202Y73390006D01*
X55075202Y73389995D01*
X55094361Y73158782D01*
X55151317Y72933865D01*
X55244515Y72721394D01*
X55328812Y72592367D01*
X55956212Y73219767D01*
X55967482Y73177708D01*
X56039890Y73052292D01*
X56142292Y72949890D01*
X56267708Y72877482D01*
X56309765Y72866213D01*
X55681201Y72237649D01*
X55711649Y72213950D01*
X55915697Y72103524D01*
X55915706Y72103521D01*
X56135139Y72028189D01*
X56363993Y71990000D01*
X56596007Y71990000D01*
X56824860Y72028189D01*
X57044293Y72103521D01*
X57044301Y72103524D01*
X57248355Y72213953D01*
X57278797Y72237649D01*
X57278798Y72237650D01*
X56650235Y72866213D01*
X56692292Y72877482D01*
X56817708Y72949890D01*
X56920110Y73052292D01*
X56992518Y73177708D01*
X57003787Y73219766D01*
X57631186Y72592367D01*
X57715482Y72721389D01*
X57808682Y72933865D01*
X57865638Y73158782D01*
X57884798Y73389995D01*
X57884798Y73390006D01*
X57865638Y73621219D01*
X57808682Y73846136D01*
X57715484Y74058607D01*
X57631186Y74187635D01*
X57003787Y73560236D01*
X56992518Y73602292D01*
X56920110Y73727708D01*
X56817708Y73830110D01*
X56692292Y73902518D01*
X56650233Y73913788D01*
X57074289Y74337845D01*
X63280000Y74337845D01*
X63280000Y73640000D01*
X64189252Y73640000D01*
X64167482Y73602292D01*
X64130000Y73462409D01*
X64130000Y73317591D01*
X64167482Y73177708D01*
X64189252Y73140000D01*
X63280000Y73140000D01*
X63280000Y72442156D01*
X63286401Y72382628D01*
X63286403Y72382621D01*
X63336645Y72247914D01*
X63336649Y72247907D01*
X63422809Y72132813D01*
X63422812Y72132810D01*
X63537906Y72046650D01*
X63537913Y72046646D01*
X63672620Y71996404D01*
X63672627Y71996402D01*
X63732155Y71990001D01*
X63732172Y71990000D01*
X64430000Y71990000D01*
X64430000Y72899253D01*
X64467708Y72877482D01*
X64607591Y72840000D01*
X64752409Y72840000D01*
X64892292Y72877482D01*
X64930000Y72899253D01*
X64930000Y71990000D01*
X65627828Y71990000D01*
X65627844Y71990001D01*
X65687372Y71996402D01*
X65687379Y71996404D01*
X65822086Y72046646D01*
X65822093Y72046650D01*
X65937187Y72132810D01*
X65937190Y72132813D01*
X66023350Y72247907D01*
X66023354Y72247914D01*
X66073596Y72382621D01*
X66073598Y72382628D01*
X66079999Y72442156D01*
X66080000Y72442173D01*
X66080000Y73140000D01*
X65170748Y73140000D01*
X65192518Y73177708D01*
X65230000Y73317591D01*
X65230000Y73462409D01*
X65192518Y73602292D01*
X65170748Y73640000D01*
X66080000Y73640000D01*
X66080000Y74337828D01*
X66079999Y74337845D01*
X66073598Y74397373D01*
X66073596Y74397380D01*
X66023354Y74532087D01*
X66023350Y74532094D01*
X65937190Y74647188D01*
X65937187Y74647191D01*
X65822093Y74733351D01*
X65822086Y74733355D01*
X65687379Y74783597D01*
X65687372Y74783599D01*
X65627844Y74790000D01*
X64930000Y74790000D01*
X64930000Y73880748D01*
X64892292Y73902518D01*
X64752409Y73940000D01*
X64607591Y73940000D01*
X64467708Y73902518D01*
X64430000Y73880748D01*
X64430000Y74790000D01*
X63732155Y74790000D01*
X63672627Y74783599D01*
X63672620Y74783597D01*
X63537913Y74733355D01*
X63537906Y74733351D01*
X63422812Y74647191D01*
X63422809Y74647188D01*
X63336649Y74532094D01*
X63336645Y74532087D01*
X63286403Y74397380D01*
X63286401Y74397373D01*
X63280000Y74337845D01*
X57074289Y74337845D01*
X57278797Y74542353D01*
X57278797Y74542355D01*
X57248360Y74566045D01*
X57248354Y74566049D01*
X57044302Y74676477D01*
X57044293Y74676480D01*
X56824860Y74751812D01*
X56596007Y74790000D01*
X56363993Y74790000D01*
X56135139Y74751812D01*
X55915706Y74676480D01*
X55915697Y74676477D01*
X55711650Y74566051D01*
X55681200Y74542353D01*
X56309766Y73913788D01*
X56267708Y73902518D01*
X56142292Y73830110D01*
X56039890Y73727708D01*
X55967482Y73602292D01*
X55956212Y73560234D01*
X55328811Y74187635D01*
X55244516Y74058610D01*
X55151317Y73846136D01*
X55094361Y73621219D01*
X55075202Y73390006D01*
X45246577Y73390006D01*
X45276264Y73453669D01*
X45276269Y73453683D01*
X45335139Y73673390D01*
X45335141Y73673401D01*
X45354966Y73899998D01*
X45354966Y73900003D01*
X45335141Y74126600D01*
X45335139Y74126611D01*
X45276269Y74346318D01*
X45276264Y74346332D01*
X45180136Y74552479D01*
X45180132Y74552487D01*
X45129025Y74625474D01*
X44450000Y73946449D01*
X44450000Y73952661D01*
X44422741Y74054394D01*
X44370080Y74145606D01*
X44295606Y74220080D01*
X44204394Y74272741D01*
X44102661Y74300000D01*
X44096448Y74300000D01*
X44775472Y74979026D01*
X44702478Y75030137D01*
X44496331Y75126265D01*
X44496317Y75126270D01*
X44276610Y75185140D01*
X44276599Y75185142D01*
X44050002Y75204966D01*
X44049998Y75204966D01*
X43823400Y75185142D01*
X43823389Y75185140D01*
X43603682Y75126270D01*
X43603673Y75126266D01*
X43397516Y75030134D01*
X43397512Y75030132D01*
X43324526Y74979027D01*
X43324526Y74979026D01*
X44003553Y74300000D01*
X43997339Y74300000D01*
X43895606Y74272741D01*
X43804394Y74220080D01*
X43729920Y74145606D01*
X43677259Y74054394D01*
X43650000Y73952661D01*
X43650000Y73946448D01*
X42970974Y74625474D01*
X42970973Y74625474D01*
X42919868Y74552488D01*
X42919866Y74552484D01*
X42823734Y74346327D01*
X42823730Y74346318D01*
X42764860Y74126611D01*
X42764858Y74126600D01*
X42745034Y73900003D01*
X26200500Y73900003D01*
X26200500Y74098423D01*
X26169709Y74292827D01*
X26108882Y74480030D01*
X26055841Y74584129D01*
X26019524Y74655405D01*
X25903828Y74814646D01*
X25764646Y74953828D01*
X17846689Y82871785D01*
X17813204Y82933108D01*
X17812753Y82983654D01*
X17835713Y83099080D01*
X17855436Y83400000D01*
X32294564Y83400000D01*
X32303343Y83266049D01*
X32314287Y83099082D01*
X32314288Y83099070D01*
X32373118Y82803317D01*
X32373122Y82803302D01*
X32470053Y82517753D01*
X32470062Y82517732D01*
X32603431Y82247287D01*
X32603435Y82247280D01*
X32770973Y81996541D01*
X32969810Y81769811D01*
X33196540Y81570974D01*
X33447279Y81403436D01*
X33447286Y81403432D01*
X33717731Y81270063D01*
X33717736Y81270061D01*
X33717748Y81270055D01*
X34003309Y81173120D01*
X34183653Y81137247D01*
X34299069Y81114289D01*
X34299070Y81114289D01*
X34299080Y81114287D01*
X34600000Y81094564D01*
X34900920Y81114287D01*
X35196691Y81173120D01*
X35482252Y81270055D01*
X35752718Y81403434D01*
X36003461Y81570975D01*
X36230189Y81769811D01*
X36429025Y81996539D01*
X36494407Y82094392D01*
X36548018Y82139196D01*
X36597509Y82149500D01*
X40780664Y82149500D01*
X40847703Y82129815D01*
X40868345Y82113181D01*
X42891014Y80090512D01*
X42915714Y80055238D01*
X42919429Y80047270D01*
X42919430Y80047269D01*
X43049954Y79860859D01*
X43210858Y79699955D01*
X43210861Y79699953D01*
X43397266Y79569432D01*
X43498922Y79522029D01*
X43534198Y79497328D01*
X46245354Y76786172D01*
X46404595Y76670476D01*
X46487454Y76628258D01*
X46579969Y76581118D01*
X46579971Y76581118D01*
X46579974Y76581116D01*
X46680318Y76548513D01*
X46767173Y76520291D01*
X46961578Y76489500D01*
X46961583Y76489500D01*
X47158416Y76489500D01*
X55816768Y76489500D01*
X55875786Y76474554D01*
X55911830Y76455049D01*
X55915497Y76453064D01*
X56025258Y76415383D01*
X56135015Y76377703D01*
X56135017Y76377703D01*
X56135019Y76377702D01*
X56363951Y76339500D01*
X56363952Y76339500D01*
X56596048Y76339500D01*
X56596049Y76339500D01*
X56824981Y76377702D01*
X57044503Y76453064D01*
X57066696Y76465075D01*
X57084214Y76474554D01*
X57143232Y76489500D01*
X63371769Y76489500D01*
X63438808Y76469815D01*
X63446080Y76464767D01*
X63537668Y76396205D01*
X63537671Y76396203D01*
X63672517Y76345909D01*
X63672516Y76345909D01*
X63679444Y76345165D01*
X63732127Y76339500D01*
X64967769Y76339501D01*
X65034808Y76319816D01*
X65055450Y76303182D01*
X66713181Y74645452D01*
X66746666Y74584129D01*
X66749500Y74557771D01*
X66749500Y65462230D01*
X66729815Y65395191D01*
X66713181Y65374549D01*
X64845451Y63506819D01*
X64784128Y63473334D01*
X64757770Y63470500D01*
X46426663Y63470500D01*
X46359624Y63490185D01*
X46325088Y63523377D01*
X46300045Y63559142D01*
X46139141Y63720046D01*
X45952734Y63850568D01*
X45952732Y63850569D01*
X45746497Y63946739D01*
X45746488Y63946742D01*
X45526697Y64005634D01*
X45526693Y64005635D01*
X45526692Y64005635D01*
X45526691Y64005636D01*
X45526686Y64005636D01*
X45300002Y64025468D01*
X45299998Y64025468D01*
X45073313Y64005636D01*
X45073302Y64005634D01*
X44853511Y63946742D01*
X44853502Y63946739D01*
X44647267Y63850569D01*
X44647265Y63850568D01*
X44460858Y63720046D01*
X44299954Y63559142D01*
X44169432Y63372735D01*
X44169431Y63372733D01*
X44073261Y63166498D01*
X44073258Y63166489D01*
X44014366Y62946698D01*
X44014364Y62946687D01*
X43994532Y62720002D01*
X43994532Y62719999D01*
X44014364Y62493314D01*
X44014366Y62493303D01*
X44073258Y62273512D01*
X44073261Y62273503D01*
X44169431Y62067268D01*
X44169432Y62067266D01*
X44299954Y61880859D01*
X44460858Y61719955D01*
X44460861Y61719953D01*
X44647266Y61589432D01*
X44853504Y61493261D01*
X45073308Y61434365D01*
X45235230Y61420199D01*
X45299998Y61414532D01*
X45300000Y61414532D01*
X45300002Y61414532D01*
X45356673Y61419491D01*
X45526692Y61434365D01*
X45746496Y61493261D01*
X45952734Y61589432D01*
X46139139Y61719953D01*
X46300047Y61880861D01*
X46325088Y61916623D01*
X46379665Y61960248D01*
X46426663Y61969500D01*
X65193920Y61969500D01*
X65291462Y61988904D01*
X65338913Y61998342D01*
X65475495Y62054916D01*
X65524729Y62087814D01*
X65598416Y62137048D01*
X68082951Y64621584D01*
X68165084Y64744505D01*
X68165775Y64746172D01*
X68181973Y64785278D01*
X68221658Y64881087D01*
X68246837Y65007665D01*
X68250500Y65026080D01*
X68250500Y74993921D01*
X68221659Y75138908D01*
X68221658Y75138909D01*
X68221658Y75138913D01*
X68202510Y75185140D01*
X68165087Y75275489D01*
X68165080Y75275502D01*
X68082952Y75398415D01*
X68082951Y75398416D01*
X67978416Y75502951D01*
X66116818Y77364550D01*
X66083333Y77425873D01*
X66080499Y77452231D01*
X66080499Y78687871D01*
X66080498Y78687877D01*
X66074091Y78747484D01*
X66023797Y78882329D01*
X66023793Y78882336D01*
X65937547Y78997545D01*
X65937544Y78997548D01*
X65822335Y79083794D01*
X65822328Y79083798D01*
X65687482Y79134092D01*
X65687483Y79134092D01*
X65627883Y79140499D01*
X65627881Y79140500D01*
X65627873Y79140500D01*
X65627864Y79140500D01*
X63732129Y79140500D01*
X63732123Y79140499D01*
X63672516Y79134092D01*
X63537671Y79083798D01*
X63537668Y79083796D01*
X63446080Y79015233D01*
X63380615Y78990816D01*
X63371769Y78990500D01*
X57143232Y78990500D01*
X57084214Y79005446D01*
X57044513Y79026931D01*
X57044507Y79026934D01*
X57044503Y79026936D01*
X57044500Y79026937D01*
X57044498Y79026938D01*
X56824984Y79102298D01*
X56634450Y79134092D01*
X56596049Y79140500D01*
X56363951Y79140500D01*
X56325550Y79134092D01*
X56135015Y79102298D01*
X55915501Y79026938D01*
X55915486Y79026931D01*
X55875786Y79005446D01*
X55816768Y78990500D01*
X47629336Y78990500D01*
X47562297Y79010185D01*
X47541655Y79026819D01*
X45106093Y81462381D01*
X45092204Y81478932D01*
X45050047Y81539139D01*
X45050044Y81539142D01*
X45050042Y81539145D01*
X44889141Y81700046D01*
X44702731Y81830570D01*
X44702730Y81830571D01*
X44694762Y81834286D01*
X44659488Y81858986D01*
X44428468Y82090006D01*
X55075202Y82090006D01*
X55075202Y82089995D01*
X55094361Y81858782D01*
X55151317Y81633865D01*
X55244515Y81421394D01*
X55328812Y81292367D01*
X55956212Y81919767D01*
X55967482Y81877708D01*
X56039890Y81752292D01*
X56142292Y81649890D01*
X56267708Y81577482D01*
X56309765Y81566213D01*
X55681201Y80937649D01*
X55711649Y80913950D01*
X55915697Y80803524D01*
X55915706Y80803521D01*
X56135139Y80728189D01*
X56363993Y80690000D01*
X56596007Y80690000D01*
X56824860Y80728189D01*
X57044293Y80803521D01*
X57044301Y80803524D01*
X57248355Y80913953D01*
X57278797Y80937649D01*
X57278798Y80937650D01*
X56650235Y81566213D01*
X56692292Y81577482D01*
X56817708Y81649890D01*
X56920110Y81752292D01*
X56992518Y81877708D01*
X57003787Y81919766D01*
X57631186Y81292367D01*
X57715482Y81421389D01*
X57808682Y81633865D01*
X57865638Y81858782D01*
X57884798Y82089995D01*
X57884798Y82090006D01*
X57865638Y82321219D01*
X57808682Y82546136D01*
X57715484Y82758607D01*
X57631186Y82887635D01*
X57003787Y82260236D01*
X56992518Y82302292D01*
X56920110Y82427708D01*
X56817708Y82530110D01*
X56692292Y82602518D01*
X56650233Y82613788D01*
X57074289Y83037845D01*
X63280000Y83037845D01*
X63280000Y82340000D01*
X64189252Y82340000D01*
X64167482Y82302292D01*
X64130000Y82162409D01*
X64130000Y82017591D01*
X64167482Y81877708D01*
X64189252Y81840000D01*
X63280000Y81840000D01*
X63280000Y81142156D01*
X63286401Y81082628D01*
X63286403Y81082621D01*
X63336645Y80947914D01*
X63336649Y80947907D01*
X63422809Y80832813D01*
X63422812Y80832810D01*
X63537906Y80746650D01*
X63537913Y80746646D01*
X63672620Y80696404D01*
X63672627Y80696402D01*
X63732155Y80690001D01*
X63732172Y80690000D01*
X64430000Y80690000D01*
X64430000Y81599253D01*
X64467708Y81577482D01*
X64607591Y81540000D01*
X64752409Y81540000D01*
X64892292Y81577482D01*
X64930000Y81599253D01*
X64930000Y80690000D01*
X65627828Y80690000D01*
X65627844Y80690001D01*
X65687372Y80696402D01*
X65687379Y80696404D01*
X65822086Y80746646D01*
X65822093Y80746650D01*
X65937187Y80832810D01*
X65937190Y80832813D01*
X66023350Y80947907D01*
X66023354Y80947914D01*
X66073596Y81082621D01*
X66073598Y81082628D01*
X66079999Y81142156D01*
X66080000Y81142173D01*
X66080000Y81840000D01*
X65170748Y81840000D01*
X65192518Y81877708D01*
X65230000Y82017591D01*
X65230000Y82162409D01*
X65192518Y82302292D01*
X65170748Y82340000D01*
X66080000Y82340000D01*
X66080000Y83037828D01*
X66079999Y83037845D01*
X66073598Y83097373D01*
X66073596Y83097380D01*
X66023354Y83232087D01*
X66023350Y83232094D01*
X65937190Y83347188D01*
X65937187Y83347191D01*
X65822093Y83433351D01*
X65822086Y83433355D01*
X65687379Y83483597D01*
X65687372Y83483599D01*
X65627844Y83490000D01*
X64930000Y83490000D01*
X64930000Y82580748D01*
X64892292Y82602518D01*
X64752409Y82640000D01*
X64607591Y82640000D01*
X64467708Y82602518D01*
X64430000Y82580748D01*
X64430000Y83490000D01*
X63732155Y83490000D01*
X63672627Y83483599D01*
X63672620Y83483597D01*
X63537913Y83433355D01*
X63537906Y83433351D01*
X63422812Y83347191D01*
X63422809Y83347188D01*
X63336649Y83232094D01*
X63336645Y83232087D01*
X63286403Y83097380D01*
X63286401Y83097373D01*
X63280000Y83037845D01*
X57074289Y83037845D01*
X57278797Y83242353D01*
X57278797Y83242355D01*
X57248360Y83266045D01*
X57248354Y83266049D01*
X57044302Y83376477D01*
X57044293Y83376480D01*
X56824860Y83451812D01*
X56596007Y83490000D01*
X56363993Y83490000D01*
X56135139Y83451812D01*
X55915706Y83376480D01*
X55915697Y83376477D01*
X55711650Y83266051D01*
X55681200Y83242353D01*
X56309766Y82613788D01*
X56267708Y82602518D01*
X56142292Y82530110D01*
X56039890Y82427708D01*
X55967482Y82302292D01*
X55956212Y82260234D01*
X55328811Y82887635D01*
X55244516Y82758610D01*
X55151317Y82546136D01*
X55094361Y82321219D01*
X55075202Y82090006D01*
X44428468Y82090006D01*
X43823444Y82695030D01*
X43789959Y82756353D01*
X43794943Y82826045D01*
X43836815Y82881978D01*
X43902279Y82906395D01*
X43921933Y82906239D01*
X44049999Y82895034D01*
X44050002Y82895034D01*
X44276599Y82914859D01*
X44276610Y82914861D01*
X44496317Y82973731D01*
X44496331Y82973736D01*
X44702478Y83069864D01*
X44775471Y83120976D01*
X44096447Y83800000D01*
X44102661Y83800000D01*
X44204394Y83827259D01*
X44295606Y83879920D01*
X44370080Y83954394D01*
X44422741Y84045606D01*
X44450000Y84147339D01*
X44450000Y84153553D01*
X45129024Y83474529D01*
X45180136Y83547522D01*
X45276264Y83753669D01*
X45276269Y83753683D01*
X45335139Y83973390D01*
X45335141Y83973401D01*
X45354966Y84199998D01*
X45354966Y84200003D01*
X45335141Y84426600D01*
X45335139Y84426611D01*
X45276269Y84646318D01*
X45276264Y84646332D01*
X45180136Y84852479D01*
X45180132Y84852487D01*
X45129025Y84925474D01*
X44450000Y84246449D01*
X44450000Y84252661D01*
X44422741Y84354394D01*
X44370080Y84445606D01*
X44295606Y84520080D01*
X44204394Y84572741D01*
X44102661Y84600000D01*
X44096448Y84600000D01*
X44775472Y85279026D01*
X44702478Y85330137D01*
X44496331Y85426265D01*
X44496317Y85426270D01*
X44276610Y85485140D01*
X44276599Y85485142D01*
X44050002Y85504966D01*
X44049998Y85504966D01*
X43823400Y85485142D01*
X43823389Y85485140D01*
X43603682Y85426270D01*
X43603673Y85426266D01*
X43397516Y85330134D01*
X43397512Y85330132D01*
X43324526Y85279027D01*
X43324526Y85279026D01*
X44003553Y84600000D01*
X43997339Y84600000D01*
X43895606Y84572741D01*
X43804394Y84520080D01*
X43729920Y84445606D01*
X43677259Y84354394D01*
X43650000Y84252661D01*
X43650000Y84246448D01*
X42970974Y84925474D01*
X42970973Y84925474D01*
X42919868Y84852488D01*
X42919866Y84852484D01*
X42823734Y84646327D01*
X42823730Y84646318D01*
X42764860Y84426611D01*
X42764858Y84426600D01*
X42745034Y84200003D01*
X42745034Y84199998D01*
X42756238Y84071933D01*
X42742471Y84003433D01*
X42693856Y83953250D01*
X42625827Y83937317D01*
X42559984Y83960693D01*
X42545029Y83973445D01*
X42164648Y84353826D01*
X42164646Y84353828D01*
X42005405Y84469524D01*
X41830030Y84558883D01*
X41642826Y84619710D01*
X41448422Y84650500D01*
X41448417Y84650500D01*
X36597509Y84650500D01*
X36530470Y84670185D01*
X36494408Y84705608D01*
X36429025Y84803461D01*
X36429023Y84803463D01*
X36429022Y84803465D01*
X36230189Y85030190D01*
X36003459Y85229027D01*
X35752720Y85396565D01*
X35752713Y85396569D01*
X35482268Y85529938D01*
X35482247Y85529947D01*
X35196698Y85626878D01*
X35196692Y85626880D01*
X35196691Y85626880D01*
X35196689Y85626881D01*
X35196683Y85626882D01*
X34900930Y85685712D01*
X34900921Y85685713D01*
X34900920Y85685713D01*
X34600000Y85705436D01*
X34299080Y85685713D01*
X34299079Y85685713D01*
X34299069Y85685712D01*
X34003316Y85626882D01*
X34003301Y85626878D01*
X33717752Y85529947D01*
X33717731Y85529938D01*
X33447286Y85396569D01*
X33447279Y85396565D01*
X33196540Y85229027D01*
X32969810Y85030190D01*
X32770973Y84803460D01*
X32603435Y84552721D01*
X32603431Y84552714D01*
X32470062Y84282269D01*
X32470053Y84282248D01*
X32373122Y83996699D01*
X32373118Y83996684D01*
X32314288Y83700931D01*
X32314287Y83700921D01*
X32314287Y83700920D01*
X32294564Y83400000D01*
X17855436Y83400000D01*
X17835713Y83700920D01*
X17825220Y83753669D01*
X17785293Y83954394D01*
X17776880Y83996691D01*
X17679945Y84282252D01*
X17608760Y84426600D01*
X17546568Y84552714D01*
X17546564Y84552721D01*
X17379026Y84803460D01*
X17180189Y85030190D01*
X16953459Y85229027D01*
X16702720Y85396565D01*
X16702713Y85396569D01*
X16432268Y85529938D01*
X16432247Y85529947D01*
X16146698Y85626878D01*
X16146692Y85626880D01*
X16146691Y85626880D01*
X16146689Y85626881D01*
X16146683Y85626882D01*
X15850930Y85685712D01*
X15850921Y85685713D01*
X15850920Y85685713D01*
X15550000Y85705436D01*
X15249080Y85685713D01*
X15249079Y85685713D01*
X15249069Y85685712D01*
X14953316Y85626882D01*
X14953301Y85626878D01*
X14667752Y85529947D01*
X14667731Y85529938D01*
X14397286Y85396569D01*
X14397279Y85396565D01*
X14146540Y85229027D01*
X13919810Y85030190D01*
X13720973Y84803460D01*
X13553435Y84552721D01*
X13553431Y84552714D01*
X13420062Y84282269D01*
X13420053Y84282248D01*
X13323122Y83996699D01*
X13323118Y83996684D01*
X13264288Y83700931D01*
X13264287Y83700921D01*
X13264287Y83700920D01*
X13244564Y83400000D01*
X13253343Y83266049D01*
X13264287Y83099082D01*
X13264288Y83099070D01*
X13323118Y82803317D01*
X13323122Y82803302D01*
X13420053Y82517753D01*
X13420062Y82517732D01*
X13553431Y82247287D01*
X13553435Y82247280D01*
X13720973Y81996541D01*
X13919810Y81769811D01*
X14146540Y81570974D01*
X14397279Y81403436D01*
X14397286Y81403432D01*
X14667731Y81270063D01*
X14667736Y81270061D01*
X14667748Y81270055D01*
X14953309Y81173120D01*
X15133653Y81137247D01*
X15249069Y81114289D01*
X15249070Y81114289D01*
X15249080Y81114287D01*
X15550000Y81094564D01*
X15850920Y81114287D01*
X15966344Y81137247D01*
X16035933Y81131020D01*
X16078215Y81103311D01*
X23663181Y73518345D01*
X23696666Y73457022D01*
X23699500Y73430664D01*
X23699500Y67894500D01*
X23679815Y67827461D01*
X23627011Y67781706D01*
X23575500Y67770500D01*
X23302130Y67770500D01*
X23302123Y67770499D01*
X23242516Y67764092D01*
X23107671Y67713798D01*
X23107664Y67713794D01*
X22992455Y67627548D01*
X22992452Y67627545D01*
X22906206Y67512336D01*
X22906202Y67512329D01*
X22855908Y67377483D01*
X22849501Y67317884D01*
X22849501Y67317877D01*
X22849500Y67317865D01*
X22849500Y64022130D01*
X22849501Y64022124D01*
X22855908Y63962517D01*
X22906202Y63827672D01*
X22906206Y63827665D01*
X22992452Y63712456D01*
X22992455Y63712453D01*
X23107664Y63626207D01*
X23107671Y63626203D01*
X23242517Y63575909D01*
X23242516Y63575909D01*
X23249444Y63575165D01*
X23302127Y63569500D01*
X26597872Y63569501D01*
X26657483Y63575909D01*
X26792331Y63626204D01*
X26907546Y63712454D01*
X26993796Y63827669D01*
X27044091Y63962517D01*
X27050500Y64022127D01*
X27050500Y64325500D01*
X27070185Y64392539D01*
X27122989Y64438294D01*
X27174500Y64449500D01*
X32318422Y64449500D01*
X32512826Y64480291D01*
X32700026Y64541116D01*
X32875405Y64630476D01*
X33034646Y64746172D01*
X33038389Y64749917D01*
X33099708Y64783404D01*
X33106691Y64784715D01*
X33107584Y64784857D01*
X33110245Y64785278D01*
X33327758Y64855952D01*
X33531538Y64959783D01*
X33716566Y65094214D01*
X33878286Y65255934D01*
X33939683Y65340441D01*
X33995012Y65383104D01*
X34064625Y65389083D01*
X34126420Y65356477D01*
X34140314Y65340444D01*
X34201714Y65255934D01*
X34363434Y65094214D01*
X34548462Y64959783D01*
X34680599Y64892456D01*
X34752244Y64855951D01*
X34969747Y64785280D01*
X34969750Y64785280D01*
X34969755Y64785278D01*
X35035123Y64774925D01*
X35098253Y64744998D01*
X35135185Y64685687D01*
X35134189Y64615824D01*
X35103403Y64564772D01*
X27917045Y57378414D01*
X27886071Y57332054D01*
X27886069Y57332051D01*
X27834919Y57255502D01*
X27834912Y57255489D01*
X27778343Y57118918D01*
X27778340Y57118908D01*
X27749500Y56973921D01*
X27749500Y28354231D01*
X27729815Y28287192D01*
X27713181Y28266550D01*
X21495431Y22048801D01*
X21434108Y22015316D01*
X21364416Y22020300D01*
X21308483Y22062172D01*
X21284222Y22125673D01*
X21273635Y22246692D01*
X21214739Y22466496D01*
X21118568Y22672734D01*
X20988047Y22859139D01*
X20988045Y22859142D01*
X20827141Y23020046D01*
X20640734Y23150568D01*
X20640728Y23150571D01*
X20582725Y23177618D01*
X20530285Y23223790D01*
X20511133Y23290983D01*
X20531348Y23357865D01*
X20582725Y23402382D01*
X20640734Y23429432D01*
X20827139Y23559953D01*
X20988047Y23720861D01*
X21118568Y23907266D01*
X21214739Y24113504D01*
X21273635Y24333308D01*
X21293468Y24560000D01*
X21273635Y24786692D01*
X21214739Y25006496D01*
X21118568Y25212734D01*
X20988047Y25399139D01*
X20988045Y25399142D01*
X20827141Y25560046D01*
X20640734Y25690568D01*
X20640728Y25690571D01*
X20582725Y25717618D01*
X20530285Y25763790D01*
X20511133Y25830983D01*
X20531348Y25897865D01*
X20582725Y25942382D01*
X20640734Y25969432D01*
X20827139Y26099953D01*
X20988047Y26260861D01*
X21118568Y26447266D01*
X21214739Y26653504D01*
X21273635Y26873308D01*
X21293468Y27100000D01*
X21273635Y27326692D01*
X21214739Y27546496D01*
X21118568Y27752734D01*
X20988047Y27939139D01*
X20988045Y27939142D01*
X20827141Y28100046D01*
X20640734Y28230568D01*
X20640728Y28230571D01*
X20582725Y28257618D01*
X20530285Y28303790D01*
X20511133Y28370983D01*
X20531348Y28437865D01*
X20582725Y28482382D01*
X20640734Y28509432D01*
X20827139Y28639953D01*
X20988047Y28800861D01*
X21118568Y28987266D01*
X21214739Y29193504D01*
X21273635Y29413308D01*
X21293468Y29640000D01*
X21273635Y29866692D01*
X21214739Y30086496D01*
X21118568Y30292734D01*
X20988047Y30479139D01*
X20988045Y30479142D01*
X20827141Y30640046D01*
X20640734Y30770568D01*
X20640732Y30770569D01*
X20629275Y30775912D01*
X20582132Y30797895D01*
X20529694Y30844066D01*
X20510542Y30911260D01*
X20530758Y30978141D01*
X20582134Y31022659D01*
X20640484Y31049868D01*
X20826820Y31180343D01*
X20987657Y31341180D01*
X21118134Y31527518D01*
X21214265Y31733674D01*
X21214269Y31733683D01*
X21266872Y31930000D01*
X20421012Y31930000D01*
X20453925Y31987007D01*
X20488000Y32114174D01*
X20488000Y32245826D01*
X20453925Y32372993D01*
X20421012Y32430000D01*
X21266872Y32430000D01*
X21266872Y32430001D01*
X21214269Y32626318D01*
X21214265Y32626327D01*
X21118134Y32832483D01*
X20987657Y33018821D01*
X20826820Y33179658D01*
X20640482Y33310135D01*
X20582133Y33337343D01*
X20529694Y33383516D01*
X20510542Y33450709D01*
X20530758Y33517590D01*
X20582129Y33562105D01*
X20640734Y33589432D01*
X20827139Y33719953D01*
X20988047Y33880861D01*
X21118568Y34067266D01*
X21214739Y34273504D01*
X21273635Y34493308D01*
X21293468Y34720000D01*
X21273635Y34946692D01*
X21214739Y35166496D01*
X21118568Y35372734D01*
X20988047Y35559139D01*
X20988045Y35559142D01*
X20827141Y35720046D01*
X20640734Y35850568D01*
X20640728Y35850571D01*
X20582725Y35877618D01*
X20530285Y35923790D01*
X20511133Y35990983D01*
X20531348Y36057865D01*
X20582725Y36102382D01*
X20583319Y36102659D01*
X20640734Y36129432D01*
X20827139Y36259953D01*
X20988047Y36420861D01*
X21118568Y36607266D01*
X21214739Y36813504D01*
X21273635Y37033308D01*
X21293468Y37260000D01*
X21273635Y37486692D01*
X21214739Y37706496D01*
X21118568Y37912734D01*
X20988047Y38099139D01*
X20988045Y38099142D01*
X20827143Y38260044D01*
X20802536Y38277274D01*
X20758912Y38331851D01*
X20751719Y38401350D01*
X20783241Y38463704D01*
X20843471Y38499118D01*
X20860404Y38502139D01*
X20895483Y38505909D01*
X21030331Y38556204D01*
X21145546Y38642454D01*
X21231796Y38757669D01*
X21282091Y38892517D01*
X21288500Y38952127D01*
X21288499Y40647872D01*
X21282091Y40707483D01*
X21252254Y40787479D01*
X21231797Y40842329D01*
X21231793Y40842336D01*
X21145547Y40957545D01*
X21145544Y40957548D01*
X21030335Y41043794D01*
X21030328Y41043798D01*
X20895482Y41094092D01*
X20895483Y41094092D01*
X20835883Y41100499D01*
X20835881Y41100500D01*
X20835873Y41100500D01*
X20835864Y41100500D01*
X19140129Y41100500D01*
X19140123Y41100499D01*
X19080516Y41094092D01*
X18945671Y41043798D01*
X18945664Y41043794D01*
X18830455Y40957548D01*
X18830452Y40957545D01*
X18744206Y40842336D01*
X18744202Y40842329D01*
X18693908Y40707483D01*
X18689486Y40666345D01*
X18687501Y40647877D01*
X18687500Y40647865D01*
X18687500Y38952130D01*
X18687501Y38952124D01*
X18693908Y38892517D01*
X18744202Y38757672D01*
X18744206Y38757665D01*
X18830452Y38642456D01*
X18830455Y38642453D01*
X18945664Y38556207D01*
X18945671Y38556203D01*
X18990618Y38539439D01*
X19080517Y38505909D01*
X19115596Y38502138D01*
X19180144Y38475401D01*
X19219993Y38418009D01*
X19222488Y38348184D01*
X19186836Y38288095D01*
X19173464Y38277275D01*
X19148858Y38260046D01*
X18987954Y38099142D01*
X18857432Y37912735D01*
X18857431Y37912733D01*
X18761261Y37706498D01*
X18761258Y37706489D01*
X18702366Y37486698D01*
X18702364Y37486687D01*
X18682532Y37260002D01*
X18682532Y37259999D01*
X18702364Y37033314D01*
X18702366Y37033303D01*
X18761258Y36813512D01*
X18761261Y36813503D01*
X18857431Y36607268D01*
X18857432Y36607266D01*
X18987954Y36420859D01*
X19148858Y36259955D01*
X19148861Y36259953D01*
X19335266Y36129432D01*
X19392681Y36102659D01*
X19393275Y36102382D01*
X19445714Y36056209D01*
X19464866Y35989016D01*
X19444650Y35922135D01*
X19393275Y35877618D01*
X19335267Y35850569D01*
X19335265Y35850568D01*
X19148858Y35720046D01*
X18987954Y35559142D01*
X18857432Y35372735D01*
X18857431Y35372733D01*
X18761261Y35166498D01*
X18761258Y35166489D01*
X18702366Y34946698D01*
X18702364Y34946687D01*
X18682532Y34720002D01*
X18682532Y34719999D01*
X18702364Y34493314D01*
X18702366Y34493303D01*
X18761258Y34273512D01*
X18761261Y34273503D01*
X18857431Y34067268D01*
X18857432Y34067266D01*
X18987954Y33880859D01*
X19148858Y33719955D01*
X19148861Y33719953D01*
X19335266Y33589432D01*
X19393865Y33562107D01*
X19446305Y33515935D01*
X19465457Y33448742D01*
X19445242Y33381861D01*
X19393867Y33337343D01*
X19335515Y33310133D01*
X19149179Y33179658D01*
X18988342Y33018821D01*
X18857865Y32832483D01*
X18761734Y32626327D01*
X18761730Y32626318D01*
X18709127Y32430001D01*
X18709128Y32430000D01*
X19554988Y32430000D01*
X19522075Y32372993D01*
X19488000Y32245826D01*
X19488000Y32114174D01*
X19522075Y31987007D01*
X19554988Y31930000D01*
X18709128Y31930000D01*
X18761730Y31733683D01*
X18761734Y31733674D01*
X18857865Y31527518D01*
X18988342Y31341180D01*
X19149179Y31180343D01*
X19335518Y31049866D01*
X19335520Y31049865D01*
X19393865Y31022658D01*
X19446305Y30976486D01*
X19465457Y30909293D01*
X19445242Y30842411D01*
X19393867Y30797895D01*
X19335268Y30770569D01*
X19335264Y30770567D01*
X19148858Y30640046D01*
X18987954Y30479142D01*
X18857432Y30292735D01*
X18857431Y30292733D01*
X18761261Y30086498D01*
X18761258Y30086489D01*
X18702366Y29866698D01*
X18702364Y29866687D01*
X18682532Y29640002D01*
X18682532Y29639999D01*
X18702364Y29413314D01*
X18702366Y29413303D01*
X18761258Y29193512D01*
X18761261Y29193503D01*
X18857431Y28987268D01*
X18857432Y28987266D01*
X18987954Y28800859D01*
X19148858Y28639955D01*
X19148861Y28639953D01*
X19335266Y28509432D01*
X19393275Y28482382D01*
X19445714Y28436209D01*
X19464866Y28369016D01*
X19444650Y28302135D01*
X19393275Y28257618D01*
X19335267Y28230569D01*
X19335265Y28230568D01*
X19148858Y28100046D01*
X18987954Y27939142D01*
X18857432Y27752735D01*
X18857431Y27752733D01*
X18761261Y27546498D01*
X18761258Y27546489D01*
X18702366Y27326698D01*
X18702364Y27326687D01*
X18682532Y27100002D01*
X18682532Y27099999D01*
X18702364Y26873314D01*
X18702366Y26873303D01*
X18761258Y26653512D01*
X18761261Y26653503D01*
X18857431Y26447268D01*
X18857432Y26447266D01*
X18987954Y26260859D01*
X19148858Y26099955D01*
X19148861Y26099953D01*
X19335266Y25969432D01*
X19393275Y25942382D01*
X19445714Y25896209D01*
X19464866Y25829016D01*
X19444650Y25762135D01*
X19393275Y25717618D01*
X19335267Y25690569D01*
X19335265Y25690568D01*
X19148858Y25560046D01*
X18987954Y25399142D01*
X18857432Y25212735D01*
X18857431Y25212733D01*
X18761261Y25006498D01*
X18761258Y25006489D01*
X18702366Y24786698D01*
X18702364Y24786687D01*
X18682532Y24560002D01*
X18682532Y24559999D01*
X18702364Y24333314D01*
X18702366Y24333303D01*
X18761258Y24113512D01*
X18761261Y24113503D01*
X18857431Y23907268D01*
X18857432Y23907266D01*
X18987954Y23720859D01*
X19148858Y23559955D01*
X19148861Y23559953D01*
X19335266Y23429432D01*
X19358888Y23418417D01*
X19393275Y23402382D01*
X19445714Y23356209D01*
X19464866Y23289016D01*
X19444650Y23222135D01*
X19393275Y23177618D01*
X19335267Y23150569D01*
X19335265Y23150568D01*
X19148858Y23020046D01*
X18987954Y22859142D01*
X18857432Y22672735D01*
X18857431Y22672733D01*
X18761261Y22466498D01*
X18761258Y22466489D01*
X18702366Y22246698D01*
X18702364Y22246687D01*
X18682532Y22020002D01*
X18682532Y22019999D01*
X18702364Y21793314D01*
X18702366Y21793303D01*
X18761258Y21573512D01*
X18761261Y21573503D01*
X18857431Y21367268D01*
X18857432Y21367266D01*
X18987954Y21180859D01*
X19148858Y21019955D01*
X19148861Y21019953D01*
X19335266Y20889432D01*
X19393275Y20862382D01*
X19445714Y20816209D01*
X19464866Y20749016D01*
X19444650Y20682135D01*
X19393275Y20637618D01*
X19335267Y20610569D01*
X19335265Y20610568D01*
X19148858Y20480046D01*
X18987954Y20319142D01*
X18857432Y20132735D01*
X18857431Y20132733D01*
X18761261Y19926498D01*
X18761258Y19926489D01*
X18702366Y19706698D01*
X18702364Y19706687D01*
X18682532Y19480002D01*
X18682532Y19479999D01*
X18702364Y19253314D01*
X18702366Y19253303D01*
X18761258Y19033512D01*
X18761261Y19033503D01*
X18857431Y18827268D01*
X18857432Y18827266D01*
X18987954Y18640859D01*
X19148858Y18479955D01*
X19148861Y18479953D01*
X19335266Y18349432D01*
X19393275Y18322382D01*
X19445714Y18276209D01*
X19464866Y18209016D01*
X19444650Y18142135D01*
X19393275Y18097618D01*
X19335267Y18070569D01*
X19335265Y18070568D01*
X19148858Y17940046D01*
X18987954Y17779142D01*
X18857432Y17592735D01*
X18857431Y17592733D01*
X18761261Y17386498D01*
X18761258Y17386489D01*
X18702366Y17166698D01*
X18702364Y17166687D01*
X18682532Y16940002D01*
X18682532Y16939999D01*
X18702364Y16713314D01*
X18702366Y16713303D01*
X18761258Y16493512D01*
X18761261Y16493503D01*
X18857431Y16287268D01*
X18857432Y16287266D01*
X18987954Y16100859D01*
X19148858Y15939955D01*
X19177370Y15919991D01*
X19335266Y15809432D01*
X19393275Y15782382D01*
X19445714Y15736209D01*
X19464866Y15669016D01*
X19444650Y15602135D01*
X19393275Y15557619D01*
X19376272Y15549690D01*
X19335267Y15530569D01*
X19335265Y15530568D01*
X19148858Y15400046D01*
X18987954Y15239142D01*
X18857432Y15052735D01*
X18857431Y15052733D01*
X18761261Y14846498D01*
X18761258Y14846489D01*
X18702366Y14626698D01*
X18702364Y14626687D01*
X18682532Y14400002D01*
X18682532Y14399999D01*
X18702364Y14173314D01*
X18702366Y14173303D01*
X18761258Y13953512D01*
X18761261Y13953503D01*
X18857431Y13747268D01*
X18857432Y13747266D01*
X18987954Y13560859D01*
X19148858Y13399955D01*
X19148861Y13399953D01*
X19335266Y13269432D01*
X19393275Y13242382D01*
X19445714Y13196209D01*
X19464866Y13129016D01*
X19444650Y13062135D01*
X19393275Y13017618D01*
X19335267Y12990569D01*
X19335265Y12990568D01*
X19148858Y12860046D01*
X18987954Y12699142D01*
X18857432Y12512735D01*
X18857431Y12512733D01*
X18761261Y12306498D01*
X18761258Y12306489D01*
X18702366Y12086698D01*
X18702364Y12086687D01*
X18682532Y11860002D01*
X18682532Y11859999D01*
X18702364Y11633314D01*
X18702366Y11633303D01*
X18761258Y11413512D01*
X18761261Y11413503D01*
X18857431Y11207268D01*
X18857432Y11207266D01*
X18987954Y11020859D01*
X19148858Y10859955D01*
X19148861Y10859953D01*
X19335266Y10729432D01*
X19393275Y10702382D01*
X19445714Y10656209D01*
X19464866Y10589016D01*
X19444650Y10522135D01*
X19393275Y10477618D01*
X19335267Y10450569D01*
X19335265Y10450568D01*
X19148858Y10320046D01*
X18987954Y10159142D01*
X18857432Y9972735D01*
X18857431Y9972733D01*
X18761261Y9766498D01*
X18761258Y9766489D01*
X18702366Y9546698D01*
X18702364Y9546687D01*
X18682532Y9320002D01*
X18682532Y9319999D01*
X18702364Y9093314D01*
X18702366Y9093303D01*
X18761258Y8873512D01*
X18761261Y8873503D01*
X18857431Y8667268D01*
X18857432Y8667266D01*
X18987954Y8480859D01*
X19148858Y8319955D01*
X19148861Y8319953D01*
X19335266Y8189432D01*
X19393275Y8162382D01*
X19445714Y8116209D01*
X19464866Y8049016D01*
X19444650Y7982135D01*
X19393275Y7937618D01*
X19335267Y7910569D01*
X19335265Y7910568D01*
X19148858Y7780046D01*
X18987954Y7619142D01*
X18857432Y7432735D01*
X18857431Y7432733D01*
X18761261Y7226498D01*
X18761258Y7226489D01*
X18702366Y7006698D01*
X18702364Y7006687D01*
X18682532Y6780002D01*
X18682532Y6779999D01*
X18702364Y6553314D01*
X18702366Y6553303D01*
X18761258Y6333512D01*
X18761261Y6333503D01*
X18857431Y6127268D01*
X18857432Y6127266D01*
X18987954Y5940859D01*
X19148858Y5779955D01*
X19154852Y5775758D01*
X19335266Y5649432D01*
X19393275Y5622382D01*
X19445714Y5576209D01*
X19464866Y5509016D01*
X19444650Y5442135D01*
X19393275Y5397618D01*
X19335267Y5370569D01*
X19335265Y5370568D01*
X19148858Y5240046D01*
X18987954Y5079142D01*
X18857432Y4892735D01*
X18857431Y4892733D01*
X18761261Y4686498D01*
X18761258Y4686489D01*
X18702366Y4466698D01*
X18702364Y4466687D01*
X18682532Y4240002D01*
X18682532Y4239999D01*
X18702364Y4013314D01*
X18702366Y4013303D01*
X18761258Y3793512D01*
X18761261Y3793503D01*
X18857431Y3587268D01*
X18857432Y3587266D01*
X18987954Y3400859D01*
X19148858Y3239955D01*
X19148861Y3239953D01*
X19335266Y3109432D01*
X19541502Y3013262D01*
X19546411Y3010973D01*
X19545326Y3008647D01*
X19592932Y2973593D01*
X19617866Y2908324D01*
X19603555Y2839936D01*
X19554542Y2790141D01*
X19494256Y2774500D01*
X16825336Y2774500D01*
X16758297Y2794185D01*
X16737655Y2810819D01*
X13936819Y5611655D01*
X13903334Y5672978D01*
X13900500Y5699336D01*
X13900500Y16723415D01*
X13906569Y16761734D01*
X13919709Y16802174D01*
X13950500Y16996579D01*
X13950500Y20078980D01*
X13952027Y20098378D01*
X13975500Y20246578D01*
X13975500Y20443422D01*
X13952027Y20591622D01*
X13950500Y20611020D01*
X13950500Y23078980D01*
X13952027Y23098378D01*
X13975500Y23246578D01*
X13975500Y23443422D01*
X13957042Y23559955D01*
X13944709Y23637826D01*
X13883883Y23825026D01*
X13814014Y23962154D01*
X13800499Y24018448D01*
X13800499Y24045002D01*
X13800498Y24045019D01*
X13789999Y24147797D01*
X13789998Y24147800D01*
X13735672Y24311744D01*
X13734814Y24314334D01*
X13642712Y24463656D01*
X13518656Y24587712D01*
X13369334Y24679814D01*
X13202797Y24734999D01*
X13202795Y24735000D01*
X13100010Y24745500D01*
X12349998Y24745500D01*
X12349980Y24745499D01*
X12247203Y24735000D01*
X12247200Y24734999D01*
X12080668Y24679815D01*
X12080663Y24679813D01*
X11931342Y24587711D01*
X11807289Y24463658D01*
X11715187Y24314337D01*
X11715185Y24314332D01*
X11689015Y24235355D01*
X11660001Y24147797D01*
X11660001Y24147796D01*
X11660000Y24147796D01*
X11649500Y24045017D01*
X11649500Y24041421D01*
X11632180Y23980004D01*
X11632688Y23979745D01*
X11631389Y23977197D01*
X11631232Y23976638D01*
X11630477Y23975407D01*
X11541117Y23800031D01*
X11530317Y23766791D01*
X11524699Y23749500D01*
X11518303Y23729815D01*
X11480290Y23612827D01*
X11449500Y23418423D01*
X11449500Y17416586D01*
X11443431Y17378267D01*
X11430290Y17337827D01*
X11399500Y17143423D01*
X11399500Y13019500D01*
X11379815Y12952461D01*
X11327011Y12906706D01*
X11275500Y12895500D01*
X11224500Y12895500D01*
X11157461Y12915185D01*
X11111706Y12967989D01*
X11100500Y13019500D01*
X11100499Y14245002D01*
X11100498Y14245019D01*
X11089999Y14347797D01*
X11089998Y14347800D01*
X11072701Y14399999D01*
X11034814Y14514334D01*
X10942712Y14663656D01*
X10886819Y14719549D01*
X10853334Y14780872D01*
X10850500Y14807230D01*
X10850500Y15519337D01*
X10868962Y15584434D01*
X10909809Y15650658D01*
X10909808Y15650658D01*
X10909814Y15650666D01*
X10964999Y15817203D01*
X10975500Y15919991D01*
X10975499Y18170008D01*
X10964999Y18272797D01*
X10909814Y18439334D01*
X10817712Y18588656D01*
X10693656Y18712712D01*
X10564945Y18792101D01*
X10544336Y18804813D01*
X10544335Y18804814D01*
X10544334Y18804814D01*
X10544328Y18804816D01*
X10498221Y18820095D01*
X10440777Y18859868D01*
X10413955Y18924384D01*
X10426271Y18993160D01*
X10472131Y19043339D01*
X10568343Y19102683D01*
X10692315Y19226655D01*
X10784356Y19375876D01*
X10784358Y19375881D01*
X10839505Y19542303D01*
X10839506Y19542310D01*
X10849999Y19645014D01*
X10850000Y19645027D01*
X10850000Y20095000D01*
X9649000Y20095000D01*
X9581961Y20114685D01*
X9536206Y20167489D01*
X9525000Y20219000D01*
X9525000Y20471000D01*
X9544685Y20538039D01*
X9597489Y20583794D01*
X9649000Y20595000D01*
X10849999Y20595000D01*
X10849999Y21044972D01*
X10849998Y21044987D01*
X10839505Y21147698D01*
X10784358Y21314120D01*
X10784356Y21314125D01*
X10692315Y21463346D01*
X10568345Y21587316D01*
X10419124Y21679357D01*
X10419119Y21679359D01*
X10274460Y21727294D01*
X10217015Y21767067D01*
X10190192Y21831583D01*
X10202507Y21900358D01*
X10250050Y21951558D01*
X10274460Y21962706D01*
X10419119Y22010642D01*
X10419124Y22010644D01*
X10568345Y22102685D01*
X10692315Y22226655D01*
X10784356Y22375876D01*
X10784358Y22375881D01*
X10839505Y22542303D01*
X10839506Y22542310D01*
X10849999Y22645014D01*
X10850000Y22645027D01*
X10850000Y23095000D01*
X8700001Y23095000D01*
X8700001Y22645014D01*
X8710494Y22542303D01*
X8765641Y22375881D01*
X8765643Y22375876D01*
X8857684Y22226655D01*
X8981654Y22102685D01*
X9130875Y22010644D01*
X9130880Y22010642D01*
X9275539Y21962707D01*
X9332984Y21922935D01*
X9359807Y21858419D01*
X9347492Y21789643D01*
X9299949Y21738443D01*
X9275540Y21727295D01*
X9130878Y21679358D01*
X9130875Y21679357D01*
X8981654Y21587316D01*
X8857684Y21463346D01*
X8765643Y21314125D01*
X8765641Y21314120D01*
X8717706Y21169461D01*
X8677933Y21112016D01*
X8613417Y21085193D01*
X8544641Y21097508D01*
X8493442Y21145051D01*
X8482294Y21169461D01*
X8434358Y21314120D01*
X8434356Y21314125D01*
X8342315Y21463346D01*
X8218345Y21587316D01*
X8069124Y21679357D01*
X8069119Y21679359D01*
X7902697Y21734506D01*
X7902690Y21734507D01*
X7799986Y21745000D01*
X7675000Y21745000D01*
X7675000Y20219000D01*
X7655315Y20151961D01*
X7602511Y20106206D01*
X7551000Y20095000D01*
X6350001Y20095000D01*
X6350001Y19645014D01*
X6360494Y19542303D01*
X6415641Y19375881D01*
X6415643Y19375876D01*
X6507684Y19226655D01*
X6631656Y19102683D01*
X6759618Y19023756D01*
X6806343Y18971808D01*
X6817566Y18902846D01*
X6789723Y18838763D01*
X6731654Y18799907D01*
X6704253Y18794599D01*
X6672509Y18792101D01*
X6672504Y18792100D01*
X6514806Y18746284D01*
X6514803Y18746283D01*
X6373447Y18662686D01*
X6373438Y18662679D01*
X6257321Y18546562D01*
X6257312Y18546551D01*
X6257017Y18546050D01*
X6256683Y18545739D01*
X6252537Y18540393D01*
X6251674Y18541063D01*
X6205943Y18498371D01*
X6137200Y18485873D01*
X6072614Y18512524D01*
X6048063Y18540860D01*
X6047861Y18540702D01*
X6044967Y18544432D01*
X6043559Y18546058D01*
X6043085Y18546860D01*
X6043076Y18546871D01*
X5926870Y18663077D01*
X5926862Y18663083D01*
X5786179Y18746282D01*
X5785398Y18746744D01*
X5785397Y18746745D01*
X5785396Y18746745D01*
X5785393Y18746747D01*
X5661317Y18782794D01*
X5608231Y18814189D01*
X5511819Y18910601D01*
X5478334Y18971924D01*
X5475500Y18998282D01*
X5475500Y19328202D01*
X5484368Y19368205D01*
X5482542Y19368810D01*
X5484814Y19375666D01*
X5539999Y19542203D01*
X5550500Y19644991D01*
X5550500Y19671557D01*
X5564013Y19727848D01*
X5633884Y19864975D01*
X5694709Y20052174D01*
X5707468Y20132733D01*
X5725500Y20246578D01*
X5725500Y21044987D01*
X6350000Y21044987D01*
X6350000Y20595000D01*
X7175000Y20595000D01*
X7175000Y21745000D01*
X7050027Y21745000D01*
X7050012Y21744999D01*
X6947302Y21734506D01*
X6780880Y21679359D01*
X6780875Y21679357D01*
X6631654Y21587316D01*
X6507684Y21463346D01*
X6415643Y21314125D01*
X6415641Y21314120D01*
X6360494Y21147698D01*
X6360493Y21147691D01*
X6350000Y21044987D01*
X5725500Y21044987D01*
X5725500Y24044987D01*
X8700000Y24044987D01*
X8700000Y23595000D01*
X9525000Y23595000D01*
X10025000Y23595000D01*
X10849999Y23595000D01*
X10849999Y24044972D01*
X10849998Y24044987D01*
X10839505Y24147698D01*
X10784358Y24314120D01*
X10784356Y24314125D01*
X10692315Y24463346D01*
X10568345Y24587316D01*
X10419124Y24679357D01*
X10419119Y24679359D01*
X10252697Y24734506D01*
X10252690Y24734507D01*
X10149986Y24745000D01*
X10025000Y24745000D01*
X10025000Y23595000D01*
X9525000Y23595000D01*
X9525000Y24745000D01*
X9400027Y24745000D01*
X9400012Y24744999D01*
X9297302Y24734506D01*
X9130880Y24679359D01*
X9130875Y24679357D01*
X8981654Y24587316D01*
X8857684Y24463346D01*
X8765643Y24314125D01*
X8765641Y24314120D01*
X8710494Y24147698D01*
X8710493Y24147691D01*
X8700000Y24044987D01*
X5725500Y24044987D01*
X5725500Y32199423D01*
X5694711Y32393817D01*
X5694707Y32393834D01*
X5693059Y32398907D01*
X5693059Y32398906D01*
X5660049Y32500500D01*
X5633884Y32581026D01*
X5633882Y32581029D01*
X5633882Y32581031D01*
X5580916Y32684982D01*
X5544524Y32756405D01*
X5428828Y32915646D01*
X2810819Y35533655D01*
X2777334Y35594978D01*
X2774500Y35621336D01*
X2774500Y37290736D01*
X2794185Y37357775D01*
X2846989Y37403530D01*
X2916147Y37413474D01*
X2950905Y37403118D01*
X3136507Y37316571D01*
X3136516Y37316567D01*
X3350000Y37259366D01*
X3350000Y38156988D01*
X3407007Y38124075D01*
X3534174Y38090000D01*
X3665826Y38090000D01*
X3792993Y38124075D01*
X3850000Y38156988D01*
X3850000Y37259367D01*
X4063483Y37316567D01*
X4063492Y37316571D01*
X4277578Y37416400D01*
X4471082Y37551895D01*
X4638105Y37718918D01*
X4773600Y37912422D01*
X4873429Y38126508D01*
X4873432Y38126514D01*
X4930636Y38340000D01*
X4033012Y38340000D01*
X4065925Y38397007D01*
X4100000Y38524174D01*
X4100000Y38655826D01*
X4065925Y38782993D01*
X4033012Y38840000D01*
X4930636Y38840000D01*
X4930635Y38840001D01*
X4873432Y39053487D01*
X4873429Y39053493D01*
X4773600Y39267578D01*
X4773599Y39267580D01*
X4638113Y39461074D01*
X4638108Y39461080D01*
X4471078Y39628110D01*
X4285405Y39758121D01*
X4241780Y39812698D01*
X4234588Y39882196D01*
X4266110Y39944551D01*
X4285406Y39961270D01*
X4378831Y40026687D01*
X4471401Y40091505D01*
X4638495Y40258599D01*
X4774035Y40452170D01*
X4873903Y40666337D01*
X4935063Y40894592D01*
X4955659Y41130000D01*
X4935063Y41365408D01*
X4873903Y41593663D01*
X4774035Y41807829D01*
X4765089Y41820606D01*
X4638494Y42001403D01*
X4471402Y42168494D01*
X4471396Y42168499D01*
X4285842Y42298425D01*
X4242217Y42353002D01*
X4235023Y42422500D01*
X4266546Y42484855D01*
X4285842Y42501575D01*
X4435083Y42606075D01*
X4471401Y42631505D01*
X4638495Y42798599D01*
X4774035Y42992170D01*
X4873903Y43206337D01*
X4935063Y43434592D01*
X4955659Y43670000D01*
X4935063Y43905408D01*
X4873903Y44133663D01*
X4774035Y44347829D01*
X4765089Y44360606D01*
X4638494Y44541403D01*
X4471402Y44708494D01*
X4471396Y44708499D01*
X4285842Y44838425D01*
X4242217Y44893002D01*
X4235023Y44962500D01*
X4266546Y45024855D01*
X4285842Y45041575D01*
X4421530Y45136585D01*
X4471401Y45171505D01*
X4638495Y45338599D01*
X4774035Y45532170D01*
X4873903Y45746337D01*
X4935063Y45974592D01*
X4955659Y46210000D01*
X4935063Y46445408D01*
X4873903Y46673663D01*
X4774035Y46887829D01*
X4672034Y47033503D01*
X4638494Y47081403D01*
X4471402Y47248494D01*
X4471396Y47248499D01*
X4285842Y47378425D01*
X4242217Y47433002D01*
X4235023Y47502500D01*
X4266546Y47564855D01*
X4285842Y47581575D01*
X4464527Y47706692D01*
X4471401Y47711505D01*
X4638495Y47878599D01*
X4774035Y48072170D01*
X4873903Y48286337D01*
X4935063Y48514592D01*
X4955659Y48750000D01*
X4935063Y48985408D01*
X4873903Y49213663D01*
X4774035Y49427829D01*
X4660483Y49590000D01*
X4638494Y49621403D01*
X4471402Y49788494D01*
X4471401Y49788495D01*
X4285405Y49918731D01*
X4241781Y49973308D01*
X4234588Y50042807D01*
X4266110Y50105161D01*
X4285405Y50121881D01*
X4471082Y50251895D01*
X4638105Y50418918D01*
X4773600Y50612422D01*
X4805112Y50680001D01*
X22862192Y50680001D01*
X22862193Y50680000D01*
X24187639Y50680000D01*
X24180743Y50663351D01*
X24150000Y50508793D01*
X24150000Y50351207D01*
X24180743Y50196649D01*
X24187639Y50180000D01*
X22862193Y50180000D01*
X22864697Y50143381D01*
X22923146Y49862112D01*
X22923150Y49862098D01*
X23019355Y49591405D01*
X23151527Y49336324D01*
X23317204Y49101615D01*
X23317204Y49101614D01*
X23513288Y48891659D01*
X23736135Y48710359D01*
X23736146Y48710352D01*
X23981607Y48561083D01*
X24245108Y48446629D01*
X24521737Y48369121D01*
X24521746Y48369119D01*
X24699999Y48344620D01*
X24700000Y48344620D01*
X24700000Y49667640D01*
X24716649Y49660743D01*
X24871207Y49630000D01*
X25028793Y49630000D01*
X25183351Y49660743D01*
X25200000Y49667640D01*
X25200000Y48344620D01*
X25378253Y48369119D01*
X25378262Y48369121D01*
X25654891Y48446629D01*
X25918392Y48561083D01*
X26163853Y48710352D01*
X26163864Y48710359D01*
X26386711Y48891659D01*
X26582795Y49101614D01*
X26582795Y49101615D01*
X26748472Y49336324D01*
X26880644Y49591405D01*
X26976849Y49862098D01*
X26976853Y49862112D01*
X27035302Y50143381D01*
X27037807Y50180000D01*
X25712361Y50180000D01*
X25719257Y50196649D01*
X25750000Y50351207D01*
X25750000Y50508793D01*
X25719257Y50663351D01*
X25712361Y50680000D01*
X27037807Y50680000D01*
X27037807Y50680001D01*
X27035302Y50716620D01*
X26976853Y50997889D01*
X26976849Y50997903D01*
X26880644Y51268596D01*
X26748472Y51523677D01*
X26582795Y51758386D01*
X26582795Y51758387D01*
X26386711Y51968342D01*
X26163864Y52149642D01*
X26163853Y52149649D01*
X25918392Y52298918D01*
X25654891Y52413372D01*
X25378262Y52490880D01*
X25378255Y52490881D01*
X25200000Y52515382D01*
X25200000Y51192361D01*
X25183351Y51199257D01*
X25028793Y51230000D01*
X24871207Y51230000D01*
X24716649Y51199257D01*
X24700000Y51192361D01*
X24700000Y52515382D01*
X24521744Y52490881D01*
X24521737Y52490880D01*
X24245108Y52413372D01*
X23981607Y52298918D01*
X23736146Y52149649D01*
X23736135Y52149642D01*
X23513288Y51968342D01*
X23317204Y51758387D01*
X23317204Y51758386D01*
X23151527Y51523677D01*
X23019355Y51268596D01*
X22923150Y50997903D01*
X22923146Y50997889D01*
X22864697Y50716620D01*
X22862192Y50680001D01*
X4805112Y50680001D01*
X4873429Y50826508D01*
X4873432Y50826514D01*
X4930636Y51040000D01*
X4033012Y51040000D01*
X4065925Y51097007D01*
X4100000Y51224174D01*
X4100000Y51355826D01*
X4065925Y51482993D01*
X4033012Y51540000D01*
X4930636Y51540000D01*
X4930635Y51540001D01*
X4873432Y51753487D01*
X4873429Y51753493D01*
X4773600Y51967578D01*
X4773599Y51967580D01*
X4638113Y52161074D01*
X4638108Y52161080D01*
X4471078Y52328110D01*
X4285405Y52458121D01*
X4241780Y52512698D01*
X4234588Y52582196D01*
X4266110Y52644551D01*
X4285406Y52661270D01*
X4471401Y52791505D01*
X4638495Y52958599D01*
X4774035Y53152170D01*
X4873903Y53366337D01*
X4935063Y53594592D01*
X4955659Y53830000D01*
X4935063Y54065408D01*
X4873903Y54293663D01*
X4774035Y54507829D01*
X4638495Y54701401D01*
X4638494Y54701403D01*
X4471402Y54868494D01*
X4471396Y54868499D01*
X4285842Y54998425D01*
X4242217Y55053002D01*
X4235023Y55122500D01*
X4266546Y55184855D01*
X4285842Y55201575D01*
X4308026Y55217109D01*
X4471401Y55331505D01*
X4638495Y55498599D01*
X4774035Y55692170D01*
X4873903Y55906337D01*
X4935063Y56134592D01*
X4955659Y56370000D01*
X4935063Y56605408D01*
X4873903Y56833663D01*
X4774035Y57047829D01*
X4724266Y57118908D01*
X4638494Y57241403D01*
X4471402Y57408494D01*
X4471396Y57408499D01*
X4285842Y57538425D01*
X4242217Y57593002D01*
X4235023Y57662500D01*
X4266546Y57724855D01*
X4285842Y57741575D01*
X4308026Y57757109D01*
X4471401Y57871505D01*
X4638495Y58038599D01*
X4653097Y58059455D01*
X4685781Y58091435D01*
X4747782Y58132861D01*
X4887139Y58272218D01*
X4996632Y58436086D01*
X5072051Y58618165D01*
X5110500Y58811459D01*
X5110500Y59008541D01*
X5110500Y59008544D01*
X5072052Y59201830D01*
X5072051Y59201831D01*
X5072051Y59201835D01*
X5000881Y59373656D01*
X4996635Y59383908D01*
X4996628Y59383921D01*
X4887139Y59547782D01*
X4887136Y59547786D01*
X4747784Y59687138D01*
X4722741Y59703871D01*
X4685782Y59728566D01*
X4653100Y59760542D01*
X4638495Y59781401D01*
X4516179Y59903717D01*
X4482696Y59965037D01*
X4487680Y60034729D01*
X4529551Y60090663D01*
X4560529Y60107578D01*
X4692086Y60156646D01*
X4692093Y60156650D01*
X4807187Y60242810D01*
X4807190Y60242813D01*
X4893350Y60357907D01*
X4893354Y60357914D01*
X4943596Y60492621D01*
X4943598Y60492628D01*
X4949999Y60552156D01*
X4950000Y60552173D01*
X4950000Y61200000D01*
X4033012Y61200000D01*
X4065925Y61257007D01*
X4100000Y61384174D01*
X4100000Y61515826D01*
X4065925Y61642993D01*
X4033012Y61700000D01*
X4950000Y61700000D01*
X4950000Y62347828D01*
X4949999Y62347845D01*
X4943598Y62407373D01*
X4943596Y62407380D01*
X4893354Y62542087D01*
X4893350Y62542094D01*
X4807190Y62657188D01*
X4807187Y62657191D01*
X4692093Y62743351D01*
X4692086Y62743355D01*
X4557379Y62793597D01*
X4557372Y62793599D01*
X4497844Y62800000D01*
X3850000Y62800000D01*
X3850000Y61883012D01*
X3792993Y61915925D01*
X3665826Y61950000D01*
X3534174Y61950000D01*
X3407007Y61915925D01*
X3350000Y61883012D01*
X3350000Y62800000D01*
X2702155Y62800000D01*
X2642627Y62793599D01*
X2642620Y62793597D01*
X2507913Y62743355D01*
X2507906Y62743351D01*
X2392812Y62657191D01*
X2392809Y62657188D01*
X2306649Y62542094D01*
X2306645Y62542087D01*
X2256403Y62407380D01*
X2256401Y62407373D01*
X2250000Y62347845D01*
X2250000Y61700000D01*
X3166988Y61700000D01*
X3134075Y61642993D01*
X3100000Y61515826D01*
X3100000Y61384174D01*
X3134075Y61257007D01*
X3166988Y61200000D01*
X2250000Y61200000D01*
X2250000Y60552156D01*
X2256401Y60492628D01*
X2256403Y60492621D01*
X2306645Y60357914D01*
X2306649Y60357907D01*
X2392809Y60242813D01*
X2392812Y60242810D01*
X2507906Y60156650D01*
X2507913Y60156646D01*
X2639470Y60107579D01*
X2695403Y60065708D01*
X2719821Y60000244D01*
X2704970Y59931971D01*
X2683819Y59903716D01*
X2561503Y59781400D01*
X2425965Y59587831D01*
X2425964Y59587829D01*
X2326098Y59373665D01*
X2326094Y59373656D01*
X2264938Y59145414D01*
X2264936Y59145404D01*
X2244341Y58910001D01*
X2244341Y58910000D01*
X2264936Y58674597D01*
X2264938Y58674587D01*
X2326094Y58446345D01*
X2326096Y58446341D01*
X2326097Y58446337D01*
X2330880Y58436080D01*
X2425965Y58232170D01*
X2425967Y58232166D01*
X2561501Y58038605D01*
X2561506Y58038598D01*
X2728597Y57871507D01*
X2728603Y57871502D01*
X2914158Y57741575D01*
X2957783Y57686998D01*
X2964977Y57617500D01*
X2933454Y57555145D01*
X2914158Y57538425D01*
X2728597Y57408495D01*
X2561505Y57241403D01*
X2425965Y57047831D01*
X2425964Y57047829D01*
X2326098Y56833665D01*
X2326094Y56833656D01*
X2264938Y56605414D01*
X2264936Y56605404D01*
X2244341Y56370001D01*
X2244341Y56370000D01*
X2264936Y56134597D01*
X2264938Y56134587D01*
X2326094Y55906345D01*
X2326096Y55906341D01*
X2326097Y55906337D01*
X2425965Y55692170D01*
X2425967Y55692166D01*
X2561501Y55498605D01*
X2561506Y55498598D01*
X2728597Y55331507D01*
X2728603Y55331502D01*
X2914158Y55201575D01*
X2957783Y55146998D01*
X2964977Y55077500D01*
X2933454Y55015145D01*
X2914158Y54998425D01*
X2728597Y54868495D01*
X2561505Y54701403D01*
X2425965Y54507831D01*
X2425964Y54507829D01*
X2326098Y54293665D01*
X2326094Y54293656D01*
X2264938Y54065414D01*
X2264936Y54065404D01*
X2244341Y53830001D01*
X2244341Y53830000D01*
X2264936Y53594597D01*
X2264938Y53594587D01*
X2326094Y53366345D01*
X2326096Y53366341D01*
X2326097Y53366337D01*
X2425965Y53152170D01*
X2425967Y53152166D01*
X2561501Y52958605D01*
X2561506Y52958598D01*
X2728597Y52791507D01*
X2728603Y52791502D01*
X2914594Y52661270D01*
X2958219Y52606693D01*
X2965413Y52537195D01*
X2933890Y52474840D01*
X2914595Y52458120D01*
X2728922Y52328110D01*
X2728920Y52328109D01*
X2561891Y52161080D01*
X2561886Y52161074D01*
X2426400Y51967580D01*
X2426399Y51967578D01*
X2326570Y51753493D01*
X2326567Y51753487D01*
X2269364Y51540001D01*
X2269364Y51540000D01*
X3166988Y51540000D01*
X3134075Y51482993D01*
X3100000Y51355826D01*
X3100000Y51224174D01*
X3134075Y51097007D01*
X3166988Y51040000D01*
X2269364Y51040000D01*
X2326567Y50826514D01*
X2326570Y50826508D01*
X2426399Y50612422D01*
X2561894Y50418918D01*
X2728917Y50251895D01*
X2914595Y50121881D01*
X2958219Y50067304D01*
X2965412Y49997805D01*
X2933890Y49935451D01*
X2914595Y49918731D01*
X2728594Y49788492D01*
X2561505Y49621403D01*
X2425965Y49427831D01*
X2425964Y49427829D01*
X2326098Y49213665D01*
X2326094Y49213656D01*
X2264938Y48985414D01*
X2264936Y48985404D01*
X2244341Y48750001D01*
X2244341Y48750000D01*
X2264936Y48514597D01*
X2264938Y48514587D01*
X2326094Y48286345D01*
X2326096Y48286341D01*
X2326097Y48286337D01*
X2397724Y48132733D01*
X2425965Y48072170D01*
X2425967Y48072166D01*
X2561501Y47878605D01*
X2561506Y47878598D01*
X2728597Y47711507D01*
X2728603Y47711502D01*
X2914158Y47581575D01*
X2957783Y47526998D01*
X2964977Y47457500D01*
X2933454Y47395145D01*
X2914158Y47378425D01*
X2728597Y47248495D01*
X2561505Y47081403D01*
X2425965Y46887831D01*
X2425964Y46887829D01*
X2326098Y46673665D01*
X2326094Y46673656D01*
X2264938Y46445414D01*
X2264936Y46445404D01*
X2244341Y46210001D01*
X2244341Y46210000D01*
X2264936Y45974597D01*
X2264938Y45974587D01*
X2326094Y45746345D01*
X2326096Y45746341D01*
X2326097Y45746337D01*
X2424651Y45534988D01*
X2425965Y45532170D01*
X2425967Y45532166D01*
X2561501Y45338605D01*
X2561506Y45338598D01*
X2728597Y45171507D01*
X2728603Y45171502D01*
X2914158Y45041575D01*
X2957783Y44986998D01*
X2964977Y44917500D01*
X2933454Y44855145D01*
X2914158Y44838425D01*
X2728597Y44708495D01*
X2561505Y44541403D01*
X2425965Y44347831D01*
X2425964Y44347829D01*
X2326098Y44133665D01*
X2326094Y44133656D01*
X2264938Y43905414D01*
X2264936Y43905404D01*
X2244341Y43670001D01*
X2244341Y43670000D01*
X2264936Y43434597D01*
X2264938Y43434587D01*
X2326094Y43206345D01*
X2326096Y43206341D01*
X2326097Y43206337D01*
X2425965Y42992170D01*
X2425967Y42992166D01*
X2497267Y42890340D01*
X2561505Y42798599D01*
X2728599Y42631505D01*
X2764917Y42606075D01*
X2808541Y42551498D01*
X2815734Y42481999D01*
X2784212Y42419645D01*
X2723982Y42384231D01*
X2693793Y42380500D01*
X2299497Y42380500D01*
X2105092Y42349710D01*
X1917888Y42288883D01*
X1742513Y42199524D01*
X1699806Y42168495D01*
X1583273Y42083828D01*
X1583271Y42083826D01*
X1583270Y42083826D01*
X570174Y41070730D01*
X570174Y41070729D01*
X570172Y41070727D01*
X550604Y41043794D01*
X454476Y40911487D01*
X365115Y40736108D01*
X365114Y40736105D01*
X339116Y40656087D01*
X304290Y40548905D01*
X304290Y40548904D01*
X273499Y40354502D01*
X273118Y40349648D01*
X248238Y40284358D01*
X192009Y40242884D01*
X122284Y40238394D01*
X61199Y40272312D01*
X28150Y40333871D01*
X25500Y40359370D01*
X25500Y67400500D01*
X45185Y67467539D01*
X97989Y67513294D01*
X149500Y67524500D01*
X2015017Y67524500D01*
X2015019Y67524500D01*
X2042768Y67535994D01*
X2064007Y67557233D01*
X2075501Y67584982D01*
X2075500Y90500501D01*
X2095185Y90567539D01*
X2147989Y90613294D01*
X2199500Y90624500D01*
X5202289Y90624500D01*
X5202292Y90624500D01*
X5454502Y90647871D01*
X5605140Y90661829D01*
X5605141Y90661829D01*
X5605143Y90661830D01*
X5605149Y90661830D01*
X6002843Y90736172D01*
X6391982Y90846891D01*
X6769245Y90993044D01*
X7131413Y91173382D01*
X7475396Y91386368D01*
X7798261Y91630184D01*
X8097251Y91902750D01*
X8369817Y92201740D01*
X8613633Y92524605D01*
X8826618Y92868588D01*
X9006957Y93230756D01*
X9153109Y93608019D01*
X9263828Y93997158D01*
X9338170Y94394852D01*
X9341779Y94433793D01*
X9358126Y94610213D01*
X9375500Y94797709D01*
X9375500Y95000001D01*
X9375500Y95024532D01*
X9375500Y97800500D01*
X9395185Y97867539D01*
X9447989Y97913294D01*
X9499500Y97924500D01*
X61460265Y97924500D01*
X61527304Y97904815D01*
G37*
%TD.AperFunction*%
%TA.AperFunction,Conductor*%
G36*
X8655357Y19592493D02*
G01*
X8706557Y19544951D01*
X8717705Y19520541D01*
X8765642Y19375879D01*
X8765643Y19375876D01*
X8857684Y19226655D01*
X8981654Y19102685D01*
X9137025Y19006851D01*
X9135666Y19004649D01*
X9179026Y18966487D01*
X9198192Y18899298D01*
X9177991Y18832412D01*
X9139293Y18794717D01*
X9006347Y18712715D01*
X9006343Y18712712D01*
X8882289Y18588658D01*
X8790187Y18439337D01*
X8790186Y18439334D01*
X8735001Y18272797D01*
X8735001Y18272796D01*
X8735000Y18272796D01*
X8724500Y18170017D01*
X8724500Y18169500D01*
X8724468Y18169395D01*
X8724340Y18166861D01*
X8724179Y18166870D01*
X8724179Y18166868D01*
X8724155Y18166871D01*
X8723734Y18166892D01*
X8704815Y18102461D01*
X8652011Y18056706D01*
X8600500Y18045500D01*
X8574000Y18045500D01*
X8506961Y18065185D01*
X8461206Y18117989D01*
X8450000Y18169500D01*
X8450000Y18210635D01*
X8449999Y18210650D01*
X8447100Y18247490D01*
X8447099Y18247496D01*
X8401283Y18405194D01*
X8401282Y18405197D01*
X8317685Y18546553D01*
X8317678Y18546562D01*
X8201561Y18662679D01*
X8201552Y18662686D01*
X8060198Y18746282D01*
X8022957Y18757101D01*
X7964072Y18794708D01*
X7934865Y18858180D01*
X7944611Y18927367D01*
X7990215Y18980301D01*
X8018548Y18993884D01*
X8069119Y19010642D01*
X8069124Y19010644D01*
X8218345Y19102685D01*
X8342315Y19226655D01*
X8434356Y19375876D01*
X8434359Y19375883D01*
X8482293Y19520539D01*
X8522065Y19577984D01*
X8586581Y19604808D01*
X8655357Y19592493D01*
G37*
%TD.AperFunction*%
%TD*%
M02*
