M48
; DRILL file {KiCad 8.0.5} date 2024-09-29T16:21:42-0400
; FORMAT={-:-/ absolute / inch / decimal}
; #@! TF.CreationDate,2024-09-29T16:21:42-04:00
; #@! TF.GenerationSoftware,Kicad,Pcbnew,8.0.5
; #@! TF.FileFunction,Plated,1,2,PTH
FMAT,2
INCH
; #@! TA.AperFunction,Plated,PTH,ViaDrill
T1C0.0079
; #@! TA.AperFunction,Plated,PTH,ViaDrill
T2C0.0157
; #@! TA.AperFunction,Plated,PTH,ComponentDrill
T3C0.0315
; #@! TA.AperFunction,Plated,PTH,ComponentDrill
T4C0.0394
; #@! TA.AperFunction,Plated,PTH,ComponentDrill
T5C0.0433
; #@! TA.AperFunction,Plated,PTH,ComponentDrill
T6C0.0630
; #@! TA.AperFunction,Plated,PTH,ComponentDrill
T7C0.0709
%
G90
G05
T1
X0.2421Y0.6356
X0.2854Y0.7419
X0.2933Y0.86
X0.3209Y0.7419
X0.3366Y0.8285
X0.3366Y0.7695
X0.3839Y0.86
T2
X0.1398Y0.6533
X0.1476Y0.5254
X0.2894Y0.9289
X0.561Y0.862
X0.561Y0.7478
X0.561Y0.551
X1.0074Y0.2835
X1.0544Y0.2833
X1.1058Y0.1279
X1.2357Y0.9646
X1.2357Y0.8661
X1.9764Y0.0827
T3
X1.5778Y1.6368
X1.6778Y1.7368
X1.7343Y3.315
X1.7343Y3.1772
X1.7343Y2.9094
X1.7343Y2.7717
X1.7778Y1.6368
X1.7835Y2.4693
X1.7835Y1.8693
T4
X0.1417Y2.4193
X0.1417Y2.3193
X0.1417Y2.2193
X0.1417Y2.1193
X0.1417Y2.0193
X0.1417Y1.9193
X0.1417Y1.8193
X0.1417Y1.7193
X0.1417Y1.6193
X0.1417Y1.5193
X0.7869Y1.5669
X0.7869Y1.4669
X0.7869Y1.3669
X0.7869Y1.2669
X0.7869Y1.1669
X0.7869Y1.0669
X0.7869Y0.9669
X0.7869Y0.8669
X0.7869Y0.7669
X0.7869Y0.6669
X0.7869Y0.5669
X0.7869Y0.4669
X0.7869Y0.3669
X0.7869Y0.2669
X0.7869Y0.1669
X1.3869Y1.5669
X1.3869Y1.4669
X1.3869Y1.3669
X1.3869Y1.2669
X1.3869Y1.1669
X1.3869Y1.0669
X1.3869Y0.9669
X1.3869Y0.8669
X1.3869Y0.7669
X1.3869Y0.6669
X1.3869Y0.5669
X1.3869Y0.4669
X1.3869Y0.3669
X1.3869Y0.2669
X1.3869Y0.1669
T5
X1.2902Y2.6083
X1.3902Y2.6083
X1.4902Y2.6083
X2.2236Y3.2319
X2.2236Y3.0606
X2.2236Y2.8894
X2.2236Y2.7187
X2.5465Y3.2319
X2.5465Y3.0606
X2.5465Y2.8894
X2.5465Y2.7187
T6
X0.9823Y2.5854
X0.9823Y1.9854
T7
X0.6122Y3.2835
X1.3622Y3.2835
M30
