%TF.GenerationSoftware,KiCad,Pcbnew,5.1.10*%
%TF.CreationDate,2021-10-26T18:05:10-04:00*%
%TF.ProjectId,BREAD_Slice,42524541-445f-4536-9c69-63652e6b6963,rev?*%
%TF.SameCoordinates,Original*%
%TF.FileFunction,Copper,L2,Bot*%
%TF.FilePolarity,Positive*%
%FSLAX46Y46*%
G04 Gerber Fmt 4.6, Leading zero omitted, Abs format (unit mm)*
G04 Created by KiCad (PCBNEW 5.1.10) date 2021-10-26 18:05:10*
%MOMM*%
%LPD*%
G01*
G04 APERTURE LIST*
%TA.AperFunction,ComponentPad*%
%ADD10O,1.600000X1.600000*%
%TD*%
%TA.AperFunction,ComponentPad*%
%ADD11C,1.600000*%
%TD*%
%TA.AperFunction,ComponentPad*%
%ADD12C,1.440000*%
%TD*%
%TA.AperFunction,ComponentPad*%
%ADD13O,1.699260X3.500120*%
%TD*%
%TA.AperFunction,ComponentPad*%
%ADD14C,3.000000*%
%TD*%
%TA.AperFunction,ComponentPad*%
%ADD15C,2.500000*%
%TD*%
%TA.AperFunction,ComponentPad*%
%ADD16R,2.500000X2.500000*%
%TD*%
%TA.AperFunction,ComponentPad*%
%ADD17R,1.998980X1.998980*%
%TD*%
%TA.AperFunction,ComponentPad*%
%ADD18C,1.998980*%
%TD*%
%TA.AperFunction,ComponentPad*%
%ADD19R,1.300000X1.300000*%
%TD*%
%TA.AperFunction,ComponentPad*%
%ADD20C,1.300000*%
%TD*%
%TA.AperFunction,ComponentPad*%
%ADD21C,5.600000*%
%TD*%
%TA.AperFunction,SMDPad,CuDef*%
%ADD22R,2.770000X2.350000*%
%TD*%
%TA.AperFunction,ComponentPad*%
%ADD23R,1.600000X1.600000*%
%TD*%
%TA.AperFunction,ComponentPad*%
%ADD24R,1.700000X1.700000*%
%TD*%
%TA.AperFunction,ComponentPad*%
%ADD25O,1.700000X1.700000*%
%TD*%
%TA.AperFunction,ViaPad*%
%ADD26C,0.800000*%
%TD*%
%TA.AperFunction,Conductor*%
%ADD27C,1.500000*%
%TD*%
%TA.AperFunction,Conductor*%
%ADD28C,0.500000*%
%TD*%
%TA.AperFunction,Conductor*%
%ADD29C,0.254000*%
%TD*%
%TA.AperFunction,Conductor*%
%ADD30C,0.100000*%
%TD*%
G04 APERTURE END LIST*
D10*
%TO.P,R1,2*%
%TO.N,/FB*%
X165780000Y-75030000D03*
D11*
%TO.P,R1,1*%
%TO.N,Net-(C3-Pad1)*%
X165780000Y-59790000D03*
%TD*%
D12*
%TO.P,RV1,3*%
%TO.N,GND*%
X154850000Y-87120000D03*
%TO.P,RV1,2*%
X157390000Y-89660000D03*
%TO.P,RV1,1*%
%TO.N,/FB*%
X159930000Y-87120000D03*
%TD*%
D13*
%TO.P,Q1,3*%
%TO.N,Net-(D1-Pad1)*%
X141650000Y-82650000D03*
%TO.P,Q1,1*%
%TO.N,/SW*%
X146730000Y-82650000D03*
%TO.P,Q1,2*%
%TO.N,Net-(J2-Pad2)*%
X144190000Y-82650000D03*
%TD*%
D14*
%TO.P,L1,2*%
%TO.N,Net-(C3-Pad1)*%
X160690000Y-59790000D03*
%TO.P,L1,1*%
%TO.N,Net-(D1-Pad1)*%
X131490000Y-59790000D03*
%TD*%
D15*
%TO.P,J3,2*%
%TO.N,GND*%
X184830000Y-58440000D03*
D16*
%TO.P,J3,1*%
%TO.N,Net-(C3-Pad1)*%
X184830000Y-53440000D03*
%TD*%
D15*
%TO.P,J2,2*%
%TO.N,Net-(J2-Pad2)*%
X184830000Y-82570000D03*
D16*
%TO.P,J2,1*%
%TO.N,GND*%
X184830000Y-77570000D03*
%TD*%
D17*
%TO.P,D1,1*%
%TO.N,Net-(D1-Pad1)*%
X135302540Y-77570000D03*
D18*
%TO.P,D1,2*%
%TO.N,GND*%
X135302540Y-87730000D03*
%TD*%
D19*
%TO.P,C3,1*%
%TO.N,Net-(C3-Pad1)*%
X169590000Y-50900000D03*
D20*
%TO.P,C3,2*%
%TO.N,GND*%
X173090000Y-50900000D03*
%TD*%
D21*
%TO.P,H4,1*%
%TO.N,N/C*%
X187600000Y-134800000D03*
%TD*%
%TO.P,H3,1*%
%TO.N,N/C*%
X127600000Y-134800000D03*
%TD*%
%TO.P,H2,1*%
%TO.N,N/C*%
X187600000Y-44800000D03*
%TD*%
%TO.P,H1,1*%
%TO.N,N/C*%
X127600000Y-44800000D03*
%TD*%
D22*
%TO.P,C1,2*%
%TO.N,GND*%
X160170000Y-99000000D03*
%TO.P,C1,1*%
%TO.N,+12V*%
X155030000Y-99000000D03*
%TD*%
D23*
%TO.P,A1,1*%
%TO.N,Net-(A1-Pad1)*%
X135000000Y-100000000D03*
D10*
%TO.P,A1,17*%
%TO.N,Net-(A1-Pad17)*%
X150240000Y-133020000D03*
%TO.P,A1,2*%
%TO.N,Net-(A1-Pad2)*%
X135000000Y-102540000D03*
%TO.P,A1,18*%
%TO.N,Net-(A1-Pad18)*%
X150240000Y-130480000D03*
%TO.P,A1,3*%
%TO.N,Net-(A1-Pad3)*%
X135000000Y-105080000D03*
%TO.P,A1,19*%
%TO.N,/FB*%
X150240000Y-127940000D03*
%TO.P,A1,4*%
%TO.N,GND*%
X135000000Y-107620000D03*
%TO.P,A1,20*%
%TO.N,Net-(A1-Pad20)*%
X150240000Y-125400000D03*
%TO.P,A1,5*%
%TO.N,/E_STOP*%
X135000000Y-110160000D03*
%TO.P,A1,21*%
%TO.N,Net-(A1-Pad21)*%
X150240000Y-122860000D03*
%TO.P,A1,6*%
%TO.N,/INT*%
X135000000Y-112700000D03*
%TO.P,A1,22*%
%TO.N,Net-(A1-Pad22)*%
X150240000Y-120320000D03*
%TO.P,A1,7*%
%TO.N,/SYNC*%
X135000000Y-115240000D03*
%TO.P,A1,23*%
%TO.N,/I2C_DAT*%
X150240000Y-117780000D03*
%TO.P,A1,8*%
%TO.N,Net-(A1-Pad8)*%
X135000000Y-117780000D03*
%TO.P,A1,24*%
%TO.N,/I2C_CLK*%
X150240000Y-115240000D03*
%TO.P,A1,9*%
%TO.N,/SW*%
X135000000Y-120320000D03*
%TO.P,A1,25*%
%TO.N,Net-(A1-Pad25)*%
X150240000Y-112700000D03*
%TO.P,A1,10*%
%TO.N,Net-(A1-Pad10)*%
X135000000Y-122860000D03*
%TO.P,A1,26*%
%TO.N,Net-(A1-Pad26)*%
X150240000Y-110160000D03*
%TO.P,A1,11*%
%TO.N,Net-(A1-Pad11)*%
X135000000Y-125400000D03*
%TO.P,A1,27*%
%TO.N,+5V*%
X150240000Y-107620000D03*
%TO.P,A1,12*%
%TO.N,Net-(A1-Pad12)*%
X135000000Y-127940000D03*
%TO.P,A1,28*%
%TO.N,Net-(A1-Pad28)*%
X150240000Y-105080000D03*
%TO.P,A1,13*%
%TO.N,Net-(A1-Pad13)*%
X135000000Y-130480000D03*
%TO.P,A1,29*%
%TO.N,GND*%
X150240000Y-102540000D03*
%TO.P,A1,14*%
%TO.N,Net-(A1-Pad14)*%
X135000000Y-133020000D03*
%TO.P,A1,30*%
%TO.N,+12V*%
X150240000Y-100000000D03*
%TO.P,A1,15*%
%TO.N,Net-(A1-Pad15)*%
X135000000Y-135560000D03*
%TO.P,A1,16*%
%TO.N,Net-(A1-Pad16)*%
X150240000Y-135560000D03*
%TD*%
D22*
%TO.P,C2,1*%
%TO.N,+5V*%
X155030000Y-107800000D03*
%TO.P,C2,2*%
%TO.N,GND*%
X160170000Y-107800000D03*
%TD*%
D24*
%TO.P,J1,1*%
%TO.N,GND*%
X129600000Y-78800000D03*
D25*
%TO.P,J1,2*%
%TO.N,+12V*%
X129600000Y-81340000D03*
%TO.P,J1,3*%
%TO.N,/I2C_CLK*%
X129600000Y-83880000D03*
%TO.P,J1,4*%
%TO.N,/I2C_DAT*%
X129600000Y-86420000D03*
%TO.P,J1,5*%
%TO.N,GND*%
X129600000Y-88960000D03*
%TO.P,J1,6*%
%TO.N,/E_STOP*%
X129600000Y-91500000D03*
%TO.P,J1,7*%
%TO.N,/INT*%
X129600000Y-94040000D03*
%TO.P,J1,8*%
%TO.N,/SYNC*%
X129600000Y-96580000D03*
%TO.P,J1,9*%
%TO.N,+12V*%
X129600000Y-99120000D03*
%TO.P,J1,10*%
%TO.N,GND*%
X129600000Y-101660000D03*
%TD*%
D26*
%TO.N,/I2C_CLK*%
X153080000Y-114400000D03*
X132760000Y-75030000D03*
%TO.N,/I2C_DAT*%
X153080000Y-116940000D03*
X132760000Y-86460000D03*
%TO.N,+12V*%
X126410000Y-106780000D03*
X148000000Y-94080000D03*
%TD*%
D27*
%TO.N,+5V*%
X150420000Y-107800000D02*
X150240000Y-107620000D01*
X155030000Y-107800000D02*
X150420000Y-107800000D01*
D28*
%TO.N,/I2C_CLK*%
X152240000Y-115240000D02*
X153080000Y-114400000D01*
X150240000Y-115240000D02*
X152240000Y-115240000D01*
X132760000Y-80720000D02*
X129600000Y-83880000D01*
X132760000Y-75030000D02*
X132760000Y-80720000D01*
%TO.N,/I2C_DAT*%
X152240000Y-117780000D02*
X153080000Y-116940000D01*
X150240000Y-117780000D02*
X152240000Y-117780000D01*
X129640000Y-86460000D02*
X129600000Y-86420000D01*
X132760000Y-86460000D02*
X129640000Y-86460000D01*
%TO.N,/SYNC*%
X135000000Y-115240000D02*
X131490000Y-111730000D01*
X131490000Y-111730000D02*
X131490000Y-97890000D01*
X130180000Y-96580000D02*
X129600000Y-96580000D01*
X131490000Y-97890000D02*
X130180000Y-96580000D01*
%TO.N,/E_STOP*%
X133749999Y-108909999D02*
X133749999Y-93799999D01*
X135000000Y-110160000D02*
X133749999Y-108909999D01*
X131450000Y-91500000D02*
X129600000Y-91500000D01*
X133749999Y-93799999D02*
X131450000Y-91500000D01*
D27*
%TO.N,+12V*%
X151240000Y-99000000D02*
X150240000Y-100000000D01*
X155030000Y-99000000D02*
X151240000Y-99000000D01*
D28*
X129600000Y-81340000D02*
X127720000Y-81340000D01*
X127720000Y-81340000D02*
X126410000Y-82650000D01*
X126410000Y-82650000D02*
X126410000Y-97890000D01*
X127640000Y-99120000D02*
X129600000Y-99120000D01*
X126410000Y-97890000D02*
X127640000Y-99120000D01*
X126410000Y-97890000D02*
X126410000Y-106780000D01*
X150240000Y-96320000D02*
X150240000Y-100000000D01*
X148000000Y-94080000D02*
X150240000Y-96320000D01*
%TO.N,/INT*%
X135000000Y-112700000D02*
X132760000Y-110460000D01*
X132760000Y-110460000D02*
X132760000Y-95350000D01*
X131450000Y-94040000D02*
X129600000Y-94040000D01*
X132760000Y-95350000D02*
X131450000Y-94040000D01*
D27*
%TO.N,/FB*%
X186710000Y-87120000D02*
X188640000Y-85190000D01*
X188640000Y-85190000D02*
X188640000Y-73760000D01*
X188640000Y-73760000D02*
X187370000Y-72490000D01*
X168320000Y-72490000D02*
X165780000Y-75030000D01*
X187370000Y-72490000D02*
X168320000Y-72490000D01*
D28*
X150240000Y-127940000D02*
X158590000Y-127940000D01*
X158590000Y-127940000D02*
X165780000Y-120750000D01*
X165780000Y-87730000D02*
X166390000Y-87120000D01*
X165780000Y-120750000D02*
X165780000Y-87730000D01*
D27*
X166390000Y-87120000D02*
X186710000Y-87120000D01*
X159930000Y-87120000D02*
X166390000Y-87120000D01*
D28*
%TO.N,/SW*%
X146730000Y-108590000D02*
X146730000Y-82650000D01*
X135000000Y-120320000D02*
X146730000Y-108590000D01*
D27*
%TO.N,Net-(C3-Pad1)*%
X172130000Y-53440000D02*
X169590000Y-50900000D01*
X184830000Y-53440000D02*
X172130000Y-53440000D01*
X172130000Y-53440000D02*
X165780000Y-59790000D01*
X165780000Y-59790000D02*
X160690000Y-59790000D01*
%TO.N,Net-(D1-Pad1)*%
X131490000Y-59790000D02*
X132760000Y-59790000D01*
X135302540Y-62332540D02*
X135302540Y-77570000D01*
X132760000Y-59790000D02*
X135302540Y-62332540D01*
X135302540Y-77570000D02*
X140380000Y-77570000D01*
X141650000Y-78840000D02*
X141650000Y-82650000D01*
X140380000Y-77570000D02*
X141650000Y-78840000D01*
%TO.N,Net-(J2-Pad2)*%
X184830000Y-82570000D02*
X160620000Y-82570000D01*
X160620000Y-82570000D02*
X156890000Y-78840000D01*
X144749940Y-78840000D02*
X144190000Y-79399940D01*
X144190000Y-79399940D02*
X144190000Y-82650000D01*
X156890000Y-78840000D02*
X144749940Y-78840000D01*
%TD*%
D29*
%TO.N,GND*%
X189807905Y-41066638D02*
X190434130Y-41516626D01*
X190970777Y-42070403D01*
X191053000Y-42192764D01*
X191053000Y-137398070D01*
X190883374Y-137634130D01*
X190329597Y-138170777D01*
X189984012Y-138403000D01*
X125210677Y-138403000D01*
X124765870Y-138083374D01*
X124229223Y-137529597D01*
X123997000Y-137184012D01*
X123997000Y-134461682D01*
X124165000Y-134461682D01*
X124165000Y-135138318D01*
X124297006Y-135801952D01*
X124555943Y-136427082D01*
X124931862Y-136989685D01*
X125410315Y-137468138D01*
X125972918Y-137844057D01*
X126598048Y-138102994D01*
X127261682Y-138235000D01*
X127938318Y-138235000D01*
X128601952Y-138102994D01*
X129227082Y-137844057D01*
X129789685Y-137468138D01*
X130268138Y-136989685D01*
X130644057Y-136427082D01*
X130902994Y-135801952D01*
X131035000Y-135138318D01*
X131035000Y-134461682D01*
X130902994Y-133798048D01*
X130644057Y-133172918D01*
X130268138Y-132610315D01*
X129789685Y-132131862D01*
X129227082Y-131755943D01*
X128601952Y-131497006D01*
X127938318Y-131365000D01*
X127261682Y-131365000D01*
X126598048Y-131497006D01*
X125972918Y-131755943D01*
X125410315Y-132131862D01*
X124931862Y-132610315D01*
X124555943Y-133172918D01*
X124297006Y-133798048D01*
X124165000Y-134461682D01*
X123997000Y-134461682D01*
X123997000Y-106678061D01*
X125375000Y-106678061D01*
X125375000Y-106881939D01*
X125414774Y-107081898D01*
X125492795Y-107270256D01*
X125606063Y-107439774D01*
X125750226Y-107583937D01*
X125919744Y-107697205D01*
X126108102Y-107775226D01*
X126308061Y-107815000D01*
X126511939Y-107815000D01*
X126711898Y-107775226D01*
X126900256Y-107697205D01*
X127069774Y-107583937D01*
X127213937Y-107439774D01*
X127327205Y-107270256D01*
X127405226Y-107081898D01*
X127445000Y-106881939D01*
X127445000Y-106678061D01*
X127405226Y-106478102D01*
X127327205Y-106289744D01*
X127295000Y-106241546D01*
X127295000Y-102016890D01*
X128158524Y-102016890D01*
X128203175Y-102164099D01*
X128328359Y-102426920D01*
X128502412Y-102660269D01*
X128718645Y-102855178D01*
X128968748Y-103004157D01*
X129243109Y-103101481D01*
X129473000Y-102980814D01*
X129473000Y-101787000D01*
X128279845Y-101787000D01*
X128158524Y-102016890D01*
X127295000Y-102016890D01*
X127295000Y-99939084D01*
X127299686Y-99941589D01*
X127439762Y-99984081D01*
X127466510Y-99992195D01*
X127596523Y-100005000D01*
X127596531Y-100005000D01*
X127640000Y-100009281D01*
X127683469Y-100005000D01*
X128405344Y-100005000D01*
X128446525Y-100066632D01*
X128653368Y-100273475D01*
X128835534Y-100395195D01*
X128718645Y-100464822D01*
X128502412Y-100659731D01*
X128328359Y-100893080D01*
X128203175Y-101155901D01*
X128158524Y-101303110D01*
X128279845Y-101533000D01*
X129473000Y-101533000D01*
X129473000Y-101513000D01*
X129727000Y-101513000D01*
X129727000Y-101533000D01*
X129747000Y-101533000D01*
X129747000Y-101787000D01*
X129727000Y-101787000D01*
X129727000Y-102980814D01*
X129956891Y-103101481D01*
X130231252Y-103004157D01*
X130481355Y-102855178D01*
X130605001Y-102743726D01*
X130605000Y-111686531D01*
X130600719Y-111730000D01*
X130605000Y-111773469D01*
X130605000Y-111773476D01*
X130617805Y-111903489D01*
X130668411Y-112070312D01*
X130750589Y-112224058D01*
X130861183Y-112358817D01*
X130894956Y-112386534D01*
X133571983Y-115063561D01*
X133565000Y-115098665D01*
X133565000Y-115381335D01*
X133620147Y-115658574D01*
X133728320Y-115919727D01*
X133885363Y-116154759D01*
X134085241Y-116354637D01*
X134317759Y-116510000D01*
X134085241Y-116665363D01*
X133885363Y-116865241D01*
X133728320Y-117100273D01*
X133620147Y-117361426D01*
X133565000Y-117638665D01*
X133565000Y-117921335D01*
X133620147Y-118198574D01*
X133728320Y-118459727D01*
X133885363Y-118694759D01*
X134085241Y-118894637D01*
X134317759Y-119050000D01*
X134085241Y-119205363D01*
X133885363Y-119405241D01*
X133728320Y-119640273D01*
X133620147Y-119901426D01*
X133565000Y-120178665D01*
X133565000Y-120461335D01*
X133620147Y-120738574D01*
X133728320Y-120999727D01*
X133885363Y-121234759D01*
X134085241Y-121434637D01*
X134317759Y-121590000D01*
X134085241Y-121745363D01*
X133885363Y-121945241D01*
X133728320Y-122180273D01*
X133620147Y-122441426D01*
X133565000Y-122718665D01*
X133565000Y-123001335D01*
X133620147Y-123278574D01*
X133728320Y-123539727D01*
X133885363Y-123774759D01*
X134085241Y-123974637D01*
X134317759Y-124130000D01*
X134085241Y-124285363D01*
X133885363Y-124485241D01*
X133728320Y-124720273D01*
X133620147Y-124981426D01*
X133565000Y-125258665D01*
X133565000Y-125541335D01*
X133620147Y-125818574D01*
X133728320Y-126079727D01*
X133885363Y-126314759D01*
X134085241Y-126514637D01*
X134317759Y-126670000D01*
X134085241Y-126825363D01*
X133885363Y-127025241D01*
X133728320Y-127260273D01*
X133620147Y-127521426D01*
X133565000Y-127798665D01*
X133565000Y-128081335D01*
X133620147Y-128358574D01*
X133728320Y-128619727D01*
X133885363Y-128854759D01*
X134085241Y-129054637D01*
X134317759Y-129210000D01*
X134085241Y-129365363D01*
X133885363Y-129565241D01*
X133728320Y-129800273D01*
X133620147Y-130061426D01*
X133565000Y-130338665D01*
X133565000Y-130621335D01*
X133620147Y-130898574D01*
X133728320Y-131159727D01*
X133885363Y-131394759D01*
X134085241Y-131594637D01*
X134317759Y-131750000D01*
X134085241Y-131905363D01*
X133885363Y-132105241D01*
X133728320Y-132340273D01*
X133620147Y-132601426D01*
X133565000Y-132878665D01*
X133565000Y-133161335D01*
X133620147Y-133438574D01*
X133728320Y-133699727D01*
X133885363Y-133934759D01*
X134085241Y-134134637D01*
X134317759Y-134290000D01*
X134085241Y-134445363D01*
X133885363Y-134645241D01*
X133728320Y-134880273D01*
X133620147Y-135141426D01*
X133565000Y-135418665D01*
X133565000Y-135701335D01*
X133620147Y-135978574D01*
X133728320Y-136239727D01*
X133885363Y-136474759D01*
X134085241Y-136674637D01*
X134320273Y-136831680D01*
X134581426Y-136939853D01*
X134858665Y-136995000D01*
X135141335Y-136995000D01*
X135418574Y-136939853D01*
X135679727Y-136831680D01*
X135914759Y-136674637D01*
X136114637Y-136474759D01*
X136271680Y-136239727D01*
X136379853Y-135978574D01*
X136435000Y-135701335D01*
X136435000Y-135418665D01*
X136379853Y-135141426D01*
X136271680Y-134880273D01*
X136114637Y-134645241D01*
X135914759Y-134445363D01*
X135682241Y-134290000D01*
X135914759Y-134134637D01*
X136114637Y-133934759D01*
X136271680Y-133699727D01*
X136379853Y-133438574D01*
X136435000Y-133161335D01*
X136435000Y-132878665D01*
X136379853Y-132601426D01*
X136271680Y-132340273D01*
X136114637Y-132105241D01*
X135914759Y-131905363D01*
X135682241Y-131750000D01*
X135914759Y-131594637D01*
X136114637Y-131394759D01*
X136271680Y-131159727D01*
X136379853Y-130898574D01*
X136435000Y-130621335D01*
X136435000Y-130338665D01*
X136379853Y-130061426D01*
X136271680Y-129800273D01*
X136114637Y-129565241D01*
X135914759Y-129365363D01*
X135682241Y-129210000D01*
X135914759Y-129054637D01*
X136114637Y-128854759D01*
X136271680Y-128619727D01*
X136379853Y-128358574D01*
X136435000Y-128081335D01*
X136435000Y-127798665D01*
X136379853Y-127521426D01*
X136271680Y-127260273D01*
X136114637Y-127025241D01*
X135914759Y-126825363D01*
X135682241Y-126670000D01*
X135914759Y-126514637D01*
X136114637Y-126314759D01*
X136271680Y-126079727D01*
X136379853Y-125818574D01*
X136435000Y-125541335D01*
X136435000Y-125258665D01*
X136379853Y-124981426D01*
X136271680Y-124720273D01*
X136114637Y-124485241D01*
X135914759Y-124285363D01*
X135682241Y-124130000D01*
X135914759Y-123974637D01*
X136114637Y-123774759D01*
X136271680Y-123539727D01*
X136379853Y-123278574D01*
X136435000Y-123001335D01*
X136435000Y-122718665D01*
X136379853Y-122441426D01*
X136271680Y-122180273D01*
X136114637Y-121945241D01*
X135914759Y-121745363D01*
X135682241Y-121590000D01*
X135914759Y-121434637D01*
X136114637Y-121234759D01*
X136271680Y-120999727D01*
X136379853Y-120738574D01*
X136435000Y-120461335D01*
X136435000Y-120178665D01*
X136428017Y-120143561D01*
X147325051Y-109246528D01*
X147358817Y-109218817D01*
X147386571Y-109185000D01*
X147445210Y-109113548D01*
X147469411Y-109084059D01*
X147551589Y-108930313D01*
X147602195Y-108763490D01*
X147615000Y-108633477D01*
X147615000Y-108633467D01*
X147619281Y-108590001D01*
X147615000Y-108546534D01*
X147615000Y-104938665D01*
X148805000Y-104938665D01*
X148805000Y-105221335D01*
X148860147Y-105498574D01*
X148968320Y-105759727D01*
X149125363Y-105994759D01*
X149325241Y-106194637D01*
X149557759Y-106350000D01*
X149325241Y-106505363D01*
X149125363Y-106705241D01*
X148968320Y-106940273D01*
X148860147Y-107201426D01*
X148805000Y-107478665D01*
X148805000Y-107761335D01*
X148860147Y-108038574D01*
X148968320Y-108299727D01*
X149125363Y-108534759D01*
X149325241Y-108734637D01*
X149557759Y-108890000D01*
X149325241Y-109045363D01*
X149125363Y-109245241D01*
X148968320Y-109480273D01*
X148860147Y-109741426D01*
X148805000Y-110018665D01*
X148805000Y-110301335D01*
X148860147Y-110578574D01*
X148968320Y-110839727D01*
X149125363Y-111074759D01*
X149325241Y-111274637D01*
X149557759Y-111430000D01*
X149325241Y-111585363D01*
X149125363Y-111785241D01*
X148968320Y-112020273D01*
X148860147Y-112281426D01*
X148805000Y-112558665D01*
X148805000Y-112841335D01*
X148860147Y-113118574D01*
X148968320Y-113379727D01*
X149125363Y-113614759D01*
X149325241Y-113814637D01*
X149557759Y-113970000D01*
X149325241Y-114125363D01*
X149125363Y-114325241D01*
X148968320Y-114560273D01*
X148860147Y-114821426D01*
X148805000Y-115098665D01*
X148805000Y-115381335D01*
X148860147Y-115658574D01*
X148968320Y-115919727D01*
X149125363Y-116154759D01*
X149325241Y-116354637D01*
X149557759Y-116510000D01*
X149325241Y-116665363D01*
X149125363Y-116865241D01*
X148968320Y-117100273D01*
X148860147Y-117361426D01*
X148805000Y-117638665D01*
X148805000Y-117921335D01*
X148860147Y-118198574D01*
X148968320Y-118459727D01*
X149125363Y-118694759D01*
X149325241Y-118894637D01*
X149557759Y-119050000D01*
X149325241Y-119205363D01*
X149125363Y-119405241D01*
X148968320Y-119640273D01*
X148860147Y-119901426D01*
X148805000Y-120178665D01*
X148805000Y-120461335D01*
X148860147Y-120738574D01*
X148968320Y-120999727D01*
X149125363Y-121234759D01*
X149325241Y-121434637D01*
X149557759Y-121590000D01*
X149325241Y-121745363D01*
X149125363Y-121945241D01*
X148968320Y-122180273D01*
X148860147Y-122441426D01*
X148805000Y-122718665D01*
X148805000Y-123001335D01*
X148860147Y-123278574D01*
X148968320Y-123539727D01*
X149125363Y-123774759D01*
X149325241Y-123974637D01*
X149557759Y-124130000D01*
X149325241Y-124285363D01*
X149125363Y-124485241D01*
X148968320Y-124720273D01*
X148860147Y-124981426D01*
X148805000Y-125258665D01*
X148805000Y-125541335D01*
X148860147Y-125818574D01*
X148968320Y-126079727D01*
X149125363Y-126314759D01*
X149325241Y-126514637D01*
X149557759Y-126670000D01*
X149325241Y-126825363D01*
X149125363Y-127025241D01*
X148968320Y-127260273D01*
X148860147Y-127521426D01*
X148805000Y-127798665D01*
X148805000Y-128081335D01*
X148860147Y-128358574D01*
X148968320Y-128619727D01*
X149125363Y-128854759D01*
X149325241Y-129054637D01*
X149557759Y-129210000D01*
X149325241Y-129365363D01*
X149125363Y-129565241D01*
X148968320Y-129800273D01*
X148860147Y-130061426D01*
X148805000Y-130338665D01*
X148805000Y-130621335D01*
X148860147Y-130898574D01*
X148968320Y-131159727D01*
X149125363Y-131394759D01*
X149325241Y-131594637D01*
X149557759Y-131750000D01*
X149325241Y-131905363D01*
X149125363Y-132105241D01*
X148968320Y-132340273D01*
X148860147Y-132601426D01*
X148805000Y-132878665D01*
X148805000Y-133161335D01*
X148860147Y-133438574D01*
X148968320Y-133699727D01*
X149125363Y-133934759D01*
X149325241Y-134134637D01*
X149557759Y-134290000D01*
X149325241Y-134445363D01*
X149125363Y-134645241D01*
X148968320Y-134880273D01*
X148860147Y-135141426D01*
X148805000Y-135418665D01*
X148805000Y-135701335D01*
X148860147Y-135978574D01*
X148968320Y-136239727D01*
X149125363Y-136474759D01*
X149325241Y-136674637D01*
X149560273Y-136831680D01*
X149821426Y-136939853D01*
X150098665Y-136995000D01*
X150381335Y-136995000D01*
X150658574Y-136939853D01*
X150919727Y-136831680D01*
X151154759Y-136674637D01*
X151354637Y-136474759D01*
X151511680Y-136239727D01*
X151619853Y-135978574D01*
X151675000Y-135701335D01*
X151675000Y-135418665D01*
X151619853Y-135141426D01*
X151511680Y-134880273D01*
X151354637Y-134645241D01*
X151171078Y-134461682D01*
X184165000Y-134461682D01*
X184165000Y-135138318D01*
X184297006Y-135801952D01*
X184555943Y-136427082D01*
X184931862Y-136989685D01*
X185410315Y-137468138D01*
X185972918Y-137844057D01*
X186598048Y-138102994D01*
X187261682Y-138235000D01*
X187938318Y-138235000D01*
X188601952Y-138102994D01*
X189227082Y-137844057D01*
X189789685Y-137468138D01*
X190268138Y-136989685D01*
X190644057Y-136427082D01*
X190902994Y-135801952D01*
X191035000Y-135138318D01*
X191035000Y-134461682D01*
X190902994Y-133798048D01*
X190644057Y-133172918D01*
X190268138Y-132610315D01*
X189789685Y-132131862D01*
X189227082Y-131755943D01*
X188601952Y-131497006D01*
X187938318Y-131365000D01*
X187261682Y-131365000D01*
X186598048Y-131497006D01*
X185972918Y-131755943D01*
X185410315Y-132131862D01*
X184931862Y-132610315D01*
X184555943Y-133172918D01*
X184297006Y-133798048D01*
X184165000Y-134461682D01*
X151171078Y-134461682D01*
X151154759Y-134445363D01*
X150922241Y-134290000D01*
X151154759Y-134134637D01*
X151354637Y-133934759D01*
X151511680Y-133699727D01*
X151619853Y-133438574D01*
X151675000Y-133161335D01*
X151675000Y-132878665D01*
X151619853Y-132601426D01*
X151511680Y-132340273D01*
X151354637Y-132105241D01*
X151154759Y-131905363D01*
X150922241Y-131750000D01*
X151154759Y-131594637D01*
X151354637Y-131394759D01*
X151511680Y-131159727D01*
X151619853Y-130898574D01*
X151675000Y-130621335D01*
X151675000Y-130338665D01*
X151619853Y-130061426D01*
X151511680Y-129800273D01*
X151354637Y-129565241D01*
X151154759Y-129365363D01*
X150922241Y-129210000D01*
X151154759Y-129054637D01*
X151354637Y-128854759D01*
X151374521Y-128825000D01*
X158546531Y-128825000D01*
X158590000Y-128829281D01*
X158633469Y-128825000D01*
X158633477Y-128825000D01*
X158763490Y-128812195D01*
X158930313Y-128761589D01*
X159084059Y-128679411D01*
X159218817Y-128568817D01*
X159246534Y-128535044D01*
X166375051Y-121406528D01*
X166408817Y-121378817D01*
X166519411Y-121244059D01*
X166547133Y-121192195D01*
X166601589Y-121090314D01*
X166652195Y-120923490D01*
X166652195Y-120923489D01*
X166665000Y-120793477D01*
X166665000Y-120793469D01*
X166669281Y-120750000D01*
X166665000Y-120706531D01*
X166665000Y-88505000D01*
X186641971Y-88505000D01*
X186710000Y-88511700D01*
X186778029Y-88505000D01*
X186778037Y-88505000D01*
X186981507Y-88484960D01*
X187242581Y-88405764D01*
X187483188Y-88277157D01*
X187694081Y-88104081D01*
X187737454Y-88051231D01*
X189571241Y-86217445D01*
X189624080Y-86174081D01*
X189667445Y-86121241D01*
X189667452Y-86121234D01*
X189780172Y-85983884D01*
X189797157Y-85963188D01*
X189925764Y-85722581D01*
X190004960Y-85461507D01*
X190025000Y-85258037D01*
X190025000Y-85258028D01*
X190031700Y-85190001D01*
X190025000Y-85121974D01*
X190025000Y-73828026D01*
X190031700Y-73759999D01*
X190025000Y-73691972D01*
X190025000Y-73691963D01*
X190004960Y-73488493D01*
X189925764Y-73227419D01*
X189797157Y-72986812D01*
X189624081Y-72775919D01*
X189571236Y-72732550D01*
X188397454Y-71558769D01*
X188354081Y-71505919D01*
X188143188Y-71332843D01*
X187902581Y-71204236D01*
X187641507Y-71125040D01*
X187438037Y-71105000D01*
X187438029Y-71105000D01*
X187370000Y-71098300D01*
X187301971Y-71105000D01*
X168388026Y-71105000D01*
X168319999Y-71098300D01*
X168251972Y-71105000D01*
X168251963Y-71105000D01*
X168048493Y-71125040D01*
X167787419Y-71204236D01*
X167546812Y-71332843D01*
X167335919Y-71505919D01*
X167292546Y-71558769D01*
X165078340Y-73772975D01*
X164865241Y-73915363D01*
X164665363Y-74115241D01*
X164508320Y-74350273D01*
X164400147Y-74611426D01*
X164345000Y-74888665D01*
X164345000Y-75171335D01*
X164400147Y-75448574D01*
X164508320Y-75709727D01*
X164665363Y-75944759D01*
X164865241Y-76144637D01*
X165100273Y-76301680D01*
X165361426Y-76409853D01*
X165638665Y-76465000D01*
X165921335Y-76465000D01*
X166198574Y-76409853D01*
X166415498Y-76320000D01*
X182941928Y-76320000D01*
X182945000Y-77284250D01*
X183103750Y-77443000D01*
X184703000Y-77443000D01*
X184703000Y-75843750D01*
X184957000Y-75843750D01*
X184957000Y-77443000D01*
X186556250Y-77443000D01*
X186715000Y-77284250D01*
X186718072Y-76320000D01*
X186705812Y-76195518D01*
X186669502Y-76075820D01*
X186610537Y-75965506D01*
X186531185Y-75868815D01*
X186434494Y-75789463D01*
X186324180Y-75730498D01*
X186204482Y-75694188D01*
X186080000Y-75681928D01*
X185115750Y-75685000D01*
X184957000Y-75843750D01*
X184703000Y-75843750D01*
X184544250Y-75685000D01*
X183580000Y-75681928D01*
X183455518Y-75694188D01*
X183335820Y-75730498D01*
X183225506Y-75789463D01*
X183128815Y-75868815D01*
X183049463Y-75965506D01*
X182990498Y-76075820D01*
X182954188Y-76195518D01*
X182941928Y-76320000D01*
X166415498Y-76320000D01*
X166459727Y-76301680D01*
X166694759Y-76144637D01*
X166894637Y-75944759D01*
X167037025Y-75731660D01*
X168893685Y-73875000D01*
X186796315Y-73875000D01*
X187255001Y-74333687D01*
X187255000Y-84616314D01*
X186136315Y-85735000D01*
X159861963Y-85735000D01*
X159658493Y-85755040D01*
X159397419Y-85834236D01*
X159156812Y-85962843D01*
X158945919Y-86135919D01*
X158772843Y-86346812D01*
X158644236Y-86587419D01*
X158565040Y-86848493D01*
X158538299Y-87120000D01*
X158565040Y-87391507D01*
X158644236Y-87652581D01*
X158772843Y-87893188D01*
X158945919Y-88104081D01*
X159156812Y-88277157D01*
X159397419Y-88405764D01*
X159658493Y-88484960D01*
X159861963Y-88505000D01*
X164895001Y-88505000D01*
X164895000Y-120383421D01*
X158223422Y-127055000D01*
X151374521Y-127055000D01*
X151354637Y-127025241D01*
X151154759Y-126825363D01*
X150922241Y-126670000D01*
X151154759Y-126514637D01*
X151354637Y-126314759D01*
X151511680Y-126079727D01*
X151619853Y-125818574D01*
X151675000Y-125541335D01*
X151675000Y-125258665D01*
X151619853Y-124981426D01*
X151511680Y-124720273D01*
X151354637Y-124485241D01*
X151154759Y-124285363D01*
X150922241Y-124130000D01*
X151154759Y-123974637D01*
X151354637Y-123774759D01*
X151511680Y-123539727D01*
X151619853Y-123278574D01*
X151675000Y-123001335D01*
X151675000Y-122718665D01*
X151619853Y-122441426D01*
X151511680Y-122180273D01*
X151354637Y-121945241D01*
X151154759Y-121745363D01*
X150922241Y-121590000D01*
X151154759Y-121434637D01*
X151354637Y-121234759D01*
X151511680Y-120999727D01*
X151619853Y-120738574D01*
X151675000Y-120461335D01*
X151675000Y-120178665D01*
X151619853Y-119901426D01*
X151511680Y-119640273D01*
X151354637Y-119405241D01*
X151154759Y-119205363D01*
X150922241Y-119050000D01*
X151154759Y-118894637D01*
X151354637Y-118694759D01*
X151374521Y-118665000D01*
X152196531Y-118665000D01*
X152240000Y-118669281D01*
X152283469Y-118665000D01*
X152283477Y-118665000D01*
X152413490Y-118652195D01*
X152580313Y-118601589D01*
X152734059Y-118519411D01*
X152868817Y-118408817D01*
X152896534Y-118375044D01*
X153325044Y-117946535D01*
X153381898Y-117935226D01*
X153570256Y-117857205D01*
X153739774Y-117743937D01*
X153883937Y-117599774D01*
X153997205Y-117430256D01*
X154075226Y-117241898D01*
X154115000Y-117041939D01*
X154115000Y-116838061D01*
X154075226Y-116638102D01*
X153997205Y-116449744D01*
X153883937Y-116280226D01*
X153739774Y-116136063D01*
X153570256Y-116022795D01*
X153381898Y-115944774D01*
X153181939Y-115905000D01*
X152978061Y-115905000D01*
X152778102Y-115944774D01*
X152774391Y-115946311D01*
X152868817Y-115868817D01*
X152896534Y-115835044D01*
X153325044Y-115406535D01*
X153381898Y-115395226D01*
X153570256Y-115317205D01*
X153739774Y-115203937D01*
X153883937Y-115059774D01*
X153997205Y-114890256D01*
X154075226Y-114701898D01*
X154115000Y-114501939D01*
X154115000Y-114298061D01*
X154075226Y-114098102D01*
X153997205Y-113909744D01*
X153883937Y-113740226D01*
X153739774Y-113596063D01*
X153570256Y-113482795D01*
X153381898Y-113404774D01*
X153181939Y-113365000D01*
X152978061Y-113365000D01*
X152778102Y-113404774D01*
X152589744Y-113482795D01*
X152420226Y-113596063D01*
X152276063Y-113740226D01*
X152162795Y-113909744D01*
X152084774Y-114098102D01*
X152073465Y-114154956D01*
X151873422Y-114355000D01*
X151374521Y-114355000D01*
X151354637Y-114325241D01*
X151154759Y-114125363D01*
X150922241Y-113970000D01*
X151154759Y-113814637D01*
X151354637Y-113614759D01*
X151511680Y-113379727D01*
X151619853Y-113118574D01*
X151675000Y-112841335D01*
X151675000Y-112558665D01*
X151619853Y-112281426D01*
X151511680Y-112020273D01*
X151354637Y-111785241D01*
X151154759Y-111585363D01*
X150922241Y-111430000D01*
X151154759Y-111274637D01*
X151354637Y-111074759D01*
X151511680Y-110839727D01*
X151619853Y-110578574D01*
X151675000Y-110301335D01*
X151675000Y-110018665D01*
X151619853Y-109741426D01*
X151511680Y-109480273D01*
X151354637Y-109245241D01*
X151294396Y-109185000D01*
X153045130Y-109185000D01*
X153055498Y-109219180D01*
X153114463Y-109329494D01*
X153193815Y-109426185D01*
X153290506Y-109505537D01*
X153400820Y-109564502D01*
X153520518Y-109600812D01*
X153645000Y-109613072D01*
X156415000Y-109613072D01*
X156539482Y-109600812D01*
X156659180Y-109564502D01*
X156769494Y-109505537D01*
X156866185Y-109426185D01*
X156945537Y-109329494D01*
X157004502Y-109219180D01*
X157040812Y-109099482D01*
X157053072Y-108975000D01*
X158146928Y-108975000D01*
X158159188Y-109099482D01*
X158195498Y-109219180D01*
X158254463Y-109329494D01*
X158333815Y-109426185D01*
X158430506Y-109505537D01*
X158540820Y-109564502D01*
X158660518Y-109600812D01*
X158785000Y-109613072D01*
X159884250Y-109610000D01*
X160043000Y-109451250D01*
X160043000Y-107927000D01*
X160297000Y-107927000D01*
X160297000Y-109451250D01*
X160455750Y-109610000D01*
X161555000Y-109613072D01*
X161679482Y-109600812D01*
X161799180Y-109564502D01*
X161909494Y-109505537D01*
X162006185Y-109426185D01*
X162085537Y-109329494D01*
X162144502Y-109219180D01*
X162180812Y-109099482D01*
X162193072Y-108975000D01*
X162190000Y-108085750D01*
X162031250Y-107927000D01*
X160297000Y-107927000D01*
X160043000Y-107927000D01*
X158308750Y-107927000D01*
X158150000Y-108085750D01*
X158146928Y-108975000D01*
X157053072Y-108975000D01*
X157053072Y-106625000D01*
X158146928Y-106625000D01*
X158150000Y-107514250D01*
X158308750Y-107673000D01*
X160043000Y-107673000D01*
X160043000Y-106148750D01*
X160297000Y-106148750D01*
X160297000Y-107673000D01*
X162031250Y-107673000D01*
X162190000Y-107514250D01*
X162193072Y-106625000D01*
X162180812Y-106500518D01*
X162144502Y-106380820D01*
X162085537Y-106270506D01*
X162006185Y-106173815D01*
X161909494Y-106094463D01*
X161799180Y-106035498D01*
X161679482Y-105999188D01*
X161555000Y-105986928D01*
X160455750Y-105990000D01*
X160297000Y-106148750D01*
X160043000Y-106148750D01*
X159884250Y-105990000D01*
X158785000Y-105986928D01*
X158660518Y-105999188D01*
X158540820Y-106035498D01*
X158430506Y-106094463D01*
X158333815Y-106173815D01*
X158254463Y-106270506D01*
X158195498Y-106380820D01*
X158159188Y-106500518D01*
X158146928Y-106625000D01*
X157053072Y-106625000D01*
X157040812Y-106500518D01*
X157004502Y-106380820D01*
X156945537Y-106270506D01*
X156866185Y-106173815D01*
X156769494Y-106094463D01*
X156659180Y-106035498D01*
X156539482Y-105999188D01*
X156415000Y-105986928D01*
X153645000Y-105986928D01*
X153520518Y-105999188D01*
X153400820Y-106035498D01*
X153290506Y-106094463D01*
X153193815Y-106173815D01*
X153114463Y-106270506D01*
X153055498Y-106380820D01*
X153045130Y-106415000D01*
X151019521Y-106415000D01*
X150922241Y-106350000D01*
X151154759Y-106194637D01*
X151354637Y-105994759D01*
X151511680Y-105759727D01*
X151619853Y-105498574D01*
X151675000Y-105221335D01*
X151675000Y-104938665D01*
X151619853Y-104661426D01*
X151511680Y-104400273D01*
X151354637Y-104165241D01*
X151154759Y-103965363D01*
X150919727Y-103808320D01*
X150909135Y-103803933D01*
X151095131Y-103692385D01*
X151303519Y-103503414D01*
X151471037Y-103277420D01*
X151591246Y-103023087D01*
X151631904Y-102889039D01*
X151509915Y-102667000D01*
X150367000Y-102667000D01*
X150367000Y-102687000D01*
X150113000Y-102687000D01*
X150113000Y-102667000D01*
X148970085Y-102667000D01*
X148848096Y-102889039D01*
X148888754Y-103023087D01*
X149008963Y-103277420D01*
X149176481Y-103503414D01*
X149384869Y-103692385D01*
X149570865Y-103803933D01*
X149560273Y-103808320D01*
X149325241Y-103965363D01*
X149125363Y-104165241D01*
X148968320Y-104400273D01*
X148860147Y-104661426D01*
X148805000Y-104938665D01*
X147615000Y-104938665D01*
X147615000Y-95040804D01*
X147698102Y-95075226D01*
X147754957Y-95086535D01*
X149355000Y-96686579D01*
X149355001Y-98865478D01*
X149325241Y-98885363D01*
X149125363Y-99085241D01*
X148968320Y-99320273D01*
X148860147Y-99581426D01*
X148805000Y-99858665D01*
X148805000Y-100141335D01*
X148860147Y-100418574D01*
X148968320Y-100679727D01*
X149125363Y-100914759D01*
X149325241Y-101114637D01*
X149560273Y-101271680D01*
X149570865Y-101276067D01*
X149384869Y-101387615D01*
X149176481Y-101576586D01*
X149008963Y-101802580D01*
X148888754Y-102056913D01*
X148848096Y-102190961D01*
X148970085Y-102413000D01*
X150113000Y-102413000D01*
X150113000Y-102393000D01*
X150367000Y-102393000D01*
X150367000Y-102413000D01*
X151509915Y-102413000D01*
X151631904Y-102190961D01*
X151591246Y-102056913D01*
X151471037Y-101802580D01*
X151303519Y-101576586D01*
X151095131Y-101387615D01*
X150909135Y-101276067D01*
X150919727Y-101271680D01*
X151154759Y-101114637D01*
X151354637Y-100914759D01*
X151497024Y-100701661D01*
X151813686Y-100385000D01*
X153045130Y-100385000D01*
X153055498Y-100419180D01*
X153114463Y-100529494D01*
X153193815Y-100626185D01*
X153290506Y-100705537D01*
X153400820Y-100764502D01*
X153520518Y-100800812D01*
X153645000Y-100813072D01*
X156415000Y-100813072D01*
X156539482Y-100800812D01*
X156659180Y-100764502D01*
X156769494Y-100705537D01*
X156866185Y-100626185D01*
X156945537Y-100529494D01*
X157004502Y-100419180D01*
X157040812Y-100299482D01*
X157053072Y-100175000D01*
X158146928Y-100175000D01*
X158159188Y-100299482D01*
X158195498Y-100419180D01*
X158254463Y-100529494D01*
X158333815Y-100626185D01*
X158430506Y-100705537D01*
X158540820Y-100764502D01*
X158660518Y-100800812D01*
X158785000Y-100813072D01*
X159884250Y-100810000D01*
X160043000Y-100651250D01*
X160043000Y-99127000D01*
X160297000Y-99127000D01*
X160297000Y-100651250D01*
X160455750Y-100810000D01*
X161555000Y-100813072D01*
X161679482Y-100800812D01*
X161799180Y-100764502D01*
X161909494Y-100705537D01*
X162006185Y-100626185D01*
X162085537Y-100529494D01*
X162144502Y-100419180D01*
X162180812Y-100299482D01*
X162193072Y-100175000D01*
X162190000Y-99285750D01*
X162031250Y-99127000D01*
X160297000Y-99127000D01*
X160043000Y-99127000D01*
X158308750Y-99127000D01*
X158150000Y-99285750D01*
X158146928Y-100175000D01*
X157053072Y-100175000D01*
X157053072Y-97825000D01*
X158146928Y-97825000D01*
X158150000Y-98714250D01*
X158308750Y-98873000D01*
X160043000Y-98873000D01*
X160043000Y-97348750D01*
X160297000Y-97348750D01*
X160297000Y-98873000D01*
X162031250Y-98873000D01*
X162190000Y-98714250D01*
X162193072Y-97825000D01*
X162180812Y-97700518D01*
X162144502Y-97580820D01*
X162085537Y-97470506D01*
X162006185Y-97373815D01*
X161909494Y-97294463D01*
X161799180Y-97235498D01*
X161679482Y-97199188D01*
X161555000Y-97186928D01*
X160455750Y-97190000D01*
X160297000Y-97348750D01*
X160043000Y-97348750D01*
X159884250Y-97190000D01*
X158785000Y-97186928D01*
X158660518Y-97199188D01*
X158540820Y-97235498D01*
X158430506Y-97294463D01*
X158333815Y-97373815D01*
X158254463Y-97470506D01*
X158195498Y-97580820D01*
X158159188Y-97700518D01*
X158146928Y-97825000D01*
X157053072Y-97825000D01*
X157040812Y-97700518D01*
X157004502Y-97580820D01*
X156945537Y-97470506D01*
X156866185Y-97373815D01*
X156769494Y-97294463D01*
X156659180Y-97235498D01*
X156539482Y-97199188D01*
X156415000Y-97186928D01*
X153645000Y-97186928D01*
X153520518Y-97199188D01*
X153400820Y-97235498D01*
X153290506Y-97294463D01*
X153193815Y-97373815D01*
X153114463Y-97470506D01*
X153055498Y-97580820D01*
X153045130Y-97615000D01*
X151308037Y-97615000D01*
X151240000Y-97608299D01*
X151125000Y-97619625D01*
X151125000Y-96363465D01*
X151129281Y-96319999D01*
X151125000Y-96276533D01*
X151125000Y-96276523D01*
X151112195Y-96146510D01*
X151061589Y-95979687D01*
X150979411Y-95825941D01*
X150868817Y-95691183D01*
X150835050Y-95663471D01*
X149006535Y-93834957D01*
X148995226Y-93778102D01*
X148917205Y-93589744D01*
X148803937Y-93420226D01*
X148659774Y-93276063D01*
X148490256Y-93162795D01*
X148301898Y-93084774D01*
X148101939Y-93045000D01*
X147898061Y-93045000D01*
X147698102Y-93084774D01*
X147615000Y-93119196D01*
X147615000Y-90595560D01*
X156634045Y-90595560D01*
X156695932Y-90831368D01*
X156937790Y-90944266D01*
X157197027Y-91007811D01*
X157463680Y-91019561D01*
X157727501Y-90979063D01*
X157978353Y-90887875D01*
X158084068Y-90831368D01*
X158145955Y-90595560D01*
X157390000Y-89839605D01*
X156634045Y-90595560D01*
X147615000Y-90595560D01*
X147615000Y-89733680D01*
X156030439Y-89733680D01*
X156070937Y-89997501D01*
X156162125Y-90248353D01*
X156218632Y-90354068D01*
X156454440Y-90415955D01*
X157210395Y-89660000D01*
X157569605Y-89660000D01*
X158325560Y-90415955D01*
X158561368Y-90354068D01*
X158674266Y-90112210D01*
X158737811Y-89852973D01*
X158749561Y-89586320D01*
X158709063Y-89322499D01*
X158617875Y-89071647D01*
X158561368Y-88965932D01*
X158325560Y-88904045D01*
X157569605Y-89660000D01*
X157210395Y-89660000D01*
X156454440Y-88904045D01*
X156218632Y-88965932D01*
X156105734Y-89207790D01*
X156042189Y-89467027D01*
X156030439Y-89733680D01*
X147615000Y-89733680D01*
X147615000Y-88724440D01*
X156634045Y-88724440D01*
X157390000Y-89480395D01*
X158145955Y-88724440D01*
X158084068Y-88488632D01*
X157842210Y-88375734D01*
X157582973Y-88312189D01*
X157316320Y-88300439D01*
X157052499Y-88340937D01*
X156801647Y-88432125D01*
X156695932Y-88488632D01*
X156634045Y-88724440D01*
X147615000Y-88724440D01*
X147615000Y-88055560D01*
X154094045Y-88055560D01*
X154155932Y-88291368D01*
X154397790Y-88404266D01*
X154657027Y-88467811D01*
X154923680Y-88479561D01*
X155187501Y-88439063D01*
X155438353Y-88347875D01*
X155544068Y-88291368D01*
X155605955Y-88055560D01*
X154850000Y-87299605D01*
X154094045Y-88055560D01*
X147615000Y-88055560D01*
X147615000Y-87193680D01*
X153490439Y-87193680D01*
X153530937Y-87457501D01*
X153622125Y-87708353D01*
X153678632Y-87814068D01*
X153914440Y-87875955D01*
X154670395Y-87120000D01*
X155029605Y-87120000D01*
X155785560Y-87875955D01*
X156021368Y-87814068D01*
X156134266Y-87572210D01*
X156197811Y-87312973D01*
X156209561Y-87046320D01*
X156169063Y-86782499D01*
X156077875Y-86531647D01*
X156021368Y-86425932D01*
X155785560Y-86364045D01*
X155029605Y-87120000D01*
X154670395Y-87120000D01*
X153914440Y-86364045D01*
X153678632Y-86425932D01*
X153565734Y-86667790D01*
X153502189Y-86927027D01*
X153490439Y-87193680D01*
X147615000Y-87193680D01*
X147615000Y-86184440D01*
X154094045Y-86184440D01*
X154850000Y-86940395D01*
X155605955Y-86184440D01*
X155544068Y-85948632D01*
X155302210Y-85835734D01*
X155042973Y-85772189D01*
X154776320Y-85760439D01*
X154512499Y-85800937D01*
X154261647Y-85892125D01*
X154155932Y-85948632D01*
X154094045Y-86184440D01*
X147615000Y-86184440D01*
X147615000Y-84744710D01*
X147784871Y-84605301D01*
X147970397Y-84379237D01*
X148108255Y-84121322D01*
X148193148Y-83841468D01*
X148214630Y-83623360D01*
X148214630Y-81676640D01*
X148193148Y-81458532D01*
X148108255Y-81178678D01*
X147970397Y-80920763D01*
X147784871Y-80694699D01*
X147558807Y-80509173D01*
X147300892Y-80371315D01*
X147021038Y-80286422D01*
X146730000Y-80257757D01*
X146438963Y-80286422D01*
X146159109Y-80371315D01*
X145901194Y-80509173D01*
X145675130Y-80694699D01*
X145575000Y-80816708D01*
X145575000Y-80225000D01*
X156316315Y-80225000D01*
X159592550Y-83501236D01*
X159635919Y-83554081D01*
X159688764Y-83597450D01*
X159688766Y-83597452D01*
X159720334Y-83623359D01*
X159846812Y-83727157D01*
X160087419Y-83855764D01*
X160348493Y-83934960D01*
X160551963Y-83955000D01*
X160551971Y-83955000D01*
X160620000Y-83961700D01*
X160688029Y-83955000D01*
X183549207Y-83955000D01*
X183628382Y-84034175D01*
X183937118Y-84240466D01*
X184280166Y-84382561D01*
X184644344Y-84455000D01*
X185015656Y-84455000D01*
X185379834Y-84382561D01*
X185722882Y-84240466D01*
X186031618Y-84034175D01*
X186294175Y-83771618D01*
X186500466Y-83462882D01*
X186642561Y-83119834D01*
X186715000Y-82755656D01*
X186715000Y-82384344D01*
X186642561Y-82020166D01*
X186500466Y-81677118D01*
X186294175Y-81368382D01*
X186031618Y-81105825D01*
X185722882Y-80899534D01*
X185379834Y-80757439D01*
X185015656Y-80685000D01*
X184644344Y-80685000D01*
X184280166Y-80757439D01*
X183937118Y-80899534D01*
X183628382Y-81105825D01*
X183549207Y-81185000D01*
X161193686Y-81185000D01*
X158828686Y-78820000D01*
X182941928Y-78820000D01*
X182954188Y-78944482D01*
X182990498Y-79064180D01*
X183049463Y-79174494D01*
X183128815Y-79271185D01*
X183225506Y-79350537D01*
X183335820Y-79409502D01*
X183455518Y-79445812D01*
X183580000Y-79458072D01*
X184544250Y-79455000D01*
X184703000Y-79296250D01*
X184703000Y-77697000D01*
X184957000Y-77697000D01*
X184957000Y-79296250D01*
X185115750Y-79455000D01*
X186080000Y-79458072D01*
X186204482Y-79445812D01*
X186324180Y-79409502D01*
X186434494Y-79350537D01*
X186531185Y-79271185D01*
X186610537Y-79174494D01*
X186669502Y-79064180D01*
X186705812Y-78944482D01*
X186718072Y-78820000D01*
X186715000Y-77855750D01*
X186556250Y-77697000D01*
X184957000Y-77697000D01*
X184703000Y-77697000D01*
X183103750Y-77697000D01*
X182945000Y-77855750D01*
X182941928Y-78820000D01*
X158828686Y-78820000D01*
X157917454Y-77908769D01*
X157874081Y-77855919D01*
X157663188Y-77682843D01*
X157422581Y-77554236D01*
X157161507Y-77475040D01*
X156958037Y-77455000D01*
X156958029Y-77455000D01*
X156890000Y-77448300D01*
X156821971Y-77455000D01*
X144817969Y-77455000D01*
X144749940Y-77448300D01*
X144681911Y-77455000D01*
X144681903Y-77455000D01*
X144478433Y-77475040D01*
X144217359Y-77554236D01*
X143976752Y-77682843D01*
X143765859Y-77855919D01*
X143722486Y-77908769D01*
X143258765Y-78372490D01*
X143205919Y-78415860D01*
X143162550Y-78468705D01*
X143162548Y-78468707D01*
X143080657Y-78568492D01*
X143032843Y-78626753D01*
X143022588Y-78645939D01*
X143014960Y-78568493D01*
X142935764Y-78307419D01*
X142807157Y-78066812D01*
X142759087Y-78008239D01*
X142677452Y-77908766D01*
X142677445Y-77908759D01*
X142634080Y-77855919D01*
X142581241Y-77812555D01*
X141407454Y-76638769D01*
X141364081Y-76585919D01*
X141153188Y-76412843D01*
X140912581Y-76284236D01*
X140651507Y-76205040D01*
X140448037Y-76185000D01*
X140448029Y-76185000D01*
X140380000Y-76178300D01*
X140311971Y-76185000D01*
X136807113Y-76185000D01*
X136753215Y-76119325D01*
X136687540Y-76065427D01*
X136687540Y-62400577D01*
X136694241Y-62332540D01*
X136667500Y-62061033D01*
X136588304Y-61799959D01*
X136459697Y-61559352D01*
X136329992Y-61401306D01*
X136329985Y-61401299D01*
X136286620Y-61348459D01*
X136233781Y-61305095D01*
X134508407Y-59579721D01*
X158555000Y-59579721D01*
X158555000Y-60000279D01*
X158637047Y-60412756D01*
X158797988Y-60801302D01*
X159031637Y-61150983D01*
X159329017Y-61448363D01*
X159678698Y-61682012D01*
X160067244Y-61842953D01*
X160479721Y-61925000D01*
X160900279Y-61925000D01*
X161312756Y-61842953D01*
X161701302Y-61682012D01*
X162050983Y-61448363D01*
X162324346Y-61175000D01*
X165387301Y-61175000D01*
X165638665Y-61225000D01*
X165921335Y-61225000D01*
X166198574Y-61169853D01*
X166459727Y-61061680D01*
X166694759Y-60904637D01*
X166894637Y-60704759D01*
X167037025Y-60491661D01*
X167775081Y-59753605D01*
X183696000Y-59753605D01*
X183821914Y-60043577D01*
X184154126Y-60209433D01*
X184512312Y-60307290D01*
X184882706Y-60333389D01*
X185251075Y-60286725D01*
X185603262Y-60169094D01*
X185838086Y-60043577D01*
X185964000Y-59753605D01*
X184830000Y-58619605D01*
X183696000Y-59753605D01*
X167775081Y-59753605D01*
X169035980Y-58492706D01*
X182936611Y-58492706D01*
X182983275Y-58861075D01*
X183100906Y-59213262D01*
X183226423Y-59448086D01*
X183516395Y-59574000D01*
X184650395Y-58440000D01*
X185009605Y-58440000D01*
X186143605Y-59574000D01*
X186433577Y-59448086D01*
X186599433Y-59115874D01*
X186697290Y-58757688D01*
X186723389Y-58387294D01*
X186676725Y-58018925D01*
X186559094Y-57666738D01*
X186433577Y-57431914D01*
X186143605Y-57306000D01*
X185009605Y-58440000D01*
X184650395Y-58440000D01*
X183516395Y-57306000D01*
X183226423Y-57431914D01*
X183060567Y-57764126D01*
X182962710Y-58122312D01*
X182936611Y-58492706D01*
X169035980Y-58492706D01*
X170402291Y-57126395D01*
X183696000Y-57126395D01*
X184830000Y-58260395D01*
X185964000Y-57126395D01*
X185838086Y-56836423D01*
X185505874Y-56670567D01*
X185147688Y-56572710D01*
X184777294Y-56546611D01*
X184408925Y-56593275D01*
X184056738Y-56710906D01*
X183821914Y-56836423D01*
X183696000Y-57126395D01*
X170402291Y-57126395D01*
X172703686Y-54825000D01*
X182957379Y-54825000D01*
X182990498Y-54934180D01*
X183049463Y-55044494D01*
X183128815Y-55141185D01*
X183225506Y-55220537D01*
X183335820Y-55279502D01*
X183455518Y-55315812D01*
X183580000Y-55328072D01*
X186080000Y-55328072D01*
X186204482Y-55315812D01*
X186324180Y-55279502D01*
X186434494Y-55220537D01*
X186531185Y-55141185D01*
X186610537Y-55044494D01*
X186669502Y-54934180D01*
X186705812Y-54814482D01*
X186718072Y-54690000D01*
X186718072Y-52190000D01*
X186705812Y-52065518D01*
X186669502Y-51945820D01*
X186610537Y-51835506D01*
X186531185Y-51738815D01*
X186434494Y-51659463D01*
X186324180Y-51600498D01*
X186204482Y-51564188D01*
X186080000Y-51551928D01*
X183580000Y-51551928D01*
X183455518Y-51564188D01*
X183335820Y-51600498D01*
X183225506Y-51659463D01*
X183128815Y-51738815D01*
X183049463Y-51835506D01*
X182990498Y-51945820D01*
X182957379Y-52055000D01*
X173666203Y-52055000D01*
X173742534Y-52014201D01*
X173795922Y-51785527D01*
X173090000Y-51079605D01*
X173075858Y-51093748D01*
X172896253Y-50914143D01*
X172910395Y-50900000D01*
X173269605Y-50900000D01*
X173975527Y-51605922D01*
X174204201Y-51552534D01*
X174310095Y-51322626D01*
X174369102Y-51076476D01*
X174378952Y-50823545D01*
X174339270Y-50573551D01*
X174251578Y-50336104D01*
X174204201Y-50247466D01*
X173975527Y-50194078D01*
X173269605Y-50900000D01*
X172910395Y-50900000D01*
X172204473Y-50194078D01*
X171975799Y-50247466D01*
X171869905Y-50477374D01*
X171810898Y-50723524D01*
X171801048Y-50976455D01*
X171834239Y-51185554D01*
X170875820Y-50227135D01*
X170865812Y-50125518D01*
X170832127Y-50014473D01*
X172384078Y-50014473D01*
X173090000Y-50720395D01*
X173795922Y-50014473D01*
X173742534Y-49785799D01*
X173512626Y-49679905D01*
X173266476Y-49620898D01*
X173013545Y-49611048D01*
X172763551Y-49650730D01*
X172526104Y-49738422D01*
X172437466Y-49785799D01*
X172384078Y-50014473D01*
X170832127Y-50014473D01*
X170829502Y-50005820D01*
X170770537Y-49895506D01*
X170691185Y-49798815D01*
X170594494Y-49719463D01*
X170484180Y-49660498D01*
X170364482Y-49624188D01*
X170240000Y-49611928D01*
X170114972Y-49611928D01*
X169861507Y-49535040D01*
X169590000Y-49508300D01*
X169318493Y-49535040D01*
X169065028Y-49611928D01*
X168940000Y-49611928D01*
X168815518Y-49624188D01*
X168695820Y-49660498D01*
X168585506Y-49719463D01*
X168488815Y-49798815D01*
X168409463Y-49895506D01*
X168350498Y-50005820D01*
X168314188Y-50125518D01*
X168301928Y-50250000D01*
X168301928Y-50375028D01*
X168225040Y-50628493D01*
X168198300Y-50900000D01*
X168225040Y-51171507D01*
X168301928Y-51424972D01*
X168301928Y-51550000D01*
X168314188Y-51674482D01*
X168350498Y-51794180D01*
X168409463Y-51904494D01*
X168488815Y-52001185D01*
X168585506Y-52080537D01*
X168695820Y-52139502D01*
X168815518Y-52175812D01*
X168917135Y-52185820D01*
X170171315Y-53440000D01*
X165206315Y-58405000D01*
X162324346Y-58405000D01*
X162050983Y-58131637D01*
X161701302Y-57897988D01*
X161312756Y-57737047D01*
X160900279Y-57655000D01*
X160479721Y-57655000D01*
X160067244Y-57737047D01*
X159678698Y-57897988D01*
X159329017Y-58131637D01*
X159031637Y-58429017D01*
X158797988Y-58778698D01*
X158637047Y-59167244D01*
X158555000Y-59579721D01*
X134508407Y-59579721D01*
X133787452Y-58858767D01*
X133744081Y-58805919D01*
X133533188Y-58632843D01*
X133292581Y-58504236D01*
X133174737Y-58468488D01*
X133148363Y-58429017D01*
X132850983Y-58131637D01*
X132501302Y-57897988D01*
X132112756Y-57737047D01*
X131700279Y-57655000D01*
X131279721Y-57655000D01*
X130867244Y-57737047D01*
X130478698Y-57897988D01*
X130129017Y-58131637D01*
X129831637Y-58429017D01*
X129597988Y-58778698D01*
X129437047Y-59167244D01*
X129355000Y-59579721D01*
X129355000Y-60000279D01*
X129437047Y-60412756D01*
X129597988Y-60801302D01*
X129831637Y-61150983D01*
X130129017Y-61448363D01*
X130478698Y-61682012D01*
X130867244Y-61842953D01*
X131279721Y-61925000D01*
X131700279Y-61925000D01*
X132112756Y-61842953D01*
X132501302Y-61682012D01*
X132616412Y-61605098D01*
X133917540Y-62906226D01*
X133917541Y-76065426D01*
X133851865Y-76119325D01*
X133772513Y-76216016D01*
X133713548Y-76326330D01*
X133677238Y-76446028D01*
X133664978Y-76570510D01*
X133664978Y-78569490D01*
X133677238Y-78693972D01*
X133713548Y-78813670D01*
X133772513Y-78923984D01*
X133851865Y-79020675D01*
X133948556Y-79100027D01*
X134058870Y-79158992D01*
X134178568Y-79195302D01*
X134303050Y-79207562D01*
X136302030Y-79207562D01*
X136426512Y-79195302D01*
X136546210Y-79158992D01*
X136656524Y-79100027D01*
X136753215Y-79020675D01*
X136807113Y-78955000D01*
X139806315Y-78955000D01*
X140265000Y-79413686D01*
X140265001Y-81200914D01*
X140186853Y-81458532D01*
X140165370Y-81676640D01*
X140165370Y-83623359D01*
X140186852Y-83841467D01*
X140271745Y-84121321D01*
X140409603Y-84379236D01*
X140595129Y-84605301D01*
X140821193Y-84790827D01*
X141079108Y-84928685D01*
X141358962Y-85013578D01*
X141650000Y-85042243D01*
X141941037Y-85013578D01*
X142220891Y-84928685D01*
X142478806Y-84790827D01*
X142704871Y-84605301D01*
X142890397Y-84379237D01*
X142920000Y-84323853D01*
X142949603Y-84379236D01*
X143135129Y-84605301D01*
X143361193Y-84790827D01*
X143619108Y-84928685D01*
X143898962Y-85013578D01*
X144190000Y-85042243D01*
X144481037Y-85013578D01*
X144760891Y-84928685D01*
X145018806Y-84790827D01*
X145244871Y-84605301D01*
X145430397Y-84379237D01*
X145460000Y-84323853D01*
X145489603Y-84379236D01*
X145675129Y-84605301D01*
X145845001Y-84744711D01*
X145845000Y-108223421D01*
X136434130Y-117634292D01*
X136379853Y-117361426D01*
X136271680Y-117100273D01*
X136114637Y-116865241D01*
X135914759Y-116665363D01*
X135682241Y-116510000D01*
X135914759Y-116354637D01*
X136114637Y-116154759D01*
X136271680Y-115919727D01*
X136379853Y-115658574D01*
X136435000Y-115381335D01*
X136435000Y-115098665D01*
X136379853Y-114821426D01*
X136271680Y-114560273D01*
X136114637Y-114325241D01*
X135914759Y-114125363D01*
X135682241Y-113970000D01*
X135914759Y-113814637D01*
X136114637Y-113614759D01*
X136271680Y-113379727D01*
X136379853Y-113118574D01*
X136435000Y-112841335D01*
X136435000Y-112558665D01*
X136379853Y-112281426D01*
X136271680Y-112020273D01*
X136114637Y-111785241D01*
X135914759Y-111585363D01*
X135682241Y-111430000D01*
X135914759Y-111274637D01*
X136114637Y-111074759D01*
X136271680Y-110839727D01*
X136379853Y-110578574D01*
X136435000Y-110301335D01*
X136435000Y-110018665D01*
X136379853Y-109741426D01*
X136271680Y-109480273D01*
X136114637Y-109245241D01*
X135914759Y-109045363D01*
X135679727Y-108888320D01*
X135669135Y-108883933D01*
X135855131Y-108772385D01*
X136063519Y-108583414D01*
X136231037Y-108357420D01*
X136351246Y-108103087D01*
X136391904Y-107969039D01*
X136269915Y-107747000D01*
X135127000Y-107747000D01*
X135127000Y-107767000D01*
X134873000Y-107767000D01*
X134873000Y-107747000D01*
X134853000Y-107747000D01*
X134853000Y-107493000D01*
X134873000Y-107493000D01*
X134873000Y-107473000D01*
X135127000Y-107473000D01*
X135127000Y-107493000D01*
X136269915Y-107493000D01*
X136391904Y-107270961D01*
X136351246Y-107136913D01*
X136231037Y-106882580D01*
X136063519Y-106656586D01*
X135855131Y-106467615D01*
X135669135Y-106356067D01*
X135679727Y-106351680D01*
X135914759Y-106194637D01*
X136114637Y-105994759D01*
X136271680Y-105759727D01*
X136379853Y-105498574D01*
X136435000Y-105221335D01*
X136435000Y-104938665D01*
X136379853Y-104661426D01*
X136271680Y-104400273D01*
X136114637Y-104165241D01*
X135914759Y-103965363D01*
X135682241Y-103810000D01*
X135914759Y-103654637D01*
X136114637Y-103454759D01*
X136271680Y-103219727D01*
X136379853Y-102958574D01*
X136435000Y-102681335D01*
X136435000Y-102398665D01*
X136379853Y-102121426D01*
X136271680Y-101860273D01*
X136114637Y-101625241D01*
X135916039Y-101426643D01*
X135924482Y-101425812D01*
X136044180Y-101389502D01*
X136154494Y-101330537D01*
X136251185Y-101251185D01*
X136330537Y-101154494D01*
X136389502Y-101044180D01*
X136425812Y-100924482D01*
X136438072Y-100800000D01*
X136438072Y-99200000D01*
X136425812Y-99075518D01*
X136389502Y-98955820D01*
X136330537Y-98845506D01*
X136251185Y-98748815D01*
X136154494Y-98669463D01*
X136044180Y-98610498D01*
X135924482Y-98574188D01*
X135800000Y-98561928D01*
X134634999Y-98561928D01*
X134634999Y-93843468D01*
X134639280Y-93799999D01*
X134634999Y-93756530D01*
X134634999Y-93756522D01*
X134622194Y-93626509D01*
X134571588Y-93459686D01*
X134489410Y-93305940D01*
X134464890Y-93276063D01*
X134406531Y-93204952D01*
X134406529Y-93204950D01*
X134378816Y-93171182D01*
X134345048Y-93143469D01*
X132106534Y-90904956D01*
X132078817Y-90871183D01*
X131944059Y-90760589D01*
X131790313Y-90678411D01*
X131623490Y-90627805D01*
X131493477Y-90615000D01*
X131493469Y-90615000D01*
X131450000Y-90610719D01*
X131406531Y-90615000D01*
X130794656Y-90615000D01*
X130753475Y-90553368D01*
X130546632Y-90346525D01*
X130364466Y-90224805D01*
X130481355Y-90155178D01*
X130697588Y-89960269D01*
X130871641Y-89726920D01*
X130996825Y-89464099D01*
X131041476Y-89316890D01*
X130920155Y-89087000D01*
X129727000Y-89087000D01*
X129727000Y-89107000D01*
X129473000Y-89107000D01*
X129473000Y-89087000D01*
X128279845Y-89087000D01*
X128158524Y-89316890D01*
X128203175Y-89464099D01*
X128328359Y-89726920D01*
X128502412Y-89960269D01*
X128718645Y-90155178D01*
X128835534Y-90224805D01*
X128653368Y-90346525D01*
X128446525Y-90553368D01*
X128284010Y-90796589D01*
X128172068Y-91066842D01*
X128115000Y-91353740D01*
X128115000Y-91646260D01*
X128172068Y-91933158D01*
X128284010Y-92203411D01*
X128446525Y-92446632D01*
X128653368Y-92653475D01*
X128827760Y-92770000D01*
X128653368Y-92886525D01*
X128446525Y-93093368D01*
X128284010Y-93336589D01*
X128172068Y-93606842D01*
X128115000Y-93893740D01*
X128115000Y-94186260D01*
X128172068Y-94473158D01*
X128284010Y-94743411D01*
X128446525Y-94986632D01*
X128653368Y-95193475D01*
X128827760Y-95310000D01*
X128653368Y-95426525D01*
X128446525Y-95633368D01*
X128284010Y-95876589D01*
X128172068Y-96146842D01*
X128115000Y-96433740D01*
X128115000Y-96726260D01*
X128172068Y-97013158D01*
X128284010Y-97283411D01*
X128446525Y-97526632D01*
X128653368Y-97733475D01*
X128827760Y-97850000D01*
X128653368Y-97966525D01*
X128446525Y-98173368D01*
X128405344Y-98235000D01*
X128006579Y-98235000D01*
X127295000Y-97523422D01*
X127295000Y-88865050D01*
X134347095Y-88865050D01*
X134442798Y-89129399D01*
X134732327Y-89270238D01*
X135043769Y-89351885D01*
X135365155Y-89371205D01*
X135684135Y-89327454D01*
X135988451Y-89222314D01*
X136162282Y-89129399D01*
X136257985Y-88865050D01*
X135302540Y-87909605D01*
X134347095Y-88865050D01*
X127295000Y-88865050D01*
X127295000Y-83016578D01*
X128086579Y-82225000D01*
X128405344Y-82225000D01*
X128446525Y-82286632D01*
X128653368Y-82493475D01*
X128827760Y-82610000D01*
X128653368Y-82726525D01*
X128446525Y-82933368D01*
X128284010Y-83176589D01*
X128172068Y-83446842D01*
X128115000Y-83733740D01*
X128115000Y-84026260D01*
X128172068Y-84313158D01*
X128284010Y-84583411D01*
X128446525Y-84826632D01*
X128653368Y-85033475D01*
X128827760Y-85150000D01*
X128653368Y-85266525D01*
X128446525Y-85473368D01*
X128284010Y-85716589D01*
X128172068Y-85986842D01*
X128115000Y-86273740D01*
X128115000Y-86566260D01*
X128172068Y-86853158D01*
X128284010Y-87123411D01*
X128446525Y-87366632D01*
X128653368Y-87573475D01*
X128835534Y-87695195D01*
X128718645Y-87764822D01*
X128502412Y-87959731D01*
X128328359Y-88193080D01*
X128203175Y-88455901D01*
X128158524Y-88603110D01*
X128279845Y-88833000D01*
X129473000Y-88833000D01*
X129473000Y-88813000D01*
X129727000Y-88813000D01*
X129727000Y-88833000D01*
X130920155Y-88833000D01*
X131041476Y-88603110D01*
X130996825Y-88455901D01*
X130871641Y-88193080D01*
X130697588Y-87959731D01*
X130512189Y-87792615D01*
X133661335Y-87792615D01*
X133705086Y-88111595D01*
X133810226Y-88415911D01*
X133903141Y-88589742D01*
X134167490Y-88685445D01*
X135122935Y-87730000D01*
X135482145Y-87730000D01*
X136437590Y-88685445D01*
X136701939Y-88589742D01*
X136842778Y-88300213D01*
X136924425Y-87988771D01*
X136943745Y-87667385D01*
X136899994Y-87348405D01*
X136794854Y-87044089D01*
X136701939Y-86870258D01*
X136437590Y-86774555D01*
X135482145Y-87730000D01*
X135122935Y-87730000D01*
X134167490Y-86774555D01*
X133903141Y-86870258D01*
X133762302Y-87159787D01*
X133680655Y-87471229D01*
X133661335Y-87792615D01*
X130512189Y-87792615D01*
X130481355Y-87764822D01*
X130364466Y-87695195D01*
X130546632Y-87573475D01*
X130753475Y-87366632D01*
X130767929Y-87345000D01*
X132221546Y-87345000D01*
X132269744Y-87377205D01*
X132458102Y-87455226D01*
X132658061Y-87495000D01*
X132861939Y-87495000D01*
X133061898Y-87455226D01*
X133250256Y-87377205D01*
X133419774Y-87263937D01*
X133563937Y-87119774D01*
X133677205Y-86950256D01*
X133755226Y-86761898D01*
X133788433Y-86594950D01*
X134347095Y-86594950D01*
X135302540Y-87550395D01*
X136257985Y-86594950D01*
X136162282Y-86330601D01*
X135872753Y-86189762D01*
X135561311Y-86108115D01*
X135239925Y-86088795D01*
X134920945Y-86132546D01*
X134616629Y-86237686D01*
X134442798Y-86330601D01*
X134347095Y-86594950D01*
X133788433Y-86594950D01*
X133795000Y-86561939D01*
X133795000Y-86358061D01*
X133755226Y-86158102D01*
X133677205Y-85969744D01*
X133563937Y-85800226D01*
X133419774Y-85656063D01*
X133250256Y-85542795D01*
X133061898Y-85464774D01*
X132861939Y-85425000D01*
X132658061Y-85425000D01*
X132458102Y-85464774D01*
X132269744Y-85542795D01*
X132221546Y-85575000D01*
X130821383Y-85575000D01*
X130753475Y-85473368D01*
X130546632Y-85266525D01*
X130372240Y-85150000D01*
X130546632Y-85033475D01*
X130753475Y-84826632D01*
X130915990Y-84583411D01*
X131027932Y-84313158D01*
X131085000Y-84026260D01*
X131085000Y-83733740D01*
X131070539Y-83661039D01*
X133355049Y-81376530D01*
X133388817Y-81348817D01*
X133499411Y-81214059D01*
X133581589Y-81060313D01*
X133632195Y-80893490D01*
X133645000Y-80763477D01*
X133645000Y-80763469D01*
X133649281Y-80720000D01*
X133645000Y-80676531D01*
X133645000Y-75568454D01*
X133677205Y-75520256D01*
X133755226Y-75331898D01*
X133795000Y-75131939D01*
X133795000Y-74928061D01*
X133755226Y-74728102D01*
X133677205Y-74539744D01*
X133563937Y-74370226D01*
X133419774Y-74226063D01*
X133250256Y-74112795D01*
X133061898Y-74034774D01*
X132861939Y-73995000D01*
X132658061Y-73995000D01*
X132458102Y-74034774D01*
X132269744Y-74112795D01*
X132100226Y-74226063D01*
X131956063Y-74370226D01*
X131842795Y-74539744D01*
X131764774Y-74728102D01*
X131725000Y-74928061D01*
X131725000Y-75131939D01*
X131764774Y-75331898D01*
X131842795Y-75520256D01*
X131875000Y-75568454D01*
X131875001Y-80353420D01*
X131076652Y-81151770D01*
X131027932Y-80906842D01*
X130915990Y-80636589D01*
X130753475Y-80393368D01*
X130621620Y-80261513D01*
X130694180Y-80239502D01*
X130804494Y-80180537D01*
X130901185Y-80101185D01*
X130980537Y-80004494D01*
X131039502Y-79894180D01*
X131075812Y-79774482D01*
X131088072Y-79650000D01*
X131085000Y-79085750D01*
X130926250Y-78927000D01*
X129727000Y-78927000D01*
X129727000Y-78947000D01*
X129473000Y-78947000D01*
X129473000Y-78927000D01*
X128273750Y-78927000D01*
X128115000Y-79085750D01*
X128111928Y-79650000D01*
X128124188Y-79774482D01*
X128160498Y-79894180D01*
X128219463Y-80004494D01*
X128298815Y-80101185D01*
X128395506Y-80180537D01*
X128505820Y-80239502D01*
X128578380Y-80261513D01*
X128446525Y-80393368D01*
X128405344Y-80455000D01*
X127763469Y-80455000D01*
X127720000Y-80450719D01*
X127676531Y-80455000D01*
X127676523Y-80455000D01*
X127546510Y-80467805D01*
X127379687Y-80518411D01*
X127327117Y-80546510D01*
X127225941Y-80600589D01*
X127124953Y-80683468D01*
X127124951Y-80683470D01*
X127091183Y-80711183D01*
X127063470Y-80744951D01*
X125814956Y-81993466D01*
X125781183Y-82021183D01*
X125670589Y-82155942D01*
X125588411Y-82309688D01*
X125537805Y-82476511D01*
X125525000Y-82606524D01*
X125525000Y-82606531D01*
X125520719Y-82650000D01*
X125525000Y-82693469D01*
X125525001Y-97846514D01*
X125525000Y-97846524D01*
X125525000Y-97846531D01*
X125520719Y-97890000D01*
X125525000Y-97933469D01*
X125525001Y-106241544D01*
X125492795Y-106289744D01*
X125414774Y-106478102D01*
X125375000Y-106678061D01*
X123997000Y-106678061D01*
X123997000Y-77950000D01*
X128111928Y-77950000D01*
X128115000Y-78514250D01*
X128273750Y-78673000D01*
X129473000Y-78673000D01*
X129473000Y-77473750D01*
X129727000Y-77473750D01*
X129727000Y-78673000D01*
X130926250Y-78673000D01*
X131085000Y-78514250D01*
X131088072Y-77950000D01*
X131075812Y-77825518D01*
X131039502Y-77705820D01*
X130980537Y-77595506D01*
X130901185Y-77498815D01*
X130804494Y-77419463D01*
X130694180Y-77360498D01*
X130574482Y-77324188D01*
X130450000Y-77311928D01*
X129885750Y-77315000D01*
X129727000Y-77473750D01*
X129473000Y-77473750D01*
X129314250Y-77315000D01*
X128750000Y-77311928D01*
X128625518Y-77324188D01*
X128505820Y-77360498D01*
X128395506Y-77419463D01*
X128298815Y-77498815D01*
X128219463Y-77595506D01*
X128160498Y-77705820D01*
X128124188Y-77825518D01*
X128111928Y-77950000D01*
X123997000Y-77950000D01*
X123997000Y-44461682D01*
X124165000Y-44461682D01*
X124165000Y-45138318D01*
X124297006Y-45801952D01*
X124555943Y-46427082D01*
X124931862Y-46989685D01*
X125410315Y-47468138D01*
X125972918Y-47844057D01*
X126598048Y-48102994D01*
X127261682Y-48235000D01*
X127938318Y-48235000D01*
X128601952Y-48102994D01*
X129227082Y-47844057D01*
X129789685Y-47468138D01*
X130268138Y-46989685D01*
X130644057Y-46427082D01*
X130902994Y-45801952D01*
X131035000Y-45138318D01*
X131035000Y-44461682D01*
X184165000Y-44461682D01*
X184165000Y-45138318D01*
X184297006Y-45801952D01*
X184555943Y-46427082D01*
X184931862Y-46989685D01*
X185410315Y-47468138D01*
X185972918Y-47844057D01*
X186598048Y-48102994D01*
X187261682Y-48235000D01*
X187938318Y-48235000D01*
X188601952Y-48102994D01*
X189227082Y-47844057D01*
X189789685Y-47468138D01*
X190268138Y-46989685D01*
X190644057Y-46427082D01*
X190902994Y-45801952D01*
X191035000Y-45138318D01*
X191035000Y-44461682D01*
X190902994Y-43798048D01*
X190644057Y-43172918D01*
X190268138Y-42610315D01*
X189789685Y-42131862D01*
X189227082Y-41755943D01*
X188601952Y-41497006D01*
X187938318Y-41365000D01*
X187261682Y-41365000D01*
X186598048Y-41497006D01*
X185972918Y-41755943D01*
X185410315Y-42131862D01*
X184931862Y-42610315D01*
X184555943Y-43172918D01*
X184297006Y-43798048D01*
X184165000Y-44461682D01*
X131035000Y-44461682D01*
X130902994Y-43798048D01*
X130644057Y-43172918D01*
X130268138Y-42610315D01*
X129789685Y-42131862D01*
X129227082Y-41755943D01*
X128601952Y-41497006D01*
X127938318Y-41365000D01*
X127261682Y-41365000D01*
X126598048Y-41497006D01*
X125972918Y-41755943D01*
X125410315Y-42131862D01*
X124931862Y-42610315D01*
X124555943Y-43172918D01*
X124297006Y-43798048D01*
X124165000Y-44461682D01*
X123997000Y-44461682D01*
X123997000Y-42410677D01*
X124316626Y-41965870D01*
X124870403Y-41429223D01*
X125510451Y-40999129D01*
X125811448Y-40867000D01*
X189389356Y-40867000D01*
X189807905Y-41066638D01*
%TA.AperFunction,Conductor*%
D30*
G36*
X189807905Y-41066638D02*
G01*
X190434130Y-41516626D01*
X190970777Y-42070403D01*
X191053000Y-42192764D01*
X191053000Y-137398070D01*
X190883374Y-137634130D01*
X190329597Y-138170777D01*
X189984012Y-138403000D01*
X125210677Y-138403000D01*
X124765870Y-138083374D01*
X124229223Y-137529597D01*
X123997000Y-137184012D01*
X123997000Y-134461682D01*
X124165000Y-134461682D01*
X124165000Y-135138318D01*
X124297006Y-135801952D01*
X124555943Y-136427082D01*
X124931862Y-136989685D01*
X125410315Y-137468138D01*
X125972918Y-137844057D01*
X126598048Y-138102994D01*
X127261682Y-138235000D01*
X127938318Y-138235000D01*
X128601952Y-138102994D01*
X129227082Y-137844057D01*
X129789685Y-137468138D01*
X130268138Y-136989685D01*
X130644057Y-136427082D01*
X130902994Y-135801952D01*
X131035000Y-135138318D01*
X131035000Y-134461682D01*
X130902994Y-133798048D01*
X130644057Y-133172918D01*
X130268138Y-132610315D01*
X129789685Y-132131862D01*
X129227082Y-131755943D01*
X128601952Y-131497006D01*
X127938318Y-131365000D01*
X127261682Y-131365000D01*
X126598048Y-131497006D01*
X125972918Y-131755943D01*
X125410315Y-132131862D01*
X124931862Y-132610315D01*
X124555943Y-133172918D01*
X124297006Y-133798048D01*
X124165000Y-134461682D01*
X123997000Y-134461682D01*
X123997000Y-106678061D01*
X125375000Y-106678061D01*
X125375000Y-106881939D01*
X125414774Y-107081898D01*
X125492795Y-107270256D01*
X125606063Y-107439774D01*
X125750226Y-107583937D01*
X125919744Y-107697205D01*
X126108102Y-107775226D01*
X126308061Y-107815000D01*
X126511939Y-107815000D01*
X126711898Y-107775226D01*
X126900256Y-107697205D01*
X127069774Y-107583937D01*
X127213937Y-107439774D01*
X127327205Y-107270256D01*
X127405226Y-107081898D01*
X127445000Y-106881939D01*
X127445000Y-106678061D01*
X127405226Y-106478102D01*
X127327205Y-106289744D01*
X127295000Y-106241546D01*
X127295000Y-102016890D01*
X128158524Y-102016890D01*
X128203175Y-102164099D01*
X128328359Y-102426920D01*
X128502412Y-102660269D01*
X128718645Y-102855178D01*
X128968748Y-103004157D01*
X129243109Y-103101481D01*
X129473000Y-102980814D01*
X129473000Y-101787000D01*
X128279845Y-101787000D01*
X128158524Y-102016890D01*
X127295000Y-102016890D01*
X127295000Y-99939084D01*
X127299686Y-99941589D01*
X127439762Y-99984081D01*
X127466510Y-99992195D01*
X127596523Y-100005000D01*
X127596531Y-100005000D01*
X127640000Y-100009281D01*
X127683469Y-100005000D01*
X128405344Y-100005000D01*
X128446525Y-100066632D01*
X128653368Y-100273475D01*
X128835534Y-100395195D01*
X128718645Y-100464822D01*
X128502412Y-100659731D01*
X128328359Y-100893080D01*
X128203175Y-101155901D01*
X128158524Y-101303110D01*
X128279845Y-101533000D01*
X129473000Y-101533000D01*
X129473000Y-101513000D01*
X129727000Y-101513000D01*
X129727000Y-101533000D01*
X129747000Y-101533000D01*
X129747000Y-101787000D01*
X129727000Y-101787000D01*
X129727000Y-102980814D01*
X129956891Y-103101481D01*
X130231252Y-103004157D01*
X130481355Y-102855178D01*
X130605001Y-102743726D01*
X130605000Y-111686531D01*
X130600719Y-111730000D01*
X130605000Y-111773469D01*
X130605000Y-111773476D01*
X130617805Y-111903489D01*
X130668411Y-112070312D01*
X130750589Y-112224058D01*
X130861183Y-112358817D01*
X130894956Y-112386534D01*
X133571983Y-115063561D01*
X133565000Y-115098665D01*
X133565000Y-115381335D01*
X133620147Y-115658574D01*
X133728320Y-115919727D01*
X133885363Y-116154759D01*
X134085241Y-116354637D01*
X134317759Y-116510000D01*
X134085241Y-116665363D01*
X133885363Y-116865241D01*
X133728320Y-117100273D01*
X133620147Y-117361426D01*
X133565000Y-117638665D01*
X133565000Y-117921335D01*
X133620147Y-118198574D01*
X133728320Y-118459727D01*
X133885363Y-118694759D01*
X134085241Y-118894637D01*
X134317759Y-119050000D01*
X134085241Y-119205363D01*
X133885363Y-119405241D01*
X133728320Y-119640273D01*
X133620147Y-119901426D01*
X133565000Y-120178665D01*
X133565000Y-120461335D01*
X133620147Y-120738574D01*
X133728320Y-120999727D01*
X133885363Y-121234759D01*
X134085241Y-121434637D01*
X134317759Y-121590000D01*
X134085241Y-121745363D01*
X133885363Y-121945241D01*
X133728320Y-122180273D01*
X133620147Y-122441426D01*
X133565000Y-122718665D01*
X133565000Y-123001335D01*
X133620147Y-123278574D01*
X133728320Y-123539727D01*
X133885363Y-123774759D01*
X134085241Y-123974637D01*
X134317759Y-124130000D01*
X134085241Y-124285363D01*
X133885363Y-124485241D01*
X133728320Y-124720273D01*
X133620147Y-124981426D01*
X133565000Y-125258665D01*
X133565000Y-125541335D01*
X133620147Y-125818574D01*
X133728320Y-126079727D01*
X133885363Y-126314759D01*
X134085241Y-126514637D01*
X134317759Y-126670000D01*
X134085241Y-126825363D01*
X133885363Y-127025241D01*
X133728320Y-127260273D01*
X133620147Y-127521426D01*
X133565000Y-127798665D01*
X133565000Y-128081335D01*
X133620147Y-128358574D01*
X133728320Y-128619727D01*
X133885363Y-128854759D01*
X134085241Y-129054637D01*
X134317759Y-129210000D01*
X134085241Y-129365363D01*
X133885363Y-129565241D01*
X133728320Y-129800273D01*
X133620147Y-130061426D01*
X133565000Y-130338665D01*
X133565000Y-130621335D01*
X133620147Y-130898574D01*
X133728320Y-131159727D01*
X133885363Y-131394759D01*
X134085241Y-131594637D01*
X134317759Y-131750000D01*
X134085241Y-131905363D01*
X133885363Y-132105241D01*
X133728320Y-132340273D01*
X133620147Y-132601426D01*
X133565000Y-132878665D01*
X133565000Y-133161335D01*
X133620147Y-133438574D01*
X133728320Y-133699727D01*
X133885363Y-133934759D01*
X134085241Y-134134637D01*
X134317759Y-134290000D01*
X134085241Y-134445363D01*
X133885363Y-134645241D01*
X133728320Y-134880273D01*
X133620147Y-135141426D01*
X133565000Y-135418665D01*
X133565000Y-135701335D01*
X133620147Y-135978574D01*
X133728320Y-136239727D01*
X133885363Y-136474759D01*
X134085241Y-136674637D01*
X134320273Y-136831680D01*
X134581426Y-136939853D01*
X134858665Y-136995000D01*
X135141335Y-136995000D01*
X135418574Y-136939853D01*
X135679727Y-136831680D01*
X135914759Y-136674637D01*
X136114637Y-136474759D01*
X136271680Y-136239727D01*
X136379853Y-135978574D01*
X136435000Y-135701335D01*
X136435000Y-135418665D01*
X136379853Y-135141426D01*
X136271680Y-134880273D01*
X136114637Y-134645241D01*
X135914759Y-134445363D01*
X135682241Y-134290000D01*
X135914759Y-134134637D01*
X136114637Y-133934759D01*
X136271680Y-133699727D01*
X136379853Y-133438574D01*
X136435000Y-133161335D01*
X136435000Y-132878665D01*
X136379853Y-132601426D01*
X136271680Y-132340273D01*
X136114637Y-132105241D01*
X135914759Y-131905363D01*
X135682241Y-131750000D01*
X135914759Y-131594637D01*
X136114637Y-131394759D01*
X136271680Y-131159727D01*
X136379853Y-130898574D01*
X136435000Y-130621335D01*
X136435000Y-130338665D01*
X136379853Y-130061426D01*
X136271680Y-129800273D01*
X136114637Y-129565241D01*
X135914759Y-129365363D01*
X135682241Y-129210000D01*
X135914759Y-129054637D01*
X136114637Y-128854759D01*
X136271680Y-128619727D01*
X136379853Y-128358574D01*
X136435000Y-128081335D01*
X136435000Y-127798665D01*
X136379853Y-127521426D01*
X136271680Y-127260273D01*
X136114637Y-127025241D01*
X135914759Y-126825363D01*
X135682241Y-126670000D01*
X135914759Y-126514637D01*
X136114637Y-126314759D01*
X136271680Y-126079727D01*
X136379853Y-125818574D01*
X136435000Y-125541335D01*
X136435000Y-125258665D01*
X136379853Y-124981426D01*
X136271680Y-124720273D01*
X136114637Y-124485241D01*
X135914759Y-124285363D01*
X135682241Y-124130000D01*
X135914759Y-123974637D01*
X136114637Y-123774759D01*
X136271680Y-123539727D01*
X136379853Y-123278574D01*
X136435000Y-123001335D01*
X136435000Y-122718665D01*
X136379853Y-122441426D01*
X136271680Y-122180273D01*
X136114637Y-121945241D01*
X135914759Y-121745363D01*
X135682241Y-121590000D01*
X135914759Y-121434637D01*
X136114637Y-121234759D01*
X136271680Y-120999727D01*
X136379853Y-120738574D01*
X136435000Y-120461335D01*
X136435000Y-120178665D01*
X136428017Y-120143561D01*
X147325051Y-109246528D01*
X147358817Y-109218817D01*
X147386571Y-109185000D01*
X147445210Y-109113548D01*
X147469411Y-109084059D01*
X147551589Y-108930313D01*
X147602195Y-108763490D01*
X147615000Y-108633477D01*
X147615000Y-108633467D01*
X147619281Y-108590001D01*
X147615000Y-108546534D01*
X147615000Y-104938665D01*
X148805000Y-104938665D01*
X148805000Y-105221335D01*
X148860147Y-105498574D01*
X148968320Y-105759727D01*
X149125363Y-105994759D01*
X149325241Y-106194637D01*
X149557759Y-106350000D01*
X149325241Y-106505363D01*
X149125363Y-106705241D01*
X148968320Y-106940273D01*
X148860147Y-107201426D01*
X148805000Y-107478665D01*
X148805000Y-107761335D01*
X148860147Y-108038574D01*
X148968320Y-108299727D01*
X149125363Y-108534759D01*
X149325241Y-108734637D01*
X149557759Y-108890000D01*
X149325241Y-109045363D01*
X149125363Y-109245241D01*
X148968320Y-109480273D01*
X148860147Y-109741426D01*
X148805000Y-110018665D01*
X148805000Y-110301335D01*
X148860147Y-110578574D01*
X148968320Y-110839727D01*
X149125363Y-111074759D01*
X149325241Y-111274637D01*
X149557759Y-111430000D01*
X149325241Y-111585363D01*
X149125363Y-111785241D01*
X148968320Y-112020273D01*
X148860147Y-112281426D01*
X148805000Y-112558665D01*
X148805000Y-112841335D01*
X148860147Y-113118574D01*
X148968320Y-113379727D01*
X149125363Y-113614759D01*
X149325241Y-113814637D01*
X149557759Y-113970000D01*
X149325241Y-114125363D01*
X149125363Y-114325241D01*
X148968320Y-114560273D01*
X148860147Y-114821426D01*
X148805000Y-115098665D01*
X148805000Y-115381335D01*
X148860147Y-115658574D01*
X148968320Y-115919727D01*
X149125363Y-116154759D01*
X149325241Y-116354637D01*
X149557759Y-116510000D01*
X149325241Y-116665363D01*
X149125363Y-116865241D01*
X148968320Y-117100273D01*
X148860147Y-117361426D01*
X148805000Y-117638665D01*
X148805000Y-117921335D01*
X148860147Y-118198574D01*
X148968320Y-118459727D01*
X149125363Y-118694759D01*
X149325241Y-118894637D01*
X149557759Y-119050000D01*
X149325241Y-119205363D01*
X149125363Y-119405241D01*
X148968320Y-119640273D01*
X148860147Y-119901426D01*
X148805000Y-120178665D01*
X148805000Y-120461335D01*
X148860147Y-120738574D01*
X148968320Y-120999727D01*
X149125363Y-121234759D01*
X149325241Y-121434637D01*
X149557759Y-121590000D01*
X149325241Y-121745363D01*
X149125363Y-121945241D01*
X148968320Y-122180273D01*
X148860147Y-122441426D01*
X148805000Y-122718665D01*
X148805000Y-123001335D01*
X148860147Y-123278574D01*
X148968320Y-123539727D01*
X149125363Y-123774759D01*
X149325241Y-123974637D01*
X149557759Y-124130000D01*
X149325241Y-124285363D01*
X149125363Y-124485241D01*
X148968320Y-124720273D01*
X148860147Y-124981426D01*
X148805000Y-125258665D01*
X148805000Y-125541335D01*
X148860147Y-125818574D01*
X148968320Y-126079727D01*
X149125363Y-126314759D01*
X149325241Y-126514637D01*
X149557759Y-126670000D01*
X149325241Y-126825363D01*
X149125363Y-127025241D01*
X148968320Y-127260273D01*
X148860147Y-127521426D01*
X148805000Y-127798665D01*
X148805000Y-128081335D01*
X148860147Y-128358574D01*
X148968320Y-128619727D01*
X149125363Y-128854759D01*
X149325241Y-129054637D01*
X149557759Y-129210000D01*
X149325241Y-129365363D01*
X149125363Y-129565241D01*
X148968320Y-129800273D01*
X148860147Y-130061426D01*
X148805000Y-130338665D01*
X148805000Y-130621335D01*
X148860147Y-130898574D01*
X148968320Y-131159727D01*
X149125363Y-131394759D01*
X149325241Y-131594637D01*
X149557759Y-131750000D01*
X149325241Y-131905363D01*
X149125363Y-132105241D01*
X148968320Y-132340273D01*
X148860147Y-132601426D01*
X148805000Y-132878665D01*
X148805000Y-133161335D01*
X148860147Y-133438574D01*
X148968320Y-133699727D01*
X149125363Y-133934759D01*
X149325241Y-134134637D01*
X149557759Y-134290000D01*
X149325241Y-134445363D01*
X149125363Y-134645241D01*
X148968320Y-134880273D01*
X148860147Y-135141426D01*
X148805000Y-135418665D01*
X148805000Y-135701335D01*
X148860147Y-135978574D01*
X148968320Y-136239727D01*
X149125363Y-136474759D01*
X149325241Y-136674637D01*
X149560273Y-136831680D01*
X149821426Y-136939853D01*
X150098665Y-136995000D01*
X150381335Y-136995000D01*
X150658574Y-136939853D01*
X150919727Y-136831680D01*
X151154759Y-136674637D01*
X151354637Y-136474759D01*
X151511680Y-136239727D01*
X151619853Y-135978574D01*
X151675000Y-135701335D01*
X151675000Y-135418665D01*
X151619853Y-135141426D01*
X151511680Y-134880273D01*
X151354637Y-134645241D01*
X151171078Y-134461682D01*
X184165000Y-134461682D01*
X184165000Y-135138318D01*
X184297006Y-135801952D01*
X184555943Y-136427082D01*
X184931862Y-136989685D01*
X185410315Y-137468138D01*
X185972918Y-137844057D01*
X186598048Y-138102994D01*
X187261682Y-138235000D01*
X187938318Y-138235000D01*
X188601952Y-138102994D01*
X189227082Y-137844057D01*
X189789685Y-137468138D01*
X190268138Y-136989685D01*
X190644057Y-136427082D01*
X190902994Y-135801952D01*
X191035000Y-135138318D01*
X191035000Y-134461682D01*
X190902994Y-133798048D01*
X190644057Y-133172918D01*
X190268138Y-132610315D01*
X189789685Y-132131862D01*
X189227082Y-131755943D01*
X188601952Y-131497006D01*
X187938318Y-131365000D01*
X187261682Y-131365000D01*
X186598048Y-131497006D01*
X185972918Y-131755943D01*
X185410315Y-132131862D01*
X184931862Y-132610315D01*
X184555943Y-133172918D01*
X184297006Y-133798048D01*
X184165000Y-134461682D01*
X151171078Y-134461682D01*
X151154759Y-134445363D01*
X150922241Y-134290000D01*
X151154759Y-134134637D01*
X151354637Y-133934759D01*
X151511680Y-133699727D01*
X151619853Y-133438574D01*
X151675000Y-133161335D01*
X151675000Y-132878665D01*
X151619853Y-132601426D01*
X151511680Y-132340273D01*
X151354637Y-132105241D01*
X151154759Y-131905363D01*
X150922241Y-131750000D01*
X151154759Y-131594637D01*
X151354637Y-131394759D01*
X151511680Y-131159727D01*
X151619853Y-130898574D01*
X151675000Y-130621335D01*
X151675000Y-130338665D01*
X151619853Y-130061426D01*
X151511680Y-129800273D01*
X151354637Y-129565241D01*
X151154759Y-129365363D01*
X150922241Y-129210000D01*
X151154759Y-129054637D01*
X151354637Y-128854759D01*
X151374521Y-128825000D01*
X158546531Y-128825000D01*
X158590000Y-128829281D01*
X158633469Y-128825000D01*
X158633477Y-128825000D01*
X158763490Y-128812195D01*
X158930313Y-128761589D01*
X159084059Y-128679411D01*
X159218817Y-128568817D01*
X159246534Y-128535044D01*
X166375051Y-121406528D01*
X166408817Y-121378817D01*
X166519411Y-121244059D01*
X166547133Y-121192195D01*
X166601589Y-121090314D01*
X166652195Y-120923490D01*
X166652195Y-120923489D01*
X166665000Y-120793477D01*
X166665000Y-120793469D01*
X166669281Y-120750000D01*
X166665000Y-120706531D01*
X166665000Y-88505000D01*
X186641971Y-88505000D01*
X186710000Y-88511700D01*
X186778029Y-88505000D01*
X186778037Y-88505000D01*
X186981507Y-88484960D01*
X187242581Y-88405764D01*
X187483188Y-88277157D01*
X187694081Y-88104081D01*
X187737454Y-88051231D01*
X189571241Y-86217445D01*
X189624080Y-86174081D01*
X189667445Y-86121241D01*
X189667452Y-86121234D01*
X189780172Y-85983884D01*
X189797157Y-85963188D01*
X189925764Y-85722581D01*
X190004960Y-85461507D01*
X190025000Y-85258037D01*
X190025000Y-85258028D01*
X190031700Y-85190001D01*
X190025000Y-85121974D01*
X190025000Y-73828026D01*
X190031700Y-73759999D01*
X190025000Y-73691972D01*
X190025000Y-73691963D01*
X190004960Y-73488493D01*
X189925764Y-73227419D01*
X189797157Y-72986812D01*
X189624081Y-72775919D01*
X189571236Y-72732550D01*
X188397454Y-71558769D01*
X188354081Y-71505919D01*
X188143188Y-71332843D01*
X187902581Y-71204236D01*
X187641507Y-71125040D01*
X187438037Y-71105000D01*
X187438029Y-71105000D01*
X187370000Y-71098300D01*
X187301971Y-71105000D01*
X168388026Y-71105000D01*
X168319999Y-71098300D01*
X168251972Y-71105000D01*
X168251963Y-71105000D01*
X168048493Y-71125040D01*
X167787419Y-71204236D01*
X167546812Y-71332843D01*
X167335919Y-71505919D01*
X167292546Y-71558769D01*
X165078340Y-73772975D01*
X164865241Y-73915363D01*
X164665363Y-74115241D01*
X164508320Y-74350273D01*
X164400147Y-74611426D01*
X164345000Y-74888665D01*
X164345000Y-75171335D01*
X164400147Y-75448574D01*
X164508320Y-75709727D01*
X164665363Y-75944759D01*
X164865241Y-76144637D01*
X165100273Y-76301680D01*
X165361426Y-76409853D01*
X165638665Y-76465000D01*
X165921335Y-76465000D01*
X166198574Y-76409853D01*
X166415498Y-76320000D01*
X182941928Y-76320000D01*
X182945000Y-77284250D01*
X183103750Y-77443000D01*
X184703000Y-77443000D01*
X184703000Y-75843750D01*
X184957000Y-75843750D01*
X184957000Y-77443000D01*
X186556250Y-77443000D01*
X186715000Y-77284250D01*
X186718072Y-76320000D01*
X186705812Y-76195518D01*
X186669502Y-76075820D01*
X186610537Y-75965506D01*
X186531185Y-75868815D01*
X186434494Y-75789463D01*
X186324180Y-75730498D01*
X186204482Y-75694188D01*
X186080000Y-75681928D01*
X185115750Y-75685000D01*
X184957000Y-75843750D01*
X184703000Y-75843750D01*
X184544250Y-75685000D01*
X183580000Y-75681928D01*
X183455518Y-75694188D01*
X183335820Y-75730498D01*
X183225506Y-75789463D01*
X183128815Y-75868815D01*
X183049463Y-75965506D01*
X182990498Y-76075820D01*
X182954188Y-76195518D01*
X182941928Y-76320000D01*
X166415498Y-76320000D01*
X166459727Y-76301680D01*
X166694759Y-76144637D01*
X166894637Y-75944759D01*
X167037025Y-75731660D01*
X168893685Y-73875000D01*
X186796315Y-73875000D01*
X187255001Y-74333687D01*
X187255000Y-84616314D01*
X186136315Y-85735000D01*
X159861963Y-85735000D01*
X159658493Y-85755040D01*
X159397419Y-85834236D01*
X159156812Y-85962843D01*
X158945919Y-86135919D01*
X158772843Y-86346812D01*
X158644236Y-86587419D01*
X158565040Y-86848493D01*
X158538299Y-87120000D01*
X158565040Y-87391507D01*
X158644236Y-87652581D01*
X158772843Y-87893188D01*
X158945919Y-88104081D01*
X159156812Y-88277157D01*
X159397419Y-88405764D01*
X159658493Y-88484960D01*
X159861963Y-88505000D01*
X164895001Y-88505000D01*
X164895000Y-120383421D01*
X158223422Y-127055000D01*
X151374521Y-127055000D01*
X151354637Y-127025241D01*
X151154759Y-126825363D01*
X150922241Y-126670000D01*
X151154759Y-126514637D01*
X151354637Y-126314759D01*
X151511680Y-126079727D01*
X151619853Y-125818574D01*
X151675000Y-125541335D01*
X151675000Y-125258665D01*
X151619853Y-124981426D01*
X151511680Y-124720273D01*
X151354637Y-124485241D01*
X151154759Y-124285363D01*
X150922241Y-124130000D01*
X151154759Y-123974637D01*
X151354637Y-123774759D01*
X151511680Y-123539727D01*
X151619853Y-123278574D01*
X151675000Y-123001335D01*
X151675000Y-122718665D01*
X151619853Y-122441426D01*
X151511680Y-122180273D01*
X151354637Y-121945241D01*
X151154759Y-121745363D01*
X150922241Y-121590000D01*
X151154759Y-121434637D01*
X151354637Y-121234759D01*
X151511680Y-120999727D01*
X151619853Y-120738574D01*
X151675000Y-120461335D01*
X151675000Y-120178665D01*
X151619853Y-119901426D01*
X151511680Y-119640273D01*
X151354637Y-119405241D01*
X151154759Y-119205363D01*
X150922241Y-119050000D01*
X151154759Y-118894637D01*
X151354637Y-118694759D01*
X151374521Y-118665000D01*
X152196531Y-118665000D01*
X152240000Y-118669281D01*
X152283469Y-118665000D01*
X152283477Y-118665000D01*
X152413490Y-118652195D01*
X152580313Y-118601589D01*
X152734059Y-118519411D01*
X152868817Y-118408817D01*
X152896534Y-118375044D01*
X153325044Y-117946535D01*
X153381898Y-117935226D01*
X153570256Y-117857205D01*
X153739774Y-117743937D01*
X153883937Y-117599774D01*
X153997205Y-117430256D01*
X154075226Y-117241898D01*
X154115000Y-117041939D01*
X154115000Y-116838061D01*
X154075226Y-116638102D01*
X153997205Y-116449744D01*
X153883937Y-116280226D01*
X153739774Y-116136063D01*
X153570256Y-116022795D01*
X153381898Y-115944774D01*
X153181939Y-115905000D01*
X152978061Y-115905000D01*
X152778102Y-115944774D01*
X152774391Y-115946311D01*
X152868817Y-115868817D01*
X152896534Y-115835044D01*
X153325044Y-115406535D01*
X153381898Y-115395226D01*
X153570256Y-115317205D01*
X153739774Y-115203937D01*
X153883937Y-115059774D01*
X153997205Y-114890256D01*
X154075226Y-114701898D01*
X154115000Y-114501939D01*
X154115000Y-114298061D01*
X154075226Y-114098102D01*
X153997205Y-113909744D01*
X153883937Y-113740226D01*
X153739774Y-113596063D01*
X153570256Y-113482795D01*
X153381898Y-113404774D01*
X153181939Y-113365000D01*
X152978061Y-113365000D01*
X152778102Y-113404774D01*
X152589744Y-113482795D01*
X152420226Y-113596063D01*
X152276063Y-113740226D01*
X152162795Y-113909744D01*
X152084774Y-114098102D01*
X152073465Y-114154956D01*
X151873422Y-114355000D01*
X151374521Y-114355000D01*
X151354637Y-114325241D01*
X151154759Y-114125363D01*
X150922241Y-113970000D01*
X151154759Y-113814637D01*
X151354637Y-113614759D01*
X151511680Y-113379727D01*
X151619853Y-113118574D01*
X151675000Y-112841335D01*
X151675000Y-112558665D01*
X151619853Y-112281426D01*
X151511680Y-112020273D01*
X151354637Y-111785241D01*
X151154759Y-111585363D01*
X150922241Y-111430000D01*
X151154759Y-111274637D01*
X151354637Y-111074759D01*
X151511680Y-110839727D01*
X151619853Y-110578574D01*
X151675000Y-110301335D01*
X151675000Y-110018665D01*
X151619853Y-109741426D01*
X151511680Y-109480273D01*
X151354637Y-109245241D01*
X151294396Y-109185000D01*
X153045130Y-109185000D01*
X153055498Y-109219180D01*
X153114463Y-109329494D01*
X153193815Y-109426185D01*
X153290506Y-109505537D01*
X153400820Y-109564502D01*
X153520518Y-109600812D01*
X153645000Y-109613072D01*
X156415000Y-109613072D01*
X156539482Y-109600812D01*
X156659180Y-109564502D01*
X156769494Y-109505537D01*
X156866185Y-109426185D01*
X156945537Y-109329494D01*
X157004502Y-109219180D01*
X157040812Y-109099482D01*
X157053072Y-108975000D01*
X158146928Y-108975000D01*
X158159188Y-109099482D01*
X158195498Y-109219180D01*
X158254463Y-109329494D01*
X158333815Y-109426185D01*
X158430506Y-109505537D01*
X158540820Y-109564502D01*
X158660518Y-109600812D01*
X158785000Y-109613072D01*
X159884250Y-109610000D01*
X160043000Y-109451250D01*
X160043000Y-107927000D01*
X160297000Y-107927000D01*
X160297000Y-109451250D01*
X160455750Y-109610000D01*
X161555000Y-109613072D01*
X161679482Y-109600812D01*
X161799180Y-109564502D01*
X161909494Y-109505537D01*
X162006185Y-109426185D01*
X162085537Y-109329494D01*
X162144502Y-109219180D01*
X162180812Y-109099482D01*
X162193072Y-108975000D01*
X162190000Y-108085750D01*
X162031250Y-107927000D01*
X160297000Y-107927000D01*
X160043000Y-107927000D01*
X158308750Y-107927000D01*
X158150000Y-108085750D01*
X158146928Y-108975000D01*
X157053072Y-108975000D01*
X157053072Y-106625000D01*
X158146928Y-106625000D01*
X158150000Y-107514250D01*
X158308750Y-107673000D01*
X160043000Y-107673000D01*
X160043000Y-106148750D01*
X160297000Y-106148750D01*
X160297000Y-107673000D01*
X162031250Y-107673000D01*
X162190000Y-107514250D01*
X162193072Y-106625000D01*
X162180812Y-106500518D01*
X162144502Y-106380820D01*
X162085537Y-106270506D01*
X162006185Y-106173815D01*
X161909494Y-106094463D01*
X161799180Y-106035498D01*
X161679482Y-105999188D01*
X161555000Y-105986928D01*
X160455750Y-105990000D01*
X160297000Y-106148750D01*
X160043000Y-106148750D01*
X159884250Y-105990000D01*
X158785000Y-105986928D01*
X158660518Y-105999188D01*
X158540820Y-106035498D01*
X158430506Y-106094463D01*
X158333815Y-106173815D01*
X158254463Y-106270506D01*
X158195498Y-106380820D01*
X158159188Y-106500518D01*
X158146928Y-106625000D01*
X157053072Y-106625000D01*
X157040812Y-106500518D01*
X157004502Y-106380820D01*
X156945537Y-106270506D01*
X156866185Y-106173815D01*
X156769494Y-106094463D01*
X156659180Y-106035498D01*
X156539482Y-105999188D01*
X156415000Y-105986928D01*
X153645000Y-105986928D01*
X153520518Y-105999188D01*
X153400820Y-106035498D01*
X153290506Y-106094463D01*
X153193815Y-106173815D01*
X153114463Y-106270506D01*
X153055498Y-106380820D01*
X153045130Y-106415000D01*
X151019521Y-106415000D01*
X150922241Y-106350000D01*
X151154759Y-106194637D01*
X151354637Y-105994759D01*
X151511680Y-105759727D01*
X151619853Y-105498574D01*
X151675000Y-105221335D01*
X151675000Y-104938665D01*
X151619853Y-104661426D01*
X151511680Y-104400273D01*
X151354637Y-104165241D01*
X151154759Y-103965363D01*
X150919727Y-103808320D01*
X150909135Y-103803933D01*
X151095131Y-103692385D01*
X151303519Y-103503414D01*
X151471037Y-103277420D01*
X151591246Y-103023087D01*
X151631904Y-102889039D01*
X151509915Y-102667000D01*
X150367000Y-102667000D01*
X150367000Y-102687000D01*
X150113000Y-102687000D01*
X150113000Y-102667000D01*
X148970085Y-102667000D01*
X148848096Y-102889039D01*
X148888754Y-103023087D01*
X149008963Y-103277420D01*
X149176481Y-103503414D01*
X149384869Y-103692385D01*
X149570865Y-103803933D01*
X149560273Y-103808320D01*
X149325241Y-103965363D01*
X149125363Y-104165241D01*
X148968320Y-104400273D01*
X148860147Y-104661426D01*
X148805000Y-104938665D01*
X147615000Y-104938665D01*
X147615000Y-95040804D01*
X147698102Y-95075226D01*
X147754957Y-95086535D01*
X149355000Y-96686579D01*
X149355001Y-98865478D01*
X149325241Y-98885363D01*
X149125363Y-99085241D01*
X148968320Y-99320273D01*
X148860147Y-99581426D01*
X148805000Y-99858665D01*
X148805000Y-100141335D01*
X148860147Y-100418574D01*
X148968320Y-100679727D01*
X149125363Y-100914759D01*
X149325241Y-101114637D01*
X149560273Y-101271680D01*
X149570865Y-101276067D01*
X149384869Y-101387615D01*
X149176481Y-101576586D01*
X149008963Y-101802580D01*
X148888754Y-102056913D01*
X148848096Y-102190961D01*
X148970085Y-102413000D01*
X150113000Y-102413000D01*
X150113000Y-102393000D01*
X150367000Y-102393000D01*
X150367000Y-102413000D01*
X151509915Y-102413000D01*
X151631904Y-102190961D01*
X151591246Y-102056913D01*
X151471037Y-101802580D01*
X151303519Y-101576586D01*
X151095131Y-101387615D01*
X150909135Y-101276067D01*
X150919727Y-101271680D01*
X151154759Y-101114637D01*
X151354637Y-100914759D01*
X151497024Y-100701661D01*
X151813686Y-100385000D01*
X153045130Y-100385000D01*
X153055498Y-100419180D01*
X153114463Y-100529494D01*
X153193815Y-100626185D01*
X153290506Y-100705537D01*
X153400820Y-100764502D01*
X153520518Y-100800812D01*
X153645000Y-100813072D01*
X156415000Y-100813072D01*
X156539482Y-100800812D01*
X156659180Y-100764502D01*
X156769494Y-100705537D01*
X156866185Y-100626185D01*
X156945537Y-100529494D01*
X157004502Y-100419180D01*
X157040812Y-100299482D01*
X157053072Y-100175000D01*
X158146928Y-100175000D01*
X158159188Y-100299482D01*
X158195498Y-100419180D01*
X158254463Y-100529494D01*
X158333815Y-100626185D01*
X158430506Y-100705537D01*
X158540820Y-100764502D01*
X158660518Y-100800812D01*
X158785000Y-100813072D01*
X159884250Y-100810000D01*
X160043000Y-100651250D01*
X160043000Y-99127000D01*
X160297000Y-99127000D01*
X160297000Y-100651250D01*
X160455750Y-100810000D01*
X161555000Y-100813072D01*
X161679482Y-100800812D01*
X161799180Y-100764502D01*
X161909494Y-100705537D01*
X162006185Y-100626185D01*
X162085537Y-100529494D01*
X162144502Y-100419180D01*
X162180812Y-100299482D01*
X162193072Y-100175000D01*
X162190000Y-99285750D01*
X162031250Y-99127000D01*
X160297000Y-99127000D01*
X160043000Y-99127000D01*
X158308750Y-99127000D01*
X158150000Y-99285750D01*
X158146928Y-100175000D01*
X157053072Y-100175000D01*
X157053072Y-97825000D01*
X158146928Y-97825000D01*
X158150000Y-98714250D01*
X158308750Y-98873000D01*
X160043000Y-98873000D01*
X160043000Y-97348750D01*
X160297000Y-97348750D01*
X160297000Y-98873000D01*
X162031250Y-98873000D01*
X162190000Y-98714250D01*
X162193072Y-97825000D01*
X162180812Y-97700518D01*
X162144502Y-97580820D01*
X162085537Y-97470506D01*
X162006185Y-97373815D01*
X161909494Y-97294463D01*
X161799180Y-97235498D01*
X161679482Y-97199188D01*
X161555000Y-97186928D01*
X160455750Y-97190000D01*
X160297000Y-97348750D01*
X160043000Y-97348750D01*
X159884250Y-97190000D01*
X158785000Y-97186928D01*
X158660518Y-97199188D01*
X158540820Y-97235498D01*
X158430506Y-97294463D01*
X158333815Y-97373815D01*
X158254463Y-97470506D01*
X158195498Y-97580820D01*
X158159188Y-97700518D01*
X158146928Y-97825000D01*
X157053072Y-97825000D01*
X157040812Y-97700518D01*
X157004502Y-97580820D01*
X156945537Y-97470506D01*
X156866185Y-97373815D01*
X156769494Y-97294463D01*
X156659180Y-97235498D01*
X156539482Y-97199188D01*
X156415000Y-97186928D01*
X153645000Y-97186928D01*
X153520518Y-97199188D01*
X153400820Y-97235498D01*
X153290506Y-97294463D01*
X153193815Y-97373815D01*
X153114463Y-97470506D01*
X153055498Y-97580820D01*
X153045130Y-97615000D01*
X151308037Y-97615000D01*
X151240000Y-97608299D01*
X151125000Y-97619625D01*
X151125000Y-96363465D01*
X151129281Y-96319999D01*
X151125000Y-96276533D01*
X151125000Y-96276523D01*
X151112195Y-96146510D01*
X151061589Y-95979687D01*
X150979411Y-95825941D01*
X150868817Y-95691183D01*
X150835050Y-95663471D01*
X149006535Y-93834957D01*
X148995226Y-93778102D01*
X148917205Y-93589744D01*
X148803937Y-93420226D01*
X148659774Y-93276063D01*
X148490256Y-93162795D01*
X148301898Y-93084774D01*
X148101939Y-93045000D01*
X147898061Y-93045000D01*
X147698102Y-93084774D01*
X147615000Y-93119196D01*
X147615000Y-90595560D01*
X156634045Y-90595560D01*
X156695932Y-90831368D01*
X156937790Y-90944266D01*
X157197027Y-91007811D01*
X157463680Y-91019561D01*
X157727501Y-90979063D01*
X157978353Y-90887875D01*
X158084068Y-90831368D01*
X158145955Y-90595560D01*
X157390000Y-89839605D01*
X156634045Y-90595560D01*
X147615000Y-90595560D01*
X147615000Y-89733680D01*
X156030439Y-89733680D01*
X156070937Y-89997501D01*
X156162125Y-90248353D01*
X156218632Y-90354068D01*
X156454440Y-90415955D01*
X157210395Y-89660000D01*
X157569605Y-89660000D01*
X158325560Y-90415955D01*
X158561368Y-90354068D01*
X158674266Y-90112210D01*
X158737811Y-89852973D01*
X158749561Y-89586320D01*
X158709063Y-89322499D01*
X158617875Y-89071647D01*
X158561368Y-88965932D01*
X158325560Y-88904045D01*
X157569605Y-89660000D01*
X157210395Y-89660000D01*
X156454440Y-88904045D01*
X156218632Y-88965932D01*
X156105734Y-89207790D01*
X156042189Y-89467027D01*
X156030439Y-89733680D01*
X147615000Y-89733680D01*
X147615000Y-88724440D01*
X156634045Y-88724440D01*
X157390000Y-89480395D01*
X158145955Y-88724440D01*
X158084068Y-88488632D01*
X157842210Y-88375734D01*
X157582973Y-88312189D01*
X157316320Y-88300439D01*
X157052499Y-88340937D01*
X156801647Y-88432125D01*
X156695932Y-88488632D01*
X156634045Y-88724440D01*
X147615000Y-88724440D01*
X147615000Y-88055560D01*
X154094045Y-88055560D01*
X154155932Y-88291368D01*
X154397790Y-88404266D01*
X154657027Y-88467811D01*
X154923680Y-88479561D01*
X155187501Y-88439063D01*
X155438353Y-88347875D01*
X155544068Y-88291368D01*
X155605955Y-88055560D01*
X154850000Y-87299605D01*
X154094045Y-88055560D01*
X147615000Y-88055560D01*
X147615000Y-87193680D01*
X153490439Y-87193680D01*
X153530937Y-87457501D01*
X153622125Y-87708353D01*
X153678632Y-87814068D01*
X153914440Y-87875955D01*
X154670395Y-87120000D01*
X155029605Y-87120000D01*
X155785560Y-87875955D01*
X156021368Y-87814068D01*
X156134266Y-87572210D01*
X156197811Y-87312973D01*
X156209561Y-87046320D01*
X156169063Y-86782499D01*
X156077875Y-86531647D01*
X156021368Y-86425932D01*
X155785560Y-86364045D01*
X155029605Y-87120000D01*
X154670395Y-87120000D01*
X153914440Y-86364045D01*
X153678632Y-86425932D01*
X153565734Y-86667790D01*
X153502189Y-86927027D01*
X153490439Y-87193680D01*
X147615000Y-87193680D01*
X147615000Y-86184440D01*
X154094045Y-86184440D01*
X154850000Y-86940395D01*
X155605955Y-86184440D01*
X155544068Y-85948632D01*
X155302210Y-85835734D01*
X155042973Y-85772189D01*
X154776320Y-85760439D01*
X154512499Y-85800937D01*
X154261647Y-85892125D01*
X154155932Y-85948632D01*
X154094045Y-86184440D01*
X147615000Y-86184440D01*
X147615000Y-84744710D01*
X147784871Y-84605301D01*
X147970397Y-84379237D01*
X148108255Y-84121322D01*
X148193148Y-83841468D01*
X148214630Y-83623360D01*
X148214630Y-81676640D01*
X148193148Y-81458532D01*
X148108255Y-81178678D01*
X147970397Y-80920763D01*
X147784871Y-80694699D01*
X147558807Y-80509173D01*
X147300892Y-80371315D01*
X147021038Y-80286422D01*
X146730000Y-80257757D01*
X146438963Y-80286422D01*
X146159109Y-80371315D01*
X145901194Y-80509173D01*
X145675130Y-80694699D01*
X145575000Y-80816708D01*
X145575000Y-80225000D01*
X156316315Y-80225000D01*
X159592550Y-83501236D01*
X159635919Y-83554081D01*
X159688764Y-83597450D01*
X159688766Y-83597452D01*
X159720334Y-83623359D01*
X159846812Y-83727157D01*
X160087419Y-83855764D01*
X160348493Y-83934960D01*
X160551963Y-83955000D01*
X160551971Y-83955000D01*
X160620000Y-83961700D01*
X160688029Y-83955000D01*
X183549207Y-83955000D01*
X183628382Y-84034175D01*
X183937118Y-84240466D01*
X184280166Y-84382561D01*
X184644344Y-84455000D01*
X185015656Y-84455000D01*
X185379834Y-84382561D01*
X185722882Y-84240466D01*
X186031618Y-84034175D01*
X186294175Y-83771618D01*
X186500466Y-83462882D01*
X186642561Y-83119834D01*
X186715000Y-82755656D01*
X186715000Y-82384344D01*
X186642561Y-82020166D01*
X186500466Y-81677118D01*
X186294175Y-81368382D01*
X186031618Y-81105825D01*
X185722882Y-80899534D01*
X185379834Y-80757439D01*
X185015656Y-80685000D01*
X184644344Y-80685000D01*
X184280166Y-80757439D01*
X183937118Y-80899534D01*
X183628382Y-81105825D01*
X183549207Y-81185000D01*
X161193686Y-81185000D01*
X158828686Y-78820000D01*
X182941928Y-78820000D01*
X182954188Y-78944482D01*
X182990498Y-79064180D01*
X183049463Y-79174494D01*
X183128815Y-79271185D01*
X183225506Y-79350537D01*
X183335820Y-79409502D01*
X183455518Y-79445812D01*
X183580000Y-79458072D01*
X184544250Y-79455000D01*
X184703000Y-79296250D01*
X184703000Y-77697000D01*
X184957000Y-77697000D01*
X184957000Y-79296250D01*
X185115750Y-79455000D01*
X186080000Y-79458072D01*
X186204482Y-79445812D01*
X186324180Y-79409502D01*
X186434494Y-79350537D01*
X186531185Y-79271185D01*
X186610537Y-79174494D01*
X186669502Y-79064180D01*
X186705812Y-78944482D01*
X186718072Y-78820000D01*
X186715000Y-77855750D01*
X186556250Y-77697000D01*
X184957000Y-77697000D01*
X184703000Y-77697000D01*
X183103750Y-77697000D01*
X182945000Y-77855750D01*
X182941928Y-78820000D01*
X158828686Y-78820000D01*
X157917454Y-77908769D01*
X157874081Y-77855919D01*
X157663188Y-77682843D01*
X157422581Y-77554236D01*
X157161507Y-77475040D01*
X156958037Y-77455000D01*
X156958029Y-77455000D01*
X156890000Y-77448300D01*
X156821971Y-77455000D01*
X144817969Y-77455000D01*
X144749940Y-77448300D01*
X144681911Y-77455000D01*
X144681903Y-77455000D01*
X144478433Y-77475040D01*
X144217359Y-77554236D01*
X143976752Y-77682843D01*
X143765859Y-77855919D01*
X143722486Y-77908769D01*
X143258765Y-78372490D01*
X143205919Y-78415860D01*
X143162550Y-78468705D01*
X143162548Y-78468707D01*
X143080657Y-78568492D01*
X143032843Y-78626753D01*
X143022588Y-78645939D01*
X143014960Y-78568493D01*
X142935764Y-78307419D01*
X142807157Y-78066812D01*
X142759087Y-78008239D01*
X142677452Y-77908766D01*
X142677445Y-77908759D01*
X142634080Y-77855919D01*
X142581241Y-77812555D01*
X141407454Y-76638769D01*
X141364081Y-76585919D01*
X141153188Y-76412843D01*
X140912581Y-76284236D01*
X140651507Y-76205040D01*
X140448037Y-76185000D01*
X140448029Y-76185000D01*
X140380000Y-76178300D01*
X140311971Y-76185000D01*
X136807113Y-76185000D01*
X136753215Y-76119325D01*
X136687540Y-76065427D01*
X136687540Y-62400577D01*
X136694241Y-62332540D01*
X136667500Y-62061033D01*
X136588304Y-61799959D01*
X136459697Y-61559352D01*
X136329992Y-61401306D01*
X136329985Y-61401299D01*
X136286620Y-61348459D01*
X136233781Y-61305095D01*
X134508407Y-59579721D01*
X158555000Y-59579721D01*
X158555000Y-60000279D01*
X158637047Y-60412756D01*
X158797988Y-60801302D01*
X159031637Y-61150983D01*
X159329017Y-61448363D01*
X159678698Y-61682012D01*
X160067244Y-61842953D01*
X160479721Y-61925000D01*
X160900279Y-61925000D01*
X161312756Y-61842953D01*
X161701302Y-61682012D01*
X162050983Y-61448363D01*
X162324346Y-61175000D01*
X165387301Y-61175000D01*
X165638665Y-61225000D01*
X165921335Y-61225000D01*
X166198574Y-61169853D01*
X166459727Y-61061680D01*
X166694759Y-60904637D01*
X166894637Y-60704759D01*
X167037025Y-60491661D01*
X167775081Y-59753605D01*
X183696000Y-59753605D01*
X183821914Y-60043577D01*
X184154126Y-60209433D01*
X184512312Y-60307290D01*
X184882706Y-60333389D01*
X185251075Y-60286725D01*
X185603262Y-60169094D01*
X185838086Y-60043577D01*
X185964000Y-59753605D01*
X184830000Y-58619605D01*
X183696000Y-59753605D01*
X167775081Y-59753605D01*
X169035980Y-58492706D01*
X182936611Y-58492706D01*
X182983275Y-58861075D01*
X183100906Y-59213262D01*
X183226423Y-59448086D01*
X183516395Y-59574000D01*
X184650395Y-58440000D01*
X185009605Y-58440000D01*
X186143605Y-59574000D01*
X186433577Y-59448086D01*
X186599433Y-59115874D01*
X186697290Y-58757688D01*
X186723389Y-58387294D01*
X186676725Y-58018925D01*
X186559094Y-57666738D01*
X186433577Y-57431914D01*
X186143605Y-57306000D01*
X185009605Y-58440000D01*
X184650395Y-58440000D01*
X183516395Y-57306000D01*
X183226423Y-57431914D01*
X183060567Y-57764126D01*
X182962710Y-58122312D01*
X182936611Y-58492706D01*
X169035980Y-58492706D01*
X170402291Y-57126395D01*
X183696000Y-57126395D01*
X184830000Y-58260395D01*
X185964000Y-57126395D01*
X185838086Y-56836423D01*
X185505874Y-56670567D01*
X185147688Y-56572710D01*
X184777294Y-56546611D01*
X184408925Y-56593275D01*
X184056738Y-56710906D01*
X183821914Y-56836423D01*
X183696000Y-57126395D01*
X170402291Y-57126395D01*
X172703686Y-54825000D01*
X182957379Y-54825000D01*
X182990498Y-54934180D01*
X183049463Y-55044494D01*
X183128815Y-55141185D01*
X183225506Y-55220537D01*
X183335820Y-55279502D01*
X183455518Y-55315812D01*
X183580000Y-55328072D01*
X186080000Y-55328072D01*
X186204482Y-55315812D01*
X186324180Y-55279502D01*
X186434494Y-55220537D01*
X186531185Y-55141185D01*
X186610537Y-55044494D01*
X186669502Y-54934180D01*
X186705812Y-54814482D01*
X186718072Y-54690000D01*
X186718072Y-52190000D01*
X186705812Y-52065518D01*
X186669502Y-51945820D01*
X186610537Y-51835506D01*
X186531185Y-51738815D01*
X186434494Y-51659463D01*
X186324180Y-51600498D01*
X186204482Y-51564188D01*
X186080000Y-51551928D01*
X183580000Y-51551928D01*
X183455518Y-51564188D01*
X183335820Y-51600498D01*
X183225506Y-51659463D01*
X183128815Y-51738815D01*
X183049463Y-51835506D01*
X182990498Y-51945820D01*
X182957379Y-52055000D01*
X173666203Y-52055000D01*
X173742534Y-52014201D01*
X173795922Y-51785527D01*
X173090000Y-51079605D01*
X173075858Y-51093748D01*
X172896253Y-50914143D01*
X172910395Y-50900000D01*
X173269605Y-50900000D01*
X173975527Y-51605922D01*
X174204201Y-51552534D01*
X174310095Y-51322626D01*
X174369102Y-51076476D01*
X174378952Y-50823545D01*
X174339270Y-50573551D01*
X174251578Y-50336104D01*
X174204201Y-50247466D01*
X173975527Y-50194078D01*
X173269605Y-50900000D01*
X172910395Y-50900000D01*
X172204473Y-50194078D01*
X171975799Y-50247466D01*
X171869905Y-50477374D01*
X171810898Y-50723524D01*
X171801048Y-50976455D01*
X171834239Y-51185554D01*
X170875820Y-50227135D01*
X170865812Y-50125518D01*
X170832127Y-50014473D01*
X172384078Y-50014473D01*
X173090000Y-50720395D01*
X173795922Y-50014473D01*
X173742534Y-49785799D01*
X173512626Y-49679905D01*
X173266476Y-49620898D01*
X173013545Y-49611048D01*
X172763551Y-49650730D01*
X172526104Y-49738422D01*
X172437466Y-49785799D01*
X172384078Y-50014473D01*
X170832127Y-50014473D01*
X170829502Y-50005820D01*
X170770537Y-49895506D01*
X170691185Y-49798815D01*
X170594494Y-49719463D01*
X170484180Y-49660498D01*
X170364482Y-49624188D01*
X170240000Y-49611928D01*
X170114972Y-49611928D01*
X169861507Y-49535040D01*
X169590000Y-49508300D01*
X169318493Y-49535040D01*
X169065028Y-49611928D01*
X168940000Y-49611928D01*
X168815518Y-49624188D01*
X168695820Y-49660498D01*
X168585506Y-49719463D01*
X168488815Y-49798815D01*
X168409463Y-49895506D01*
X168350498Y-50005820D01*
X168314188Y-50125518D01*
X168301928Y-50250000D01*
X168301928Y-50375028D01*
X168225040Y-50628493D01*
X168198300Y-50900000D01*
X168225040Y-51171507D01*
X168301928Y-51424972D01*
X168301928Y-51550000D01*
X168314188Y-51674482D01*
X168350498Y-51794180D01*
X168409463Y-51904494D01*
X168488815Y-52001185D01*
X168585506Y-52080537D01*
X168695820Y-52139502D01*
X168815518Y-52175812D01*
X168917135Y-52185820D01*
X170171315Y-53440000D01*
X165206315Y-58405000D01*
X162324346Y-58405000D01*
X162050983Y-58131637D01*
X161701302Y-57897988D01*
X161312756Y-57737047D01*
X160900279Y-57655000D01*
X160479721Y-57655000D01*
X160067244Y-57737047D01*
X159678698Y-57897988D01*
X159329017Y-58131637D01*
X159031637Y-58429017D01*
X158797988Y-58778698D01*
X158637047Y-59167244D01*
X158555000Y-59579721D01*
X134508407Y-59579721D01*
X133787452Y-58858767D01*
X133744081Y-58805919D01*
X133533188Y-58632843D01*
X133292581Y-58504236D01*
X133174737Y-58468488D01*
X133148363Y-58429017D01*
X132850983Y-58131637D01*
X132501302Y-57897988D01*
X132112756Y-57737047D01*
X131700279Y-57655000D01*
X131279721Y-57655000D01*
X130867244Y-57737047D01*
X130478698Y-57897988D01*
X130129017Y-58131637D01*
X129831637Y-58429017D01*
X129597988Y-58778698D01*
X129437047Y-59167244D01*
X129355000Y-59579721D01*
X129355000Y-60000279D01*
X129437047Y-60412756D01*
X129597988Y-60801302D01*
X129831637Y-61150983D01*
X130129017Y-61448363D01*
X130478698Y-61682012D01*
X130867244Y-61842953D01*
X131279721Y-61925000D01*
X131700279Y-61925000D01*
X132112756Y-61842953D01*
X132501302Y-61682012D01*
X132616412Y-61605098D01*
X133917540Y-62906226D01*
X133917541Y-76065426D01*
X133851865Y-76119325D01*
X133772513Y-76216016D01*
X133713548Y-76326330D01*
X133677238Y-76446028D01*
X133664978Y-76570510D01*
X133664978Y-78569490D01*
X133677238Y-78693972D01*
X133713548Y-78813670D01*
X133772513Y-78923984D01*
X133851865Y-79020675D01*
X133948556Y-79100027D01*
X134058870Y-79158992D01*
X134178568Y-79195302D01*
X134303050Y-79207562D01*
X136302030Y-79207562D01*
X136426512Y-79195302D01*
X136546210Y-79158992D01*
X136656524Y-79100027D01*
X136753215Y-79020675D01*
X136807113Y-78955000D01*
X139806315Y-78955000D01*
X140265000Y-79413686D01*
X140265001Y-81200914D01*
X140186853Y-81458532D01*
X140165370Y-81676640D01*
X140165370Y-83623359D01*
X140186852Y-83841467D01*
X140271745Y-84121321D01*
X140409603Y-84379236D01*
X140595129Y-84605301D01*
X140821193Y-84790827D01*
X141079108Y-84928685D01*
X141358962Y-85013578D01*
X141650000Y-85042243D01*
X141941037Y-85013578D01*
X142220891Y-84928685D01*
X142478806Y-84790827D01*
X142704871Y-84605301D01*
X142890397Y-84379237D01*
X142920000Y-84323853D01*
X142949603Y-84379236D01*
X143135129Y-84605301D01*
X143361193Y-84790827D01*
X143619108Y-84928685D01*
X143898962Y-85013578D01*
X144190000Y-85042243D01*
X144481037Y-85013578D01*
X144760891Y-84928685D01*
X145018806Y-84790827D01*
X145244871Y-84605301D01*
X145430397Y-84379237D01*
X145460000Y-84323853D01*
X145489603Y-84379236D01*
X145675129Y-84605301D01*
X145845001Y-84744711D01*
X145845000Y-108223421D01*
X136434130Y-117634292D01*
X136379853Y-117361426D01*
X136271680Y-117100273D01*
X136114637Y-116865241D01*
X135914759Y-116665363D01*
X135682241Y-116510000D01*
X135914759Y-116354637D01*
X136114637Y-116154759D01*
X136271680Y-115919727D01*
X136379853Y-115658574D01*
X136435000Y-115381335D01*
X136435000Y-115098665D01*
X136379853Y-114821426D01*
X136271680Y-114560273D01*
X136114637Y-114325241D01*
X135914759Y-114125363D01*
X135682241Y-113970000D01*
X135914759Y-113814637D01*
X136114637Y-113614759D01*
X136271680Y-113379727D01*
X136379853Y-113118574D01*
X136435000Y-112841335D01*
X136435000Y-112558665D01*
X136379853Y-112281426D01*
X136271680Y-112020273D01*
X136114637Y-111785241D01*
X135914759Y-111585363D01*
X135682241Y-111430000D01*
X135914759Y-111274637D01*
X136114637Y-111074759D01*
X136271680Y-110839727D01*
X136379853Y-110578574D01*
X136435000Y-110301335D01*
X136435000Y-110018665D01*
X136379853Y-109741426D01*
X136271680Y-109480273D01*
X136114637Y-109245241D01*
X135914759Y-109045363D01*
X135679727Y-108888320D01*
X135669135Y-108883933D01*
X135855131Y-108772385D01*
X136063519Y-108583414D01*
X136231037Y-108357420D01*
X136351246Y-108103087D01*
X136391904Y-107969039D01*
X136269915Y-107747000D01*
X135127000Y-107747000D01*
X135127000Y-107767000D01*
X134873000Y-107767000D01*
X134873000Y-107747000D01*
X134853000Y-107747000D01*
X134853000Y-107493000D01*
X134873000Y-107493000D01*
X134873000Y-107473000D01*
X135127000Y-107473000D01*
X135127000Y-107493000D01*
X136269915Y-107493000D01*
X136391904Y-107270961D01*
X136351246Y-107136913D01*
X136231037Y-106882580D01*
X136063519Y-106656586D01*
X135855131Y-106467615D01*
X135669135Y-106356067D01*
X135679727Y-106351680D01*
X135914759Y-106194637D01*
X136114637Y-105994759D01*
X136271680Y-105759727D01*
X136379853Y-105498574D01*
X136435000Y-105221335D01*
X136435000Y-104938665D01*
X136379853Y-104661426D01*
X136271680Y-104400273D01*
X136114637Y-104165241D01*
X135914759Y-103965363D01*
X135682241Y-103810000D01*
X135914759Y-103654637D01*
X136114637Y-103454759D01*
X136271680Y-103219727D01*
X136379853Y-102958574D01*
X136435000Y-102681335D01*
X136435000Y-102398665D01*
X136379853Y-102121426D01*
X136271680Y-101860273D01*
X136114637Y-101625241D01*
X135916039Y-101426643D01*
X135924482Y-101425812D01*
X136044180Y-101389502D01*
X136154494Y-101330537D01*
X136251185Y-101251185D01*
X136330537Y-101154494D01*
X136389502Y-101044180D01*
X136425812Y-100924482D01*
X136438072Y-100800000D01*
X136438072Y-99200000D01*
X136425812Y-99075518D01*
X136389502Y-98955820D01*
X136330537Y-98845506D01*
X136251185Y-98748815D01*
X136154494Y-98669463D01*
X136044180Y-98610498D01*
X135924482Y-98574188D01*
X135800000Y-98561928D01*
X134634999Y-98561928D01*
X134634999Y-93843468D01*
X134639280Y-93799999D01*
X134634999Y-93756530D01*
X134634999Y-93756522D01*
X134622194Y-93626509D01*
X134571588Y-93459686D01*
X134489410Y-93305940D01*
X134464890Y-93276063D01*
X134406531Y-93204952D01*
X134406529Y-93204950D01*
X134378816Y-93171182D01*
X134345048Y-93143469D01*
X132106534Y-90904956D01*
X132078817Y-90871183D01*
X131944059Y-90760589D01*
X131790313Y-90678411D01*
X131623490Y-90627805D01*
X131493477Y-90615000D01*
X131493469Y-90615000D01*
X131450000Y-90610719D01*
X131406531Y-90615000D01*
X130794656Y-90615000D01*
X130753475Y-90553368D01*
X130546632Y-90346525D01*
X130364466Y-90224805D01*
X130481355Y-90155178D01*
X130697588Y-89960269D01*
X130871641Y-89726920D01*
X130996825Y-89464099D01*
X131041476Y-89316890D01*
X130920155Y-89087000D01*
X129727000Y-89087000D01*
X129727000Y-89107000D01*
X129473000Y-89107000D01*
X129473000Y-89087000D01*
X128279845Y-89087000D01*
X128158524Y-89316890D01*
X128203175Y-89464099D01*
X128328359Y-89726920D01*
X128502412Y-89960269D01*
X128718645Y-90155178D01*
X128835534Y-90224805D01*
X128653368Y-90346525D01*
X128446525Y-90553368D01*
X128284010Y-90796589D01*
X128172068Y-91066842D01*
X128115000Y-91353740D01*
X128115000Y-91646260D01*
X128172068Y-91933158D01*
X128284010Y-92203411D01*
X128446525Y-92446632D01*
X128653368Y-92653475D01*
X128827760Y-92770000D01*
X128653368Y-92886525D01*
X128446525Y-93093368D01*
X128284010Y-93336589D01*
X128172068Y-93606842D01*
X128115000Y-93893740D01*
X128115000Y-94186260D01*
X128172068Y-94473158D01*
X128284010Y-94743411D01*
X128446525Y-94986632D01*
X128653368Y-95193475D01*
X128827760Y-95310000D01*
X128653368Y-95426525D01*
X128446525Y-95633368D01*
X128284010Y-95876589D01*
X128172068Y-96146842D01*
X128115000Y-96433740D01*
X128115000Y-96726260D01*
X128172068Y-97013158D01*
X128284010Y-97283411D01*
X128446525Y-97526632D01*
X128653368Y-97733475D01*
X128827760Y-97850000D01*
X128653368Y-97966525D01*
X128446525Y-98173368D01*
X128405344Y-98235000D01*
X128006579Y-98235000D01*
X127295000Y-97523422D01*
X127295000Y-88865050D01*
X134347095Y-88865050D01*
X134442798Y-89129399D01*
X134732327Y-89270238D01*
X135043769Y-89351885D01*
X135365155Y-89371205D01*
X135684135Y-89327454D01*
X135988451Y-89222314D01*
X136162282Y-89129399D01*
X136257985Y-88865050D01*
X135302540Y-87909605D01*
X134347095Y-88865050D01*
X127295000Y-88865050D01*
X127295000Y-83016578D01*
X128086579Y-82225000D01*
X128405344Y-82225000D01*
X128446525Y-82286632D01*
X128653368Y-82493475D01*
X128827760Y-82610000D01*
X128653368Y-82726525D01*
X128446525Y-82933368D01*
X128284010Y-83176589D01*
X128172068Y-83446842D01*
X128115000Y-83733740D01*
X128115000Y-84026260D01*
X128172068Y-84313158D01*
X128284010Y-84583411D01*
X128446525Y-84826632D01*
X128653368Y-85033475D01*
X128827760Y-85150000D01*
X128653368Y-85266525D01*
X128446525Y-85473368D01*
X128284010Y-85716589D01*
X128172068Y-85986842D01*
X128115000Y-86273740D01*
X128115000Y-86566260D01*
X128172068Y-86853158D01*
X128284010Y-87123411D01*
X128446525Y-87366632D01*
X128653368Y-87573475D01*
X128835534Y-87695195D01*
X128718645Y-87764822D01*
X128502412Y-87959731D01*
X128328359Y-88193080D01*
X128203175Y-88455901D01*
X128158524Y-88603110D01*
X128279845Y-88833000D01*
X129473000Y-88833000D01*
X129473000Y-88813000D01*
X129727000Y-88813000D01*
X129727000Y-88833000D01*
X130920155Y-88833000D01*
X131041476Y-88603110D01*
X130996825Y-88455901D01*
X130871641Y-88193080D01*
X130697588Y-87959731D01*
X130512189Y-87792615D01*
X133661335Y-87792615D01*
X133705086Y-88111595D01*
X133810226Y-88415911D01*
X133903141Y-88589742D01*
X134167490Y-88685445D01*
X135122935Y-87730000D01*
X135482145Y-87730000D01*
X136437590Y-88685445D01*
X136701939Y-88589742D01*
X136842778Y-88300213D01*
X136924425Y-87988771D01*
X136943745Y-87667385D01*
X136899994Y-87348405D01*
X136794854Y-87044089D01*
X136701939Y-86870258D01*
X136437590Y-86774555D01*
X135482145Y-87730000D01*
X135122935Y-87730000D01*
X134167490Y-86774555D01*
X133903141Y-86870258D01*
X133762302Y-87159787D01*
X133680655Y-87471229D01*
X133661335Y-87792615D01*
X130512189Y-87792615D01*
X130481355Y-87764822D01*
X130364466Y-87695195D01*
X130546632Y-87573475D01*
X130753475Y-87366632D01*
X130767929Y-87345000D01*
X132221546Y-87345000D01*
X132269744Y-87377205D01*
X132458102Y-87455226D01*
X132658061Y-87495000D01*
X132861939Y-87495000D01*
X133061898Y-87455226D01*
X133250256Y-87377205D01*
X133419774Y-87263937D01*
X133563937Y-87119774D01*
X133677205Y-86950256D01*
X133755226Y-86761898D01*
X133788433Y-86594950D01*
X134347095Y-86594950D01*
X135302540Y-87550395D01*
X136257985Y-86594950D01*
X136162282Y-86330601D01*
X135872753Y-86189762D01*
X135561311Y-86108115D01*
X135239925Y-86088795D01*
X134920945Y-86132546D01*
X134616629Y-86237686D01*
X134442798Y-86330601D01*
X134347095Y-86594950D01*
X133788433Y-86594950D01*
X133795000Y-86561939D01*
X133795000Y-86358061D01*
X133755226Y-86158102D01*
X133677205Y-85969744D01*
X133563937Y-85800226D01*
X133419774Y-85656063D01*
X133250256Y-85542795D01*
X133061898Y-85464774D01*
X132861939Y-85425000D01*
X132658061Y-85425000D01*
X132458102Y-85464774D01*
X132269744Y-85542795D01*
X132221546Y-85575000D01*
X130821383Y-85575000D01*
X130753475Y-85473368D01*
X130546632Y-85266525D01*
X130372240Y-85150000D01*
X130546632Y-85033475D01*
X130753475Y-84826632D01*
X130915990Y-84583411D01*
X131027932Y-84313158D01*
X131085000Y-84026260D01*
X131085000Y-83733740D01*
X131070539Y-83661039D01*
X133355049Y-81376530D01*
X133388817Y-81348817D01*
X133499411Y-81214059D01*
X133581589Y-81060313D01*
X133632195Y-80893490D01*
X133645000Y-80763477D01*
X133645000Y-80763469D01*
X133649281Y-80720000D01*
X133645000Y-80676531D01*
X133645000Y-75568454D01*
X133677205Y-75520256D01*
X133755226Y-75331898D01*
X133795000Y-75131939D01*
X133795000Y-74928061D01*
X133755226Y-74728102D01*
X133677205Y-74539744D01*
X133563937Y-74370226D01*
X133419774Y-74226063D01*
X133250256Y-74112795D01*
X133061898Y-74034774D01*
X132861939Y-73995000D01*
X132658061Y-73995000D01*
X132458102Y-74034774D01*
X132269744Y-74112795D01*
X132100226Y-74226063D01*
X131956063Y-74370226D01*
X131842795Y-74539744D01*
X131764774Y-74728102D01*
X131725000Y-74928061D01*
X131725000Y-75131939D01*
X131764774Y-75331898D01*
X131842795Y-75520256D01*
X131875000Y-75568454D01*
X131875001Y-80353420D01*
X131076652Y-81151770D01*
X131027932Y-80906842D01*
X130915990Y-80636589D01*
X130753475Y-80393368D01*
X130621620Y-80261513D01*
X130694180Y-80239502D01*
X130804494Y-80180537D01*
X130901185Y-80101185D01*
X130980537Y-80004494D01*
X131039502Y-79894180D01*
X131075812Y-79774482D01*
X131088072Y-79650000D01*
X131085000Y-79085750D01*
X130926250Y-78927000D01*
X129727000Y-78927000D01*
X129727000Y-78947000D01*
X129473000Y-78947000D01*
X129473000Y-78927000D01*
X128273750Y-78927000D01*
X128115000Y-79085750D01*
X128111928Y-79650000D01*
X128124188Y-79774482D01*
X128160498Y-79894180D01*
X128219463Y-80004494D01*
X128298815Y-80101185D01*
X128395506Y-80180537D01*
X128505820Y-80239502D01*
X128578380Y-80261513D01*
X128446525Y-80393368D01*
X128405344Y-80455000D01*
X127763469Y-80455000D01*
X127720000Y-80450719D01*
X127676531Y-80455000D01*
X127676523Y-80455000D01*
X127546510Y-80467805D01*
X127379687Y-80518411D01*
X127327117Y-80546510D01*
X127225941Y-80600589D01*
X127124953Y-80683468D01*
X127124951Y-80683470D01*
X127091183Y-80711183D01*
X127063470Y-80744951D01*
X125814956Y-81993466D01*
X125781183Y-82021183D01*
X125670589Y-82155942D01*
X125588411Y-82309688D01*
X125537805Y-82476511D01*
X125525000Y-82606524D01*
X125525000Y-82606531D01*
X125520719Y-82650000D01*
X125525000Y-82693469D01*
X125525001Y-97846514D01*
X125525000Y-97846524D01*
X125525000Y-97846531D01*
X125520719Y-97890000D01*
X125525000Y-97933469D01*
X125525001Y-106241544D01*
X125492795Y-106289744D01*
X125414774Y-106478102D01*
X125375000Y-106678061D01*
X123997000Y-106678061D01*
X123997000Y-77950000D01*
X128111928Y-77950000D01*
X128115000Y-78514250D01*
X128273750Y-78673000D01*
X129473000Y-78673000D01*
X129473000Y-77473750D01*
X129727000Y-77473750D01*
X129727000Y-78673000D01*
X130926250Y-78673000D01*
X131085000Y-78514250D01*
X131088072Y-77950000D01*
X131075812Y-77825518D01*
X131039502Y-77705820D01*
X130980537Y-77595506D01*
X130901185Y-77498815D01*
X130804494Y-77419463D01*
X130694180Y-77360498D01*
X130574482Y-77324188D01*
X130450000Y-77311928D01*
X129885750Y-77315000D01*
X129727000Y-77473750D01*
X129473000Y-77473750D01*
X129314250Y-77315000D01*
X128750000Y-77311928D01*
X128625518Y-77324188D01*
X128505820Y-77360498D01*
X128395506Y-77419463D01*
X128298815Y-77498815D01*
X128219463Y-77595506D01*
X128160498Y-77705820D01*
X128124188Y-77825518D01*
X128111928Y-77950000D01*
X123997000Y-77950000D01*
X123997000Y-44461682D01*
X124165000Y-44461682D01*
X124165000Y-45138318D01*
X124297006Y-45801952D01*
X124555943Y-46427082D01*
X124931862Y-46989685D01*
X125410315Y-47468138D01*
X125972918Y-47844057D01*
X126598048Y-48102994D01*
X127261682Y-48235000D01*
X127938318Y-48235000D01*
X128601952Y-48102994D01*
X129227082Y-47844057D01*
X129789685Y-47468138D01*
X130268138Y-46989685D01*
X130644057Y-46427082D01*
X130902994Y-45801952D01*
X131035000Y-45138318D01*
X131035000Y-44461682D01*
X184165000Y-44461682D01*
X184165000Y-45138318D01*
X184297006Y-45801952D01*
X184555943Y-46427082D01*
X184931862Y-46989685D01*
X185410315Y-47468138D01*
X185972918Y-47844057D01*
X186598048Y-48102994D01*
X187261682Y-48235000D01*
X187938318Y-48235000D01*
X188601952Y-48102994D01*
X189227082Y-47844057D01*
X189789685Y-47468138D01*
X190268138Y-46989685D01*
X190644057Y-46427082D01*
X190902994Y-45801952D01*
X191035000Y-45138318D01*
X191035000Y-44461682D01*
X190902994Y-43798048D01*
X190644057Y-43172918D01*
X190268138Y-42610315D01*
X189789685Y-42131862D01*
X189227082Y-41755943D01*
X188601952Y-41497006D01*
X187938318Y-41365000D01*
X187261682Y-41365000D01*
X186598048Y-41497006D01*
X185972918Y-41755943D01*
X185410315Y-42131862D01*
X184931862Y-42610315D01*
X184555943Y-43172918D01*
X184297006Y-43798048D01*
X184165000Y-44461682D01*
X131035000Y-44461682D01*
X130902994Y-43798048D01*
X130644057Y-43172918D01*
X130268138Y-42610315D01*
X129789685Y-42131862D01*
X129227082Y-41755943D01*
X128601952Y-41497006D01*
X127938318Y-41365000D01*
X127261682Y-41365000D01*
X126598048Y-41497006D01*
X125972918Y-41755943D01*
X125410315Y-42131862D01*
X124931862Y-42610315D01*
X124555943Y-43172918D01*
X124297006Y-43798048D01*
X124165000Y-44461682D01*
X123997000Y-44461682D01*
X123997000Y-42410677D01*
X124316626Y-41965870D01*
X124870403Y-41429223D01*
X125510451Y-40999129D01*
X125811448Y-40867000D01*
X189389356Y-40867000D01*
X189807905Y-41066638D01*
G37*
%TD.AperFunction*%
%TD*%
M02*
